<?xml version="1.0" standalone="no"?>
<!DOCTYPE svg PUBLIC "-//W3C//DTD SVG 1.1//EN" "http://www.w3.org/Graphics/SVG/1.1/DTD/svg11.dtd" >
<svg>
<metadata>
Created by FontForge 20090914 at Sat Jul 16 16:14:50 2022
 By www-data
&#194;&#169;2009 Commercial Type.
</metadata>
<defs>
<font id="Graphik-Medium" horiz-adv-x="600" >
  <font-face 
    font-family="Graphik Medium"
    font-weight="500"
    font-stretch="normal"
    units-per-em="1000"
    panose-1="2 11 6 3 3 2 2 6 2 3"
    ascent="821"
    descent="-179"
    x-height="523"
    cap-height="715"
    bbox="-235 -225 1134 1123"
    underline-thickness="50"
    underline-position="-150"
    unicode-range="U+0020-U+FB02"
  />
<missing-glyph horiz-adv-x="508" 
 />
    <glyph glyph-name="f_f" unicode="ff" horiz-adv-x="667" 
d="M93 0v432.002h-71v91h71v63c0 57.333 15.167 101.166 45.5 131.499s73.5 45.5 129.5 45.5c25.333 0 48.333 -3.33301 69 -10v-94c-18.667 6.66699 -36.667 10 -54 10c-46 0 -69 -25.667 -69 -77v-69h184v70c0 57.333 15.167 101.166 45.5 131.499s73.5 45.5 129.5 45.5
c26 0 49.333 -3.33301 70 -10v-94c-16.667 6 -35 9 -55 9c-46 0 -69 -25.667 -69 -77v-75h119v-91h-119v-432h-121v432h-184v-432h-121z" />
    <glyph glyph-name=".notdef" horiz-adv-x="508" 
 />
    <glyph glyph-name="space" unicode=" " horiz-adv-x="238" 
 />
    <glyph glyph-name="exclam" unicode="!" horiz-adv-x="305" 
d="M152 -7c-22 0 -40.833 7.5 -56.5 22.5s-23.5 33.167 -23.5 54.5c0 22 7.83301 40.5 23.5 55.5s34.5 22.5 56.5 22.5c22.667 0 41.834 -7.5 57.501 -22.5s23.5 -33.5 23.5 -55.5c0 -21.333 -7.83301 -39.5 -23.5 -54.5s-34.834 -22.5 -57.501 -22.5zM104 215l-18 500h135
l-19 -500h-98z" />
    <glyph glyph-name="quotedbl" unicode="&#x22;" horiz-adv-x="409" 
d="M70 458l-17 257h121l-17 -257h-87zM253 458l-18 257h121l-17 -257h-86z" />
    <glyph glyph-name="numbersign" unicode="#" horiz-adv-x="532" 
d="M259 99l24 167h-83l-24 -167h-89l24 167h-77v98h92l16 110h-82v95h96l22 146h88l-21 -146h83l22 146h89l-22 -146h81v-95h-95l-16 -110h85v-98h-100l-24 -167h-89zM231 474l-16 -110h83l16 110h-83z" />
    <glyph glyph-name="dollar" unicode="$" horiz-adv-x="635" 
d="M286 -135l0.000976562 126.002c-80.667 6 -141 29.5 -181 70.5s-62.667 94.167 -68 159.5h124c4.66699 -38 15.834 -68.167 33.501 -90.5s48.167 -36.166 91.5 -41.499v225c-76.667 13.333 -133.334 35.666 -170.001 66.999s-55 77.666 -55 138.999
c0 56 20.667 102.667 62 140s95.666 58.333 162.999 63v90h67v-91c65.333 -6 117 -26 155 -60s60 -81.667 66 -143h-118c-11.333 61.333 -45.666 96.666 -102.999 105.999v-205c79.333 -12.667 138.166 -34.667 176.499 -66s57.5 -79 57.5 -143c0 -60 -21 -110.5 -63 -151.5
s-99 -63.833 -171 -68.5v-126h-67zM464.001 199.002c0 29.333 -7.83203 51.667 -23.499 67s-44.834 27.666 -87.501 36.999v-214c34 4.66699 61 16.834 81 36.501s30 44.167 30 73.5zM179.002 531.003c0 -28 7.33301 -49.5 22 -64.5s43 -26.833 85 -35.5v197
c-34 -4 -60.333 -14.833 -79 -32.5s-28 -39.167 -28 -64.5z" />
    <glyph glyph-name="percent" unicode="%" horiz-adv-x="801" 
d="M205 456c23.333 0 41.833 8.16602 55.5 24.499s20.5 39.166 20.5 68.499c0 28.667 -6.83301 51.334 -20.5 68.001s-32.167 25 -55.5 25c-24 0 -42.833 -8.16699 -56.5 -24.5s-20.5 -39.166 -20.5 -68.499c0 -30 6.83301 -53 20.5 -69s32.5 -24 56.5 -24zM204 374.999
c-49.333 0 -90.668 16.501 -124.001 49.501s-50 74.167 -50 123.5s17 90.666 51 123.999s75.333 50 124 50s89.667 -16.333 123 -49s50 -73.667 50 -123c0 -50 -16.667 -91.667 -50 -125s-74.666 -50 -123.999 -50zM127.998 0l461 715h84l-460 -715h-85zM596.998 71
c23.333 0 41.833 8.16602 55.5 24.499s20.5 39.166 20.5 68.499c0 28.667 -6.83301 51.334 -20.5 68.001s-32.167 25 -55.5 25c-24 0 -42.833 -8.16699 -56.5 -24.5s-20.5 -39.166 -20.5 -68.499c0 -30 6.83301 -53 20.5 -69s32.5 -24 56.5 -24zM595.998 -10.001
c-49.333 0 -90.502 16.501 -123.502 49.501s-49.5 74.167 -49.5 123.5s16.833 90.666 50.5 123.999s74.834 50 123.501 50s89.834 -16.333 123.501 -49s50.5 -73.667 50.5 -123c0 -50 -16.833 -91.667 -50.5 -125s-75.167 -50 -124.5 -50z" />
    <glyph glyph-name="ampersand" unicode="&#x26;" horiz-adv-x="716" 
d="M685 370l-117.002 -224l120 -146h-153l-60 73c-53.333 -54.667 -118.666 -82 -195.999 -82c-70 0 -126.667 18.5 -170 55.5s-65 86.5 -65 148.5c0 49.333 13.833 90.833 41.5 124.5s67.5 62.834 119.5 87.501c-37.333 49.333 -56 96.333 -56 141c0 54 19 96.333 57 127
s84.667 46 140 46c50.667 0 93.334 -14.167 128.001 -42.5s52 -65.833 52 -112.5c0 -78.667 -49.667 -139.334 -149 -182.001l126 -154l73 140h109zM292.998 91c46.667 0 86.666 19.667 119.999 59l-152 185c-30 -15.333 -52.667 -32.5 -68 -51.5s-23 -44.167 -23 -75.5
c0 -36 10.833 -64.5 32.5 -85.5s51.834 -31.5 90.501 -31.5zM266.997 547c0 -26.667 18 -61.667 54 -105c34 16 58.333 33 73 51s22 40.667 22 68c0 20.667 -6.5 37.667 -19.5 51s-29.833 20 -50.5 20c-23.333 0 -42.333 -7.33301 -57 -22s-22 -35.667 -22 -63z" />
    <glyph glyph-name="quotesingle" unicode="'" horiz-adv-x="229" 
d="M70 458l-17 257h123l-17 -257h-89z" />
    <glyph glyph-name="parenleft" unicode="(" horiz-adv-x="335" 
d="M213 -148c-110.667 131.333 -166 285 -166 461s55.333 329.667 166 461h106c-101.333 -135.333 -152 -289 -152 -461s50.667 -325.667 152 -461h-106z" />
    <glyph glyph-name="parenright" unicode=")" horiz-adv-x="335" 
d="M17 -146c100.667 136 151 289.667 151 461s-50.333 325 -151 461h105c110.667 -131.333 166 -285 166 -461s-55.333 -329.667 -166 -461h-105z" />
    <glyph glyph-name="asterisk" unicode="*" horiz-adv-x="429" 
d="M149 394l-77 55l85 102l-120 23l27 89l114 -50l-13 130h100l-13 -130l114 50l26 -89l-121 -23l85 -102l-76 -55l-67 118z" />
    <glyph glyph-name="plus" unicode="+" horiz-adv-x="539" 
d="M219 96v198h-182v94h182v198h101v-198h183v-94h-183v-198h-101z" />
    <glyph glyph-name="comma" unicode="," horiz-adv-x="292" 
d="M103 -123l-75 33l91 237l115 -46z" />
    <glyph glyph-name="hyphen" unicode="-" horiz-adv-x="353" 
d="M56 229v100h240v-100h-240z" />
    <glyph glyph-name="period" unicode="." horiz-adv-x="289" 
d="M144 -7c-22 0 -40.667 7.5 -56 22.5s-23 33.5 -23 55.5s7.66699 40.667 23 56s34 23 56 23c22.667 0 41.667 -7.66699 57 -23s23 -34 23 -56s-7.66699 -40.5 -23 -55.5s-34.333 -22.5 -57 -22.5z" />
    <glyph glyph-name="slash" unicode="/" horiz-adv-x="415" 
d="M-6 -148l301 924h103l-302 -924h-102z" />
    <glyph glyph-name="zero" unicode="0" horiz-adv-x="701" 
d="M354 96c108.667 0 163.001 82 163.001 246v35c0 76.667 -14.333 136.5 -43 179.5s-69.334 64.5 -122.001 64.5c-54 0 -95.333 -21 -124 -63s-43 -102.667 -43 -182v-36c0 -80 14.667 -140.667 44 -182s71 -62 125 -62zM351.001 -10
c-91.333 0 -164.168 31.333 -218.501 94s-81.5 147.667 -81.5 255v36c0 107.333 27.333 192.5 82 255.5s127.334 94.5 218.001 94.5c91.333 0 164 -31.167 218 -93.5s81 -146.833 81 -253.5v-36c0 -108 -26.667 -193.667 -80 -257s-126.333 -95 -219 -95z" />
    <glyph glyph-name="one" unicode="1" horiz-adv-x="419" 
d="M183 0v583l-151 -103v117l166 118h119v-715h-134z" />
    <glyph glyph-name="two" unicode="2" horiz-adv-x="578" 
d="M15 0l-0.000976562 23.999l270 285c72.667 76.667 109 144.334 109 203.001c0 34 -9.33301 60.667 -28 80s-45 29 -79 29c-74 0 -116.667 -47.333 -128 -142h-122c4.66699 78 29.334 138.5 74.001 181.5s104.667 64.5 180 64.5c73.333 0 131 -19.167 173 -57.5
s63 -89.5 63 -153.5c0 -80.667 -46.667 -166 -140 -256l-159 -155h304v-103h-517z" />
    <glyph glyph-name="three" unicode="3" horiz-adv-x="623" 
d="M304 -10c-83.333 0 -148.168 21.001 -194.501 63.001s-71.166 98 -74.499 168h121c4 -40 17.667 -71.833 41 -95.5s58 -35.5 104 -35.5c45.333 0 79.333 10.167 102 30.5s34 48.833 34 85.5c0 78 -43 117 -129 117h-55v95h51c79.333 0 119 35 119 105
c0 30 -9.5 54.333 -28.5 73s-46.5 28 -82.5 28c-37.333 0 -67.833 -10.5 -91.5 -31.5s-37.5 -49.833 -41.5 -86.5h-118c3.33301 64 27.666 116.5 72.999 157.5s105.333 61.5 180 61.5c72.667 0 130.167 -18.333 172.5 -55s63.5 -82.334 63.5 -137.001
c0 -74.667 -38.667 -126.667 -116 -156c42.667 -10 76.334 -29.833 101.001 -59.5s37 -67.5 37 -113.5c0 -66 -24.167 -118.167 -72.5 -156.5s-113.5 -57.5 -195.5 -57.5z" />
    <glyph glyph-name="four" unicode="4" horiz-adv-x="641" 
d="M385 0v145h-354v47l316 523h167v-471h96v-99h-96v-145h-129zM173 244h214v370z" />
    <glyph glyph-name="five" unicode="5" horiz-adv-x="604" 
d="M291 -10c-80.667 0 -142.335 19.6689 -185.002 59.002s-66 91.333 -70 156h124c6 -36.667 18.5 -64.5 37.5 -83.5s49.833 -28.5 92.5 -28.5c40.667 0 72.334 13 95.001 39s34 61.333 34 106c0 43.333 -11.667 77.666 -35 102.999s-54.666 38 -93.999 38
c-63.333 0 -113 -20.667 -149 -62h-68l6 398h434v-105h-332l-1 -194c34.667 40 86 60 154 60c65.333 0 118.333 -21.5 159 -64.5s61 -101.5 61 -175.5c0 -74.667 -24.333 -134.334 -73 -179.001s-112 -67 -190 -67z" />
    <glyph glyph-name="six" unicode="6" horiz-adv-x="641" 
d="M331 -10c-98 0 -169.166 30.168 -213.499 90.501s-66.5 141.833 -66.5 244.5v17c0 120.667 27.333 214.667 82 282s126 101 214 101c66 0 119.167 -16 159.5 -48s64.833 -79 73.5 -141h-124c-6.66699 28.667 -18.5 50.167 -35.5 64.5s-41.833 21.5 -74.5 21.5
c-48.667 0 -87.5 -21.333 -116.5 -64s-44.5 -104 -46.5 -184c36.667 61.333 95.667 92 177 92c68.667 0 125 -21.5 169 -64.5s66 -99.167 66 -168.5c0 -72.667 -23.833 -131.334 -71.5 -176.001s-111.834 -67 -192.501 -67zM329.001 88.001
c40 0 72.335 13.002 97.002 39.002s37 60.333 37 103c0 43.333 -12.167 78.166 -36.5 104.499s-56.833 39.5 -97.5 39.5s-73.834 -12.833 -99.501 -38.5s-38.5 -58.167 -38.5 -97.5c0 -46.667 12.667 -83.334 38 -110.001s58.666 -40 99.999 -40z" />
    <glyph glyph-name="seven" unicode="7" horiz-adv-x="545" 
d="M132 0l230 607h-333v108h500v-16l-260 -699h-137z" />
    <glyph glyph-name="eight" unicode="8" horiz-adv-x="627" 
d="M314 -10c-75.333 0 -138.832 18.665 -190.499 55.998s-77.5 89.333 -77.5 156c0 44 12 81.667 36 113s56.667 54.333 98 69c-70.667 28 -106 77.667 -106 149c0 58 23.667 104.5 71 139.5s103.666 52.5 168.999 52.5c66.667 0 123.167 -17.333 169.5 -52
s69.5 -80.667 69.5 -138c0 -69.333 -35.333 -119.333 -106 -150c42.667 -15.333 75.5 -38.166 98.5 -68.499s34.5 -67.166 34.5 -110.499c0 -68 -25.333 -121 -76 -159s-114 -57 -190 -57zM314.001 89.998c39.333 0 71.334 11.002 96.001 33.002s37 52.333 37 91
c0 38 -12.333 67.833 -37 89.5s-56.334 32.5 -95.001 32.5c-38 0 -70 -10.833 -96 -32.5s-39 -51.834 -39 -90.501s12.833 -68.834 38.5 -90.501s57.5 -32.5 95.5 -32.5zM316.002 423c33.333 0 60.167 9.33301 80.5 28s30.5 44 30.5 76c0 30 -10.667 54.5 -32 73.5
s-48.333 28.5 -81 28.5s-59.667 -9.33301 -81 -28s-32 -43.667 -32 -75s11.167 -56.333 33.5 -75s49.5 -28 81.5 -28z" />
    <glyph glyph-name="nine" unicode="9" horiz-adv-x="642" 
d="M302 -9c-72.667 0 -130.331 16.999 -172.998 50.999s-68.334 82 -77.001 144h125c14 -61.333 55 -92 123 -92c104 0 157 81.667 159 245c-36.667 -60 -95.334 -90 -176.001 -90c-70 0 -127 21.167 -171 63.5s-66 98.5 -66 168.5c0 73.333 24 132.5 72 177.5
s112.333 67.5 193 67.5c92 0 161.5 -29 208.5 -87s70.5 -139.667 70.5 -245v-37c0 -117.333 -25 -207.666 -75 -270.999s-121 -95 -213 -95zM311.003 341.999c40.667 0 73.833 12.333 99.5 37s38.5 56.667 38.5 96c0 47.333 -12.667 84.5 -38 111.5s-59 40.5 -101 40.5
c-40 0 -72.167 -13 -96.5 -39s-36.5 -60.333 -36.5 -103c0 -43.333 12.167 -78 36.5 -104s56.833 -39 97.5 -39z" />
    <glyph glyph-name="colon" unicode=":" horiz-adv-x="297" 
d="M148 -7c-22 0 -40.667 7.5 -56 22.5s-23 33.5 -23 55.5s7.66699 40.667 23 56s34 23 56 23c22.667 0 41.667 -7.66699 57 -23s23 -34 23 -56s-7.66699 -40.5 -23 -55.5s-34.333 -22.5 -57 -22.5zM148 285c-22 0 -40.667 7.66699 -56 23s-23 34 -23 56
s7.66699 40.5 23 55.5s34 22.5 56 22.5c22.667 0 41.667 -7.5 57 -22.5s23 -33.5 23 -55.5s-7.66699 -40.667 -23 -56s-34.333 -23 -57 -23z" />
    <glyph glyph-name="semicolon" unicode=";" horiz-adv-x="303" 
d="M91 -123l-74 33l91 237l114 -46zM163 285c-22.667 0 -41.667 7.66699 -57 23s-23 34 -23 56s7.66699 40.5 23 55.5s34.333 22.5 57 22.5c22 0 40.833 -7.5 56.5 -22.5s23.5 -33.5 23.5 -55.5s-7.83301 -40.667 -23.5 -56s-34.5 -23 -56.5 -23z" />
    <glyph glyph-name="less" unicode="&#x3c;" horiz-adv-x="507" 
d="M447 81l-398 228v26l398 228v-112l-234 -128l234 -131v-111z" />
    <glyph glyph-name="equal" unicode="=" horiz-adv-x="513" 
d="M39 185v91h434v-91h-434zM39 371v92h434v-92h-434z" />
    <glyph glyph-name="greater" unicode="&#x3e;" horiz-adv-x="507" 
d="M60 81v113l234 128l-234 131v111l399 -229v-25z" />
    <glyph glyph-name="question" unicode="?" horiz-adv-x="516" 
d="M175 215l-0.000976562 38.002c0 18.667 2.5 36.167 7.5 52.5s13.833 32.666 26.5 48.999s22.5 28.333 29.5 36s19.5 20.167 37.5 37.5c16 16 28 28.333 36 37s15.667 20.167 23 34.5s11 28.166 11 41.499c0 26 -7.33301 46.5 -22 61.5s-37 22.5 -67 22.5
c-30.667 0 -56.167 -10.167 -76.5 -30.5s-32.166 -47.833 -35.499 -82.5h-116c3.33301 65.333 26.333 117.166 69 155.499s97.667 57.5 165 57.5c68.667 0 120.834 -16.333 156.501 -49s53.5 -74.667 53.5 -126c0 -32 -7.5 -59.833 -22.5 -83.5s-36.833 -49.5 -65.5 -77.5
c-1.33301 -1.33301 -6.5 -6.16602 -15.5 -14.499s-14.333 -13.5 -16 -15.5s-6.33398 -6.66699 -14.001 -14s-12.5 -12.5 -14.5 -15.5s-5.66699 -7.83301 -11 -14.5s-9 -12.167 -11 -16.5l-7.5 -16c-3 -6.33301 -5.16699 -12.333 -6.5 -18s-2 -11.5 -2 -17.5v-32h-112z
M229.999 -6.99805c-22.667 0 -42 7.5 -58 22.5s-24 33.167 -24 54.5c0 22 8 40.5 24 55.5s35.333 22.5 58 22.5c22 0 40.833 -7.5 56.5 -22.5s23.5 -33.5 23.5 -55.5c0 -21.333 -7.83301 -39.5 -23.5 -54.5s-34.5 -22.5 -56.5 -22.5z" />
    <glyph glyph-name="at" unicode="@" horiz-adv-x="917" 
d="M460 -151c-129.333 0 -231.833 39.334 -307.5 118.001s-113.5 175.334 -113.5 290.001c0 123.333 42.833 226.166 128.5 308.499s188.167 123.5 307.5 123.5c118.667 0 215.667 -34.333 291 -103s113 -156 113 -262c0 -88 -20.167 -153.833 -60.5 -197.5
s-86.5 -65.5 -138.5 -65.5c-40 0 -69.833 7.16699 -89.5 21.5s-32.5 35.166 -38.5 62.499c-14.667 -26.667 -34.5 -48.167 -59.5 -64.5s-52.833 -24.5 -83.5 -24.5c-49.333 0 -88.666 16 -117.999 48s-44 75.667 -44 131c0 67.333 19 123 57 167s84.667 66 140 66
c58.667 0 97.667 -21.667 117 -65l7 57h108l-31 -260c-7.33301 -49.333 8 -74 46 -74c31.333 0 57.833 16.5 79.5 49.5s32.5 82.167 32.5 147.5c0 90 -29.333 162.333 -88 217s-138.667 82 -240 82c-102.667 0 -187.667 -33.833 -255 -101.5s-101 -155.5 -101 -263.5
c0 -97.333 29.833 -178.5 89.5 -243.5s143.834 -97.5 252.501 -97.5c100 0 181.333 28 244 84h83c-28.667 -46 -72.334 -82.667 -131.001 -110s-124.334 -41 -197.001 -41zM439 141.001c29.333 0 54.832 13.167 76.499 39.5s32.5 61.5 32.5 105.5c0 64 -29.667 96 -89 96
c-28.667 0 -52.667 -13 -72 -39s-29 -61 -29 -105c0 -29.333 7.33301 -52.833 22 -70.5s34.334 -26.5 59.001 -26.5z" />
    <glyph glyph-name="A" unicode="A" horiz-adv-x="703" 
d="M27 0l239 715h174l236 -715h-138l-57 177h-273l-56 -177h-125zM345 606l-106 -332h211z" />
    <glyph glyph-name="B" unicode="B" horiz-adv-x="645" 
d="M82 0v714.999h256c156 0 234 -62 234 -186v-4c0 -78 -37.667 -128.667 -113 -152c48.667 -10.667 84.667 -29.667 108 -57s35 -64.666 35 -111.999v-4c0 -66 -21 -115.833 -63 -149.5s-102.667 -50.5 -182 -50.5h-275zM212 94.999l129 0.000976562
c86.667 0 130 38 130 114v4c0 37.333 -11.167 65.166 -33.5 83.499s-57.5 27.5 -105.5 27.5h-120v-229zM212 414l110 -0.000976562c43.333 0 74.5 8.33301 93.5 25s28.5 43.334 28.5 80.001v4c0 34 -10 58.667 -30 74s-51.333 23 -94 23h-108v-206z" />
    <glyph glyph-name="C" unicode="C" horiz-adv-x="741" 
d="M395 -10c-110.667 0 -196.5 32.667 -257.5 98s-91.5 153.666 -91.5 264.999v8c0 106.667 32.833 194.167 98.5 262.5s148.5 102.5 248.5 102.5c85.333 0 155.833 -21.333 211.5 -64s87.5 -104.667 95.5 -186h-135c-15.333 96 -72.333 144 -171 144
c-63.333 0 -113.833 -23.167 -151.5 -69.5s-56.5 -109.166 -56.5 -188.499v-8c0 -80.667 18.333 -143.5 55 -188.5s88 -67.5 154 -67.5c50.667 0 92.167 12.833 124.5 38.5s51.833 63.167 58.5 112.5h130c-10 -84 -42.833 -148.167 -98.5 -192.5
s-127.167 -66.5 -214.5 -66.5z" />
    <glyph glyph-name="D" unicode="D" horiz-adv-x="714" 
d="M215 105h77.999c78.667 0 137.834 21.5 177.501 64.5s59.5 104.833 59.5 185.5v8c0 164.667 -79.333 247 -238 247h-77v-505zM81.999 0l-0.000976562 715h217c121.333 0 213.333 -31.5 276 -94.5s94 -148.167 94 -255.5v-9c0 -108 -31.667 -194.333 -95 -259
s-155.666 -97 -276.999 -97h-215z" />
    <glyph glyph-name="E" unicode="E" horiz-adv-x="584" 
d="M82 0v715h447v-105h-314v-196h252v-100h-252v-209h331v-105h-464z" />
    <glyph glyph-name="F" unicode="F" horiz-adv-x="559" 
d="M82 0v715h443v-106h-310v-213h244v-103h-244v-293h-133z" />
    <glyph glyph-name="G" unicode="G" horiz-adv-x="775" 
d="M403 -10c-112 0 -199.501 33.5 -262.501 100.5s-94.5 154.5 -94.5 262.5v8c0 106.667 33.333 194.167 100 262.5s152.334 102.5 257.001 102.5c82.667 0 152.5 -20 209.5 -60s89.833 -100.333 98.5 -181h-133c-15.333 90.667 -73 136 -173 136
c-69.333 0 -123.5 -23.667 -162.5 -71s-58.5 -110.666 -58.5 -189.999v-8c0 -79.333 18.667 -142.166 56 -188.499s92.333 -69.5 165 -69.5c63.333 0 110.833 16.667 142.5 50s48.5 76.666 50.5 129.999h-180v100h311v-66c0 -98.667 -29 -176.334 -87 -233.001
s-137.667 -85 -239 -85z" />
    <glyph glyph-name="H" unicode="H" horiz-adv-x="751" 
d="M82 0v715h133v-304h321v304h134v-715h-134v304h-321v-304h-133z" />
    <glyph glyph-name="I" unicode="I" horiz-adv-x="307" 
d="M86 0v715h134v-715h-134z" />
    <glyph glyph-name="J" unicode="J" horiz-adv-x="443" 
d="M148 -9c-48 0 -85.333 7 -112 21v104c30 -12 60.667 -18 92 -18c71.333 0 107 40.667 107 122v495h134v-498c0 -75.333 -19.667 -131.833 -59 -169.5s-93.333 -56.5 -162 -56.5z" />
    <glyph glyph-name="K" unicode="K" horiz-adv-x="659" 
d="M82 0v715h133v-324l274 325h143l-296 -342l311 -374h-157l-275 334v-334h-133z" />
    <glyph glyph-name="L" unicode="L" horiz-adv-x="551" 
d="M82 0v715h133v-609h305v-106h-438z" />
    <glyph glyph-name="M" unicode="M" horiz-adv-x="890" 
d="M82 0v715h178l188 -488l184 488h176v-715h-133v540l-213 -540h-43l-217 540v-540h-120z" />
    <glyph glyph-name="N" unicode="N" horiz-adv-x="745" 
d="M82 0v715h159l301 -517v517h121v-715h-138l-322 548v-548h-121z" />
    <glyph glyph-name="O" unicode="O" horiz-adv-x="814" 
d="M410 97c67.333 0 120.834 23.5 160.501 70.5s59.5 109.5 59.5 187.5v8c0 75.333 -19.833 136.833 -59.5 184.5s-93.834 71.5 -162.501 71.5c-69.333 0 -123.833 -23.333 -163.5 -70s-59.5 -109 -59.5 -187v-8c0 -77.333 21 -139.5 63 -186.5s96 -70.5 162 -70.5z
M408.001 -10c-108 0 -195.334 34.332 -262.001 102.999s-100 155.334 -100 260.001v8c0 104.667 34 191.5 102 260.5s154.667 103.5 260 103.5c106 0 192.5 -33.833 259.5 -101.5s100.5 -154.167 100.5 -259.5v-8c0 -106 -33.167 -193.5 -99.5 -262.5
s-153.166 -103.5 -260.499 -103.5z" />
    <glyph glyph-name="P" unicode="P" horiz-adv-x="609" 
d="M82 0v715h230c82.667 0 147.5 -18.5 194.5 -55.5s70.5 -92.167 70.5 -165.5v-4c0 -72.667 -23.667 -127.167 -71 -163.5s-111 -54.5 -191 -54.5h-100v-272h-133zM215 368h97c44 0 77.5 10.5 100.5 31.5s34.5 51.167 34.5 90.5v4c0 78.667 -45 118 -135 118h-97v-244z" />
    <glyph glyph-name="Q" unicode="Q" horiz-adv-x="814" 
d="M644 -91l-98 104.999c-44 -16 -90 -24 -138 -24c-108 0 -195.333 34.333 -262 103s-100 155.334 -100 260.001v8c0 104.667 34 191.334 102 260.001s154.667 103 260 103c106 0 192.667 -33.833 260 -101.5s101 -153.834 101 -258.501v-8
c0 -119.333 -41.333 -214 -124 -284l79 -85zM409 94.999c20.667 0 39.334 2.00098 56.001 6.00098l-70 76l81 76l88 -95c44 48 66 114 66 198v8c0 75.333 -19.833 136.666 -59.5 183.999s-93.834 71 -162.501 71c-70 0 -124.833 -23.333 -164.5 -70s-59.5 -109 -59.5 -187
v-8c0 -78.667 21 -141.5 63 -188.5s96 -70.5 162 -70.5z" />
    <glyph glyph-name="R" unicode="R" horiz-adv-x="655" 
d="M82 0v715.001h240c82 0 147 -17.333 195 -52s72 -87.334 72 -158.001v-4c0 -100.667 -53 -164.667 -159 -192l201 -309h-144l-187 289h-85v-289h-133zM215 384.001h107c90.667 0 136 38 136 114v4c0 39.333 -11.5 67.5 -34.5 84.5s-56.833 25.5 -101.5 25.5h-107v-228z
" />
    <glyph glyph-name="S" unicode="S" horiz-adv-x="635" 
d="M325 -10c-93.333 0 -163.17 20.6689 -209.503 62.002s-72.166 98 -77.499 170h128c5.33301 -42 19.333 -74.5 42 -97.5s61.667 -34.5 117 -34.5c40 0 72.5 10.167 97.5 30.5s37.5 46.833 37.5 79.5c0 33.333 -10.333 57.666 -31 72.999s-60 27.666 -118 36.999
c-88.667 12 -152.834 33.5 -192.501 64.5s-59.5 79.167 -59.5 144.5c0 59.333 23 108.333 69 147s106 58 180 58c77.333 0 138.333 -17.5 183 -52.5s70.334 -86.5 77.001 -154.5h-122c-6.66699 37.333 -21 64.5 -43 81.5s-53.667 25.5 -95 25.5
c-39.333 0 -69.666 -8.5 -90.999 -25.5s-32 -39.833 -32 -68.5c0 -30.667 9.83301 -53.667 29.5 -69s59.167 -27.333 118.5 -36c88.667 -12 153.334 -33.5 194.001 -64.5s61 -80.833 61 -149.5c0 -63.333 -24.333 -116 -73 -158s-112 -63 -190 -63z" />
    <glyph glyph-name="T" unicode="T" horiz-adv-x="583" 
d="M225 0v610h-199v105h532v-105h-199v-610h-134z" />
    <glyph glyph-name="U" unicode="U" horiz-adv-x="723" 
d="M357 -10c-90 0 -159.333 24.168 -208 72.501s-73 118.166 -73 209.499v443h134v-433c0 -66 11.5 -113.333 34.5 -142s60.833 -43 113.5 -43c53.333 0 92.5 14.5 117.5 43.5s37.5 79.167 37.5 150.5v424h134v-435c0 -94 -24.833 -165.833 -74.5 -215.5
s-121.5 -74.5 -215.5 -74.5z" />
    <glyph glyph-name="V" unicode="V" horiz-adv-x="683" 
d="M264 0l-241 715h139l186 -580l187 580h125l-242 -715h-154z" />
    <glyph glyph-name="W" unicode="W" horiz-adv-x="955" 
d="M204 0l-178 715h136l124 -525l139 525h110l142 -528l128 528h124l-179 -715h-133l-141 521l-145 -521h-127z" />
    <glyph glyph-name="X" unicode="X" horiz-adv-x="695" 
d="M36 0l230 367l-214 348h150l152 -254l151 254h137l-211 -345l229 -370h-152l-168 279l-168 -279h-136z" />
    <glyph glyph-name="Y" unicode="Y" horiz-adv-x="629" 
d="M254 0v310l-237 405h147l161 -296l157 296h130l-224 -406v-309h-134z" />
    <glyph glyph-name="Z" unicode="Z" horiz-adv-x="608" 
d="M22 0v18l365 592h-328v105h516v-17l-357 -591h347v-107h-543z" />
    <glyph glyph-name="bracketleft" unicode="[" horiz-adv-x="377" 
d="M79 -148v924h256v-91h-134v-742h134v-91h-256z" />
    <glyph glyph-name="backslash" unicode="\" horiz-adv-x="415" 
d="M319 -148l-301 924h102l301 -924h-102z" />
    <glyph glyph-name="bracketright" unicode="]" horiz-adv-x="377" 
d="M42 -148v91h134v742h-134v91h256v-924h-256z" />
    <glyph glyph-name="asciicircum" unicode="^" horiz-adv-x="516" 
d="M36 402l166 313h113l166 -313h-112l-112 213l-113 -213h-108z" />
    <glyph glyph-name="underscore" unicode="_" horiz-adv-x="410" 
d="M-1 -159v74h412v-74h-412z" />
    <glyph glyph-name="grave" unicode="`" horiz-adv-x="400" 
d="M163 601l-104 155h134l59 -155h-89z" />
    <glyph glyph-name="a" unicode="a" horiz-adv-x="555" 
d="M209 -10c-51.333 0 -93.334 12.833 -126.001 38.5s-49 64.5 -49 116.5c0 57.333 24.333 99.333 73 126s113.667 40 195 40h65v27c0 36 -7.16699 62.5 -21.5 79.5s-38.833 25.5 -73.5 25.5c-60.667 0 -94 -27.333 -100 -82h-117c4.66699 58 27.5 101.333 68.5 130
s92.833 43 155.5 43c139.333 0 209 -63.667 209 -191v-343h-119v64c-37.333 -49.333 -90.666 -74 -159.999 -74zM237.999 77c38 0 69 9.5 93 28.5s36 44.833 36 77.5v52h-62c-100.667 0 -151 -28.333 -151 -85c0 -48.667 28 -73 84 -73z" />
    <glyph glyph-name="b" unicode="b" horiz-adv-x="633" 
d="M364 -10c-40 0 -74.832 8.66797 -104.499 26.001s-51.834 40 -66.501 68v-84h-121v765h121v-326c15.333 26.667 38.5 49.167 69.5 67.5s64.833 27.5 101.5 27.5c67.333 0 122.833 -23.833 166.5 -71.5s65.5 -112.5 65.5 -194.5v-8
c0 -82.667 -21.5 -148.334 -64.5 -197.001s-98.833 -73 -167.5 -73zM334.001 86.001c44.667 0 78.832 14.667 102.499 44s35.5 72 35.5 128v8c0 56 -12.833 98.833 -38.5 128.5s-59.167 44.5 -100.5 44.5c-43.333 0 -78.166 -14.833 -104.499 -44.5
s-39.5 -72.5 -39.5 -128.5v-8c0 -56.667 12.833 -99.5 38.5 -128.5s61.167 -43.5 106.5 -43.5z" />
    <glyph glyph-name="c" unicode="c" horiz-adv-x="575" 
d="M301 -10c-76.667 0 -139.834 23.833 -189.501 71.5s-74.5 112.167 -74.5 193.5v8c0 81.333 25.333 146.833 76 196.5s113.334 74.5 188.001 74.5c64 0 118.167 -15.833 162.5 -47.5s69.833 -81.167 76.5 -148.5h-117c-9.33301 66 -49.333 99 -120 99
c-42 0 -76.167 -15.333 -102.5 -46s-39.5 -72.667 -39.5 -126v-8c0 -56 12.833 -99 38.5 -129s61.167 -45 106.5 -45c33.333 0 61.833 9.83301 85.5 29.5s37.167 47.167 40.5 82.5h111c-4.66699 -61.333 -28.667 -110.833 -72 -148.5s-100 -56.5 -170 -56.5z" />
    <glyph glyph-name="d" unicode="d" horiz-adv-x="633" 
d="M268 -10c-68 0 -123.331 23.166 -165.998 69.499s-64 110.833 -64 193.5v8c0 82.667 22 148.834 66 198.501s100.333 74.5 169 74.5c77.333 0 133 -30.333 167 -91v322h121v-765h-121v88c-14.667 -27.333 -37.834 -50.5 -69.501 -69.5s-65.834 -28.5 -102.501 -28.5z
M298.002 85.999c44 0 79.335 14.667 106.002 44s40 72.333 40 129v8c0 56.667 -12.333 99.5 -37 128.5s-59.334 43.5 -104.001 43.5s-79.334 -15.167 -104.001 -45.5s-37 -73.5 -37 -129.5v-8c0 -55.333 12.5 -97.5 37.5 -126.5s57.833 -43.5 98.5 -43.5z" />
    <glyph glyph-name="e" unicode="e" horiz-adv-x="580" 
d="M302 -10c-78 0 -141.668 24 -191.001 72s-74 112.667 -74 194v8c0 80 24.5 145 73.5 195s111.167 75 186.5 75c70.667 0 129.5 -22 176.5 -66s70.5 -110 70.5 -198v-35h-383c2 -50 15.333 -88.333 40 -115s59.334 -40 104.001 -40c70.667 0 110.667 26.667 120 80h117
c-8.66699 -54.667 -34 -96.667 -76 -126s-96.667 -44 -164 -44zM162.999 316h261c-6 86.667 -48.333 130 -127 130c-36 0 -65.833 -11.5 -89.5 -34.5s-38.5 -54.833 -44.5 -95.5z" />
    <glyph glyph-name="f" unicode="f" horiz-adv-x="362" 
d="M93 0v432.001h-71v91h71v70c0 57.333 15.333 101.166 46 131.499s74 45.5 130 45.5c25.333 0 48.333 -3.33301 69 -10v-94c-16.667 6 -35 9 -55 9c-46 0 -69 -25.667 -69 -77v-75h119v-91h-119v-432h-121z" />
    <glyph glyph-name="g" unicode="g" horiz-adv-x="633" 
d="M295 -192c-78 0 -137.668 15.667 -179.001 47s-65.666 73.666 -72.999 126.999h122c10.667 -54.667 53.667 -82 129 -82c97.333 0 146 47 146 141v77c-15.333 -26.667 -38.5 -49.5 -69.5 -68.5s-64.833 -28.5 -101.5 -28.5c-66.667 0 -122 23 -166 69s-66 106 -66 180v7
c0 73.333 22.333 134.5 67 183.5s100.667 73.5 168 73.5c77.333 0 133.333 -30.333 168 -91v80h121v-484c-0.666992 -75.333 -24.5 -132.666 -71.5 -171.999s-111.833 -59 -194.5 -59zM298.999 114c42.667 0 77.499 14.333 104.499 43s40.5 67.667 40.5 117v7
c0 49.333 -12.667 88 -38 116s-59.666 42 -102.999 42c-44 0 -78.667 -14.667 -104 -44s-38 -68 -38 -116v-8c0 -47.333 13 -85.333 39 -114s59 -43 99 -43z" />
    <glyph glyph-name="h" unicode="h" horiz-adv-x="608" 
d="M72 0l0.000976562 765h121v-325c13.333 27.333 34.666 49.833 63.999 67.5s64.333 26.5 105 26.5c55.333 0 99 -16.833 131 -50.5s48 -85.167 48 -154.5v-329h-121v318c0 39.333 -8.33301 68.333 -25 87s-43 28 -79 28s-65.5 -10.833 -88.5 -32.5
s-34.5 -52.5 -34.5 -92.5v-308h-121z" />
    <glyph glyph-name="i" unicode="i" horiz-adv-x="271" 
d="M75 0v523h121v-523h-121zM134 609c-20 0 -37 6.66699 -51 20s-21 29.666 -21 48.999c0 20 7 36.667 21 50s31 20 51 20s37 -6.66699 51 -20s21 -30 21 -50c0 -19.333 -7 -35.666 -21 -48.999s-31 -20 -51 -20z" />
    <glyph glyph-name="j" unicode="j" horiz-adv-x="271" 
d="M3 -188v93.001c48 3.33301 72 28 72 74v544h121v-541c0 -55.333 -14.667 -97.333 -44 -126s-79 -43.334 -149 -44.001zM134 609.001c-20 0 -37 6.66699 -51 20s-21 29.666 -21 48.999c0 20 7 36.667 21 50s31 20 51 20s37 -6.66699 51 -20s21 -30 21 -50
c0 -19.333 -7 -35.666 -21 -48.999s-31 -20 -51 -20z" />
    <glyph glyph-name="k" unicode="k" horiz-adv-x="540" 
d="M72 0v765h121v-472l187 230h132l-203 -240l220 -283h-140l-196 257v-257h-121z" />
    <glyph glyph-name="l" unicode="l" horiz-adv-x="271" 
d="M75 0v765h121v-765h-121z" />
    <glyph glyph-name="m" unicode="m" horiz-adv-x="918" 
d="M72 0l0.00195312 523h121v-80c13.333 26 34 47.667 62 65s60.333 26 97 26c73.333 0 122.666 -31.333 147.999 -94c19.333 30.667 45 54 77 70s65.333 24 100 24c51.333 0 93.166 -16.833 125.499 -50.5s48.5 -84.5 48.5 -152.5v-331h-121v323c0 73.333 -31 110 -93 110
c-32 0 -59.167 -10.5 -81.5 -31.5s-33.5 -50.5 -33.5 -88.5v-313h-121v323c0 73.333 -31 110 -93 110c-32 0 -59.167 -10.5 -81.5 -31.5s-33.5 -50.5 -33.5 -88.5v-313h-121z" />
    <glyph glyph-name="n" unicode="n" horiz-adv-x="608" 
d="M72 0l0.000976562 523h121v-83c13.333 27.333 34.666 49.833 63.999 67.5s64.333 26.5 105 26.5c55.333 0 99 -16.833 131 -50.5s48 -85.167 48 -154.5v-329h-121v318c0 39.333 -8.33301 68.333 -25 87s-43 28 -79 28s-65.5 -10.833 -88.5 -32.5s-34.5 -52.5 -34.5 -92.5
v-308h-121z" />
    <glyph glyph-name="o" unicode="o" horiz-adv-x="611" 
d="M306 84c44.667 0 79.834 15.5 105.501 46.5s38.5 73.5 38.5 127.5v7c0 54 -12.833 96.5 -38.5 127.5s-60.834 46.5 -105.501 46.5c-45.333 0 -80.833 -15.333 -106.5 -46s-38.5 -73 -38.5 -127v-8c0 -54 12.833 -96.5 38.5 -127.5s61.167 -46.5 106.5 -46.5zM305 -10
c-78 0 -142.167 24.666 -192.5 73.999s-75.5 113.333 -75.5 192v8c0 80 25.333 145 76 195s115 75 193 75c77.333 0 141.333 -24.667 192 -74s76 -113.666 76 -192.999v-8c0 -80.667 -25.333 -145.667 -76 -195s-115 -74 -193 -74z" />
    <glyph glyph-name="p" unicode="p" horiz-adv-x="633" 
d="M72 -179v702.001h121v-84c15.333 26.667 38.5 49.167 69.5 67.5s64.833 27.5 101.5 27.5c67.333 0 122.833 -23.833 166.5 -71.5s65.5 -112.5 65.5 -194.5v-8c0 -82.667 -21.5 -148.334 -64.5 -197.001s-98.833 -73 -167.5 -73c-39.333 0 -74 8.5 -104 25.5
s-52.333 39.167 -67 66.5v-261h-121zM334 86.001c44.667 0 78.832 14.667 102.499 44s35.5 72 35.5 128v8c0 56 -12.833 98.833 -38.5 128.5s-59.167 44.5 -100.5 44.5c-43.333 0 -78.166 -14.833 -104.499 -44.5s-39.5 -72.5 -39.5 -128.5v-8
c0 -56.667 12.833 -99.5 38.5 -128.5s61.167 -43.5 106.5 -43.5z" />
    <glyph glyph-name="q" unicode="q" horiz-adv-x="633" 
d="M440 -179l0.00195312 265c-14.667 -26.667 -37.834 -49.334 -69.501 -68.001s-65.834 -28 -102.501 -28c-68 0 -123.333 23.167 -166 69.5s-64 110.833 -64 193.5v8c0 82.667 22 148.834 66 198.501s100.333 74.5 169 74.5c77.333 0 133 -30.333 167 -91v80h121v-702
h-121zM298.002 86c44 0 79.335 14.667 106.002 44s40 72.333 40 129v8c0 56.667 -12.333 99.5 -37 128.5s-59.334 43.5 -104.001 43.5s-79.334 -15.167 -104.001 -45.5s-37 -73.5 -37 -129.5v-8c0 -55.333 12.5 -97.5 37.5 -126.5s57.833 -43.5 98.5 -43.5z" />
    <glyph glyph-name="r" unicode="r" horiz-adv-x="397" 
d="M72 0l-0.000976562 523h121v-98c34.667 70 91.334 105.333 170.001 106v-113c-56.667 -0.666992 -99.167 -12 -127.5 -34s-42.5 -59.333 -42.5 -112v-272h-121z" />
    <glyph glyph-name="s" unicode="s" horiz-adv-x="494" 
d="M251 -10c-67.333 0 -119.999 14.999 -157.999 44.999s-58.333 72.667 -61 128h114c3.33301 -28 13 -49 29 -63s41 -21 75 -21c62.667 0 94 22.333 94 67c0 20.667 -8.5 36.167 -25.5 46.5s-45.833 18.833 -86.5 25.5c-70 11.333 -119 28.5 -147 51.5
s-42 58.833 -42 107.5c0 49.333 19.333 87.833 58 115.5s84.667 41.5 138 41.5c125.333 0 193.666 -52.667 204.999 -158h-112c-5.33301 24 -15.166 41.667 -29.499 53s-35.5 17 -63.5 17c-26 0 -46.333 -5.66699 -61 -17s-22 -26.333 -22 -45s7.66699 -32.667 23 -42
s43.666 -17.666 84.999 -24.999c68 -10.667 117.667 -27 149 -49s47 -59 47 -111c0 -53.333 -18.167 -94.5 -54.5 -123.5s-87.833 -43.5 -154.5 -43.5z" />
    <glyph glyph-name="t" unicode="t" horiz-adv-x="369" 
d="M250 -9c-51.333 0 -90.501 13.333 -117.501 40s-40.5 65 -40.5 115v286h-70v91h70v115h121v-115h115v-91h-115v-275c0 -44.667 20 -67 60 -67c23.333 0 43 3.33301 59 10v-96c-23.333 -8.66699 -50.666 -13 -81.999 -13z" />
    <glyph glyph-name="u" unicode="u" horiz-adv-x="605" 
d="M247 -10c-54.667 0 -98.333 16.332 -131 48.999s-49 82.334 -49 149.001v335h121v-321c0 -39.333 8.33301 -68.333 25 -87s42.667 -28 78 -28c34.667 0 63.667 11 87 33s35 52.667 35 92v311h121v-523h-121v82c-14 -27.333 -35.167 -49.5 -63.5 -66.5
s-62.5 -25.5 -102.5 -25.5z" />
    <glyph glyph-name="v" unicode="v" horiz-adv-x="557" 
d="M209 0l-191 523h130l137 -399l135 399h119l-189 -523h-141z" />
    <glyph glyph-name="w" unicode="w" horiz-adv-x="814" 
d="M180 0l-160 523h129l104 -378l111 378h101l102 -378l109 378h118l-164 -523h-123l-97 352l-106 -352h-124z" />
    <glyph glyph-name="x" unicode="x" horiz-adv-x="556" 
d="M21 0l182 268l-170 255h140l109 -169l108 169h127l-169 -246l187 -277h-141l-122 189l-125 -189h-126z" />
    <glyph glyph-name="y" unicode="y" horiz-adv-x="553" 
d="M130 -179l95 232l-207 470h131l139 -337l128 337h118l-285 -702h-119z" />
    <glyph glyph-name="z" unicode="z" horiz-adv-x="493" 
d="M17 0v14l277 413h-250v96h429v-17l-276 -409h268v-97h-448z" />
    <glyph glyph-name="braceleft" unicode="{" horiz-adv-x="396" 
d="M354 -147c-86.667 0 -149.168 17.3311 -187.501 51.998s-50.833 89.667 -37.5 165l17 96c5.33301 30 -0.833984 55.167 -18.501 75.5s-48.167 30.5 -91.5 30.5v87c43.333 0 73.833 10.167 91.5 30.5s23.834 45.5 18.501 75.5l-17 96c-13.333 76.667 -1 132 37 166
s100.667 51 188 51v-89c-46 -1.33301 -77.167 -11 -93.5 -29s-21.166 -50.667 -14.499 -98l17 -110c5.33301 -35.333 -1.16699 -64.666 -19.5 -87.999s-45.166 -39.333 -80.499 -48c36 -8 63 -23.833 81 -47.5s24.333 -53.167 19 -88.5l-17 -109
c-6.66699 -48 -1.83398 -81.167 14.499 -99.5s47.5 -28.166 93.5 -29.499v-89z" />
    <glyph glyph-name="bar" unicode="|" horiz-adv-x="259" 
d="M84 -148v924h90v-924h-90z" />
    <glyph glyph-name="braceright" unicode="}" horiz-adv-x="396" 
d="M42 -147v89.002c46 1.33301 77.167 11.166 93.5 29.499s20.833 51.5 13.5 99.5l-16 109c-5.33301 35.333 1 64.833 19 88.5s45 39.5 81 47.5c-36 8.66699 -63 24.667 -81 48s-24.333 52.666 -19 87.999l16 110c7.33301 47.333 2.83301 80 -13.5 98s-47.5 27.667 -93.5 29
v89c87.333 0 150 -17 188 -51s50.333 -89.333 37 -166l-17 -96c-5.33301 -30 0.666992 -55.167 18 -75.5s47.666 -30.5 90.999 -30.5v-87c-43.333 0 -73.666 -10.167 -90.999 -30.5s-23.333 -45.5 -18 -75.5l17 -96c13.333 -75.333 0.833008 -130.333 -37.5 -165
s-100.833 -52 -187.5 -52z" />
    <glyph glyph-name="asciitilde" unicode="~" horiz-adv-x="474" 
d="M38 220c3.33301 51.333 16.502 90 39.502 116s50.5 39 82.5 39c25.333 0 53.833 -8 85.5 -24s51.5 -24 59.5 -24c12 0 22.167 4.33301 30.5 13s13.166 21 14.499 37h86c-2.66699 -50 -15.667 -88.5 -39 -115.5s-50.333 -40.5 -81 -40.5
c-26.667 0 -55.834 8.16699 -87.501 24.5s-51.5 24.5 -59.5 24.5c-26 0 -41 -16.667 -45 -50h-86z" />
    <glyph glyph-name="uni00A0" unicode="&#xa0;" horiz-adv-x="271" 
 />
    <glyph glyph-name="exclamdown" unicode="&#xa1;" horiz-adv-x="306" 
d="M85 -117l19 500h97l19 -500h-135zM153 450c-22 0 -41 7.5 -57 22.5s-24 33.5 -24 55.5c0 21.333 8 39.5 24 54.5s35 22.5 57 22.5s41 -7.5 57 -22.5s24 -33.167 24 -54.5c0 -22 -8 -40.5 -24 -55.5s-35 -22.5 -57 -22.5z" />
    <glyph glyph-name="cent" unicode="&#xa2;" horiz-adv-x="577" 
d="M270 -135l0.000976562 127.002c-69.333 6.66699 -125.5 33.334 -168.5 80.001s-64.5 108 -64.5 184v8c0 74 21.833 135.167 65.5 183.5s99.5 76.5 167.5 84.5v97h67v-97c56.667 -4.66699 104 -23.167 142 -55.5s60 -78.5 66 -138.5h-114
c-8.66699 55.333 -40 88.666 -94 99.999v-356c28 5.33301 51.333 17.666 70 36.999s29.334 44.666 32.001 75.999h109c-4.66699 -56 -25.834 -102.5 -63.501 -139.5s-86.834 -58.167 -147.501 -63.5v-127h-67zM159.001 256.002c0 -48 9.83203 -86.833 29.499 -116.5
s46.834 -48.167 81.501 -55.5v353c-34 -8 -61 -27.167 -81 -57.5s-30 -68.833 -30 -115.5v-8z" />
    <glyph glyph-name="sterling" unicode="&#xa3;" horiz-adv-x="620" 
d="M42 304l-0.00292969 84.9961h60c-10.667 42.667 -16 82.667 -16 120c0 64.667 23 116.667 69 156s103.667 59 173 59c73.333 0 130.166 -18.667 170.499 -56s62.833 -88.333 67.5 -153h-125c-6 36 -17.5 62.667 -34.5 80s-42.167 26 -75.5 26
s-60.166 -10.667 -80.499 -32s-30.5 -49.666 -30.5 -84.999c0 -32 4.33301 -70.333 13 -115h199v-85h-182c6.66699 -35.333 10 -69.333 10 -102c0 -20 -4 -41 -12 -63c13.333 -4 30 -9.66699 50 -17s37.333 -13.166 52 -17.499s27.334 -6.5 38.001 -6.5
c50 0 76.667 25 80 75h117c-3.33301 -54 -20.166 -97.833 -50.499 -131.5s-71.833 -50.5 -124.5 -50.5c-34.667 0 -76 9.83301 -124 29.5s-79 29.5 -93 29.5c-18 0 -31.833 -4.83301 -41.5 -14.5s-15.5 -21.5 -17.5 -35.5h-104c2.66699 32.667 12.834 62.667 30.501 90
s42.5 45.333 74.5 54c6.66699 18.667 10 38.334 10 59.001c0 26.667 -6 60.334 -18 101.001h-85z" />
    <glyph glyph-name="yen" unicode="&#xa5;" horiz-adv-x="604" 
d="M76 286v63h149l-204 366h145l147 -288l141 288h128l-192 -366h150v-63h-166v-67h166v-64h-166v-155h-132v155h-166v64h166v67h-166z" />
    <glyph glyph-name="brokenbar" unicode="&#xa6;" horiz-adv-x="264" 
d="M84 -148v447h90v-447h-90zM84 369v407h90v-407h-90z" />
    <glyph glyph-name="section" unicode="&#xa7;" horiz-adv-x="565" 
d="M276 -137c-61.333 0 -109.833 14.998 -145.5 44.998s-54.167 72 -55.5 126h116c4 -54 32.667 -81 86 -81c27.333 0 48.166 6.66699 62.499 20s21.5 31 21.5 53s-8.66699 39.333 -26 52s-51 25 -101 37c-66.667 16.667 -116.667 38.334 -150 65.001s-50 65 -50 115
c0 32.667 9.83301 60.667 29.5 84s46.834 40.333 81.501 51c-36.667 29.333 -55 70.333 -55 123c0 50.667 19.167 91.834 57.5 123.501s85.5 47.5 141.5 47.5c60 0 107.333 -14.667 142 -44s53 -70.333 55 -123h-115c-2 25.333 -9.33301 44.5 -22 57.5s-33 19.5 -61 19.5
c-27.333 0 -48 -6.83301 -62 -20.5s-21 -31.5 -21 -53.5c0 -22.667 8 -40 24 -52s48.667 -24 98 -36c68.667 -17.333 120 -38.666 154 -63.999s51 -64.333 51 -117c0 -30.667 -9.83301 -58 -29.5 -82s-46.5 -42 -80.5 -54c36 -28.667 54 -69.334 54 -122.001
c0 -48.667 -19 -89.167 -57 -121.5s-85.667 -48.5 -143 -48.5zM343 199.998c47.333 11.333 71 36.665 71 75.998c0 22.667 -8.66699 39.834 -26 51.501s-47 23.5 -89 35.5l-77 22c-22 -4.66699 -39.167 -13.667 -51.5 -27s-18.5 -29.666 -18.5 -48.999
c0 -21.333 9 -38 27 -50s47.667 -24 89 -36z" />
    <glyph glyph-name="dieresis" unicode="&#xa8;" horiz-adv-x="400" 
d="M101 613c-18 0 -33.5 6.33301 -46.5 19s-19.5 28 -19.5 46c0 17.333 6.5 32.5 19.5 45.5s28.5 19.5 46.5 19.5s33.5 -6.5 46.5 -19.5s19.5 -28.167 19.5 -45.5c0 -18 -6.5 -33.333 -19.5 -46s-28.5 -19 -46.5 -19zM299 613c-18.667 0 -34.333 6.33301 -47 19
s-19 28 -19 46c0 17.333 6.5 32.5 19.5 45.5s28.5 19.5 46.5 19.5s33.5 -6.5 46.5 -19.5s19.5 -28.167 19.5 -45.5c0 -18 -6.5 -33.333 -19.5 -46s-28.5 -19 -46.5 -19z" />
    <glyph glyph-name="copyright" unicode="&#xa9;" horiz-adv-x="843" 
d="M425 153c-63.333 0 -112.5 18 -147.5 54s-52.5 84.667 -52.5 146v8c0 60 18.667 108.5 56 145.5s84.666 55.5 141.999 55.5c50.667 0 91.834 -12.333 123.501 -37s49.5 -61 53.5 -109h-96c-7.33301 46.667 -34.333 70 -81 70c-30.667 0 -54.667 -10.833 -72 -32.5
s-26 -52.5 -26 -92.5v-7c0 -40 8.5 -70.667 25.5 -92s41.5 -32 73.5 -32c52.667 0 82 24.667 88 74h92c-4 -48.667 -22.167 -86 -54.5 -112s-73.833 -39 -124.5 -39zM421 32c88 0 163.5 30.832 226.5 92.499s94.5 139.834 94.5 234.501c0 94 -30.833 171.5 -92.5 232.5
s-137.167 91.5 -226.5 91.5c-90 0 -166 -30.667 -228 -92s-93 -139.333 -93 -234s31.333 -172.5 94 -233.5s137.667 -91.5 225 -91.5zM421 -13.001c-104 0 -192.167 35.498 -264.5 106.498s-108.5 158.833 -108.5 263.5c0 103.333 36.333 191 109 263
s161.334 108 266.001 108c105.333 0 193.833 -35.667 265.5 -107s107.5 -158.666 107.5 -261.999c0 -105.333 -36.333 -193.666 -109 -264.999s-161.334 -107 -266.001 -107z" />
    <glyph glyph-name="ordfeminine" unicode="&#xaa;" horiz-adv-x="444" 
d="M169 289c-40.667 0 -74.166 10.333 -100.499 31s-39.5 51.667 -39.5 93c0 88 71.667 132 215 132h51v22c0 26 -5.5 45.167 -16.5 57.5s-28.833 18.5 -53.5 18.5c-43.333 0 -68.333 -19.667 -75 -59h-104c3.33301 46 21.666 80.833 54.999 104.5s76.333 35.5 129 35.5
c115.333 0 173 -51.667 173 -155v-271h-107v50c-28 -39.333 -70.333 -59 -127 -59zM200.001 368c28 0 50.833 6.66699 68.5 20s26.5 32 26.5 56v37h-48c-72.667 0 -109 -20.333 -109 -61c0 -34.667 20.667 -52 62 -52z" />
    <glyph glyph-name="guillemotleft" unicode="&#xab;" horiz-adv-x="492" 
d="M176 78l-128 183l128 183h95l-123 -183l123 -183h-95zM355 78l-128 183l128 183h95l-123 -183l123 -183h-95z" />
    <glyph glyph-name="registered" unicode="&#xae;" horiz-adv-x="515" 
d="M178 396v219.001h82c58 0 87 -22.667 87 -68v-1c0 -28.667 -14 -48.334 -42 -59.001l55 -91h-59l-48 81h-19v-81h-56zM234 515.001h24c22.667 0 34 9.33301 34 28v1c0 18.667 -11.333 28 -34 28h-24v-57zM258 319.001c52 0 95.499 17.167 130.499 51.5
s52.5 78.5 52.5 132.5s-17.167 98.167 -51.5 132.5s-78.166 51.5 -131.499 51.5s-97.333 -17.167 -132 -51.5s-52 -78.833 -52 -133.5c0 -54 17.5 -98 52.5 -132s78.833 -51 131.5 -51zM257.999 281.001c-62.667 0 -115.834 21.334 -159.501 64.001s-65.5 95 -65.5 157
s21.833 114.667 65.5 158s96.834 65 159.501 65c63.333 0 116.5 -21.5 159.5 -64.5s64.5 -95.5 64.5 -157.5c0 -62.667 -21.667 -115.334 -65 -158.001s-96.333 -64 -159 -64z" />
    <glyph glyph-name="macron" unicode="&#xaf;" horiz-adv-x="400" 
d="M60 634v78h280v-78h-280z" />
    <glyph glyph-name="degree" unicode="&#xb0;" horiz-adv-x="437" 
d="M219 459c26 0 47.5 9.5 64.5 28.5s25.5 42.833 25.5 71.5c0 29.333 -8.5 53.666 -25.5 72.999s-38.5 29 -64.5 29c-26.667 0 -48.834 -9.66699 -66.501 -29s-26.5 -43.666 -26.5 -72.999c0 -28 8.83301 -51.667 26.5 -71s39.834 -29 66.501 -29zM219 396
c-46.667 0 -86.5 16 -119.5 48s-49.5 70.333 -49.5 115c0 45.333 16.5 84.166 49.5 116.499s72.833 48.5 119.5 48.5s86.334 -16.167 119.001 -48.5s49 -71.166 49 -116.499c0 -44.667 -16.333 -83 -49 -115s-72.334 -48 -119.001 -48z" />
    <glyph glyph-name="plusminus" unicode="&#xb1;" horiz-adv-x="539" 
d="M219 157v175h-182v94h182v176h101v-176h183v-94h-183v-175h-101zM37 0v89h467v-89h-467z" />
    <glyph glyph-name="twosuperior" unicode="&#xb2;" horiz-adv-x="313" 
d="M7 360l0.000976562 13l128 135c39.333 40.667 59 73.667 59 99c0 28.667 -14 43 -42 43c-30 0 -47.333 -20.333 -52 -61h-85c2 42 15.5 74.333 40.5 97s58.5 34 100.5 34c41.333 0 73.166 -10 95.499 -30s33.5 -46.333 33.5 -79c0 -39.333 -23.333 -81.333 -70 -126
l-58 -57h131v-68h-281z" />
    <glyph glyph-name="threesuperior" unicode="&#xb3;" horiz-adv-x="336" 
d="M166 354c-47.333 0 -83.165 10.8311 -107.498 32.498s-37.166 50.834 -38.499 87.501h83c3.33301 -36 22.666 -54 57.999 -54c36 0 54 15.667 54 47c0 30 -18 45 -54 45h-28v58h27c34.667 0 52 14.333 52 43c0 26.667 -15 40 -45 40
c-14.667 0 -26.834 -4.16699 -36.501 -12.5s-15.5 -20.166 -17.5 -35.499h-83c2.66699 34 16.167 61.667 40.5 83s57.166 32 98.499 32c40.667 0 72.667 -8.83301 96 -26.5s35 -41.167 35 -70.5c0 -38 -20.333 -63.667 -61 -77c21.333 -4 38.333 -13.167 51 -27.5
s19 -32.5 19 -54.5c0 -34 -12.5 -60.833 -37.5 -80.5s-60.167 -29.5 -105.5 -29.5z" />
    <glyph glyph-name="acute" unicode="&#xb4;" horiz-adv-x="400" 
d="M148 601l59 155h134l-104 -155h-89z" />
    <glyph glyph-name="paragraph" unicode="&#xb6;" horiz-adv-x="573" 
d="M268 -100l-0.000976562 439h-11c-67.333 0 -120.666 15.833 -159.999 47.5s-59 77.5 -59 137.5c0 62 20 109.333 60 142s93 49 159 49h232v-815h-72v755h-78v-755h-71z" />
    <glyph glyph-name="periodcentered" unicode="&#xb7;" horiz-adv-x="289" 
d="M144 248c-22 0 -40.667 7.66699 -56 23s-23 34 -23 56s7.66699 40.5 23 55.5s34 22.5 56 22.5c22.667 0 41.667 -7.5 57 -22.5s23 -33.5 23 -55.5s-7.66699 -40.667 -23 -56s-34.333 -23 -57 -23z" />
    <glyph glyph-name="cedilla" unicode="&#xb8;" horiz-adv-x="400" 
d="M206 -219c-31.333 0 -56.668 7.83301 -76.001 23.5s-30.666 37.167 -33.999 64.5h66c4 -22 17.333 -33 40 -33c11.333 0 20.333 3.16699 27 9.5s10 14.5 10 24.5c0 9.33301 -3.16699 17 -9.5 23s-14.833 9 -25.5 9s-20.667 -3 -30 -9l-34 32l44 75h60l-29 -50
c27.333 3.33301 50.833 -2.16699 70.5 -16.5s29.5 -36.5 29.5 -66.5c0 -27.333 -10.167 -48.5 -30.5 -63.5s-46.5 -22.5 -78.5 -22.5z" />
    <glyph glyph-name="onesuperior" unicode="&#xb9;" horiz-adv-x="253" 
d="M104 360v265l-82 -51v78l94 63h82v-355h-94z" />
    <glyph glyph-name="ordmasculine" unicode="&#xba;" horiz-adv-x="504" 
d="M253 374c33.333 0 59 11.501 77 34.501s27 54.833 27 95.5v6c0 40 -9.16699 71.5 -27.5 94.5s-43.833 34.5 -76.5 34.5c-33.333 0 -59.333 -11.333 -78 -34s-28 -54.334 -28 -95.001v-6c0 -40.667 9.16699 -72.5 27.5 -95.5s44.5 -34.5 78.5 -34.5zM252 289.001
c-63.333 0 -115.499 19.5 -156.499 58.5s-61.5 90.167 -61.5 153.5v6c0 65.333 20.667 117.833 62 157.5s93.666 59.5 156.999 59.5c62.667 0 114.5 -19.667 155.5 -59s61.5 -90.666 61.5 -153.999v-6c0 -64.667 -20.5 -116.834 -61.5 -156.501s-93.167 -59.5 -156.5 -59.5z
" />
    <glyph glyph-name="guillemotright" unicode="&#xbb;" horiz-adv-x="492" 
d="M43 78l123 183l-123 183h95l128 -183l-128 -183h-95zM221 78l123 183l-123 183h95l128 -183l-128 -183h-95z" />
    <glyph glyph-name="onequarter" unicode="&#xbc;" horiz-adv-x="724" 
d="M107 360v265l-82 -51v78l94 63h82v-355h-94zM55 0l528 715h77l-528 -715h-77zM566 0v69h-178v34l154 252h113v-222h46v-64h-46v-69h-89zM477 133h91v157z" />
    <glyph glyph-name="onehalf" unicode="&#xbd;" horiz-adv-x="728" 
d="M42 0l528 715h77l-528 -715h-77zM107 360v265l-82 -51v78l94 63h82v-355h-94zM418 0v13l128 135c39.333 40.667 59 73.667 59 99c0 28.667 -14 43 -42 43c-30 0 -47.333 -20.333 -52 -61h-85c2 42 15.333 74.333 40 97s58.334 34 101.001 34
c41.333 0 73.166 -10 95.499 -30s33.5 -46.333 33.5 -79c0 -39.333 -23.333 -81.333 -70 -126l-58 -57h131v-68h-281z" />
    <glyph glyph-name="threequarters" unicode="&#xbe;" horiz-adv-x="738" 
d="M169 354c-47.333 0 -83.165 10.8311 -107.498 32.498s-37.166 50.834 -38.499 87.501h83c3.33301 -36 22.666 -54 57.999 -54c36 0 54 15.667 54 47c0 30 -18 45 -54 45h-28v58h27c34.667 0 52 14.333 52 43c0 26.667 -15 40 -45 40
c-14.667 0 -26.834 -4.16699 -36.501 -12.5s-15.5 -20.166 -17.5 -35.499h-83c2.66699 34 16.167 61.667 40.5 83s57.166 32 98.499 32c40.667 0 72.667 -8.83301 96 -26.5s35 -41.167 35 -70.5c0 -38 -20.333 -63.667 -61 -77c21.333 -4 38.333 -13.167 51 -27.5
s19 -32.5 19 -54.5c0 -34 -12.5 -60.833 -37.5 -80.5s-60.167 -29.5 -105.5 -29.5zM96.001 -0.00195312l528 715h77l-528 -715h-77zM577.001 -0.00195312v69h-178v34l154 252h113v-222h46v-64h-46v-69h-89zM488.001 132.998h91v157z" />
    <glyph glyph-name="questiondown" unicode="&#xbf;" horiz-adv-x="516" 
d="M340 383l0.00292969 -37.998c0 -24.667 -5.83301 -48.667 -17.5 -72s-22.667 -40.833 -33 -52.5s-26.833 -28.5 -49.5 -50.5c-23.333 -22 -40.833 -41.5 -52.5 -58.5s-17.5 -35.167 -17.5 -54.5c0 -56 29.333 -84 88 -84c31.333 0 57 10.167 77 30.5
s31.667 47.833 35 82.5h116c-2.66699 -64.667 -25.334 -116.167 -68.001 -154.5s-98 -57.5 -166 -57.5c-68.667 0 -120.834 16.167 -156.501 48.5s-53.5 74.5 -53.5 126.5c0 31.333 7.5 58.833 22.5 82.5s36.833 49.5 65.5 77.5c1.33301 1.33301 6.5 6.16602 15.5 14.499
s14.333 13.5 16 15.5s6.16699 6.66699 13.5 14s12.166 12.5 14.499 15.5l11.5 14.5c5.33301 6.66699 9 12.167 11 16.5s4.66699 9.66602 8 15.999s5.5 12.333 6.5 18s1.83301 11.5 2.5 17.5v32h111zM286.003 606.002c22.667 0 41.834 -7.66699 57.501 -23
s23.5 -33.666 23.5 -54.999c0 -22 -7.83301 -40.5 -23.5 -55.5s-34.834 -22.5 -57.501 -22.5c-22 0 -41 7.5 -57 22.5s-24 33.5 -24 55.5c0 21.333 8 39.666 24 54.999s35 23 57 23z" />
    <glyph glyph-name="Agrave" unicode="&#xc0;" horiz-adv-x="703" 
d="M27 0l239 715h174l236 -715h-138l-57 177h-273l-56 -177h-125zM345 606l-106 -332h211zM311 766l-98 135h136l53 -135h-91z" />
    <glyph glyph-name="Aacute" unicode="&#xc1;" horiz-adv-x="703" 
d="M27 0l239 715h174l236 -715h-138l-57 177h-273l-56 -177h-125zM345 606l-106 -332h211zM298 766l54 135h136l-99 -135h-91z" />
    <glyph glyph-name="Acircumflex" unicode="&#xc2;" horiz-adv-x="703" 
d="M27 0l239 715h174l236 -715h-138l-57 177h-273l-56 -177h-125zM345 606l-106 -332h211zM188 766l111 135h104l108 -135h-88l-74 55l-75 -55h-86z" />
    <glyph glyph-name="Atilde" unicode="&#xc3;" horiz-adv-x="703" 
d="M27 0l239 715h174l236 -715h-138l-57 177h-273l-56 -177h-125zM345 606l-106 -332h211zM408 768c-17.333 0 -38.334 6.5 -63.001 19.5s-41 19.5 -49 19.5c-8.66699 0 -16.5 -3.83301 -23.5 -11.5s-11.5 -17.167 -13.5 -28.5h-76c3.33301 40.667 15.166 72.667 35.499 96
s44.833 35 73.5 35c16.667 0 37.334 -6.66699 62.001 -20s41.667 -20 51 -20c8.66699 0 16.334 3.66699 23.001 11s11 17 13 29h77c-4 -40.667 -16.167 -72.5 -36.5 -95.5s-44.833 -34.5 -73.5 -34.5z" />
    <glyph glyph-name="Adieresis" unicode="&#xc4;" horiz-adv-x="703" 
d="M27 0l239 715h174l236 -715h-138l-57 177h-273l-56 -177h-125zM345 606l-106 -332h211zM244 777c-18 0 -33.5 6.33301 -46.5 19s-19.5 28 -19.5 46s6.5 33.333 19.5 46s28.5 19 46.5 19s33.5 -6.33301 46.5 -19s19.5 -28 19.5 -46s-6.5 -33.333 -19.5 -46
s-28.5 -19 -46.5 -19zM455 777c-18 0 -33.5 6.33301 -46.5 19s-19.5 28 -19.5 46s6.5 33.333 19.5 46s28.5 19 46.5 19s33.5 -6.33301 46.5 -19s19.5 -28 19.5 -46s-6.5 -33.333 -19.5 -46s-28.5 -19 -46.5 -19z" />
    <glyph glyph-name="Aring" unicode="&#xc5;" horiz-adv-x="703" 
d="M27 0l239 715h174l236 -715h-138l-57 177h-273l-56 -177h-125zM350 753c-30.667 0 -57 10.667 -79 32s-33 47 -33 77s11 55.667 33 77s48.333 32 79 32s57 -10.667 79 -32s33 -47 33 -77s-11 -55.667 -33 -77s-48.333 -32 -79 -32zM345 606l-106 -332h211zM350 807
c14.667 0 26.667 5.16699 36 15.5s14 23.5 14 39.5s-4.66699 29.167 -14 39.5s-21.333 15.5 -36 15.5s-26.667 -5.16699 -36 -15.5s-14 -23.5 -14 -39.5s4.66699 -29.167 14 -39.5s21.333 -15.5 36 -15.5z" />
    <glyph glyph-name="AE" unicode="&#xc6;" horiz-adv-x="971" 
d="M22 0l351 715h543v-105h-312v-196h250v-100h-250v-209h329v-105h-462v183h-232l-87 -183h-130zM444 610l-159 -332h186v332h-27z" />
    <glyph glyph-name="Ccedilla" unicode="&#xc7;" horiz-adv-x="741" 
d="M380 -219c-31.333 0 -56.668 7.83203 -76.001 23.499s-30.666 37.167 -33.999 64.5h66c4 -22 17.333 -33 40 -33c11.333 0 20.333 3.16699 27 9.5s10 14.5 10 24.5c0 9.33301 -3.16699 17 -9.5 23s-14.833 9 -25.5 9s-20.667 -3 -30 -9l-34 32l39 67
c-98 8.66699 -173.667 45 -227 109s-80 148 -80 252v8c0 106.667 32.833 194.167 98.5 262.5s148.5 102.5 248.5 102.5c85.333 0 155.833 -21.333 211.5 -64s87.5 -104.667 95.5 -186h-135c-15.333 96 -72.333 144 -171 144c-63.333 0 -113.833 -23.167 -151.5 -69.5
s-56.5 -109.166 -56.5 -188.499v-8c0 -80.667 18.333 -143.5 55 -188.5s88 -67.5 154 -67.5c50.667 0 92.167 12.833 124.5 38.5s51.833 63.167 58.5 112.5h130c-10 -81.333 -41.167 -144 -93.5 -188s-119.833 -67.667 -202.5 -71l-23 -40
c27.333 3.33301 50.833 -2.16699 70.5 -16.5s29.5 -36.5 29.5 -66.5c0 -27.333 -10.167 -48.5 -30.5 -63.5s-46.5 -22.5 -78.5 -22.5z" />
    <glyph glyph-name="Egrave" unicode="&#xc8;" horiz-adv-x="584" 
d="M274 766l-98 135h136l53 -135h-91zM82 0v715h447v-105h-314v-196h252v-100h-252v-209h331v-105h-464z" />
    <glyph glyph-name="Eacute" unicode="&#xc9;" horiz-adv-x="584" 
d="M261 766l54 135h136l-99 -135h-91zM82 0v715h447v-105h-314v-196h252v-100h-252v-209h331v-105h-464z" />
    <glyph glyph-name="Ecircumflex" unicode="&#xca;" horiz-adv-x="584" 
d="M151 766l111 135h104l108 -135h-88l-74 55l-75 -55h-86zM82 0v715h447v-105h-314v-196h252v-100h-252v-209h331v-105h-464z" />
    <glyph glyph-name="Edieresis" unicode="&#xcb;" horiz-adv-x="584" 
d="M82 0v715h447v-105h-314v-196h252v-100h-252v-209h331v-105h-464zM207 777c-18 0 -33.5 6.33301 -46.5 19s-19.5 28 -19.5 46s6.5 33.333 19.5 46s28.5 19 46.5 19s33.5 -6.33301 46.5 -19s19.5 -28 19.5 -46s-6.5 -33.333 -19.5 -46s-28.5 -19 -46.5 -19zM418 777
c-18 0 -33.5 6.33301 -46.5 19s-19.5 28 -19.5 46s6.5 33.333 19.5 46s28.5 19 46.5 19s33.5 -6.33301 46.5 -19s19.5 -28 19.5 -46s-6.5 -33.333 -19.5 -46s-28.5 -19 -46.5 -19z" />
    <glyph glyph-name="Igrave" unicode="&#xcc;" horiz-adv-x="307" 
d="M86 0v715h134v-715h-134zM114 766l-98 135h136l53 -135h-91z" />
    <glyph glyph-name="Iacute" unicode="&#xcd;" horiz-adv-x="307" 
d="M86 0v715h134v-715h-134zM101 766l54 135h136l-99 -135h-91z" />
    <glyph glyph-name="Icircumflex" unicode="&#xce;" horiz-adv-x="307" 
d="M86 0v715h134v-715h-134zM-9 766l111 135h104l108 -135h-88l-74 55l-75 -55h-86z" />
    <glyph glyph-name="Idieresis" unicode="&#xcf;" horiz-adv-x="307" 
d="M86 0v715h134v-715h-134zM47 777c-18 0 -33.5 6.33301 -46.5 19s-19.5 28 -19.5 46s6.5 33.333 19.5 46s28.5 19 46.5 19s33.5 -6.33301 46.5 -19s19.5 -28 19.5 -46s-6.5 -33.333 -19.5 -46s-28.5 -19 -46.5 -19zM258 777c-18 0 -33.5 6.33301 -46.5 19
s-19.5 28 -19.5 46s6.5 33.333 19.5 46s28.5 19 46.5 19s33.5 -6.33301 46.5 -19s19.5 -28 19.5 -46s-6.5 -33.333 -19.5 -46s-28.5 -19 -46.5 -19z" />
    <glyph glyph-name="Eth" unicode="&#xd0;" horiz-adv-x="739" 
d="M32 311v95h69v309h217c121.333 0 213.333 -31.5 276 -94.5s94 -148.167 94 -255.5v-9c0 -108 -31.5 -194.333 -94.5 -259s-155.167 -97 -276.5 -97h-216v311h-69zM233 105h80c78.667 0 137.667 21.5 177 64.5s59 104.833 59 185.5v8c0 164.667 -79 247 -237 247h-79v-204
h173v-95h-173v-206z" />
    <glyph glyph-name="Ntilde" unicode="&#xd1;" horiz-adv-x="745" 
d="M443 768c-17.333 0 -38.334 6.5 -63.001 19.5s-41 19.5 -49 19.5c-8.66699 0 -16.5 -3.83301 -23.5 -11.5s-11.5 -17.167 -13.5 -28.5h-76c3.33301 40.667 15.166 72.667 35.499 96s44.833 35 73.5 35c16.667 0 37.334 -6.66699 62.001 -20s41.667 -20 51 -20
c8.66699 0 16.334 3.66699 23.001 11s11 17 13 29h77c-4 -40.667 -16.167 -72.5 -36.5 -95.5s-44.833 -34.5 -73.5 -34.5zM81.999 0v715h159l301 -517v517h121v-715h-138l-322 548v-548h-121z" />
    <glyph glyph-name="Ograve" unicode="&#xd2;" horiz-adv-x="814" 
d="M367 766l-98 135h136l53 -135h-91zM410 97c67.333 0 120.834 23.5 160.501 70.5s59.5 109.5 59.5 187.5v8c0 75.333 -19.833 136.833 -59.5 184.5s-93.834 71.5 -162.501 71.5c-69.333 0 -123.833 -23.333 -163.5 -70s-59.5 -109 -59.5 -187v-8
c0 -77.333 21 -139.5 63 -186.5s96 -70.5 162 -70.5zM408.001 -10c-108 0 -195.334 34.332 -262.001 102.999s-100 155.334 -100 260.001v8c0 104.667 34 191.5 102 260.5s154.667 103.5 260 103.5c106 0 192.5 -33.833 259.5 -101.5s100.5 -154.167 100.5 -259.5v-8
c0 -106 -33.167 -193.5 -99.5 -262.5s-153.166 -103.5 -260.499 -103.5z" />
    <glyph glyph-name="Oacute" unicode="&#xd3;" horiz-adv-x="814" 
d="M354 766l54 135h136l-99 -135h-91zM410 97c67.333 0 120.834 23.5 160.501 70.5s59.5 109.5 59.5 187.5v8c0 75.333 -19.833 136.833 -59.5 184.5s-93.834 71.5 -162.501 71.5c-69.333 0 -123.833 -23.333 -163.5 -70s-59.5 -109 -59.5 -187v-8
c0 -77.333 21 -139.5 63 -186.5s96 -70.5 162 -70.5zM408.001 -10c-108 0 -195.334 34.332 -262.001 102.999s-100 155.334 -100 260.001v8c0 104.667 34 191.5 102 260.5s154.667 103.5 260 103.5c106 0 192.5 -33.833 259.5 -101.5s100.5 -154.167 100.5 -259.5v-8
c0 -106 -33.167 -193.5 -99.5 -262.5s-153.166 -103.5 -260.499 -103.5z" />
    <glyph glyph-name="Ocircumflex" unicode="&#xd4;" horiz-adv-x="814" 
d="M244 766l111 135h104l108 -135h-88l-74 55l-75 -55h-86zM410 97c67.333 0 120.834 23.5 160.501 70.5s59.5 109.5 59.5 187.5v8c0 75.333 -19.833 136.833 -59.5 184.5s-93.834 71.5 -162.501 71.5c-69.333 0 -123.833 -23.333 -163.5 -70s-59.5 -109 -59.5 -187v-8
c0 -77.333 21 -139.5 63 -186.5s96 -70.5 162 -70.5zM408.001 -10c-108 0 -195.334 34.332 -262.001 102.999s-100 155.334 -100 260.001v8c0 104.667 34 191.5 102 260.5s154.667 103.5 260 103.5c106 0 192.5 -33.833 259.5 -101.5s100.5 -154.167 100.5 -259.5v-8
c0 -106 -33.167 -193.5 -99.5 -262.5s-153.166 -103.5 -260.499 -103.5z" />
    <glyph glyph-name="Otilde" unicode="&#xd5;" horiz-adv-x="814" 
d="M464 768c-17.333 0 -38.334 6.5 -63.001 19.5s-41 19.5 -49 19.5c-8.66699 0 -16.5 -3.83301 -23.5 -11.5s-11.5 -17.167 -13.5 -28.5h-76c3.33301 40.667 15.166 72.667 35.499 96s44.833 35 73.5 35c16.667 0 37.334 -6.66699 62.001 -20s41.667 -20 51 -20
c8.66699 0 16.334 3.66699 23.001 11s11 17 13 29h77c-4 -40.667 -16.167 -72.5 -36.5 -95.5s-44.833 -34.5 -73.5 -34.5zM409.999 97c67.333 0 120.834 23.5 160.501 70.5s59.5 109.5 59.5 187.5v8c0 75.333 -19.833 136.833 -59.5 184.5s-93.834 71.5 -162.501 71.5
c-69.333 0 -123.833 -23.333 -163.5 -70s-59.5 -109 -59.5 -187v-8c0 -77.333 21 -139.5 63 -186.5s96 -70.5 162 -70.5zM408 -10c-108 0 -195.334 34.332 -262.001 102.999s-100 155.334 -100 260.001v8c0 104.667 34 191.5 102 260.5s154.667 103.5 260 103.5
c106 0 192.5 -33.833 259.5 -101.5s100.5 -154.167 100.5 -259.5v-8c0 -106 -33.167 -193.5 -99.5 -262.5s-153.166 -103.5 -260.499 -103.5z" />
    <glyph glyph-name="Odieresis" unicode="&#xd6;" horiz-adv-x="814" 
d="M300 777c-18 0 -33.5 6.33301 -46.5 19s-19.5 28 -19.5 46s6.5 33.333 19.5 46s28.5 19 46.5 19s33.5 -6.33301 46.5 -19s19.5 -28 19.5 -46s-6.5 -33.333 -19.5 -46s-28.5 -19 -46.5 -19zM511 777c-18 0 -33.5 6.33301 -46.5 19s-19.5 28 -19.5 46s6.5 33.333 19.5 46
s28.5 19 46.5 19s33.5 -6.33301 46.5 -19s19.5 -28 19.5 -46s-6.5 -33.333 -19.5 -46s-28.5 -19 -46.5 -19zM410 97c67.333 0 120.834 23.5 160.501 70.5s59.5 109.5 59.5 187.5v8c0 75.333 -19.833 136.833 -59.5 184.5s-93.834 71.5 -162.501 71.5
c-69.333 0 -123.833 -23.333 -163.5 -70s-59.5 -109 -59.5 -187v-8c0 -77.333 21 -139.5 63 -186.5s96 -70.5 162 -70.5zM408.001 -10c-108 0 -195.334 34.332 -262.001 102.999s-100 155.334 -100 260.001v8c0 104.667 34 191.5 102 260.5s154.667 103.5 260 103.5
c106 0 192.5 -33.833 259.5 -101.5s100.5 -154.167 100.5 -259.5v-8c0 -106 -33.167 -193.5 -99.5 -262.5s-153.166 -103.5 -260.499 -103.5z" />
    <glyph glyph-name="multiply" unicode="&#xd7;" horiz-adv-x="509" 
d="M101 115l-66 66l154 153l-155 154l66 67l154 -155l154 154l66 -66l-154 -154l155 -154l-67 -66l-154 155z" />
    <glyph glyph-name="Oslash" unicode="&#xd8;" horiz-adv-x="814" 
d="M84 -33l-50.001 50.999l91 98c-52.667 65.333 -79 144.333 -79 237v8c0 104.667 34 191.334 102 260.001s154.667 103 260 103c84.667 0 157.667 -22.333 219 -67l78 84l50 -50l-75 -81c59.333 -66.667 89 -148.667 89 -246v-8c0 -106 -33.333 -193.5 -100 -262.5
s-153.667 -103.5 -261 -103.5c-91.333 0 -168.666 25.333 -231.999 76zM408.999 96.999c68 0 122 23.5 162 70.5s60 109.833 60 188.5v8c0 60.667 -12.333 112 -37 154l-336 -364c40 -38 90.333 -57 151 -57zM183.999 353.999c0 -54.667 10.333 -101.667 31 -141l333 359
c-37.333 31.333 -84 47 -140 47c-70 0 -124.833 -23.333 -164.5 -70s-59.5 -109 -59.5 -187v-8z" />
    <glyph glyph-name="Ugrave" unicode="&#xd9;" horiz-adv-x="723" 
d="M321 766l-98 135h136l53 -135h-91zM357 -10c-90 0 -159.333 24.168 -208 72.501s-73 118.166 -73 209.499v443h134v-433c0 -66 11.5 -113.333 34.5 -142s60.833 -43 113.5 -43c53.333 0 92.5 14.5 117.5 43.5s37.5 79.167 37.5 150.5v424h134v-435
c0 -94 -24.833 -165.833 -74.5 -215.5s-121.5 -74.5 -215.5 -74.5z" />
    <glyph glyph-name="Uacute" unicode="&#xda;" horiz-adv-x="723" 
d="M308 766l54 135h136l-99 -135h-91zM357 -10c-90 0 -159.333 24.168 -208 72.501s-73 118.166 -73 209.499v443h134v-433c0 -66 11.5 -113.333 34.5 -142s60.833 -43 113.5 -43c53.333 0 92.5 14.5 117.5 43.5s37.5 79.167 37.5 150.5v424h134v-435
c0 -94 -24.833 -165.833 -74.5 -215.5s-121.5 -74.5 -215.5 -74.5z" />
    <glyph glyph-name="Ucircumflex" unicode="&#xdb;" horiz-adv-x="723" 
d="M198 766l111 135h104l108 -135h-88l-74 55l-75 -55h-86zM357 -10c-90 0 -159.333 24.168 -208 72.501s-73 118.166 -73 209.499v443h134v-433c0 -66 11.5 -113.333 34.5 -142s60.833 -43 113.5 -43c53.333 0 92.5 14.5 117.5 43.5s37.5 79.167 37.5 150.5v424h134v-435
c0 -94 -24.833 -165.833 -74.5 -215.5s-121.5 -74.5 -215.5 -74.5z" />
    <glyph glyph-name="Udieresis" unicode="&#xdc;" horiz-adv-x="723" 
d="M357 -10c-90 0 -159.333 24.168 -208 72.501s-73 118.166 -73 209.499v443h134v-433c0 -66 11.5 -113.333 34.5 -142s60.833 -43 113.5 -43c53.333 0 92.5 14.5 117.5 43.5s37.5 79.167 37.5 150.5v424h134v-435c0 -94 -24.833 -165.833 -74.5 -215.5
s-121.5 -74.5 -215.5 -74.5zM254 777.001c-18 0 -33.5 6.33301 -46.5 19s-19.5 28 -19.5 46s6.5 33.333 19.5 46s28.5 19 46.5 19s33.5 -6.33301 46.5 -19s19.5 -28 19.5 -46s-6.5 -33.333 -19.5 -46s-28.5 -19 -46.5 -19zM465 777.001c-18 0 -33.5 6.33301 -46.5 19
s-19.5 28 -19.5 46s6.5 33.333 19.5 46s28.5 19 46.5 19s33.5 -6.33301 46.5 -19s19.5 -28 19.5 -46s-6.5 -33.333 -19.5 -46s-28.5 -19 -46.5 -19z" />
    <glyph glyph-name="Yacute" unicode="&#xdd;" horiz-adv-x="629" 
d="M254 0v310l-237 405h147l161 -296l157 296h130l-224 -406v-309h-134zM265 766l54 135h136l-99 -135h-91z" />
    <glyph glyph-name="Thorn" unicode="&#xde;" horiz-adv-x="609" 
d="M82 0v715.001h133v-127h97c83.333 0 148.333 -17.667 195 -53s70 -89.333 70 -162v-4c0 -72.667 -23.5 -126.834 -70.5 -162.501s-110.833 -53.5 -191.5 -53.5h-100v-153h-133zM215 250.001h97.001c90 0 135 39.667 135 119v4c0 40.667 -11.333 70 -34 88
s-56.334 27 -101.001 27h-97v-238z" />
    <glyph glyph-name="germandbls" unicode="&#xdf;" horiz-adv-x="608" 
d="M353 -9c-37.333 0 -68.333 4.66699 -93 14v96c22.667 -10 46.667 -15 72 -15c78 0 117 45.667 117 137v7c0 49.333 -15.667 87.333 -47 114s-73.666 39.334 -126.999 38.001v95c43.333 -0.666992 75.5 10 96.5 32s31.5 48 31.5 78v4c0 30 -8.83301 53.333 -26.5 70
s-43.5 25 -77.5 25c-32 0 -57.667 -10.833 -77 -32.5s-29 -50.834 -29 -87.501v-566h-121v557c0 68 22.167 121.167 66.5 159.5s99.5 57.5 165.5 57.5c65.333 0 117.333 -16.167 156 -48.5s58 -76.5 58 -132.5v-3c0 -33.333 -10.833 -64.166 -32.5 -92.499
s-50.5 -48.5 -86.5 -60.5c51.333 -12.667 93.166 -37.834 125.499 -75.501s48.5 -83.167 48.5 -136.5v-6c0 -78 -20.5 -135.5 -61.5 -172.5s-93.833 -55.5 -158.5 -55.5z" />
    <glyph glyph-name="agrave" unicode="&#xe0;" horiz-adv-x="555" 
d="M209 -10c-51.333 0 -93.334 12.833 -126.001 38.5s-49 64.5 -49 116.5c0 57.333 24.333 99.333 73 126s113.667 40 195 40h65v27c0 36 -7.16699 62.5 -21.5 79.5s-38.833 25.5 -73.5 25.5c-60.667 0 -94 -27.333 -100 -82h-117c4.66699 58 27.5 101.333 68.5 130
s92.833 43 155.5 43c139.333 0 209 -63.667 209 -191v-343h-119v64c-37.333 -49.333 -90.666 -74 -159.999 -74zM237.999 77c38 0 69 9.5 93 28.5s36 44.833 36 77.5v52h-62c-100.667 0 -151 -28.333 -151 -85c0 -48.667 28 -73 84 -73zM239.999 601l-104 155h134l59 -155
h-89z" />
    <glyph glyph-name="aacute" unicode="&#xe1;" horiz-adv-x="555" 
d="M209 -10c-51.333 0 -93.334 12.833 -126.001 38.5s-49 64.5 -49 116.5c0 57.333 24.333 99.333 73 126s113.667 40 195 40h65v27c0 36 -7.16699 62.5 -21.5 79.5s-38.833 25.5 -73.5 25.5c-60.667 0 -94 -27.333 -100 -82h-117c4.66699 58 27.5 101.333 68.5 130
s92.833 43 155.5 43c139.333 0 209 -63.667 209 -191v-343h-119v64c-37.333 -49.333 -90.666 -74 -159.999 -74zM237.999 77c38 0 69 9.5 93 28.5s36 44.833 36 77.5v52h-62c-100.667 0 -151 -28.333 -151 -85c0 -48.667 28 -73 84 -73zM228.999 601l59 155h134l-104 -155
h-89z" />
    <glyph glyph-name="acircumflex" unicode="&#xe2;" horiz-adv-x="555" 
d="M209 -10c-51.333 0 -93.334 12.833 -126.001 38.5s-49 64.5 -49 116.5c0 57.333 24.333 99.333 73 126s113.667 40 195 40h65v27c0 36 -7.16699 62.5 -21.5 79.5s-38.833 25.5 -73.5 25.5c-60.667 0 -94 -27.333 -100 -82h-117c4.66699 58 27.5 101.333 68.5 130
s92.833 43 155.5 43c139.333 0 209 -63.667 209 -191v-343h-119v64c-37.333 -49.333 -90.666 -74 -159.999 -74zM237.999 77c38 0 69 9.5 93 28.5s36 44.833 36 77.5v52h-62c-100.667 0 -151 -28.333 -151 -85c0 -48.667 28 -73 84 -73zM108.999 602l114 151h96l111 -151
h-86l-75 68l-76 -68h-84z" />
    <glyph glyph-name="atilde" unicode="&#xe3;" horiz-adv-x="555" 
d="M209 -10c-51.333 0 -93.334 12.833 -126.001 38.5s-49 64.5 -49 116.5c0 57.333 24.333 99.333 73 126s113.667 40 195 40h65v27c0 36 -7.16699 62.5 -21.5 79.5s-38.833 25.5 -73.5 25.5c-60.667 0 -94 -27.333 -100 -82h-117c4.66699 58 27.5 101.333 68.5 130
s92.833 43 155.5 43c139.333 0 209 -63.667 209 -191v-343h-119v64c-37.333 -49.333 -90.666 -74 -159.999 -74zM237.999 77c38 0 69 9.5 93 28.5s36 44.833 36 77.5v52h-62c-100.667 0 -151 -28.333 -151 -85c0 -48.667 28 -73 84 -73zM336.999 606
c-17.333 0 -38.166 6.66602 -62.499 19.999s-40.5 20 -48.5 20c-8.66699 0 -16.5 -3.83301 -23.5 -11.5s-11.5 -17.167 -13.5 -28.5h-75c4 41.333 15.667 73.5 35 96.5s43.333 34.5 72 34.5c16.667 0 37.167 -6.5 61.5 -19.5s41.166 -19.5 50.499 -19.5
c19.333 0 31.333 13.333 36 40h75c-4 -41.333 -15.833 -73.666 -35.5 -96.999s-43.5 -35 -71.5 -35z" />
    <glyph glyph-name="adieresis" unicode="&#xe4;" horiz-adv-x="555" 
d="M209 -10c-51.333 0 -93.334 12.833 -126.001 38.5s-49 64.5 -49 116.5c0 57.333 24.333 99.333 73 126s113.667 40 195 40h65v27c0 36 -7.16699 62.5 -21.5 79.5s-38.833 25.5 -73.5 25.5c-60.667 0 -94 -27.333 -100 -82h-117c4.66699 58 27.5 101.333 68.5 130
s92.833 43 155.5 43c139.333 0 209 -63.667 209 -191v-343h-119v64c-37.333 -49.333 -90.666 -74 -159.999 -74zM237.999 77c38 0 69 9.5 93 28.5s36 44.833 36 77.5v52h-62c-100.667 0 -151 -28.333 -151 -85c0 -48.667 28 -73 84 -73zM179.999 613
c-18 0 -33.5 6.33301 -46.5 19s-19.5 28 -19.5 46c0 17.333 6.5 32.5 19.5 45.5s28.5 19.5 46.5 19.5s33.5 -6.5 46.5 -19.5s19.5 -28.167 19.5 -45.5c0 -18 -6.5 -33.333 -19.5 -46s-28.5 -19 -46.5 -19zM377.999 613c-18.667 0 -34.334 6.33301 -47.001 19s-19 28 -19 46
c0 17.333 6.33301 32.5 19 45.5s28.334 19.5 47.001 19.5c18 0 33.5 -6.5 46.5 -19.5s19.5 -28.167 19.5 -45.5c0 -18 -6.5 -33.333 -19.5 -46s-28.5 -19 -46.5 -19z" />
    <glyph glyph-name="aring" unicode="&#xe5;" horiz-adv-x="555" 
d="M209 -10c-51.333 0 -93.334 12.833 -126.001 38.5s-49 64.5 -49 116.5c0 57.333 24.333 99.333 73 126s113.667 40 195 40h65v27c0 36 -7.16699 62.5 -21.5 79.5s-38.833 25.5 -73.5 25.5c-60.667 0 -94 -27.333 -100 -82h-117c4.66699 58 27.5 101.333 68.5 130
s92.833 43 155.5 43c139.333 0 209 -63.667 209 -191v-343h-119v64c-37.333 -49.333 -90.666 -74 -159.999 -74zM237.999 77c38 0 69 9.5 93 28.5s36 44.833 36 77.5v52h-62c-100.667 0 -151 -28.333 -151 -85c0 -48.667 28 -73 84 -73zM278.999 643
c14.667 0 26.667 5.33301 36 16s14 23.667 14 39c0 16 -4.66699 29.167 -14 39.5s-21.333 15.5 -36 15.5s-26.667 -5.16699 -36 -15.5s-14 -23.5 -14 -39.5c0 -15.333 4.66699 -28.333 14 -39s21.333 -16 36 -16zM278.999 590c-30.667 0 -56.834 10.667 -78.501 32
s-32.5 46.666 -32.5 75.999s10.833 54.666 32.5 75.999s47.834 32 78.501 32s56.834 -10.667 78.501 -32s32.5 -46.666 32.5 -75.999s-10.833 -54.666 -32.5 -75.999s-47.834 -32 -78.501 -32z" />
    <glyph glyph-name="ae" unicode="&#xe6;" horiz-adv-x="891" 
d="M620 -10c-90 0 -156.333 33.334 -199 100.001c-23.333 -34 -51.166 -59.167 -83.499 -75.5s-72.833 -24.5 -121.5 -24.5c-54 0 -97.833 12.833 -131.5 38.5s-50.5 64.5 -50.5 116.5c0 58 24.167 100.667 72.5 128s112.833 41 193.5 41h68v24c0 36 -7.5 62.5 -22.5 79.5
s-39.167 25.5 -72.5 25.5c-61.333 0 -95 -27.333 -101 -82h-117c4.66699 58 27.334 101.333 68.001 130s91.667 43 153 43c81.333 0 136.666 -25.333 165.999 -76c43.333 50.667 101 76 173 76c69.333 0 126.833 -21.833 172.5 -65.5s68.5 -109.834 68.5 -198.501v-33h-372
c2 -50.667 14.5 -89.5 37.5 -116.5s56.167 -40.5 99.5 -40.5c68 0 106.667 26.667 116 80h116c-8.66699 -54.667 -33.334 -96.667 -74.001 -126s-93.667 -44 -159 -44zM239 77.001c38 0 69 9.5 93 28.5s36 44.833 36 77.5v53h-65c-99.333 0 -149 -28 -149 -84
c0 -50 28.333 -75 85 -75zM486 314.001l250 -0.000976562c-6.66699 88 -47 132 -121 132c-34.667 0 -63.5 -11.667 -86.5 -35s-37.167 -55.666 -42.5 -96.999z" />
    <glyph glyph-name="ccedilla" unicode="&#xe7;" horiz-adv-x="575" 
d="M283 -219c-31.333 0 -56.668 7.83496 -76.001 23.502s-30.666 37.167 -33.999 64.5h66c4 -22 17.333 -33 40 -33c11.333 0 20.333 3.16699 27 9.5s10 14.5 10 24.5c0 9.33301 -3.16699 17 -9.5 23s-14.833 9 -25.5 9c-11.333 0 -21.333 -3 -30 -9l-34 32l40 68
c-66 8.66699 -119.167 36 -159.5 82s-60.5 106 -60.5 180v8c0 81.333 25.333 146.833 76 196.5s113.334 74.5 188.001 74.5c64 0 118.167 -15.833 162.5 -47.5s69.833 -81.167 76.5 -148.5h-117c-9.33301 66 -49.333 99 -120 99c-42 0 -76.167 -15.333 -102.5 -46
s-39.5 -72.667 -39.5 -126v-8c0 -56 12.833 -99 38.5 -129s61.167 -45 106.5 -45c33.333 0 61.833 9.83301 85.5 29.5s37.167 47.167 40.5 82.5h111c-4.66699 -58.667 -27.334 -106.834 -68.001 -144.501s-94 -57.834 -160 -60.501l-23 -40
c27.333 3.33301 50.833 -2.16699 70.5 -16.5s29.5 -36.5 29.5 -66.5c0 -27.333 -10.167 -48.5 -30.5 -63.5s-46.5 -22.5 -78.5 -22.5z" />
    <glyph glyph-name="egrave" unicode="&#xe8;" horiz-adv-x="580" 
d="M302 -10c-78 0 -141.668 24 -191.001 72s-74 112.667 -74 194v8c0 80 24.5 145 73.5 195s111.167 75 186.5 75c70.667 0 129.5 -22 176.5 -66s70.5 -110 70.5 -198v-35h-383c2 -50 15.333 -88.333 40 -115s59.334 -40 104.001 -40c70.667 0 110.667 26.667 120 80h117
c-8.66699 -54.667 -34 -96.667 -76 -126s-96.667 -44 -164 -44zM162.999 316h261c-6 86.667 -48.333 130 -127 130c-36 0 -65.833 -11.5 -89.5 -34.5s-38.5 -54.833 -44.5 -95.5zM255.999 601l-104 155h134l59 -155h-89z" />
    <glyph glyph-name="eacute" unicode="&#xe9;" horiz-adv-x="580" 
d="M245 601l59 155h134l-104 -155h-89zM302 -10c-78 0 -141.668 24 -191.001 72s-74 112.667 -74 194v8c0 80 24.5 145 73.5 195s111.167 75 186.5 75c70.667 0 129.5 -22 176.5 -66s70.5 -110 70.5 -198v-35h-383c2 -50 15.333 -88.333 40 -115s59.334 -40 104.001 -40
c70.667 0 110.667 26.667 120 80h117c-8.66699 -54.667 -34 -96.667 -76 -126s-96.667 -44 -164 -44zM162.999 316h261c-6 86.667 -48.333 130 -127 130c-36 0 -65.833 -11.5 -89.5 -34.5s-38.5 -54.833 -44.5 -95.5z" />
    <glyph glyph-name="ecircumflex" unicode="&#xea;" horiz-adv-x="580" 
d="M134 602l114 151h96l111 -151h-86l-75 68l-76 -68h-84zM302 -10c-78 0 -141.668 24 -191.001 72s-74 112.667 -74 194v8c0 80 24.5 145 73.5 195s111.167 75 186.5 75c70.667 0 129.5 -22 176.5 -66s70.5 -110 70.5 -198v-35h-383c2 -50 15.333 -88.333 40 -115
s59.334 -40 104.001 -40c70.667 0 110.667 26.667 120 80h117c-8.66699 -54.667 -34 -96.667 -76 -126s-96.667 -44 -164 -44zM162.999 316h261c-6 86.667 -48.333 130 -127 130c-36 0 -65.833 -11.5 -89.5 -34.5s-38.5 -54.833 -44.5 -95.5z" />
    <glyph glyph-name="edieresis" unicode="&#xeb;" horiz-adv-x="580" 
d="M196 613c-18 0 -33.5 6.33301 -46.5 19s-19.5 28 -19.5 46c0 17.333 6.5 32.5 19.5 45.5s28.5 19.5 46.5 19.5s33.5 -6.5 46.5 -19.5s19.5 -28.167 19.5 -45.5c0 -18 -6.5 -33.333 -19.5 -46s-28.5 -19 -46.5 -19zM394 613c-18.667 0 -34.334 6.33301 -47.001 19
s-19 28 -19 46c0 17.333 6.33301 32.5 19 45.5s28.334 19.5 47.001 19.5c18 0 33.5 -6.5 46.5 -19.5s19.5 -28.167 19.5 -45.5c0 -18 -6.5 -33.333 -19.5 -46s-28.5 -19 -46.5 -19zM302 -10c-78 0 -141.668 24 -191.001 72s-74 112.667 -74 194v8c0 80 24.5 145 73.5 195
s111.167 75 186.5 75c70.667 0 129.5 -22 176.5 -66s70.5 -110 70.5 -198v-35h-383c2 -50 15.333 -88.333 40 -115s59.334 -40 104.001 -40c70.667 0 110.667 26.667 120 80h117c-8.66699 -54.667 -34 -96.667 -76 -126s-96.667 -44 -164 -44zM162.999 316h261
c-6 86.667 -48.333 130 -127 130c-36 0 -65.833 -11.5 -89.5 -34.5s-38.5 -54.833 -44.5 -95.5z" />
    <glyph glyph-name="igrave" unicode="&#xec;" horiz-adv-x="271" 
d="M75 0v523h121v-523h-121zM97 601l-104 155h134l59 -155h-89z" />
    <glyph glyph-name="iacute" unicode="&#xed;" horiz-adv-x="271" 
d="M86 601l59 155h134l-104 -155h-89zM75 0v523h121v-523h-121z" />
    <glyph glyph-name="icircumflex" unicode="&#xee;" horiz-adv-x="271" 
d="M-25 602l114 151h96l111 -151h-86l-75 68l-76 -68h-84zM75 0v523h121v-523h-121z" />
    <glyph glyph-name="idieresis" unicode="&#xef;" horiz-adv-x="271" 
d="M39 613c-18 0 -33.5 6.33301 -46.5 19s-19.5 28 -19.5 46c0 17.333 6.5 32.5 19.5 45.5s28.5 19.5 46.5 19.5s33.5 -6.5 46.5 -19.5s19.5 -28.167 19.5 -45.5c0 -18 -6.5 -33.333 -19.5 -46s-28.5 -19 -46.5 -19zM231 613c-18 0 -33.5 6.33301 -46.5 19
s-19.5 28 -19.5 46c0 17.333 6.5 32.5 19.5 45.5s28.5 19.5 46.5 19.5s33.5 -6.5 46.5 -19.5s19.5 -28.167 19.5 -45.5c0 -18 -6.5 -33.333 -19.5 -46s-28.5 -19 -46.5 -19zM75 0v523h121v-523h-121z" />
    <glyph glyph-name="eth" unicode="&#xf0;" horiz-adv-x="611" 
d="M168 566l-27.001 54l103 49c-34.667 30 -76 62 -124 96h143c29.333 -16.667 54.333 -33.334 75 -50.001l93 45l27 -54l-69 -34c123.333 -114 185 -240.667 185 -380v-22c0 -83.333 -25.167 -150.833 -75.5 -202.5s-115.166 -77.5 -194.499 -77.5
c-78 0 -142 24.833 -192 74.5s-75 114.5 -75 194.5v10c0 76.667 23.5 139.5 70.5 188.5s102.5 73.5 166.5 73.5c53.333 0 98 -20.333 134 -61c-26.667 52.667 -65.667 104.334 -117 155.001zM305.999 84c44.667 0 79.833 15.667 105.5 47s38.5 73.333 38.5 126v8
c0 54 -12.667 96.5 -38 127.5s-60.333 46.5 -105 46.5c-45.333 0 -81 -15.333 -107 -46s-39 -73 -39 -127v-8c0 -54 12.833 -96.5 38.5 -127.5s61.167 -46.5 106.5 -46.5z" />
    <glyph glyph-name="ntilde" unicode="&#xf1;" horiz-adv-x="608" 
d="M72 0l0.000976562 523h121v-83c13.333 27.333 34.666 49.833 63.999 67.5s64.333 26.5 105 26.5c55.333 0 99 -16.833 131 -50.5s48 -85.167 48 -154.5v-329h-121v318c0 39.333 -8.33301 68.333 -25 87s-43 28 -79 28s-65.5 -10.833 -88.5 -32.5s-34.5 -52.5 -34.5 -92.5
v-308h-121zM361.001 606c-17.333 0 -38.166 6.66602 -62.499 19.999s-40.5 20 -48.5 20c-8.66699 0 -16.5 -3.83301 -23.5 -11.5s-11.5 -17.167 -13.5 -28.5h-75c4 41.333 15.667 73.5 35 96.5s43.333 34.5 72 34.5c16.667 0 37.167 -6.5 61.5 -19.5
s41.166 -19.5 50.499 -19.5c19.333 0 31.333 13.333 36 40h75c-4 -41.333 -15.833 -73.666 -35.5 -96.999s-43.5 -35 -71.5 -35z" />
    <glyph glyph-name="ograve" unicode="&#xf2;" horiz-adv-x="611" 
d="M306 84c44.667 0 79.834 15.5 105.501 46.5s38.5 73.5 38.5 127.5v7c0 54 -12.833 96.5 -38.5 127.5s-60.834 46.5 -105.501 46.5c-45.333 0 -80.833 -15.333 -106.5 -46s-38.5 -73 -38.5 -127v-8c0 -54 12.833 -96.5 38.5 -127.5s61.167 -46.5 106.5 -46.5zM305 -10
c-78 0 -142.167 24.666 -192.5 73.999s-75.5 113.333 -75.5 192v8c0 80 25.333 145 76 195s115 75 193 75c77.333 0 141.333 -24.667 192 -74s76 -113.666 76 -192.999v-8c0 -80.667 -25.333 -145.667 -76 -195s-115 -74 -193 -74zM266 600.999l-104 155h134l59 -155h-89z
" />
    <glyph glyph-name="oacute" unicode="&#xf3;" horiz-adv-x="611" 
d="M255 601l59 155h134l-104 -155h-89zM306 84c44.667 0 79.834 15.5 105.501 46.5s38.5 73.5 38.5 127.5v7c0 54 -12.833 96.5 -38.5 127.5s-60.834 46.5 -105.501 46.5c-45.333 0 -80.833 -15.333 -106.5 -46s-38.5 -73 -38.5 -127v-8c0 -54 12.833 -96.5 38.5 -127.5
s61.167 -46.5 106.5 -46.5zM305 -10c-78 0 -142.167 24.666 -192.5 73.999s-75.5 113.333 -75.5 192v8c0 80 25.333 145 76 195s115 75 193 75c77.333 0 141.333 -24.667 192 -74s76 -113.666 76 -192.999v-8c0 -80.667 -25.333 -145.667 -76 -195s-115 -74 -193 -74z" />
    <glyph glyph-name="ocircumflex" unicode="&#xf4;" horiz-adv-x="611" 
d="M144 602l114 151h96l111 -151h-86l-75 68l-76 -68h-84zM306 84c44.667 0 79.834 15.5 105.501 46.5s38.5 73.5 38.5 127.5v7c0 54 -12.833 96.5 -38.5 127.5s-60.834 46.5 -105.501 46.5c-45.333 0 -80.833 -15.333 -106.5 -46s-38.5 -73 -38.5 -127v-8
c0 -54 12.833 -96.5 38.5 -127.5s61.167 -46.5 106.5 -46.5zM305 -10c-78 0 -142.167 24.666 -192.5 73.999s-75.5 113.333 -75.5 192v8c0 80 25.333 145 76 195s115 75 193 75c77.333 0 141.333 -24.667 192 -74s76 -113.666 76 -192.999v-8
c0 -80.667 -25.333 -145.667 -76 -195s-115 -74 -193 -74z" />
    <glyph glyph-name="otilde" unicode="&#xf5;" horiz-adv-x="611" 
d="M306 84c44.667 0 79.834 15.5 105.501 46.5s38.5 73.5 38.5 127.5v7c0 54 -12.833 96.5 -38.5 127.5s-60.834 46.5 -105.501 46.5c-45.333 0 -80.833 -15.333 -106.5 -46s-38.5 -73 -38.5 -127v-8c0 -54 12.833 -96.5 38.5 -127.5s61.167 -46.5 106.5 -46.5zM305 -10
c-78 0 -142.167 24.666 -192.5 73.999s-75.5 113.333 -75.5 192v8c0 80 25.333 145 76 195s115 75 193 75c77.333 0 141.333 -24.667 192 -74s76 -113.666 76 -192.999v-8c0 -80.667 -25.333 -145.667 -76 -195s-115 -74 -193 -74zM363 605.999
c-17.333 0 -38.166 6.66602 -62.499 19.999s-40.5 20 -48.5 20c-8.66699 0 -16.5 -3.83301 -23.5 -11.5s-11.5 -17.167 -13.5 -28.5h-75c4 41.333 15.667 73.5 35 96.5s43.333 34.5 72 34.5c16.667 0 37.167 -6.5 61.5 -19.5s41.166 -19.5 50.499 -19.5
c19.333 0 31.333 13.333 36 40h75c-4 -41.333 -15.833 -73.666 -35.5 -96.999s-43.5 -35 -71.5 -35z" />
    <glyph glyph-name="odieresis" unicode="&#xf6;" horiz-adv-x="611" 
d="M206 613c-18 0 -33.5 6.33301 -46.5 19s-19.5 28 -19.5 46c0 17.333 6.5 32.5 19.5 45.5s28.5 19.5 46.5 19.5s33.5 -6.5 46.5 -19.5s19.5 -28.167 19.5 -45.5c0 -18 -6.5 -33.333 -19.5 -46s-28.5 -19 -46.5 -19zM404 613c-18.667 0 -34.334 6.33301 -47.001 19
s-19 28 -19 46c0 17.333 6.33301 32.5 19 45.5s28.334 19.5 47.001 19.5c18 0 33.5 -6.5 46.5 -19.5s19.5 -28.167 19.5 -45.5c0 -18 -6.5 -33.333 -19.5 -46s-28.5 -19 -46.5 -19zM306 84c44.667 0 79.834 15.5 105.501 46.5s38.5 73.5 38.5 127.5v7
c0 54 -12.833 96.5 -38.5 127.5s-60.834 46.5 -105.501 46.5c-45.333 0 -80.833 -15.333 -106.5 -46s-38.5 -73 -38.5 -127v-8c0 -54 12.833 -96.5 38.5 -127.5s61.167 -46.5 106.5 -46.5zM305 -10c-78 0 -142.167 24.666 -192.5 73.999s-75.5 113.333 -75.5 192v8
c0 80 25.333 145 76 195s115 75 193 75c77.333 0 141.333 -24.667 192 -74s76 -113.666 76 -192.999v-8c0 -80.667 -25.333 -145.667 -76 -195s-115 -74 -193 -74z" />
    <glyph glyph-name="divide" unicode="&#xf7;" horiz-adv-x="540" 
d="M270 71c-21.333 0 -39.333 7.33301 -54 22s-22 32.334 -22 53.001s7.33301 38.334 22 53.001s32.667 22 54 22c20.667 0 38.5 -7.33301 53.5 -22s22.5 -32.334 22.5 -53.001s-7.5 -38.334 -22.5 -53.001s-32.833 -22 -53.5 -22zM37 296v91h467v-91h-467zM270 461
c-21.333 0 -39.333 7.33301 -54 22s-22 32.334 -22 53.001c0 21.333 7.33301 39.333 22 54s32.667 22 54 22c20.667 0 38.5 -7.33301 53.5 -22s22.5 -32.667 22.5 -54c0 -20.667 -7.5 -38.334 -22.5 -53.001s-32.833 -22 -53.5 -22z" />
    <glyph glyph-name="oslash" unicode="&#xf8;" horiz-adv-x="611" 
d="M69 -38l-47 42l73 79c-38.667 47.333 -58 105 -58 173v8c0 80 25.333 145 76 195s115 75 193 75c60.667 0 113.667 -16 159 -48l67 73l47 -42l-67 -73c41.333 -48 62 -107 62 -177v-8c0 -80.667 -25.333 -145.667 -76 -195s-115 -74 -193 -74
c-63.333 0 -118 16.667 -164 50zM306 84c45.333 0 80.833 15.5 106.5 46.5s38.5 73.167 38.5 126.5v8c0 36 -6 67 -18 93l-222 -241c24 -22 55.667 -33 95 -33zM161 258c0 -32 4.66699 -61 14 -87l220 239c-25.333 20 -55 30 -89 30c-45.333 0 -80.833 -15.5 -106.5 -46.5
s-38.5 -73.5 -38.5 -127.5v-8z" />
    <glyph glyph-name="ugrave" unicode="&#xf9;" horiz-adv-x="605" 
d="M247 -10c-54.667 0 -98.333 16.332 -131 48.999s-49 82.334 -49 149.001v335h121v-321c0 -39.333 8.33301 -68.333 25 -87s42.667 -28 78 -28c34.667 0 63.667 11 87 33s35 52.667 35 92v311h121v-523h-121v82c-14 -27.333 -35.167 -49.5 -63.5 -66.5
s-62.5 -25.5 -102.5 -25.5zM263.001 600.999l-104 155h134l59 -155h-89z" />
    <glyph glyph-name="uacute" unicode="&#xfa;" horiz-adv-x="605" 
d="M252 601l59 155h134l-104 -155h-89zM247 -10c-54.667 0 -98.333 16.332 -131 48.999s-49 82.334 -49 149.001v335h121v-321c0 -39.333 8.33301 -68.333 25 -87s42.667 -28 78 -28c34.667 0 63.667 11 87 33s35 52.667 35 92v311h121v-523h-121v82
c-14 -27.333 -35.167 -49.5 -63.5 -66.5s-62.5 -25.5 -102.5 -25.5z" />
    <glyph glyph-name="ucircumflex" unicode="&#xfb;" horiz-adv-x="605" 
d="M141 602l114 151h96l111 -151h-86l-75 68l-76 -68h-84zM247 -10c-54.667 0 -98.333 16.332 -131 48.999s-49 82.334 -49 149.001v335h121v-321c0 -39.333 8.33301 -68.333 25 -87s42.667 -28 78 -28c34.667 0 63.667 11 87 33s35 52.667 35 92v311h121v-523h-121v82
c-14 -27.333 -35.167 -49.5 -63.5 -66.5s-62.5 -25.5 -102.5 -25.5z" />
    <glyph glyph-name="udieresis" unicode="&#xfc;" horiz-adv-x="605" 
d="M203 613c-18 0 -33.5 6.33301 -46.5 19s-19.5 28 -19.5 46c0 17.333 6.5 32.5 19.5 45.5s28.5 19.5 46.5 19.5s33.5 -6.5 46.5 -19.5s19.5 -28.167 19.5 -45.5c0 -18 -6.5 -33.333 -19.5 -46s-28.5 -19 -46.5 -19zM401 613c-18.667 0 -34.333 6.33301 -47 19
s-19 28 -19 46c0 17.333 6.5 32.5 19.5 45.5s28.5 19.5 46.5 19.5s33.5 -6.5 46.5 -19.5s19.5 -28.167 19.5 -45.5c0 -18 -6.5 -33.333 -19.5 -46s-28.5 -19 -46.5 -19zM247.001 -10c-54.667 0 -98.333 16.332 -131 48.999s-49 82.334 -49 149.001v335h121v-321
c0 -39.333 8.33301 -68.333 25 -87s42.667 -28 78 -28c34.667 0 63.667 11 87 33s35 52.667 35 92v311h121v-523h-121v82c-14 -27.333 -35.167 -49.5 -63.5 -66.5s-62.5 -25.5 -102.5 -25.5z" />
    <glyph glyph-name="yacute" unicode="&#xfd;" horiz-adv-x="553" 
d="M130 -179l95 232l-207 470h131l139 -337l128 337h118l-285 -702h-119zM235 601l59 155h134l-104 -155h-89z" />
    <glyph glyph-name="thorn" unicode="&#xfe;" horiz-adv-x="633" 
d="M72 -179v944.001h121v-326c15.333 26.667 38.5 49.167 69.5 67.5s64.833 27.5 101.5 27.5c67.333 0 122.833 -23.833 166.5 -71.5s65.5 -112.5 65.5 -194.5v-8c0 -82.667 -21.5 -148.334 -64.5 -197.001s-98.833 -73 -167.5 -73c-39.333 0 -74 8.5 -104 25.5
s-52.333 39.167 -67 66.5v-261h-121zM334 86.001c44.667 0 78.832 14.667 102.499 44s35.5 72 35.5 128v8c0 56 -12.833 98.833 -38.5 128.5s-59.167 44.5 -100.5 44.5c-43.333 0 -78.166 -14.833 -104.499 -44.5s-39.5 -72.5 -39.5 -128.5v-8
c0 -56.667 12.833 -99.5 38.5 -128.5s61.167 -43.5 106.5 -43.5z" />
    <glyph glyph-name="ydieresis" unicode="&#xff;" horiz-adv-x="553" 
d="M130 -179l95 232l-207 470h131l139 -337l128 337h118l-285 -702h-119zM186 613c-18 0 -33.5 6.33301 -46.5 19s-19.5 28 -19.5 46c0 17.333 6.5 32.5 19.5 45.5s28.5 19.5 46.5 19.5s33.5 -6.5 46.5 -19.5s19.5 -28.167 19.5 -45.5c0 -18 -6.5 -33.333 -19.5 -46
s-28.5 -19 -46.5 -19zM384 613c-18.667 0 -34.334 6.33301 -47.001 19s-19 28 -19 46c0 17.333 6.33301 32.5 19 45.5s28.334 19.5 47.001 19.5c18 0 33.5 -6.5 46.5 -19.5s19.5 -28.167 19.5 -45.5c0 -18 -6.5 -33.333 -19.5 -46s-28.5 -19 -46.5 -19z" />
    <glyph glyph-name="Amacron" unicode="&#x100;" horiz-adv-x="703" 
d="M27 0l239 715h174l236 -715h-138l-57 177h-273l-56 -177h-125zM345 606l-106 -332h211zM206 780v81h288v-81h-288z" />
    <glyph glyph-name="amacron" unicode="&#x101;" horiz-adv-x="555" 
d="M209 -10c-51.333 0 -93.334 12.833 -126.001 38.5s-49 64.5 -49 116.5c0 57.333 24.333 99.333 73 126s113.667 40 195 40h65v27c0 36 -7.16699 62.5 -21.5 79.5s-38.833 25.5 -73.5 25.5c-60.667 0 -94 -27.333 -100 -82h-117c4.66699 58 27.5 101.333 68.5 130
s92.833 43 155.5 43c139.333 0 209 -63.667 209 -191v-343h-119v64c-37.333 -49.333 -90.666 -74 -159.999 -74zM237.999 77c38 0 69 9.5 93 28.5s36 44.833 36 77.5v52h-62c-100.667 0 -151 -28.333 -151 -85c0 -48.667 28 -73 84 -73zM138.999 634v78h280v-78h-280z" />
    <glyph glyph-name="Abreve" unicode="&#x102;" horiz-adv-x="703" 
d="M27 0l239 715h174l236 -715h-138l-57 177h-273l-56 -177h-125zM345 606l-106 -332h211zM349 761c-41.333 0 -75.333 13 -102 39s-41 59.667 -43 101h85c5.33301 -37.333 25.333 -56 60 -56c35.333 0 56.333 18.667 63 56h84c-2.66699 -41.333 -17.667 -75 -45 -101
s-61.333 -39 -102 -39z" />
    <glyph glyph-name="abreve" unicode="&#x103;" horiz-adv-x="555" 
d="M209 -10c-51.333 0 -93.334 12.833 -126.001 38.5s-49 64.5 -49 116.5c0 57.333 24.333 99.333 73 126s113.667 40 195 40h65v27c0 36 -7.16699 62.5 -21.5 79.5s-38.833 25.5 -73.5 25.5c-60.667 0 -94 -27.333 -100 -82h-117c4.66699 58 27.5 101.333 68.5 130
s92.833 43 155.5 43c139.333 0 209 -63.667 209 -191v-343h-119v64c-37.333 -49.333 -90.666 -74 -159.999 -74zM237.999 77c38 0 69 9.5 93 28.5s36 44.833 36 77.5v52h-62c-100.667 0 -151 -28.333 -151 -85c0 -48.667 28 -73 84 -73zM277.999 606
c-41.333 0 -75.166 13.167 -101.499 39.5s-40.833 60.833 -43.5 103.5h84c5.33301 -38.667 25.666 -58 60.999 -58c36 0 57.667 19.333 65 58h82c-2.66699 -42.667 -17.667 -77.167 -45 -103.5s-61.333 -39.5 -102 -39.5z" />
    <glyph glyph-name="Aogonek" unicode="&#x104;" horiz-adv-x="703" 
d="M605 -182c-34 0 -61.167 7.33105 -81.5 21.998s-30.5 34.334 -30.5 59.001c0 40.667 27 74.334 81 101.001h-36l-57 177h-273l-56 -177h-125l239 715h174l233 -708c-47.333 -27.333 -71 -55 -71 -83c0 -21.333 11.667 -32 35 -32c16.667 0 31 3 43 9v-69
c-20 -9.33301 -45 -14 -75 -14zM345 605.998l-106 -332h211z" />
    <glyph glyph-name="aogonek" unicode="&#x105;" horiz-adv-x="555" 
d="M421 -182c-32.667 0 -59 7.16699 -79 21.5s-30 33.833 -30 58.5c0 41.333 27.333 75.333 82 102h-25v64c-37.333 -49.333 -90.666 -74 -159.999 -74c-51.333 0 -93.333 12.833 -126 38.5s-49 64.5 -49 116.5c0 57.333 24.333 99.333 73 126s113.667 40 195 40h65v27
c0 36 -7.16699 62.5 -21.5 79.5s-38.833 25.5 -73.5 25.5c-60.667 0 -94 -27.333 -100 -82h-117c4.66699 58 27.5 101.333 68.5 130s92.833 43 155.5 43c139.333 0 209 -63.667 209 -191v-336c-46.667 -28.667 -70 -56.667 -70 -84c0 -22 11.667 -33 35 -33
c15.333 0 29.666 3 42.999 9v-67c-20 -9.33301 -45 -14 -75 -14zM238 77c38 0 69 9.5 93 28.5s36 44.833 36 77.5v52h-62c-100.667 0 -151 -28.333 -151 -85c0 -48.667 28 -73 84 -73z" />
    <glyph glyph-name="Cacute" unicode="&#x106;" horiz-adv-x="741" 
d="M395 -10c-110.667 0 -196.5 32.667 -257.5 98s-91.5 153.666 -91.5 264.999v8c0 106.667 32.833 194.167 98.5 262.5s148.5 102.5 248.5 102.5c85.333 0 155.833 -21.333 211.5 -64s87.5 -104.667 95.5 -186h-135c-15.333 96 -72.333 144 -171 144
c-63.333 0 -113.833 -23.167 -151.5 -69.5s-56.5 -109.166 -56.5 -188.499v-8c0 -80.667 18.333 -143.5 55 -188.5s88 -67.5 154 -67.5c50.667 0 92.167 12.833 124.5 38.5s51.833 63.167 58.5 112.5h130c-10 -84 -42.833 -148.167 -98.5 -192.5
s-127.167 -66.5 -214.5 -66.5zM342 766l54 135h136l-99 -135h-91z" />
    <glyph glyph-name="cacute" unicode="&#x107;" horiz-adv-x="575" 
d="M248 601l59 155h134l-104 -155h-89zM301 -10c-76.667 0 -139.834 23.833 -189.501 71.5s-74.5 112.167 -74.5 193.5v8c0 81.333 25.333 146.833 76 196.5s113.334 74.5 188.001 74.5c64 0 118.167 -15.833 162.5 -47.5s69.833 -81.167 76.5 -148.5h-117
c-9.33301 66 -49.333 99 -120 99c-42 0 -76.167 -15.333 -102.5 -46s-39.5 -72.667 -39.5 -126v-8c0 -56 12.833 -99 38.5 -129s61.167 -45 106.5 -45c33.333 0 61.833 9.83301 85.5 29.5s37.167 47.167 40.5 82.5h111c-4.66699 -61.333 -28.667 -110.833 -72 -148.5
s-100 -56.5 -170 -56.5z" />
    <glyph glyph-name="Ccircumflex" unicode="&#x108;" horiz-adv-x="741" 
d="M232 766l111 135h104l108 -135h-88l-74 55l-75 -55h-86zM395 -10c-110.667 0 -196.5 32.667 -257.5 98s-91.5 153.666 -91.5 264.999v8c0 106.667 32.833 194.167 98.5 262.5s148.5 102.5 248.5 102.5c85.333 0 155.833 -21.333 211.5 -64s87.5 -104.667 95.5 -186h-135
c-15.333 96 -72.333 144 -171 144c-63.333 0 -113.833 -23.167 -151.5 -69.5s-56.5 -109.166 -56.5 -188.499v-8c0 -80.667 18.333 -143.5 55 -188.5s88 -67.5 154 -67.5c50.667 0 92.167 12.833 124.5 38.5s51.833 63.167 58.5 112.5h130
c-10 -84 -42.833 -148.167 -98.5 -192.5s-127.167 -66.5 -214.5 -66.5z" />
    <glyph glyph-name="ccircumflex" unicode="&#x109;" horiz-adv-x="575" 
d="M137 602l114 151h96l111 -151h-86l-75 68l-76 -68h-84zM301 -10c-76.667 0 -139.834 23.833 -189.501 71.5s-74.5 112.167 -74.5 193.5v8c0 81.333 25.333 146.833 76 196.5s113.334 74.5 188.001 74.5c64 0 118.167 -15.833 162.5 -47.5s69.833 -81.167 76.5 -148.5
h-117c-9.33301 66 -49.333 99 -120 99c-42 0 -76.167 -15.333 -102.5 -46s-39.5 -72.667 -39.5 -126v-8c0 -56 12.833 -99 38.5 -129s61.167 -45 106.5 -45c33.333 0 61.833 9.83301 85.5 29.5s37.167 47.167 40.5 82.5h111c-4.66699 -61.333 -28.667 -110.833 -72 -148.5
s-100 -56.5 -170 -56.5z" />
    <glyph glyph-name="Cdotaccent" unicode="&#x10a;" horiz-adv-x="741" 
d="M395 -10c-110.667 0 -196.5 32.667 -257.5 98s-91.5 153.666 -91.5 264.999v8c0 106.667 32.833 194.167 98.5 262.5s148.5 102.5 248.5 102.5c85.333 0 155.833 -21.333 211.5 -64s87.5 -104.667 95.5 -186h-135c-15.333 96 -72.333 144 -171 144
c-63.333 0 -113.833 -23.167 -151.5 -69.5s-56.5 -109.166 -56.5 -188.499v-8c0 -80.667 18.333 -143.5 55 -188.5s88 -67.5 154 -67.5c50.667 0 92.167 12.833 124.5 38.5s51.833 63.167 58.5 112.5h130c-10 -84 -42.833 -148.167 -98.5 -192.5
s-127.167 -66.5 -214.5 -66.5zM391 775c-20 0 -36.833 6.66895 -50.5 20.002s-20.5 29.666 -20.5 48.999s6.83301 35.5 20.5 48.5s30.5 19.5 50.5 19.5c19.333 0 36 -6.66699 50 -20s21 -29.333 21 -48s-7 -34.834 -21 -48.501s-30.667 -20.5 -50 -20.5z" />
    <glyph glyph-name="cdotaccent" unicode="&#x10b;" horiz-adv-x="575" 
d="M301 -10c-76.667 0 -139.834 23.833 -189.501 71.5s-74.5 112.167 -74.5 193.5v8c0 81.333 25.333 146.833 76 196.5s113.334 74.5 188.001 74.5c64 0 118.167 -15.833 162.5 -47.5s69.833 -81.167 76.5 -148.5h-117c-9.33301 66 -49.333 99 -120 99
c-42 0 -76.167 -15.333 -102.5 -46s-39.5 -72.667 -39.5 -126v-8c0 -56 12.833 -99 38.5 -129s61.167 -45 106.5 -45c33.333 0 61.833 9.83301 85.5 29.5s37.167 47.167 40.5 82.5h111c-4.66699 -61.333 -28.667 -110.833 -72 -148.5s-100 -56.5 -170 -56.5zM299 611
c-20 0 -36.833 6.66699 -50.5 20s-20.5 29.666 -20.5 48.999s6.83301 35.5 20.5 48.5s30.5 19.5 50.5 19.5c19.333 0 36 -6.66699 50 -20s21 -29.333 21 -48c0 -19.333 -7 -35.666 -21 -48.999s-30.667 -20 -50 -20z" />
    <glyph glyph-name="Ccaron" unicode="&#x10c;" horiz-adv-x="741" 
d="M340 766l-108 135h88l75 -55l74 55h86l-110 -135h-105zM395 -10c-110.667 0 -196.5 32.667 -257.5 98s-91.5 153.666 -91.5 264.999v8c0 106.667 32.833 194.167 98.5 262.5s148.5 102.5 248.5 102.5c85.333 0 155.833 -21.333 211.5 -64s87.5 -104.667 95.5 -186h-135
c-15.333 96 -72.333 144 -171 144c-63.333 0 -113.833 -23.167 -151.5 -69.5s-56.5 -109.166 -56.5 -188.499v-8c0 -80.667 18.333 -143.5 55 -188.5s88 -67.5 154 -67.5c50.667 0 92.167 12.833 124.5 38.5s51.833 63.167 58.5 112.5h130
c-10 -84 -42.833 -148.167 -98.5 -192.5s-127.167 -66.5 -214.5 -66.5z" />
    <glyph glyph-name="ccaron" unicode="&#x10d;" horiz-adv-x="575" 
d="M249 602l-112 151h87l75 -67l75 67h84l-113 -151h-96zM301 -10c-76.667 0 -139.834 23.833 -189.501 71.5s-74.5 112.167 -74.5 193.5v8c0 81.333 25.333 146.833 76 196.5s113.334 74.5 188.001 74.5c64 0 118.167 -15.833 162.5 -47.5s69.833 -81.167 76.5 -148.5h-117
c-9.33301 66 -49.333 99 -120 99c-42 0 -76.167 -15.333 -102.5 -46s-39.5 -72.667 -39.5 -126v-8c0 -56 12.833 -99 38.5 -129s61.167 -45 106.5 -45c33.333 0 61.833 9.83301 85.5 29.5s37.167 47.167 40.5 82.5h111c-4.66699 -61.333 -28.667 -110.833 -72 -148.5
s-100 -56.5 -170 -56.5z" />
    <glyph glyph-name="Dcaron" unicode="&#x10e;" horiz-adv-x="714" 
d="M270 766l-108 135h88l75 -55l74 55h86l-110 -135h-105zM215 105h77.999c78.667 0 137.834 21.5 177.501 64.5s59.5 104.833 59.5 185.5v8c0 164.667 -79.333 247 -238 247h-77v-505zM81.999 0l-0.000976562 715h217c121.333 0 213.333 -31.5 276 -94.5
s94 -148.167 94 -255.5v-9c0 -108 -31.667 -194.333 -95 -259s-155.666 -97 -276.999 -97h-215z" />
    <glyph glyph-name="dcaron" unicode="&#x10f;" horiz-adv-x="633" 
d="M605 590l10 175h110l-49 -175h-71zM268 -10c-68 0 -123.331 23.166 -165.998 69.499s-64 110.833 -64 193.5v8c0 82.667 22 148.834 66 198.501s100.333 74.5 169 74.5c77.333 0 133 -30.333 167 -91v322h121v-765h-121v88c-14.667 -27.333 -37.834 -50.5 -69.501 -69.5
s-65.834 -28.5 -102.501 -28.5zM298.002 85.999c44 0 79.335 14.667 106.002 44s40 72.333 40 129v8c0 56.667 -12.333 99.5 -37 128.5s-59.334 43.5 -104.001 43.5s-79.334 -15.167 -104.001 -45.5s-37 -73.5 -37 -129.5v-8c0 -55.333 12.5 -97.5 37.5 -126.5
s57.833 -43.5 98.5 -43.5z" />
    <glyph glyph-name="Dcroat" unicode="&#x110;" horiz-adv-x="739" 
d="M32 311v95h69v309h217c121.333 0 213.333 -31.5 276 -94.5s94 -148.167 94 -255.5v-9c0 -108 -31.5 -194.333 -94.5 -259s-155.167 -97 -276.5 -97h-216v311h-69zM233 105h80c78.667 0 137.667 21.5 177 64.5s59 104.833 59 185.5v8c0 164.667 -79 247 -237 247h-79v-204
h173v-95h-173v-206z" />
    <glyph glyph-name="dcroat" unicode="&#x111;" horiz-adv-x="633" 
d="M271 604l0.00195312 74.999h169v86h121v-86h68v-75h-68v-604h-121v88c-14.667 -27.333 -37.834 -50.5 -69.501 -69.5s-65.834 -28.5 -102.501 -28.5c-68 0 -123.333 23.167 -166 69.5s-64 110.833 -64 193.5v8c0 82.667 22 148.834 66 198.501s100.333 74.5 169 74.5
c77.333 0 133 -30.333 167 -91v161h-169zM298.002 85.999c44 0 79.335 14.667 106.002 44s40 72.333 40 129v8c0 56.667 -12.333 99.5 -37 128.5s-59.334 43.5 -104.001 43.5s-79.334 -15.167 -104.001 -45.5s-37 -73.5 -37 -129.5v-8c0 -55.333 12.5 -97.5 37.5 -126.5
s57.833 -43.5 98.5 -43.5z" />
    <glyph glyph-name="Emacron" unicode="&#x112;" horiz-adv-x="584" 
d="M82 0v715h447v-105h-314v-196h252v-100h-252v-209h331v-105h-464zM169 780v81h288v-81h-288z" />
    <glyph glyph-name="emacron" unicode="&#x113;" horiz-adv-x="580" 
d="M302 -10c-78 0 -141.668 24 -191.001 72s-74 112.667 -74 194v8c0 80 24.5 145 73.5 195s111.167 75 186.5 75c70.667 0 129.5 -22 176.5 -66s70.5 -110 70.5 -198v-35h-383c2 -50 15.333 -88.333 40 -115s59.334 -40 104.001 -40c70.667 0 110.667 26.667 120 80h117
c-8.66699 -54.667 -34 -96.667 -76 -126s-96.667 -44 -164 -44zM162.999 316h261c-6 86.667 -48.333 130 -127 130c-36 0 -65.833 -11.5 -89.5 -34.5s-38.5 -54.833 -44.5 -95.5zM154.999 634v78h280v-78h-280z" />
    <glyph glyph-name="Ebreve" unicode="&#x114;" horiz-adv-x="584" 
d="M82 0v715h447v-105h-314v-196h252v-100h-252v-209h331v-105h-464zM316 761c-41.333 0 -75.333 13 -102 39s-41 59.667 -43 101h85c5.33301 -37.333 25.333 -56 60 -56c35.333 0 56.333 18.667 63 56h84c-2.66699 -41.333 -17.667 -75 -45 -101s-61.333 -39 -102 -39z" />
    <glyph glyph-name="ebreve" unicode="&#x115;" horiz-adv-x="580" 
d="M302 -10c-78 0 -141.668 24 -191.001 72s-74 112.667 -74 194v8c0 80 24.5 145 73.5 195s111.167 75 186.5 75c70.667 0 129.5 -22 176.5 -66s70.5 -110 70.5 -198v-35h-383c2 -50 15.333 -88.333 40 -115s59.334 -40 104.001 -40c70.667 0 110.667 26.667 120 80h117
c-8.66699 -54.667 -34 -96.667 -76 -126s-96.667 -44 -164 -44zM162.999 316h261c-6 86.667 -48.333 130 -127 130c-36 0 -65.833 -11.5 -89.5 -34.5s-38.5 -54.833 -44.5 -95.5zM286.999 606c-41.333 0 -75.166 13.167 -101.499 39.5s-40.833 60.833 -43.5 103.5h84
c5.33301 -38.667 25.666 -58 60.999 -58c36 0 57.667 19.333 65 58h82c-2.66699 -42.667 -17.667 -77.167 -45 -103.5s-61.333 -39.5 -102 -39.5z" />
    <glyph glyph-name="Edotaccent" unicode="&#x116;" horiz-adv-x="584" 
d="M313 775c-20 0 -36.833 6.66895 -50.5 20.002s-20.5 29.666 -20.5 48.999s6.83301 35.5 20.5 48.5s30.5 19.5 50.5 19.5c19.333 0 36 -6.66699 50 -20s21 -29.333 21 -48s-7 -34.834 -21 -48.501s-30.667 -20.5 -50 -20.5zM82 0.00195312v715h447v-105h-314v-196h252
v-100h-252v-209h331v-105h-464z" />
    <glyph glyph-name="edotaccent" unicode="&#x117;" horiz-adv-x="580" 
d="M302 -10c-78 0 -141.668 24 -191.001 72s-74 112.667 -74 194v8c0 80 24.5 145 73.5 195s111.167 75 186.5 75c70.667 0 129.5 -22 176.5 -66s70.5 -110 70.5 -198v-35h-383c2 -50 15.333 -88.333 40 -115s59.334 -40 104.001 -40c70.667 0 110.667 26.667 120 80h117
c-8.66699 -54.667 -34 -96.667 -76 -126s-96.667 -44 -164 -44zM162.999 316h261c-6 86.667 -48.333 130 -127 130c-36 0 -65.833 -11.5 -89.5 -34.5s-38.5 -54.833 -44.5 -95.5zM294.999 611c-20 0 -36.833 6.66699 -50.5 20s-20.5 29.666 -20.5 48.999
s6.83301 35.5 20.5 48.5s30.5 19.5 50.5 19.5c19.333 0 36 -6.66699 50 -20s21 -29.333 21 -48c0 -19.333 -7 -35.666 -21 -48.999s-30.667 -20 -50 -20z" />
    <glyph glyph-name="Eogonek" unicode="&#x118;" horiz-adv-x="584" 
d="M459 -182c-34 0 -61 7.33105 -81 21.998s-30 34.334 -30 59.001c0 40.667 27 74.334 81 101.001h-347v715h447v-105h-314v-196h252v-100h-252v-209h331v-105h-32c-38 -26.667 -57 -52 -57 -76c0 -21.333 11.667 -32 35 -32c16 0 30.333 3 43 9v-69
c-20 -9.33301 -45.333 -14 -76 -14z" />
    <glyph glyph-name="eogonek" unicode="&#x119;" horiz-adv-x="580" 
d="M395 -182c-33.333 0 -60.001 7.16699 -80.001 21.5s-30 33.833 -30 58.5c0 36 24.667 68 74 96c-15.333 -2.66699 -34.333 -4 -57 -4c-78 0 -141.667 24 -191 72s-74 112.667 -74 194v8c0 80 24.5 145 73.5 195s111.167 75 186.5 75c70.667 0 129.5 -22 176.5 -66
s70.5 -110 70.5 -198v-35h-383c2 -50 15.333 -88.333 40 -115s59.334 -40 104.001 -40c70.667 0 110.667 26.667 120 80h117c-4 -23.333 -11.5 -45 -22.5 -65s-20.5 -34.167 -28.5 -42.5s-18.667 -18.5 -32 -30.5c-46 -41.333 -69 -74.333 -69 -99c0 -22 11.667 -33 35 -33
c16.667 0 31.334 3 44.001 9v-67c-20.667 -9.33301 -45.334 -14 -74.001 -14zM162.999 316h261c-6 86.667 -48.333 130 -127 130c-36 0 -65.833 -11.5 -89.5 -34.5s-38.5 -54.833 -44.5 -95.5z" />
    <glyph glyph-name="Ecaron" unicode="&#x11a;" horiz-adv-x="584" 
d="M261 766l-108 135h88l75 -55l74 55h86l-110 -135h-105zM82 0v715h447v-105h-314v-196h252v-100h-252v-209h331v-105h-464z" />
    <glyph glyph-name="ecaron" unicode="&#x11b;" horiz-adv-x="580" 
d="M246 602l-112 151h87l75 -67l75 67h84l-113 -151h-96zM302 -10c-78 0 -141.668 24 -191.001 72s-74 112.667 -74 194v8c0 80 24.5 145 73.5 195s111.167 75 186.5 75c70.667 0 129.5 -22 176.5 -66s70.5 -110 70.5 -198v-35h-383c2 -50 15.333 -88.333 40 -115
s59.334 -40 104.001 -40c70.667 0 110.667 26.667 120 80h117c-8.66699 -54.667 -34 -96.667 -76 -126s-96.667 -44 -164 -44zM162.999 316h261c-6 86.667 -48.333 130 -127 130c-36 0 -65.833 -11.5 -89.5 -34.5s-38.5 -54.833 -44.5 -95.5z" />
    <glyph glyph-name="Gcircumflex" unicode="&#x11c;" horiz-adv-x="775" 
d="M403 -10c-112 0 -199.501 33.5 -262.501 100.5s-94.5 154.5 -94.5 262.5v8c0 106.667 33.333 194.167 100 262.5s152.334 102.5 257.001 102.5c82.667 0 152.5 -20 209.5 -60s89.833 -100.333 98.5 -181h-133c-15.333 90.667 -73 136 -173 136
c-69.333 0 -123.5 -23.667 -162.5 -71s-58.5 -110.666 -58.5 -189.999v-8c0 -79.333 18.667 -142.166 56 -188.499s92.333 -69.5 165 -69.5c63.333 0 110.833 16.667 142.5 50s48.5 76.666 50.5 129.999h-180v100h311v-66c0 -98.667 -29 -176.334 -87 -233.001
s-137.667 -85 -239 -85zM235.999 766l111 135h104l108 -135h-88l-74 55l-75 -55h-86z" />
    <glyph glyph-name="gcircumflex" unicode="&#x11d;" horiz-adv-x="633" 
d="M137 602l114 151h96l111 -151h-86l-75 68l-76 -68h-84zM295 -192c-78 0 -137.668 15.667 -179.001 47s-65.666 73.666 -72.999 126.999h122c10.667 -54.667 53.667 -82 129 -82c97.333 0 146 47 146 141v77c-15.333 -26.667 -38.5 -49.5 -69.5 -68.5
s-64.833 -28.5 -101.5 -28.5c-66.667 0 -122 23 -166 69s-66 106 -66 180v7c0 73.333 22.333 134.5 67 183.5s100.667 73.5 168 73.5c77.333 0 133.333 -30.333 168 -91v80h121v-484c-0.666992 -75.333 -24.5 -132.666 -71.5 -171.999s-111.833 -59 -194.5 -59zM298.999 114
c42.667 0 77.499 14.333 104.499 43s40.5 67.667 40.5 117v7c0 49.333 -12.667 88 -38 116s-59.666 42 -102.999 42c-44 0 -78.667 -14.667 -104 -44s-38 -68 -38 -116v-8c0 -47.333 13 -85.333 39 -114s59 -43 99 -43z" />
    <glyph glyph-name="Gbreve" unicode="&#x11e;" horiz-adv-x="775" 
d="M403 -10c-112 0 -199.501 33.5 -262.501 100.5s-94.5 154.5 -94.5 262.5v8c0 106.667 33.333 194.167 100 262.5s152.334 102.5 257.001 102.5c82.667 0 152.5 -20 209.5 -60s89.833 -100.333 98.5 -181h-133c-15.333 90.667 -73 136 -173 136
c-69.333 0 -123.5 -23.667 -162.5 -71s-58.5 -110.666 -58.5 -189.999v-8c0 -79.333 18.667 -142.166 56 -188.499s92.333 -69.5 165 -69.5c63.333 0 110.833 16.667 142.5 50s48.5 76.666 50.5 129.999h-180v100h311v-66c0 -98.667 -29 -176.334 -87 -233.001
s-137.667 -85 -239 -85zM396.999 761c-41.333 0 -75.333 13 -102 39s-41 59.667 -43 101h85c5.33301 -37.333 25.333 -56 60 -56c35.333 0 56.333 18.667 63 56h84c-2.66699 -41.333 -17.667 -75 -45 -101s-61.333 -39 -102 -39z" />
    <glyph glyph-name="gbreve" unicode="&#x11f;" horiz-adv-x="633" 
d="M295 -192c-78 0 -137.668 15.667 -179.001 47s-65.666 73.666 -72.999 126.999h122c10.667 -54.667 53.667 -82 129 -82c97.333 0 146 47 146 141v77c-15.333 -26.667 -38.5 -49.5 -69.5 -68.5s-64.833 -28.5 -101.5 -28.5c-66.667 0 -122 23 -166 69s-66 106 -66 180v7
c0 73.333 22.333 134.5 67 183.5s100.667 73.5 168 73.5c77.333 0 133.333 -30.333 168 -91v80h121v-484c-0.666992 -75.333 -24.5 -132.666 -71.5 -171.999s-111.833 -59 -194.5 -59zM298.999 114c42.667 0 77.499 14.333 104.499 43s40.5 67.667 40.5 117v7
c0 49.333 -12.667 88 -38 116s-59.666 42 -102.999 42c-44 0 -78.667 -14.667 -104 -44s-38 -68 -38 -116v-8c0 -47.333 13 -85.333 39 -114s59 -43 99 -43zM296.998 606c-41.333 0 -75.166 13.167 -101.499 39.5s-40.833 60.833 -43.5 103.5h84
c5.33301 -38.667 25.666 -58 60.999 -58c36 0 57.667 19.333 65 58h82c-2.66699 -42.667 -17.667 -77.167 -45 -103.5s-61.333 -39.5 -102 -39.5z" />
    <glyph glyph-name="Gdotaccent" unicode="&#x120;" horiz-adv-x="775" 
d="M403 -10c-112 0 -199.501 33.5 -262.501 100.5s-94.5 154.5 -94.5 262.5v8c0 106.667 33.333 194.167 100 262.5s152.334 102.5 257.001 102.5c82.667 0 152.5 -20 209.5 -60s89.833 -100.333 98.5 -181h-133c-15.333 90.667 -73 136 -173 136
c-69.333 0 -123.5 -23.667 -162.5 -71s-58.5 -110.666 -58.5 -189.999v-8c0 -79.333 18.667 -142.166 56 -188.499s92.333 -69.5 165 -69.5c63.333 0 110.833 16.667 142.5 50s48.5 76.666 50.5 129.999h-180v100h311v-66c0 -98.667 -29 -176.334 -87 -233.001
s-137.667 -85 -239 -85zM397.999 775c-20 0 -36.833 6.66895 -50.5 20.002s-20.5 29.666 -20.5 48.999s6.83301 35.5 20.5 48.5s30.5 19.5 50.5 19.5c19.333 0 36 -6.66699 50 -20s21 -29.333 21 -48s-7 -34.834 -21 -48.501s-30.667 -20.5 -50 -20.5z" />
    <glyph glyph-name="gdotaccent" unicode="&#x121;" horiz-adv-x="633" 
d="M295 -192c-78 0 -137.668 15.667 -179.001 47s-65.666 73.666 -72.999 126.999h122c10.667 -54.667 53.667 -82 129 -82c97.333 0 146 47 146 141v77c-15.333 -26.667 -38.5 -49.5 -69.5 -68.5s-64.833 -28.5 -101.5 -28.5c-66.667 0 -122 23 -166 69s-66 106 -66 180v7
c0 73.333 22.333 134.5 67 183.5s100.667 73.5 168 73.5c77.333 0 133.333 -30.333 168 -91v80h121v-484c-0.666992 -75.333 -24.5 -132.666 -71.5 -171.999s-111.833 -59 -194.5 -59zM298.999 114c42.667 0 77.499 14.333 104.499 43s40.5 67.667 40.5 117v7
c0 49.333 -12.667 88 -38 116s-59.666 42 -102.999 42c-44 0 -78.667 -14.667 -104 -44s-38 -68 -38 -116v-8c0 -47.333 13 -85.333 39 -114s59 -43 99 -43zM297.998 611c-20 0 -36.833 6.66699 -50.5 20s-20.5 29.666 -20.5 48.999s6.83301 35.5 20.5 48.5
s30.5 19.5 50.5 19.5c19.333 0 36 -6.66699 50 -20s21 -29.333 21 -48c0 -19.333 -7 -35.666 -21 -48.999s-30.667 -20 -50 -20z" />
    <glyph glyph-name="Gcommaaccent" unicode="&#x122;" horiz-adv-x="775" 
d="M403 -10c-112 0 -199.501 33.5 -262.501 100.5s-94.5 154.5 -94.5 262.5v8c0 106.667 33.333 194.167 100 262.5s152.334 102.5 257.001 102.5c82.667 0 152.5 -20 209.5 -60s89.833 -100.333 98.5 -181h-133c-15.333 90.667 -73 136 -173 136
c-69.333 0 -123.5 -23.667 -162.5 -71s-58.5 -110.666 -58.5 -189.999v-8c0 -79.333 18.667 -142.166 56 -188.499s92.333 -69.5 165 -69.5c63.333 0 110.833 16.667 142.5 50s48.5 76.666 50.5 129.999h-180v100h311v-66c0 -98.667 -29 -176.334 -87 -233.001
s-137.667 -85 -239 -85zM371.999 -225l-71 27l52 165l111 -22z" />
    <glyph glyph-name="gcommaaccent" unicode="&#x123;" horiz-adv-x="633" 
d="M355 588l-111 22l92 169l70 -26zM295 -192c-78 0 -137.668 15.667 -179.001 47s-65.666 73.666 -72.999 126.999h122c10.667 -54.667 53.667 -82 129 -82c97.333 0 146 47 146 141v77c-15.333 -26.667 -38.5 -49.5 -69.5 -68.5s-64.833 -28.5 -101.5 -28.5
c-66.667 0 -122 23 -166 69s-66 106 -66 180v7c0 73.333 22.333 134.5 67 183.5s100.667 73.5 168 73.5c77.333 0 133.333 -30.333 168 -91v80h121v-484c-0.666992 -75.333 -24.5 -132.666 -71.5 -171.999s-111.833 -59 -194.5 -59zM298.999 114
c42.667 0 77.499 14.333 104.499 43s40.5 67.667 40.5 117v7c0 49.333 -12.667 88 -38 116s-59.666 42 -102.999 42c-44 0 -78.667 -14.667 -104 -44s-38 -68 -38 -116v-8c0 -47.333 13 -85.333 39 -114s59 -43 99 -43z" />
    <glyph glyph-name="Hcircumflex" unicode="&#x124;" horiz-adv-x="751" 
d="M82 0v715h133v-304h321v304h134v-715h-134v304h-321v-304h-133zM213 766l111 135h104l108 -135h-88l-74 55l-75 -55h-86z" />
    <glyph glyph-name="hcircumflex" unicode="&#x125;" horiz-adv-x="608" 
d="M72 0l0.000976562 765h121v-325c13.333 27.333 34.666 49.833 63.999 67.5s64.333 26.5 105 26.5c55.333 0 99 -16.833 131 -50.5s48 -85.167 48 -154.5v-329h-121v318c0 39.333 -8.33301 68.333 -25 87s-43 28 -79 28s-65.5 -10.833 -88.5 -32.5
s-34.5 -52.5 -34.5 -92.5v-308h-121z" />
    <glyph glyph-name="Hbar" unicode="&#x126;" horiz-adv-x="751" 
d="M16 504v78h66v133h133v-133h321v133h134v-133h66v-78h-66v-504h-134v304h-321v-304h-133v504h-66zM215 411h321v93h-321v-93z" />
    <glyph glyph-name="hbar" unicode="&#x127;" horiz-adv-x="608" 
d="M4 604l0.000976562 75h68v86h121v-86h169v-75h-169v-164c13.333 27.333 34.666 49.833 63.999 67.5s64.333 26.5 105 26.5c55.333 0 99 -16.833 131 -50.5s48 -85.167 48 -154.5v-329h-121v318c0 39.333 -8.33301 68.333 -25 87s-43 28 -79 28s-65.5 -10.833 -88.5 -32.5
s-34.5 -52.5 -34.5 -92.5v-308h-121v604h-68z" />
    <glyph glyph-name="Itilde" unicode="&#x128;" horiz-adv-x="307" 
d="M86 0v715h134v-715h-134zM213 768c-17.333 0 -38.334 6.5 -63.001 19.5s-41 19.5 -49 19.5c-8.66699 0 -16.5 -3.83301 -23.5 -11.5s-11.5 -17.167 -13.5 -28.5h-76c3.33301 40.667 15.166 72.667 35.499 96s44.833 35 73.5 35c16.667 0 37.334 -6.66699 62.001 -20
s41.667 -20 51 -20c8.66699 0 16.334 3.66699 23.001 11s11 17 13 29h77c-4 -40.667 -16.167 -72.5 -36.5 -95.5s-44.833 -34.5 -73.5 -34.5z" />
    <glyph glyph-name="itilde" unicode="&#x129;" horiz-adv-x="271" 
d="M75 0v523h121v-523h-121zM194 606c-17.333 0 -38.166 6.66602 -62.499 19.999s-40.5 20 -48.5 20c-8.66699 0 -16.5 -3.83301 -23.5 -11.5s-11.5 -17.167 -13.5 -28.5h-75c4 41.333 15.667 73.5 35 96.5s43.333 34.5 72 34.5c16.667 0 37.167 -6.5 61.5 -19.5
s41.166 -19.5 50.499 -19.5c19.333 0 31.333 13.333 36 40h75c-4 -41.333 -15.833 -73.666 -35.5 -96.999s-43.5 -35 -71.5 -35z" />
    <glyph glyph-name="Imacron" unicode="&#x12a;" horiz-adv-x="307" 
d="M86 0v715h134v-715h-134zM9 780v81h288v-81h-288z" />
    <glyph glyph-name="imacron" unicode="&#x12b;" horiz-adv-x="271" 
d="M28 634v78h214v-78h-214zM75 0v523h121v-523h-121z" />
    <glyph glyph-name="Ibreve" unicode="&#x12c;" horiz-adv-x="307" 
d="M86 0v715h134v-715h-134zM154 761c-41.333 0 -75.333 13 -102 39s-41 59.667 -43 101h85c5.33301 -37.333 25.333 -56 60 -56c35.333 0 56.333 18.667 63 56h84c-2.66699 -41.333 -17.667 -75 -45 -101s-61.333 -39 -102 -39z" />
    <glyph glyph-name="ibreve" unicode="&#x12d;" horiz-adv-x="271" 
d="M75 0v523h121v-523h-121zM135 606c-41.333 0 -75.166 13.167 -101.499 39.5s-40.833 60.833 -43.5 103.5h84c5.33301 -38.667 25.666 -58 60.999 -58c36 0 57.667 19.333 65 58h82c-2.66699 -42.667 -17.667 -77.167 -45 -103.5s-61.333 -39.5 -102 -39.5z" />
    <glyph glyph-name="Iogonek" unicode="&#x12e;" horiz-adv-x="307" 
d="M155 -182c-34 0 -61.167 7.33105 -81.5 21.998s-30.5 34.334 -30.5 59.001c0 40.667 27 74.334 81 101.001h-38v715h134v-708c-45.333 -27.333 -68 -55 -68 -83c0 -21.333 11.667 -32 35 -32c16.667 0 31 3 43 9v-69c-20 -9.33301 -45 -14 -75 -14z" />
    <glyph glyph-name="iogonek" unicode="&#x12f;" horiz-adv-x="271" 
d="M134 -182c-33.333 0 -59.833 7.16699 -79.5 21.5s-29.5 34.166 -29.5 59.499c0 40.667 27 74.334 81 101.001h-31v523h121v-518c-44 -28 -66 -55.333 -66 -82c0 -22 11.667 -33 35 -33c16.667 0 31 3 43 9v-67c-20 -9.33301 -44.667 -14 -74 -14zM134 609
c-20 0 -37 6.66699 -51 20s-21 29.666 -21 48.999c0 20 7 36.667 21 50s31 20 51 20s37 -6.66699 51 -20s21 -30 21 -50c0 -19.333 -7 -35.666 -21 -48.999s-31 -20 -51 -20z" />
    <glyph glyph-name="Idotaccent" unicode="&#x130;" horiz-adv-x="307" 
d="M86 0v715h134v-715h-134zM154 775c-20 0 -36.833 6.66895 -50.5 20.002s-20.5 29.666 -20.5 48.999s6.83301 35.5 20.5 48.5s30.5 19.5 50.5 19.5c19.333 0 36 -6.66699 50 -20s21 -29.333 21 -48s-7 -34.834 -21 -48.501s-30.667 -20.5 -50 -20.5z" />
    <glyph glyph-name="dotlessi" unicode="&#x131;" horiz-adv-x="271" 
d="M75 0v523h121v-523h-121z" />
    <glyph glyph-name="IJ" unicode="&#x132;" horiz-adv-x="715" 
d="M86 0v715h134v-715h-134zM419 -9c-48 0 -85.333 7 -112 21v104c30 -12 60.667 -18 92 -18c71.333 0 107 40.667 107 122v495h134v-498c0 -75.333 -19.667 -131.833 -59 -169.5s-93.333 -56.5 -162 -56.5z" />
    <glyph glyph-name="ij" unicode="&#x133;" horiz-adv-x="542" 
d="M75 0v523h121v-523h-121zM134 609c-20 0 -37 6.66699 -51 20s-21 29.666 -21 48.999c0 20 7 36.667 21 50s31 20 51 20s37 -6.66699 51 -20s21 -30 21 -50c0 -19.333 -7 -35.666 -21 -48.999s-31 -20 -51 -20zM273 -188v93.001c48 3.33301 72 28 72 74v544h121v-541
c0 -55.333 -14.667 -97.333 -44 -126s-79 -43.334 -149 -44.001zM404 609.001c-20 0 -37 6.66699 -51 20s-21 29.666 -21 48.999c0 20 7 36.667 21 50s31 20 51 20s37 -6.66699 51 -20s21 -30 21 -50c0 -19.333 -7 -35.666 -21 -48.999s-31 -20 -51 -20z" />
    <glyph glyph-name="Jcircumflex" unicode="&#x134;" horiz-adv-x="443" 
d="M137 766l111 135h104l108 -135h-88l-74 55l-75 -55h-86zM148 -9c-48 0 -85.333 7 -112 21v104c30 -12 60.667 -18 92 -18c71.333 0 107 40.667 107 122v495h134v-498c0 -75.333 -19.667 -131.833 -59 -169.5s-93.333 -56.5 -162 -56.5z" />
    <glyph glyph-name="jcircumflex" unicode="&#x135;" horiz-adv-x="271" 
d="M3 -188v93.001c48 3.33301 72 28 72 74v544h121v-541c0 -55.333 -14.667 -97.333 -44 -126s-79 -43.334 -149 -44.001zM-26 602.001l114 151h96l111 -151h-86l-75 68l-76 -68h-84z" />
    <glyph glyph-name="Kcommaaccent" unicode="&#x136;" horiz-adv-x="659" 
d="M82 0v715h133v-324l274 325h143l-296 -342l311 -374h-157l-275 334v-334h-133zM316 -225l-71 27l52 165l111 -22z" />
    <glyph glyph-name="kcommaaccent" unicode="&#x137;" horiz-adv-x="540" 
d="M72 0v765h121v-472l187 230h132l-203 -240l220 -283h-140l-196 257v-257h-121zM256 -225l-71 27l52 165l111 -22z" />
    <glyph glyph-name="Lacute" unicode="&#x139;" horiz-adv-x="551" 
d="M99 766l54 135h136l-99 -135h-91zM82 0v715h133v-609h305v-106h-438z" />
    <glyph glyph-name="lacute" unicode="&#x13a;" horiz-adv-x="271" 
d="M75 0v765h121v-765h-121z" />
    <glyph glyph-name="Lcommaaccent" unicode="&#x13b;" horiz-adv-x="551" 
d="M274 -225l-71 27l52 165l111 -22zM82 0v715h133v-609h305v-106h-438z" />
    <glyph glyph-name="lcommaaccent" unicode="&#x13c;" horiz-adv-x="271" 
d="M110 -225l-71 27l52 165l111 -22zM75 0v765h121v-765h-121z" />
    <glyph glyph-name="Lcaron" unicode="&#x13d;" horiz-adv-x="551" 
d="M313 550l20 165h115l-59 -165h-76zM82 0v715h133v-609h305v-106h-438z" />
    <glyph glyph-name="lcaron" unicode="&#x13e;" horiz-adv-x="271" 
d="M240 590l10 175h110l-49 -175h-71zM75 0v765h121v-765h-121z" />
    <glyph glyph-name="Ldot" unicode="&#x13f;" horiz-adv-x="561" 
d="M82 0v715h133v-609h305v-106h-438zM429 312c-22 0 -40.667 7.66699 -56 23s-23 34 -23 56s7.66699 40.5 23 55.5s34 22.5 56 22.5c22.667 0 41.667 -7.5 57 -22.5s23 -33.5 23 -55.5s-7.66699 -40.667 -23 -56s-34.333 -23 -57 -23z" />
    <glyph glyph-name="ldot" unicode="&#x140;" horiz-adv-x="378" 
d="M75 0v765h121v-765h-121zM322 285c-22 0 -40.667 7.66699 -56 23s-23 34 -23 56s7.66699 40.5 23 55.5s34 22.5 56 22.5c22.667 0 41.667 -7.5 57 -22.5s23 -33.5 23 -55.5s-7.66699 -40.667 -23 -56s-34.333 -23 -57 -23z" />
    <glyph glyph-name="Lslash" unicode="&#x141;" horiz-adv-x="570" 
d="M35 242v84l66 23v366h134v-318l191 69v-84l-191 -69v-207h305v-106h-439v265z" />
    <glyph glyph-name="lslash" unicode="&#x142;" horiz-adv-x="299" 
d="M19 291v88l70 37v349h121v-285l74 40v-88l-74 -40v-392h-121v328z" />
    <glyph glyph-name="Nacute" unicode="&#x143;" horiz-adv-x="745" 
d="M333 766l54 135h136l-99 -135h-91zM82 0v715h159l301 -517v517h121v-715h-138l-322 548v-548h-121z" />
    <glyph glyph-name="nacute" unicode="&#x144;" horiz-adv-x="608" 
d="M253 601l59 155h134l-104 -155h-89zM72 0l0.000976562 523h121v-83c13.333 27.333 34.666 49.833 63.999 67.5s64.333 26.5 105 26.5c55.333 0 99 -16.833 131 -50.5s48 -85.167 48 -154.5v-329h-121v318c0 39.333 -8.33301 68.333 -25 87s-43 28 -79 28
s-65.5 -10.833 -88.5 -32.5s-34.5 -52.5 -34.5 -92.5v-308h-121z" />
    <glyph glyph-name="Ncommaaccent" unicode="&#x145;" horiz-adv-x="745" 
d="M337 -225l-71 27l52 165l111 -22zM82 0v715h159l301 -517v517h121v-715h-138l-322 548v-548h-121z" />
    <glyph glyph-name="ncommaaccent" unicode="&#x146;" horiz-adv-x="608" 
d="M277 -225l-71 27l52 165l111 -22zM72 0l0.000976562 523h121v-83c13.333 27.333 34.666 49.833 63.999 67.5s64.333 26.5 105 26.5c55.333 0 99 -16.833 131 -50.5s48 -85.167 48 -154.5v-329h-121v318c0 39.333 -8.33301 68.333 -25 87s-43 28 -79 28
s-65.5 -10.833 -88.5 -32.5s-34.5 -52.5 -34.5 -92.5v-308h-121z" />
    <glyph glyph-name="Ncaron" unicode="&#x147;" horiz-adv-x="745" 
d="M331 766l-108 135h88l75 -55l74 55h86l-110 -135h-105zM82 0v715h159l301 -517v517h121v-715h-138l-322 548v-548h-121z" />
    <glyph glyph-name="ncaron" unicode="&#x148;" horiz-adv-x="608" 
d="M254 602l-112 151h87l75 -67l75 67h84l-113 -151h-96zM72 0l0.000976562 523h121v-83c13.333 27.333 34.666 49.833 63.999 67.5s64.333 26.5 105 26.5c55.333 0 99 -16.833 131 -50.5s48 -85.167 48 -154.5v-329h-121v318c0 39.333 -8.33301 68.333 -25 87
s-43 28 -79 28s-65.5 -10.833 -88.5 -32.5s-34.5 -52.5 -34.5 -92.5v-308h-121z" />
    <glyph glyph-name="napostrophe" unicode="&#x149;" horiz-adv-x="655" 
d="M32 464l-71 32l86 231l109 -43zM118 0l0.000976562 523h121v-83c13.333 27.333 34.666 49.833 63.999 67.5s64.333 26.5 105 26.5c55.333 0 99 -16.833 131 -50.5s48 -85.167 48 -154.5v-329h-121v318c0 39.333 -8.33301 68.333 -25 87s-43 28 -79 28
s-65.5 -10.833 -88.5 -32.5s-34.5 -52.5 -34.5 -92.5v-308h-121z" />
    <glyph glyph-name="Eng" unicode="&#x14a;" horiz-adv-x="745" 
d="M448 -193c-43.333 0 -79.667 7 -109 21v101c30 -12 59.333 -18 88 -18c65.333 0 100 31.667 104 95l-326 549v-555h-123v715h161l297 -507v507h123v-700c0 -67.333 -19.333 -118.833 -58 -154.5s-91 -53.5 -157 -53.5z" />
    <glyph glyph-name="eng" unicode="&#x14b;" horiz-adv-x="608" 
d="M349 -188v93.001c47.333 3.33301 71 28 71 74v339c0 39.333 -8.33301 68.333 -25 87s-43 28 -79 28s-65.5 -10.833 -88.5 -32.5s-34.5 -52.5 -34.5 -92.5v-308h-121v523h121v-83c13.333 27.333 34.666 49.833 63.999 67.5s64.333 26.5 105 26.5
c55.333 0 99 -16.833 131 -50.5s48 -85.167 48 -154.5v-347c0 -55.333 -14.667 -97.333 -44 -126s-78.666 -43.334 -147.999 -44.001z" />
    <glyph glyph-name="Omacron" unicode="&#x14c;" horiz-adv-x="814" 
d="M262 780v81h288v-81h-288zM410 97c67.333 0 120.834 23.5 160.501 70.5s59.5 109.5 59.5 187.5v8c0 75.333 -19.833 136.833 -59.5 184.5s-93.834 71.5 -162.501 71.5c-69.333 0 -123.833 -23.333 -163.5 -70s-59.5 -109 -59.5 -187v-8c0 -77.333 21 -139.5 63 -186.5
s96 -70.5 162 -70.5zM408.001 -10c-108 0 -195.334 34.332 -262.001 102.999s-100 155.334 -100 260.001v8c0 104.667 34 191.5 102 260.5s154.667 103.5 260 103.5c106 0 192.5 -33.833 259.5 -101.5s100.5 -154.167 100.5 -259.5v-8c0 -106 -33.167 -193.5 -99.5 -262.5
s-153.166 -103.5 -260.499 -103.5z" />
    <glyph glyph-name="omacron" unicode="&#x14d;" horiz-adv-x="611" 
d="M165 634v78h280v-78h-280zM306 84c44.667 0 79.834 15.5 105.501 46.5s38.5 73.5 38.5 127.5v7c0 54 -12.833 96.5 -38.5 127.5s-60.834 46.5 -105.501 46.5c-45.333 0 -80.833 -15.333 -106.5 -46s-38.5 -73 -38.5 -127v-8c0 -54 12.833 -96.5 38.5 -127.5
s61.167 -46.5 106.5 -46.5zM305 -10c-78 0 -142.167 24.666 -192.5 73.999s-75.5 113.333 -75.5 192v8c0 80 25.333 145 76 195s115 75 193 75c77.333 0 141.333 -24.667 192 -74s76 -113.666 76 -192.999v-8c0 -80.667 -25.333 -145.667 -76 -195s-115 -74 -193 -74z" />
    <glyph glyph-name="Obreve" unicode="&#x14e;" horiz-adv-x="814" 
d="M405 761c-41.333 0 -75.333 13 -102 39s-41 59.667 -43 101h85c5.33301 -37.333 25.333 -56 60 -56c35.333 0 56.333 18.667 63 56h84c-2.66699 -41.333 -17.667 -75 -45 -101s-61.333 -39 -102 -39zM410 97c67.333 0 120.834 23.5 160.501 70.5s59.5 109.5 59.5 187.5v8
c0 75.333 -19.833 136.833 -59.5 184.5s-93.834 71.5 -162.501 71.5c-69.333 0 -123.833 -23.333 -163.5 -70s-59.5 -109 -59.5 -187v-8c0 -77.333 21 -139.5 63 -186.5s96 -70.5 162 -70.5zM408.001 -10c-108 0 -195.334 34.332 -262.001 102.999
s-100 155.334 -100 260.001v8c0 104.667 34 191.5 102 260.5s154.667 103.5 260 103.5c106 0 192.5 -33.833 259.5 -101.5s100.5 -154.167 100.5 -259.5v-8c0 -106 -33.167 -193.5 -99.5 -262.5s-153.166 -103.5 -260.499 -103.5z" />
    <glyph glyph-name="obreve" unicode="&#x14f;" horiz-adv-x="611" 
d="M306 84c44.667 0 79.834 15.5 105.501 46.5s38.5 73.5 38.5 127.5v7c0 54 -12.833 96.5 -38.5 127.5s-60.834 46.5 -105.501 46.5c-45.333 0 -80.833 -15.333 -106.5 -46s-38.5 -73 -38.5 -127v-8c0 -54 12.833 -96.5 38.5 -127.5s61.167 -46.5 106.5 -46.5zM305 -10
c-78 0 -142.167 24.666 -192.5 73.999s-75.5 113.333 -75.5 192v8c0 80 25.333 145 76 195s115 75 193 75c77.333 0 141.333 -24.667 192 -74s76 -113.666 76 -192.999v-8c0 -80.667 -25.333 -145.667 -76 -195s-115 -74 -193 -74zM304 605.999
c-41.333 0 -75.166 13.167 -101.499 39.5s-40.833 60.833 -43.5 103.5h84c5.33301 -38.667 25.666 -58 60.999 -58c36 0 57.667 19.333 65 58h82c-2.66699 -42.667 -17.667 -77.167 -45 -103.5s-61.333 -39.5 -102 -39.5z" />
    <glyph glyph-name="Ohungarumlaut" unicode="&#x150;" horiz-adv-x="814" 
d="M272 766l38 135h118l-73 -135h-83zM442 766l38 135h118l-73 -135h-83zM410 97c67.333 0 120.834 23.5 160.501 70.5s59.5 109.5 59.5 187.5v8c0 75.333 -19.833 136.833 -59.5 184.5s-93.834 71.5 -162.501 71.5c-69.333 0 -123.833 -23.333 -163.5 -70
s-59.5 -109 -59.5 -187v-8c0 -77.333 21 -139.5 63 -186.5s96 -70.5 162 -70.5zM408.001 -10c-108 0 -195.334 34.332 -262.001 102.999s-100 155.334 -100 260.001v8c0 104.667 34 191.5 102 260.5s154.667 103.5 260 103.5c106 0 192.5 -33.833 259.5 -101.5
s100.5 -154.167 100.5 -259.5v-8c0 -106 -33.167 -193.5 -99.5 -262.5s-153.166 -103.5 -260.499 -103.5z" />
    <glyph glyph-name="ohungarumlaut" unicode="&#x151;" horiz-adv-x="611" 
d="M177 601l41 155h113l-76 -155h-78zM340 601l41 155h113l-76 -155h-78zM306 84c44.667 0 79.834 15.5 105.501 46.5s38.5 73.5 38.5 127.5v7c0 54 -12.833 96.5 -38.5 127.5s-60.834 46.5 -105.501 46.5c-45.333 0 -80.833 -15.333 -106.5 -46s-38.5 -73 -38.5 -127v-8
c0 -54 12.833 -96.5 38.5 -127.5s61.167 -46.5 106.5 -46.5zM305 -10c-78 0 -142.167 24.666 -192.5 73.999s-75.5 113.333 -75.5 192v8c0 80 25.333 145 76 195s115 75 193 75c77.333 0 141.333 -24.667 192 -74s76 -113.666 76 -192.999v-8
c0 -80.667 -25.333 -145.667 -76 -195s-115 -74 -193 -74z" />
    <glyph glyph-name="OE" unicode="&#x152;" horiz-adv-x="964" 
d="M46 359c0 108 31.501 194.333 94.501 259s155.167 97 276.5 97h493v-105h-299v-196h236v-100h-236v-209h316v-105h-512c-120.667 0 -212.334 31.5 -275.001 94.5s-94 148.167 -94 255.5v9zM478.001 610h-58c-78 0 -136.667 -21.5 -176 -64.5s-59 -104.833 -59 -185.5v-8
c0 -164.667 79 -247 237 -247h56v505z" />
    <glyph glyph-name="oe" unicode="&#x153;" horiz-adv-x="991" 
d="M305 -10c-78 0 -142.167 24.667 -192.5 74s-75.5 113.333 -75.5 192v8c0 80 25.333 145 76 195s115 75 193 75c90.667 0 158.667 -34.333 204 -103c44.667 68.667 110.667 103 198 103c70.667 0 129.667 -22 177 -66s71 -110 71 -198v-35h-384
c2 -50 15.333 -88.333 40 -115s59.667 -40 105 -40c69.333 0 109.333 26.667 120 80h116c-8.66699 -54.667 -33.834 -96.667 -75.501 -126s-96.167 -44 -163.5 -44c-93.333 0 -161.666 34 -204.999 102c-44.667 -68 -112.667 -102 -204 -102zM306 84
c44.667 0 79.834 15.667 105.501 47s38.5 73.333 38.5 126v8c0 54 -12.833 96.5 -38.5 127.5s-60.834 46.5 -105.501 46.5c-45.333 0 -80.833 -15.333 -106.5 -46s-38.5 -73 -38.5 -127v-8c0 -54 12.833 -96.5 38.5 -127.5s61.167 -46.5 106.5 -46.5zM574 316h261
c-6 86.667 -48.333 130 -127 130c-36 0 -65.833 -11.5 -89.5 -34.5s-38.5 -54.833 -44.5 -95.5z" />
    <glyph glyph-name="Racute" unicode="&#x154;" horiz-adv-x="655" 
d="M268 766l54 135h136l-99 -135h-91zM82 0v715.001h240c82 0 147 -17.333 195 -52s72 -87.334 72 -158.001v-4c0 -100.667 -53 -164.667 -159 -192l201 -309h-144l-187 289h-85v-289h-133zM215 384.001h107c90.667 0 136 38 136 114v4c0 39.333 -11.5 67.5 -34.5 84.5
s-56.833 25.5 -101.5 25.5h-107v-228z" />
    <glyph glyph-name="racute" unicode="&#x155;" horiz-adv-x="397" 
d="M166 601l59 155h134l-104 -155h-89zM72 0l-0.000976562 523h121v-98c34.667 70 91.334 105.333 170.001 106v-113c-56.667 -0.666992 -99.167 -12 -127.5 -34s-42.5 -59.333 -42.5 -112v-272h-121z" />
    <glyph glyph-name="Rcommaaccent" unicode="&#x156;" horiz-adv-x="655" 
d="M306 -225l-71 27l52 165l111 -22zM82 0v715.001h240c82 0 147 -17.333 195 -52s72 -87.334 72 -158.001v-4c0 -100.667 -53 -164.667 -159 -192l201 -309h-144l-187 289h-85v-289h-133zM215 384.001h107c90.667 0 136 38 136 114v4c0 39.333 -11.5 67.5 -34.5 84.5
s-56.833 25.5 -101.5 25.5h-107v-228z" />
    <glyph glyph-name="rcommaaccent" unicode="&#x157;" horiz-adv-x="397" 
d="M106 -225l-71 27l52 165l111 -22zM72 0l-0.000976562 523h121v-98c34.667 70 91.334 105.333 170.001 106v-113c-56.667 -0.666992 -99.167 -12 -127.5 -34s-42.5 -59.333 -42.5 -112v-272h-121z" />
    <glyph glyph-name="Rcaron" unicode="&#x158;" horiz-adv-x="655" 
d="M266 766l-108 135h88l75 -55l74 55h86l-110 -135h-105zM82 0v715.001h240c82 0 147 -17.333 195 -52s72 -87.334 72 -158.001v-4c0 -100.667 -53 -164.667 -159 -192l201 -309h-144l-187 289h-85v-289h-133zM215 384.001h107c90.667 0 136 38 136 114v4
c0 39.333 -11.5 67.5 -34.5 84.5s-56.833 25.5 -101.5 25.5h-107v-228z" />
    <glyph glyph-name="rcaron" unicode="&#x159;" horiz-adv-x="397" 
d="M167 602l-112 151h87l75 -67l75 67h84l-113 -151h-96zM72 0l-0.000976562 523h121v-98c34.667 70 91.334 105.333 170.001 106v-113c-56.667 -0.666992 -99.167 -12 -127.5 -34s-42.5 -59.333 -42.5 -112v-272h-121z" />
    <glyph glyph-name="Sacute" unicode="&#x15a;" horiz-adv-x="635" 
d="M325 -10c-93.333 0 -163.17 20.6689 -209.503 62.002s-72.166 98 -77.499 170h128c5.33301 -42 19.333 -74.5 42 -97.5s61.667 -34.5 117 -34.5c40 0 72.5 10.167 97.5 30.5s37.5 46.833 37.5 79.5c0 33.333 -10.333 57.666 -31 72.999s-60 27.666 -118 36.999
c-88.667 12 -152.834 33.5 -192.501 64.5s-59.5 79.167 -59.5 144.5c0 59.333 23 108.333 69 147s106 58 180 58c77.333 0 138.333 -17.5 183 -52.5s70.334 -86.5 77.001 -154.5h-122c-6.66699 37.333 -21 64.5 -43 81.5s-53.667 25.5 -95 25.5
c-39.333 0 -69.666 -8.5 -90.999 -25.5s-32 -39.833 -32 -68.5c0 -30.667 9.83301 -53.667 29.5 -69s59.167 -27.333 118.5 -36c88.667 -12 153.334 -33.5 194.001 -64.5s61 -80.833 61 -149.5c0 -63.333 -24.333 -116 -73 -158s-112 -63 -190 -63zM256.996 766.002l54 135
h136l-99 -135h-91z" />
    <glyph glyph-name="sacute" unicode="&#x15b;" horiz-adv-x="494" 
d="M195 601l59 155h134l-104 -155h-89zM251 -10c-67.333 0 -119.999 14.999 -157.999 44.999s-58.333 72.667 -61 128h114c3.33301 -28 13 -49 29 -63s41 -21 75 -21c62.667 0 94 22.333 94 67c0 20.667 -8.5 36.167 -25.5 46.5s-45.833 18.833 -86.5 25.5
c-70 11.333 -119 28.5 -147 51.5s-42 58.833 -42 107.5c0 49.333 19.333 87.833 58 115.5s84.667 41.5 138 41.5c125.333 0 193.666 -52.667 204.999 -158h-112c-5.33301 24 -15.166 41.667 -29.499 53s-35.5 17 -63.5 17c-26 0 -46.333 -5.66699 -61 -17
s-22 -26.333 -22 -45s7.66699 -32.667 23 -42s43.666 -17.666 84.999 -24.999c68 -10.667 117.667 -27 149 -49s47 -59 47 -111c0 -53.333 -18.167 -94.5 -54.5 -123.5s-87.833 -43.5 -154.5 -43.5z" />
    <glyph glyph-name="Scircumflex" unicode="&#x15c;" horiz-adv-x="635" 
d="M147 766l111 135h104l108 -135h-88l-74 55l-75 -55h-86zM325 -10c-93.333 0 -163.17 20.6689 -209.503 62.002s-72.166 98 -77.499 170h128c5.33301 -42 19.333 -74.5 42 -97.5s61.667 -34.5 117 -34.5c40 0 72.5 10.167 97.5 30.5s37.5 46.833 37.5 79.5
c0 33.333 -10.333 57.666 -31 72.999s-60 27.666 -118 36.999c-88.667 12 -152.834 33.5 -192.501 64.5s-59.5 79.167 -59.5 144.5c0 59.333 23 108.333 69 147s106 58 180 58c77.333 0 138.333 -17.5 183 -52.5s70.334 -86.5 77.001 -154.5h-122
c-6.66699 37.333 -21 64.5 -43 81.5s-53.667 25.5 -95 25.5c-39.333 0 -69.666 -8.5 -90.999 -25.5s-32 -39.833 -32 -68.5c0 -30.667 9.83301 -53.667 29.5 -69s59.167 -27.333 118.5 -36c88.667 -12 153.334 -33.5 194.001 -64.5s61 -80.833 61 -149.5
c0 -63.333 -24.333 -116 -73 -158s-112 -63 -190 -63z" />
    <glyph glyph-name="scircumflex" unicode="&#x15d;" horiz-adv-x="494" 
d="M83 602l114 151h96l111 -151h-86l-75 68l-76 -68h-84zM251 -10c-67.333 0 -119.999 14.999 -157.999 44.999s-58.333 72.667 -61 128h114c3.33301 -28 13 -49 29 -63s41 -21 75 -21c62.667 0 94 22.333 94 67c0 20.667 -8.5 36.167 -25.5 46.5s-45.833 18.833 -86.5 25.5
c-70 11.333 -119 28.5 -147 51.5s-42 58.833 -42 107.5c0 49.333 19.333 87.833 58 115.5s84.667 41.5 138 41.5c125.333 0 193.666 -52.667 204.999 -158h-112c-5.33301 24 -15.166 41.667 -29.499 53s-35.5 17 -63.5 17c-26 0 -46.333 -5.66699 -61 -17
s-22 -26.333 -22 -45s7.66699 -32.667 23 -42s43.666 -17.666 84.999 -24.999c68 -10.667 117.667 -27 149 -49s47 -59 47 -111c0 -53.333 -18.167 -94.5 -54.5 -123.5s-87.833 -43.5 -154.5 -43.5z" />
    <glyph glyph-name="Scedilla" unicode="&#x15e;" horiz-adv-x="635" 
d="M295 -219c-31.333 0 -56.6699 7.83496 -76.0029 23.502s-30.666 37.167 -33.999 64.5h66c4 -22 17.333 -33 40 -33c11.333 0 20.333 3.16699 27 9.5s10 14.5 10 24.5c0 9.33301 -3.16699 17 -9.5 23s-14.833 9 -25.5 9c-11.333 0 -21.333 -3 -30 -9l-34 32l40 68
c-74 8 -129.833 32.167 -167.5 72.5s-58.834 92.5 -63.501 156.5h128c5.33301 -42 19.333 -74.5 42 -97.5s61.667 -34.5 117 -34.5c40 0 72.5 10.167 97.5 30.5s37.5 46.833 37.5 79.5c0 33.333 -10.333 57.666 -31 72.999s-60 27.666 -118 36.999
c-88.667 12 -152.834 33.5 -192.501 64.5s-59.5 79.167 -59.5 144.5c0 59.333 23 108.333 69 147s106 58 180 58c77.333 0 138.333 -17.5 183 -52.5s70.334 -86.5 77.001 -154.5h-122c-6.66699 37.333 -21 64.5 -43 81.5s-53.667 25.5 -95 25.5
c-39.333 0 -69.666 -8.5 -90.999 -25.5s-32 -39.833 -32 -68.5c0 -30.667 9.83301 -53.667 29.5 -69s59.167 -27.333 118.5 -36c88.667 -12 153.334 -33.5 194.001 -64.5s61 -80.833 61 -149.5c0 -62.667 -24.167 -115 -72.5 -157s-111.166 -63.333 -188.499 -64l-23 -40
c27.333 3.33301 50.833 -2.16699 70.5 -16.5s29.5 -36.5 29.5 -66.5c0 -27.333 -10.167 -48.5 -30.5 -63.5s-46.5 -22.5 -78.5 -22.5z" />
    <glyph glyph-name="scedilla" unicode="&#x15f;" horiz-adv-x="494" 
d="M232 -219c-31.333 0 -56.667 7.83203 -76 23.499s-30.666 37.167 -33.999 64.5h66c4 -22 17.333 -33 40 -33c11.333 0 20.333 3.16699 27 9.5s10 14.5 10 24.5c0 9.33301 -3.16699 17 -9.5 23s-14.833 9 -25.5 9c-11.333 0 -21.333 -3 -30 -9l-34 32l39 68
c-53.333 6 -95 23.667 -125 53s-46 68.333 -48 117h114c3.33301 -28 13 -49 29 -63s41 -21 75 -21c62.667 0 94 22.333 94 67c0 20.667 -8.5 36.167 -25.5 46.5s-45.833 18.833 -86.5 25.5c-70 11.333 -119 28.5 -147 51.5s-42 58.833 -42 107.5
c0 49.333 19.333 87.833 58 115.5s84.667 41.5 138 41.5c125.333 0 193.666 -52.667 204.999 -158h-112c-5.33301 24 -15.166 41.667 -29.499 53s-35.5 17 -63.5 17c-26 0 -46.333 -5.66699 -61 -17s-22 -26.333 -22 -45s7.66699 -32.667 23 -42
s43.666 -17.666 84.999 -24.999c68 -10.667 117.667 -27 149 -49s47 -59 47 -111c0 -51.333 -17 -91.5 -51 -120.5s-82.333 -44.5 -145 -46.5l-23 -40c27.333 3.33301 50.833 -2.16699 70.5 -16.5s29.5 -36.5 29.5 -66.5c0 -27.333 -10.167 -48.5 -30.5 -63.5
s-46.5 -22.5 -78.5 -22.5z" />
    <glyph glyph-name="Scaron" unicode="&#x160;" horiz-adv-x="635" 
d="M255 766l-108 135h88l75 -55l74 55h86l-110 -135h-105zM325 -10c-93.333 0 -163.17 20.6689 -209.503 62.002s-72.166 98 -77.499 170h128c5.33301 -42 19.333 -74.5 42 -97.5s61.667 -34.5 117 -34.5c40 0 72.5 10.167 97.5 30.5s37.5 46.833 37.5 79.5
c0 33.333 -10.333 57.666 -31 72.999s-60 27.666 -118 36.999c-88.667 12 -152.834 33.5 -192.501 64.5s-59.5 79.167 -59.5 144.5c0 59.333 23 108.333 69 147s106 58 180 58c77.333 0 138.333 -17.5 183 -52.5s70.334 -86.5 77.001 -154.5h-122
c-6.66699 37.333 -21 64.5 -43 81.5s-53.667 25.5 -95 25.5c-39.333 0 -69.666 -8.5 -90.999 -25.5s-32 -39.833 -32 -68.5c0 -30.667 9.83301 -53.667 29.5 -69s59.167 -27.333 118.5 -36c88.667 -12 153.334 -33.5 194.001 -64.5s61 -80.833 61 -149.5
c0 -63.333 -24.333 -116 -73 -158s-112 -63 -190 -63z" />
    <glyph glyph-name="scaron" unicode="&#x161;" horiz-adv-x="494" 
d="M194 602l-112 151h87l75 -67l75 67h84l-113 -151h-96zM251 -10c-67.333 0 -119.999 14.999 -157.999 44.999s-58.333 72.667 -61 128h114c3.33301 -28 13 -49 29 -63s41 -21 75 -21c62.667 0 94 22.333 94 67c0 20.667 -8.5 36.167 -25.5 46.5s-45.833 18.833 -86.5 25.5
c-70 11.333 -119 28.5 -147 51.5s-42 58.833 -42 107.5c0 49.333 19.333 87.833 58 115.5s84.667 41.5 138 41.5c125.333 0 193.666 -52.667 204.999 -158h-112c-5.33301 24 -15.166 41.667 -29.499 53s-35.5 17 -63.5 17c-26 0 -46.333 -5.66699 -61 -17
s-22 -26.333 -22 -45s7.66699 -32.667 23 -42s43.666 -17.666 84.999 -24.999c68 -10.667 117.667 -27 149 -49s47 -59 47 -111c0 -53.333 -18.167 -94.5 -54.5 -123.5s-87.833 -43.5 -154.5 -43.5z" />
    <glyph glyph-name="Tcommaaccent" unicode="&#x162;" horiz-adv-x="584" 
d="M265 -225l-71 27l52 165l111 -22zM225 0v610h-199v105h532v-105h-199v-610h-134z" />
    <glyph glyph-name="tcommaaccent" unicode="&#x163;" horiz-adv-x="369" 
d="M173 -225l-71 27l52 165l111 -22zM250 -9c-51.333 0 -90.501 13.333 -117.501 40s-40.5 65 -40.5 115v286h-70v91h70v115h121v-115h115v-91h-115v-275c0 -44.667 20 -67 60 -67c23.333 0 43 3.33301 59 10v-96c-23.333 -8.66699 -50.666 -13 -81.999 -13z" />
    <glyph glyph-name="Tcaron" unicode="&#x164;" horiz-adv-x="583" 
d="M237 766l-108 135h88l75 -55l74 55h86l-110 -135h-105zM225 0v610h-199v105h532v-105h-199v-610h-134z" />
    <glyph glyph-name="tcaron" unicode="&#x165;" horiz-adv-x="369" 
d="M275 590l10 175h110l-49 -175h-71zM250 -9c-51.333 0 -90.501 13.333 -117.501 40s-40.5 65 -40.5 115v286h-70v91h70v115h121v-115h115v-91h-115v-275c0 -44.667 20 -67 60 -67c23.333 0 43 3.33301 59 10v-96c-23.333 -8.66699 -50.666 -13 -81.999 -13z" />
    <glyph glyph-name="Tbar" unicode="&#x166;" horiz-adv-x="583" 
d="M87 315v90h138v205h-199v105h532v-105h-199v-205h137v-90h-137v-315h-134v315h-138z" />
    <glyph glyph-name="tbar" unicode="&#x167;" horiz-adv-x="369" 
d="M22 261l-0.000976562 75h70v97h-70v90h70v115h121v-115h114v-90h-114v-97h114v-75h-114v-104c0 -45.333 20 -68 60 -68c21.333 0 41 3.66699 59 11v-96c-27.333 -8.66699 -54.666 -13 -81.999 -13c-51.333 0 -90.5 13.333 -117.5 40s-40.5 65 -40.5 115v115h-70z" />
    <glyph glyph-name="Utilde" unicode="&#x168;" horiz-adv-x="723" 
d="M357 -10c-90 0 -159.333 24.168 -208 72.501s-73 118.166 -73 209.499v443h134v-433c0 -66 11.5 -113.333 34.5 -142s60.833 -43 113.5 -43c53.333 0 92.5 14.5 117.5 43.5s37.5 79.167 37.5 150.5v424h134v-435c0 -94 -24.833 -165.833 -74.5 -215.5
s-121.5 -74.5 -215.5 -74.5zM418 768.001c-17.333 0 -38.334 6.5 -63.001 19.5s-41 19.5 -49 19.5c-8.66699 0 -16.5 -3.83301 -23.5 -11.5s-11.5 -17.167 -13.5 -28.5h-76c3.33301 40.667 15.166 72.667 35.499 96s44.833 35 73.5 35c16.667 0 37.334 -6.66699 62.001 -20
s41.667 -20 51 -20c8.66699 0 16.334 3.66699 23.001 11s11 17 13 29h77c-4 -40.667 -16.167 -72.5 -36.5 -95.5s-44.833 -34.5 -73.5 -34.5z" />
    <glyph glyph-name="utilde" unicode="&#x169;" horiz-adv-x="605" 
d="M247 -10c-54.667 0 -98.333 16.332 -131 48.999s-49 82.334 -49 149.001v335h121v-321c0 -39.333 8.33301 -68.333 25 -87s42.667 -28 78 -28c34.667 0 63.667 11 87 33s35 52.667 35 92v311h121v-523h-121v82c-14 -27.333 -35.167 -49.5 -63.5 -66.5
s-62.5 -25.5 -102.5 -25.5zM360.001 605.999c-17.333 0 -38.166 6.66602 -62.499 19.999s-40.5 20 -48.5 20c-8.66699 0 -16.5 -3.83301 -23.5 -11.5s-11.5 -17.167 -13.5 -28.5h-75c4 41.333 15.667 73.5 35 96.5s43.333 34.5 72 34.5c16.667 0 37.167 -6.5 61.5 -19.5
s41.166 -19.5 50.499 -19.5c19.333 0 31.333 13.333 36 40h75c-4 -41.333 -15.833 -73.666 -35.5 -96.999s-43.5 -35 -71.5 -35z" />
    <glyph glyph-name="Umacron" unicode="&#x16a;" horiz-adv-x="723" 
d="M357 -10c-90 0 -159.333 24.168 -208 72.501s-73 118.166 -73 209.499v443h134v-433c0 -66 11.5 -113.333 34.5 -142s60.833 -43 113.5 -43c53.333 0 92.5 14.5 117.5 43.5s37.5 79.167 37.5 150.5v424h134v-435c0 -94 -24.833 -165.833 -74.5 -215.5
s-121.5 -74.5 -215.5 -74.5zM216 780.001v81h288v-81h-288z" />
    <glyph glyph-name="umacron" unicode="&#x16b;" horiz-adv-x="605" 
d="M247 -10c-54.667 0 -98.333 16.332 -131 48.999s-49 82.334 -49 149.001v335h121v-321c0 -39.333 8.33301 -68.333 25 -87s42.667 -28 78 -28c34.667 0 63.667 11 87 33s35 52.667 35 92v311h121v-523h-121v82c-14 -27.333 -35.167 -49.5 -63.5 -66.5
s-62.5 -25.5 -102.5 -25.5zM162.001 633.999v78h280v-78h-280z" />
    <glyph glyph-name="Ubreve" unicode="&#x16c;" horiz-adv-x="723" 
d="M357 -10c-90 0 -159.333 24.168 -208 72.501s-73 118.166 -73 209.499v443h134v-433c0 -66 11.5 -113.333 34.5 -142s60.833 -43 113.5 -43c53.333 0 92.5 14.5 117.5 43.5s37.5 79.167 37.5 150.5v424h134v-435c0 -94 -24.833 -165.833 -74.5 -215.5
s-121.5 -74.5 -215.5 -74.5zM359 761.001c-41.333 0 -75.333 13 -102 39s-41 59.667 -43 101h85c5.33301 -37.333 25.333 -56 60 -56c35.333 0 56.333 18.667 63 56h84c-2.66699 -41.333 -17.667 -75 -45 -101s-61.333 -39 -102 -39z" />
    <glyph glyph-name="ubreve" unicode="&#x16d;" horiz-adv-x="605" 
d="M247 -10c-54.667 0 -98.333 16.332 -131 48.999s-49 82.334 -49 149.001v335h121v-321c0 -39.333 8.33301 -68.333 25 -87s42.667 -28 78 -28c34.667 0 63.667 11 87 33s35 52.667 35 92v311h121v-523h-121v82c-14 -27.333 -35.167 -49.5 -63.5 -66.5
s-62.5 -25.5 -102.5 -25.5zM301.001 605.999c-41.333 0 -75.166 13.167 -101.499 39.5s-40.833 60.833 -43.5 103.5h84c5.33301 -38.667 25.666 -58 60.999 -58c36 0 57.667 19.333 65 58h82c-2.66699 -42.667 -17.667 -77.167 -45 -103.5s-61.333 -39.5 -102 -39.5z" />
    <glyph glyph-name="Uring" unicode="&#x16e;" horiz-adv-x="723" 
d="M357 -10c-90 0 -159.333 24.168 -208 72.501s-73 118.166 -73 209.499v443h134v-433c0 -66 11.5 -113.333 34.5 -142s60.833 -43 113.5 -43c53.333 0 92.5 14.5 117.5 43.5s37.5 79.167 37.5 150.5v424h134v-435c0 -94 -24.833 -165.833 -74.5 -215.5
s-121.5 -74.5 -215.5 -74.5zM360 787.001c14.667 0 26.667 5.16699 36 15.5s14 23.5 14 39.5s-4.66699 29.167 -14 39.5s-21.333 15.5 -36 15.5s-26.667 -5.16699 -36 -15.5s-14 -23.5 -14 -39.5s4.66699 -29.167 14 -39.5s21.333 -15.5 36 -15.5zM360 733.001
c-30.667 0 -57 10.667 -79 32s-33 47 -33 77s11 55.667 33 77s48.333 32 79 32s57 -10.667 79 -32s33 -47 33 -77s-11 -55.667 -33 -77s-48.333 -32 -79 -32z" />
    <glyph glyph-name="uring" unicode="&#x16f;" horiz-adv-x="605" 
d="M299 616c14.667 0 26.667 5.33301 36 16s14 23.667 14 39c0 16 -4.66699 29.167 -14 39.5s-21.333 15.5 -36 15.5s-26.667 -5.16699 -36 -15.5s-14 -23.5 -14 -39.5c0 -15.333 4.66699 -28.333 14 -39s21.333 -16 36 -16zM299 563c-30.667 0 -56.834 10.667 -78.501 32
s-32.5 46.666 -32.5 75.999s10.833 54.666 32.5 75.999s47.834 32 78.501 32s56.834 -10.667 78.501 -32s32.5 -46.666 32.5 -75.999s-10.833 -54.666 -32.5 -75.999s-47.834 -32 -78.501 -32zM247 -10c-54.667 0 -98.333 16.332 -131 48.999s-49 82.334 -49 149.001v335
h121v-321c0 -39.333 8.33301 -68.333 25 -87s42.667 -28 78 -28c34.667 0 63.667 11 87 33s35 52.667 35 92v311h121v-523h-121v82c-14 -27.333 -35.167 -49.5 -63.5 -66.5s-62.5 -25.5 -102.5 -25.5z" />
    <glyph glyph-name="Uhungarumlaut" unicode="&#x170;" horiz-adv-x="723" 
d="M226 766l38 135h118l-73 -135h-83zM396 766l38 135h118l-73 -135h-83zM357 -10c-90 0 -159.333 24.168 -208 72.501s-73 118.166 -73 209.499v443h134v-433c0 -66 11.5 -113.333 34.5 -142s60.833 -43 113.5 -43c53.333 0 92.5 14.5 117.5 43.5s37.5 79.167 37.5 150.5
v424h134v-435c0 -94 -24.833 -165.833 -74.5 -215.5s-121.5 -74.5 -215.5 -74.5z" />
    <glyph glyph-name="uhungarumlaut" unicode="&#x171;" horiz-adv-x="605" 
d="M247 -10c-54.667 0 -98.333 16.332 -131 48.999s-49 82.334 -49 149.001v335h121v-321c0 -39.333 8.33301 -68.333 25 -87s42.667 -28 78 -28c34.667 0 63.667 11 87 33s35 52.667 35 92v311h121v-523h-121v82c-14 -27.333 -35.167 -49.5 -63.5 -66.5
s-62.5 -25.5 -102.5 -25.5zM174.001 600.999l41 155h113l-76 -155h-78zM337.001 600.999l41 155h113l-76 -155h-78z" />
    <glyph glyph-name="Uogonek" unicode="&#x172;" horiz-adv-x="723" 
d="M398 -182c-33.333 0 -60 7.16699 -80 21.5s-30 33.833 -30 58.5c0 35.333 21 66 63 92c-88 0.666992 -155.833 25.167 -203.5 73.5s-71.5 117.833 -71.5 208.5v443h134v-433c0 -66 11.5 -113.333 34.5 -142s60.833 -43 113.5 -43c53.333 0 92.5 14.5 117.5 43.5
s37.5 79.167 37.5 150.5v424h134v-435c0 -131.333 -47.333 -218.666 -142 -261.999c-49.333 -22.667 -80 -40.334 -92 -53.001c-11.333 -12 -17 -25.333 -17 -40c0 -22 11.667 -33 35 -33c16.667 0 31 3 43 9v-69c-20 -9.33301 -45.333 -14 -76 -14z" />
    <glyph glyph-name="uogonek" unicode="&#x173;" horiz-adv-x="605" 
d="M469 -182c-32.667 0 -58.999 7.16602 -78.999 21.499s-30 34.166 -30 59.499c0 40.667 27.333 74.334 82 101.001h-29v82c-14 -27.333 -35.167 -49.5 -63.5 -66.5s-62.5 -25.5 -102.5 -25.5c-54.667 0 -98.334 16.333 -131.001 49s-49 82.334 -49 149.001v335h121v-321
c0 -39.333 8.33301 -68.333 25 -87s42.667 -28 78 -28c34.667 0 63.667 11 87 33s35 52.667 35 92v311h121v-515c-45.333 -30.667 -68 -59 -68 -85c0 -22 11.667 -33 35 -33c16.667 0 31 3 43 9v-67c-20 -9.33301 -45 -14 -75 -14z" />
    <glyph glyph-name="Wcircumflex" unicode="&#x174;" horiz-adv-x="955" 
d="M315 766l111 135h104l108 -135h-88l-74 55l-75 -55h-86zM204 0l-178 715h136l124 -525l139 525h110l142 -528l128 528h124l-179 -715h-133l-141 521l-145 -521h-127z" />
    <glyph glyph-name="wcircumflex" unicode="&#x175;" horiz-adv-x="814" 
d="M245 602l114 151h96l111 -151h-86l-75 68l-76 -68h-84zM180 0l-160 523h129l104 -378l111 378h101l102 -378l109 378h118l-164 -523h-123l-97 352l-106 -352h-124z" />
    <glyph glyph-name="Ycircumflex" unicode="&#x176;" horiz-adv-x="629" 
d="M254 0v310l-237 405h147l161 -296l157 296h130l-224 -406v-309h-134zM155 766l111 135h104l108 -135h-88l-74 55l-75 -55h-86z" />
    <glyph glyph-name="ycircumflex" unicode="&#x177;" horiz-adv-x="553" 
d="M130 -179l95 232l-207 470h131l139 -337l128 337h118l-285 -702h-119zM118 602l114 151h96l111 -151h-86l-75 68l-76 -68h-84z" />
    <glyph glyph-name="Ydieresis" unicode="&#x178;" horiz-adv-x="629" 
d="M254 0v310l-237 405h147l161 -296l157 296h130l-224 -406v-309h-134zM211 777c-18 0 -33.5 6.33301 -46.5 19s-19.5 28 -19.5 46s6.5 33.333 19.5 46s28.5 19 46.5 19s33.5 -6.33301 46.5 -19s19.5 -28 19.5 -46s-6.5 -33.333 -19.5 -46s-28.5 -19 -46.5 -19zM422 777
c-18 0 -33.5 6.33301 -46.5 19s-19.5 28 -19.5 46s6.5 33.333 19.5 46s28.5 19 46.5 19s33.5 -6.33301 46.5 -19s19.5 -28 19.5 -46s-6.5 -33.333 -19.5 -46s-28.5 -19 -46.5 -19z" />
    <glyph glyph-name="Zacute" unicode="&#x179;" horiz-adv-x="608" 
d="M253 766l54 135h136l-99 -135h-91zM22 0v18l365 592h-328v105h516v-17l-357 -591h347v-107h-543z" />
    <glyph glyph-name="zacute" unicode="&#x17a;" horiz-adv-x="493" 
d="M202 601l59 155h134l-104 -155h-89zM17 0v14l277 413h-250v96h429v-17l-276 -409h268v-97h-448z" />
    <glyph glyph-name="Zdotaccent" unicode="&#x17b;" horiz-adv-x="608" 
d="M22 0v18l365 592h-328v105h516v-17l-357 -591h347v-107h-543zM305 775c-20 0 -36.833 6.66895 -50.5 20.002s-20.5 29.666 -20.5 48.999s6.83301 35.5 20.5 48.5s30.5 19.5 50.5 19.5c19.333 0 36 -6.66699 50 -20s21 -29.333 21 -48s-7 -34.834 -21 -48.501
s-30.667 -20.5 -50 -20.5z" />
    <glyph glyph-name="zdotaccent" unicode="&#x17c;" horiz-adv-x="493" 
d="M17 0v14l277 413h-250v96h429v-17l-276 -409h268v-97h-448zM253 611c-20 0 -36.833 6.66699 -50.5 20s-20.5 29.666 -20.5 48.999s6.83301 35.5 20.5 48.5s30.5 19.5 50.5 19.5c19.333 0 36 -6.66699 50 -20s21 -29.333 21 -48c0 -19.333 -7 -35.666 -21 -48.999
s-30.667 -20 -50 -20z" />
    <glyph glyph-name="Zcaron" unicode="&#x17d;" horiz-adv-x="608" 
d="M251 766l-108 135h88l75 -55l74 55h86l-110 -135h-105zM22 0v18l365 592h-328v105h516v-17l-357 -591h347v-107h-543z" />
    <glyph glyph-name="zcaron" unicode="&#x17e;" horiz-adv-x="493" 
d="M203 602l-112 151h87l75 -67l75 67h84l-113 -151h-96zM17 0v14l277 413h-250v96h429v-17l-276 -409h268v-97h-448z" />
    <glyph glyph-name="florin" unicode="&#x192;" horiz-adv-x="417" 
d="M27 324v90h94l21 141c16.667 112.667 79.667 169 189 169c28.667 0 52.667 -3.66699 72 -11v-95c-15.333 6.66699 -35.333 10 -60 10c-46.667 0 -74 -27.333 -82 -82l-20 -132h125v-90h-138l-75 -506h-120l75 506h-81z" />
    <glyph glyph-name="Aringacute" unicode="&#x1fa;" horiz-adv-x="703" 
d="M27 0l239 715h174l236 -715h-138l-57 177h-273l-56 -177h-125zM356 746c-30.667 0 -57 10.667 -79 32s-33 47 -33 77s11 55.667 33 77s48.333 32 79 32s57 -10.667 79 -32s33 -47 33 -77s-11 -55.667 -33 -77s-48.333 -32 -79 -32zM345 606l-106 -332h211zM309 988
l54 135h136l-99 -135h-91zM356 800c14.667 0 26.667 5.16699 36 15.5s14 23.5 14 39.5s-4.66699 29.167 -14 39.5s-21.333 15.5 -36 15.5s-26.667 -5.16699 -36 -15.5s-14 -23.5 -14 -39.5s4.66699 -29.167 14 -39.5s21.333 -15.5 36 -15.5z" />
    <glyph glyph-name="aringacute" unicode="&#x1fb;" horiz-adv-x="555" 
d="M209 -10c-51.333 0 -93.334 12.833 -126.001 38.5s-49 64.5 -49 116.5c0 57.333 24.333 99.333 73 126s113.667 40 195 40h65v27c0 36 -7.16699 62.5 -21.5 79.5s-38.833 25.5 -73.5 25.5c-60.667 0 -94 -27.333 -100 -82h-117c4.66699 58 27.5 101.333 68.5 130
s92.833 43 155.5 43c139.333 0 209 -63.667 209 -191v-343h-119v64c-37.333 -49.333 -90.666 -74 -159.999 -74zM237.999 77c38 0 69 9.5 93 28.5s36 44.833 36 77.5v52h-62c-100.667 0 -151 -28.333 -151 -85c0 -48.667 28 -73 84 -73zM279.999 629
c14.667 0 26.667 5.33301 36 16s14 23.667 14 39c0 16 -4.66699 29.167 -14 39.5s-21.333 15.5 -36 15.5s-26.667 -5.16699 -36 -15.5s-14 -23.5 -14 -39.5c0 -15.333 4.66699 -28.333 14 -39s21.333 -16 36 -16zM279.999 576c-30.667 0 -56.834 10.667 -78.501 32
s-32.5 46.666 -32.5 75.999s10.833 54.666 32.5 75.999s47.834 32 78.501 32s56.834 -10.667 78.501 -32s32.5 -46.666 32.5 -75.999s-10.833 -54.666 -32.5 -75.999s-47.834 -32 -78.501 -32zM239.999 828l54 135h136l-99 -135h-91z" />
    <glyph glyph-name="AEacute" unicode="&#x1fc;" horiz-adv-x="971" 
d="M22 0l351 715h543v-105h-312v-196h250v-100h-250v-209h329v-105h-462v183h-232l-87 -183h-130zM444 610l-159 -332h186v332h-27zM559 766l54 135h136l-99 -135h-91z" />
    <glyph glyph-name="aeacute" unicode="&#x1fd;" horiz-adv-x="891" 
d="M620 -10c-90 0 -156.333 33.334 -199 100.001c-23.333 -34 -51.166 -59.167 -83.499 -75.5s-72.833 -24.5 -121.5 -24.5c-54 0 -97.833 12.833 -131.5 38.5s-50.5 64.5 -50.5 116.5c0 58 24.167 100.667 72.5 128s112.833 41 193.5 41h68v24c0 36 -7.5 62.5 -22.5 79.5
s-39.167 25.5 -72.5 25.5c-61.333 0 -95 -27.333 -101 -82h-117c4.66699 58 27.334 101.333 68.001 130s91.667 43 153 43c81.333 0 136.666 -25.333 165.999 -76c43.333 50.667 101 76 173 76c69.333 0 126.833 -21.833 172.5 -65.5s68.5 -109.834 68.5 -198.501v-33h-372
c2 -50.667 14.5 -89.5 37.5 -116.5s56.167 -40.5 99.5 -40.5c68 0 106.667 26.667 116 80h116c-8.66699 -54.667 -33.334 -96.667 -74.001 -126s-93.667 -44 -159 -44zM239 77.001c38 0 69 9.5 93 28.5s36 44.833 36 77.5v53h-65c-99.333 0 -149 -28 -149 -84
c0 -50 28.333 -75 85 -75zM486 314.001l250 -0.000976562c-6.66699 88 -47 132 -121 132c-34.667 0 -63.5 -11.667 -86.5 -35s-37.167 -55.666 -42.5 -96.999zM404 601l59 155h134l-104 -155h-89z" />
    <glyph glyph-name="Oslashacute" unicode="&#x1fe;" horiz-adv-x="814" 
d="M84 -33l-50.001 50.999l91 98c-52.667 65.333 -79 144.333 -79 237v8c0 104.667 34 191.334 102 260.001s154.667 103 260 103c84.667 0 157.667 -22.333 219 -67l78 84l50 -50l-75 -81c59.333 -66.667 89 -148.667 89 -246v-8c0 -106 -33.333 -193.5 -100 -262.5
s-153.667 -103.5 -261 -103.5c-91.333 0 -168.666 25.333 -231.999 76zM408.999 96.999c68 0 122 23.5 162 70.5s60 109.833 60 188.5v8c0 60.667 -12.333 112 -37 154l-336 -364c40 -38 90.333 -57 151 -57zM183.999 353.999c0 -54.667 10.333 -101.667 31 -141l333 359
c-37.333 31.333 -84 47 -140 47c-70 0 -124.833 -23.333 -164.5 -70s-59.5 -109 -59.5 -187v-8zM354.999 765.999l54 135h136l-99 -135h-91z" />
    <glyph glyph-name="oslashacute" unicode="&#x1ff;" horiz-adv-x="611" 
d="M69 -38l-47 42l73 79c-38.667 47.333 -58 105 -58 173v8c0 80 25.333 145 76 195s115 75 193 75c60.667 0 113.667 -16 159 -48l67 73l47 -42l-67 -73c41.333 -48 62 -107 62 -177v-8c0 -80.667 -25.333 -145.667 -76 -195s-115 -74 -193 -74
c-63.333 0 -118 16.667 -164 50zM306 84c45.333 0 80.833 15.5 106.5 46.5s38.5 73.167 38.5 126.5v8c0 36 -6 67 -18 93l-222 -241c24 -22 55.667 -33 95 -33zM161 258c0 -32 4.66699 -61 14 -87l220 239c-25.333 20 -55 30 -89 30c-45.333 0 -80.833 -15.5 -106.5 -46.5
s-38.5 -73.5 -38.5 -127.5v-8zM254 601l59 155h134l-104 -155h-89z" />
    <glyph glyph-name="Scommaaccent" unicode="&#x218;" horiz-adv-x="636" 
d="M283 -225l-71 27l52 165l111 -22zM325 -10c-93.333 0 -163.17 20.6689 -209.503 62.002s-72.166 98 -77.499 170h128c5.33301 -42 19.333 -74.5 42 -97.5s61.667 -34.5 117 -34.5c40 0 72.5 10.167 97.5 30.5s37.5 46.833 37.5 79.5c0 33.333 -10.333 57.666 -31 72.999
s-60 27.666 -118 36.999c-88.667 12 -152.834 33.5 -192.501 64.5s-59.5 79.167 -59.5 144.5c0 59.333 23 108.333 69 147s106 58 180 58c77.333 0 138.333 -17.5 183 -52.5s70.334 -86.5 77.001 -154.5h-122c-6.66699 37.333 -21 64.5 -43 81.5s-53.667 25.5 -95 25.5
c-39.333 0 -69.666 -8.5 -90.999 -25.5s-32 -39.833 -32 -68.5c0 -30.667 9.83301 -53.667 29.5 -69s59.167 -27.333 118.5 -36c88.667 -12 153.334 -33.5 194.001 -64.5s61 -80.833 61 -149.5c0 -63.333 -24.333 -116 -73 -158s-112 -63 -190 -63z" />
    <glyph glyph-name="scommaaccent" unicode="&#x219;" horiz-adv-x="494" 
d="M218 -225l-71 27l52 165l111 -22zM251 -10c-67.333 0 -119.999 14.999 -157.999 44.999s-58.333 72.667 -61 128h114c3.33301 -28 13 -49 29 -63s41 -21 75 -21c62.667 0 94 22.333 94 67c0 20.667 -8.5 36.167 -25.5 46.5s-45.833 18.833 -86.5 25.5
c-70 11.333 -119 28.5 -147 51.5s-42 58.833 -42 107.5c0 49.333 19.333 87.833 58 115.5s84.667 41.5 138 41.5c125.333 0 193.666 -52.667 204.999 -158h-112c-5.33301 24 -15.166 41.667 -29.499 53s-35.5 17 -63.5 17c-26 0 -46.333 -5.66699 -61 -17
s-22 -26.333 -22 -45s7.66699 -32.667 23 -42s43.666 -17.666 84.999 -24.999c68 -10.667 117.667 -27 149 -49s47 -59 47 -111c0 -53.333 -18.167 -94.5 -54.5 -123.5s-87.833 -43.5 -154.5 -43.5z" />
    <glyph glyph-name="uni0237" unicode="&#x237;" horiz-adv-x="271" 
d="M3 -188v93.001c48 3.33301 72 28 72 74v544h121v-541c0 -55.333 -14.667 -97.333 -44 -126s-79 -43.334 -149 -44.001z" />
    <glyph glyph-name="circumflex" unicode="&#x2c6;" horiz-adv-x="400" 
d="M39 602l114 151h96l111 -151h-86l-75 68l-76 -68h-84z" />
    <glyph glyph-name="caron" unicode="&#x2c7;" horiz-adv-x="400" 
d="M151 602l-112 151h87l75 -67l75 67h84l-113 -151h-96z" />
    <glyph glyph-name="breve" unicode="&#x2d8;" horiz-adv-x="400" 
d="M199 606c-41.333 0 -75.166 13.167 -101.499 39.5s-40.833 60.833 -43.5 103.5h84c5.33301 -38.667 25.666 -58 60.999 -58c36 0 57.667 19.333 65 58h82c-2.66699 -42.667 -17.667 -77.167 -45 -103.5s-61.333 -39.5 -102 -39.5z" />
    <glyph glyph-name="dotaccent" unicode="&#x2d9;" horiz-adv-x="400" 
d="M200 611c-20 0 -36.833 6.66699 -50.5 20s-20.5 29.666 -20.5 48.999s6.83301 35.5 20.5 48.5s30.5 19.5 50.5 19.5c19.333 0 36 -6.66699 50 -20s21 -29.333 21 -48c0 -19.333 -7 -35.666 -21 -48.999s-30.667 -20 -50 -20z" />
    <glyph glyph-name="ring" unicode="&#x2da;" horiz-adv-x="400" 
d="M200 643c14.667 0 26.667 5.33301 36 16s14 23.667 14 39c0 16 -4.66699 29.167 -14 39.5s-21.333 15.5 -36 15.5s-26.667 -5.16699 -36 -15.5s-14 -23.5 -14 -39.5c0 -15.333 4.66699 -28.333 14 -39s21.333 -16 36 -16zM200 590c-30.667 0 -56.834 10.667 -78.501 32
s-32.5 46.666 -32.5 75.999s10.833 54.666 32.5 75.999s47.834 32 78.501 32s56.834 -10.667 78.501 -32s32.5 -46.666 32.5 -75.999s-10.833 -54.666 -32.5 -75.999s-47.834 -32 -78.501 -32z" />
    <glyph glyph-name="ogonek" unicode="&#x2db;" horiz-adv-x="400" 
d="M213 -182c-32 0 -58.167 7.00098 -78.5 21.001s-30.5 33.333 -30.5 58c0 42 27.333 76.333 82 103h82c-38.667 -26.667 -58 -52.334 -58 -77.001c0 -22 11.667 -33 35 -33c16.667 0 31 3 43 9v-67c-20 -9.33301 -45 -14 -75 -14z" />
    <glyph glyph-name="tilde" unicode="&#x2dc;" horiz-adv-x="400" 
d="M258 606c-17.333 0 -38.166 6.66602 -62.499 19.999s-40.5 20 -48.5 20c-8.66699 0 -16.5 -3.83301 -23.5 -11.5s-11.5 -17.167 -13.5 -28.5h-75c4 41.333 15.667 73.5 35 96.5s43.333 34.5 72 34.5c16.667 0 37.167 -6.5 61.5 -19.5s41.166 -19.5 50.499 -19.5
c19.333 0 31.333 13.333 36 40h75c-4 -41.333 -15.833 -73.666 -35.5 -96.999s-43.5 -35 -71.5 -35z" />
    <glyph glyph-name="hungarumlaut" unicode="&#x2dd;" horiz-adv-x="400" 
d="M80 601l41 155h113l-76 -155h-78zM243 601l41 155h113l-76 -155h-78z" />
    <glyph glyph-name="Wgrave" unicode="&#x1e80;" horiz-adv-x="955" 
d="M441 766l-98 135h136l53 -135h-91zM204 0l-178 715h136l124 -525l139 525h110l142 -528l128 528h124l-179 -715h-133l-141 521l-145 -521h-127z" />
    <glyph glyph-name="wgrave" unicode="&#x1e81;" horiz-adv-x="814" 
d="M180 0l-160 523h129l104 -378l111 378h101l102 -378l109 378h118l-164 -523h-123l-97 352l-106 -352h-124zM376 601l-104 155h134l59 -155h-89z" />
    <glyph glyph-name="Wacute" unicode="&#x1e82;" horiz-adv-x="955" 
d="M436 766l54 135h136l-99 -135h-91zM204 0l-178 715h136l124 -525l139 525h110l142 -528l128 528h124l-179 -715h-133l-141 521l-145 -521h-127z" />
    <glyph glyph-name="wacute" unicode="&#x1e83;" horiz-adv-x="814" 
d="M368 601l59 155h134l-104 -155h-89zM180 0l-160 523h129l104 -378l111 378h101l102 -378l109 378h118l-164 -523h-123l-97 352l-106 -352h-124z" />
    <glyph glyph-name="Wdieresis" unicode="&#x1e84;" horiz-adv-x="955" 
d="M374 777c-18 0 -33.5 6.33301 -46.5 19s-19.5 28 -19.5 46s6.5 33.333 19.5 46s28.5 19 46.5 19s33.5 -6.33301 46.5 -19s19.5 -28 19.5 -46s-6.5 -33.333 -19.5 -46s-28.5 -19 -46.5 -19zM585 777c-18 0 -33.5 6.33301 -46.5 19s-19.5 28 -19.5 46s6.5 33.333 19.5 46
s28.5 19 46.5 19s33.5 -6.33301 46.5 -19s19.5 -28 19.5 -46s-6.5 -33.333 -19.5 -46s-28.5 -19 -46.5 -19zM204 0l-178 715h136l124 -525l139 525h110l142 -528l128 528h124l-179 -715h-133l-141 521l-145 -521h-127z" />
    <glyph glyph-name="wdieresis" unicode="&#x1e85;" horiz-adv-x="814" 
d="M314 613c-18 0 -33.5 6.33301 -46.5 19s-19.5 28 -19.5 46c0 17.333 6.5 32.5 19.5 45.5s28.5 19.5 46.5 19.5s33.5 -6.5 46.5 -19.5s19.5 -28.167 19.5 -45.5c0 -18 -6.5 -33.333 -19.5 -46s-28.5 -19 -46.5 -19zM512 613c-18.667 0 -34.334 6.33301 -47.001 19
s-19 28 -19 46c0 17.333 6.33301 32.5 19 45.5s28.334 19.5 47.001 19.5c18 0 33.5 -6.5 46.5 -19.5s19.5 -28.167 19.5 -45.5c0 -18 -6.5 -33.333 -19.5 -46s-28.5 -19 -46.5 -19zM180 0l-160 523h129l104 -378l111 378h101l102 -378l109 378h118l-164 -523h-123l-97 352
l-106 -352h-124z" />
    <glyph glyph-name="Ygrave" unicode="&#x1ef2;" horiz-adv-x="629" 
d="M254 0v310l-237 405h147l161 -296l157 296h130l-224 -406v-309h-134zM285 766l-98 135h136l53 -135h-91z" />
    <glyph glyph-name="ygrave" unicode="&#x1ef3;" horiz-adv-x="553" 
d="M130 -179l95 232l-207 470h131l139 -337l128 337h118l-285 -702h-119zM243 601l-104 155h134l59 -155h-89z" />
    <glyph glyph-name="uni2009" unicode="&#x2009;" horiz-adv-x="101" 
 />
    <glyph glyph-name="endash" unicode="&#x2013;" horiz-adv-x="532" 
d="M45 240v84h441v-84h-441z" />
    <glyph glyph-name="emdash" unicode="&#x2014;" horiz-adv-x="909" 
d="M45 240v84h819v-84h-819z" />
    <glyph glyph-name="quoteleft" unicode="&#x2018;" horiz-adv-x="277" 
d="M146 464l-110 43l125 220l71 -31z" />
    <glyph glyph-name="quoteright" unicode="&#x2019;" horiz-adv-x="277" 
d="M116 464l-71 32l86 231l109 -43z" />
    <glyph glyph-name="quotesinglbase" unicode="&#x201a;" horiz-adv-x="276" 
d="M114 -111l-70 31l85 232l110 -43z" />
    <glyph glyph-name="quotedblleft" unicode="&#x201c;" horiz-adv-x="473" 
d="M146 464l-110 43l125 220l71 -31zM343 464l-110 43l125 220l70 -31z" />
    <glyph glyph-name="quotedblright" unicode="&#x201d;" horiz-adv-x="473" 
d="M116 464l-71 32l86 231l109 -43zM312 464l-70 32l85 231l110 -43z" />
    <glyph glyph-name="quotedblbase" unicode="&#x201e;" horiz-adv-x="473" 
d="M114 -111l-70 31l85 232l110 -43zM311 -111l-71 31l86 232l110 -43z" />
    <glyph glyph-name="dagger" unicode="&#x2020;" horiz-adv-x="386" 
d="M142 213v288h-112v90h112v124h103v-124h111v-90h-111v-288h-103z" />
    <glyph glyph-name="daggerdbl" unicode="&#x2021;" horiz-adv-x="386" 
d="M142 416v96h-112v85h112v118h103v-118h111v-85h-111v-96h111v-85h-111v-118h-103v118h-112v85h112z" />
    <glyph glyph-name="bullet" unicode="&#x2022;" horiz-adv-x="348" 
d="M174 177c-36 0 -66.333 12.333 -91 37s-37 55 -37 91c0 35.333 12.333 65.5 37 90.5s55 37.5 91 37.5c36.667 0 67.167 -12.5 91.5 -37.5s36.5 -55.167 36.5 -90.5c0 -36 -12.167 -66.333 -36.5 -91s-54.833 -37 -91.5 -37z" />
    <glyph glyph-name="ellipsis" unicode="&#x2026;" horiz-adv-x="840" 
d="M144 -7c-22 0 -40.667 7.5 -56 22.5s-23 33.5 -23 55.5s7.66699 40.667 23 56s34 23 56 23c22.667 0 41.667 -7.66699 57 -23s23 -34 23 -56s-7.66699 -40.5 -23 -55.5s-34.333 -22.5 -57 -22.5zM420 -7c-22.667 0 -41.5 7.5 -56.5 22.5s-22.5 33.5 -22.5 55.5
s7.5 40.667 22.5 56s33.833 23 56.5 23s41.667 -7.66699 57 -23s23 -34 23 -56s-7.66699 -40.5 -23 -55.5s-34.333 -22.5 -57 -22.5zM695 -7c-22 0 -40.667 7.5 -56 22.5s-23 33.5 -23 55.5s7.66699 40.667 23 56s34 23 56 23c22.667 0 41.834 -7.66699 57.501 -23
s23.5 -34 23.5 -56s-7.83301 -40.5 -23.5 -55.5s-34.834 -22.5 -57.501 -22.5z" />
    <glyph glyph-name="perthousand" unicode="&#x2030;" horiz-adv-x="1164" 
d="M201 464c22.667 0 40.5 8 53.5 24s19.5 38 19.5 66c0 27.333 -6.5 49 -19.5 65s-30.833 24 -53.5 24s-40.667 -8 -54 -24s-20 -38 -20 -66s6.66699 -49.833 20 -65.5s31.333 -23.5 54 -23.5zM201 384c-48 0 -88.499 16.001 -121.499 48.001s-49.5 72 -49.5 120
c0 48.667 16.667 89.167 50 121.5s73.666 48.5 120.999 48.5s87.5 -15.833 120.5 -47.5s49.5 -71.5 49.5 -119.5c0 -48.667 -16.333 -89.334 -49 -122.001s-73 -49 -121 -49zM122.001 0.000976562l460 715h85l-461 -715h-84zM581.001 70.001c22.667 0 40.5 8 53.5 24
s19.5 38 19.5 66c0 27.333 -6.5 49 -19.5 65s-30.833 24 -53.5 24c-22 0 -39.667 -8 -53 -24s-20 -38 -20 -66s6.5 -49.833 19.5 -65.5s30.833 -23.5 53.5 -23.5zM581.001 -9.99902c-48 0 -88.333 16.001 -121 48.001s-49 72 -49 120c0 48.667 16.5 89.167 49.5 121.5
s73.167 48.5 120.5 48.5s87.5 -15.833 120.5 -47.5s49.5 -71.5 49.5 -119.5c0 -48.667 -16.333 -89.334 -49 -122.001s-73 -49 -121 -49zM963.001 70.002c23.333 0 41.5 8 54.5 24s19.5 38 19.5 66c0 27.333 -6.66699 49 -20 65s-31.333 24 -54 24c-22 0 -39.667 -8 -53 -24
s-20 -38 -20 -66s6.5 -49.833 19.5 -65.5s30.833 -23.5 53.5 -23.5zM963.001 -9.99805c-48 0 -88.332 16.001 -120.999 48.001s-49 72 -49 120c0 48.667 16.5 89.167 49.5 121.5s73.167 48.5 120.5 48.5s87.666 -15.833 120.999 -47.5s50 -71.5 50 -119.5
c0 -48.667 -16.5 -89.334 -49.5 -122.001s-73.5 -49 -121.5 -49z" />
    <glyph glyph-name="uni2032" unicode="&#x2032;" horiz-adv-x="227" 
d="M42 458l23 257h121l-58 -257h-86z" />
    <glyph glyph-name="uni2033" unicode="&#x2033;" horiz-adv-x="409" 
d="M42 458l23 257h121l-58 -257h-86zM224 458l23 257h121l-58 -257h-86z" />
    <glyph glyph-name="guilsinglleft" unicode="&#x2039;" horiz-adv-x="316" 
d="M176 78l-128 183l128 183h97l-123 -183l123 -183h-97z" />
    <glyph glyph-name="guilsinglright" unicode="&#x203a;" horiz-adv-x="316" 
d="M43 78l123 183l-123 183h97l128 -183l-128 -183h-97z" />
    <glyph glyph-name="fraction" unicode="&#x2044;" horiz-adv-x="135" 
d="M-235 0l528 715h77l-528 -715h-77z" />
    <glyph glyph-name="Euro" unicode="&#x20ac;" horiz-adv-x="692" 
d="M28 389l0.000976562 62.998h69c10.667 80.667 41 146.334 91 197.001s114.667 76 194 76c76 0 136.833 -20.333 182.5 -61s72.5 -98.667 80.5 -174h-125c-5.33301 42.667 -20 75.334 -44 98.001s-55.333 34 -94 34c-44 0 -79 -15 -105 -45s-42.333 -71.667 -49 -125h206
l-12 -63h-197v-68h184l-11 -63h-170c14 -108.667 65.667 -163 155 -163c83.333 0 131.666 48.333 144.999 145h124c-9.33301 -79.333 -37.333 -140.833 -84 -184.5s-109 -65.5 -187 -65.5c-80 0 -144.833 24.5 -194.5 73.5s-79.5 113.833 -89.5 194.5h-69v63h66v68h-66z" />
    <glyph glyph-name="trademark" unicode="&#x2122;" horiz-adv-x="733" 
d="M342 393v322h97l78 -199l77 199h98v-322h-76v224l-91 -224h-25l-91 224v-224h-67zM124 393v262h-92v60h260v-60h-92v-262h-76z" />
    <glyph glyph-name="onethird" unicode="&#x2153;" horiz-adv-x="758" 
d="M584 -6c-47.333 0 -83.166 10.832 -107.499 32.499s-37.166 50.834 -38.499 87.501h83c3.33301 -35.333 22.666 -53 57.999 -53c36 0 54 15.333 54 46s-18 46 -54 46h-28v57h27c34.667 0 52 14.333 52 43c0 27.333 -15 41 -45 41c-32 0 -50 -16.333 -54 -49h-83
c2.66699 34.667 16.167 62.5 40.5 83.5s57.166 31.5 98.499 31.5c40.667 0 72.667 -8.83301 96 -26.5s35 -41.167 35 -70.5c0 -38 -20.333 -63.667 -61 -77c21.333 -4 38.333 -13.167 51 -27.5s19 -32.5 19 -54.5c0 -34 -12.5 -60.833 -37.5 -80.5
s-60.167 -29.5 -105.5 -29.5zM107 359.999v265l-82 -51v78l94 63h82v-355h-94zM50 -0.000976562l528 715h77l-528 -715h-77z" />
    <glyph glyph-name="twothirds" unicode="&#x2154;" horiz-adv-x="800" 
d="M626 -6c-47.333 0 -83.166 10.832 -107.499 32.499s-37.166 50.834 -38.499 87.501h83c3.33301 -35.333 22.666 -53 57.999 -53c36 0 54 15.333 54 46s-18 46 -54 46h-28v57h27c34.667 0 52 14.333 52 43c0 27.333 -15 41 -45 41c-32 0 -50 -16.333 -54 -49h-83
c2.66699 34.667 16.167 62.5 40.5 83.5s57.166 31.5 98.499 31.5c40.667 0 72.667 -8.83301 96 -26.5s35 -41.167 35 -70.5c0 -38 -20.333 -63.667 -61 -77c21.333 -4 38.333 -13.167 51 -27.5s19 -32.5 19 -54.5c0 -34 -12.5 -60.833 -37.5 -80.5
s-60.167 -29.5 -105.5 -29.5zM10 359.999l0.000976562 13l128 135c39.333 40.667 59 73.667 59 99c0 28.667 -14 43 -42 43c-30 0 -47.333 -20.333 -52 -61h-85c2 42 15.5 74.333 40.5 97s58.5 34 100.5 34c41.333 0 73.166 -10 95.499 -30s33.5 -46.333 33.5 -79
c0 -39.333 -23.333 -81.333 -70 -126l-58 -57h131v-68h-281zM106.001 -0.000976562l528 715h77l-528 -715h-77z" />
    <glyph glyph-name="oneeighth" unicode="&#x215b;" horiz-adv-x="751" 
d="M577 -6c-44 0 -79.333 9.16699 -106 27.5s-40 44.5 -40 78.5c0 44 21.667 73.333 65 88c-34 14 -51 38.667 -51 74c0 30 12.833 53.833 38.5 71.5s57.167 26.5 94.5 26.5c38 0 69.333 -8.83301 94 -26.5s37 -41.5 37 -71.5c0 -34.667 -17.333 -59 -52 -73
c44 -15.333 66 -44.333 66 -87c0 -34 -13.333 -60.5 -40 -79.5s-62 -28.5 -106 -28.5zM577 59c16 0 29 4.5 39 13.5s15 21.5 15 37.5c0 15.333 -5 27.333 -15 36s-23 13 -39 13c-15.333 0 -28.166 -4.5 -38.499 -13.5s-15.5 -21.167 -15.5 -36.5s5.16699 -27.5 15.5 -36.5
s23.166 -13.5 38.499 -13.5zM578 212c13.333 0 24.333 4 33 12s13 18.333 13 31s-4.5 22.834 -13.5 30.501s-19.833 11.5 -32.5 11.5c-13.333 0 -24.5 -3.83301 -33.5 -11.5s-13.5 -18.167 -13.5 -31.5c0 -12.667 4.66699 -22.834 14 -30.501s20.333 -11.5 33 -11.5z
M107 360v265l-82 -51v78l94 63h82v-355h-94zM47 0l528 715h77l-528 -715h-77z" />
    <glyph glyph-name="threeeighths" unicode="&#x215c;" horiz-adv-x="785" 
d="M611 -6c-44 0 -79.333 9.16699 -106 27.5s-40 44.5 -40 78.5c0 44 21.667 73.333 65 88c-34 14 -51 38.667 -51 74c0 30 12.833 53.833 38.5 71.5s57.167 26.5 94.5 26.5c38 0 69.333 -8.83301 94 -26.5s37 -41.5 37 -71.5c0 -34.667 -17.333 -59 -52 -73
c44 -15.333 66 -44.333 66 -87c0 -34 -13.333 -60.5 -40 -79.5s-62 -28.5 -106 -28.5zM611 59c16 0 29 4.5 39 13.5s15 21.5 15 37.5c0 15.333 -5 27.333 -15 36s-23 13 -39 13c-15.333 0 -28.166 -4.5 -38.499 -13.5s-15.5 -21.167 -15.5 -36.5s5.16699 -27.5 15.5 -36.5
s23.166 -13.5 38.499 -13.5zM612 212c13.333 0 24.333 4 33 12s13 18.333 13 31s-4.5 22.834 -13.5 30.501s-19.833 11.5 -32.5 11.5c-13.333 0 -24.5 -3.83301 -33.5 -11.5s-13.5 -18.167 -13.5 -31.5c0 -12.667 4.66699 -22.834 14 -30.501s20.333 -11.5 33 -11.5zM92 0
l528 715h77l-528 -715h-77zM169 354c-47.333 0 -83.165 10.8311 -107.498 32.498s-37.166 50.834 -38.499 87.501h83c3.33301 -36 22.666 -54 57.999 -54c36 0 54 15.667 54 47c0 30 -18 45 -54 45h-28v58h27c34.667 0 52 14.333 52 43c0 26.667 -15 40 -45 40
c-14.667 0 -26.834 -4.16699 -36.501 -12.5s-15.5 -20.166 -17.5 -35.499h-83c2.66699 34 16.167 61.667 40.5 83s57.166 32 98.499 32c40.667 0 72.667 -8.83301 96 -26.5s35 -41.167 35 -70.5c0 -38 -20.333 -63.667 -61 -77c21.333 -4 38.333 -13.167 51 -27.5
s19 -32.5 19 -54.5c0 -34 -12.5 -60.833 -37.5 -80.5s-60.167 -29.5 -105.5 -29.5z" />
    <glyph glyph-name="fiveeighths" unicode="&#x215d;" horiz-adv-x="775" 
d="M602 -6c-44 0 -79.333 9.16699 -106 27.5s-40 44.5 -40 78.5c0 44 21.667 73.333 65 88c-34 14 -51 38.667 -51 74c0 30 12.833 53.833 38.5 71.5s57.167 26.5 94.5 26.5c38 0 69.333 -8.83301 94 -26.5s37 -41.5 37 -71.5c0 -34.667 -17.333 -59 -52 -73
c44 -15.333 66 -44.333 66 -87c0 -34 -13.333 -60.5 -40 -79.5s-62 -28.5 -106 -28.5zM602 59c16 0 29 4.5 39 13.5s15 21.5 15 37.5c0 15.333 -5 27.333 -15 36s-23 13 -39 13c-15.333 0 -28.166 -4.5 -38.499 -13.5s-15.5 -21.167 -15.5 -36.5s5.16699 -27.5 15.5 -36.5
s23.166 -13.5 38.499 -13.5zM603 212c13.333 0 24.333 4 33 12s13 18.333 13 31s-4.5 22.834 -13.5 30.501s-19.833 11.5 -32.5 11.5c-13.333 0 -24.5 -3.83301 -33.5 -11.5s-13.5 -18.167 -13.5 -31.5c0 -12.667 4.66699 -22.834 14 -30.501s20.333 -11.5 33 -11.5z
M162 354c-44.667 0 -78.668 10.334 -102.001 31.001s-35.666 48 -36.999 82h86c4.66699 -29.333 21.667 -44 51 -44c16 0 28.333 5.16699 37 15.5s13 24.166 13 41.499s-4.5 30.833 -13.5 40.5s-21.5 14.5 -37.5 14.5c-26 0 -45.667 -9 -59 -27h-62l7 207h238v-68h-171
l-2 -87c19.333 24.667 47.333 37 84 37c33.333 0 60 -10.333 80 -31s30 -49 30 -85c0 -39.333 -12.833 -70.333 -38.5 -93s-60.167 -34 -103.5 -34zM81.999 0.000976562l528 715h77l-528 -715h-77z" />
    <glyph glyph-name="seveneighths" unicode="&#x215e;" horiz-adv-x="746" 
d="M573 -6c-44 0 -79.333 9.16699 -106 27.5s-40 44.5 -40 78.5c0 44 21.667 73.333 65 88c-34 14 -51 38.667 -51 74c0 30 12.833 53.833 38.5 71.5s57.167 26.5 94.5 26.5c38 0 69.333 -8.83301 94 -26.5s37 -41.5 37 -71.5c0 -34.667 -17.333 -59 -52 -73
c44 -15.333 66 -44.333 66 -87c0 -34 -13.333 -60.5 -40 -79.5s-62 -28.5 -106 -28.5zM573 59c16 0 29 4.5 39 13.5s15 21.5 15 37.5c0 15.333 -5 27.333 -15 36s-23 13 -39 13c-15.333 0 -28.166 -4.5 -38.499 -13.5s-15.5 -21.167 -15.5 -36.5s5.16699 -27.5 15.5 -36.5
s23.166 -13.5 38.499 -13.5zM574 212c13.333 0 24.333 4 33 12s13 18.333 13 31s-4.5 22.834 -13.5 30.501s-19.833 11.5 -32.5 11.5c-13.333 0 -24.5 -3.83301 -33.5 -11.5s-13.5 -18.167 -13.5 -31.5c0 -12.667 4.66699 -22.834 14 -30.501s20.333 -11.5 33 -11.5zM68 360
l106 281h-153v74h270v-10l-129 -345h-94zM34 0l528 715h77l-528 -715h-77z" />
    <glyph glyph-name="minus" unicode="&#x2212;" horiz-adv-x="540" 
d="M37 293v96h467v-96h-467z" />
    <glyph glyph-name="approxequal" unicode="&#x2248;" horiz-adv-x="530" 
d="M41 148c4 47.333 17.167 82.832 39.5 106.499s49.833 35.5 82.5 35.5c28 0 64.833 -7 110.5 -21s75.834 -21 90.501 -21c12 0 22.167 3.83301 30.5 11.5s13.166 18.834 14.499 33.501h79c-2.66699 -46 -15.167 -81.167 -37.5 -105.5s-49.5 -36.5 -81.5 -36.5
c-29.333 0 -66.833 7.16699 -112.5 21.5s-75.834 21.5 -90.501 21.5c-25.333 0 -40.666 -15.333 -45.999 -46h-79zM41 341.999c4 47.333 17.167 82.832 39.5 106.499s49.833 35.5 82.5 35.5c28 0 64.833 -7 110.5 -21s75.834 -21 90.501 -21c12 0 22.167 3.83301 30.5 11.5
s13.166 18.834 14.499 33.501h79c-2.66699 -46 -15.167 -81.167 -37.5 -105.5s-49.5 -36.5 -81.5 -36.5c-29.333 0 -66.833 7.16699 -112.5 21.5s-75.834 21.5 -90.501 21.5c-25.333 0 -40.666 -15.333 -45.999 -46h-79z" />
    <glyph glyph-name="notequal" unicode="&#x2260;" horiz-adv-x="513" 
d="M39 371v92h227l39 100h91l-39 -100h116v-92h-152l-36 -95h188v-91h-223l-39 -101h-91l39 101h-120v91h155l36 95h-191z" />
    <glyph glyph-name="lessequal" unicode="&#x2264;" horiz-adv-x="507" 
d="M447 128l-398 213v26l398 213v-111l-223 -114l223 -115v-112zM49 0v89h398v-89h-398z" />
    <glyph glyph-name="greaterequal" unicode="&#x2265;" horiz-adv-x="507" 
d="M60 128v112l223 115l-223 114v111l399 -213v-26zM60 0v89h399v-89h-399z" />
    <glyph glyph-name="uni24C5" unicode="&#x24c5;" horiz-adv-x="843" 
d="M294 160l-0.000976562 399h140c50 0 88.333 -10.833 115 -32.5s40 -53.5 40 -95.5v-3c0 -41.333 -13.167 -72.5 -39.5 -93.5s-63.166 -31.5 -110.499 -31.5h-49v-143h-96zM389.999 369h42c44 0 66 19.667 66 59v3c0 36.667 -22 55 -66 55h-42v-117zM420.999 32
c88 0 163.5 30.832 226.5 92.499s94.5 139.834 94.5 234.501c0 94 -30.833 171.5 -92.5 232.5s-137.167 91.5 -226.5 91.5c-90 0 -166 -30.667 -228 -92s-93 -139.333 -93 -234s31.333 -172.5 94 -233.5s137.667 -91.5 225 -91.5zM420.999 -13.001
c-104 0 -192.167 35.498 -264.5 106.498s-108.5 158.833 -108.5 263.5c0 103.333 36.333 191 109 263s161.334 108 266.001 108c105.333 0 193.833 -35.667 265.5 -107s107.5 -158.666 107.5 -261.999c0 -105.333 -36.333 -193.666 -109 -264.999
s-161.334 -107 -266.001 -107z" />
    <glyph glyph-name="f_i" unicode="&#xfb01;" horiz-adv-x="628" 
d="M431 0v523h121v-523h-121zM490 609c-20 0 -37 6.66699 -51 20s-21 29.666 -21 48.999c0 20 7 36.667 21 50s31 20 51 20s37 -6.66699 51 -20s21 -30 21 -50c0 -19.333 -7 -35.666 -21 -48.999s-31 -20 -51 -20zM93 0v432.001h-71v91h71v70
c0 57.333 15 101.166 45 131.499s73 45.5 129 45.5c24.667 0 46.667 -3 66 -9v-94c-12.667 5.33301 -29.667 8 -51 8c-45.333 0 -68 -25.667 -68 -77v-75h119v-91h-119v-432h-121z" />
    <glyph glyph-name="f_l" unicode="&#xfb02;" horiz-adv-x="628" 
d="M93 0v432.001h-71v91h71v70c0 57.333 15 101.166 45 131.499s73 45.5 129 45.5c24.667 0 46.667 -3 66 -9v-94c-12.667 5.33301 -29.667 8 -51 8c-45.333 0 -68 -25.667 -68 -77v-75h119v-91h-119v-432h-121zM431 0.000976562v765h121v-765h-121z" />
    <glyph glyph-name=".null" horiz-adv-x="0" 
 />
    <glyph glyph-name="nonmarkingreturn" horiz-adv-x="333" 
 />
    <glyph glyph-name="space_uni0326" horiz-adv-x="400" 
d="M186 -225l-71 27l52 165l111 -22z" />
    <glyph glyph-name="caron.alt" horiz-adv-x="400" 
d="M170 590l10 175h110l-49 -175h-71z" />
    <glyph glyph-name="space_uni0326.alt" horiz-adv-x="400" 
d="M248 588l-111 22l92 169l70 -26z" />
    <glyph glyph-name="grave.uc" horiz-adv-x="400" 
d="M163 766l-98 135h136l53 -135h-91z" />
    <glyph glyph-name="dieresis.uc" horiz-adv-x="400" 
d="M94 777c-18 0 -33.5 6.33301 -46.5 19s-19.5 28 -19.5 46s6.5 33.333 19.5 46s28.5 19 46.5 19s33.5 -6.33301 46.5 -19s19.5 -28 19.5 -46s-6.5 -33.333 -19.5 -46s-28.5 -19 -46.5 -19zM305 777c-18 0 -33.5 6.33301 -46.5 19s-19.5 28 -19.5 46s6.5 33.333 19.5 46
s28.5 19 46.5 19s33.5 -6.33301 46.5 -19s19.5 -28 19.5 -46s-6.5 -33.333 -19.5 -46s-28.5 -19 -46.5 -19z" />
    <glyph glyph-name="macron.uc" horiz-adv-x="400" 
d="M56 780v81h288v-81h-288z" />
    <glyph glyph-name="acute.uc" horiz-adv-x="400" 
d="M146 766l54 135h136l-99 -135h-91z" />
    <glyph glyph-name="circumflex.uc" horiz-adv-x="400" 
d="M38 766l111 135h104l108 -135h-88l-74 55l-75 -55h-86z" />
    <glyph glyph-name="caron.uc" horiz-adv-x="400" 
d="M146 766l-108 135h88l75 -55l74 55h86l-110 -135h-105z" />
    <glyph glyph-name="breve.uc" horiz-adv-x="400" 
d="M199 761c-41.333 0 -75.333 13 -102 39s-41 59.667 -43 101h85c5.33301 -37.333 25.333 -56 60 -56c35.333 0 56.333 18.667 63 56h84c-2.66699 -41.333 -17.667 -75 -45 -101s-61.333 -39 -102 -39z" />
    <glyph glyph-name="dotaccent.uc" horiz-adv-x="400" 
d="M200 775c-20 0 -36.833 6.66895 -50.5 20.002s-20.5 29.666 -20.5 48.999s6.83301 35.5 20.5 48.5s30.5 19.5 50.5 19.5c19.333 0 36 -6.66699 50 -20s21 -29.333 21 -48s-7 -34.834 -21 -48.501s-30.667 -20.5 -50 -20.5z" />
    <glyph glyph-name="ring.uc" horiz-adv-x="400" 
d="M200 807c14.667 0 26.667 5.16699 36 15.5s14 23.5 14 39.5s-4.66699 29.167 -14 39.5s-21.333 15.5 -36 15.5s-26.667 -5.16699 -36 -15.5s-14 -23.5 -14 -39.5s4.66699 -29.167 14 -39.5s21.333 -15.5 36 -15.5zM200 753c-30.667 0 -57 10.667 -79 32s-33 47 -33 77
s11 55.667 33 77s48.333 32 79 32s57 -10.667 79 -32s33 -47 33 -77s-11 -55.667 -33 -77s-48.333 -32 -79 -32z" />
    <glyph glyph-name="tilde.uc" horiz-adv-x="400" 
d="M258 768c-17.333 0 -38.334 6.5 -63.001 19.5s-41 19.5 -49 19.5c-8.66699 0 -16.5 -3.83301 -23.5 -11.5s-11.5 -17.167 -13.5 -28.5h-76c3.33301 40.667 15.166 72.667 35.499 96s44.833 35 73.5 35c16.667 0 37.334 -6.66699 62.001 -20s41.667 -20 51 -20
c8.66699 0 16.334 3.66699 23.001 11s11 17 13 29h77c-4 -40.667 -16.167 -72.5 -36.5 -95.5s-44.833 -34.5 -73.5 -34.5z" />
    <glyph glyph-name="hungarumlaut.uc" horiz-adv-x="400" 
d="M74 766l38 135h118l-73 -135h-83zM244 766l38 135h118l-73 -135h-83z" />
    <glyph glyph-name="idotaccent" horiz-adv-x="271" 
d="M134 609c-20 0 -37 6.66699 -51 20s-21 29.666 -21 48.999c0 20 7 36.667 21 50s31 20 51 20s37 -6.66699 51 -20s21 -30 21 -50c0 -19.333 -7 -35.666 -21 -48.999s-31 -20 -51 -20zM75 0v523h121v-523h-121z" />
    <glyph glyph-name="registered.alt" horiz-adv-x="843" 
d="M277 161v399h146c49.333 0 87.5 -10.167 114.5 -30.5s40.5 -50.833 40.5 -91.5v-2c0 -54 -26.667 -89.333 -80 -106l103 -169h-99l-92 152h-39v-152h-94zM371 377h48c43.333 0 65 18.333 65 55v3c0 34.667 -21.333 52 -64 52h-49v-110zM421 32
c88 0 163.5 30.832 226.5 92.499s94.5 139.834 94.5 234.501c0 94 -30.833 171.5 -92.5 232.5s-137.167 91.5 -226.5 91.5c-90 0 -166 -30.667 -228 -92s-93 -139.333 -93 -234s31.333 -172.5 94 -233.5s137.667 -91.5 225 -91.5zM421 -13.001
c-104 0 -192.167 35.498 -264.5 106.498s-108.5 158.833 -108.5 263.5c0 103.333 36.333 191 109 263s161.334 108 266.001 108c105.333 0 193.833 -35.667 265.5 -107s107.5 -158.666 107.5 -261.999c0 -105.333 -36.333 -193.666 -109 -264.999
s-161.334 -107 -266.001 -107z" />
    <glyph glyph-name="dollar.old" horiz-adv-x="621" 
d="M277 -131l-0.000976562 122.003c-148.667 10.667 -229 85 -241 223h120c4.66699 -36.667 15.5 -65.834 32.5 -87.501s46.5 -35.167 88.5 -40.5v220c-74.667 12.667 -129.667 34.167 -165 64.5s-53 75.166 -53 134.499c0 54 20 99 60 135s92.667 56.333 158 61v88h66v-89
c130.667 -12.667 202 -78 214 -196h-114c-11.333 59.333 -44.666 93.666 -99.999 102.999v-200c76.667 -12.667 133.667 -34 171 -64s56 -76 56 -138c0 -58 -20.333 -107 -61 -147s-96 -62.333 -166 -67v-122h-66zM449.999 193.003c0 28.667 -7.5 50.5 -22.5 65.5
s-43.167 26.833 -84.5 35.5v-208c32 4.66699 57.833 16.667 77.5 36s29.5 43 29.5 71zM173.999 515.003c0 -26.667 7 -47.332 21 -61.999s41.333 -26.334 82 -35.001v191c-32.667 -4 -58 -14.5 -76 -31.5s-27 -37.833 -27 -62.5z" />
    <glyph glyph-name="Euro.old" horiz-adv-x="671" 
d="M27 377l-0.000976562 60.999h68c9.33301 78.667 38.333 142.5 87 191.5s111.667 73.5 189 73.5c74 0 133 -19.667 177 -59s69.667 -95.333 77 -168h-120c-6 41.333 -20.667 73 -44 95s-53.666 33 -90.999 33c-42.667 0 -76.667 -14.667 -102 -44s-41 -70 -47 -122h200
l-12 -61h-191v-65h179l-11 -62h-165c12.667 -105.333 63 -158 151 -158c81.333 0 128.333 47 141 141h119c-8.66699 -77.333 -35.5 -137.166 -80.5 -179.499s-105.5 -63.5 -181.5 -63.5c-77.333 0 -140 23.833 -188 71.5s-77 110.5 -87 188.5h-68v62h65v65h-65z" />
    <glyph glyph-name="sterling.old" horiz-adv-x="607" 
d="M41 295l0.00292969 82.0029h58c-10 38.667 -15 77.667 -15 117c0 62.667 22.167 113 66.5 151s100.5 57 168.5 57c70.667 0 125.667 -18 165 -54s60.666 -85.667 63.999 -149h-120c-6 35.333 -17.167 61.166 -33.5 77.499s-40.833 24.5 -73.5 24.5
c-32 0 -58 -10.167 -78 -30.5s-30 -47.5 -30 -81.5c0 -34.667 4 -72 12 -112h194v-82h-177c6.66699 -34.667 10 -67.667 10 -99c0 -19.333 -4 -40 -12 -62c13.333 -3.33301 29.666 -8.5 48.999 -15.5s36.166 -12.667 50.499 -17s26.5 -6.5 36.5 -6.5
c49.333 0 75.333 24.333 78 73h113c-2.66699 -52.667 -18.834 -95.334 -48.501 -128.001s-70.167 -49 -121.5 -49c-33.333 0 -73.166 9.5 -119.499 28.5s-76.5 28.5 -90.5 28.5c-34 0 -53 -16 -57 -48h-101c2.66699 31.333 12.5 60.166 29.5 86.499s40.833 43.833 71.5 52.5
c6.66699 18 10 37 10 57c0 28.667 -5.66699 61.667 -17 99h-82z" />
    <glyph glyph-name="yen.old" horiz-adv-x="586" 
d="M73 278v61h144l-196 355h139l143 -280l138 280h124l-187 -355h146v-61h-161v-66h161v-61h-161v-151h-129v151h-161v61h161v66h-161z" />
    <glyph glyph-name="zero.old" horiz-adv-x="655" 
d="M329 90c50 0 87.832 17.501 113.499 52.501s38.5 86.167 38.5 153.5v30c0 65.333 -13.167 115.666 -39.5 150.999s-64.166 53 -113.499 53s-87.333 -17.333 -114 -52s-40 -85 -40 -151v-32c0 -66.667 13.333 -117.5 40 -152.5s65 -52.5 115 -52.5zM327.999 -9.99902
c-84.667 0 -153.002 27.5 -205.002 82.5s-78 128.5 -78 220.5v32c0 93.333 26 167.333 78 222s120.333 82 205 82s152.834 -27 204.501 -81s77.5 -127.333 77.5 -220v-31c0 -94 -25.667 -168.667 -77 -224s-119.666 -83 -204.999 -83z" />
    <glyph glyph-name="one.old" horiz-adv-x="406" 
d="M182 0v493l-148 -100v112l162 114h112v-619h-126z" />
    <glyph glyph-name="two.old" horiz-adv-x="559" 
d="M18 0l-0.000976562 22.999l242 227c41.333 40 71.5 73 90.5 99s28.5 54 28.5 84s-9.16699 53.833 -27.5 71.5s-44.166 26.5 -77.499 26.5c-71.333 0 -112.666 -44.667 -123.999 -134h-114c4.66699 70.667 28.5 127 71.5 169s100.167 63 171.5 63
c69.333 0 124.666 -17.5 165.999 -52.5s62 -80.833 62 -137.5c0 -28 -7.66699 -56.167 -23 -84.5s-32 -52.166 -50 -71.499s-45 -45.333 -81 -78l-116 -108h276v-97h-495z" />
    <glyph glyph-name="three.old" horiz-adv-x="604" 
d="M298 -105c-82 0 -145.668 20.998 -191.001 62.998s-69.666 97.667 -72.999 167h117c8 -88.667 56 -133 144 -133c45.333 0 79.333 10.833 102 32.5s34 51.5 34 89.5c0 77.333 -44.333 116 -133 116h-53v91h49c79.333 0 119 36 119 108c0 32 -9.16699 57.167 -27.5 75.5
s-45.166 27.5 -80.499 27.5c-37.333 0 -67.666 -10.667 -90.999 -32s-37.333 -50.666 -42 -87.999h-113c3.33301 62.667 27.166 114.5 71.499 155.5s103.5 61.5 177.5 61.5c70.667 0 126.167 -18 166.5 -54s60.5 -81.333 60.5 -136
c0 -75.333 -37.667 -127.666 -113 -156.999c91.333 -24 137 -81.667 137 -173c0 -64.667 -23.333 -116.5 -70 -155.5s-110.334 -58.5 -191.001 -58.5z" />
    <glyph glyph-name="four.old" horiz-adv-x="638" 
d="M385 -95v146h-361v42l322 525h164v-477h97v-90h-97v-146h-125zM162 141h224v380z" />
    <glyph glyph-name="five.old" horiz-adv-x="586" 
d="M285 -105c-78 0 -138.167 19.167 -180.5 57.5s-65.5 88.833 -69.5 151.5h118c6 -36 18.667 -63.5 38 -82.5s50.333 -28.5 93 -28.5c40 0 71.5 13.167 94.5 39.5s34.5 61.5 34.5 105.5c0 41.333 -11.667 74.833 -35 100.5s-54.333 38.5 -93 38.5
c-62.667 0 -112 -20.667 -148 -62h-64l5 404h424v-103h-326l-2 -204c34.667 38 85.667 57 153 57c63.333 0 114.833 -20.833 154.5 -62.5s59.5 -97.834 59.5 -168.501c0 -73.333 -23.667 -132.166 -71 -176.499s-109 -66.5 -185 -66.5z" />
    <glyph glyph-name="six.old" horiz-adv-x="627" 
d="M322 -10c-95.333 0 -164.667 29.5 -208 88.5s-65 138.5 -65 238.5v32c0 119.333 26.5 211.833 79.5 277.5s122.833 98.5 209.5 98.5c64.667 0 116.667 -15.833 156 -47.5s63.333 -77.834 72 -138.501h-120c-6.66699 28.667 -18.667 50.334 -36 65.001s-42.333 22 -75 22
c-48 0 -85.833 -22 -113.5 -66s-42.5 -109 -44.5 -195c36 60 94 90 174 90c68 0 123.5 -21 166.5 -63s64.5 -96.667 64.5 -164c0 -72 -23.5 -129.667 -70.5 -173s-110.167 -65 -189.5 -65zM321.999 85c39.333 0 71.333 12.832 96 38.499s37 59.5 37 101.5
s-12.167 76 -36.5 102s-56.833 39 -97.5 39c-40 0 -73 -12.667 -99 -38s-39 -57.333 -39 -96c0 -45.333 12.833 -81.166 38.5 -107.499s59.167 -39.5 100.5 -39.5z" />
    <glyph glyph-name="seven.old" horiz-adv-x="542" 
d="M112 -95l248 610h-334v103h496v-15l-277 -698h-133z" />
    <glyph glyph-name="eight.old" horiz-adv-x="612" 
d="M306 -10c-73.333 0 -135.5 18.668 -186.5 56.001s-76.5 88.666 -76.5 153.999c0 43.333 12.667 80.5 38 111.5s59 53.5 101 67.5c-34 13.333 -61 33 -81 59s-30 57 -30 93c0 59.333 23.167 106.5 69.5 141.5s101.833 52.5 166.5 52.5c65.333 0 120.833 -17.5 166.5 -52.5
s68.5 -81.5 68.5 -139.5c0 -70.667 -37.333 -121.667 -112 -153c43.333 -15.333 77.333 -38 102 -68s37 -66 37 -108c0 -66.667 -25.167 -119 -75.5 -157s-112.833 -57 -187.5 -57zM307 87.001c39.333 0 71.5 11.167 96.5 33.5s37.5 52.5 37.5 90.5
c0 37.333 -12.5 66.833 -37.5 88.5s-56.833 32.5 -95.5 32.5s-71 -10.833 -97 -32.5s-39 -51.5 -39 -89.5s13 -68 39 -90s58 -33 96 -33zM309 419.001c32.667 0 59.334 9.66797 80.001 29.001s31 45.666 31 78.999c0 30.667 -10.667 55.667 -32 75s-48.333 29 -81 29
s-59.834 -9.66699 -81.501 -29s-32.5 -45 -32.5 -77s11.167 -57.667 33.5 -77s49.833 -29 82.5 -29z" />
    <glyph glyph-name="nine.old" horiz-adv-x="627" 
d="M292 -105c-69.333 0 -124.834 17.166 -166.501 51.499s-66.5 81.833 -74.5 142.5h121c14.667 -63.333 56.334 -95 125.001 -95c53.333 0 91.666 20.5 114.999 61.5s36 107.5 38 199.5c-16.667 -27.333 -40 -49.333 -70 -66s-64.667 -25 -104 -25
c-68 0 -123.5 20.833 -166.5 62.5s-64.5 96.167 -64.5 163.5c0 72.667 23.5 130.667 70.5 174s110.167 65 189.5 65c95.333 0 164.5 -29.667 207.5 -89s64.5 -139.666 64.5 -240.999v-30c0 -121.333 -24.167 -214 -72.5 -278s-119.166 -96 -212.499 -96zM304.999 252.999
c40.667 0 73.832 12.5 99.499 37.5s38.5 57.167 38.5 96.5c0 46 -12.667 82 -38 108s-58.666 39 -99.999 39c-39.333 0 -71.333 -12.833 -96 -38.5s-37 -59.167 -37 -100.5c0 -42.667 12 -77 36 -103s56.333 -39 97 -39z" />
    <glyph glyph-name="dollar.tab" 
d="M269 -135l0.000976562 126.001c-79.333 5.33301 -138.5 28.5 -177.5 69.5s-61.167 94.5 -66.5 160.5h120c4.66699 -38.667 15.667 -69.167 33 -91.5s47.666 -36.166 90.999 -41.499v226c-75.333 12.667 -131 35 -167 67s-54 78.667 -54 140
c0 55.333 20.333 101.666 61 138.999s94 58.333 160 63v90h66v-91c64 -5.33301 114.5 -25.333 151.5 -60s58.5 -82.334 64.5 -143.001h-115c-11.333 62 -45 97.667 -101 107v-206c78 -13.333 135.667 -35.5 173 -66.5s56 -78.833 56 -143.5
c0 -59.333 -20.333 -109.333 -61 -150s-96.667 -63.667 -168 -69v-126h-66zM444.001 199.001c0 29.333 -7.83301 51.832 -23.5 67.499s-44.167 27.834 -85.5 36.501v-215c33.333 5.33301 59.833 17.833 79.5 37.5s29.5 44.167 29.5 73.5zM164.001 531
c0 -28 7.33105 -49.5 21.998 -64.5s42.334 -26.833 83.001 -35.5v197c-33.333 -4 -59.166 -14.667 -77.499 -32s-27.5 -39 -27.5 -65z" />
    <glyph glyph-name="Euro.tab" 
d="M14 389l-0.00195312 64h56c4.66699 84.667 29.334 151.167 74.001 199.5s104.334 72.5 179.001 72.5c66.667 0 119.667 -19.167 159 -57.5s62 -94.5 68 -168.5h-115c-10 84 -47.333 126 -112 126c-81.333 0 -125 -57.333 -131 -172h191l-12 -64h-179v-67h167l-12 -63
h-155c3.33301 -57.333 15.5 -99.5 36.5 -126.5s53.167 -40.5 96.5 -40.5c35.333 0 62.833 11 82.5 33s32.5 56.667 38.5 104h113c-6 -78 -29.5 -137.333 -70.5 -178s-96.5 -61 -166.5 -61c-74.667 0 -134.167 23.333 -178.5 70s-68.833 113 -73.5 199h-56v63h56v67h-56z" />
    <glyph glyph-name="sterling.tab" 
d="M43 306l-0.00292969 79.9971h57c-10.667 44 -16 85 -16 123c0 65.333 22 117.5 66 156.5s99.667 58.5 167 58.5c70.667 0 125.167 -18.167 163.5 -54.5s59.5 -87.5 63.5 -153.5h-116c-6 36.667 -17.167 63.334 -33.5 80.001s-41.166 25 -74.499 25
c-32.667 0 -59 -10.5 -79 -31.5s-30 -49.5 -30 -85.5c0 -38.667 4.33301 -78 13 -118h192v-80h-176c6.66699 -44 10 -79 10 -105c0 -22.667 -4 -43 -12 -61c12.667 -3.33301 29 -8.83301 49 -16.5s37.167 -13.667 51.5 -18s26.5 -6.5 36.5 -6.5c50 0 76.333 24.667 79 74
h109c-2.66699 -55.333 -18.5 -99.5 -47.5 -132.5s-68.833 -49.5 -119.5 -49.5c-33.333 0 -72.833 9.83301 -118.5 29.5s-75.834 29.5 -90.501 29.5c-17.333 0 -30.666 -4.83301 -39.999 -14.5s-14.666 -21.5 -15.999 -35.5h-100c2 32.667 11.333 62.334 28 89.001
s40.334 44.667 71.001 54c6 16.667 9 36.334 9 59.001c0 25.333 -5.66699 60 -17 104h-79z" />
    <glyph glyph-name="yen.tab" 
d="M80 286v63h150l-192 366h138l135 -280l129 280h122l-182 -366h152v-63h-162v-67h162v-64h-162v-155h-130v155h-160v64h160v67h-160z" />
    <glyph glyph-name="zero.tab" 
d="M304 95c44.667 0 76.498 14.834 95.498 44.501s28.5 79.5 28.5 149.5v140c0 65.333 -10.167 113.666 -30.5 144.999s-52.166 47 -95.499 47c-44.667 0 -77.5 -15.833 -98.5 -47.5s-31.5 -81.5 -31.5 -149.5v-136c0 -68.667 10.833 -118 32.5 -148s54.834 -45 99.501 -45z
M300.998 -9.99902c-80 0 -142.831 25.499 -188.498 76.499s-68.5 124.5 -68.5 220.5v136c0 97.333 23.167 171.833 69.5 223.5s108.833 77.5 187.5 77.5c79.333 0 141.666 -25 186.999 -75s68 -123 68 -219v-140c0 -97.333 -22.333 -171.666 -67 -222.999
s-107.334 -77 -188.001 -77z" />
    <glyph glyph-name="one.tab" 
d="M290 0v582l-192 -145v116l199 162h126v-715h-133z" />
    <glyph glyph-name="two.tab" 
d="M35 0v24l259 285c36 41.333 62.833 78 80.5 110s26.5 64.333 26.5 97c0 33.333 -9 59.333 -27 78s-43 28 -75 28c-70.667 0 -110.667 -47.667 -120 -143h-123c4.66699 76.667 27.834 136.667 69.501 180s100.5 65 176.5 65c73.333 0 130.333 -18.333 171 -55
s61 -86.667 61 -150c0 -43.333 -12.333 -86 -37 -128s-60.334 -86.667 -107.001 -134l-153 -152h299v-105h-501z" />
    <glyph glyph-name="three.tab" 
d="M294 -10c-80.667 0 -143.334 20.668 -188.001 62.001s-68.334 97.666 -71.001 168.999h119c6.66699 -86.667 52.334 -130 137.001 -130c86.667 0 130 38.333 130 115c0 78 -41.667 117 -125 117h-55v95h52c78 0 117 34.667 117 104c0 30.667 -9 55.167 -27 73.5
s-44.333 27.5 -79 27.5c-36.667 0 -66.5 -10.5 -89.5 -31.5s-36.167 -49.833 -39.5 -86.5h-115c2.66699 64 26.167 116.5 70.5 157.5s102.5 61.5 174.5 61.5c70.667 0 126.334 -18 167.001 -54s61 -81.667 61 -137c0 -76 -38.333 -128 -115 -156c42 -10 75 -29.667 99 -59
s36 -67 36 -113c0 -66.667 -23.333 -119.167 -70 -157.5s-109.667 -57.5 -189 -57.5z" />
    <glyph glyph-name="four.tab" 
d="M362 0v145h-330v44l293 526h160v-474h79v-96h-79v-145h-123zM162 241h202v370z" />
    <glyph glyph-name="five.tab" 
d="M290 -10c-78.667 0 -138.499 19 -179.499 57s-63.5 91 -67.5 159h119c5.33301 -37.333 17.333 -65.333 36 -84s49 -28 91 -28c40 0 71 13 93 39s33 61.667 33 107c0 42 -11.5 75.667 -34.5 101s-53.833 38 -92.5 38c-62 0 -110 -21 -144 -63h-66l5 399h422v-105h-322
l-2 -195c35.333 40 85 60 149 60c64.667 0 116.667 -21.167 156 -63.5s59 -99.5 59 -171.5c0 -76.667 -23.333 -137.5 -70 -182.5s-108.334 -67.5 -185.001 -67.5z" />
    <glyph glyph-name="six.tab" 
d="M310 -10c-48 0 -89.502 8 -124.502 24s-62.667 38.833 -83 68.5s-35.333 63.667 -45 102s-14.5 81.5 -14.5 129.5v36c0 119.333 26 211.5 78 276.5s121.333 97.5 208 97.5c63.333 0 114.333 -15.667 153 -47s61.334 -78.333 68.001 -141h-118
c-6 29.333 -17.333 51.333 -34 66s-41 22 -73 22c-47.333 0 -85 -21.333 -113 -64s-42.667 -105 -44 -187c36 60.667 92.667 91 170 91c66.667 0 120.667 -21 162 -63s62 -97.667 62 -167c0 -74 -22.667 -133.167 -68 -177.5s-106.666 -66.5 -183.999 -66.5zM307.998 90
c39.333 0 71 12.832 95 38.499s36 59.5 36 101.5c0 42.667 -12 76.834 -36 102.501s-56 38.5 -96 38.5s-72.5 -12.167 -97.5 -36.5s-37.5 -56.5 -37.5 -96.5c0 -46.667 12.5 -83 37.5 -109s57.833 -39 98.5 -39z" />
    <glyph glyph-name="seven.tab" 
d="M144 0l241 609h-327v106h494v-16l-273 -699h-135z" />
    <glyph glyph-name="eight.tab" 
d="M301 -10c-72.667 0 -133.833 18.6689 -183.5 56.002s-74.5 89.666 -74.5 156.999c0 43.333 11.667 80.5 35 111.5s54.666 54.167 93.999 69.5c-32 13.333 -57 32.666 -75 57.999s-27 55.333 -27 90c0 58.667 22.833 105.334 68.5 140.001s99.834 52 162.501 52
c64 0 118.333 -17.333 163 -52s67 -80.667 67 -138c0 -68 -34.333 -117.667 -103 -149c41.333 -15.333 73.333 -38.333 96 -69s34 -67.334 34 -110.001c0 -68 -24.5 -121 -73.5 -159s-110.167 -57 -183.5 -57zM301.001 92.002c38.667 0 70.166 10.833 94.499 32.5
s36.5 51.5 36.5 89.5s-12.167 67.667 -36.5 89s-55.166 32 -92.499 32c-38 0 -69.667 -10.667 -95 -32s-38 -51.333 -38 -90c0 -38 12.667 -67.667 38 -89s56.333 -32 93 -32zM304 423.002c32 0 58 9.33398 78 28.001s30 43.667 30 75c0 30 -10.5 54.5 -31.5 73.5
s-47.5 28.5 -79.5 28.5c-31.333 0 -57.5 -9.33301 -78.5 -28s-31.5 -43.334 -31.5 -74.001c0 -31.333 10.833 -56.333 32.5 -75s48.5 -28 80.5 -28z" />
    <glyph glyph-name="nine.tab" 
d="M281 -9c-70 0 -125.331 16.832 -165.998 50.499s-64.667 82.167 -72 145.5h118c13.333 -64 53.333 -96 120 -96c100 0 151 83.333 153 250c-16 -27.333 -38.833 -49.166 -68.5 -65.499s-63.834 -24.5 -102.501 -24.5c-66 0 -120 20.833 -162 62.5s-63 97.5 -63 167.5
c0 73.333 22.667 132.333 68 177s106.666 67 183.999 67c88 0 154.5 -27.5 199.5 -82.5s67.5 -134.167 67.5 -237.5v-56c0 -114.667 -24 -203 -72 -265s-116 -93 -204 -93zM293.002 344.999c40 0 72.5 11.834 97.5 35.501s37.5 55.167 37.5 94.5
c0 47.333 -12.5 84.333 -37.5 111s-57.833 40 -98.5 40c-39.333 0 -71 -12.833 -95 -38.5s-36 -59.5 -36 -101.5c0 -42.667 12 -76.834 36 -102.501s56 -38.5 96 -38.5z" />
    <glyph glyph-name="cent.tab" 
d="M282 -135v127.001c-69.333 6.66699 -125.5 33.334 -168.5 80.001s-64.5 108 -64.5 184v8c0 74 21.833 135.167 65.5 183.5s99.5 76.5 167.5 84.5v97h66v-97c56.667 -4.66699 104.167 -23.167 142.5 -55.5s60.5 -78.5 66.5 -138.5h-115c-8.66699 56.667 -40 90 -94 100
v-356c28 5.33301 51.5 17.666 70.5 36.999s29.833 44.666 32.5 75.999h109c-4.66699 -56 -26 -102.5 -64 -139.5s-87.333 -58.167 -148 -63.5v-127h-66zM171 256.001c0 -48.667 9.66797 -87.668 29.001 -117.001s46.666 -47.666 81.999 -54.999v353
c-34 -8 -61 -27.167 -81 -57.5s-30 -68.833 -30 -115.5v-8z" />
    <glyph glyph-name="percent.tab" horiz-adv-x="800" 
d="M208 461c23.333 0 41.666 8.16699 54.999 24.5s20 38.833 20 67.5c0 28 -6.66699 50.333 -20 67s-31.666 25 -54.999 25c-22.667 0 -40.667 -8.16699 -54 -24.5s-20 -38.833 -20 -67.5c0 -29.333 6.66699 -52 20 -68s31.333 -24 54 -24zM208 383
c-48 0 -88.333 16.166 -121 48.499s-49 72.5 -49 120.5c0 48.667 16.5 89.167 49.5 121.5s73.167 48.5 120.5 48.5s87.5 -16 120.5 -48s49.5 -72 49.5 -120c0 -49.333 -16.333 -90.166 -49 -122.499s-73 -48.5 -121 -48.5zM131 -0.000976562l455 715h84l-455 -715h-84z
M592 68.999c23.333 0 41.502 8 54.502 24s19.5 38.333 19.5 67s-6.66699 51.167 -20 67.5s-31.333 24.5 -54 24.5s-40.834 -8 -54.501 -24s-20.5 -38.667 -20.5 -68s6.66699 -51.833 20 -67.5s31.666 -23.5 54.999 -23.5zM592.002 -10.001c-48 0 -88.333 16.167 -121 48.5
s-49 72.5 -49 120.5c0 48.667 16.5 89.167 49.5 121.5s73.167 48.5 120.5 48.5s87.5 -15.833 120.5 -47.5s49.5 -71.5 49.5 -119.5c0 -49.333 -16.333 -90.333 -49 -123s-73 -49 -121 -49z" />
    <glyph glyph-name="perthousand.tab" horiz-adv-x="1000" 
d="M179 467c34.667 0 52 30 52 90c0 60.667 -17.333 91 -52 91c-35.333 0 -53 -30.333 -53 -91c0 -60 17.667 -90 53 -90zM178 392c-40.667 0 -74.5 14.833 -101.5 44.5s-40.5 69.5 -40.5 119.5c0 50.667 13.667 91 41 121s61.333 45 102 45s74.5 -14.667 101.5 -44
s40.5 -69 40.5 -119c0 -50.667 -13.5 -91.167 -40.5 -121.5s-61.167 -45.5 -102.5 -45.5zM74 0l455 715h83l-455 -715h-83zM503 65c35.333 0 53 30.333 53 91c0 60 -17.667 90 -53 90c-34.667 0 -52 -30 -52 -90c0 -60.667 17.333 -91 52 -91zM503 -10
c-40.667 0 -74.5 14.999 -101.5 44.999s-40.5 70 -40.5 120c0 50.667 13.667 90.834 41 120.501s61 44.5 101 44.5c40.667 0 74.667 -14.5 102 -43.5s41 -68.833 41 -119.5s-13.5 -91.167 -40.5 -121.5s-61.167 -45.5 -102.5 -45.5zM822 64.999c34.667 0 52 30.333 52 91
c0 60 -17.333 90 -52 90c-35.333 0 -53 -30 -53 -90c0 -60.667 17.667 -91 53 -91zM821 -10.001c-40.667 0 -74.5 14.999 -101.5 44.999s-40.5 70 -40.5 120c0 50.667 13.667 90.834 41 120.501s61.333 44.5 102 44.5s74.5 -14.5 101.5 -43.5s40.5 -68.833 40.5 -119.5
s-13.5 -91.167 -40.5 -121.5s-61.167 -45.5 -102.5 -45.5z" />
    <glyph glyph-name="plus.tab" 
d="M250 99v195h-180v94h180v195h101v-195h180v-94h-180v-195h-101z" />
    <glyph glyph-name="minus.tab" 
d="M69 293v96h462v-96h-462z" />
    <glyph glyph-name="multiply.tab" 
d="M147 115l-66 66l154 153l-155 154l66 67l154 -155l153 154l67 -66l-154 -154l155 -154l-67 -66l-154 155z" />
    <glyph glyph-name="divide.tab" 
d="M300 71c-21.333 0 -39.333 7.33301 -54 22s-22 32.334 -22 53.001s7.33301 38.334 22 53.001s32.667 22 54 22s39.333 -7.33301 54 -22s22 -32.334 22 -53.001s-7.33301 -38.334 -22 -53.001s-32.667 -22 -54 -22zM67 296v91h467v-91h-467zM300 461
c-21.333 0 -39.333 7.33301 -54 22s-22 32.334 -22 53.001c0 21.333 7.33301 39.333 22 54s32.667 22 54 22s39.333 -7.33301 54 -22s22 -32.667 22 -54c0 -20.667 -7.33301 -38.334 -22 -53.001s-32.667 -22 -54 -22z" />
    <glyph glyph-name="equal.tab" 
d="M86 185v91h428v-91h-428zM86 371v92h428v-92h-428z" />
    <glyph glyph-name="less.tab" 
d="M499 81l-407 228v26l407 228v-112l-240 -128l240 -131v-111z" />
    <glyph glyph-name="greater.tab" 
d="M101 81v113l240 128l-240 131v111l407 -229v-25z" />
    <glyph glyph-name="florin.tab" 
d="M101 324v90h112l21 141c16.667 112.667 79.667 169 189 169c28.667 0 53 -3.66699 73 -11v-95c-16.667 6.66699 -37 10 -61 10c-46 0 -73.333 -27.333 -82 -82l-20 -132h135v-90h-148l-75 -506h-120l75 506h-99z" />
    <glyph glyph-name="plusminus.tab" 
d="M250 157v175h-183v94h183v176h101v-176h182v-94h-182v-175h-101zM67 0v89h467v-89h-467z" />
    <glyph glyph-name="notequal.tab" 
d="M83 371v92h227l39 100h91l-39 -100h116v-92h-152l-36 -95h188v-91h-223l-39 -101h-91l39 101h-120v91h155l36 95h-191z" />
    <glyph glyph-name="approxequal.tab" 
d="M78 148c3.33301 47.333 16.332 82.832 38.999 106.499s50.334 35.5 83.001 35.5c28 0 64.333 -7 109 -21s74.667 -21 90 -21c11.333 0 21.166 3.83301 29.499 11.5s13.5 18.834 15.5 33.501h78c-2.66699 -46 -15.167 -81.167 -37.5 -105.5s-49.5 -36.5 -81.5 -36.5
c-29.333 0 -66.5 7.16699 -111.5 21.5s-74.833 21.5 -89.5 21.5c-25.333 0 -40.666 -15.333 -45.999 -46h-78zM77.999 341.999c3.33301 47.333 16.332 82.832 38.999 106.499s50.334 35.5 83.001 35.5c28 0 64.333 -7 109 -21s74.667 -21 90 -21
c11.333 0 21.166 3.83301 29.499 11.5s13.5 18.834 15.5 33.501h78c-2.66699 -46 -15.167 -81.167 -37.5 -105.5s-49.5 -36.5 -81.5 -36.5c-29.333 0 -66.5 7.16699 -111.5 21.5s-74.833 21.5 -89.5 21.5c-25.333 0 -40.666 -15.333 -45.999 -46h-78z" />
    <glyph glyph-name="lessequal.tab" 
d="M494 128l-399 213v26l399 213v-111l-223 -114l223 -115v-112zM95 0v89h399v-89h-399z" />
    <glyph glyph-name="greaterequal.tab" 
d="M106 128v112l223 115l-223 114v111l399 -213v-26zM106 0v89h399v-89h-399z" />
    <glyph glyph-name="parenleft.tab" horiz-adv-x="300" 
d="M184 -148c-92.667 136.667 -139 290.332 -139 460.999s46.333 324.334 139 461.001h100c-82.667 -139.333 -124 -293 -124 -461s41.333 -321.667 124 -461h-100z" />
    <glyph glyph-name="parenright.tab" horiz-adv-x="300" 
d="M16 -148c82.667 139.333 124 293.002 124 461.002s-41.333 321.667 -124 461h100c92.667 -136.667 139 -290.334 139 -461.001s-46.333 -324.334 -139 -461.001h-100z" />
    <glyph glyph-name="bracketleft.tab" horiz-adv-x="300" 
d="M60 -148v924h212v-86h-98v-752h98v-86h-212z" />
    <glyph glyph-name="bracketright.tab" horiz-adv-x="300" 
d="M28 -148v86h98v752h-98v86h212v-924h-212z" />
    <glyph glyph-name="braceleft.tab" horiz-adv-x="300" 
d="M272 -147c-77.333 0 -131.834 17.332 -163.501 51.999s-40.167 90 -25.5 166l19 98c5.33301 28.667 2.16602 51.667 -9.50098 69s-35.167 29.666 -70.5 36.999v82c35.333 6.66699 58.833 18.667 70.5 36s14.834 40.333 9.50098 69l-19 98
c-15.333 76.667 -7.16602 132.167 24.501 166.5s86.5 51.5 164.5 51.5v-84c-36.667 -1.33301 -61.334 -11 -74.001 -29s-15 -50.667 -7 -98l18 -108c6 -36.667 0.833008 -66 -15.5 -88s-43.833 -40.333 -82.5 -55c38.667 -14 66.167 -32.167 82.5 -54.5
s21.5 -51.5 15.5 -87.5l-18 -109c-8 -47.333 -5.66699 -80.166 7 -98.499s37.334 -28.166 74.001 -29.499v-84z" />
    <glyph glyph-name="braceright.tab" horiz-adv-x="300" 
d="M28 -147l-0.000976562 84.001c36.667 1.33301 61.334 11.166 74.001 29.499s15 51.166 7 98.499l-18 109c-6 36 -0.833008 65.167 15.5 87.5s43.833 40.5 82.5 54.5c-38.667 14.667 -66.167 33 -82.5 55s-21.5 51.333 -15.5 88l18 108c8 47.333 5.66699 80 -7 98
s-37.334 27.667 -74.001 29v84c78 0 132.833 -17.167 164.5 -51.5s39.834 -89.833 24.501 -166.5l-19 -98c-5.33301 -28.667 -2.16602 -51.667 9.50098 -69s35.167 -29.333 70.5 -36v-82c-35.333 -7.33301 -58.833 -19.666 -70.5 -36.999s-14.834 -40.333 -9.50098 -69
l19 -98c14.667 -76 6.16699 -131.333 -25.5 -166s-86.167 -52 -163.5 -52z" />
    <glyph glyph-name="period.tab" horiz-adv-x="300" 
d="M149 -7c-22 0 -40.667 7.5 -56 22.5s-23 33.5 -23 55.5s7.66699 40.667 23 56s34 23 56 23c22.667 0 41.834 -7.66699 57.501 -23s23.5 -34 23.5 -56s-7.83301 -40.5 -23.5 -55.5s-34.834 -22.5 -57.501 -22.5z" />
    <glyph glyph-name="comma.tab" horiz-adv-x="300" 
d="M106 -123l-75 33l91 237l115 -46z" />
    <glyph glyph-name="colon.tab" horiz-adv-x="300" 
d="M149 -7c-22 0 -40.667 7.5 -56 22.5s-23 33.5 -23 55.5s7.66699 40.667 23 56s34 23 56 23c22.667 0 41.834 -7.66699 57.501 -23s23.5 -34 23.5 -56s-7.83301 -40.5 -23.5 -55.5s-34.834 -22.5 -57.501 -22.5zM149 285c-22 0 -40.667 7.66699 -56 23s-23 34 -23 56
s7.66699 40.5 23 55.5s34 22.5 56 22.5c22.667 0 41.834 -7.5 57.501 -22.5s23.5 -33.5 23.5 -55.5s-7.83301 -40.667 -23.5 -56s-34.834 -23 -57.501 -23z" />
    <glyph glyph-name="semicolon.tab" horiz-adv-x="300" 
d="M87 -123l-74 33l91 237l114 -46zM156 285c-22 0 -40.667 7.66699 -56 23s-23 34 -23 56s7.66699 40.5 23 55.5s34 22.5 56 22.5c22.667 0 41.667 -7.5 57 -22.5s23 -33.5 23 -55.5s-7.66699 -40.667 -23 -56s-34.333 -23 -57 -23z" />
    <glyph glyph-name="space.tab" horiz-adv-x="300" 
 />
    <glyph glyph-name="dollar.oldtab" 
d="M269 -131l-0.000976562 123.002c-147.333 10.667 -226.333 84.667 -237 222h117c4.66699 -36.667 15.5 -65.834 32.5 -87.501s46.167 -35.167 87.5 -40.5v220c-73.333 12.667 -127.333 34.167 -162 64.5s-52 75.166 -52 134.499c0 54 19.667 99 59 135s91 56.333 155 61
v88h65v-89c62.667 -5.33301 112.167 -24.666 148.5 -57.999s57.5 -79.333 63.5 -138h-112c-12 59.333 -45.333 93.666 -100 102.999v-200c76 -12 132.5 -33.167 169.5 -63.5s55.5 -76.5 55.5 -138.5c0 -58 -20.167 -107 -60.5 -147s-95.166 -62.333 -164.499 -67v-122h-65z
M440.999 193.002c0 28.667 -7.5 50.5 -22.5 65.5s-43.167 26.833 -84.5 35.5v-208c32.667 4.66699 58.667 16.5 78 35.5s29 42.833 29 71.5zM166.999 515.002c0 -26.667 7 -47.332 21 -61.999s41 -26.334 81 -35.001v190c-32 -3.33301 -57 -13.5 -75 -30.5
s-27 -37.833 -27 -62.5z" />
    <glyph glyph-name="Euro.oldtab" 
d="M31 378l-0.000976562 60.999h54c4.66699 82.667 28.667 147.334 72 194.001s101 70 173 70c64.667 0 116 -18.5 154 -55.5s60.333 -91.5 67 -163.5h-112c-10 81.333 -46.333 122 -109 122c-79.333 0 -121.666 -55.667 -126.999 -167h186l-11 -61h-175v-66h162l-11 -61
h-151c3.33301 -55.333 15.333 -96.166 36 -122.499s51.667 -39.5 93 -39.5c34.667 0 61.5 10.667 80.5 32s31.5 55 37.5 101h109c-5.33301 -75.333 -28 -132.833 -68 -172.5s-93.667 -59.5 -161 -59.5c-72.667 0 -130.5 22.667 -173.5 68s-66.833 109.666 -71.5 192.999h-54
v61h54v66h-54z" />
    <glyph glyph-name="sterling.oldtab" 
d="M45 295l-0.000976562 82.9961h55c-10 38.667 -15 77 -15 115c0 63.333 22.167 114 66.5 152s99.5 57 165.5 57c68 0 121.167 -17.667 159.5 -53s59.5 -85 63.5 -149h-119c-6 35.333 -16.5 61 -31.5 77s-38.5 24 -70.5 24s-57.333 -9.83301 -76 -29.5
s-28 -47.167 -28 -82.5c0 -31.333 3.66699 -68.333 11 -111h185v-83h-169c6 -37.333 9 -70.333 9 -99c0 -22 -3.66699 -42.333 -11 -61c12.667 -3.33301 28.334 -8.66602 47.001 -15.999s34.667 -13.166 48 -17.499s25 -6.5 35 -6.5c48.667 0 74.334 24.333 77.001 73h111
c-2.66699 -53.333 -18.834 -96.166 -48.501 -128.499s-69.167 -48.5 -118.5 -48.5c-32 0 -70 9.5 -114 28.5s-72.667 28.5 -86 28.5c-32.667 0 -51 -16 -55 -48h-103c2.66699 29.333 12.5 56.833 29.5 82.5s39.5 43.834 67.5 54.501c6.66699 18 10 37.667 10 59
c0 23.333 -5.66699 56.333 -17 99h-78z" />
    <glyph glyph-name="yen.oldtab" 
d="M87 283v61h145l-187 350h134l132 -271l126 271h118l-177 -350h148v-61h-158v-66h158v-61h-158v-156h-126v156h-155v61h155v66h-155z" />
    <glyph glyph-name="zero.oldtab" 
d="M302 93c84.667 0 127 57.001 127 171.001v94c0 54 -10.833 96 -32.5 126s-53.5 45 -95.5 45c-42.667 0 -75 -14.833 -97 -44.5s-33 -71.834 -33 -126.501v-95c0 -54.667 11.167 -96.667 33.5 -126s54.833 -44 97.5 -44zM300 -9.99902c-77.333 0 -139 25 -185 75
s-69 116 -69 198v94c0 82 23.333 147.833 70 197.5s108 74.5 184 74.5c76.667 0 138.167 -24.333 184.5 -73s69.5 -114 69.5 -196v-95c0 -83.333 -22.833 -150 -68.5 -200s-107.5 -75 -185.5 -75z" />
    <glyph glyph-name="one.oldtab" 
d="M297 0v493l-193 -135v112l206 149h113v-619h-126z" />
    <glyph glyph-name="two.oldtab" 
d="M42 0l-0.000976562 23.001l241 227c40 37.333 69.167 69.5 87.5 96.5s27.5 55.833 27.5 86.5c0 30 -9 53.833 -27 71.5s-43.333 26.5 -76 26.5c-69.333 0 -109.666 -44.667 -120.999 -134h-114c5.33301 71.333 29 127.833 71 169.5s98.333 62.5 169 62.5
c69.333 0 124.333 -17.333 165 -52s61 -80.667 61 -138c0 -40.667 -12.167 -77.834 -36.5 -111.501s-62.833 -74.5 -115.5 -122.5l-116 -108h274v-97h-490z" />
    <glyph glyph-name="three.oldtab" 
d="M294 -105c-80.667 0 -143.165 21.001 -187.498 63.001s-67.833 97.667 -70.5 167h116c8 -88.667 55 -133 141 -133c44.667 0 78 10.667 100 32s33 51 33 89c0 78 -43 117 -129 117h-52v91h49c77.333 0 116 36.333 116 109c0 31.333 -9 56.166 -27 74.499
s-44.667 27.5 -80 27.5c-37.333 0 -67.333 -10.5 -90 -31.5s-36 -50.5 -40 -88.5h-113c3.33301 62.667 27.166 114.5 71.499 155.5s102.166 61.5 173.499 61.5c70 0 124.833 -17.833 164.5 -53.5s59.5 -81.167 59.5 -136.5c0 -77.333 -36.667 -129.666 -110 -156.999
c42 -10.667 74.833 -30.334 98.5 -59.001s35.5 -66 35.5 -112c0 -66 -23.333 -118.5 -70 -157.5s-109.667 -58.5 -189 -58.5z" />
    <glyph glyph-name="four.oldtab" 
d="M358 -95v146h-330v41l290 526h161v-477h86v-90h-86v-146h-121zM154 141h205v377z" />
    <glyph glyph-name="five.oldtab" 
d="M295 -105c-76.667 0 -135.5 18.6689 -176.5 56.002s-63.167 88.333 -66.5 153h115c5.33301 -36.667 17.5 -64.334 36.5 -83.001s49.167 -28 90.5 -28c39.333 0 70.166 13 92.499 39s33.5 61.333 33.5 106c0 42 -11.333 75.667 -34 101s-53 38 -91 38
c-63.333 0 -111.333 -20.667 -144 -62h-63l5 404h413v-102h-316l-2 -205c34 38.667 83 58 147 58c62.667 0 113.334 -20.833 152.001 -62.5s58 -97.167 58 -166.5c0 -74.667 -23.167 -134.334 -69.5 -179.001s-106.5 -67 -180.5 -67z" />
    <glyph glyph-name="six.oldtab" 
d="M312 -10c-87.333 0 -152.332 28.168 -194.999 84.501s-64 132.5 -64 228.5v60c0 114.667 24.833 203.667 74.5 267s116.167 95 199.5 95c62 0 112.167 -15.667 150.5 -47s61.166 -77.666 68.499 -138.999h-115c-12.667 58.667 -48.667 88 -108 88
c-46 0 -81.833 -21.833 -107.5 -65.5s-39.167 -109.167 -40.5 -196.5c37.333 60 92.333 90 165 90c65.333 0 117.833 -20.333 157.5 -61s59.5 -95.334 59.5 -164.001c0 -72.667 -22.167 -130.834 -66.5 -174.501s-103.833 -65.5 -178.5 -65.5zM312.001 86.001
c37.333 0 67.833 12.668 91.5 38.001s35.5 58.666 35.5 99.999c0 43.333 -11.833 77.833 -35.5 103.5s-54.5 38.5 -92.5 38.5s-69.5 -12.333 -94.5 -37s-37.5 -56.667 -37.5 -96c0 -46 12.5 -82 37.5 -108s56.833 -39 95.5 -39z" />
    <glyph glyph-name="seven.oldtab" 
d="M131 -95l251 610h-326v103h492v-15l-284 -698h-133z" />
    <glyph glyph-name="eight.oldtab" 
d="M301 -10c-70 0 -129.166 18.668 -177.499 56.001s-72.5 88.666 -72.5 153.999c0 44 11.833 81.333 35.5 112s55.5 53 95.5 67c-69.333 28 -104 78.667 -104 152c0 59.333 21.833 106.5 65.5 141.5s96.5 52.5 158.5 52.5s114.5 -17.5 157.5 -52.5s64.5 -81.5 64.5 -139.5
c0 -72 -35.333 -123 -106 -153c88 -31.333 132 -90 132 -176c0 -66.667 -23.833 -119 -71.5 -157s-106.834 -57 -177.501 -57zM301.001 87.001c37.333 0 67.667 11 91 33s35 52 35 90s-11.667 67.833 -35 89.5s-53.333 32.5 -90 32.5s-67.167 -11 -91.5 -33
s-36.5 -52 -36.5 -90c0 -37.333 12.167 -67 36.5 -89s54.5 -33 90.5 -33zM303.002 419.001c31.333 0 56.5 9.66699 75.5 29s28.5 45.666 28.5 78.999c0 30.667 -10 55.834 -30 75.501s-45 29.5 -75 29.5c-30.667 0 -56.167 -9.66699 -76.5 -29s-30.5 -45 -30.5 -77
c0 -32.667 10.5 -58.667 31.5 -78s46.5 -29 76.5 -29z" />
    <glyph glyph-name="nine.oldtab" 
d="M280 -106c-67.333 0 -120.667 17.002 -160 51.002s-62.666 82 -69.999 144h114c14 -64.667 54 -97 120 -97c48.667 0 84 21 106 63s33.667 107.333 35 196c-34 -58 -87.667 -87 -161 -87c-64.667 0 -117.5 20.5 -158.5 61.5s-61.5 95.5 -61.5 163.5
c0 71.333 22.667 129.166 68 173.499s105 66.5 179 66.5c86.667 0 151 -27.667 193 -83s63 -131 63 -227v-65c0 -116.667 -22.333 -205.834 -67 -267.501s-111.334 -92.5 -200.001 -92.5zM291.999 253.002c38 0 69.167 12.333 93.5 37s36.5 57 36.5 97
c0 46 -12.167 82 -36.5 108s-55.833 39 -94.5 39c-37.333 0 -68 -12.833 -92 -38.5s-36 -59.167 -36 -100.5c0 -42.667 12 -77 36 -103s55 -39 93 -39z" />
    <glyph glyph-name="zero.num" horiz-adv-x="378" 
d="M190 426c45.333 0 68 35.667 68 107v11c0 70 -23 105 -69 105c-45.333 0 -68 -35.333 -68 -106v-11c0 -70.667 23 -106 69 -106zM188 354c-50 0 -89.335 15.8311 -118.002 47.498s-43 74.834 -43 129.501v11c0 54.667 14.833 98 44.5 130s68.834 48 117.501 48
s87.834 -15.5 117.501 -46.5s44.5 -73.833 44.5 -128.5v-11c0 -55.333 -14.5 -99.166 -43.5 -131.499s-68.833 -48.5 -119.5 -48.5z" />
    <glyph glyph-name="one.num" horiz-adv-x="253" 
d="M104 360v265l-82 -51v78l94 63h82v-355h-94z" />
    <glyph glyph-name="two.num" horiz-adv-x="313" 
d="M7 360l0.000976562 13l128 135c39.333 40.667 59 73.667 59 99c0 28.667 -14 43 -42 43c-30 0 -47.333 -20.333 -52 -61h-85c2 42 15.5 74.333 40.5 97s58.5 34 100.5 34c41.333 0 73.166 -10 95.499 -30s33.5 -46.333 33.5 -79c0 -39.333 -23.333 -81.333 -70 -126
l-58 -57h131v-68h-281z" />
    <glyph glyph-name="three.num" horiz-adv-x="336" 
d="M166 354c-47.333 0 -83.165 10.8311 -107.498 32.498s-37.166 50.834 -38.499 87.501h83c3.33301 -36 22.666 -54 57.999 -54c36 0 54 15.667 54 47c0 30 -18 45 -54 45h-28v58h27c34.667 0 52 14.333 52 43c0 26.667 -15 40 -45 40
c-14.667 0 -26.834 -4.16699 -36.501 -12.5s-15.5 -20.166 -17.5 -35.499h-83c2.66699 34 16.167 61.667 40.5 83s57.166 32 98.499 32c40.667 0 72.667 -8.83301 96 -26.5s35 -41.167 35 -70.5c0 -38 -20.333 -63.667 -61 -77c21.333 -4 38.333 -13.167 51 -27.5
s19 -32.5 19 -54.5c0 -34 -12.5 -60.833 -37.5 -80.5s-60.167 -29.5 -105.5 -29.5z" />
    <glyph glyph-name="four.num" horiz-adv-x="347" 
d="M193 360v69h-178v34l154 252h113v-222h46v-64h-46v-69h-89zM104 493h91v157z" />
    <glyph glyph-name="five.num" horiz-adv-x="327" 
d="M159 354c-44.667 0 -78.668 10.334 -102.001 31.001s-35.666 48 -36.999 82h86c4.66699 -29.333 21.667 -44 51 -44c16 0 28.333 5.16699 37 15.5s13 24.166 13 41.499s-4.5 30.833 -13.5 40.5s-21.5 14.5 -37.5 14.5c-26 0 -45.667 -9 -59 -27h-62l7 207h238v-68h-171
l-2 -87c19.333 24.667 47.333 37 84 37c33.333 0 60 -10.333 80 -31s30 -49 30 -85c0 -39.333 -12.833 -70.333 -38.5 -93s-60.167 -34 -103.5 -34z" />
    <glyph glyph-name="six.num" horiz-adv-x="348" 
d="M181 354c-102.667 0 -154.001 57.333 -154.001 172v9c0 58 14.833 103.333 44.5 136s68.5 49 116.5 49c78 0 120.667 -34 128 -102h-85c-4.66699 22.667 -19 34 -43 34c-43.333 0 -66 -34.667 -68 -104c18.667 28.667 47.334 43 86.001 43c34 0 62.167 -10 84.5 -30
s33.5 -47.667 33.5 -83c0 -37.333 -12.833 -67.333 -38.5 -90s-60.5 -34 -104.5 -34zM179.999 418c16 0 29.001 5.33496 39.001 16.002s15 24.667 15 42s-4.83301 31.166 -14.5 41.499s-22.834 15.5 -39.501 15.5s-30 -5.16699 -40 -15.5s-15 -23.5 -15 -39.5
c0 -18.667 5 -33.334 15 -44.001s23.333 -16 40 -16z" />
    <glyph glyph-name="seven.num" horiz-adv-x="298" 
d="M65 360l106 281h-153v74h270v-10l-129 -345h-94z" />
    <glyph glyph-name="eight.num" horiz-adv-x="340" 
d="M170 354c-44 0 -79.333 9.16602 -106 27.499s-40 44.166 -40 77.499c0 44.667 21.667 74.334 65 89.001c-34 14 -51 38.333 -51 73c0 30.667 12.833 54.834 38.5 72.501s57.167 26.5 94.5 26.5c38 0 69.333 -8.83301 94 -26.5s37 -41.5 37 -71.5
c0 -34.667 -17.333 -59 -52 -73c44 -15.333 66 -44.333 66 -87c0 -34 -13.333 -60.5 -40 -79.5s-62 -28.5 -106 -28.5zM170 418.999c16 0 29 4.5 39 13.5s15 21.5 15 37.5c0 14.667 -5 26.5 -15 35.5s-23 13.5 -39 13.5c-15.333 0 -28.166 -4.5 -38.499 -13.5
s-15.5 -21.167 -15.5 -36.5s5.16699 -27.5 15.5 -36.5s23.166 -13.5 38.499 -13.5zM171 571.999c13.333 0 24.333 4 33 12s13 18.333 13 31s-4.5 22.834 -13.5 30.501s-19.833 11.5 -32.5 11.5c-13.333 0 -24.5 -3.83301 -33.5 -11.5s-13.5 -18.167 -13.5 -31.5
c0 -12.667 4.66699 -22.834 14 -30.501s20.333 -11.5 33 -11.5z" />
    <glyph glyph-name="nine.num" horiz-adv-x="348" 
d="M165 354c-40 0 -71.667 8.99902 -95 26.999s-37 43.667 -41 77h86c6 -24 22.333 -36 49 -36c42 0 63.667 34 65 102c-18 -27.333 -45.667 -41 -83 -41c-36 0 -65.167 9.83301 -87.5 29.5s-33.5 47.5 -33.5 83.5c0 37.333 12.833 67.333 38.5 90s60.5 34 104.5 34
c50.667 0 89 -15.167 115 -45.5s39 -72.166 39 -125.499v-14c0 -58 -13.5 -102.667 -40.5 -134s-65.833 -47 -116.5 -47zM168 540.999c16 0 29.167 5.16699 39.5 15.5s15.5 23.166 15.5 38.499c0 18.667 -5 33.5 -15 44.5s-23.333 16.5 -40 16.5
c-16 0 -28.833 -5.33301 -38.5 -16s-14.5 -24.667 -14.5 -42s4.66699 -31.166 14 -41.499s22.333 -15.5 39 -15.5z" />
    <glyph glyph-name="zero.den" horiz-adv-x="378" 
d="M190 67c45.333 0 68 35.333 68 106v11c0 70 -23 105 -69 105c-45.333 0 -68 -35.333 -68 -106v-11c0 -70 23 -105 69 -105zM188 -6c-50 0 -89.335 15.832 -118.002 47.499s-43 74.834 -43 129.501v12c0 54.667 14.833 97.834 44.5 129.501s68.834 47.5 117.501 47.5
s87.834 -15.5 117.501 -46.5s44.5 -73.833 44.5 -128.5v-11c0 -54.667 -14.5 -98.334 -43.5 -131.001s-68.833 -49 -119.5 -49z" />
    <glyph glyph-name="one.den" horiz-adv-x="254" 
d="M104 0v265l-82 -51v78l94 63h82v-355h-94z" />
    <glyph glyph-name="two.den" horiz-adv-x="313" 
d="M7 0v13l128 135c39.333 40.667 59 73.667 59 99c0 28.667 -14 43 -42 43c-30 0 -47.333 -20.333 -52 -61h-85c2 42 15.333 74.333 40 97s58.334 34 101.001 34c41.333 0 73.166 -10 95.499 -30s33.5 -46.333 33.5 -79c0 -39.333 -23.333 -81.333 -70 -126l-58 -57h131
v-68h-281z" />
    <glyph glyph-name="three.den" horiz-adv-x="336" 
d="M166 -6c-47.333 0 -83.166 10.832 -107.499 32.499s-37.166 50.834 -38.499 87.501h83c3.33301 -35.333 22.666 -53 57.999 -53c36 0 54 15.333 54 46s-18 46 -54 46h-28v57h27c34.667 0 52 14.333 52 43c0 27.333 -15 41 -45 41c-32 0 -50 -16.333 -54 -49h-83
c2.66699 34.667 16.167 62.5 40.5 83.5s57.166 31.5 98.499 31.5c40.667 0 72.667 -8.83301 96 -26.5s35 -41.167 35 -70.5c0 -38 -20.333 -63.667 -61 -77c21.333 -4 38.333 -13.167 51 -27.5s19 -32.5 19 -54.5c0 -34 -12.5 -60.833 -37.5 -80.5
s-60.167 -29.5 -105.5 -29.5z" />
    <glyph glyph-name="four.den" horiz-adv-x="348" 
d="M193 0v69h-178v34l154 252h113v-222h46v-64h-46v-69h-89zM104 133h91v157z" />
    <glyph glyph-name="five.den" horiz-adv-x="328" 
d="M159 -6c-44.667 0 -78.6689 10.333 -102.002 31s-35.666 48 -36.999 82h86c2 -14 6.83301 -24.667 14.5 -32s19.834 -11 36.501 -11c16 0 28.333 5 37 15s13 24 13 42c0 17.333 -4.5 30.833 -13.5 40.5s-21.5 14.5 -37.5 14.5c-26 0 -45.667 -9 -59 -27h-62l7 206h238
v-68h-171l-2 -87c19.333 24.667 47.333 37 84 37c33.333 0 60 -10.167 80 -30.5s30 -48.833 30 -85.5c0 -38.667 -12.833 -69.5 -38.5 -92.5s-60.167 -34.5 -103.5 -34.5z" />
    <glyph glyph-name="six.den" horiz-adv-x="349" 
d="M181 -6c-102.667 0 -154.001 57.333 -154.001 172v10c0 57.333 14.833 102.333 44.5 135s68.5 49 116.5 49c78 0 120.667 -34 128 -102h-85c-4.66699 22.667 -19 34 -43 34c-43.333 0 -66 -34.667 -68 -104c18.667 28.667 47.334 43 86.001 43c34 0 62.167 -10 84.5 -30
s33.5 -47.667 33.5 -83c0 -37.333 -12.833 -67.333 -38.5 -90s-60.5 -34 -104.5 -34zM179.999 59c16 0 29.001 5.33203 39.001 15.999s15 24.334 15 41.001c0 17.333 -4.83301 31.333 -14.5 42s-22.834 16 -39.501 16c-16 0 -29.167 -5.33301 -39.5 -16s-15.5 -24 -15.5 -40
c0 -18 5 -32.333 15 -43s23.333 -16 40 -16z" />
    <glyph glyph-name="seven.den" horiz-adv-x="298" 
d="M65 0l106 281h-153v74h270v-10l-129 -345h-94z" />
    <glyph glyph-name="eight.den" horiz-adv-x="340" 
d="M170 -6c-44 0 -79.333 9.16699 -106 27.5s-40 44.5 -40 78.5c0 44 21.667 73.333 65 88c-34 14 -51 38.667 -51 74c0 30 12.833 53.833 38.5 71.5s57.167 26.5 94.5 26.5c38 0 69.333 -8.83301 94 -26.5s37 -41.5 37 -71.5c0 -34.667 -17.333 -59 -52 -73
c44 -15.333 66 -44.333 66 -87c0 -34 -13.333 -60.5 -40 -79.5s-62 -28.5 -106 -28.5zM170 59c16 0 29 4.5 39 13.5s15 21.5 15 37.5c0 15.333 -5 27.333 -15 36s-23 13 -39 13c-15.333 0 -28.166 -4.5 -38.499 -13.5s-15.5 -21.167 -15.5 -36.5s5.16699 -27.5 15.5 -36.5
s23.166 -13.5 38.499 -13.5zM171 212c13.333 0 24.333 4 33 12s13 18.333 13 31s-4.5 22.834 -13.5 30.501s-19.833 11.5 -32.5 11.5c-13.333 0 -24.5 -3.83301 -33.5 -11.5s-13.5 -18.167 -13.5 -31.5c0 -12.667 4.66699 -22.834 14 -30.501s20.333 -11.5 33 -11.5z" />
    </font>
</defs>
</svg>
