<?xml version="1.0" standalone="no"?>
<!DOCTYPE svg PUBLIC "-//W3C//DTD SVG 1.1//EN" "http://www.w3.org/Graphics/SVG/1.1/DTD/svg11.dtd" >
<svg>
<metadata>
Created by FontForge 20090914 at Sat Jul 16 16:23:33 2022
 By www-data
Copyright (c) 2008 by Optimo. All rights reserved.
</metadata>
<defs>
<font id="Theinhardt-Lt" horiz-adv-x="773" >
  <font-face 
    font-family="Theinhardt Light"
    font-weight="300"
    font-stretch="normal"
    units-per-em="1000"
    panose-1="2 11 3 3 2 2 2 2 2 4"
    ascent="680"
    descent="-320"
    x-height="475.999"
    cap-height="680"
    bbox="-51 -278.003 1221.99 918"
    underline-thickness="50"
    underline-position="-100"
    unicode-range="U+0020-U+FB02"
  />
<missing-glyph horiz-adv-x="500" 
d="M450 54h-400v395h400v-395zM388 394h-276v-285h276v285z" />
    <glyph glyph-name="IJ" unicode="IJ" horiz-adv-x="704" 
d="M145 680v-680h-63v680h63zM249 161l60.998 18.002c0.666992 -46 11.334 -80.833 32.001 -104.5s53.667 -35.5 99 -35.5c47.333 0 81 15.333 101 46c15.333 23.333 23 61.666 23 114.999v480h63v-467c0 -70.667 -9.66699 -122.334 -29 -155.001
c-28.667 -48.667 -82 -73 -160 -73c-123.333 0 -186.666 58.667 -189.999 176z" />
    <glyph glyph-name="ij" unicode="ij" horiz-adv-x="422" 
d="M136 476v-476h-59v476h59zM136 680v-98h-59v98h59zM290 476h59v-485c0 -55.333 -1.33301 -93 -4 -113s-9 -36.667 -19 -50c-15.333 -20 -41 -30 -77 -30c-29.333 0 -56.333 6.66699 -81 20v61c26.667 -18 51.667 -27 75 -27c22.667 0 36.667 8.66699 42 26
c3.33301 10 5 63 5 159v439zM349 680v-98h-59v98h59z" />
    <glyph glyph-name="napostrophe" unicode="&#x22;n" horiz-adv-x="520" 
d="M447 269v-268.999h-59v256c0 76 -10 124.667 -30 146c-18.667 20.667 -47 31 -85 31c-40.667 0 -73 -13 -97 -39c-26.667 -27.333 -40 -64.333 -40 -111v-283h-59v476h59v-79c10 25.333 28.167 46.666 54.5 63.999s58.5 26 96.5 26c50.667 0 90 -15.333 118 -46
c16 -18 27 -38.5 33 -61.5s9 -59.833 9 -110.5zM32 774.001h82.001v-64c0 -36 -5 -65.333 -15 -88c-14.667 -32 -38.334 -52.333 -71.001 -61v43c16.667 6 28 15 34 27s9 28.333 9 49h-39v94z" />
    <glyph glyph-name="fi" unicode="fi" horiz-adv-x="519" 
d="M442 475v-475h-59v475h59zM442 680v-98h-59v98h59zM283 476l0.000976562 -46.001h-108v-430h-59v430h-108v46h108v108c0 35.333 7.33301 61.333 22 78c17.333 20 45.333 30 84 30c19.333 0 39.666 -3 60.999 -9v-54c-21.333 6.66699 -40.333 10 -57 10
c-15.333 0 -27.333 -3.66699 -36 -11c-10 -9.33301 -15 -26.666 -15 -51.999v-100h108z" />
    <glyph glyph-name="fl" unicode="fl" horiz-adv-x="519" 
d="M442 680v-680h-59v680h59zM283 476l0.000976562 -46.001h-108v-430h-59v430h-108v46h108v108c0 35.333 7.33301 61.333 22 78c17.333 20 45.333 30 84 30c19.333 0 39.666 -3 60.999 -9v-54c-21.333 6.66699 -40.333 10 -57 10c-15.333 0 -27.333 -3.66699 -36 -11
c-10 -9.33301 -15 -26.666 -15 -51.999v-100h108z" />
    <glyph glyph-name=".notdef" horiz-adv-x="500" 
d="M450 54h-400v395h400v-395zM388 394h-276v-285h276v285z" />
    <glyph glyph-name="space" unicode=" " horiz-adv-x="275" 
 />
    <glyph glyph-name="exclam" unicode="!" horiz-adv-x="234" 
d="M149 356l-10 -180h-45l-9 180v324h64v-324zM79 114h76v-114h-76v114z" />
    <glyph glyph-name="quotedbl" unicode="&#x22;" horiz-adv-x="314" 
d="M130 603l-21 -196h-30l-19 196v77h70v-77zM254 603l-21 -196h-30l-19 196v77h70v-77z" />
    <glyph glyph-name="numbersign" unicode="#" horiz-adv-x="590" 
d="M601 472v-57h-176l-28 -166h183v-56h-194l-31 -193h-59l32 193h-128l-31 -193h-59l32 193h-152v56h162l28 166h-169v57h178l36 208h59l-36 -208h127l36 208h59l-36 -208h167zM238 415l-27 -166h127l28 166h-128z" />
    <glyph glyph-name="dollar" unicode="$" horiz-adv-x="590" 
d="M512 570l-48 -40.002c-38.667 52.667 -85.667 83.667 -141 93v-246l30 -6c62.667 -13.333 109.5 -33.333 140.5 -60s46.5 -65.667 46.5 -117c0 -54 -19.333 -98.667 -58 -134s-91.667 -55.333 -159 -60v-99h-60v99c-58 5.33301 -106.667 22.333 -146 51s-68 63 -86 103
l55 36c13.333 -34 35 -63.667 65 -89s67.333 -40.666 112 -45.999v273l-16 4c-28 6 -51.667 12.667 -71 20s-38.333 17.333 -57 30s-32.667 29.167 -42 49.5s-14 44.5 -14 72.5c0 48.667 18.333 89.167 55 121.5s85 50.5 145 54.5v103h60v-104
c82 -9.33301 145 -45.666 189 -108.999zM332 313.998l-9 1.99902v-262c48 4 85.167 18.167 111.5 42.5s39.5 55.833 39.5 94.5c0 34 -11.333 60.333 -34 79s-58.667 33.334 -108 44.001zM127 508.997c0 -34.667 10.5 -60.5 31.5 -77.5s55.167 -30.833 102.5 -41.5l2 -1v236
c-40 -3.33301 -72.667 -15.5 -98 -36.5s-38 -47.5 -38 -79.5z" />
    <glyph glyph-name="percent" unicode="%" horiz-adv-x="895" 
d="M336 470c0 -58 -12.6709 -107.331 -38.0039 -147.998s-62.666 -61 -111.999 -61c-35.333 0 -64.666 10.5 -87.999 31.5s-39.333 46.5 -48 76.5s-13 63.667 -13 101c0 28 2.5 54.167 7.5 78.5s12.833 47.666 23.5 69.999s26.334 39.833 47.001 52.5s45 19 73 19
c28.667 0 53.334 -6.66699 74.001 -20s36 -31.333 46 -54s17.167 -45.834 21.5 -69.501s6.5 -49.167 6.5 -76.5zM281.996 469.002c0 53.333 -7.83301 95.833 -23.5 127.5s-39.5 47.5 -71.5 47.5c-31.333 0 -55 -15.667 -71 -47s-24 -71.333 -24 -120
c0 -48 7.83301 -88 23.5 -120s39.5 -48 71.5 -48c33.333 0 57.5 14.833 72.5 44.5s22.5 68.167 22.5 115.5zM641.996 680.002l-354 -680h-58l356 680h56zM842.996 197.002c0 -58 -12.6709 -107.331 -38.0039 -147.998s-62.666 -61 -111.999 -61
c-35.333 0 -64.666 10.5 -87.999 31.5s-39.333 46.5 -48 76.5s-13 63.667 -13 101c0 28 2.5 54.167 7.5 78.5s12.833 47.666 23.5 69.999s26.334 39.833 47.001 52.5s45 19 73 19c28.667 0 53.334 -6.66699 74.001 -20s36 -31.333 46 -54s17.167 -45.834 21.5 -69.501
s6.5 -49.167 6.5 -76.5zM788.992 196.004c0 53.333 -7.83301 95.833 -23.5 127.5s-39.5 47.5 -71.5 47.5c-31.333 0 -55 -15.667 -71 -47s-24 -71.333 -24 -120c0 -48 7.83301 -88 23.5 -120s39.5 -48 71.5 -48c33.333 0 57.5 14.833 72.5 44.5s22.5 68.167 22.5 115.5z" />
    <glyph glyph-name="ampersand" unicode="&#x26;" horiz-adv-x="602" 
d="M521 0l-84.001 94.9971c-49.333 -71.333 -118 -107 -206 -107c-54 0 -101.5 16.5 -142.5 49.5s-61.5 77.833 -61.5 134.5c0 50.667 14.5 91.834 43.5 123.501s71.833 61.834 128.5 90.501c-8 10 -15.333 18.667 -22 26c-40.667 50 -61 97 -61 141
c0 37.333 14 69.5 42 96.5s65.667 40.5 113 40.5c48.667 0 86.334 -13 113.001 -39s40 -57.333 40 -94c0 -73.333 -46 -134.666 -138 -183.999l148 -179c18 42 30.667 85.333 38 130l55 -15c-10 -60.667 -28.667 -115 -56 -163l127 -146h-77zM401.999 138.997
l-171.001 206.999c-22.667 -12.667 -40.667 -23.5 -54 -32.5s-27.666 -20.333 -42.999 -34s-26.5 -29 -33.5 -46s-10.5 -35.5 -10.5 -55.5c0 -42 14.5 -75 43.5 -99s63.167 -36 102.5 -36c34 0 65.667 8.33301 95 25s53 40.334 71 71.001zM233.998 439.996l21.002 -26.998
c71.333 35.333 107 81 107 137c0 28 -8.66699 49.667 -26 65s-39 23 -65 23c-27.333 0 -49.5 -7.5 -66.5 -22.5s-25.5 -35.167 -25.5 -60.5c0 -6.66699 0.666992 -13.334 2 -20.001s2.66602 -12.5 3.99902 -17.5s3.66602 -10.667 6.99902 -17l8 -15
c2 -3.66699 5 -8.33398 9 -14.001s6.83301 -9.5 8.5 -11.5l9 -11c4.33301 -5.33301 6.83301 -8.33301 7.5 -9z" />
    <glyph glyph-name="quotesingle" unicode="'" horiz-adv-x="198" 
d="M136 604l-23 -197h-30l-21 197v76h74v-76z" />
    <glyph glyph-name="parenleft" unicode="(" horiz-adv-x="227" 
d="M221 -151l-49 -9.00195c-83.333 132 -125 271.333 -125 418c0 147.333 41.333 288 124 422l50 -7c-74.667 -127.333 -112 -264.666 -112 -411.999s37.333 -284.666 112 -411.999z" />
    <glyph glyph-name="parenright" unicode=")" horiz-adv-x="227" 
d="M54 -160l-49 9.00195c74.667 127.333 112 264.666 112 411.999s-37.333 284.666 -112 411.999l50 7c82.667 -134 124 -274.667 124 -422c0 -146.667 -41.667 -286 -125 -418z" />
    <glyph glyph-name="asterisk" unicode="*" horiz-adv-x="355" 
d="M202 680l-2 -150l144 49l14 -46l-146 -44l93 -123l-39 -28l-88 124l-89 -124l-37 29l92 122l-147 45l16 45l142 -49l-1 150h48z" />
    <glyph glyph-name="plus" unicode="+" 
d="M416 269v-269h-57v269h-265v56h265v268h57v-268h264v-56h-264z" />
    <glyph glyph-name="comma" unicode="," horiz-adv-x="176" 
d="M48 114l82.001 -0.000976562v-106c0 -36 -5 -65.333 -15 -88c-14.667 -32 -38.334 -52.333 -71.001 -61v43c28.667 10.667 43 40.334 43 89.001v9h-39v114z" />
    <glyph glyph-name="hyphen" unicode="-" horiz-adv-x="357" 
d="M317 298v-59h-277v59h277z" />
    <glyph glyph-name="period" unicode="." horiz-adv-x="178" 
d="M48 114h82v-114h-82v114z" />
    <glyph glyph-name="slash" unicode="/" horiz-adv-x="439" 
d="M368 679h62l-358 -679h-63z" />
    <glyph glyph-name="zero" unicode="0" horiz-adv-x="590" 
d="M295 638c-60 0 -106 -27.5 -138 -82.5s-48 -126.167 -48 -213.5c0 -40.667 3 -78 9 -112s15.833 -65.5 29.5 -94.5s33 -51.667 58 -68s54.833 -24.5 89.5 -24.5s64.5 8.16699 89.5 24.5s44.167 39 57.5 68s23 60.333 29 94s9 71.167 9 112.5
c0 87.333 -15.833 158.5 -47.5 213.5s-77.5 82.5 -137.5 82.5zM295 -12c-44.667 0 -83.834 9.66699 -117.501 29s-60.167 45.666 -79.5 78.999s-33.666 70.333 -42.999 111s-14 85 -14 133c0 104 21.5 188.667 64.5 254s106.167 98 189.5 98
c82.667 0 145.667 -32.667 189 -98s65 -150 65 -254c0 -47.333 -4.66699 -91.5 -14 -132.5s-23.666 -78.167 -42.999 -111.5s-45.833 -59.666 -79.5 -78.999s-72.834 -29 -117.501 -29z" />
    <glyph glyph-name="one" unicode="1" horiz-adv-x="590" 
d="M364 0h-61.002v523c-27.333 -27.333 -75.666 -41 -144.999 -41c-14 0 -24.667 0.333008 -32 1v53h16c50.667 0 89.334 9.66699 116.001 29c32.667 24 50 62.667 52 116h54v-681z" />
    <glyph glyph-name="two" unicode="2" horiz-adv-x="590" 
d="M165 369l-72.001 11.001c-15.333 32.667 -23 68.667 -23 108c0 58 19.833 106.5 59.5 145.5s92.167 58.5 157.5 58.5c71.333 0 126.166 -20.833 164.499 -62.5s57.5 -94.5 57.5 -158.5c0 -34 -5.16699 -66 -15.5 -96s-26.166 -58.167 -47.499 -84.5
s-41.166 -48.333 -59.499 -66s-42.5 -38.5 -72.5 -62.5c-63.333 -50.667 -113 -86.334 -149 -107.001h347v-55h-434v55c59.333 39.333 137.666 99.666 234.999 180.999c43.333 39.333 76 76 98 110s33 75 33 123c0 52 -15.167 93.333 -45.5 124s-68.166 46 -113.499 46
c-48 0 -85.333 -14.667 -112 -44s-40 -65.666 -40 -108.999c0 -48 10.667 -87 32 -117z" />
    <glyph glyph-name="three" unicode="3" horiz-adv-x="590" 
d="M131 504l-58.001 21.002c0 14.667 3.83301 30.834 11.5 48.501s19.167 35.667 34.5 54s37.5 33.666 66.5 45.999s62.167 18.5 99.5 18.5c66.667 0 118.334 -16.833 155.001 -50.5s55 -75.5 55 -125.5c0 -43.333 -11.833 -78 -35.5 -104s-54.834 -42 -93.501 -48
c40.667 -8 75.334 -26.5 104.001 -55.5s43 -68.5 43 -118.5c0 -59.333 -21 -107.833 -63 -145.5s-97.667 -56.5 -167 -56.5c-66 0 -119.333 17 -160 51s-62 80.667 -64 140l60 19c2.66699 -54.667 19.167 -94.334 49.5 -119.001s68.833 -37 115.5 -37
c45.333 0 83.833 13.667 115.5 41s47.5 63.333 47.5 108c0 58.667 -24.333 98.667 -73 120c-26.667 13.333 -76.667 20 -150 20h-51v53h43c70 0 120.667 7.66699 152 23c42.667 19.333 64 55 64 107c0 35.333 -13 65 -39 89s-62 36 -108 36
c-47.333 0 -84.333 -12.833 -111 -38.5s-41 -57.834 -43 -96.501z" />
    <glyph glyph-name="four" unicode="4" horiz-adv-x="590" 
d="M425 183v-183h-61v183h-313v43l318 458h56v-446h124v-55h-124zM123 238h241v226c0 64.667 1.33301 110 4 136h-1c-11.333 -24 -39 -68 -83 -132z" />
    <glyph glyph-name="five" unicode="5" horiz-adv-x="590" 
d="M164 625l-14.999 -235c12.667 19.333 32.5 36 59.5 50s58.5 21 94.5 21c64 0 116.5 -20.833 157.5 -62.5s61.5 -97.5 61.5 -167.5s-20.333 -128 -61 -174s-97.334 -69 -170.001 -69c-58.667 0 -107.667 14.5 -147 43.5s-64.333 70.167 -75 123.5l56 32
c6 -38.667 23 -72.5 51 -101.5s66.333 -43.5 115 -43.5c50 0 89.833 17 119.5 51s44.5 80 44.5 138c0 50.667 -14 92.5 -42 125.5s-67.667 49.5 -119 49.5c-44 0 -79 -12 -105 -36s-42.333 -56.333 -49 -97l-54 12l22 395h368v-55h-312z" />
    <glyph glyph-name="six" unicode="6" horiz-adv-x="590" 
d="M520 535l-58.0029 -22c-2.66699 10.667 -5.16699 19.667 -7.5 27s-7.16602 18 -14.499 32s-15.666 25.167 -24.999 33.5s-22.333 16 -39 23s-35.334 10.5 -56.001 10.5c-59.333 0 -104.166 -24.833 -134.499 -74.5s-47.166 -118.5 -50.499 -206.5
c16.667 26 41.834 47.667 75.501 65s71.167 26 112.5 26c60.667 0 111.667 -19.667 153 -59s62 -93.666 62 -162.999c0 -65.333 -20.333 -121.5 -61 -168.5s-95.334 -70.5 -164.001 -70.5c-74.667 0 -134 29 -178 87s-66 145.333 -66 262c0 112.667 21.833 200 65.5 262
s106.5 93 188.5 93c32.667 0 61.667 -5.16699 87 -15.5s45.333 -24 60 -41s26 -33.833 34 -50.5s13.333 -33.334 16 -50.001zM135.997 286c3.33301 -76 20.333 -135.668 51 -179.001s72.667 -65 126 -65c45.333 0 83.333 16.333 114 49s46 76 46 130
c0 55.333 -15.5 98 -46.5 128s-69.167 45 -114.5 45c-40 0 -76.667 -11.167 -110 -33.5s-55.333 -47.166 -66 -74.499z" />
    <glyph glyph-name="seven" unicode="7" horiz-adv-x="451" 
d="M471 680v-51.001c-62.667 -96.667 -111.667 -188.667 -147 -276c-42.667 -104.667 -71.667 -222.334 -87 -353.001h-69c12 120.667 44 241.334 96 362.001c37.333 86.667 83.333 174.334 138 263.001h-330v-155h-57v210h456z" />
    <glyph glyph-name="eight" unicode="8" horiz-adv-x="590" 
d="M295 692c68 0 121.167 -16.334 159.5 -49.001s57.5 -74.667 57.5 -126c0 -37.333 -11 -69.666 -33 -96.999s-49.333 -46 -82 -56c89.333 -32.667 134 -91.334 134 -176.001c0 -56 -20 -103.333 -60 -142s-98.667 -58 -176 -58c-78 0 -136.833 19.333 -176.5 58
s-59.5 86 -59.5 142c0 48 13.333 86.333 40 115s58 49.334 94 62.001c-33.333 9.33301 -60.833 27.5 -82.5 54.5s-32.5 59.5 -32.5 97.5c0 51.333 19.167 93.333 57.5 126s91.5 49 159.5 49zM295 41.999c54 0 95.667 13.833 125 41.5s44 62.5 44 104.5
c0 44 -15.167 79.167 -45.5 105.5s-71.5 39.5 -123.5 39.5s-93.333 -13.167 -124 -39.5s-46 -61.5 -46 -105.5c0 -42 14.833 -76.833 44.5 -104.5s71.5 -41.5 125.5 -41.5zM295 386.999c48 0 85.502 12.167 112.502 36.5s40.5 54.5 40.5 90.5c0 38 -13.833 68.5 -41.5 91.5
s-64.834 34.5 -111.501 34.5s-83.834 -11.5 -111.501 -34.5s-41.5 -53.5 -41.5 -91.5c0 -36 13.5 -66.167 40.5 -90.5s64.5 -36.5 112.5 -36.5z" />
    <glyph glyph-name="nine" unicode="9" horiz-adv-x="590" 
d="M80 145l58.002 22c3.33301 -14 7 -25.833 11 -35.5s11 -22.5 21 -38.5s24.5 -28.5 43.5 -37.5s41.167 -13.5 66.5 -13.5c59.333 0 104.166 24.667 134.499 74s47.166 118 50.499 206c-16.667 -26 -41.834 -47.667 -75.501 -65s-71.167 -26 -112.5 -26
c-60.667 0 -111.667 19.667 -153 59s-62 93.666 -62 162.999c0 65.333 20.333 121.5 61 168.5s95.334 70.5 164.001 70.5c74.667 0 134 -29 178 -87s66 -145.333 66 -262c0 -112.667 -21.833 -200 -65.5 -262s-106.5 -93 -188.5 -93c-32.667 0 -61.667 5.16699 -87 15.5
s-45.333 24 -60 41s-26 33.833 -34 50.5s-13.333 33.334 -16 50.001zM464.002 396c-3.33301 75.333 -20.333 134.667 -51 178s-72.667 65 -126 65c-45.333 0 -83.333 -16.333 -114 -49s-46 -76 -46 -130c0 -55.333 15.5 -98 46.5 -128s69.167 -45 114.5 -45
c40 0 76.667 11.167 110 33.5s55.333 47.5 66 75.5z" />
    <glyph glyph-name="colon" unicode=":" horiz-adv-x="212" 
d="M80 114h82v-114h-82v114zM80 476h82v-114h-82v114z" />
    <glyph glyph-name="semicolon" unicode=";" horiz-adv-x="208" 
d="M80 476h82v-114h-82v114zM80 114l82.001 -0.000976562v-106c0 -36 -5 -65.333 -15 -88c-14.667 -32 -38.334 -52.333 -71.001 -61v43c28.667 10.667 43 40.334 43 89.001v9h-39v114z" />
    <glyph glyph-name="less" unicode="&#x3c;" 
d="M723 47v-63l-677 319v66l677 317v-63l-612 -287z" />
    <glyph glyph-name="equal" unicode="=" 
d="M723 231v-56h-673v56h673zM723 406v-57h-673v57h673z" />
    <glyph glyph-name="greater" unicode="&#x3e;" 
d="M50 -16v63l613 290l-613 286v63l677 -317v-66z" />
    <glyph glyph-name="question" unicode="?" horiz-adv-x="438" 
d="M227 177v-28.999h-59v39c0 29.333 4 53 12 71s27.333 40.333 58 67l37 33c48.667 44.667 73 93 73 145c0 38 -12.167 69.667 -36.5 95s-57.5 38 -99.5 38c-41.333 0 -73.666 -13.167 -96.999 -39.5s-35 -58.5 -35 -96.5c0 -28 8.33301 -59.333 25 -94l-69 14
c-10 30 -15 57.667 -15 83c0 54.667 17.5 99.167 52.5 133.5s81.833 51.5 140.5 51.5c60 0 107.5 -17.167 142.5 -51.5s52.5 -77.833 52.5 -130.5c0 -38.667 -7.83301 -72 -23.5 -100s-38.834 -56 -69.501 -84l-23 -20c-30 -27.333 -48.5 -47.333 -55.5 -60
s-10.5 -34.334 -10.5 -65.001zM159 104.001h79v-104h-79v104z" />
    <glyph glyph-name="at" unicode="@" horiz-adv-x="863" 
d="M530 243v79c-4.66699 -1.33301 -18 -4 -40 -8l-69 -13c-64 -12.667 -96 -39.667 -96 -81c0 -25.333 7.83301 -45 23.5 -59s37.167 -21 64.5 -21c34 0 62 8.66699 84 26s33 43 33 77zM615 140c30.667 0 57.668 19.668 81.001 59.001s35 90.333 35 153
c0 81.333 -25.5 150.666 -76.5 207.999s-118.833 86 -203.5 86c-95.333 0 -173.333 -31.833 -234 -95.5s-91 -146.834 -91 -249.501c0 -102 31.167 -184.5 93.5 -247.5s141.5 -94.5 237.5 -94.5c112 0 204.333 46 277 138l28 -40c-75.333 -96.667 -177 -145 -305 -145
c-116 0 -209.5 35.833 -280.5 107.5s-106.5 165.5 -106.5 281.5c0 116.667 35.667 211 107 283s162.666 108 273.999 108c68.667 0 128.834 -16 180.501 -48s89.834 -72.833 114.501 -122.5s37 -103.5 37 -161.5c0 -84 -17.5 -149.5 -52.5 -196.5s-76.5 -70.5 -124.5 -70.5
c-44 0 -68.667 19.333 -74 58c-9.33301 -16.667 -25.5 -30.834 -48.5 -42.501s-48.833 -17.5 -77.5 -17.5c-42.667 0 -76.834 11.333 -102.501 34s-38.5 54.334 -38.5 95.001c0 37.333 12.167 65.5 36.5 84.5s59.833 32.833 106.5 41.5l104 20
c7.33301 1.33301 12.166 3 14.499 5s3.5 6.66699 3.5 14v13c0 28.667 -7.5 49.834 -22.5 63.501s-40.5 20.5 -76.5 20.5c-66 0 -99.667 -33.333 -101 -100l-54 13c-0.666992 42 13.833 75.167 43.5 99.5s68.167 36.5 115.5 36.5c48 0 84.833 -9.5 110.5 -28.5
s38.5 -54.167 38.5 -105.5v-201c0 -18.667 1.83301 -32.667 5.5 -42s12.167 -14 25.5 -14z" />
    <glyph glyph-name="A" unicode="A" horiz-adv-x="584" 
d="M144 205l-74 -205h-67l259 680h62l257 -680h-68l-76 205h-293zM415 263l-95 250c-12 29.333 -21.667 57 -29 83h-1c-10.667 -33.333 -20.667 -61.333 -30 -84l-95 -249h250z" />
    <glyph glyph-name="B" unicode="B" horiz-adv-x="655" 
d="M146 324v-268.001h205c64.667 0 110 9.66699 136 29c34.667 24.667 52 60 52 106c0 44.667 -17.333 79.334 -52 104.001c-26 19.333 -72 29 -138 29h-203zM516 500.999c0 50.667 -22.333 86.333 -67 107c-25.333 10.667 -62.666 16 -111.999 16h-191v-244h191
c51.333 0 88.666 5.33301 111.999 16c20 8.66699 36.167 22.167 48.5 40.5s18.5 39.833 18.5 64.5zM583 505.998c0 -36.667 -9.83301 -67.5 -29.5 -92.5s-48.167 -43.167 -85.5 -54.5c43.333 -10 77 -29.667 101 -59s36 -65.666 36 -108.999
c0 -74.667 -30.667 -128.334 -92 -161.001c-36 -20 -89 -30 -159 -30h-272v680h258c42.667 0 78 -2.66699 106 -8s53.333 -17.333 76 -36c40.667 -34 61 -77.333 61 -130z" />
    <glyph glyph-name="C" unicode="C" horiz-adv-x="626" 
d="M588 528l-54.9961 -36.001c-17.333 42.667 -42.333 77.334 -75 104.001s-73.334 40 -122.001 40c-68 0 -122 -27.167 -162 -81.5s-60 -125.833 -60 -214.5s20 -160.167 60 -214.5s94 -81.5 162 -81.5c51.333 0 93.5 13.5 126.5 40.5s57.167 62.167 72.5 105.5l56 -30
c-50 -114.667 -135 -172 -255 -172c-90.667 0 -161.334 31.667 -212.001 95s-76 149 -76 257c0 107.333 25.667 192.833 77 256.5s121.666 95.5 210.999 95.5c65.333 0 118.666 -15.667 159.999 -47s72 -70.333 92 -117z" />
    <glyph glyph-name="D" unicode="D" horiz-adv-x="662" 
d="M237 0h-155.001v680h176c52 0 93.333 -2.16699 124 -6.5s59 -13.5 85 -27.5c48.667 -26 85.334 -66.667 110.001 -122s37 -116 37 -182c0 -117.333 -33 -208 -99 -272c-32.667 -32 -67.5 -51.667 -104.5 -59s-94.833 -11 -173.5 -11zM144.999 624v-568h109
c38.667 0 67.167 0.5 85.5 1.5s38.833 5.16699 61.5 12.5s42.334 18.333 59.001 33c25.333 22 46.166 54 62.499 96s24.5 88.667 24.5 140c0 49.333 -7.5 95 -22.5 137s-36.5 75 -64.5 99c-24.667 22 -52.5 35.667 -83.5 41s-79.5 8 -145.5 8h-86z" />
    <glyph glyph-name="E" unicode="E" horiz-adv-x="584" 
d="M548 56v-56h-466v680h446v-56h-383v-246h347v-57h-347v-265h403z" />
    <glyph glyph-name="F" unicode="F" horiz-adv-x="515" 
d="M146 0h-64v680h438v-56h-374v-244h338v-56h-338v-324z" />
    <glyph glyph-name="G" unicode="G" horiz-adv-x="662" 
d="M336 44c72 0 124.336 23.332 157.003 69.999c28 39.333 42 95.333 42 168v6h-247v56h302v-344h-56v93c-15.333 -28 -39.666 -52.5 -72.999 -73.5s-75 -31.5 -125 -31.5c-90.667 0 -161.334 31.667 -212.001 95s-76 149 -76 257c0 107.333 25.667 192.833 77 256.5
s121.666 95.5 210.999 95.5c65.333 0 118.666 -15.667 159.999 -47s72 -70.333 92 -117l-55 -36c-17.333 42.667 -42.333 77.334 -75 104.001s-73.334 40 -122.001 40c-68 0 -122 -27.167 -162 -81.5s-60 -125.833 -60 -214.5s20 -160.167 60 -214.5s94 -81.5 162 -81.5z
" />
    <glyph glyph-name="H" unicode="H" horiz-adv-x="688" 
d="M606 680v-680h-63v324h-398v-324h-63v680h63v-300h398v300h63z" />
    <glyph glyph-name="I" unicode="I" horiz-adv-x="227" 
d="M145 680v-680h-63v680h63z" />
    <glyph glyph-name="J" unicode="J" horiz-adv-x="477" 
d="M22 161l60.998 18.002c0.666992 -46 11.334 -80.833 32.001 -104.5s53.667 -35.5 99 -35.5c47.333 0 81 15.333 101 46c15.333 23.333 23 61.666 23 114.999v480h63v-467c0 -70.667 -9.66699 -122.334 -29 -155.001c-28.667 -48.667 -82 -73 -160 -73
c-123.333 0 -186.666 58.667 -189.999 176z" />
    <glyph glyph-name="K" unicode="K" horiz-adv-x="614" 
d="M331 412l287 -412h-79l-256 367l-144 -145v-222h-63v680h63v-380l374 380h84z" />
    <glyph glyph-name="L" unicode="L" horiz-adv-x="540" 
d="M520 56v-56h-438v680h63v-624h375z" />
    <glyph glyph-name="M" unicode="M" horiz-adv-x="775" 
d="M585 448l-175.001 -448h-38l-184 444c-22 52.667 -38.333 99.334 -49 140.001h-1c4.66699 -36 7 -87.667 7 -155v-429h-63v680h74l199 -480c22.667 -54.667 35.334 -89.334 38.001 -104.001h1c4.66699 24.667 15.667 59 33 103l189 481h77v-680h-63v411
c0 85.333 2 147.333 6 186h-1c-12 -45.333 -28.667 -95 -50 -149z" />
    <glyph glyph-name="N" unicode="N" horiz-adv-x="690" 
d="M145 680l345.999 -493.998c32 -44.667 50.667 -75.334 56 -92.001h1c-2 24 -3 57 -3 99v487h63v-680h-63l-345 494c-33.333 47.333 -52.666 78.666 -57.999 93.999h-1c2.66699 -32 4 -65.333 4 -100v-488h-63v680h63z" />
    <glyph glyph-name="O" unicode="O" horiz-adv-x="674" 
d="M48 340c0 107.333 25.833 192.833 77.5 256.5s122.167 95.5 211.5 95.5s159.833 -31.833 211.5 -95.5s77.5 -149.167 77.5 -256.5c0 -106.667 -25.833 -192 -77.5 -256s-122.167 -96 -211.5 -96s-159.833 32 -211.5 96s-77.5 149.333 -77.5 256zM115 340
c0 -88.667 20.3291 -160.334 60.9961 -215.001s94.334 -82 161.001 -82s120.334 27.333 161.001 82s61 126.334 61 215.001s-20.167 160.334 -60.5 215.001s-94.166 82 -161.499 82s-121.166 -27.333 -161.499 -82s-60.5 -126.334 -60.5 -215.001z" />
    <glyph glyph-name="P" unicode="P" horiz-adv-x="604" 
d="M332 301h-186v-301h-64v680h250c72 0 126.333 -11.667 163 -35c56.667 -34 85 -85.667 85 -155c0 -68.667 -28.333 -120 -85 -154c-36.667 -23.333 -91 -35 -163 -35zM146 624v-267h172c53.333 0 94.666 6.33301 123.999 19c46.667 22 70 60.333 70 115
s-23.333 92.667 -70 114c-27.333 12.667 -68.666 19 -123.999 19h-172z" />
    <glyph glyph-name="Q" unicode="Q" horiz-adv-x="685" 
d="M48 340c0 107.333 25.834 192.833 77.501 256.5s122.167 95.5 211.5 95.5s159.833 -31.833 211.5 -95.5s77.5 -149.167 77.5 -256.5c0 -98.667 -22 -178.667 -66 -240l77 -71l-43 -46l-75 70c-48.667 -43.333 -109.334 -65 -182.001 -65c-89.333 0 -159.833 32 -211.5 96
s-77.5 149.333 -77.5 256zM115.001 340c0 -88.667 20.3291 -160.334 60.9961 -215.001s94.334 -82 161.001 -82s120.334 27.333 161.001 82s61 126.334 61 215.001s-20.167 160.334 -60.5 215.001s-94.166 82 -161.499 82s-121.166 -27.333 -161.499 -82
s-60.5 -126.334 -60.5 -215.001z" />
    <glyph glyph-name="R" unicode="R" horiz-adv-x="624" 
d="M535 0l-210 300.999h-180v-301h-63v680h268c72 0 126.333 -11.667 163 -35c56.667 -34 85 -85.667 85 -155c0 -68.667 -28.333 -120 -85 -154c-29.333 -19.333 -67 -30.666 -113 -33.999l216 -302h-81zM145 623.999v-267h191c53.333 0 94.666 6.33301 123.999 19
c46.667 22 70 60.333 70 115s-23.333 92.667 -70 114c-27.333 12.667 -68.666 19 -123.999 19h-191z" />
    <glyph glyph-name="S" unicode="S" horiz-adv-x="585" 
d="M505 589l-50.001 -42.998c-45.333 59.333 -105.666 89 -180.999 89c-46.667 0 -85 -11.167 -115 -33.5s-45 -51.5 -45 -87.5c0 -35.333 10.833 -61.833 32.5 -79.5s56.5 -31.834 104.5 -42.501l91 -20c64 -14 111.833 -34.5 143.5 -61.5s47.5 -67.167 47.5 -120.5
c0 -59.333 -22.667 -107.833 -68 -145.5s-106.333 -56.5 -183 -56.5c-68.667 0 -125.667 15 -171 45s-78 66.667 -98 110l56 37c14.667 -38.667 40.334 -71 77.001 -97s82.334 -39 137.001 -39c57.333 0 102.166 12.833 134.499 38.5s48.5 60.167 48.5 103.5
c0 36 -11.5 63.5 -34.5 82.5s-59.833 33.833 -110.5 44.5l-85 19c-28.667 6 -53 12.667 -73 20s-39.333 17.5 -58 30.5s-32.834 30 -42.501 51s-14.5 46.167 -14.5 75.5c0 53.333 21.333 97.166 64 131.499s97.667 51.5 165 51.5c100 0 176 -34.333 228 -103z" />
    <glyph glyph-name="T" unicode="T" horiz-adv-x="518" 
d="M10 624v56h498v-56h-218v-624h-63v624h-217z" />
    <glyph glyph-name="U" unicode="U" horiz-adv-x="661" 
d="M331 -13c-65.333 0 -119.5 14.667 -162.5 44s-71.167 72.333 -84.5 129c-6 25.333 -9 65.333 -9 120v400h63v-405c0 -64.667 6.33301 -111 19 -139c27.333 -62 85.333 -93 174 -93c88 0 145.667 31 173 93c12.667 28 19 74.333 19 139v405h63v-400
c0 -53.333 -2.66699 -93.333 -8 -120c-13.333 -56.667 -41.5 -99.667 -84.5 -129s-97.167 -44 -162.5 -44z" />
    <glyph glyph-name="V" unicode="V" horiz-adv-x="559" 
d="M73 680l179 -529l27 -75l25 74l185 530h65l-244 -680h-71l-234 680h68z" />
    <glyph glyph-name="W" unicode="W" horiz-adv-x="851" 
d="M643 0l-60.999 -0.000976562l-117 408c-16 53.333 -30 103 -42 149c-10.667 -42.667 -24.334 -93 -41.001 -151l-118 -406h-67l-182 680h67l123 -467l12 -43.5l11.5 -43l6.5 -25.5c4 17.333 18 67 42 149l121 430h52l132 -466l31 -112c6 28.667 19.333 78.334 40 149.001
l118 429h65z" />
    <glyph glyph-name="X" unicode="X" horiz-adv-x="571" 
d="M501 0l-216 307l-215 -307h-75l254 361v-1l-226 320h78l188 -269l188 269h77l-230 -319l252 -361h-75z" />
    <glyph glyph-name="Y" unicode="Y" horiz-adv-x="549" 
d="M300 279v-279h-63v279l-246 401h76l205 -337l212 337h74z" />
    <glyph glyph-name="Z" unicode="Z" horiz-adv-x="561" 
d="M531 56v-56h-511v43l426 581h-403v56h483v-47l-421 -577h426z" />
    <glyph glyph-name="bracketleft" unicode="[" horiz-adv-x="258" 
d="M238 -110v-48h-168v838h168v-48h-109v-742h109z" />
    <glyph glyph-name="backslash" unicode="\" horiz-adv-x="441" 
d="M10 680h62l359 -680h-63z" />
    <glyph glyph-name="bracketright" unicode="]" horiz-adv-x="258" 
d="M20 -158v48h109v742h-109v48h168v-838h-168z" />
    <glyph glyph-name="asciicircum" unicode="^" 
d="M420 680l173 -358h-70l-134 289h-1l-138 -289h-70l179 358h61z" />
    <glyph glyph-name="underscore" unicode="_" horiz-adv-x="518" 
d="M522 -92v-56h-526v56h526z" />
    <glyph glyph-name="grave" unicode="`" horiz-adv-x="450" 
d="M127 680h94l94 -128h-56z" />
    <glyph glyph-name="a" unicode="a" horiz-adv-x="489" 
d="M351 168l-0.000976562 87.999c-13.333 -4.66699 -30 -8.66699 -50 -12l-79 -15c-19.333 -4 -34.333 -7.5 -45 -10.5s-22.167 -8 -34.5 -15s-21.333 -16.167 -27 -27.5s-8.5 -25.333 -8.5 -42c0 -31.333 9.5 -55.166 28.5 -71.499s44.833 -24.5 77.5 -24.5
c38.667 0 71.334 12 98.001 36s40 55.333 40 94zM112.999 324.999l-55.001 12.999c-0.666992 46 15.833 82.333 49.5 109s77.167 40 130.5 40c54 0 95.667 -11 125 -33s44 -61 44 -117v-237c0 -22 2.33301 -37.833 7 -47.5s15 -14.5 31 -14.5c14 0 26 3 36 9v-46
c-13.333 -7.33301 -30.333 -11 -51 -11c-24 0 -43 6.5 -57 19.5s-20.667 32.167 -20 57.5h-1c-10 -21.333 -28 -39.833 -54 -55.5s-58.333 -23.5 -97 -23.5c-48.667 0 -86.834 12.833 -114.501 38.5s-41.5 61.167 -41.5 106.5c0 38 11 68 33 90
c24.667 24 68.334 41.333 131.001 52l118 22c6.66699 1.33301 11.334 2.5 14.001 3.5s5 3.33301 7 7s3 8.83398 3 15.501v15c0 34 -9 59.167 -27 75.5s-47.667 24.5 -89 24.5c-39.333 0 -69.5 -9.83301 -90.5 -29.5s-31.5 -47.5 -31.5 -83.5z" />
    <glyph glyph-name="b" unicode="b" horiz-adv-x="539" 
d="M295 -12c-38 0 -70.668 9 -98.001 27s-47 41.333 -59 70v-85h-59v680h59v-289c12 28 31.667 51 59 69s59.333 27 96 27c60.667 0 109.334 -22.167 146.001 -66.5s55 -105.833 55 -184.5c0 -78 -18.167 -138.833 -54.5 -182.5s-84.5 -65.5 -144.5 -65.5zM135.999 237
c0 -63.333 13.168 -112.166 39.501 -146.499s62.5 -51.5 108.5 -51.5c47.333 0 83.833 17.333 109.5 52s38.5 83.667 38.5 147s-13.333 112.166 -40 146.499s-63.334 51.5 -110.001 51.5c-45.333 0 -81 -17.167 -107 -51.5s-39 -83.5 -39 -147.5z" />
    <glyph glyph-name="c" unicode="c" horiz-adv-x="473" 
d="M446 363l-50.9961 -30.001c-24.667 69.333 -69.334 104 -134.001 104c-47.333 0 -84.833 -17.833 -112.5 -53.5s-41.5 -84.5 -41.5 -146.5c0 -61.333 14 -109.666 42 -144.999s65.333 -53 112 -53c62 0 108 30.333 138 91l47 -29
c-36.667 -75.333 -98.334 -113 -185.001 -113c-66.667 0 -119.334 22.333 -158.001 67s-58 105 -58 181c0 76.667 19.667 137.667 59 183s91.666 68 156.999 68c91.333 0 153 -41.333 185 -124z" />
    <glyph glyph-name="d" unicode="d" horiz-adv-x="539" 
d="M243 -12c-60 0 -107.999 21.667 -143.999 65s-54 104.333 -54 183c0 78 18.5 139.333 55.5 184s85.5 67 145.5 67c36.667 0 68.667 -9 96 -27s47 -41 59 -69v289h59v-680h-59v85c-28.667 -64.667 -81.334 -97 -158.001 -97zM403.001 237
c0 64 -12.999 113.167 -38.999 147.5s-61.667 51.5 -107 51.5c-46.667 0 -83.334 -17.167 -110.001 -51.5s-40 -83.166 -40 -146.499s12.833 -112.333 38.5 -147s62.167 -52 109.5 -52c46 0 82.167 17.167 108.5 51.5s39.5 83.166 39.5 146.499z" />
    <glyph glyph-name="e" unicode="e" horiz-adv-x="519" 
d="M427 146l45 -29.001c-42.667 -86 -111.667 -129 -207 -129c-68 0 -121.667 22.167 -161 66.5s-59 106.5 -59 186.5c0 72.667 19.833 131.834 59.5 177.501s91.5 68.5 155.5 68.5c66.667 0 118 -22.833 154 -68.5s54 -105.167 54 -178.5v-8h-362v-7
c0 -59.333 15.167 -105 45.5 -137s68.833 -48 115.5 -48c72.667 0 126 35.333 160 106zM260 437.999c-43.333 0 -78.501 -14.167 -105.501 -42.5s-42.5 -66.833 -46.5 -115.5h296c0 41.333 -13.167 78 -39.5 110s-61.166 48 -104.499 48z" />
    <glyph glyph-name="f" unicode="f" horiz-adv-x="303" 
d="M283 476l0.000976562 -46.001h-108v-430h-59v430h-108v46h108v108c0 35.333 7.33301 61.333 22 78c17.333 20 45.333 30 84 30c19.333 0 39.666 -3 60.999 -9v-54c-21.333 6.66699 -40.333 10 -57 10c-15.333 0 -27.333 -3.66699 -36 -11
c-10 -9.33301 -15 -26.666 -15 -51.999v-100h108z" />
    <glyph glyph-name="g" unicode="g" horiz-adv-x="539" 
d="M460 476l0.00195312 -457c0 -74.667 -16.5 -129.5 -49.5 -164.5s-84.833 -52.5 -155.5 -52.5c-122 0 -186 52.333 -192 157l57 16c7.33301 -82 52.333 -123 135 -123c31.333 0 57.166 4.66699 77.499 14s35.166 23.5 44.499 42.5s15.666 38.333 18.999 58
s5 44.167 5 73.5v49c-28 -62.667 -80 -94 -156 -94c-61.333 0 -110 21.833 -146 65.5s-54 103.5 -54 179.5s18.5 136.167 55.5 180.5s85.5 66.5 145.5 66.5c36.667 0 68.334 -8.16699 95.001 -24.5s46.667 -37.833 60 -64.5v78h59zM403.002 241
c0 62.667 -12.999 110.833 -38.999 144.5s-61.667 50.5 -107 50.5c-46.667 0 -83.334 -16.833 -110.001 -50.5s-40 -81.5 -40 -143.5s12.833 -109.833 38.5 -143.5s62.167 -50.5 109.5 -50.5c46 0 82.167 16.833 108.5 50.5s39.5 81.167 39.5 142.5z" />
    <glyph glyph-name="h" unicode="h" horiz-adv-x="520" 
d="M447 269v-268.999h-59v256c0 76 -10 124.667 -30 146c-18.667 20.667 -47 31 -85 31c-40.667 0 -73 -13 -97 -39c-26.667 -27.333 -40 -64.333 -40 -111v-283h-59v680h59v-283c10 25.333 28.167 46.666 54.5 63.999s58.5 26 96.5 26c50.667 0 90 -15.333 118 -46
c16 -18 27 -38.5 33 -61.5s9 -59.833 9 -110.5z" />
    <glyph glyph-name="i" unicode="i" horiz-adv-x="213" 
d="M136 476v-476h-59v476h59zM136 680v-98h-59v98h59z" />
    <glyph glyph-name="j" unicode="j" horiz-adv-x="209" 
d="M77 476h59v-485c0 -55.333 -1.33301 -93 -4 -113s-9 -36.667 -19 -50c-15.333 -20 -41 -30 -77 -30c-29.333 0 -56.333 6.66699 -81 20v61c27.333 -18 52.333 -27 75 -27s36.667 8.66699 42 26c3.33301 10 5 63 5 159v439zM136 680v-98h-59v98h59z" />
    <glyph glyph-name="k" unicode="k" horiz-adv-x="498" 
d="M290 300l204 -300h-73l-175 260l-110 -101v-159h-59v680h59v-453l267 249h79z" />
    <glyph glyph-name="l" unicode="l" horiz-adv-x="213" 
d="M136 680v-680h-59v680h59z" />
    <glyph glyph-name="m" unicode="m" horiz-adv-x="765" 
d="M633 0l-0.00195312 258.001c0 30 -0.333008 51.833 -1 65.5s-2.66699 28 -6 43s-8.33301 27.167 -15 36.5c-15.333 20 -38.666 30 -69.999 30c-40 0 -71.167 -15.833 -93.5 -47.5s-33.5 -75.5 -33.5 -131.5v-254h-59v258c0 30 -0.333008 51.833 -1 65.5
s-2.66699 28 -6 43s-8.33301 27.167 -15 36.5c-15.333 20 -38.666 30 -69.999 30c-40 0 -71.167 -15.667 -93.5 -47s-33.5 -75.333 -33.5 -132v-254h-59v476h59v-80c10 28.667 28 51 54 67s55 24 87 24c31.333 0 59.166 -8.33301 83.499 -25s38.5 -41.334 42.5 -74.001
c11.333 30 30.333 54 57 72s57.667 27 93 27c38.667 0 70.334 -11 95.001 -33c17.333 -16 29 -35.833 35 -59.5s9 -59.167 9 -106.5v-288h-59z" />
    <glyph glyph-name="n" unicode="n" horiz-adv-x="520" 
d="M447 269v-268.999h-59v256c0 76 -10 124.667 -30 146c-18.667 20.667 -47 31 -85 31c-40.667 0 -73 -13 -97 -39c-26.667 -27.333 -40 -64.333 -40 -111v-283h-59v476h59v-79c10 25.333 28.167 46.666 54.5 63.999s58.5 26 96.5 26c50.667 0 90 -15.333 118 -46
c16 -18 27 -38.5 33 -61.5s9 -59.833 9 -110.5z" />
    <glyph glyph-name="o" unicode="o" horiz-adv-x="522" 
d="M45 236c0 76 19.333 136.833 58 182.5s91.334 68.5 158.001 68.5s119.334 -22.833 158.001 -68.5s58 -106.5 58 -182.5c0 -75.333 -19.333 -135.5 -58 -180.5s-91.334 -67.5 -158.001 -67.5s-119.334 22.5 -158.001 67.5s-58 105.167 -58 180.5zM107 237
c0 -61.333 14 -109.668 42 -145.001s65.333 -53 112 -53s84 17.833 112 53.5s42 83.834 42 144.501c0 62 -13.833 110.833 -41.5 146.5s-65.167 53.5 -112.5 53.5s-84.833 -17.833 -112.5 -53.5s-41.5 -84.5 -41.5 -146.5z" />
    <glyph glyph-name="p" unicode="p" horiz-adv-x="539" 
d="M295 -12c-38 0 -70.668 9 -98.001 27s-47 41.333 -59 70v-275h-59v666h59v-85c12 28 31.667 51 59 69s59.333 27 96 27c60.667 0 109.334 -22.167 146.001 -66.5s55 -105.833 55 -184.5c0 -78 -18.167 -138.833 -54.5 -182.5s-84.5 -65.5 -144.5 -65.5zM135.999 237
c0 -63.333 13.168 -112.166 39.501 -146.499s62.5 -51.5 108.5 -51.5c47.333 0 83.833 17.333 109.5 52s38.5 83.667 38.5 147s-13.333 112.166 -40 146.499s-63.334 51.5 -110.001 51.5c-45.333 0 -81 -17.167 -107 -51.5s-39 -83.5 -39 -147.5z" />
    <glyph glyph-name="q" unicode="q" horiz-adv-x="539" 
d="M243 -12c-59.333 0 -107.166 22 -143.499 66s-54.5 104.667 -54.5 182s18.5 138.5 55.5 183.5s85.5 67.5 145.5 67.5c36.667 0 68.667 -9 96 -27s47 -41 59 -69v85h59v-666h-59v275c-28.667 -64.667 -81.334 -97 -158.001 -97zM403 237
c0 64 -12.999 113.167 -38.999 147.5s-61.667 51.5 -107 51.5c-46.667 0 -83.334 -17.167 -110.001 -51.5s-40 -83.166 -40 -146.499s12.833 -112.333 38.5 -147s62.167 -52 109.5 -52c46 0 82.167 17.167 108.5 51.5s39.5 83.166 39.5 146.499z" />
    <glyph glyph-name="r" unicode="r" horiz-adv-x="318" 
d="M312 485l-0.000976562 -59c-10.667 2 -21.667 3 -33 3c-42 0 -76.333 -14.833 -103 -44.5s-40 -68.167 -40 -115.5v-269h-59v476h59v-92c8.66699 29.333 26.167 54 52.5 74s56.833 30 91.5 30c10.667 0 21.334 -1 32.001 -3z" />
    <glyph glyph-name="s" unicode="s" horiz-adv-x="441" 
d="M385 409l-44.9971 -38.002c-32 44 -75 66 -129 66c-30.667 0 -55.834 -6.5 -75.501 -19.5s-29.5 -32.167 -29.5 -57.5c0 -24 7.5 -41.833 22.5 -53.5s39.167 -21.167 72.5 -28.5l63 -15c46 -10 81.167 -24.667 105.5 -44s36.5 -48.666 36.5 -87.999
c0 -45.333 -17 -80.333 -51 -105s-78.667 -37.334 -134 -38.001c-44.667 0 -84.334 9.66699 -119.001 29s-60.334 42.666 -77.001 69.999l48 34c34 -54.667 85.667 -82 155 -82c38.667 0.666992 68 8.83398 88 24.501s30 36.834 30 63.501c0 24 -8.16699 41.5 -24.5 52.5
s-41.5 20.833 -75.5 29.5l-66 16c-46 10.667 -79.833 25.334 -101.5 44.001s-32.5 46.667 -32.5 84c0 41.333 15.833 74 47.5 98s71.167 36 118.5 36c72 0 129.667 -26 173 -78z" />
    <glyph glyph-name="t" unicode="t" horiz-adv-x="293" 
d="M6 430l0.000976562 46h96v178l59 13v-191h114v-46h-114v-322c0 -26.667 3 -44 9 -52c6.66699 -8.66699 19 -13 37 -13c25.333 0 48 5.33301 68 16v-53c-22.667 -10.667 -51.334 -16 -86.001 -16c-32 0 -54.667 7.66699 -68 23c-12.667 14.667 -19 39 -19 73v344h-96z" />
    <glyph glyph-name="u" unicode="u" horiz-adv-x="519" 
d="M74 178l0.000976562 297.998h59v-272c0 -63.333 10 -106.666 30 -129.999c18.667 -20.667 47 -31 85 -31c45.333 0 79.166 15 101.499 45s33.5 65 33.5 105v283h59v-476h-59v78c-10 -25.333 -27.833 -46.666 -53.5 -63.999s-57.5 -26 -95.5 -26
c-50.667 0 -90 15.333 -118 46c-28 31.333 -42 79.333 -42 144z" />
    <glyph glyph-name="v" unicode="v" horiz-adv-x="417" 
d="M411 476l-186 -476h-52l-167 476h62l107 -311l27 -80h1c5.33301 17.333 15.333 45 30 83l119 308h59z" />
    <glyph glyph-name="w" unicode="w" horiz-adv-x="652" 
d="M358 476l86.999 -282.999c4.66699 -15.333 14.667 -51 30 -107h1l13 44.5c7.33301 25 13.333 46.833 18 65.5l78 280h59l-142 -476h-55l-92 313c-7.33301 23.333 -15.333 52.666 -24 87.999h-1c-3.33301 -13.333 -11.666 -43 -24.999 -89l-92 -312h-56l-149 476h63
l85 -283l31 -106h1c15.333 56 25.333 91.667 30 107l86 282h54z" />
    <glyph glyph-name="x" unicode="x" horiz-adv-x="443" 
d="M256 246l175 -246h-71l-140 203l-144 -203h-64l175 247l-161 229h72l127 -186l130 186h66z" />
    <glyph glyph-name="y" unicode="y" horiz-adv-x="427" 
d="M68 476l113.001 -316.999l27 -79h1c8 23.333 18 50.666 30 81.999l121 314h61l-213 -541c-16.667 -43.333 -30 -73.333 -40 -90c-19.333 -31.333 -48.333 -47 -87 -47c-23.333 0 -44 5.33301 -62 16v59c20 -13.333 40 -20 60 -20c19.333 0 33.666 7 42.999 21
c7.33301 10 16 28.667 26 56l26 70l-170 476h64z" />
    <glyph glyph-name="z" unicode="z" horiz-adv-x="394" 
d="M374 50v-50h-348v40l258 387h-245v49h321v-39l-259 -387h273z" />
    <glyph glyph-name="braceleft" unicode="{" horiz-adv-x="224" 
d="M10 246v39c30 7.33301 48.833 20 56.5 38s11.5 45.333 11.5 82v162c0 44.667 9 74.667 27 90s47.667 23 89 23h20v-43c-32.667 0 -53.5 -6.5 -62.5 -19.5s-13.5 -40.5 -13.5 -82.5v-133c0 -44 -5.5 -76 -16.5 -96s-31.833 -33.333 -62.5 -40v-1
c30.667 -6.66699 51.5 -20 62.5 -40s16.5 -52 16.5 -96v-142c0 -42 4.5 -69.5 13.5 -82.5s29.833 -19.5 62.5 -19.5v-43h-20c-41.333 0 -71 7.66699 -89 23s-27 45.333 -27 90v171c0 18.667 -0.5 33 -1.5 43s-3.5 21 -7.5 33s-10.833 21.333 -20.5 28s-22.5 12 -38.5 16z
" />
    <glyph glyph-name="bar" unicode="|" horiz-adv-x="219" 
d="M139 680v-838h-59v838h59z" />
    <glyph glyph-name="braceright" unicode="}" horiz-adv-x="224" 
d="M214 285v-39c-30 -7.33301 -48.833 -20 -56.5 -38s-11.5 -45.333 -11.5 -82v-171c0 -44.667 -9 -74.667 -27 -90s-47.667 -23 -89 -23h-20v43c32.667 0 53.5 6.5 62.5 19.5s13.5 40.5 13.5 82.5v142c0 44 5.5 76 16.5 96s31.833 33.333 62.5 40v1
c-30.667 6.66699 -51.5 20 -62.5 40s-16.5 52 -16.5 96v133c0 42 -4.5 69.5 -13.5 82.5s-29.833 19.5 -62.5 19.5v43h20c41.333 0 71 -7.66699 89 -23s27 -45.333 27 -90v-162c0 -18.667 0.5 -33 1.5 -43s3.5 -21 7.5 -33s10.833 -21.333 20.5 -28s22.5 -12 38.5 -16z" />
    <glyph glyph-name="asciitilde" unicode="~" 
d="M588 348l29 -49.001c-41.333 -51.333 -83.333 -77 -126 -77c-24.667 0 -57.334 10 -98.001 30l-41 20c-28 12.667 -52 19 -72 19c-18 0 -32.333 -4.16699 -43 -12.5s-26.667 -25.166 -48 -50.499l-31 47c34.667 54 75.334 81 122.001 81c24 0 56.667 -9.33301 98 -28
l47 -22c30.667 -14 52.667 -21 66 -21c30.667 0 63 21 97 63z" />
    <glyph glyph-name="uni00A0" unicode="&#xa0;" horiz-adv-x="270" 
 />
    <glyph glyph-name="exclamdown" unicode="&#xa1;" horiz-adv-x="234" 
d="M139 299l10 -180v-327h-64v327l9 180h45zM155 361h-76v114h76v-114z" />
    <glyph glyph-name="cent" unicode="&#xa2;" horiz-adv-x="590" 
d="M486 363l-50.999 -30.001c-22 60 -58.333 94 -109 102v-395c49.333 6.66699 87 36.667 113 90l47 -29c-32.667 -66.667 -86 -104 -160 -112v-102h-52v103c-58.667 6 -104.834 30.833 -138.501 74.5s-50.5 100.834 -50.5 171.501s17 128.334 51 173.001s80 70 138 76v95
h52v-95c78.667 -6.66699 132 -47.334 160 -122.001zM147.001 236.999c0 -55.333 11.333 -100.166 34 -134.499s53.667 -54.833 93 -61.5v393c-39.333 -6.66699 -70.333 -27.334 -93 -62.001s-34 -79.667 -34 -135z" />
    <glyph glyph-name="sterling" unicode="&#xa3;" horiz-adv-x="590" 
d="M362 311l-148.999 -0.000976562c0 -5.33301 0.5 -14.5 1.5 -27.5s1.66699 -25.167 2 -36.5s0.5 -20.666 0.5 -27.999c0 -42.667 -4.33301 -77.167 -13 -103.5s-25 -46.5 -49 -60.5v-1c28 1.33301 60.333 2 97 2h244v-56h-449v52
c41.333 3.33301 69.666 16.166 84.999 38.499s23 65.5 23 129.5c0 22 -1.66699 52.333 -5 91h-106v57h102c-2.66699 46.667 -4 87 -4 121c0 60.667 15.5 109.5 46.5 146.5s77.5 55.5 139.5 55.5c60 0 105.167 -15.5 135.5 -46.5s45.833 -71.167 46.5 -120.5l-58 -19
c0 38.667 -9.83301 70.334 -29.5 95.001s-51.167 37 -94.5 37c-82 0 -123 -53 -123 -159c0 -41.333 1.66699 -78 5 -110h152v-57z" />
    <glyph glyph-name="currency" unicode="&#xa4;" horiz-adv-x="527" 
d="M72 289c0 43.333 12 81.666 36 114.999l-63 63l42 42l62 -63c33.333 24 71.666 36 114.999 36s81.333 -12 114 -36l62 62l42 -42l-62 -62c24.667 -34 37 -72.333 37 -115c0 -43.333 -12 -81.666 -36 -114.999l61 -60l-42 -42l-61 61
c-33.333 -24 -71.666 -36 -114.999 -36c-44 0 -82.333 12 -115 36l-62 -62l-42 42l62 62c-23.333 31.333 -35 69.333 -35 114zM129 289c0 -38 13.001 -70.335 39.001 -97.002s58 -40 96 -40c38.667 0 71 13.333 97 40s39 59 39 97c0 38.667 -12.833 71.334 -38.5 98.001
s-58.167 40 -97.5 40c-38.667 0 -70.834 -13.167 -96.501 -39.5s-38.5 -59.166 -38.5 -98.499z" />
    <glyph glyph-name="yen" unicode="&#xa5;" horiz-adv-x="590" 
d="M68 284v56h163l-194 339h68l195 -337l185 337h69l-194 -339h162v-56h-194v-82h194v-55h-194v-147h-63v147h-197v55h197v82h-197z" />
    <glyph glyph-name="brokenbar" unicode="&#xa6;" horiz-adv-x="219" 
d="M139 680v-323h-59v323h59zM139 165v-323h-59v323h59z" />
    <glyph glyph-name="section" unicode="&#xa7;" horiz-adv-x="497" 
d="M73 563c0 40 15.668 71.5 47.001 94.5s70.666 34.5 117.999 34.5c37.333 0 71.333 -7.83301 102 -23.5s54.667 -35.834 72 -60.501l-47 -35c-31.333 46 -74 69 -128 69c-30 0 -55 -6.66699 -75 -20s-30 -31.666 -30 -54.999c0 -24.667 9.16699 -43.5 27.5 -56.5
s46.5 -26.5 84.5 -40.5c5.33301 -1.33301 9.33301 -2.66602 12 -3.99902l47 -18c39.333 -14.667 70.666 -32.834 93.999 -54.501s35 -50.167 35 -85.5c0 -60.667 -30.333 -107.334 -91 -140.001c48.667 -27.333 73 -64.666 73 -111.999
c0 -45.333 -16.667 -80.833 -50 -106.5s-77 -38.5 -131 -38.5c-46 0 -86.667 10.5 -122 31.5s-60.666 46.833 -75.999 77.5l48 33c15.333 -28 36.333 -50.167 63 -66.5s56.334 -24.5 89.001 -24.5c39.333 0 69.166 8.16699 89.499 24.5s30.5 37.166 30.5 62.499
c0 24.667 -10.5 44.667 -31.5 60s-49.833 30.333 -86.5 45l-51 20c-41.333 16 -73.833 34.833 -97.5 56.5s-35.5 51.834 -35.5 90.501c0 60 31.667 103.333 95 130c-50 24 -75 61.333 -75 112zM222.001 223l68 -27.002c26 10.667 46.167 24.834 60.5 42.501
s21.5 37.5 21.5 59.5c0 48 -39 84.333 -117 109l-54 19c-27.333 -8 -48.333 -20.667 -63 -38s-22 -37 -22 -59c0 -25.333 8.66699 -45.666 26 -60.999s44 -30.333 80 -45z" />
    <glyph glyph-name="dieresis" unicode="&#xa8;" horiz-adv-x="450" 
d="M97 566v91h62v-91h-62zM284 566v91h62v-91h-62z" />
    <glyph glyph-name="copyright" unicode="&#xa9;" horiz-adv-x="791" 
d="M555 451l-49 -29.001c-18 58.667 -55 88 -111 88c-36.667 0 -66.334 -14.5 -89.001 -43.5s-34 -68.5 -34 -118.5c0 -49.333 11.333 -88 34 -116s52.334 -42 89.001 -42c55.333 0 93.333 25 114 75l46 -29c-33.333 -66 -86.666 -99 -159.999 -99
c-55.333 0 -99.166 19 -131.499 57s-48.5 89 -48.5 153c0 64.667 16.167 116.334 48.5 155.001s76.166 58 131.499 58c77.333 0 130.666 -36.333 159.999 -109zM736 349.999c0 -96 -32.667 -176.833 -98 -242.5s-146.333 -98.5 -243 -98.5c-96 0 -176.667 32.833 -242 98.5
s-98 146.5 -98 242.5c0 96.667 32.667 177.834 98 243.501s146 98.5 242 98.5c96.667 0 177.667 -32.833 243 -98.5s98 -146.834 98 -243.501zM679 349.999c0 80.667 -27.333 149.333 -82 206s-122 85 -202 85c-79.333 0 -146.166 -28.333 -200.499 -85
s-81.5 -125.334 -81.5 -206.001c0 -79.333 27.167 -147.166 81.5 -203.499s121.166 -84.5 200.499 -84.5c80 0 147.333 28 202 84s82 124 82 204z" />
    <glyph glyph-name="ordfeminine" unicode="&#xaa;" horiz-adv-x="314" 
d="M211 487l0.00195312 51c-6.66699 -2 -32.334 -7.33301 -77.001 -16c-14 -2.66699 -25.333 -5.33398 -34 -8.00098s-16.667 -8 -24 -16s-11 -18.333 -11 -31c0 -18.667 5.66699 -33 17 -43s26.333 -15 45 -15c23.333 0 43.166 7.33301 59.499 22s24.5 33.334 24.5 56.001z
M67.002 579l-42 10c-0.666992 32 10.166 57 32.499 75s51.833 27 88.5 27c34 0 60.667 -7.33301 80 -22s29 -40.667 29 -78v-147c0 -8 0.333008 -14 1 -18s2.5 -7.66699 5.5 -11s7.5 -5 13.5 -5c8.66699 0 17.667 2.33301 27 7v-36c-10.667 -6 -22.667 -9 -36 -9
c-29.333 0 -47 13.667 -53 41c-20 -28.667 -50.333 -43 -91 -43c-31.333 0 -56.666 8.5 -75.999 25.5s-29 40.833 -29 71.5c0 28 8.5 48.5 25.5 61.5s43.5 22.833 79.5 29.5l78 14c7.33301 0.666992 11 4.66699 11 12v8c0 40 -22.667 60 -68 60
c-50.667 0 -76 -24.333 -76 -73z" />
    <glyph glyph-name="guillemotleft" unicode="&#xab;" horiz-adv-x="377" 
d="M203 252v73l134 137v-74l-102 -98l102 -100v-78zM44 252v73l134 137v-74l-102 -98l102 -100v-78z" />
    <glyph glyph-name="logicalnot" unicode="&#xac;" 
d="M570 454v-233h-59v180h-337v53h396z" />
    <glyph glyph-name="uni00AD" unicode="&#xad;" horiz-adv-x="357" 
d="M317 298v-59h-277v59h277z" />
    <glyph glyph-name="registered" unicode="&#xae;" horiz-adv-x="791" 
d="M309 317v-167h-51v398h163c44 0 78.333 -8.66699 103 -26c28.667 -20.667 43 -50 43 -88c0 -32 -10.5 -58.333 -31.5 -79s-46.167 -33 -75.5 -37l120 -168h-65l-121 167h-85zM309 366h99c32 0 55 3.33301 69 10c22.667 10 34 29.333 34 58c0 27.333 -11.333 46 -34 56
c-14 6 -37 9 -69 9h-99v-133zM736 350c0 -96 -32.667 -176.833 -98 -242.5s-146.333 -98.5 -243 -98.5c-96 0 -176.667 32.833 -242 98.5s-98 146.5 -98 242.5c0 96.667 32.667 177.834 98 243.501s146 98.5 242 98.5c96.667 0 177.667 -32.833 243 -98.5
s98 -146.834 98 -243.501zM679 350c0 80.667 -27.333 149.333 -82 206s-122 85 -202 85c-79.333 0 -146.166 -28.333 -200.499 -85s-81.5 -125.334 -81.5 -206.001c0 -79.333 27.167 -147.166 81.5 -203.499s121.166 -84.5 200.499 -84.5c80 0 147.333 28 202 84
s82 124 82 204z" />
    <glyph glyph-name="macron" unicode="&#xaf;" horiz-adv-x="450" 
d="M90 579v53h271v-53h-271z" />
    <glyph glyph-name="degree" unicode="&#xb0;" horiz-adv-x="370" 
d="M35 542c0 41.333 14.667 76.666 44 105.999s64.666 44 105.999 44s76.666 -14.667 105.999 -44s44 -64.666 44 -105.999s-14.667 -76.666 -44 -105.999s-64.666 -44 -105.999 -44s-76.666 14.667 -105.999 44s-44 64.666 -44 105.999zM93 542
c0 -27.333 8.66699 -50 26 -68s39.333 -27 66 -27s48.667 9 66 27s26 40.667 26 68s-8.66699 50 -26 68s-39.333 27 -66 27s-48.667 -9 -66 -27s-26 -40.667 -26 -68z" />
    <glyph glyph-name="plusminus" unicode="&#xb1;" 
d="M360 323v-216h-57v216h-265v56h265v214h57v-214h264v-56h-264zM624 57v-57h-586v57h586z" />
    <glyph glyph-name="twosuperior" unicode="&#xb2;" horiz-adv-x="360" 
d="M114 487l-59.999 12.999c-8.66699 19.333 -13 40 -13 62c0 35.333 12.333 65.5 37 90.5s58 37.5 100 37.5c44.667 0 79 -12.667 103 -38s36 -57.666 36 -96.999c0 -27.333 -6.33301 -53.333 -19 -78s-25.834 -43.834 -39.501 -57.501s-32.834 -30.5 -57.501 -50.5
c-20 -16 -45.333 -34 -76 -54h192v-47h-270v43c37.333 24 77 53.667 119 89c35.333 29.333 60.5 54.833 75.5 76.5s22.5 46.834 22.5 75.501s-8.33301 51.334 -25 68.001s-37.667 25 -63 25c-27.333 0 -48.166 -8 -62.499 -24s-21.5 -36 -21.5 -60
c0 -24.667 7.33301 -49.334 22 -74.001z" />
    <glyph glyph-name="threesuperior" unicode="&#xb3;" horiz-adv-x="360" 
d="M90 562l-46 17c0 26 12 50.833 36 74.5s56.333 35.5 97 35.5c42.667 0 75 -9.83301 97 -29.5s33 -44.834 33 -75.501c0 -46 -20.667 -77.333 -62 -94c20.667 -6.66699 38 -18.667 52 -36s21 -39.333 21 -66c0 -38 -13.167 -68.5 -39.5 -91.5
s-61.166 -34.5 -104.499 -34.5c-40 0 -72.833 10.833 -98.5 32.5s-39.167 51.167 -40.5 88.5l51 17c4 -62.667 33.667 -94 89 -94c27.333 0 49.166 7.33301 65.499 22s24.5 35 24.5 61c0 31.333 -12.667 53.333 -38 66c-14 6.66699 -42.667 10 -86 10h-28v44h23
c34.667 0 61 3.33301 79 10c27.333 10.667 41 31.334 41 62.001c0 20 -6.66699 35.833 -20 47.5s-33 17.5 -59 17.5c-27.333 0 -48.333 -8 -63 -24s-22.667 -36 -24 -60z" />
    <glyph glyph-name="acute" unicode="&#xb4;" horiz-adv-x="450" 
d="M219 680h94l-132 -128h-56z" />
    <glyph glyph-name="uni00B5" unicode="&#xb5;" horiz-adv-x="522" 
d="M136 37v-226.002h-59v665h59v-272c0 -63.333 10 -106.666 30 -129.999c18.667 -20.667 47 -31 85 -31c45.333 0 79.166 15 101.499 45s33.5 65 33.5 105v283h59v-476h-59v78c-10 -25.333 -27.667 -46.666 -53 -63.999s-56.666 -26 -93.999 -26
c-21.333 0 -41.5 4.5 -60.5 13.5s-33.167 20.833 -42.5 35.5z" />
    <glyph glyph-name="paragraph" unicode="&#xb6;" horiz-adv-x="556" 
d="M257 -128v448h-8c-69.333 0 -121.333 13.667 -156 41c-40.667 32.667 -61 79 -61 139s20.333 106.333 61 139c34.667 27.333 86.667 41 156 41h293v-44h-79v-764h-51v764h-104v-764h-51z" />
    <glyph glyph-name="periodcentered" unicode="&#xb7;" horiz-adv-x="168" 
d="M45 377h78v-114h-78v114z" />
    <glyph glyph-name="cedilla" unicode="&#xb8;" horiz-adv-x="450" 
d="M199 -5l38.001 0.000976562l-29 -40c3.33301 0.666992 8.66602 1 15.999 1c23.333 0 42.333 -5.83301 57 -17.5s22 -28.5 22 -50.5c0 -26.667 -9.33301 -46.834 -28 -60.501s-41.667 -20.5 -69 -20.5c-15.333 0 -30.333 2.66699 -45 8l9 27c10 -3.33301 21 -5 33 -5
c15.333 0 27.833 3.83301 37.5 11.5s14.5 18.167 14.5 31.5c0 14 -4.83301 24.5 -14.5 31.5s-21.834 10.5 -36.501 10.5c-13.333 0 -24.666 -2.33301 -33.999 -7l-12 22z" />
    <glyph glyph-name="onesuperior" unicode="&#xb9;" horiz-adv-x="360" 
d="M230 263h-50.001v306c-15.333 -10.667 -39.666 -16 -72.999 -16c-14 0 -23.667 0.333008 -29 1v44h17c30 0 51 5 63 15c16 14 24.667 36.333 26 67h46v-417z" />
    <glyph glyph-name="ordmasculine" unicode="&#xba;" horiz-adv-x="357" 
d="M38 529c0 48.667 13.001 87.834 39.001 117.501s60 44.5 102 44.5c41.333 0 74.833 -14.833 100.5 -44.5s38.5 -68.834 38.5 -117.501s-12.667 -87.334 -38 -116.001s-59 -43 -101 -43c-42.667 0 -76.834 14.333 -102.501 43s-38.5 67.334 -38.5 116.001zM88.001 529
c0 -36.667 8.16797 -65.168 24.501 -85.501s38.5 -30.5 66.5 -30.5c27.333 0 49.166 10.167 65.499 30.5s24.5 48.833 24.5 85.5c0 38 -8 67.5 -24 88.5s-38 31.5 -66 31.5s-50.167 -10.667 -66.5 -32s-24.5 -50.666 -24.5 -87.999z" />
    <glyph glyph-name="guillemotright" unicode="&#xbb;" horiz-adv-x="377" 
d="M173 325v-73l-133 -140v78l101 100l-101 98v74zM332 325v-73l-133 -140v78l101 100l-101 98v74z" />
    <glyph glyph-name="onequarter" unicode="&#xbc;" horiz-adv-x="743" 
d="M190 263h-50.001v306c-15.333 -10.667 -39.666 -16 -72.999 -16c-14 0 -23.667 0.333008 -29 1v44h17c30 0 51 5 63 15c16 14 24.667 36.333 26 67h46v-417zM616.999 107v-107h-49v107h-194v34l195 276h48v-263h76v-47h-76zM436.999 154h131v189h-2
c-12 -21.333 -25.333 -42 -40 -62l-36 -52c-4 -6 -21.667 -30.333 -53 -73v-2zM552.999 680l-355 -680h-58l357 680h56z" />
    <glyph glyph-name="onehalf" unicode="&#xbd;" horiz-adv-x="815" 
d="M545 219l-59.999 12.999c-8.66699 19.333 -13 40 -13 62c0 35.333 12.333 65.5 37 90.5s58 37.5 100 37.5c44.667 0 79 -12.667 103 -38s36 -57.666 36 -96.999c0 -27.333 -6.33301 -53.333 -19 -78s-25.834 -43.834 -39.501 -57.501s-32.834 -30.5 -57.501 -50.5
c-20 -16 -45.333 -34 -76 -54h192v-47h-270v43c37.333 24 77 53.667 119 89c35.333 29.333 60.5 54.833 75.5 76.5s22.5 46.834 22.5 75.501s-8.33301 51.334 -25 68.001s-37.667 25 -63 25c-27.333 0 -48.166 -8 -62.499 -24s-21.5 -36 -21.5 -60
c0 -24.667 7.33301 -49.334 22 -74.001zM190.001 262.999h-50.001v306c-15.333 -10.667 -39.666 -16 -72.999 -16c-14 0 -23.667 0.333008 -29 1v44h17c30 0 51 5 63 15c16 14 24.667 36.333 26 67h46v-417zM553 679.999l-355 -680h-58l357 680h56z" />
    <glyph glyph-name="threequarters" unicode="&#xbe;" horiz-adv-x="836" 
d="M710 107v-107h-49v107h-194v34l195 276h48v-263h76v-47h-76zM530 154h131v189h-2c-12 -21.333 -25.333 -42 -40 -62l-36 -52c-4 -6 -21.667 -30.333 -53 -73v-2zM95 562l-46 17c0 26 12 50.833 36 74.5s56.333 35.5 97 35.5c42.667 0 75 -9.83301 97 -29.5
s33 -44.834 33 -75.501c0 -46 -20.667 -77.333 -62 -94c20.667 -6.66699 38 -18.667 52 -36s21 -39.333 21 -66c0 -38 -13.167 -68.5 -39.5 -91.5s-61.166 -34.5 -104.499 -34.5c-40 0 -72.833 10.833 -98.5 32.5s-39.167 51.167 -40.5 88.5l51 17
c4 -62.667 33.667 -94 89 -94c27.333 0 49.166 7.33301 65.499 22s24.5 35 24.5 61c0 31.333 -12.667 53.333 -38 66c-14 6.66699 -42.667 10 -86 10h-28v44h23c34.667 0 61 3.33301 79 10c27.333 10.667 41 31.334 41 62.001c0 20 -6.66699 35.833 -20 47.5
s-33 17.5 -59 17.5c-27.333 0 -48.333 -8 -63 -24s-22.667 -36 -24 -60zM645 680l-354 -680h-58l356 680h56z" />
    <glyph glyph-name="questiondown" unicode="&#xbf;" horiz-adv-x="432" 
d="M194 298v28.999h59v-39c0 -29.333 -4 -53 -12 -71s-27.333 -40.333 -58 -67l-37 -33c-48.667 -44.667 -73 -93 -73 -145c0 -38 12.167 -69.667 36.5 -95s57.5 -38 99.5 -38c41.333 0 73.666 13.167 96.999 39.5s35 58.5 35 96.5c0 28 -8.33301 59.333 -25 94l69 -14
c10 -30 15 -57.667 15 -83c0 -54.667 -17.5 -99.167 -52.5 -133.5s-81.833 -51.5 -140.5 -51.5c-60 0 -107.5 17.167 -142.5 51.5s-52.5 77.833 -52.5 130.5c0 38.667 7.83301 72 23.5 100s38.834 56 69.501 84l23 20c30 27.333 48.5 47.333 55.5 60
s10.5 34.334 10.5 65.001zM262 370.999h-79v104h79v-104z" />
    <glyph glyph-name="Agrave" unicode="&#xc0;" horiz-adv-x="584" 
d="M348 753h-56l-142 136h96zM144 205l-74 -205h-67l259 680h62l257 -680h-68l-76 205h-293zM415 263l-95 250c-12 29.333 -21.667 57 -29 83h-1c-10.667 -33.333 -20.667 -61.333 -30 -84l-95 -249h250z" />
    <glyph glyph-name="Aacute" unicode="&#xc1;" horiz-adv-x="584" 
d="M320 753h-56l102 136h96zM144 205l-74 -205h-67l259 680h62l257 -680h-68l-76 205h-293zM415 263l-95 250c-12 29.333 -21.667 57 -29 83h-1c-10.667 -33.333 -20.667 -61.333 -30 -84l-95 -249h250z" />
    <glyph glyph-name="Acircumflex" unicode="&#xc2;" horiz-adv-x="584" 
d="M144 205l-74 -205h-67l259 680h62l257 -680h-68l-76 205h-293zM415 263l-95 250c-12 29.333 -21.667 57 -29 83h-1c-10.667 -33.333 -20.667 -61.333 -30 -84l-95 -249h250zM369 753l-79 81l-79 -81h-61l119 136h42l119 -136h-61z" />
    <glyph glyph-name="Atilde" unicode="&#xc3;" horiz-adv-x="584" 
d="M422 868l40.999 -10c-6.66699 -14 -12 -24.667 -16 -32s-10 -16.333 -18 -27s-17 -18.5 -27 -23.5s-21 -7.5 -33 -7.5c-18 0 -43.667 8.66699 -77 26c-29.333 14.667 -47.666 22 -54.999 22c-22 0 -37.667 -15.667 -47 -47l-42 9c24 60 56 90 96 90
c15.333 0 37.666 -7.33301 66.999 -22c30.667 -15.333 51.334 -23 62.001 -23c22.667 0 39 15 49 45zM143.999 205l-74 -205h-67l259 680h62l257 -680h-68l-76 205h-293zM414.999 263l-95 250c-12 29.333 -21.667 57 -29 83h-1c-10.667 -33.333 -20.667 -61.333 -30 -84
l-95 -249h250z" />
    <glyph glyph-name="Adieresis" unicode="&#xc4;" horiz-adv-x="584" 
d="M173 768v91h62v-91h-62zM360 768v91h62v-91h-62zM144 205l-74 -205h-67l259 680h62l257 -680h-68l-76 205h-293zM415 263l-95 250c-12 29.333 -21.667 57 -29 83h-1c-10.667 -33.333 -20.667 -61.333 -30 -84l-95 -249h250z" />
    <glyph glyph-name="Aring" unicode="&#xc5;" horiz-adv-x="584" 
d="M144 205l-74 -205h-67l259 680h62l257 -680h-68l-76 205h-293zM415 263l-95 250c-12 29.333 -21.667 57 -29 83h-1c-10.667 -33.333 -20.667 -61.333 -30 -84l-95 -249h250zM208 819c0 22.667 8 41.834 24 57.501s35.333 23.5 58 23.5s42 -7.83301 58 -23.5
s24 -34.834 24 -57.501s-8 -41.834 -24 -57.501s-35.333 -23.5 -58 -23.5s-42 7.83301 -58 23.5s-24 34.834 -24 57.501zM246 819c0 -12 4.33301 -22.167 13 -30.5s18.667 -12.5 30 -12.5s21.333 4.16699 30 12.5s13 18.5 13 30.5s-4.33301 22.167 -13 30.5
s-18.667 12.5 -30 12.5s-21.333 -4.16699 -30 -12.5s-13 -18.5 -13 -30.5z" />
    <glyph glyph-name="AE" unicode="&#xc6;" horiz-adv-x="905" 
d="M173 204l-127 -204h-71l426 680h448v-56h-364v-245h329v-56h-329v-267h384v-56h-448v204h-248zM421 261v220c0 27.333 0.333008 52.5 1 75.5s1.33398 38.833 2.00098 47.5v13h-1c-18.667 -41.333 -44.334 -87.333 -77.001 -138l-136 -218h211z" />
    <glyph glyph-name="Ccedilla" unicode="&#xc7;" horiz-adv-x="626" 
d="M588 528l-54.9961 -35.999c-17.333 42.667 -42.333 77.334 -75 104.001s-73.334 40 -122.001 40c-68 0 -122 -27.167 -162 -81.5s-60 -125.833 -60 -214.5s20 -160.167 60 -214.5s94 -81.5 162 -81.5c51.333 0 93.5 13.5 126.5 40.5s57.167 62.167 72.5 105.5l56 -30
c-48.667 -110 -128.667 -167.333 -240 -172l-24 -33c3.33301 0.666992 8.66602 1 15.999 1c23.333 0 42.333 -5.83301 57 -17.5s22 -28.5 22 -50.5c0 -26.667 -9.33301 -46.834 -28 -60.501s-41.667 -20.5 -69 -20.5c-15.333 0 -30.333 2.66699 -45 8l9 27
c10 -3.33301 21 -5 33 -5c15.333 0 27.833 3.83301 37.5 11.5s14.5 18.167 14.5 31.5c0 14 -4.83301 24.5 -14.5 31.5s-21.834 10.5 -36.501 10.5c-13.333 0 -24.666 -2.33301 -33.999 -7l-12 22l37 52c-84 5.33301 -149.333 39.166 -196 101.499s-70 145.5 -70 249.5
c0 107.333 25.667 192.833 77 256.5s121.666 95.5 210.999 95.5c65.333 0 118.666 -15.667 159.999 -47s72 -70.333 92 -117z" />
    <glyph glyph-name="Egrave" unicode="&#xc8;" horiz-adv-x="584" 
d="M363 753h-56l-142 136h96zM548 56v-56h-466v680h446v-56h-383v-246h347v-57h-347v-265h403z" />
    <glyph glyph-name="Eacute" unicode="&#xc9;" horiz-adv-x="584" 
d="M307 753h-56l102 136h96zM548 56v-56h-466v680h446v-56h-383v-246h347v-57h-347v-265h403z" />
    <glyph glyph-name="Ecircumflex" unicode="&#xca;" horiz-adv-x="584" 
d="M548 56v-56h-466v680h446v-56h-383v-246h347v-57h-347v-265h403zM379 753l-79 81l-79 -81h-61l119 136h42l119 -136h-61z" />
    <glyph glyph-name="Edieresis" unicode="&#xcb;" horiz-adv-x="584" 
d="M178 768v91h62v-91h-62zM365 768v91h62v-91h-62zM548 56v-56h-466v680h446v-56h-383v-246h347v-57h-347v-265h403z" />
    <glyph glyph-name="Igrave" unicode="&#xcc;" horiz-adv-x="227" 
d="M159 753h-56l-142 136h96zM145 680v-680h-63v680h63z" />
    <glyph glyph-name="Iacute" unicode="&#xcd;" horiz-adv-x="227" 
d="M130 753h-56l102 136h96zM145 680v-680h-63v680h63z" />
    <glyph glyph-name="Icircumflex" unicode="&#xce;" horiz-adv-x="227" 
d="M145 680v-680h-63v680h63zM193 753l-79 81l-79 -81h-61l119 136h42l119 -136h-61z" />
    <glyph glyph-name="Idieresis" unicode="&#xcf;" horiz-adv-x="227" 
d="M-11 768v91h62v-91h-62zM176 768v91h62v-91h-62zM145 680v-680h-63v680h63z" />
    <glyph glyph-name="Eth" unicode="&#xd0;" horiz-adv-x="662" 
d="M237 0h-155.001v335h-92v58h92v287h176c52 0 93.333 -2.16699 124 -6.5s59 -13.5 85 -27.5c48.667 -26 85.334 -66.667 110.001 -122s37 -116 37 -182c0 -117.333 -33 -208 -99 -272c-32.667 -32 -67.5 -51.667 -104.5 -59s-94.833 -11 -173.5 -11zM144.999 624v-231h215
v-58h-215v-279h109c38.667 0 67.167 0.5 85.5 1.5s38.833 5.16699 61.5 12.5s42.334 18.333 59.001 33c25.333 22 46.166 54 62.499 96s24.5 88.667 24.5 140c0 49.333 -7.5 95 -22.5 137s-36.5 75 -64.5 99c-24.667 22 -52.5 35.667 -83.5 41s-79.5 8 -145.5 8h-86z" />
    <glyph glyph-name="Ntilde" unicode="&#xd1;" horiz-adv-x="690" 
d="M469 868l40.999 -10c-6.66699 -14 -12 -24.667 -16 -32s-10 -16.333 -18 -27s-17 -18.5 -27 -23.5s-21 -7.5 -33 -7.5c-18 0 -43.667 8.66699 -77 26c-29.333 14.667 -47.666 22 -54.999 22c-22 0 -37.667 -15.667 -47 -47l-42 9c24 60 56 90 96 90
c15.333 0 37.666 -7.33301 66.999 -22c30.667 -15.333 51.334 -23 62.001 -23c22.667 0 39 15 49 45zM144.999 680l345.999 -493.998c32 -44.667 50.667 -75.334 56 -92.001h1c-2 24 -3 57 -3 99v487h63v-680h-63l-345 494c-33.333 47.333 -52.666 78.666 -57.999 93.999h-1
c2.66699 -32 4 -65.333 4 -100v-488h-63v680h63z" />
    <glyph glyph-name="Ograve" unicode="&#xd2;" horiz-adv-x="674" 
d="M407 753h-56l-142 136h96zM48 340c0 107.333 25.833 192.833 77.5 256.5s122.167 95.5 211.5 95.5s159.833 -31.833 211.5 -95.5s77.5 -149.167 77.5 -256.5c0 -106.667 -25.833 -192 -77.5 -256s-122.167 -96 -211.5 -96s-159.833 32 -211.5 96s-77.5 149.333 -77.5 256
zM115 340c0 -88.667 20.3291 -160.334 60.9961 -215.001s94.334 -82 161.001 -82s120.334 27.333 161.001 82s61 126.334 61 215.001s-20.167 160.334 -60.5 215.001s-94.166 82 -161.499 82s-121.166 -27.333 -161.499 -82s-60.5 -126.334 -60.5 -215.001z" />
    <glyph glyph-name="Oacute" unicode="&#xd3;" horiz-adv-x="674" 
d="M337 753h-56l102 136h96zM48 340c0 107.333 25.833 192.833 77.5 256.5s122.167 95.5 211.5 95.5s159.833 -31.833 211.5 -95.5s77.5 -149.167 77.5 -256.5c0 -106.667 -25.833 -192 -77.5 -256s-122.167 -96 -211.5 -96s-159.833 32 -211.5 96s-77.5 149.333 -77.5 256z
M115 340c0 -88.667 20.3291 -160.334 60.9961 -215.001s94.334 -82 161.001 -82s120.334 27.333 161.001 82s61 126.334 61 215.001s-20.167 160.334 -60.5 215.001s-94.166 82 -161.499 82s-121.166 -27.333 -161.499 -82s-60.5 -126.334 -60.5 -215.001z" />
    <glyph glyph-name="Ocircumflex" unicode="&#xd4;" horiz-adv-x="674" 
d="M48 340c0 107.333 25.833 192.833 77.5 256.5s122.167 95.5 211.5 95.5s159.833 -31.833 211.5 -95.5s77.5 -149.167 77.5 -256.5c0 -106.667 -25.833 -192 -77.5 -256s-122.167 -96 -211.5 -96s-159.833 32 -211.5 96s-77.5 149.333 -77.5 256zM115 340
c0 -88.667 20.3291 -160.334 60.9961 -215.001s94.334 -82 161.001 -82s120.334 27.333 161.001 82s61 126.334 61 215.001s-20.167 160.334 -60.5 215.001s-94.166 82 -161.499 82s-121.166 -27.333 -161.499 -82s-60.5 -126.334 -60.5 -215.001zM415.996 753l-79 81
l-79 -81h-61l119 136h42l119 -136h-61z" />
    <glyph glyph-name="Otilde" unicode="&#xd5;" horiz-adv-x="658" 
d="M443 868l40.999 -10c-6.66699 -14 -12 -24.667 -16 -32s-10 -16.333 -18 -27s-17 -18.5 -27 -23.5s-21 -7.5 -33 -7.5c-18 0 -43.667 8.66699 -77 26c-29.333 14.667 -47.666 22 -54.999 22c-22 0 -37.667 -15.667 -47 -47l-42 9c24 60 56 90 96 90
c15.333 0 37.666 -7.33301 66.999 -22c30.667 -15.333 51.334 -23 62.001 -23c22.667 0 39 15 49 45zM47.999 330c0 104.667 25 187.834 75 249.501s118.667 92.5 206 92.5s156 -30.833 206 -92.5s75 -144.834 75 -249.501c0 -103.333 -25 -186.166 -75 -248.499
s-118.667 -93.5 -206 -93.5c-86.667 0 -155.167 31.167 -205.5 93.5s-75.5 145.166 -75.5 248.499zM113.999 330c0 -86 19.667 -155.5 59 -208.5s91.333 -79.5 156 -79.5s116.667 26.5 156 79.5s59 122.5 59 208.5s-19.5 155.5 -58.5 208.5s-91.167 79.5 -156.5 79.5
s-117.5 -26.5 -156.5 -79.5s-58.5 -122.5 -58.5 -208.5z" />
    <glyph glyph-name="Odieresis" unicode="&#xd6;" horiz-adv-x="674" 
d="M216 768v91h62v-91h-62zM403 768v91h62v-91h-62zM48 340c0 107.333 25.833 192.833 77.5 256.5s122.167 95.5 211.5 95.5s159.833 -31.833 211.5 -95.5s77.5 -149.167 77.5 -256.5c0 -106.667 -25.833 -192 -77.5 -256s-122.167 -96 -211.5 -96s-159.833 32 -211.5 96
s-77.5 149.333 -77.5 256zM115 340c0 -88.667 20.3291 -160.334 60.9961 -215.001s94.334 -82 161.001 -82s120.334 27.333 161.001 82s61 126.334 61 215.001s-20.167 160.334 -60.5 215.001s-94.166 82 -161.499 82s-121.166 -27.333 -161.499 -82
s-60.5 -126.334 -60.5 -215.001z" />
    <glyph glyph-name="multiply" unicode="&#xd7;" 
d="M622 522l-228 -228l228 -228l-40 -40l-228 228l-228 -228l-40 40l228 228l-228 228l40 40l228 -228l228 228z" />
    <glyph glyph-name="Oslash" unicode="&#xd8;" horiz-adv-x="674" 
d="M48 340c0 107.333 25.834 192.833 77.501 256.5s122.167 95.5 211.5 95.5c85.333 0 154 -29.667 206 -89l75 84l43 -39l-84 -94c32.667 -58 49 -129.333 49 -214c0 -106.667 -25.833 -192 -77.5 -256s-122.167 -96 -211.5 -96c-80.667 0 -146.334 26.333 -197.001 79
l-72 -80l-46 39l81 90c-36.667 59.333 -55 134 -55 224zM115.001 340c0 -64.667 11.666 -122 34.999 -172l348 386c-40 54.667 -93.667 82 -161 82s-121.166 -27.167 -161.499 -81.5s-60.5 -125.833 -60.5 -214.5zM559 340c0 60 -10 113.667 -30 161l-346 -385
c39.333 -48 90.666 -72 153.999 -72c66.667 0 120.334 27.333 161.001 82s61 126 61 214z" />
    <glyph glyph-name="Ugrave" unicode="&#xd9;" horiz-adv-x="661" 
d="M410 753h-56l-142 136h96zM331 -13c65.333 0 119.5 14.667 162.5 44s71.167 72.333 84.5 129c5.33301 26.667 8 66.667 8 120v399h-63v-404c0 -64.667 -6.33301 -111 -19 -139c-27.333 -62 -85 -93 -173 -93c-88.667 0 -146.667 31 -174 93
c-12.667 28 -19 74.333 -19 139v404h-63v-399c0 -54.667 3 -94.667 9 -120c13.333 -56.667 41.5 -99.667 84.5 -129s97.167 -44 162.5 -44z" />
    <glyph glyph-name="Uacute" unicode="&#xda;" horiz-adv-x="661" 
d="M321 753h-56l102 136h96zM331 -13c-65.333 0 -119.5 14.667 -162.5 44s-71.167 72.333 -84.5 129c-6 25.333 -9 65.333 -9 120v399h63v-404c0 -64.667 6.33301 -111 19 -139c27.333 -62 85.333 -93 174 -93c88 0 145.667 31 173 93c12.667 28 19 74.333 19 139v404h63
v-399c0 -53.333 -2.66699 -93.333 -8 -120c-13.333 -56.667 -41.5 -99.667 -84.5 -129s-97.167 -44 -162.5 -44z" />
    <glyph glyph-name="Ucircumflex" unicode="&#xdb;" horiz-adv-x="661" 
d="M331 -13c65.333 0 119.5 14.667 162.5 44s71.167 72.333 84.5 129c5.33301 26.667 8 66.667 8 120v399h-63v-404c0 -64.667 -6.33301 -111 -19 -139c-27.333 -62 -85 -93 -173 -93c-88.667 0 -146.667 31 -174 93c-12.667 28 -19 74.333 -19 139v404h-63v-399
c0 -54.667 3 -94.667 9 -120c13.333 -56.667 41.5 -99.667 84.5 -129s97.167 -44 162.5 -44zM414 753l-79 81l-79 -81h-61l119 136h42l119 -136h-61z" />
    <glyph glyph-name="Udieresis" unicode="&#xdc;" horiz-adv-x="661" 
d="M207 768v91h62v-91h-62zM394 768v91h62v-91h-62zM331 -13c-65.333 0 -119.5 14.667 -162.5 44s-71.167 72.333 -84.5 129c-6 25.333 -9 65.333 -9 120v399h63v-404c0 -64.667 6.33301 -111 19 -139c27.333 -62 85.333 -93 174 -93c88 0 145.667 31 173 93
c12.667 28 19 74.333 19 139v404h63v-399c0 -53.333 -2.66699 -93.333 -8 -120c-13.333 -56.667 -41.5 -99.667 -84.5 -129s-97.167 -44 -162.5 -44z" />
    <glyph glyph-name="Yacute" unicode="&#xdd;" horiz-adv-x="549" 
d="M275 753h-56l102 136h96zM300 279v-279h-63v279l-245 400h76l204 -336l211 336h74z" />
    <glyph glyph-name="Thorn" unicode="&#xde;" horiz-adv-x="597" 
d="M326 195l-181 -0.000976562v-195h-63v680h63v-116h181c70 0 123 -11.333 159 -34c54.667 -33.333 82 -83.666 82 -150.999c0 -66.667 -27.333 -116.667 -82 -150c-36 -22.667 -89 -34 -159 -34zM145 507.999l0.000976562 -257h167c53.333 0 93.666 6 120.999 18
c45.333 21.333 68 58.333 68 111c0 52 -22.667 88.667 -68 110c-26.667 12 -67 18 -121 18h-167z" />
    <glyph glyph-name="germandbls" unicode="&#xdf;" horiz-adv-x="477" 
d="M400 538c0 -71.333 -27.333 -115.331 -82 -131.998c15.333 -3.33301 28.5 -8.16602 39.5 -14.499s22.333 -16.333 34 -30s20.5 -33.5 26.5 -59.5s9 -57.667 9 -95c0 -142.667 -47.667 -214 -143 -214c-25.333 0 -46.333 4.16699 -63 12.5s-29 20.5 -37 36.5
s-13.333 32.333 -16 49s-4 37 -4 61v42h48v-39c0 -36 4.33301 -63.667 13 -83s27.334 -29 56.001 -29c32 0 54.333 12.667 67 38s19 67.666 19 126.999c0 37.333 -2.83301 67.166 -8.5 89.499s-16.834 40.166 -33.501 53.499c-19.333 16.667 -57 25 -113 25h-48v49h41
c42 0 70.333 4 85 12c34 16 51 49 51 99c0 30.667 -8.33301 56 -25 76s-41.667 30 -75 30c-49.333 0 -82 -19 -98 -57c-8 -26 -12 -67.333 -12 -124v-461h-59v458c0 75.333 7.66699 127.333 23 156c24.667 52 73.667 78 147 78c53.333 0 93 -14.167 119 -42.5
s39 -65.5 39 -111.5z" />
    <glyph glyph-name="agrave" unicode="&#xe0;" horiz-adv-x="489" 
d="M114 680h94l94 -128h-56zM351 168l-0.000976562 87.999c-13.333 -4.66699 -30 -8.66699 -50 -12l-79 -15c-19.333 -4 -34.333 -7.5 -45 -10.5s-22.167 -8 -34.5 -15s-21.333 -16.167 -27 -27.5s-8.5 -25.333 -8.5 -42c0 -31.333 9.5 -55.166 28.5 -71.499
s44.833 -24.5 77.5 -24.5c38.667 0 71.334 12 98.001 36s40 55.333 40 94zM112.999 324.999l-55.001 12.999c-0.666992 46 15.833 82.333 49.5 109s77.167 40 130.5 40c54 0 95.667 -11 125 -33s44 -61 44 -117v-237c0 -22 2.33301 -37.833 7 -47.5s15 -14.5 31 -14.5
c14 0 26 3 36 9v-46c-13.333 -7.33301 -30.333 -11 -51 -11c-24 0 -43 6.5 -57 19.5s-20.667 32.167 -20 57.5h-1c-10 -21.333 -28 -39.833 -54 -55.5s-58.333 -23.5 -97 -23.5c-48.667 0 -86.834 12.833 -114.501 38.5s-41.5 61.167 -41.5 106.5c0 38 11 68 33 90
c24.667 24 68.334 41.333 131.001 52l118 22c6.66699 1.33301 11.334 2.5 14.001 3.5s5 3.33301 7 7s3 8.83398 3 15.501v15c0 34 -9 59.167 -27 75.5s-47.667 24.5 -89 24.5c-39.333 0 -69.5 -9.83301 -90.5 -29.5s-31.5 -47.5 -31.5 -83.5z" />
    <glyph glyph-name="aacute" unicode="&#xe1;" horiz-adv-x="489" 
d="M280 680h94l-132 -128h-56zM351 168l-0.000976562 87.999c-13.333 -4.66699 -30 -8.66699 -50 -12l-79 -15c-19.333 -4 -34.333 -7.5 -45 -10.5s-22.167 -8 -34.5 -15s-21.333 -16.167 -27 -27.5s-8.5 -25.333 -8.5 -42c0 -31.333 9.5 -55.166 28.5 -71.499
s44.833 -24.5 77.5 -24.5c38.667 0 71.334 12 98.001 36s40 55.333 40 94zM112.999 324.999l-55.001 12.999c-0.666992 46 15.833 82.333 49.5 109s77.167 40 130.5 40c54 0 95.667 -11 125 -33s44 -61 44 -117v-237c0 -22 2.33301 -37.833 7 -47.5s15 -14.5 31 -14.5
c14 0 26 3 36 9v-46c-13.333 -7.33301 -30.333 -11 -51 -11c-24 0 -43 6.5 -57 19.5s-20.667 32.167 -20 57.5h-1c-10 -21.333 -28 -39.833 -54 -55.5s-58.333 -23.5 -97 -23.5c-48.667 0 -86.834 12.833 -114.501 38.5s-41.5 61.167 -41.5 106.5c0 38 11 68 33 90
c24.667 24 68.334 41.333 131.001 52l118 22c6.66699 1.33301 11.334 2.5 14.001 3.5s5 3.33301 7 7s3 8.83398 3 15.501v15c0 34 -9 59.167 -27 75.5s-47.667 24.5 -89 24.5c-39.333 0 -69.5 -9.83301 -90.5 -29.5s-31.5 -47.5 -31.5 -83.5z" />
    <glyph glyph-name="acircumflex" unicode="&#xe2;" horiz-adv-x="489" 
d="M166 552h-63l113 128h42l113 -128h-63l-70 75zM351 168l-0.000976562 87.999c-13.333 -4.66699 -30 -8.66699 -50 -12l-79 -15c-19.333 -4 -34.333 -7.5 -45 -10.5s-22.167 -8 -34.5 -15s-21.333 -16.167 -27 -27.5s-8.5 -25.333 -8.5 -42
c0 -31.333 9.5 -55.166 28.5 -71.499s44.833 -24.5 77.5 -24.5c38.667 0 71.334 12 98.001 36s40 55.333 40 94zM112.999 324.999l-55.001 12.999c-0.666992 46 15.833 82.333 49.5 109s77.167 40 130.5 40c54 0 95.667 -11 125 -33s44 -61 44 -117v-237
c0 -22 2.33301 -37.833 7 -47.5s15 -14.5 31 -14.5c14 0 26 3 36 9v-46c-13.333 -7.33301 -30.333 -11 -51 -11c-24 0 -43 6.5 -57 19.5s-20.667 32.167 -20 57.5h-1c-10 -21.333 -28 -39.833 -54 -55.5s-58.333 -23.5 -97 -23.5c-48.667 0 -86.834 12.833 -114.501 38.5
s-41.5 61.167 -41.5 106.5c0 38 11 68 33 90c24.667 24 68.334 41.333 131.001 52l118 22c6.66699 1.33301 11.334 2.5 14.001 3.5s5 3.33301 7 7s3 8.83398 3 15.501v15c0 34 -9 59.167 -27 75.5s-47.667 24.5 -89 24.5c-39.333 0 -69.5 -9.83301 -90.5 -29.5
s-31.5 -47.5 -31.5 -83.5z" />
    <glyph glyph-name="atilde" unicode="&#xe3;" horiz-adv-x="489" 
d="M364 679l40.999 -10c-6.66699 -14 -12 -24.667 -16 -32s-10 -16.333 -18 -27s-17 -18.5 -27 -23.5s-21 -7.5 -33 -7.5c-18 0 -43.667 8.66699 -77 26c-29.333 14.667 -47.666 22 -54.999 22c-22 0 -37.667 -15.667 -47 -47l-42 9c24 60 56 90 96 90
c15.333 0 37.666 -7.33301 66.999 -22c30.667 -15.333 51.334 -23 62.001 -23c22.667 0 39 15 49 45zM350.999 168l-0.000976562 87.999c-13.333 -4.66699 -30 -8.66699 -50 -12l-79 -15c-19.333 -4 -34.333 -7.5 -45 -10.5s-22.167 -8 -34.5 -15s-21.333 -16.167 -27 -27.5
s-8.5 -25.333 -8.5 -42c0 -31.333 9.5 -55.166 28.5 -71.499s44.833 -24.5 77.5 -24.5c38.667 0 71.334 12 98.001 36s40 55.333 40 94zM112.998 324.999l-55.001 12.999c-0.666992 46 15.833 82.333 49.5 109s77.167 40 130.5 40c54 0 95.667 -11 125 -33s44 -61 44 -117
v-237c0 -22 2.33301 -37.833 7 -47.5s15 -14.5 31 -14.5c14 0 26 3 36 9v-46c-13.333 -7.33301 -30.333 -11 -51 -11c-24 0 -43 6.5 -57 19.5s-20.667 32.167 -20 57.5h-1c-10 -21.333 -28 -39.833 -54 -55.5s-58.333 -23.5 -97 -23.5
c-48.667 0 -86.834 12.833 -114.501 38.5s-41.5 61.167 -41.5 106.5c0 38 11 68 33 90c24.667 24 68.334 41.333 131.001 52l118 22c6.66699 1.33301 11.334 2.5 14.001 3.5s5 3.33301 7 7s3 8.83398 3 15.501v15c0 34 -9 59.167 -27 75.5s-47.667 24.5 -89 24.5
c-39.333 0 -69.5 -9.83301 -90.5 -29.5s-31.5 -47.5 -31.5 -83.5z" />
    <glyph glyph-name="adieresis" unicode="&#xe4;" horiz-adv-x="489" 
d="M116 579v91h62v-91h-62zM303 579v91h62v-91h-62zM351 168l-0.000976562 87.999c-13.333 -4.66699 -30 -8.66699 -50 -12l-79 -15c-19.333 -4 -34.333 -7.5 -45 -10.5s-22.167 -8 -34.5 -15s-21.333 -16.167 -27 -27.5s-8.5 -25.333 -8.5 -42
c0 -31.333 9.5 -55.166 28.5 -71.499s44.833 -24.5 77.5 -24.5c38.667 0 71.334 12 98.001 36s40 55.333 40 94zM112.999 324.999l-55.001 12.999c-0.666992 46 15.833 82.333 49.5 109s77.167 40 130.5 40c54 0 95.667 -11 125 -33s44 -61 44 -117v-237
c0 -22 2.33301 -37.833 7 -47.5s15 -14.5 31 -14.5c14 0 26 3 36 9v-46c-13.333 -7.33301 -30.333 -11 -51 -11c-24 0 -43 6.5 -57 19.5s-20.667 32.167 -20 57.5h-1c-10 -21.333 -28 -39.833 -54 -55.5s-58.333 -23.5 -97 -23.5c-48.667 0 -86.834 12.833 -114.501 38.5
s-41.5 61.167 -41.5 106.5c0 38 11 68 33 90c24.667 24 68.334 41.333 131.001 52l118 22c6.66699 1.33301 11.334 2.5 14.001 3.5s5 3.33301 7 7s3 8.83398 3 15.501v15c0 34 -9 59.167 -27 75.5s-47.667 24.5 -89 24.5c-39.333 0 -69.5 -9.83301 -90.5 -29.5
s-31.5 -47.5 -31.5 -83.5z" />
    <glyph glyph-name="aring" unicode="&#xe5;" horiz-adv-x="489" 
d="M157 618c0 22.667 8 41.834 24 57.501s35.333 23.5 58 23.5s42 -7.83301 58 -23.5s24 -34.834 24 -57.501s-8 -41.834 -24 -57.501s-35.333 -23.5 -58 -23.5s-42 7.83301 -58 23.5s-24 34.834 -24 57.501zM195 618c0 -12 4.33301 -22.167 13 -30.5s18.667 -12.5 30 -12.5
s21.333 4.16699 30 12.5s13 18.5 13 30.5s-4.33301 22.167 -13 30.5s-18.667 12.5 -30 12.5s-21.333 -4.16699 -30 -12.5s-13 -18.5 -13 -30.5zM351 168l-0.000976562 87.999c-13.333 -4.66699 -30 -8.66699 -50 -12l-79 -15c-19.333 -4 -34.333 -7.5 -45 -10.5
s-22.167 -8 -34.5 -15s-21.333 -16.167 -27 -27.5s-8.5 -25.333 -8.5 -42c0 -31.333 9.5 -55.166 28.5 -71.499s44.833 -24.5 77.5 -24.5c38.667 0 71.334 12 98.001 36s40 55.333 40 94zM112.999 324.999l-55.001 12.999c-0.666992 46 15.833 82.333 49.5 109
s77.167 40 130.5 40c54 0 95.667 -11 125 -33s44 -61 44 -117v-237c0 -22 2.33301 -37.833 7 -47.5s15 -14.5 31 -14.5c14 0 26 3 36 9v-46c-13.333 -7.33301 -30.333 -11 -51 -11c-24 0 -43 6.5 -57 19.5s-20.667 32.167 -20 57.5h-1c-10 -21.333 -28 -39.833 -54 -55.5
s-58.333 -23.5 -97 -23.5c-48.667 0 -86.834 12.833 -114.501 38.5s-41.5 61.167 -41.5 106.5c0 38 11 68 33 90c24.667 24 68.334 41.333 131.001 52l118 22c6.66699 1.33301 11.334 2.5 14.001 3.5s5 3.33301 7 7s3 8.83398 3 15.501v15c0 34 -9 59.167 -27 75.5
s-47.667 24.5 -89 24.5c-39.333 0 -69.5 -9.83301 -90.5 -29.5s-31.5 -47.5 -31.5 -83.5z" />
    <glyph glyph-name="ae" unicode="&#xe6;" horiz-adv-x="816" 
d="M113 325l-54.998 12.998c-0.666992 46 15.833 82.333 49.5 109s77.167 40 130.5 40c69.333 0 116.666 -16.667 141.999 -50c6 -8 11 -17.333 15 -28c40 52 94 78 162 78c65.333 0 116.333 -22.667 153 -68s55 -104.333 55 -177v-8h-362v-8
c0 -59.333 15.167 -105.166 45.5 -137.499s68.833 -48.5 115.5 -48.5c73.333 0 126.666 36.333 159.999 109l45 -32c-42 -86 -111 -129 -207 -129c-83.333 0 -144.333 32.667 -183 98c-13.333 -25.333 -34.333 -48 -63 -68s-66.334 -30 -113.001 -30
c-48 0 -86.333 13 -115 39s-43 62 -43 108c0 42.667 13.5 74.167 40.5 94.5s68.167 35.5 123.5 45.5l118 22c6.66699 1.33301 11.334 2.5 14.001 3.5s5 3.33301 7 7s3 8.83398 3 15.501v15c0 34 -9 59.167 -27 75.5s-47.667 24.5 -89 24.5
c-39.333 0 -69.5 -9.83301 -90.5 -29.5s-31.5 -47.5 -31.5 -83.5zM351.002 168.998l-0.000976562 87.001c-13.333 -4.66699 -30 -8.66699 -50 -12l-79 -15c-19.333 -4 -34.333 -7.5 -45 -10.5s-22.167 -8 -34.5 -15s-21.333 -16.167 -27 -27.5s-8.5 -25.333 -8.5 -42
c0 -30.667 9.66699 -54.334 29 -71.001s45 -25 77 -25c38.667 0 71.334 12.167 98.001 36.5s40 55.833 40 94.5zM557.001 437.999c-42.667 0 -77.333 -13.833 -104 -41.5s-42.667 -65.834 -48 -114.501h296c-1.33301 40.667 -15 76.834 -41 108.501s-60.333 47.5 -103 47.5z
" />
    <glyph glyph-name="ccedilla" unicode="&#xe7;" horiz-adv-x="473" 
d="M446 363l-50.9971 -30c-24.667 69.333 -69.334 104 -134.001 104c-47.333 0 -84.833 -17.833 -112.5 -53.5s-41.5 -84.5 -41.5 -146.5c0 -61.333 14 -109.666 42 -144.999s65.333 -53 112 -53c62 0 108 30.333 138 91l47 -29c-34 -70.667 -91 -108 -171 -112l-24 -34
c3.33301 0.666992 8.66602 1 15.999 1c23.333 0 42.333 -5.83301 57 -17.5s22 -28.5 22 -50.5c0 -26.667 -9.33301 -46.834 -28 -60.501s-41.667 -20.5 -69 -20.5c-15.333 0 -30.333 2.66699 -45 8l9 27c10 -3.33301 21 -5 33 -5c15.333 0 27.833 3.83301 37.5 11.5
s14.5 18.167 14.5 31.5c0 14 -4.83301 24.5 -14.5 31.5s-21.834 10.5 -36.501 10.5c-13.333 0 -24.666 -2.33301 -33.999 -7l-12 22l37 52c-60 5.33301 -107.167 30 -141.5 74s-51.5 101.667 -51.5 173c0 76.667 19.667 137.667 59 183s91.666 68 156.999 68
c91.333 0 153 -41.333 185 -124z" />
    <glyph glyph-name="egrave" unicode="&#xe8;" horiz-adv-x="519" 
d="M134 680h94l94 -128h-56zM427 146l45 -29.001c-42.667 -86 -111.667 -129 -207 -129c-68 0 -121.667 22.167 -161 66.5s-59 106.5 -59 186.5c0 72.667 19.833 131.834 59.5 177.501s91.5 68.5 155.5 68.5c66.667 0 118 -22.833 154 -68.5s54 -105.167 54 -178.5v-8h-362
v-7c0 -59.333 15.167 -105 45.5 -137s68.833 -48 115.5 -48c72.667 0 126 35.333 160 106zM260 437.999c-43.333 0 -78.501 -14.167 -105.501 -42.5s-42.5 -66.833 -46.5 -115.5h296c0 41.333 -13.167 78 -39.5 110s-61.166 48 -104.499 48z" />
    <glyph glyph-name="eacute" unicode="&#xe9;" horiz-adv-x="519" 
d="M427 146l45 -29.001c-42.667 -86 -111.667 -129 -207 -129c-68 0 -121.667 22.167 -161 66.5s-59 106.5 -59 186.5c0 72.667 19.833 131.834 59.5 177.501s91.5 68.5 155.5 68.5c66.667 0 118 -22.833 154 -68.5s54 -105.167 54 -178.5v-8h-362v-7
c0 -59.333 15.167 -105 45.5 -137s68.833 -48 115.5 -48c72.667 0 126 35.333 160 106zM260 437.999c-43.333 0 -78.501 -14.167 -105.501 -42.5s-42.5 -66.833 -46.5 -115.5h296c0 41.333 -13.167 78 -39.5 110s-61.166 48 -104.499 48zM308.999 679.999h94l-132 -128h-56z
" />
    <glyph glyph-name="ecircumflex" unicode="&#xea;" horiz-adv-x="519" 
d="M427 146l45 -29.001c-42.667 -86 -111.667 -129 -207 -129c-68 0 -121.667 22.167 -161 66.5s-59 106.5 -59 186.5c0 72.667 19.833 131.834 59.5 177.501s91.5 68.5 155.5 68.5c66.667 0 118 -22.833 154 -68.5s54 -105.167 54 -178.5v-8h-362v-7
c0 -59.333 15.167 -105 45.5 -137s68.833 -48 115.5 -48c72.667 0 126 35.333 160 106zM260 437.999c-43.333 0 -78.501 -14.167 -105.501 -42.5s-42.5 -66.833 -46.5 -115.5h296c0 41.333 -13.167 78 -39.5 110s-61.166 48 -104.499 48zM194.999 551.999h-63l113 128h42
l113 -128h-63l-70 75z" />
    <glyph glyph-name="edieresis" unicode="&#xeb;" horiz-adv-x="519" 
d="M136 579v91h62v-91h-62zM323 579v91h62v-91h-62zM427 146l45 -29.001c-42.667 -86 -111.667 -129 -207 -129c-68 0 -121.667 22.167 -161 66.5s-59 106.5 -59 186.5c0 72.667 19.833 131.834 59.5 177.501s91.5 68.5 155.5 68.5c66.667 0 118 -22.833 154 -68.5
s54 -105.167 54 -178.5v-8h-362v-7c0 -59.333 15.167 -105 45.5 -137s68.833 -48 115.5 -48c72.667 0 126 35.333 160 106zM260 437.999c-43.333 0 -78.501 -14.167 -105.501 -42.5s-42.5 -66.833 -46.5 -115.5h296c0 41.333 -13.167 78 -39.5 110s-61.166 48 -104.499 48z
" />
    <glyph glyph-name="igrave" unicode="&#xec;" horiz-adv-x="213" 
d="M136 475v-475h-59v475h59zM-42 680h94l94 -128h-56z" />
    <glyph glyph-name="iacute" unicode="&#xed;" horiz-adv-x="213" 
d="M136 475v-475h-59v475h59zM159 680h94l-132 -128h-56z" />
    <glyph glyph-name="icircumflex" unicode="&#xee;" horiz-adv-x="213" 
d="M136 475v-475h-59v475h59zM34 552h-63l113 128h42l113 -128h-63l-70 75z" />
    <glyph glyph-name="idieresis" unicode="&#xef;" horiz-adv-x="213" 
d="M136 475v-475h-59v475h59zM-19 579v91h62v-91h-62zM168 579v91h62v-91h-62z" />
    <glyph glyph-name="eth" unicode="&#xf0;" horiz-adv-x="524" 
d="M107 237c0 -61.333 14 -109.668 42 -145.001s65.333 -53 112 -53s84 17.833 112 53.5s42 83.834 42 144.501c0 62 -13.833 110.833 -41.5 146.5s-65.167 53.5 -112.5 53.5s-84.833 -17.833 -112.5 -53.5s-41.5 -84.5 -41.5 -146.5zM249 680.998l46 20.001
c28 -30.667 49.333 -56.334 64 -77.001l105 34l13 -36l-95 -31c64 -104 96 -214.333 96 -331c0 -82 -18 -147.833 -54 -197.5s-90.333 -74.5 -163 -74.5c-66 0 -118.5 22.333 -157.5 67s-58.5 105 -58.5 181s19.667 136.833 59 182.5s91.333 68.5 156 68.5
c26 0 52.167 -5.66699 78.5 -17s46.833 -28.333 61.5 -51h1c-13.333 52 -36.333 104 -69 156l-160 -52l-13 37l150 48c-20.667 28 -40.667 52.333 -60 73z" />
    <glyph glyph-name="ntilde" unicode="&#xf1;" horiz-adv-x="520" 
d="M391 679l40.999 -10c-6.66699 -14 -12 -24.667 -16 -32s-10 -16.333 -18 -27s-17 -18.5 -27 -23.5s-21 -7.5 -33 -7.5c-18 0 -43.667 8.66699 -77 26c-29.333 14.667 -47.666 22 -54.999 22c-22 0 -37.667 -15.667 -47 -47l-42 9c24 60 56 90 96 90
c15.333 0 37.666 -7.33301 66.999 -22c30.667 -15.333 51.334 -23 62.001 -23c22.667 0 39 15 49 45zM446.999 269v-268.999h-59v256c0 76 -10 124.667 -30 146c-18.667 20.667 -47 31 -85 31c-40.667 0 -73 -13 -97 -39c-26.667 -27.333 -40 -64.333 -40 -111v-283h-59v476
h59v-79c10 25.333 28.167 46.666 54.5 63.999s58.5 26 96.5 26c50.667 0 90 -15.333 118 -46c16 -18 27 -38.5 33 -61.5s9 -59.833 9 -110.5z" />
    <glyph glyph-name="ograve" unicode="&#xf2;" horiz-adv-x="522" 
d="M45 236c0 76.667 19.6689 137.667 59.002 183s91.666 68 156.999 68s117.666 -22.667 156.999 -68s59 -106.333 59 -183c0 -76 -19.5 -136.333 -58.5 -181s-91.5 -67 -157.5 -67s-118.5 22.333 -157.5 67s-58.5 105 -58.5 181zM107.002 237
c0 -61.333 14 -109.668 42 -145.001s65.333 -53 112 -53s84 17.833 112 53.5s42 83.834 42 144.501c0 62 -13.833 110.833 -41.5 146.5s-65.167 53.5 -112.5 53.5s-84.833 -17.833 -112.5 -53.5s-41.5 -84.5 -41.5 -146.5zM144.002 679.998h94l94 -128h-56z" />
    <glyph glyph-name="oacute" unicode="&#xf3;" horiz-adv-x="522" 
d="M45 236c0 76.667 19.6689 137.667 59.002 183s91.666 68 156.999 68s117.666 -22.667 156.999 -68s59 -106.333 59 -183c0 -76 -19.5 -136.333 -58.5 -181s-91.5 -67 -157.5 -67s-118.5 22.333 -157.5 67s-58.5 105 -58.5 181zM107.002 237
c0 -61.333 14 -109.668 42 -145.001s65.333 -53 112 -53s84 17.833 112 53.5s42 83.834 42 144.501c0 62 -13.833 110.833 -41.5 146.5s-65.167 53.5 -112.5 53.5s-84.833 -17.833 -112.5 -53.5s-41.5 -84.5 -41.5 -146.5zM304.002 679.998h94l-132 -128h-56z" />
    <glyph glyph-name="ocircumflex" unicode="&#xf4;" horiz-adv-x="522" 
d="M45 236c0 76.667 19.6689 137.667 59.002 183s91.666 68 156.999 68s117.666 -22.667 156.999 -68s59 -106.333 59 -183c0 -76 -19.5 -136.333 -58.5 -181s-91.5 -67 -157.5 -67s-118.5 22.333 -157.5 67s-58.5 105 -58.5 181zM107.002 237
c0 -61.333 14 -109.668 42 -145.001s65.333 -53 112 -53s84 17.833 112 53.5s42 83.834 42 144.501c0 62 -13.833 110.833 -41.5 146.5s-65.167 53.5 -112.5 53.5s-84.833 -17.833 -112.5 -53.5s-41.5 -84.5 -41.5 -146.5zM195.002 551.998h-63l113 128h42l113 -128h-63
l-70 75z" />
    <glyph glyph-name="otilde" unicode="&#xf5;" horiz-adv-x="522" 
d="M45 236c0 76.667 19.6689 137.667 59.002 183s91.666 68 156.999 68s117.666 -22.667 156.999 -68s59 -106.333 59 -183c0 -76 -19.5 -136.333 -58.5 -181s-91.5 -67 -157.5 -67s-118.5 22.333 -157.5 67s-58.5 105 -58.5 181zM107.002 237
c0 -61.333 14 -109.668 42 -145.001s65.333 -53 112 -53s84 17.833 112 53.5s42 83.834 42 144.501c0 62 -13.833 110.833 -41.5 146.5s-65.167 53.5 -112.5 53.5s-84.833 -17.833 -112.5 -53.5s-41.5 -84.5 -41.5 -146.5zM376.002 678.998l40.999 -10
c-6.66699 -14 -12 -24.667 -16 -32s-10 -16.333 -18 -27s-17 -18.5 -27 -23.5s-21 -7.5 -33 -7.5c-18 0 -43.667 8.66699 -77 26c-29.333 14.667 -47.666 22 -54.999 22c-22 0 -37.667 -15.667 -47 -47l-42 9c24 60 56 90 96 90c15.333 0 37.666 -7.33301 66.999 -22
c30.667 -15.333 51.334 -23 62.001 -23c22.667 0 39 15 49 45z" />
    <glyph glyph-name="odieresis" unicode="&#xf6;" horiz-adv-x="522" 
d="M45 236c0 76.667 19.6689 137.667 59.002 183s91.666 68 156.999 68s117.666 -22.667 156.999 -68s59 -106.333 59 -183c0 -76 -19.5 -136.333 -58.5 -181s-91.5 -67 -157.5 -67s-118.5 22.333 -157.5 67s-58.5 105 -58.5 181zM107.002 237
c0 -61.333 14 -109.668 42 -145.001s65.333 -53 112 -53s84 17.833 112 53.5s42 83.834 42 144.501c0 62 -13.833 110.833 -41.5 146.5s-65.167 53.5 -112.5 53.5s-84.833 -17.833 -112.5 -53.5s-41.5 -84.5 -41.5 -146.5zM139.002 578.998v91h62v-91h-62zM326.002 578.998
v91h62v-91h-62z" />
    <glyph glyph-name="divide" unicode="&#xf7;" 
d="M723 267v-57h-673v57h673zM347 476h78v-100h-78v100zM347 101h78v-101h-78v101z" />
    <glyph glyph-name="oslash" unicode="&#xf8;" horiz-adv-x="522" 
d="M137 109l223 290.001c-26.667 25.333 -59.667 38 -99 38c-47.333 0 -84.833 -17.833 -112.5 -53.5s-41.5 -84.5 -41.5 -146.5c0 -52.667 10 -95.334 30 -128.001zM49 -4.99902l50.001 65c-36 43.333 -54 102 -54 176c0 76.667 19.667 137.667 59 183
s91.666 68 156.999 68c52 0 96 -15 132 -45l49 64l44 -32l-55 -72c30.667 -44.667 46 -100 46 -166c0 -76 -19.5 -136.333 -58.5 -181s-91.5 -67 -157.5 -67c-47.333 0 -88.333 11.667 -123 35l-47 -61zM392.001 352.001l-219 -284.001c24.667 -19.333 54 -29 88 -29
c46.667 0 84 17.833 112 53.5s42 83.834 42 144.501c0 44.667 -7.66699 83 -23 115z" />
    <glyph glyph-name="ugrave" unicode="&#xf9;" horiz-adv-x="519" 
d="M74 178l0.000976562 297.998h59v-272c0 -63.333 10 -106.666 30 -129.999c18.667 -20.667 47 -31 85 -31c45.333 0 79.166 15 101.499 45s33.5 65 33.5 105v283h59v-476h-59v78c-10 -25.333 -27.833 -46.666 -53.5 -63.999s-57.5 -26 -95.5 -26
c-50.667 0 -90 15.333 -118 46c-28 31.333 -42 79.333 -42 144zM143.001 679.998h94l94 -128h-56z" />
    <glyph glyph-name="uacute" unicode="&#xfa;" horiz-adv-x="519" 
d="M74 178l0.000976562 297.998h59v-272c0 -63.333 10 -106.666 30 -129.999c18.667 -20.667 47 -31 85 -31c45.333 0 79.166 15 101.499 45s33.5 65 33.5 105v283h59v-476h-59v78c-10 -25.333 -27.833 -46.666 -53.5 -63.999s-57.5 -26 -95.5 -26
c-50.667 0 -90 15.333 -118 46c-28 31.333 -42 79.333 -42 144zM299.001 679.998h94l-132 -128h-56z" />
    <glyph glyph-name="ucircumflex" unicode="&#xfb;" horiz-adv-x="519" 
d="M74 178l0.000976562 297.998h59v-272c0 -63.333 10 -106.666 30 -129.999c18.667 -20.667 47 -31 85 -31c45.333 0 79.166 15 101.499 45s33.5 65 33.5 105v283h59v-476h-59v78c-10 -25.333 -27.833 -46.666 -53.5 -63.999s-57.5 -26 -95.5 -26
c-50.667 0 -90 15.333 -118 46c-28 31.333 -42 79.333 -42 144zM188.001 551.998h-63l113 128h42l113 -128h-63l-70 75z" />
    <glyph glyph-name="udieresis" unicode="&#xfc;" horiz-adv-x="519" 
d="M74 178l0.000976562 297.998h59v-272c0 -63.333 10 -106.666 30 -129.999c18.667 -20.667 47 -31 85 -31c45.333 0 79.166 15 101.499 45s33.5 65 33.5 105v283h59v-476h-59v78c-10 -25.333 -27.833 -46.666 -53.5 -63.999s-57.5 -26 -95.5 -26
c-50.667 0 -90 15.333 -118 46c-28 31.333 -42 79.333 -42 144zM139.001 578.998v91h62v-91h-62zM326.001 578.998v91h62v-91h-62z" />
    <glyph glyph-name="yacute" unicode="&#xfd;" horiz-adv-x="427" 
d="M262 680h94l-132 -128h-56zM68 476l113.001 -316.999l27 -79h1c8 23.333 18 50.666 30 81.999l121 314h61l-213 -541c-16.667 -43.333 -30 -73.333 -40 -90c-19.333 -31.333 -48.333 -47 -87 -47c-23.333 0 -44 5.33301 -62 16v59c20 -13.333 40 -20 60 -20
c19.333 0 33.666 7 42.999 21c7.33301 10 16 28.667 26 56l26 70l-170 476h64z" />
    <glyph glyph-name="thorn" unicode="&#xfe;" horiz-adv-x="539" 
d="M295 -12c-38 0 -70.668 9 -98.001 27s-47 41.333 -59 70v-275h-59v870h59v-289c12 28 31.667 51 59 69s59.333 27 96 27c60.667 0 109.334 -22.333 146.001 -67s55 -106 55 -184c0 -76.667 -18.167 -137.167 -54.5 -181.5s-84.5 -66.5 -144.5 -66.5zM135.999 237
c0 -63.333 13.168 -112.166 39.501 -146.499s62.5 -51.5 108.5 -51.5c47.333 0 83.833 17.333 109.5 52s38.5 83.667 38.5 147s-13.333 112.166 -40 146.499s-63.334 51.5 -110.001 51.5c-45.333 0 -81 -17.167 -107 -51.5s-39 -83.5 -39 -147.5z" />
    <glyph glyph-name="ydieresis" unicode="&#xff;" horiz-adv-x="427" 
d="M94 579v91h62v-91h-62zM281 579v91h62v-91h-62zM68 476l113.001 -316.999l27 -79h1c8 23.333 18 50.666 30 81.999l121 314h61l-213 -541c-16.667 -43.333 -30 -73.333 -40 -90c-19.333 -31.333 -48.333 -47 -87 -47c-23.333 0 -44 5.33301 -62 16v59
c20 -13.333 40 -20 60 -20c19.333 0 33.666 7 42.999 21c7.33301 10 16 28.667 26 56l26 70l-170 476h64z" />
    <glyph glyph-name="Amacron" unicode="&#x100;" horiz-adv-x="584" 
d="M144 205l-74 -205h-67l259 680h62l257 -680h-68l-76 205h-293zM415 263l-95 250c-12 29.333 -21.667 57 -29 83h-1c-10.667 -33.333 -20.667 -61.333 -30 -84l-95 -249h250zM156 778v53h271v-53h-271z" />
    <glyph glyph-name="amacron" unicode="&#x101;" horiz-adv-x="489" 
d="M351 168l-0.000976562 87.999c-13.333 -4.66699 -30 -8.66699 -50 -12l-79 -15c-19.333 -4 -34.333 -7.5 -45 -10.5s-22.167 -8 -34.5 -15s-21.333 -16.167 -27 -27.5s-8.5 -25.333 -8.5 -42c0 -31.333 9.5 -55.166 28.5 -71.499s44.833 -24.5 77.5 -24.5
c38.667 0 71.334 12 98.001 36s40 55.333 40 94zM112.999 324.999l-55.001 12.999c-0.666992 46 15.833 82.333 49.5 109s77.167 40 130.5 40c54 0 95.667 -11 125 -33s44 -61 44 -117v-237c0 -22 2.33301 -37.833 7 -47.5s15 -14.5 31 -14.5c14 0 26 3 36 9v-46
c-13.333 -7.33301 -30.333 -11 -51 -11c-24 0 -43 6.5 -57 19.5s-20.667 32.167 -20 57.5h-1c-10 -21.333 -28 -39.833 -54 -55.5s-58.333 -23.5 -97 -23.5c-48.667 0 -86.834 12.833 -114.501 38.5s-41.5 61.167 -41.5 106.5c0 38 11 68 33 90
c24.667 24 68.334 41.333 131.001 52l118 22c6.66699 1.33301 11.334 2.5 14.001 3.5s5 3.33301 7 7s3 8.83398 3 15.501v15c0 34 -9 59.167 -27 75.5s-47.667 24.5 -89 24.5c-39.333 0 -69.5 -9.83301 -90.5 -29.5s-31.5 -47.5 -31.5 -83.5zM103.998 578.998v53h271v-53
h-271z" />
    <glyph glyph-name="Abreve" unicode="&#x102;" horiz-adv-x="584" 
d="M144 205l-74 -205h-67l259 680h62l257 -680h-68l-76 205h-293zM415 263l-95 250c-12 29.333 -21.667 57 -29 83h-1c-10.667 -33.333 -20.667 -61.333 -30 -84l-95 -249h250zM292 783c46.667 0 75.334 22.333 86.001 67h48c-4.66699 -36 -18.834 -63.667 -42.501 -83
s-54.167 -29 -91.5 -29s-67.833 9.66699 -91.5 29s-37.834 47 -42.501 83h48c10.667 -44.667 39.334 -67 86.001 -67z" />
    <glyph glyph-name="abreve" unicode="&#x103;" horiz-adv-x="489" 
d="M351 168l-0.000976562 87.999c-13.333 -4.66699 -30 -8.66699 -50 -12l-79 -15c-19.333 -4 -34.333 -7.5 -45 -10.5s-22.167 -8 -34.5 -15s-21.333 -16.167 -27 -27.5s-8.5 -25.333 -8.5 -42c0 -31.333 9.5 -55.166 28.5 -71.499s44.833 -24.5 77.5 -24.5
c38.667 0 71.334 12 98.001 36s40 55.333 40 94zM112.999 324.999l-55.001 12.999c-0.666992 46 15.833 82.333 49.5 109s77.167 40 130.5 40c54 0 95.667 -11 125 -33s44 -61 44 -117v-237c0 -22 2.33301 -37.833 7 -47.5s15 -14.5 31 -14.5c14 0 26 3 36 9v-46
c-13.333 -7.33301 -30.333 -11 -51 -11c-24 0 -43 6.5 -57 19.5s-20.667 32.167 -20 57.5h-1c-10 -21.333 -28 -39.833 -54 -55.5s-58.333 -23.5 -97 -23.5c-48.667 0 -86.834 12.833 -114.501 38.5s-41.5 61.167 -41.5 106.5c0 38 11 68 33 90
c24.667 24 68.334 41.333 131.001 52l118 22c6.66699 1.33301 11.334 2.5 14.001 3.5s5 3.33301 7 7s3 8.83398 3 15.501v15c0 34 -9 59.167 -27 75.5s-47.667 24.5 -89 24.5c-39.333 0 -69.5 -9.83301 -90.5 -29.5s-31.5 -47.5 -31.5 -83.5zM237.998 581.998
c46.667 0 75.334 22.333 86.001 67h48c-4.66699 -36 -18.834 -63.667 -42.501 -83s-54.167 -29 -91.5 -29s-67.833 9.66699 -91.5 29s-37.834 47 -42.501 83h48c10.667 -44.667 39.334 -67 86.001 -67z" />
    <glyph glyph-name="Aogonek" unicode="&#x104;" horiz-adv-x="584" 
d="M535 -174l18.001 -41c-14.667 -4 -30 -6 -46 -6c-30 0 -53.833 8.16699 -71.5 24.5s-26.5 38.5 -26.5 66.5c0 46 34.667 89.333 104 130l-76 205h-293l-74 -205h-67l259 680h62l257 -680h-11c-74 -44.667 -111 -86.667 -111 -126c0 -34 18 -51 54 -51
c7.33301 0 14.666 1 21.999 3zM415.001 263l-95 250c-12 29.333 -21.667 57 -29 83h-1c-10.667 -33.333 -20.667 -61.333 -30 -84l-95 -249h250z" />
    <glyph glyph-name="aogonek" unicode="&#x105;" horiz-adv-x="489" 
d="M439 -174l18 -41.002c-14.667 -4 -30 -6 -46 -6c-30 0 -53.833 8.16699 -71.5 24.5s-26.5 38.5 -26.5 66.5c0 42.667 30.667 83.667 92 123c-36.667 8 -54 32.667 -52 74h-1c-10 -21.333 -28 -39.833 -54 -55.5s-58.333 -23.5 -97 -23.5
c-48.667 0 -86.834 12.833 -114.501 38.5s-41.5 61.167 -41.5 106.5c0 38 11 68 33 90c24.667 24 68.334 41.333 131.001 52l118 22c6.66699 1.33301 11.334 2.5 14.001 3.5s5 3.33301 7 7s3 8.83398 3 15.501v15c0 34 -9 59.167 -27 75.5s-47.667 24.5 -89 24.5
c-39.333 0 -69.5 -9.83301 -90.5 -29.5s-31.5 -47.5 -31.5 -83.5l-55 13c-0.666992 46 15.833 82.333 49.5 109s77.167 40 130.5 40c54 0 95.667 -11 125 -33s44 -61 44 -117v-237c0 -22 2.33301 -37.833 7 -47.5s15 -14.5 31 -14.5c14 0 26 3 36 9v-46
c-3.33301 -2 -8.33301 -4 -15 -6c-68.667 -43.333 -103 -83.666 -103 -120.999c0 -34 18 -51 54 -51c7.33301 0 14.666 1 21.999 3zM351 167.998l-0.000976562 87.999c-13.333 -4.66699 -30 -8.66699 -50 -12l-79 -15c-19.333 -4 -34.333 -7.5 -45 -10.5
s-22.167 -8 -34.5 -15s-21.333 -16.167 -27 -27.5s-8.5 -25.333 -8.5 -42c0 -31.333 9.5 -55.166 28.5 -71.499s44.833 -24.5 77.5 -24.5c38.667 0 71.334 12 98.001 36s40 55.333 40 94z" />
    <glyph glyph-name="Cacute" unicode="&#x106;" horiz-adv-x="626" 
d="M337 753h-56l102 136h96zM588 528l-54.9961 -36.001c-17.333 42.667 -42.333 77.334 -75 104.001s-73.334 40 -122.001 40c-68 0 -122 -27.167 -162 -81.5s-60 -125.833 -60 -214.5s20 -160.167 60 -214.5s94 -81.5 162 -81.5c51.333 0 93.5 13.5 126.5 40.5
s57.167 62.167 72.5 105.5l56 -30c-50 -114.667 -135 -172 -255 -172c-90.667 0 -161.334 31.667 -212.001 95s-76 149 -76 257c0 107.333 25.667 192.833 77 256.5s121.666 95.5 210.999 95.5c65.333 0 118.666 -15.667 159.999 -47s72 -70.333 92 -117z" />
    <glyph glyph-name="cacute" unicode="&#x107;" horiz-adv-x="473" 
d="M446 363l-50.9961 -30.001c-24.667 69.333 -69.334 104 -134.001 104c-47.333 0 -84.833 -17.833 -112.5 -53.5s-41.5 -84.5 -41.5 -146.5c0 -61.333 14 -109.666 42 -144.999s65.333 -53 112 -53c62 0 108 30.333 138 91l47 -29
c-36.667 -75.333 -98.334 -113 -185.001 -113c-66.667 0 -119.334 22.333 -158.001 67s-58 105 -58 181c0 76.667 19.667 137.667 59 183s91.666 68 156.999 68c91.333 0 153 -41.333 185 -124zM304.004 679.999h94l-132 -128h-56z" />
    <glyph glyph-name="Ccircumflex" unicode="&#x108;" horiz-adv-x="626" 
d="M416 753l-79 81l-79 -81h-61l119 136h42l119 -136h-61zM588 528l-54.9961 -36.001c-17.333 42.667 -42.333 77.334 -75 104.001s-73.334 40 -122.001 40c-68 0 -122 -27.167 -162 -81.5s-60 -125.833 -60 -214.5s20 -160.167 60 -214.5s94 -81.5 162 -81.5
c51.333 0 93.5 13.5 126.5 40.5s57.167 62.167 72.5 105.5l56 -30c-50 -114.667 -135 -172 -255 -172c-90.667 0 -161.334 31.667 -212.001 95s-76 149 -76 257c0 107.333 25.667 192.833 77 256.5s121.666 95.5 210.999 95.5c65.333 0 118.666 -15.667 159.999 -47
s72 -70.333 92 -117z" />
    <glyph glyph-name="ccircumflex" unicode="&#x109;" horiz-adv-x="473" 
d="M446 363l-50.9961 -30.001c-24.667 69.333 -69.334 104 -134.001 104c-47.333 0 -84.833 -17.833 -112.5 -53.5s-41.5 -84.5 -41.5 -146.5c0 -61.333 14 -109.666 42 -144.999s65.333 -53 112 -53c62 0 108 30.333 138 91l47 -29
c-36.667 -75.333 -98.334 -113 -185.001 -113c-66.667 0 -119.334 22.333 -158.001 67s-58 105 -58 181c0 76.667 19.667 137.667 59 183s91.666 68 156.999 68c91.333 0 153 -41.333 185 -124zM195.004 551.999h-63l113 128h42l113 -128h-63l-70 75z" />
    <glyph glyph-name="Cdotaccent" unicode="&#x10a;" horiz-adv-x="626" 
d="M588 528l-54.9961 -36.001c-17.333 42.667 -42.333 77.334 -75 104.001s-73.334 40 -122.001 40c-68 0 -122 -27.167 -162 -81.5s-60 -125.833 -60 -214.5s20 -160.167 60 -214.5s94 -81.5 162 -81.5c51.333 0 93.5 13.5 126.5 40.5s57.167 62.167 72.5 105.5l56 -30
c-50 -114.667 -135 -172 -255 -172c-90.667 0 -161.334 31.667 -212.001 95s-76 149 -76 257c0 107.333 25.667 192.833 77 256.5s121.666 95.5 210.999 95.5c65.333 0 118.666 -15.667 159.999 -47s72 -70.333 92 -117zM306.004 767.999v91h68v-91h-68z" />
    <glyph glyph-name="cdotaccent" unicode="&#x10b;" horiz-adv-x="473" 
d="M446 363l-50.9961 -30.001c-24.667 69.333 -69.334 104 -134.001 104c-47.333 0 -84.833 -17.833 -112.5 -53.5s-41.5 -84.5 -41.5 -146.5c0 -61.333 14 -109.666 42 -144.999s65.333 -53 112 -53c62 0 108 30.333 138 91l47 -29
c-36.667 -75.333 -98.334 -113 -185.001 -113c-66.667 0 -119.334 22.333 -158.001 67s-58 105 -58 181c0 76.667 19.667 137.667 59 183s91.666 68 156.999 68c91.333 0 153 -41.333 185 -124zM227.004 578.999v91h68v-91h-68z" />
    <glyph glyph-name="Ccaron" unicode="&#x10c;" horiz-adv-x="626" 
d="M258 889l79 -81l79 81h61l-119 -136h-42l-119 136h61zM588 528l-54.9961 -36.001c-17.333 42.667 -42.333 77.334 -75 104.001s-73.334 40 -122.001 40c-68 0 -122 -27.167 -162 -81.5s-60 -125.833 -60 -214.5s20 -160.167 60 -214.5s94 -81.5 162 -81.5
c51.333 0 93.5 13.5 126.5 40.5s57.167 62.167 72.5 105.5l56 -30c-50 -114.667 -135 -172 -255 -172c-90.667 0 -161.334 31.667 -212.001 95s-76 149 -76 257c0 107.333 25.667 192.833 77 256.5s121.666 95.5 210.999 95.5c65.333 0 118.666 -15.667 159.999 -47
s72 -70.333 92 -117z" />
    <glyph glyph-name="ccaron" unicode="&#x10d;" horiz-adv-x="473" 
d="M446 363l-50.9961 -30.001c-24.667 69.333 -69.334 104 -134.001 104c-47.333 0 -84.833 -17.833 -112.5 -53.5s-41.5 -84.5 -41.5 -146.5c0 -61.333 14 -109.666 42 -144.999s65.333 -53 112 -53c62 0 108 30.333 138 91l47 -29
c-36.667 -75.333 -98.334 -113 -185.001 -113c-66.667 0 -119.334 22.333 -158.001 67s-58 105 -58 181c0 76.667 19.667 137.667 59 183s91.666 68 156.999 68c91.333 0 153 -41.333 185 -124zM338.004 679.999h63l-113 -128h-42l-113 128h63l70 -75z" />
    <glyph glyph-name="Dcaron" unicode="&#x10e;" horiz-adv-x="662" 
d="M245 889l79 -81l79 81h61l-119 -136h-42l-119 136h61zM237 0h-155.001v680h176c52 0 93.333 -2.16699 124 -6.5s59 -13.5 85 -27.5c48.667 -26 85.334 -66.667 110.001 -122s37 -116 37 -182c0 -117.333 -33 -208 -99 -272c-32.667 -32 -67.5 -51.667 -104.5 -59
s-94.833 -11 -173.5 -11zM144.999 624v-568h109c38.667 0 67.167 0.5 85.5 1.5s38.833 5.16699 61.5 12.5s42.334 18.333 59.001 33c25.333 22 46.166 54 62.499 96s24.5 88.667 24.5 140c0 49.333 -7.5 95 -22.5 137s-36.5 75 -64.5 99c-24.667 22 -52.5 35.667 -83.5 41
s-79.5 8 -145.5 8h-86z" />
    <glyph glyph-name="dcaron" unicode="&#x10f;" horiz-adv-x="610" 
d="M243 -12c-60 0 -107.999 21.667 -143.999 65s-54 104.333 -54 183c0 78 18.5 139.333 55.5 184s85.5 67 145.5 67c36.667 0 68.667 -9 96 -27s47 -41 59 -69v289h59v-680h-59v85c-28.667 -64.667 -81.334 -97 -158.001 -97zM403.001 237
c0 64 -12.999 113.167 -38.999 147.5s-61.667 51.5 -107 51.5c-46.667 0 -83.334 -17.167 -110.001 -51.5s-40 -83.166 -40 -146.499s12.833 -112.333 38.5 -147s62.167 -52 109.5 -52c46 0 82.167 17.167 108.5 51.5s39.5 83.166 39.5 146.499zM547.002 552h-48l49 128h82z
" />
    <glyph glyph-name="Dcroat" unicode="&#x110;" horiz-adv-x="662" 
d="M262 0h-155.001v335h-92v58h92v287h176c52 0 93.333 -2.16699 124 -6.5s59 -13.5 85 -27.5c48.667 -26 85.334 -66.667 110.001 -122s37 -116 37 -182c0 -117.333 -33 -208 -99 -272c-32.667 -32 -67.5 -51.667 -104.5 -59s-94.833 -11 -173.5 -11zM169.999 624v-231h215
v-58h-215v-279h109c38.667 0 67.167 0.5 85.5 1.5s38.833 5.16699 61.5 12.5s42.334 18.333 59.001 33c25.333 22 46.166 54 62.499 96s24.5 88.667 24.5 140c0 49.333 -7.5 95 -22.5 137s-36.5 75 -64.5 99c-24.667 22 -52.5 35.667 -83.5 41s-79.5 8 -145.5 8h-86z" />
    <glyph glyph-name="dcroat" unicode="&#x111;" horiz-adv-x="539" 
d="M243 -12c-60 0 -107.999 21.667 -143.999 65s-54 104.333 -54 183c0 78 18.5 139.333 55.5 184s85.5 67 145.5 67c36.667 0 68.667 -9 96 -27s47 -41 59 -69v161h-150v56h150v72h59v-72h79v-56h-79v-552h-59v85c-28.667 -64.667 -81.334 -97 -158.001 -97zM403.001 237
c0 64 -12.999 113.167 -38.999 147.5s-61.667 51.5 -107 51.5c-46.667 0 -83.334 -17.167 -110.001 -51.5s-40 -83.166 -40 -146.499s12.833 -112.333 38.5 -147s62.167 -52 109.5 -52c46 0 82.167 17.167 108.5 51.5s39.5 83.166 39.5 146.499z" />
    <glyph glyph-name="Emacron" unicode="&#x112;" horiz-adv-x="584" 
d="M548 56v-56h-466v680h446v-56h-383v-246h347v-57h-347v-265h403zM165 778v53h271v-53h-271z" />
    <glyph glyph-name="emacron" unicode="&#x113;" horiz-adv-x="519" 
d="M427 146l45 -29.001c-42.667 -86 -111.667 -129 -207 -129c-68 0 -121.667 22.167 -161 66.5s-59 106.5 -59 186.5c0 72.667 19.833 131.834 59.5 177.501s91.5 68.5 155.5 68.5c66.667 0 118 -22.833 154 -68.5s54 -105.167 54 -178.5v-8h-362v-7
c0 -59.333 15.167 -105 45.5 -137s68.833 -48 115.5 -48c72.667 0 126 35.333 160 106zM260 437.999c-43.333 0 -78.501 -14.167 -105.501 -42.5s-42.5 -66.833 -46.5 -115.5h296c0 41.333 -13.167 78 -39.5 110s-61.166 48 -104.499 48zM123.999 578.999v53h271v-53h-271z
" />
    <glyph glyph-name="Ebreve" unicode="&#x114;" horiz-adv-x="584" 
d="M548 56v-56h-466v680h446v-56h-383v-246h347v-57h-347v-265h403zM302 783c46.667 0 75.334 22.333 86.001 67h48c-4.66699 -36 -18.834 -63.667 -42.501 -83s-54.167 -29 -91.5 -29s-67.833 9.66699 -91.5 29s-37.834 47 -42.501 83h48
c10.667 -44.667 39.334 -67 86.001 -67z" />
    <glyph glyph-name="ebreve" unicode="&#x115;" horiz-adv-x="519" 
d="M427 146l45 -29.001c-42.667 -86 -111.667 -129 -207 -129c-68 0 -121.667 22.167 -161 66.5s-59 106.5 -59 186.5c0 72.667 19.833 131.834 59.5 177.501s91.5 68.5 155.5 68.5c66.667 0 118 -22.833 154 -68.5s54 -105.167 54 -178.5v-8h-362v-7
c0 -59.333 15.167 -105 45.5 -137s68.833 -48 115.5 -48c72.667 0 126 35.333 160 106zM260 437.999c-43.333 0 -78.501 -14.167 -105.501 -42.5s-42.5 -66.833 -46.5 -115.5h296c0 41.333 -13.167 78 -39.5 110s-61.166 48 -104.499 48zM258.999 581.999
c46.667 0 75.334 22.333 86.001 67h48c-4.66699 -36 -18.834 -63.667 -42.501 -83s-54.167 -29 -91.5 -29s-67.833 9.66699 -91.5 29s-37.834 47 -42.501 83h48c10.667 -44.667 39.334 -67 86.001 -67z" />
    <glyph glyph-name="Edotaccent" unicode="&#x116;" horiz-adv-x="584" 
d="M548 56v-56h-466v680h446v-56h-383v-246h347v-57h-347v-265h403zM266 768v91h68v-91h-68z" />
    <glyph glyph-name="edotaccent" unicode="&#x117;" horiz-adv-x="519" 
d="M427 146l45 -29.001c-42.667 -86 -111.667 -129 -207 -129c-68 0 -121.667 22.167 -161 66.5s-59 106.5 -59 186.5c0 72.667 19.833 131.834 59.5 177.501s91.5 68.5 155.5 68.5c66.667 0 118 -22.833 154 -68.5s54 -105.167 54 -178.5v-8h-362v-7
c0 -59.333 15.167 -105 45.5 -137s68.833 -48 115.5 -48c72.667 0 126 35.333 160 106zM260 437.999c-43.333 0 -78.501 -14.167 -105.501 -42.5s-42.5 -66.833 -46.5 -115.5h296c0 41.333 -13.167 78 -39.5 110s-61.166 48 -104.499 48zM229.999 578.999v91h68v-91h-68z
" />
    <glyph glyph-name="Eogonek" unicode="&#x118;" horiz-adv-x="584" 
d="M506 -174l18.001 -41c-14.667 -4 -30 -6 -46 -6c-30 0 -53.833 8.16699 -71.5 24.5s-26.5 38.5 -26.5 66.5c0 24.667 10.333 48.5 31 71.5s45 42.5 73 58.5h-402v680h446v-56h-383v-246h347v-57h-347v-265h403v-56h-7c-74 -44.667 -111 -86.667 -111 -126
c0 -34 18 -51 54 -51c7.33301 0 14.666 1 21.999 3z" />
    <glyph glyph-name="eogonek" unicode="&#x119;" horiz-adv-x="519" 
d="M305 -174l17.999 -41.001c-15.333 -4 -30.666 -6 -45.999 -6c-30 0 -53.833 8.16699 -71.5 24.5s-26.5 38.5 -26.5 66.5c0 42 28.333 81.333 85 118c-67.333 0 -120.666 22.167 -159.999 66.5s-59 106.5 -59 186.5c0 72.667 19.833 131.834 59.5 177.501
s91.5 68.5 155.5 68.5c66.667 0 118 -22.833 154 -68.5s54 -105.167 54 -178.5v-8h-362v-7c0 -59.333 15.167 -105 45.5 -137s68.833 -48 115.5 -48c72.667 0 126 35.333 160 106l45 -29c-30.667 -62 -76 -101.667 -136 -119c-71.333 -46 -107 -87.333 -107 -124
c0 -34 18 -51 54 -51c7.33301 0 14.666 1 21.999 3zM259.999 437.999c-43.333 0 -78.501 -14.167 -105.501 -42.5s-42.5 -66.833 -46.5 -115.5h296c0 41.333 -13.167 78 -39.5 110s-61.166 48 -104.499 48z" />
    <glyph glyph-name="Ecaron" unicode="&#x11a;" horiz-adv-x="584" 
d="M238 889l79 -81l79 81h61l-119 -136h-42l-119 136h61zM548 56v-56h-466v680h446v-56h-383v-246h347v-57h-347v-265h403z" />
    <glyph glyph-name="ecaron" unicode="&#x11b;" horiz-adv-x="519" 
d="M427 146l45 -29.001c-42.667 -86 -111.667 -129 -207 -129c-68 0 -121.667 22.167 -161 66.5s-59 106.5 -59 186.5c0 72.667 19.833 131.834 59.5 177.501s91.5 68.5 155.5 68.5c66.667 0 118 -22.833 154 -68.5s54 -105.167 54 -178.5v-8h-362v-7
c0 -59.333 15.167 -105 45.5 -137s68.833 -48 115.5 -48c72.667 0 126 35.333 160 106zM260 437.999c-43.333 0 -78.501 -14.167 -105.501 -42.5s-42.5 -66.833 -46.5 -115.5h296c0 41.333 -13.167 78 -39.5 110s-61.166 48 -104.499 48zM329.999 679.999h63l-113 -128h-42
l-113 128h63l70 -75z" />
    <glyph glyph-name="Gcircumflex" unicode="&#x11c;" horiz-adv-x="662" 
d="M416 753l-79 81l-79 -81h-61l119 136h42l119 -136h-61zM336 44c72 0 124.336 23.332 157.003 69.999c28 39.333 42 95.333 42 168v6h-247v56h302v-344h-56v93c-15.333 -28 -39.666 -52.5 -72.999 -73.5s-75 -31.5 -125 -31.5c-90.667 0 -161.334 31.667 -212.001 95
s-76 149 -76 257c0 107.333 25.667 192.833 77 256.5s121.666 95.5 210.999 95.5c65.333 0 118.666 -15.667 159.999 -47s72 -70.333 92 -117l-55 -36c-17.333 42.667 -42.333 77.334 -75 104.001s-73.334 40 -122.001 40c-68 0 -122 -27.167 -162 -81.5
s-60 -125.833 -60 -214.5s20 -160.167 60 -214.5s94 -81.5 162 -81.5z" />
    <glyph glyph-name="gcircumflex" unicode="&#x11d;" horiz-adv-x="539" 
d="M460 19l-0.00195312 457h-59v-78c-13.333 26.667 -33.333 48.167 -60 64.5s-58.334 24.5 -95.001 24.5c-60 0 -108.5 -22.167 -145.5 -66.5s-55.5 -104.5 -55.5 -180.5s18 -135.833 54 -179.5s84.667 -65.5 146 -65.5c76 0 128 31.333 156 94v-49
c0 -29.333 -1.66699 -53.833 -5 -73.5s-9.66602 -39 -18.999 -58s-24.166 -33.167 -44.499 -42.5s-46.166 -14 -77.499 -14c-82.667 0 -127.667 41 -135 123l-57 -16c6 -104.667 70 -157 192 -157c70.667 0 122.5 17.5 155.5 52.5s49.5 89.833 49.5 164.5zM402.998 241
c0 -61.333 -13.168 -108.832 -39.501 -142.499s-62.5 -50.5 -108.5 -50.5c-47.333 0 -83.833 16.833 -109.5 50.5s-38.5 81.5 -38.5 143.5s13.333 109.833 40 143.5s63.334 50.5 110.001 50.5c45.333 0 81 -16.833 107 -50.5s39 -81.834 39 -144.501zM193.997 552.001h-63
l113 128h42l113 -128h-63l-70 75z" />
    <glyph glyph-name="Gbreve" unicode="&#x11e;" horiz-adv-x="662" 
d="M336 44c72 0 124.336 23.332 157.003 69.999c28 39.333 42 95.333 42 168v6h-247v56h302v-344h-56v93c-15.333 -28 -39.666 -52.5 -72.999 -73.5s-75 -31.5 -125 -31.5c-90.667 0 -161.334 31.667 -212.001 95s-76 149 -76 257c0 107.333 25.667 192.833 77 256.5
s121.666 95.5 210.999 95.5c65.333 0 118.666 -15.667 159.999 -47s72 -70.333 92 -117l-55 -36c-17.333 42.667 -42.333 77.334 -75 104.001s-73.334 40 -122.001 40c-68 0 -122 -27.167 -162 -81.5s-60 -125.833 -60 -214.5s20 -160.167 60 -214.5s94 -81.5 162 -81.5z
M337.003 782.999c46.667 0 75.334 22.333 86.001 67h48c-4.66699 -36 -18.834 -63.667 -42.501 -83s-54.167 -29 -91.5 -29s-67.833 9.66699 -91.5 29s-37.834 47 -42.501 83h48c10.667 -44.667 39.334 -67 86.001 -67z" />
    <glyph glyph-name="gbreve" unicode="&#x11f;" horiz-adv-x="539" 
d="M460 19l-0.00195312 457h-59v-78c-13.333 26.667 -33.333 48.167 -60 64.5s-58.334 24.5 -95.001 24.5c-60 0 -108.5 -22.167 -145.5 -66.5s-55.5 -104.5 -55.5 -180.5s18 -135.833 54 -179.5s84.667 -65.5 146 -65.5c76 0 128 31.333 156 94v-49
c0 -29.333 -1.66699 -53.833 -5 -73.5s-9.66602 -39 -18.999 -58s-24.166 -33.167 -44.499 -42.5s-46.166 -14 -77.499 -14c-82.667 0 -127.667 41 -135 123l-57 -16c6 -104.667 70 -157 192 -157c70.667 0 122.5 17.5 155.5 52.5s49.5 89.833 49.5 164.5zM402.998 241
c0 -61.333 -13.168 -108.832 -39.501 -142.499s-62.5 -50.5 -108.5 -50.5c-47.333 0 -83.833 16.833 -109.5 50.5s-38.5 81.5 -38.5 143.5s13.333 109.833 40 143.5s63.334 50.5 110.001 50.5c45.333 0 81 -16.833 107 -50.5s39 -81.834 39 -144.501zM261.997 582.001
c46.667 0 75.334 22.333 86.001 67h48c-4.66699 -36 -18.834 -63.667 -42.501 -83s-54.167 -29 -91.5 -29s-67.833 9.66699 -91.5 29s-37.834 47 -42.501 83h48c10.667 -44.667 39.334 -67 86.001 -67z" />
    <glyph glyph-name="Gdotaccent" unicode="&#x120;" horiz-adv-x="662" 
d="M336 44c72 0 124.336 23.332 157.003 69.999c28 39.333 42 95.333 42 168v6h-247v56h302v-344h-56v93c-15.333 -28 -39.666 -52.5 -72.999 -73.5s-75 -31.5 -125 -31.5c-90.667 0 -161.334 31.667 -212.001 95s-76 149 -76 257c0 107.333 25.667 192.833 77 256.5
s121.666 95.5 210.999 95.5c65.333 0 118.666 -15.667 159.999 -47s72 -70.333 92 -117l-55 -36c-17.333 42.667 -42.333 77.334 -75 104.001s-73.334 40 -122.001 40c-68 0 -122 -27.167 -162 -81.5s-60 -125.833 -60 -214.5s20 -160.167 60 -214.5s94 -81.5 162 -81.5z
M307.003 767.999v91h68v-91h-68z" />
    <glyph glyph-name="gdotaccent" unicode="&#x121;" horiz-adv-x="539" 
d="M460 476l0.00195312 -457c0 -74.667 -16.5 -129.5 -49.5 -164.5s-84.833 -52.5 -155.5 -52.5c-122 0 -186 52.333 -192 157l57 16c7.33301 -82 52.333 -123 135 -123c31.333 0 57.166 4.66699 77.499 14s35.166 23.5 44.499 42.5s15.666 38.333 18.999 58
s5 44.167 5 73.5v49c-28 -62.667 -80 -94 -156 -94c-61.333 0 -110 21.833 -146 65.5s-54 103.5 -54 179.5s18.5 136.167 55.5 180.5s85.5 66.5 145.5 66.5c36.667 0 68.334 -8.16699 95.001 -24.5s46.667 -37.833 60 -64.5v78h59zM403.002 241
c0 62.667 -12.999 110.833 -38.999 144.5s-61.667 50.5 -107 50.5c-46.667 0 -83.334 -16.833 -110.001 -50.5s-40 -81.5 -40 -143.5s12.833 -109.833 38.5 -143.5s62.167 -50.5 109.5 -50.5c46 0 82.167 16.833 108.5 50.5s39.5 81.167 39.5 142.5zM219.003 578.999v91h68
v-91h-68z" />
    <glyph glyph-name="Gcommaaccent" unicode="&#x122;" horiz-adv-x="662" 
d="M336 44c72 0 124.336 23.332 157.003 69.999c28 39.333 42 95.333 42 168v6h-247v56h302v-344h-56v93c-15.333 -28 -39.666 -52.5 -72.999 -73.5s-75 -31.5 -125 -31.5c-90.667 0 -161.334 31.667 -212.001 95s-76 149 -76 257c0 107.333 25.667 192.833 77 256.5
s121.666 95.5 210.999 95.5c65.333 0 118.666 -15.667 159.999 -47s72 -70.333 92 -117l-55 -36c-17.333 42.667 -42.333 77.334 -75 104.001s-73.334 40 -122.001 40c-68 0 -122 -27.167 -162 -81.5s-60 -125.833 -60 -214.5s20 -160.167 60 -214.5s94 -81.5 162 -81.5z
M299.003 -65.001l82.001 -0.000976562v-64c0 -35.333 -5 -64.666 -15 -87.999c-14.667 -32 -38.334 -52.333 -71.001 -61v43c16.667 6 28 15 34 27s9 28.333 9 49h-39v94z" />
    <glyph glyph-name="gcommaaccent" unicode="&#x123;" horiz-adv-x="539" 
d="M460 19l-0.00195312 457h-59v-78c-13.333 26.667 -33.333 48.167 -60 64.5s-58.334 24.5 -95.001 24.5c-60 0 -108.5 -22.167 -145.5 -66.5s-55.5 -104.5 -55.5 -180.5s18 -135.833 54 -179.5s84.667 -65.5 146 -65.5c76 0 128 31.333 156 94v-49
c0 -29.333 -1.66699 -53.833 -5 -73.5s-9.66602 -39 -18.999 -58s-24.166 -33.167 -44.499 -42.5s-46.166 -14 -77.499 -14c-82.667 0 -127.667 41 -135 123l-57 -16c6 -104.667 70 -157 192 -157c70.667 0 122.5 17.5 155.5 52.5s49.5 89.833 49.5 164.5zM402.998 241
c0 -61.333 -13.168 -108.832 -39.501 -142.499s-62.5 -50.5 -108.5 -50.5c-47.333 0 -83.833 16.833 -109.5 50.5s-38.5 81.5 -38.5 143.5s13.333 109.833 40 143.5s63.334 50.5 110.001 50.5c45.333 0 81 -16.833 107 -50.5s39 -81.834 39 -144.501zM288.997 586.001
h-82.001v64c0 36 5 65.333 15 88c14.667 32 38.334 52.333 71.001 61v-43c-16.667 -6 -28 -15 -34 -27s-9 -28.333 -9 -49h39v-94z" />
    <glyph glyph-name="Hcircumflex" unicode="&#x124;" horiz-adv-x="688" 
d="M422 753l-79 81l-79 -81h-61l119 136h42l119 -136h-61zM606 680v-680h-63v324h-398v-324h-63v680h63v-300h398v300h63z" />
    <glyph glyph-name="hcircumflex" unicode="&#x125;" horiz-adv-x="520" 
d="M336 753l-79 81l-79 -81h-61l119 136h42l119 -136h-61zM447 269v-268.999h-59v256c0 76 -10 124.667 -30 146c-18.667 20.667 -47 31 -85 31c-40.667 0 -73 -13 -97 -39c-26.667 -27.333 -40 -64.333 -40 -111v-283h-59v680h59v-283c10 25.333 28.167 46.666 54.5 63.999
s58.5 26 96.5 26c50.667 0 90 -15.333 118 -46c16 -18 27 -38.5 33 -61.5s9 -59.833 9 -110.5z" />
    <glyph glyph-name="Hbar" unicode="&#x126;" horiz-adv-x="688" 
d="M606 680v-680h-63v324h-398v-324h-63v680h63v-158h398v158h63zM145 380h398v89h-398v-89z" />
    <glyph glyph-name="hbar" unicode="&#x127;" horiz-adv-x="520" 
d="M-3 552v53.001h80v75h59v-75h164v-53h-164v-154c10 25.333 28.167 46.666 54.5 63.999s58.5 26 96.5 26c50.667 0 90 -15.333 118 -46c16 -18 27 -38.5 33 -61.5s9 -59.833 9 -110.5v-270h-59v257c0 76 -10 124.667 -30 146c-18.667 20.667 -47 31 -85 31
c-40.667 0 -73 -13 -97 -39c-26.667 -27.333 -40 -64.333 -40 -111v-284h-59v552h-80z" />
    <glyph glyph-name="Itilde" unicode="&#x128;" horiz-adv-x="227" 
d="M145 680v-680h-63v680h63zM230 868l40.999 -10c-6.66699 -14 -12 -24.667 -16 -32s-10 -16.333 -18 -27s-17 -18.5 -27 -23.5s-21 -7.5 -33 -7.5c-18 0 -43.667 8.66699 -77 26c-29.333 14.667 -47.666 22 -54.999 22c-22 0 -37.667 -15.667 -47 -47l-42 9
c24 60 56 90 96 90c15.333 0 37.666 -7.33301 66.999 -22c30.667 -15.333 51.334 -23 62.001 -23c22.667 0 39 15 49 45z" />
    <glyph glyph-name="itilde" unicode="&#x129;" horiz-adv-x="213" 
d="M136 476v-476h-59v476h59zM223 666l40.999 -10c-6.66699 -14 -12 -24.667 -16 -32s-10 -16.333 -18 -27s-17 -18.5 -27 -23.5s-21 -7.5 -33 -7.5c-18 0 -43.667 8.66699 -77 26c-29.333 14.667 -47.666 22 -54.999 22c-22 0 -37.667 -15.667 -47 -47l-42 9
c24 60 56 90 96 90c15.333 0 37.666 -7.33301 66.999 -22c30.667 -15.333 51.334 -23 62.001 -23c22.667 0 39 15 49 45z" />
    <glyph glyph-name="Imacron" unicode="&#x12a;" horiz-adv-x="227" 
d="M145 680v-680h-63v680h63zM-22 778v53h271v-53h-271z" />
    <glyph glyph-name="imacron" unicode="&#x12b;" horiz-adv-x="213" 
d="M136 476v-476h-59v476h59zM-29 579v53h271v-53h-271z" />
    <glyph glyph-name="Ibreve" unicode="&#x12c;" horiz-adv-x="227" 
d="M145 680v-680h-63v680h63zM114 783c46.667 0 75.334 22.333 86.001 67h48c-4.66699 -36 -18.834 -63.667 -42.501 -83s-54.167 -29 -91.5 -29s-67.833 9.66699 -91.5 29s-37.834 47 -42.501 83h48c10.667 -44.667 39.334 -67 86.001 -67z" />
    <glyph glyph-name="ibreve" unicode="&#x12d;" horiz-adv-x="213" 
d="M136 476v-476h-59v476h59zM107 582c46.667 0 75.334 22.333 86.001 67h48c-4.66699 -36 -18.834 -63.667 -42.501 -83s-54.167 -29 -91.5 -29s-67.833 9.66699 -91.5 29s-37.834 47 -42.501 83h48c10.667 -44.667 39.334 -67 86.001 -67z" />
    <glyph glyph-name="Iogonek" unicode="&#x12e;" horiz-adv-x="227" 
d="M104 -174l18 -41c-14.667 -4 -30 -6 -46 -6c-30 0 -53.833 8.16699 -71.5 24.5s-26.5 38.5 -26.5 66.5c0 46 34.667 89.333 104 130v680h63v-680h-6c-74 -44.667 -111 -86.667 -111 -126c0 -34 18 -51 54 -51c8 0 15.333 1 22 3z" />
    <glyph glyph-name="iogonek" unicode="&#x12f;" horiz-adv-x="213" 
d="M99 -174l18 -41c-15.333 -4 -30.666 -6 -45.999 -6c-30 0 -53.833 8.16699 -71.5 24.5s-26.5 38.5 -26.5 66.5c0 46 34.667 89.333 104 130v476h59v-476h-2c-74 -44.667 -111 -86.667 -111 -126c0 -34 18 -51 54 -51c7.33301 0 14.666 1 21.999 3zM136 680v-98h-59v98h59
z" />
    <glyph glyph-name="Idotaccent" unicode="&#x130;" horiz-adv-x="227" 
d="M145 680v-680h-63v680h63zM80 768v91h68v-91h-68z" />
    <glyph glyph-name="dotlessi" unicode="&#x131;" horiz-adv-x="213" 
d="M136 476v-476h-59v476h59z" />
    <glyph glyph-name="Jcircumflex" unicode="&#x134;" horiz-adv-x="477" 
d="M444 753l-79 81l-79 -81h-61l119 136h42l119 -136h-61zM22 161l60.998 18.002c0.666992 -46 11.334 -80.833 32.001 -104.5s53.667 -35.5 99 -35.5c47.333 0 81 15.333 101 46c15.333 23.333 23 61.666 23 114.999v480h63v-467c0 -70.667 -9.66699 -122.334 -29 -155.001
c-28.667 -48.667 -82 -73 -160 -73c-123.333 0 -186.666 58.667 -189.999 176z" />
    <glyph glyph-name="jcircumflex" unicode="&#x135;" horiz-adv-x="209" 
d="M77 476h59v-485c0 -55.333 -1.33301 -93 -4 -113s-9 -36.667 -19 -50c-15.333 -20 -41 -30 -77 -30c-29.333 0 -56.333 6.66699 -81 20v61c27.333 -18 52.333 -27 75 -27s36.667 8.66699 42 26c3.33301 10 5 63 5 159v439zM31 552h-63l113 128h42l113 -128h-63l-70 75z
" />
    <glyph glyph-name="Kcommaaccent" unicode="&#x136;" horiz-adv-x="614" 
d="M331 412l287 -412h-79l-256 367l-144 -145v-222h-63v680h63v-380l374 380h84zM289 -65l82.001 -0.000976562v-64c0 -35.333 -5 -64.666 -15 -87.999c-14.667 -32 -38.334 -52.333 -71.001 -61v43c16.667 6 28 15 34 27s9 28.333 9 49h-39v94z" />
    <glyph glyph-name="kcommaaccent" unicode="&#x137;" horiz-adv-x="498" 
d="M290 300l204 -300h-73l-175 260l-110 -101v-159h-59v680h59v-453l267 249h79zM238 -65l82.001 -0.000976562v-64c0 -35.333 -5 -64.666 -15 -87.999c-14.667 -32 -38.334 -52.333 -71.001 -61v43c16.667 6 28 15 34 27s9 28.333 9 49h-39v94z" />
    <glyph glyph-name="kgreenlandic" unicode="&#x138;" horiz-adv-x="500" 
d="M289 299l205.002 -299h-73l-175 260l-110 -101v-159h-59v476h59v-250l182 171c23.333 22 40.166 37.167 50.499 45.5s23.666 16 39.999 23s33.833 10.5 52.5 10.5h6v-51h-6c-8.66699 0 -17 -1.16699 -25 -3.5s-17 -7.33301 -27 -15s-17.167 -13 -21.5 -16
s-12.833 -10.5 -25.5 -22.5l-21 -20z" />
    <glyph glyph-name="Lacute" unicode="&#x139;" horiz-adv-x="540" 
d="M130 753h-56l102 136h96zM520 56v-56h-438v680h63v-624h375z" />
    <glyph glyph-name="lacute" unicode="&#x13a;" horiz-adv-x="213" 
d="M130 753h-56l102 136h96zM136 680v-680h-59v680h59z" />
    <glyph glyph-name="Lcommaaccent" unicode="&#x13b;" horiz-adv-x="540" 
d="M520 56v-56h-438v680h63v-624h375zM266 -65l82.001 -0.000976562v-64c0 -35.333 -5 -64.666 -15 -87.999c-14.667 -32 -38.334 -52.333 -71.001 -61v43c16.667 6 28 15 34 27s9 28.333 9 49h-39v94z" />
    <glyph glyph-name="lcommaaccent" unicode="&#x13c;" horiz-adv-x="213" 
d="M136 680v-680h-59v680h59zM66 -65l82.001 -0.000976562v-64c0 -35.333 -5 -64.666 -15 -87.999c-14.667 -32 -38.334 -52.333 -71.001 -61v43c16.667 6 28 15 34 27s9 28.333 9 49h-39v94z" />
    <glyph glyph-name="Lcaron" unicode="&#x13d;" horiz-adv-x="540" 
d="M520 56v-56h-438v680h63v-624h375zM244 552h48l83 128h-82z" />
    <glyph glyph-name="lcaron" unicode="&#x13e;" horiz-adv-x="289" 
d="M136 680v-680h-59v680h59zM188 552h48l83 128h-82z" />
    <glyph glyph-name="Ldot" unicode="&#x13f;" horiz-adv-x="540" 
d="M520 56v-56h-438v680h63v-624h375zM251 476h78v-114h-78v114z" />
    <glyph glyph-name="ldot" unicode="&#x140;" horiz-adv-x="261" 
d="M136 680v-680h-59v680h59zM193 476h78v-114h-78v114z" />
    <glyph glyph-name="Lslash" unicode="&#x141;" horiz-adv-x="540" 
d="M520 56v-56h-438v241l-73 -47v62l73 47v377h63v-336l204 133v-64l-204 -132v-225h375z" />
    <glyph glyph-name="lslash" unicode="&#x142;" horiz-adv-x="213" 
d="M136 680v-264l72 47v-63l-72 -47v-353h-59v314l-67 -43v63l67 43v303h59z" />
    <glyph glyph-name="Nacute" unicode="&#x143;" horiz-adv-x="690" 
d="M345 753h-56l102 136h96zM145 680l345.999 -493.998c32 -44.667 50.667 -75.334 56 -92.001h1c-2 24 -3 57 -3 99v487h63v-680h-63l-345 494c-33.333 47.333 -52.666 78.666 -57.999 93.999h-1c2.66699 -32 4 -65.333 4 -100v-488h-63v680h63z" />
    <glyph glyph-name="nacute" unicode="&#x144;" horiz-adv-x="520" 
d="M447 269v-268.999h-59v256c0 76 -10 124.667 -30 146c-18.667 20.667 -47 31 -85 31c-40.667 0 -73 -13 -97 -39c-26.667 -27.333 -40 -64.333 -40 -111v-283h-59v476h59v-79c10 25.333 28.167 46.666 54.5 63.999s58.5 26 96.5 26c50.667 0 90 -15.333 118 -46
c16 -18 27 -38.5 33 -61.5s9 -59.833 9 -110.5zM273 680.001h94l-132 -128h-56z" />
    <glyph glyph-name="Ncommaaccent" unicode="&#x145;" horiz-adv-x="690" 
d="M145 680l345.999 -493.998c32 -44.667 50.667 -75.334 56 -92.001h1c-2 24 -3 57 -3 99v487h63v-680h-63l-345 494c-33.333 47.333 -52.666 78.666 -57.999 93.999h-1c2.66699 -32 4 -65.333 4 -100v-488h-63v680h63zM320.999 -64.998l82.001 -0.000976562v-64
c0 -35.333 -5 -64.666 -15 -87.999c-14.667 -32 -38.334 -52.333 -71.001 -61v43c16.667 6 28 15 34 27s9 28.333 9 49h-39v94z" />
    <glyph glyph-name="ncommaaccent" unicode="&#x146;" horiz-adv-x="520" 
d="M447 269v-268.999h-59v256c0 76 -10 124.667 -30 146c-18.667 20.667 -47 31 -85 31c-40.667 0 -73 -13 -97 -39c-26.667 -27.333 -40 -64.333 -40 -111v-283h-59v476h59v-79c10 25.333 28.167 46.666 54.5 63.999s58.5 26 96.5 26c50.667 0 90 -15.333 118 -46
c16 -18 27 -38.5 33 -61.5s9 -59.833 9 -110.5zM232 -64.999l82.001 -0.000976562v-64c0 -35.333 -5 -64.666 -15 -87.999c-14.667 -32 -38.334 -52.333 -71.001 -61v43c16.667 6 28 15 34 27s9 28.333 9 49h-39v94z" />
    <glyph glyph-name="Ncaron" unicode="&#x147;" horiz-adv-x="690" 
d="M274 889l79 -81l79 81h61l-119 -136h-42l-119 136h61zM145 680l345.999 -493.998c32 -44.667 50.667 -75.334 56 -92.001h1c-2 24 -3 57 -3 99v487h63v-680h-63l-345 494c-33.333 47.333 -52.666 78.666 -57.999 93.999h-1c2.66699 -32 4 -65.333 4 -100v-488h-63v680h63
z" />
    <glyph glyph-name="ncaron" unicode="&#x148;" horiz-adv-x="520" 
d="M447 269v-268.999h-59v256c0 76 -10 124.667 -30 146c-18.667 20.667 -47 31 -85 31c-40.667 0 -73 -13 -97 -39c-26.667 -27.333 -40 -64.333 -40 -111v-283h-59v476h59v-79c10 25.333 28.167 46.666 54.5 63.999s58.5 26 96.5 26c50.667 0 90 -15.333 118 -46
c16 -18 27 -38.5 33 -61.5s9 -59.833 9 -110.5zM335 680.001h63l-113 -128h-42l-113 128h63l70 -75z" />
    <glyph glyph-name="Eng" unicode="&#x14a;" horiz-adv-x="690" 
d="M233 -46l59.999 20.001c7.33301 -78.667 50.666 -118 129.999 -118c47.333 0 81 15.333 101 46c14.667 22.667 22 55.334 22 98.001l-346 494c-33.333 47.333 -52.666 78.666 -57.999 93.999h-1c2.66699 -32 4 -65.333 4 -100v-488h-63v680h63l346 -494
c32 -44.667 50.667 -75.334 56 -92.001h1c-2 24 -3 57 -3 99v487h63v-666c0 -58.667 -8 -103 -24 -133c-27.333 -52.667 -81.666 -79 -162.999 -79c-112 0 -174.667 50.667 -188 152z" />
    <glyph glyph-name="eng" unicode="&#x14b;" horiz-adv-x="520" 
d="M447 270v-278.999c0 -55.333 -1.33301 -93 -4 -113s-9 -36.667 -19 -50c-15.333 -20 -41 -30 -77 -30c-29.333 0 -56.333 6.66699 -81 20v61c26.667 -18 51.667 -27 75 -27c22.667 0 36.667 8.66699 42 26c3.33301 10 5 63 5 159v220c0 76 -10 124.667 -30 146
c-18.667 20.667 -47 31 -85 31c-40.667 0 -73 -13 -97 -39c-26.667 -27.333 -40 -64.333 -40 -111v-284h-59v476h59v-78c10 25.333 28.167 46.666 54.5 63.999s58.5 26 96.5 26c50.667 0 90 -15.333 118 -46c16 -18 27 -38.5 33 -61.5s9 -59.833 9 -110.5z" />
    <glyph glyph-name="Omacron" unicode="&#x14c;" horiz-adv-x="674" 
d="M48 340c0 107.333 25.833 192.833 77.5 256.5s122.167 95.5 211.5 95.5s159.833 -31.833 211.5 -95.5s77.5 -149.167 77.5 -256.5c0 -106.667 -25.833 -192 -77.5 -256s-122.167 -96 -211.5 -96s-159.833 32 -211.5 96s-77.5 149.333 -77.5 256zM115 340
c0 -88.667 20.3291 -160.334 60.9961 -215.001s94.334 -82 161.001 -82s120.334 27.333 161.001 82s61 126.334 61 215.001s-20.167 160.334 -60.5 215.001s-94.166 82 -161.499 82s-121.166 -27.333 -161.499 -82s-60.5 -126.334 -60.5 -215.001zM200.996 778v53h271v-53
h-271z" />
    <glyph glyph-name="omacron" unicode="&#x14d;" horiz-adv-x="522" 
d="M45 236c0 76 19.333 136.833 58 182.5s91.334 68.5 158.001 68.5s119.334 -22.833 158.001 -68.5s58 -106.5 58 -182.5c0 -75.333 -19.333 -135.5 -58 -180.5s-91.334 -67.5 -158.001 -67.5s-119.334 22.5 -158.001 67.5s-58 105.167 -58 180.5zM107 237
c0 -61.333 14 -109.668 42 -145.001s65.333 -53 112 -53s84 17.833 112 53.5s42 83.834 42 144.501c0 62 -13.833 110.833 -41.5 146.5s-65.167 53.5 -112.5 53.5s-84.833 -17.833 -112.5 -53.5s-41.5 -84.5 -41.5 -146.5zM125 578.998v53h271v-53h-271z" />
    <glyph glyph-name="Obreve" unicode="&#x14e;" horiz-adv-x="674" 
d="M48 340c0 107.333 25.833 192.833 77.5 256.5s122.167 95.5 211.5 95.5s159.833 -31.833 211.5 -95.5s77.5 -149.167 77.5 -256.5c0 -106.667 -25.833 -192 -77.5 -256s-122.167 -96 -211.5 -96s-159.833 32 -211.5 96s-77.5 149.333 -77.5 256zM115 340
c0 -88.667 20.3291 -160.334 60.9961 -215.001s94.334 -82 161.001 -82s120.334 27.333 161.001 82s61 126.334 61 215.001s-20.167 160.334 -60.5 215.001s-94.166 82 -161.499 82s-121.166 -27.333 -161.499 -82s-60.5 -126.334 -60.5 -215.001zM336.996 783
c46.667 0 75.334 22.333 86.001 67h48c-4.66699 -36 -18.834 -63.667 -42.501 -83s-54.167 -29 -91.5 -29s-67.833 9.66699 -91.5 29s-37.834 47 -42.501 83h48c10.667 -44.667 39.334 -67 86.001 -67z" />
    <glyph glyph-name="obreve" unicode="&#x14f;" horiz-adv-x="522" 
d="M45 236c0 76 19.333 136.833 58 182.5s91.334 68.5 158.001 68.5s119.334 -22.833 158.001 -68.5s58 -106.5 58 -182.5c0 -75.333 -19.333 -135.5 -58 -180.5s-91.334 -67.5 -158.001 -67.5s-119.334 22.5 -158.001 67.5s-58 105.167 -58 180.5zM107 237
c0 -61.333 14 -109.668 42 -145.001s65.333 -53 112 -53s84 17.833 112 53.5s42 83.834 42 144.501c0 62 -13.833 110.833 -41.5 146.5s-65.167 53.5 -112.5 53.5s-84.833 -17.833 -112.5 -53.5s-41.5 -84.5 -41.5 -146.5zM261 581.998c46.667 0 75.334 22.333 86.001 67h48
c-4.66699 -36 -18.834 -63.667 -42.501 -83s-54.167 -29 -91.5 -29s-67.833 9.66699 -91.5 29s-37.834 47 -42.501 83h48c10.667 -44.667 39.334 -67 86.001 -67z" />
    <glyph glyph-name="Ohungarumlaut" unicode="&#x150;" horiz-adv-x="674" 
d="M48 340c0 107.333 25.833 192.833 77.5 256.5s122.167 95.5 211.5 95.5s159.833 -31.833 211.5 -95.5s77.5 -149.167 77.5 -256.5c0 -106.667 -25.833 -192 -77.5 -256s-122.167 -96 -211.5 -96s-159.833 32 -211.5 96s-77.5 149.333 -77.5 256zM115 340
c0 -88.667 20.3291 -160.334 60.9961 -215.001s94.334 -82 161.001 -82s120.334 27.333 161.001 82s61 126.334 61 215.001s-20.167 160.334 -60.5 215.001s-94.166 82 -161.499 82s-121.166 -27.333 -161.499 -82s-60.5 -126.334 -60.5 -215.001zM411.996 753h-56l102 136
h96zM265.996 753h-56l102 136h96z" />
    <glyph glyph-name="ohungarumlaut" unicode="&#x151;" horiz-adv-x="522" 
d="M45 236c0 76 19.333 136.833 58 182.5s91.334 68.5 158.001 68.5s119.334 -22.833 158.001 -68.5s58 -106.5 58 -182.5c0 -75.333 -19.333 -135.5 -58 -180.5s-91.334 -67.5 -158.001 -67.5s-119.334 22.5 -158.001 67.5s-58 105.167 -58 180.5zM107 237
c0 -61.333 14 -109.668 42 -145.001s65.333 -53 112 -53s84 17.833 112 53.5s42 83.834 42 144.501c0 62 -13.833 110.833 -41.5 146.5s-65.167 53.5 -112.5 53.5s-84.833 -17.833 -112.5 -53.5s-41.5 -84.5 -41.5 -146.5zM330 543.998h-56l102 136h96zM184 543.998h-56
l102 136h96z" />
    <glyph glyph-name="OE" unicode="&#x152;" horiz-adv-x="995" 
d="M959 56v-56h-457c-43.333 -8 -81.333 -12 -114 -12c-106 0 -189.167 30.167 -249.5 90.5s-90.5 146.833 -90.5 259.5c0 110 30.667 196.667 92 260s144.333 95 249 95c27.333 0 65 -4.33301 113 -13h437v-56h-383v-247h347v-57h-347v-264h403zM493 57v566.999
c-33.333 7.33301 -68 11 -104 11c-84.667 0 -151.667 -25.167 -201 -75.5s-74 -124.166 -74 -221.499c0 -93.333 26 -166 78 -218s118.333 -78 199 -78c36.667 0 70.667 5 102 15z" />
    <glyph glyph-name="oe" unicode="&#x153;" horiz-adv-x="877" 
d="M785 146l45.001 -29c-42.667 -86 -111.667 -129 -207 -129c-87.333 0 -149.666 34.667 -186.999 104c-38.667 -69.333 -98 -104 -178 -104c-66 0 -118 22.333 -156 67s-57 105 -57 181c0 76.667 19.167 137.667 57.5 183s90.166 68 155.499 68
c79.333 0 138.666 -35.333 177.999 -106c18 33.333 42.833 59.333 74.5 78s67.5 28 107.5 28c66.667 0 118 -22.833 154 -68.5s54 -105.167 54 -178.5v-8h-362v-7c0 -59.333 15.167 -105 45.5 -137s68.833 -48 115.5 -48c72.667 0 126 35.333 160 106zM107.001 237
c0 -61.333 13.667 -109.666 41 -144.999s64 -53 110 -53s82.667 17.667 110 53s41 83.666 41 144.999c0 62.667 -13.333 111.667 -40 147s-63.667 53 -111 53c-46.667 0 -83.5 -17.833 -110.5 -53.5s-40.5 -84.5 -40.5 -146.5zM618.001 438
c-43.333 0 -78.501 -14.167 -105.501 -42.5s-42.5 -66.833 -46.5 -115.5h296c0 41.333 -13.167 78 -39.5 110s-61.166 48 -104.499 48z" />
    <glyph glyph-name="Racute" unicode="&#x154;" horiz-adv-x="624" 
d="M317 753h-56l102 136h96zM535 0l-210 300.999h-180v-301h-63v680h268c72 0 126.333 -11.667 163 -35c56.667 -34 85 -85.667 85 -155c0 -68.667 -28.333 -120 -85 -154c-29.333 -19.333 -67 -30.666 -113 -33.999l216 -302h-81zM145 623.999v-267h191
c53.333 0 94.666 6.33301 123.999 19c46.667 22 70 60.333 70 115s-23.333 92.667 -70 114c-27.333 12.667 -68.666 19 -123.999 19h-191z" />
    <glyph glyph-name="racute" unicode="&#x155;" horiz-adv-x="318" 
d="M312 485l-0.000976562 -59c-10.667 2 -21.667 3 -33 3c-42 0 -76.333 -14.833 -103 -44.5s-40 -68.167 -40 -115.5v-269h-59v476h59v-92c8.66699 29.333 26.167 54 52.5 74s56.833 30 91.5 30c10.667 0 21.334 -1 32.001 -3zM168.999 680h94l-132 -128h-56z" />
    <glyph glyph-name="Rcommaaccent" unicode="&#x156;" horiz-adv-x="624" 
d="M535 0l-210 300.999h-180v-301h-63v680h268c72 0 126.333 -11.667 163 -35c56.667 -34 85 -85.667 85 -155c0 -68.667 -28.333 -120 -85 -154c-29.333 -19.333 -67 -30.666 -113 -33.999l216 -302h-81zM145 623.999v-267h191c53.333 0 94.666 6.33301 123.999 19
c46.667 22 70 60.333 70 115s-23.333 92.667 -70 114c-27.333 12.667 -68.666 19 -123.999 19h-191zM288 -65.001l82.001 -0.000976562v-64c0 -35.333 -5 -64.666 -15 -87.999c-14.667 -32 -38.334 -52.333 -71.001 -61v43c16.667 6 28 15 34 27s9 28.333 9 49h-39v94z" />
    <glyph glyph-name="rcommaaccent" unicode="&#x157;" horiz-adv-x="318" 
d="M312 485l-0.000976562 -59c-10.667 2 -21.667 3 -33 3c-42 0 -76.333 -14.833 -103 -44.5s-40 -68.167 -40 -115.5v-269h-59v476h59v-92c8.66699 29.333 26.167 54 52.5 74s56.833 30 91.5 30c10.667 0 21.334 -1 32.001 -3zM65.999 -65l82.001 -0.000976562v-64
c0 -35.333 -5 -64.666 -15 -87.999c-14.667 -32 -38.334 -52.333 -71.001 -61v43c16.667 6 28 15 34 27s9 28.333 9 49h-39v94z" />
    <glyph glyph-name="Rcaron" unicode="&#x158;" horiz-adv-x="624" 
d="M238 889l79 -81l79 81h61l-119 -136h-42l-119 136h61zM535 0l-210 300.999h-180v-301h-63v680h268c72 0 126.333 -11.667 163 -35c56.667 -34 85 -85.667 85 -155c0 -68.667 -28.333 -120 -85 -154c-29.333 -19.333 -67 -30.666 -113 -33.999l216 -302h-81zM145 623.999
v-267h191c53.333 0 94.666 6.33301 123.999 19c46.667 22 70 60.333 70 115s-23.333 92.667 -70 114c-27.333 12.667 -68.666 19 -123.999 19h-191z" />
    <glyph glyph-name="rcaron" unicode="&#x159;" horiz-adv-x="318" 
d="M312 485l-0.000976562 -59c-10.667 2 -21.667 3 -33 3c-42 0 -76.333 -14.833 -103 -44.5s-40 -68.167 -40 -115.5v-269h-59v476h59v-92c8.66699 29.333 26.167 54 52.5 74s56.833 30 91.5 30c10.667 0 21.334 -1 32.001 -3zM249.999 680h63l-113 -128h-42l-113 128h63
l70 -75z" />
    <glyph glyph-name="Sacute" unicode="&#x15a;" horiz-adv-x="585" 
d="M280 753h-56l102 136h96zM505 589l-50.001 -42.998c-45.333 59.333 -105.666 89 -180.999 89c-46.667 0 -85 -11.167 -115 -33.5s-45 -51.5 -45 -87.5c0 -35.333 10.833 -61.833 32.5 -79.5s56.5 -31.834 104.5 -42.501l91 -20c64 -14 111.833 -34.5 143.5 -61.5
s47.5 -67.167 47.5 -120.5c0 -59.333 -22.667 -107.833 -68 -145.5s-106.333 -56.5 -183 -56.5c-68.667 0 -125.667 15 -171 45s-78 66.667 -98 110l56 37c14.667 -38.667 40.334 -71 77.001 -97s82.334 -39 137.001 -39c57.333 0 102.166 12.833 134.499 38.5
s48.5 60.167 48.5 103.5c0 36 -11.5 63.5 -34.5 82.5s-59.833 33.833 -110.5 44.5l-85 19c-28.667 6 -53 12.667 -73 20s-39.333 17.5 -58 30.5s-32.834 30 -42.501 51s-14.5 46.167 -14.5 75.5c0 53.333 21.333 97.166 64 131.499s97.667 51.5 165 51.5
c100 0 176 -34.333 228 -103z" />
    <glyph glyph-name="sacute" unicode="&#x15b;" horiz-adv-x="444" 
d="M255 680h94l-132 -128h-56zM385 409l-44.9971 -38.002c-32 44 -75 66 -129 66c-30.667 0 -55.834 -6.5 -75.501 -19.5s-29.5 -32.167 -29.5 -57.5c0 -24 7.5 -41.833 22.5 -53.5s39.167 -21.167 72.5 -28.5l63 -15c46 -10 81.167 -24.667 105.5 -44
s36.5 -48.666 36.5 -87.999c0 -45.333 -17 -80.333 -51 -105s-78.667 -37.334 -134 -38.001c-44.667 0 -84.334 9.66699 -119.001 29s-60.334 42.666 -77.001 69.999l48 34c34 -54.667 85.667 -82 155 -82c38.667 0.666992 68 8.83398 88 24.501s30 36.834 30 63.501
c0 24 -8.16699 41.5 -24.5 52.5s-41.5 20.833 -75.5 29.5l-66 16c-46 10.667 -79.833 25.334 -101.5 44.001s-32.5 46.667 -32.5 84c0 41.333 15.833 74 47.5 98s71.167 36 118.5 36c72 0 129.667 -26 173 -78z" />
    <glyph glyph-name="Scircumflex" unicode="&#x15c;" horiz-adv-x="585" 
d="M359 753l-79 81l-79 -81h-61l119 136h42l119 -136h-61zM505 589l-50.001 -42.998c-45.333 59.333 -105.666 89 -180.999 89c-46.667 0 -85 -11.167 -115 -33.5s-45 -51.5 -45 -87.5c0 -35.333 10.833 -61.833 32.5 -79.5s56.5 -31.834 104.5 -42.501l91 -20
c64 -14 111.833 -34.5 143.5 -61.5s47.5 -67.167 47.5 -120.5c0 -59.333 -22.667 -107.833 -68 -145.5s-106.333 -56.5 -183 -56.5c-68.667 0 -125.667 15 -171 45s-78 66.667 -98 110l56 37c14.667 -38.667 40.334 -71 77.001 -97s82.334 -39 137.001 -39
c57.333 0 102.166 12.833 134.499 38.5s48.5 60.167 48.5 103.5c0 36 -11.5 63.5 -34.5 82.5s-59.833 33.833 -110.5 44.5l-85 19c-28.667 6 -53 12.667 -73 20s-39.333 17.5 -58 30.5s-32.834 30 -42.501 51s-14.5 46.167 -14.5 75.5c0 53.333 21.333 97.166 64 131.499
s97.667 51.5 165 51.5c100 0 176 -34.333 228 -103z" />
    <glyph glyph-name="scircumflex" unicode="&#x15d;" horiz-adv-x="444" 
d="M385 409l-44.9971 -38.002c-32 44 -75 66 -129 66c-30.667 0 -55.834 -6.5 -75.501 -19.5s-29.5 -32.167 -29.5 -57.5c0 -24 7.5 -41.833 22.5 -53.5s39.167 -21.167 72.5 -28.5l63 -15c46 -10 81.167 -24.667 105.5 -44s36.5 -48.666 36.5 -87.999
c0 -45.333 -17 -80.333 -51 -105s-78.667 -37.334 -134 -38.001c-44.667 0 -84.334 9.66699 -119.001 29s-60.334 42.666 -77.001 69.999l48 34c34 -54.667 85.667 -82 155 -82c38.667 0.666992 68 8.83398 88 24.501s30 36.834 30 63.501c0 24 -8.16699 41.5 -24.5 52.5
s-41.5 20.833 -75.5 29.5l-66 16c-46 10.667 -79.833 25.334 -101.5 44.001s-32.5 46.667 -32.5 84c0 41.333 15.833 74 47.5 98s71.167 36 118.5 36c72 0 129.667 -26 173 -78zM151.003 551.998h-63l113 128h42l113 -128h-63l-70 75z" />
    <glyph glyph-name="Scedilla" unicode="&#x15e;" horiz-adv-x="585" 
d="M505 589l-49.998 -42.9971c-45.333 59.333 -105.666 89 -180.999 89c-46.667 0 -85 -11.167 -115 -33.5s-45 -51.5 -45 -87.5c0 -35.333 10.833 -61.833 32.5 -79.5s56.5 -31.834 104.5 -42.501l91 -20c64 -14 111.833 -34.5 143.5 -61.5s47.5 -67.167 47.5 -120.5
c0 -58 -21.833 -105.667 -65.5 -143s-102.5 -57 -176.5 -59l-24 -33c3.33301 0.666992 8.66602 1 15.999 1c23.333 0 42.333 -5.83301 57 -17.5s22 -28.5 22 -50.5c0 -26.667 -9.33301 -46.834 -28 -60.501s-41.667 -20.5 -69 -20.5c-15.333 0 -30.333 2.66699 -45 8l9 27
c10 -3.33301 21 -5 33 -5c15.333 0 27.833 3.83301 37.5 11.5s14.5 18.167 14.5 31.5c0 14 -4.83301 24.5 -14.5 31.5s-21.834 10.5 -36.501 10.5c-13.333 0 -24.666 -2.33301 -33.999 -7l-12 22l37 52c-60.667 4 -111.334 20.667 -152.001 50s-70.334 64 -89.001 104l56 37
c14.667 -38.667 40.334 -71 77.001 -97s82.334 -39 137.001 -39c57.333 0 102.166 12.833 134.499 38.5s48.5 60.167 48.5 103.5c0 36 -11.5 63.5 -34.5 82.5s-59.833 33.833 -110.5 44.5l-85 19c-28.667 6 -53 12.667 -73 20s-39.333 17.5 -58 30.5s-32.834 30 -42.501 51
s-14.5 46.167 -14.5 75.5c0 53.333 21.333 97.166 64 131.499s97.667 51.5 165 51.5c100 0 176 -34.333 228 -103z" />
    <glyph glyph-name="scedilla" unicode="&#x15f;" horiz-adv-x="444" 
d="M385 410l-44.998 -38.002c-32 44 -75 66 -129 66c-30.667 0 -55.834 -6.5 -75.501 -19.5s-29.5 -32.167 -29.5 -57.5c0 -24 7.5 -41.833 22.5 -53.5s39.167 -21.167 72.5 -28.5l63 -15c46 -10 81.167 -24.667 105.5 -44s36.5 -48.666 36.5 -87.999
c0 -42 -14.667 -75.333 -44 -100s-68.333 -39 -117 -43l-25 -34c3.33301 0.666992 8.66602 1 15.999 1c23.333 0 42.333 -5.83301 57 -17.5s22 -28.5 22 -50.5c0 -26.667 -9.33301 -46.834 -28 -60.501s-41.667 -20.5 -69 -20.5c-15.333 0 -30.333 2.66699 -45 8l9 27
c10 -3.33301 21 -5 33 -5c15.333 0 27.833 3.83301 37.5 11.5s14.5 18.167 14.5 31.5c0 14 -4.83301 24.5 -14.5 31.5s-21.834 10.5 -36.501 10.5c-13.333 0 -24.666 -2.33301 -33.999 -7l-12 22l36 51c-41.333 2.66699 -78 13.334 -110 32.001s-55.667 41 -71 67l48 34
c34 -54.667 85.667 -82 155 -82c38.667 0.666992 68 9 88 25s30 37.333 30 64c0 24 -8.16699 41.5 -24.5 52.5s-41.5 20.833 -75.5 29.5l-66 16c-46 10.667 -79.833 25.334 -101.5 44.001s-32.5 46.667 -32.5 84c0 41.333 15.833 74 47.5 98s71.167 36 118.5 36
c72 0 129.667 -26 173 -78z" />
    <glyph glyph-name="Scaron" unicode="&#x160;" horiz-adv-x="585" 
d="M505 589l-50.001 -42.998c-45.333 59.333 -105.666 89 -180.999 89c-46.667 0 -85 -11.167 -115 -33.5s-45 -51.5 -45 -87.5c0 -35.333 10.833 -61.833 32.5 -79.5s56.5 -31.834 104.5 -42.501l91 -20c64 -14 111.833 -34.5 143.5 -61.5s47.5 -67.167 47.5 -120.5
c0 -59.333 -22.667 -107.833 -68 -145.5s-106.333 -56.5 -183 -56.5c-68.667 0 -125.667 15 -171 45s-78 66.667 -98 110l56 37c14.667 -38.667 40.334 -71 77.001 -97s82.334 -39 137.001 -39c57.333 0 102.166 12.833 134.499 38.5s48.5 60.167 48.5 103.5
c0 36 -11.5 63.5 -34.5 82.5s-59.833 33.833 -110.5 44.5l-85 19c-28.667 6 -53 12.667 -73 20s-39.333 17.5 -58 30.5s-32.834 30 -42.501 51s-14.5 46.167 -14.5 75.5c0 53.333 21.333 97.166 64 131.499s97.667 51.5 165 51.5c100 0 176 -34.333 228 -103z
M199.999 889.002l79 -81l79 81h61l-119 -136h-42l-119 136h61z" />
    <glyph glyph-name="scaron" unicode="&#x161;" horiz-adv-x="444" 
d="M82 680h63l72 -75l70 75h63l-113 -128h-42zM385 410l-44.9971 -38.001c-32 44 -75 66 -129 66c-30.667 0 -55.834 -6.5 -75.501 -19.5s-29.5 -32.167 -29.5 -57.5c0 -24 7.5 -41.833 22.5 -53.5s39.167 -21.167 72.5 -28.5l63 -15c46 -10 81.167 -24.667 105.5 -44
s36.5 -48.666 36.5 -87.999c0 -45.333 -17 -80.5 -51 -105.5s-78.667 -37.833 -134 -38.5c-44.667 0 -84.334 9.66699 -119.001 29s-60.334 42.666 -77.001 69.999l48 34c34 -54.667 85.667 -82 155 -82c38.667 0.666992 68 9 88 25s30 37.333 30 64
c0 24 -8.16699 41.5 -24.5 52.5s-41.5 20.833 -75.5 29.5l-66 16c-46 10.667 -79.833 25.334 -101.5 44.001s-32.5 46.667 -32.5 84c0 41.333 15.833 74 47.5 98s71.167 36 118.5 36c72 0 129.667 -26 173 -78z" />
    <glyph glyph-name="Tcommaaccent" unicode="&#x162;" horiz-adv-x="518" 
d="M10 624v56h498v-56h-218v-624h-63v624h-217zM217 -65l82.001 -0.000976562v-64c0 -35.333 -5 -64.666 -15 -87.999c-14.667 -32 -38.334 -52.333 -71.001 -61v43c16.667 6 28 15 34 27s9 28.333 9 49h-39v94z" />
    <glyph glyph-name="tcommaaccent" unicode="&#x163;" horiz-adv-x="293" 
d="M6 430l0.000976562 46h96v178l59 13v-191h114v-46h-114v-322c0 -26.667 3 -44 9 -52c6.66699 -8.66699 19 -13 37 -13c25.333 0 48 5.33301 68 16v-53c-22.667 -10.667 -51.334 -16 -86.001 -16c-32 0 -54.667 7.66699 -68 23c-12.667 14.667 -19 39 -19 73v344h-96z
M122.001 -65l82.001 -0.000976562v-64c0 -35.333 -5 -64.666 -15 -87.999c-14.667 -32 -38.334 -52.333 -71.001 -61v43c16.667 6 28 15 34 27s9 28.333 9 49h-39v94z" />
    <glyph glyph-name="Tcaron" unicode="&#x164;" horiz-adv-x="518" 
d="M179 889l79 -81l79 81h61l-119 -136h-42l-119 136h61zM10 624v56h498v-56h-218v-624h-63v624h-217z" />
    <glyph glyph-name="tcaron" unicode="&#x165;" horiz-adv-x="293" 
d="M6 430l0.000976562 46h96v178l59 13v-191h114v-46h-114v-322c0 -26.667 3 -44 9 -52c6.66699 -8.66699 19 -13 37 -13c25.333 0 48 5.33301 68 16v-53c-22.667 -10.667 -51.334 -16 -86.001 -16c-32 0 -54.667 7.66699 -68 23c-12.667 14.667 -19 39 -19 73v344h-96z
M280.001 552h-48l49 128h82z" />
    <glyph glyph-name="Tbar" unicode="&#x166;" horiz-adv-x="518" 
d="M10 624v56h498v-56h-218v-172h134v-53h-134v-399h-63v399h-134v53h134v172h-217z" />
    <glyph glyph-name="tbar" unicode="&#x167;" horiz-adv-x="293" 
d="M6 430l0.000976562 46h96v178l59 13v-191h114v-46h-114v-122h119v-53h-119v-147c0 -26.667 3 -44 9 -52c6.66699 -8.66699 19 -13 37 -13c25.333 0 48 5.33301 68 16v-53c-22.667 -10.667 -51.334 -16 -86.001 -16c-32 0 -54.667 7.66699 -68 23
c-12.667 14.667 -19 39 -19 73v169h-103v53h103v122h-96z" />
    <glyph glyph-name="Utilde" unicode="&#x168;" horiz-adv-x="661" 
d="M331 -13c65.333 0 119.5 14.667 162.5 44s71.167 72.333 84.5 129c5.33301 26.667 8 66.667 8 120v400h-63v-405c0 -64.667 -6.33301 -111 -19 -139c-27.333 -62 -85 -93 -173 -93c-88.667 0 -146.667 31 -174 93c-12.667 28 -19 74.333 -19 139v405h-63v-400
c0 -54.667 3 -94.667 9 -120c13.333 -56.667 41.5 -99.667 84.5 -129s97.167 -44 162.5 -44zM447 868l40.999 -10c-6.66699 -14 -12 -24.667 -16 -32s-10 -16.333 -18 -27s-17 -18.5 -27 -23.5s-21 -7.5 -33 -7.5c-18 0 -43.667 8.66699 -77 26
c-29.333 14.667 -47.666 22 -54.999 22c-22 0 -37.667 -15.667 -47 -47l-42 9c24 60 56 90 96 90c15.333 0 37.666 -7.33301 66.999 -22c30.667 -15.333 51.334 -23 62.001 -23c22.667 0 39 15 49 45z" />
    <glyph glyph-name="utilde" unicode="&#x169;" horiz-adv-x="519" 
d="M74 178l0.000976562 297.998h59v-272c0 -63.333 10 -106.666 30 -129.999c18.667 -20.667 47 -31 85 -31c45.333 0 79.166 15 101.499 45s33.5 65 33.5 105v283h59v-476h-59v78c-10 -25.333 -27.833 -46.666 -53.5 -63.999s-57.5 -26 -95.5 -26
c-50.667 0 -90 15.333 -118 46c-28 31.333 -42 79.333 -42 144zM376.001 665.998l40.999 -10c-6.66699 -14 -12 -24.667 -16 -32s-10 -16.333 -18 -27s-17 -18.5 -27 -23.5s-21 -7.5 -33 -7.5c-18 0 -43.667 8.66699 -77 26c-29.333 14.667 -47.666 22 -54.999 22
c-22 0 -37.667 -15.667 -47 -47l-42 9c24 60 56 90 96 90c15.333 0 37.666 -7.33301 66.999 -22c30.667 -15.333 51.334 -23 62.001 -23c22.667 0 39 15 49 45z" />
    <glyph glyph-name="Umacron" unicode="&#x16a;" horiz-adv-x="661" 
d="M331 -13c65.333 0 119.5 14.667 162.5 44s71.167 72.333 84.5 129c5.33301 26.667 8 66.667 8 120v400h-63v-405c0 -64.667 -6.33301 -111 -19 -139c-27.333 -62 -85 -93 -173 -93c-88.667 0 -146.667 31 -174 93c-12.667 28 -19 74.333 -19 139v405h-63v-400
c0 -54.667 3 -94.667 9 -120c13.333 -56.667 41.5 -99.667 84.5 -129s97.167 -44 162.5 -44zM195 778v53h271v-53h-271z" />
    <glyph glyph-name="umacron" unicode="&#x16b;" horiz-adv-x="519" 
d="M74 178l0.000976562 297.998h59v-272c0 -63.333 10 -106.666 30 -129.999c18.667 -20.667 47 -31 85 -31c45.333 0 79.166 15 101.499 45s33.5 65 33.5 105v283h59v-476h-59v78c-10 -25.333 -27.833 -46.666 -53.5 -63.999s-57.5 -26 -95.5 -26
c-50.667 0 -90 15.333 -118 46c-28 31.333 -42 79.333 -42 144zM122.001 578.998v53h271v-53h-271z" />
    <glyph glyph-name="Ubreve" unicode="&#x16c;" horiz-adv-x="661" 
d="M331 -13c65.333 0 119.5 14.667 162.5 44s71.167 72.333 84.5 129c5.33301 26.667 8 66.667 8 120v400h-63v-405c0 -64.667 -6.33301 -111 -19 -139c-27.333 -62 -85 -93 -173 -93c-88.667 0 -146.667 31 -174 93c-12.667 28 -19 74.333 -19 139v405h-63v-400
c0 -54.667 3 -94.667 9 -120c13.333 -56.667 41.5 -99.667 84.5 -129s97.167 -44 162.5 -44zM330 783c46.667 0 75.334 22.333 86.001 67h48c-4.66699 -36 -18.834 -63.667 -42.501 -83s-54.167 -29 -91.5 -29s-67.833 9.66699 -91.5 29s-37.834 47 -42.501 83h48
c10.667 -44.667 39.334 -67 86.001 -67z" />
    <glyph glyph-name="ubreve" unicode="&#x16d;" horiz-adv-x="519" 
d="M74 178l0.000976562 297.998h59v-272c0 -63.333 10 -106.666 30 -129.999c18.667 -20.667 47 -31 85 -31c45.333 0 79.166 15 101.499 45s33.5 65 33.5 105v283h59v-476h-59v78c-10 -25.333 -27.833 -46.666 -53.5 -63.999s-57.5 -26 -95.5 -26
c-50.667 0 -90 15.333 -118 46c-28 31.333 -42 79.333 -42 144zM258.001 581.998c46.667 0 75.334 22.333 86.001 67h48c-4.66699 -36 -18.834 -63.667 -42.501 -83s-54.167 -29 -91.5 -29s-67.833 9.66699 -91.5 29s-37.834 47 -42.501 83h48
c10.667 -44.667 39.334 -67 86.001 -67z" />
    <glyph glyph-name="Uring" unicode="&#x16e;" horiz-adv-x="661" 
d="M331 -13c65.333 0 119.5 14.667 162.5 44s71.167 72.333 84.5 129c5.33301 26.667 8 66.667 8 120v400h-63v-405c0 -64.667 -6.33301 -111 -19 -139c-27.333 -62 -85 -93 -173 -93c-88.667 0 -146.667 31 -174 93c-12.667 28 -19 74.333 -19 139v405h-63v-400
c0 -54.667 3 -94.667 9 -120c13.333 -56.667 41.5 -99.667 84.5 -129s97.167 -44 162.5 -44zM248 819c0 22.667 8 41.834 24 57.501s35.333 23.5 58 23.5s42 -7.83301 58 -23.5s24 -34.834 24 -57.501s-8 -41.834 -24 -57.501s-35.333 -23.5 -58 -23.5s-42 7.83301 -58 23.5
s-24 34.834 -24 57.501zM286 819c0 -12 4.33301 -22.167 13 -30.5s18.667 -12.5 30 -12.5s21.333 4.16699 30 12.5s13 18.5 13 30.5s-4.33301 22.167 -13 30.5s-18.667 12.5 -30 12.5s-21.333 -4.16699 -30 -12.5s-13 -18.5 -13 -30.5z" />
    <glyph glyph-name="uring" unicode="&#x16f;" horiz-adv-x="519" 
d="M74 178l0.000976562 297.998h59v-272c0 -63.333 10 -106.666 30 -129.999c18.667 -20.667 47 -31 85 -31c45.333 0 79.166 15 101.499 45s33.5 65 33.5 105v283h59v-476h-59v78c-10 -25.333 -27.833 -46.666 -53.5 -63.999s-57.5 -26 -95.5 -26
c-50.667 0 -90 15.333 -118 46c-28 31.333 -42 79.333 -42 144zM177.001 617.998c0 22.667 8 41.834 24 57.501s35.333 23.5 58 23.5s42 -7.83301 58 -23.5s24 -34.834 24 -57.501s-8 -41.834 -24 -57.501s-35.333 -23.5 -58 -23.5s-42 7.83301 -58 23.5
s-24 34.834 -24 57.501zM215.001 617.998c0 -12 4.33301 -22.167 13 -30.5s18.667 -12.5 30 -12.5s21.333 4.16699 30 12.5s13 18.5 13 30.5s-4.33301 22.167 -13 30.5s-18.667 12.5 -30 12.5s-21.333 -4.16699 -30 -12.5s-13 -18.5 -13 -30.5z" />
    <glyph glyph-name="Uhungarumlaut" unicode="&#x170;" horiz-adv-x="661" 
d="M331 -13c-65.333 0 -119.5 14.667 -162.5 44s-71.167 72.333 -84.5 129c-6 25.333 -9 65.333 -9 120v400h63v-405c0 -64.667 6.33301 -111 19 -139c27.333 -62 85.333 -93 174 -93c88 0 145.667 31 173 93c12.667 28 19 74.333 19 139v405h63v-400
c0 -53.333 -2.66699 -93.333 -8 -120c-13.333 -56.667 -41.5 -99.667 -84.5 -129s-97.167 -44 -162.5 -44zM396 753h-56l102 136h96zM250 753h-56l102 136h96z" />
    <glyph glyph-name="uhungarumlaut" unicode="&#x171;" horiz-adv-x="519" 
d="M74 178l0.000976562 297.998h59v-272c0 -63.333 10 -106.666 30 -129.999c18.667 -20.667 47 -31 85 -31c45.333 0 79.166 15 101.499 45s33.5 65 33.5 105v283h59v-476h-59v78c-10 -25.333 -27.833 -46.666 -53.5 -63.999s-57.5 -26 -95.5 -26
c-50.667 0 -90 15.333 -118 46c-28 31.333 -42 79.333 -42 144zM329.001 543.998h-56l102 136h96zM183.001 543.998h-56l102 136h96z" />
    <glyph glyph-name="Uogonek" unicode="&#x172;" horiz-adv-x="661" 
d="M367 -174l18.001 -40.998c-14.667 -4 -30 -6 -46 -6c-30 0 -53.833 8.16699 -71.5 24.5s-26.5 38.5 -26.5 66.5c0 40 27.667 79 83 117c-63.333 1.33301 -116 16.666 -158 45.999s-69.333 71.666 -82 126.999c-6 25.333 -9 65.333 -9 120v400h63v-405
c0 -64.667 6.33301 -111 19 -139c27.333 -62 85.333 -93 174 -93c88 0 145.667 31 173 93c12.667 28 19 74.333 19 139v405h63v-400c0 -53.333 -2.66699 -93.333 -8 -120c-22.667 -96.667 -86 -153 -190 -169c-64.667 -40.667 -97 -79.667 -97 -117c0 -34 18 -51 54 -51
c7.33301 0 14.666 1 21.999 3z" />
    <glyph glyph-name="uogonek" unicode="&#x173;" horiz-adv-x="519" 
d="M405 -174l18.002 -41.001c-14.667 -4 -30 -6 -46 -6c-30 0 -53.833 8.16699 -71.5 24.5s-26.5 38.5 -26.5 66.5c0 45.333 34.667 88.666 104 129.999v78c-10 -25.333 -27.833 -46.666 -53.5 -63.999s-57.5 -26 -95.5 -26c-50.667 0 -90 15.333 -118 46
c-28 31.333 -42 79.333 -42 144v298h59v-272c0 -63.333 10 -106.666 30 -129.999c18.667 -20.667 47 -31 85 -31c45.333 0 79.166 15 101.499 45s33.5 65 33.5 105v283h59v-476h-2c-74 -44.667 -111 -86.667 -111 -126c0 -34 18 -51 54 -51c7.33301 0 14.666 1 21.999 3z
" />
    <glyph glyph-name="Wcircumflex" unicode="&#x174;" horiz-adv-x="851" 
d="M502 753l-79 81l-79 -81h-61l119 136h42l119 -136h-61zM582 0l60.998 0.00195312l193 680h-65l-118 -429c-20.667 -70.667 -34 -120.334 -40 -149.001c-11.333 43.333 -21.666 80.666 -30.999 111.999l-132 466h-52l-121 -430c-24 -82 -38 -131.667 -42 -149l-6.5 25.5
l-11.5 43l-12 43.5l-123 467h-67l182 -680h67l118 406c16.667 58 30.334 108.333 41.001 151c12 -46 26 -95.667 42 -149z" />
    <glyph glyph-name="wcircumflex" unicode="&#x175;" horiz-adv-x="652" 
d="M358 476l86.999 -282.999c4.66699 -15.333 14.667 -51 30 -107h1l13 44.5c7.33301 25 13.333 46.833 18 65.5l78 280h59l-142 -476h-55l-92 313c-7.33301 23.333 -15.333 52.666 -24 87.999h-1c-3.33301 -13.333 -11.666 -43 -24.999 -89l-92 -312h-56l-149 476h63
l85 -283l31 -106h1c15.333 56 25.333 91.667 30 107l86 282h54zM258.999 552.001h-63l113 128h42l113 -128h-63l-70 75z" />
    <glyph glyph-name="Ycircumflex" unicode="&#x176;" horiz-adv-x="549" 
d="M351 753l-79 81l-79 -81h-61l119 136h42l119 -136h-61zM300 279v-279h-63v279l-246 401h76l205 -337l212 337h74z" />
    <glyph glyph-name="ycircumflex" unicode="&#x177;" horiz-adv-x="427" 
d="M68 476l113.001 -316.999l27 -79h1c8 23.333 18 50.666 30 81.999l121 314h61l-213 -541c-16.667 -43.333 -30 -73.333 -40 -90c-19.333 -31.333 -48.333 -47 -87 -47c-23.333 0 -44 5.33301 -62 16v59c20 -13.333 40 -20 60 -20c19.333 0 33.666 7 42.999 21
c7.33301 10 16 28.667 26 56l26 70l-170 476h64zM138.001 552.001h-63l113 128h42l113 -128h-63l-70 75z" />
    <glyph glyph-name="Ydieresis" unicode="&#x178;" horiz-adv-x="549" 
d="M148 768v91h62v-91h-62zM335 768v91h62v-91h-62zM298 279v-279h-63v279l-246 401h76l205 -337l212 337h74z" />
    <glyph glyph-name="Zacute" unicode="&#x179;" horiz-adv-x="561" 
d="M280 753h-56l102 136h96zM531 56v-56h-511v43l426 581h-403v56h483v-47l-421 -577h426z" />
    <glyph glyph-name="zacute" unicode="&#x17a;" horiz-adv-x="394" 
d="M374 50v-50h-348v40l258 387h-245v49h321v-39l-259 -387h273zM227 680h94l-132 -128h-56z" />
    <glyph glyph-name="Zdotaccent" unicode="&#x17b;" horiz-adv-x="561" 
d="M531 56v-56h-511v43l426 581h-403v56h483v-47l-421 -577h426zM246 768v91h68v-91h-68z" />
    <glyph glyph-name="zdotaccent" unicode="&#x17c;" horiz-adv-x="394" 
d="M374 50v-50h-348v40l258 387h-245v49h321v-39l-259 -387h273zM163 579v91h68v-91h-68z" />
    <glyph glyph-name="Zcaron" unicode="&#x17d;" horiz-adv-x="561" 
d="M531 56v-56h-511v43l426 581h-403v56h483v-47l-421 -577h426zM222 889l79 -81l79 81h61l-119 -136h-42l-119 136h61z" />
    <glyph glyph-name="zcaron" unicode="&#x17e;" horiz-adv-x="394" 
d="M374 50v-50h-348v40l256 387h-243v49h321v-39l-256 -387h270zM77 680h63l72 -75l70 75h63l-113 -128h-42z" />
    <glyph glyph-name="florin" unicode="&#x192;" horiz-adv-x="590" 
d="M28 -190l19.002 51.999c27.333 -6 49.666 -9 66.999 -9c21.333 0 37 4.66699 47 14c12 10.667 21.333 36 28 76l84 479h-112l9 54h111l16 99c6.66699 42 19.667 72.167 39 90.5s46.333 27.5 81 27.5c27.333 0 59 -5.33301 95 -16l-14 -52
c-35.333 7.33301 -59.333 11 -72 11c-20 0 -35.667 -6 -47 -18c-10.667 -11.333 -18.334 -32.666 -23.001 -63.999l-13 -78h116l-9 -54h-115l-89 -502c-7.33301 -42 -21 -73 -41 -93c-19.333 -19.333 -47.333 -29 -84 -29c-30 0 -61 4 -93 12z" />
    <glyph glyph-name="Aringacute" unicode="&#x1fa;" horiz-adv-x="584" 
d="M238 762c0 15.333 5.5 28.333 16.5 39s24.167 16 39.5 16s28.333 -5.33301 39 -16s16 -23.667 16 -39s-5.33301 -28.333 -16 -39s-23.667 -16 -39 -16s-28.5 5.33301 -39.5 16s-16.5 23.667 -16.5 39zM264 762c0 -8.66699 2.83301 -15.667 8.5 -21s12.5 -8 20.5 -8
s14.833 2.66699 20.5 8s8.5 12.333 8.5 21c0 8 -2.83301 14.833 -8.5 20.5s-12.5 8.5 -20.5 8.5s-14.833 -2.83301 -20.5 -8.5s-8.5 -12.5 -8.5 -20.5zM144 205l-74 -205h-67l259 680h62l257 -680h-68l-76 205h-293zM415 263l-95 250c-12 29.333 -21.667 57 -29 83h-1
c-10.667 -33.333 -20.667 -61.333 -30 -84l-95 -249h250zM285 838h-56l86 80h96z" />
    <glyph glyph-name="aringacute" unicode="&#x1fb;" horiz-adv-x="489" 
d="M178 583c0 15.333 5.5 28.333 16.5 39s24.167 16 39.5 16s28.333 -5.33301 39 -16s16 -23.667 16 -39s-5.33301 -28.333 -16 -39s-23.667 -16 -39 -16s-28.5 5.33301 -39.5 16s-16.5 23.667 -16.5 39zM204 583c0 -8.66699 2.83301 -15.667 8.5 -21s12.5 -8 20.5 -8
s14.833 2.66699 20.5 8s8.5 12.333 8.5 21c0 8 -2.83301 14.833 -8.5 20.5s-12.5 8.5 -20.5 8.5s-14.833 -2.83301 -20.5 -8.5s-8.5 -12.5 -8.5 -20.5zM225 659h-56l86 80h96zM351 168l-0.000976562 87.999c-13.333 -4.66699 -30 -8.66699 -50 -12l-79 -15
c-19.333 -4 -34.333 -7.5 -45 -10.5s-22.167 -8 -34.5 -15s-21.333 -16.167 -27 -27.5s-8.5 -25.333 -8.5 -42c0 -31.333 9.5 -55.166 28.5 -71.499s44.833 -24.5 77.5 -24.5c38.667 0 71.334 12 98.001 36s40 55.333 40 94zM112.999 324.999l-55.001 12.999
c-0.666992 46 15.833 82.333 49.5 109s77.167 40 130.5 40c54 0 95.667 -11 125 -33s44 -61 44 -117v-237c0 -22 2.33301 -37.833 7 -47.5s15 -14.5 31 -14.5c14 0 26 3 36 9v-46c-13.333 -7.33301 -30.333 -11 -51 -11c-24 0 -43 6.5 -57 19.5s-20.667 32.167 -20 57.5h-1
c-10 -21.333 -28 -39.833 -54 -55.5s-58.333 -23.5 -97 -23.5c-48.667 0 -86.834 12.833 -114.501 38.5s-41.5 61.167 -41.5 106.5c0 38 11 68 33 90c24.667 24 68.334 41.333 131.001 52l118 22c6.66699 1.33301 11.334 2.5 14.001 3.5s5 3.33301 7 7s3 8.83398 3 15.501
v15c0 34 -9 59.167 -27 75.5s-47.667 24.5 -89 24.5c-39.333 0 -69.5 -9.83301 -90.5 -29.5s-31.5 -47.5 -31.5 -83.5z" />
    <glyph glyph-name="AEacute" unicode="&#x1fc;" horiz-adv-x="905" 
d="M510 753h-56l102 136h96zM173 204l-127 -204h-71l426 680h448v-56h-364v-245h329v-56h-329v-267h384v-56h-448v204h-248zM421 261v220c0 27.333 0.333008 52.5 1 75.5s1.33398 38.833 2.00098 47.5v13h-1c-18.667 -41.333 -44.334 -87.333 -77.001 -138l-136 -218h211z
" />
    <glyph glyph-name="aeacute" unicode="&#x1fd;" horiz-adv-x="816" 
d="M113 325l-54.998 12.998c-0.666992 46 15.833 82.333 49.5 109s77.167 40 130.5 40c69.333 0 116.666 -16.667 141.999 -50c6 -8 11 -17.333 15 -28c40 52 94 78 162 78c65.333 0 116.333 -22.667 153 -68s55 -104.333 55 -177v-8h-362v-8
c0 -59.333 15.167 -105.166 45.5 -137.499s68.833 -48.5 115.5 -48.5c73.333 0 126.666 36.333 159.999 109l45 -32c-42 -86 -111 -129 -207 -129c-83.333 0 -144.333 32.667 -183 98c-13.333 -25.333 -34.333 -48 -63 -68s-66.334 -30 -113.001 -30
c-48 0 -86.333 13 -115 39s-43 62 -43 108c0 42.667 13.5 74.167 40.5 94.5s68.167 35.5 123.5 45.5l118 22c6.66699 1.33301 11.334 2.5 14.001 3.5s5 3.33301 7 7s3 8.83398 3 15.501v15c0 34 -9 59.167 -27 75.5s-47.667 24.5 -89 24.5
c-39.333 0 -69.5 -9.83301 -90.5 -29.5s-31.5 -47.5 -31.5 -83.5zM351.002 168.998l-0.000976562 87.001c-13.333 -4.66699 -30 -8.66699 -50 -12l-79 -15c-19.333 -4 -34.333 -7.5 -45 -10.5s-22.167 -8 -34.5 -15s-21.333 -16.167 -27 -27.5s-8.5 -25.333 -8.5 -42
c0 -30.667 9.66699 -54.334 29 -71.001s45 -25 77 -25c38.667 0 71.334 12.167 98.001 36.5s40 55.833 40 94.5zM557.001 437.999c-42.667 0 -77.333 -13.833 -104 -41.5s-42.667 -65.834 -48 -114.501h296c-1.33301 40.667 -15 76.834 -41 108.501s-60.333 47.5 -103 47.5z
M458.002 679.999h94l-132 -128h-56z" />
    <glyph glyph-name="Oslashacute" unicode="&#x1fe;" horiz-adv-x="674" 
d="M48 340c0 107.333 25.834 192.833 77.501 256.5s122.167 95.5 211.5 95.5c85.333 0 154 -29.667 206 -89l75 84l43 -39l-84 -94c32.667 -58 49 -129.333 49 -214c0 -106.667 -25.833 -192 -77.5 -256s-122.167 -96 -211.5 -96c-80.667 0 -146.334 26.333 -197.001 79
l-72 -80l-46 39l81 90c-36.667 59.333 -55 134 -55 224zM115.001 340c0 -64.667 11.666 -122 34.999 -172l348 386c-40 54.667 -93.667 82 -161 82s-121.166 -27.167 -161.499 -81.5s-60.5 -125.833 -60.5 -214.5zM559 340c0 60 -10 113.667 -30 161l-346 -385
c39.333 -48 90.666 -72 153.999 -72c66.667 0 120.334 27.333 161.001 82s61 126 61 214zM337 753h-56l102 136h96z" />
    <glyph glyph-name="oslashacute" unicode="&#x1ff;" horiz-adv-x="522" 
d="M137 109l223 290.001c-26.667 25.333 -59.667 38 -99 38c-47.333 0 -84.833 -17.833 -112.5 -53.5s-41.5 -84.5 -41.5 -146.5c0 -52.667 10 -95.334 30 -128.001zM49 -4.99902l50.001 65c-36 43.333 -54 102 -54 176c0 76.667 19.667 137.667 59 183
s91.666 68 156.999 68c52 0 96 -15 132 -45l49 64l44 -32l-55 -72c30.667 -44.667 46 -100 46 -166c0 -76 -19.5 -136.333 -58.5 -181s-91.5 -67 -157.5 -67c-47.333 0 -88.333 11.667 -123 35l-47 -61zM392.001 352.001l-219 -284.001c24.667 -19.333 54 -29 88 -29
c46.667 0 84 17.833 112 53.5s42 83.834 42 144.501c0 44.667 -7.66699 83 -23 115zM304.001 680h94l-132 -128h-56z" />
    <glyph glyph-name="Scommaaccent" unicode="&#x218;" horiz-adv-x="585" 
d="M505 589l-50.001 -42.998c-45.333 59.333 -105.666 89 -180.999 89c-46.667 0 -85 -11.167 -115 -33.5s-45 -51.5 -45 -87.5c0 -35.333 10.833 -61.833 32.5 -79.5s56.5 -31.834 104.5 -42.501l91 -20c64 -14 111.833 -34.5 143.5 -61.5s47.5 -67.167 47.5 -120.5
c0 -59.333 -22.667 -107.833 -68 -145.5s-106.333 -56.5 -183 -56.5c-68.667 0 -125.667 15 -171 45s-78 66.667 -98 110l56 37c14.667 -38.667 40.334 -71 77.001 -97s82.334 -39 137.001 -39c57.333 0 102.166 12.833 134.499 38.5s48.5 60.167 48.5 103.5
c0 36 -11.5 63.5 -34.5 82.5s-59.833 33.833 -110.5 44.5l-85 19c-28.667 6 -53 12.667 -73 20s-39.333 17.5 -58 30.5s-32.834 30 -42.501 51s-14.5 46.167 -14.5 75.5c0 53.333 21.333 97.166 64 131.499s97.667 51.5 165 51.5c100 0 176 -34.333 228 -103z
M240.999 -64.998l82.001 -0.000976562v-64c0 -35.333 -5 -64.666 -15 -87.999c-14.667 -32 -38.334 -52.333 -71.001 -61v43c16.667 6 28 15 34 27s9 28.333 9 49h-39v94z" />
    <glyph glyph-name="scommaaccent" unicode="&#x219;" horiz-adv-x="444" 
d="M385 409l-44.9971 -38.002c-32 44 -75 66 -129 66c-30.667 0 -55.834 -6.5 -75.501 -19.5s-29.5 -32.167 -29.5 -57.5c0 -24 7.5 -41.833 22.5 -53.5s39.167 -21.167 72.5 -28.5l63 -15c46 -10 81.167 -24.667 105.5 -44s36.5 -48.666 36.5 -87.999
c0 -45.333 -17 -80.333 -51 -105s-78.667 -37.334 -134 -38.001c-44.667 0 -84.334 9.66699 -119.001 29s-60.334 42.666 -77.001 69.999l48 34c34 -54.667 85.667 -82 155 -82c38.667 0.666992 68 8.83398 88 24.501s30 36.834 30 63.501c0 24 -8.16699 41.5 -24.5 52.5
s-41.5 20.833 -75.5 29.5l-66 16c-46 10.667 -79.833 25.334 -101.5 44.001s-32.5 46.667 -32.5 84c0 41.333 15.833 74 47.5 98s71.167 36 118.5 36c72 0 129.667 -26 173 -78zM179.003 -65.002l82.001 -0.000976562v-64c0 -35.333 -5 -64.666 -15 -87.999
c-14.667 -32 -38.334 -52.333 -71.001 -61v43c16.667 6 28 15 34 27s9 28.333 9 49h-39v94z" />
    <glyph glyph-name="uni021A" unicode="&#x21a;" horiz-adv-x="518" 
d="M10 624v56h498v-56h-218v-624h-63v624h-217zM217 -65l82.001 -0.000976562v-64c0 -35.333 -5 -64.666 -15 -87.999c-14.667 -32 -38.334 -52.333 -71.001 -61v43c16.667 6 28 15 34 27s9 28.333 9 49h-39v94z" />
    <glyph glyph-name="uni021B" unicode="&#x21b;" horiz-adv-x="293" 
d="M6 430l0.000976562 46h96v178l59 13v-191h114v-46h-114v-322c0 -26.667 3 -44 9 -52c6.66699 -8.66699 19 -13 37 -13c25.333 0 48 5.33301 68 16v-53c-22.667 -10.667 -51.334 -16 -86.001 -16c-32 0 -54.667 7.66699 -68 23c-12.667 14.667 -19 39 -19 73v344h-96z
M122.001 -65l82.001 -0.000976562v-64c0 -35.333 -5 -64.666 -15 -87.999c-14.667 -32 -38.334 -52.333 -71.001 -61v43c16.667 6 28 15 34 27s9 28.333 9 49h-39v94z" />
    <glyph glyph-name="circumflex" unicode="&#x2c6;" horiz-adv-x="450" 
d="M154 552h-63l113 128h42l113 -128h-63l-70 75z" />
    <glyph glyph-name="caron" unicode="&#x2c7;" horiz-adv-x="450" 
d="M296 680h63l-113 -128h-42l-113 128h63l70 -75z" />
    <glyph glyph-name="breve" unicode="&#x2d8;" horiz-adv-x="450" 
d="M225 582c46.667 0 75.334 22.333 86.001 67h48c-4.66699 -36 -18.834 -63.667 -42.501 -83s-54.167 -29 -91.5 -29s-67.833 9.66699 -91.5 29s-37.834 47 -42.501 83h48c10.667 -44.667 39.334 -67 86.001 -67z" />
    <glyph glyph-name="dotaccent" unicode="&#x2d9;" horiz-adv-x="450" 
d="M191 579v91h68v-91h-68z" />
    <glyph glyph-name="ring" unicode="&#x2da;" horiz-adv-x="450" 
d="M143 618c0 22.667 8 41.834 24 57.501s35.333 23.5 58 23.5s42 -7.83301 58 -23.5s24 -34.834 24 -57.501s-8 -41.834 -24 -57.501s-35.333 -23.5 -58 -23.5s-42 7.83301 -58 23.5s-24 34.834 -24 57.501zM181 618c0 -12 4.33301 -22.167 13 -30.5s18.667 -12.5 30 -12.5
s21.333 4.16699 30 12.5s13 18.5 13 30.5s-4.33301 22.167 -13 30.5s-18.667 12.5 -30 12.5s-21.333 -4.16699 -30 -12.5s-13 -18.5 -13 -30.5z" />
    <glyph glyph-name="ogonek" unicode="&#x2db;" horiz-adv-x="450" 
d="M264 -174l17.999 -41c-15.333 -4 -30.666 -6 -45.999 -6c-30 0 -53.833 8.16699 -71.5 24.5s-26.5 38.5 -26.5 66.5c0 26 11 50.667 33 74s48 43.333 78 60h57l-7 -4c-74 -44.667 -111 -86.667 -111 -126c0 -34 18 -51 54 -51c8 0 15.333 1 22 3z" />
    <glyph glyph-name="tilde" unicode="&#x2dc;" horiz-adv-x="450" 
d="M341 666l40.999 -10c-6.66699 -14 -12 -24.667 -16 -32s-10 -16.333 -18 -27s-17 -18.5 -27 -23.5s-21 -7.5 -33 -7.5c-18 0 -43.667 8.66699 -77 26c-29.333 14.667 -47.666 22 -54.999 22c-22 0 -37.667 -15.667 -47 -47l-42 9c24 60 56 90 96 90
c15.333 0 37.666 -7.33301 66.999 -22c30.667 -15.333 51.334 -23 62.001 -23c22.667 0 39 15 49 45z" />
    <glyph glyph-name="hungarumlaut" unicode="&#x2dd;" horiz-adv-x="450" 
d="M252 544h-56l102 136h96zM106 544h-56l102 136h96z" />
    <glyph glyph-name="Delta" unicode="&#x394;" 
d="M90 0l265 679h59l265 -679h-589zM384 610l-215 -560h432z" />
    <glyph glyph-name="Omega" unicode="&#x3a9;" horiz-adv-x="771" 
d="M385 690c100.667 0 178.834 -29.499 234.501 -88.499s83.5 -135.5 83.5 -229.5c0 -68.667 -15 -130.167 -45 -184.5s-72.667 -98.166 -128 -131.499h179v-56h-248v61c116 67.333 174 170.666 174 309.999c0 78 -22.333 141.333 -67 190s-106 73 -184 73
c-76.667 0 -137.334 -24.333 -182.001 -73s-67 -112 -67 -190c0 -138.667 58 -242 174 -310v-61h-247v56h179c-115.333 72.667 -173 178 -173 316c0 93.333 27.833 169.666 83.5 228.999s133.5 89 233.5 89z" />
    <glyph glyph-name="mu" unicode="&#x3bc;" horiz-adv-x="522" 
d="M136 37v-226.002h-59v665h59v-272c0 -63.333 10 -106.666 30 -129.999c18.667 -20.667 47 -31 85 -31c45.333 0 79.166 15 101.499 45s33.5 65 33.5 105v283h59v-476h-59v78c-10 -25.333 -27.667 -46.666 -53 -63.999s-56.666 -26 -93.999 -26
c-21.333 0 -41.5 4.5 -60.5 13.5s-33.167 20.833 -42.5 35.5z" />
    <glyph glyph-name="pi" unicode="&#x3c0;" horiz-adv-x="571" 
d="M8 476l543.999 0.000976562v-49h-114v-318c0 -22.667 2.33301 -38.334 7 -47.001c6.66699 -12 18.334 -18 35.001 -18c21.333 0 45.333 8 72 24l2 -56c-29.333 -14.667 -59.333 -22 -90 -22c-31.333 0 -54.333 10.333 -69 31c-10.667 15.333 -16 40.333 -16 75v331h-216
v-427h-59v427h-96v49z" />
    <glyph glyph-name="Wgrave" unicode="&#x1e80;" horiz-adv-x="851" 
d="M478 753h-56l-142 136h96zM582 0l60.998 0.00195312l193 680h-65l-118 -429c-20.667 -70.667 -34 -120.334 -40 -149.001c-11.333 43.333 -21.666 80.666 -30.999 111.999l-132 466h-52l-121 -430c-24 -82 -38 -131.667 -42 -149l-6.5 25.5l-11.5 43l-12 43.5l-123 467
h-67l182 -680h67l118 406c16.667 58 30.334 108.333 41.001 151c12 -46 26 -95.667 42 -149z" />
    <glyph glyph-name="wgrave" unicode="&#x1e81;" horiz-adv-x="652" 
d="M358 476l86.999 -282.999c4.66699 -15.333 14.667 -51 30 -107h1l13 44.5c7.33301 25 13.333 46.833 18 65.5l78 280h59l-142 -476h-55l-92 313c-7.33301 23.333 -15.333 52.666 -24 87.999h-1c-3.33301 -13.333 -11.666 -43 -24.999 -89l-92 -312h-56l-149 476h63
l85 -283l31 -106h1c15.333 56 25.333 91.667 30 107l86 282h54zM188.999 680.001h94l94 -128h-56z" />
    <glyph glyph-name="Wacute" unicode="&#x1e82;" horiz-adv-x="851" 
d="M450 753h-56l102 136h96zM643 0l-60.999 -0.000976562l-117 408c-16 53.333 -30 103 -42 149c-10.667 -42.667 -24.334 -93 -41.001 -151l-118 -406h-67l-182 680h67l123 -467l12 -43.5l11.5 -43l6.5 -25.5c4 17.333 18 67 42 149l121 430h52l132 -466l31 -112
c6 28.667 19.333 78.334 40 149.001l118 429h65z" />
    <glyph glyph-name="wacute" unicode="&#x1e83;" horiz-adv-x="652" 
d="M358 476l86.999 -282.999c4.66699 -15.333 14.667 -51 30 -107h1l13 44.5c7.33301 25 13.333 46.833 18 65.5l78 280h59l-142 -476h-55l-92 313c-7.33301 23.333 -15.333 52.666 -24 87.999h-1c-3.33301 -13.333 -11.666 -43 -24.999 -89l-92 -312h-56l-149 476h63
l85 -283l31 -106h1c15.333 56 25.333 91.667 30 107l86 282h54zM393.999 680.001h94l-132 -128h-56z" />
    <glyph glyph-name="Wdieresis" unicode="&#x1e84;" horiz-adv-x="851" 
d="M643 0l-60.999 -0.000976562l-117 408c-16 53.333 -30 103 -42 149c-10.667 -42.667 -24.334 -93 -41.001 -151l-118 -406h-67l-182 680h67l123 -467l12 -43.5l11.5 -43l6.5 -25.5c4 17.333 18 67 42 149l121 430h52l132 -466l31 -112c6 28.667 19.333 78.334 40 149.001
l118 429h65zM299.001 767.999v91h62v-91h-62zM486.001 767.999v91h62v-91h-62z" />
    <glyph glyph-name="wdieresis" unicode="&#x1e85;" horiz-adv-x="652" 
d="M358 476l86.999 -282.999c4.66699 -15.333 14.667 -51 30 -107h1l13 44.5c7.33301 25 13.333 46.833 18 65.5l78 280h59l-142 -476h-55l-92 313c-7.33301 23.333 -15.333 52.666 -24 87.999h-1c-3.33301 -13.333 -11.666 -43 -24.999 -89l-92 -312h-56l-149 476h63
l85 -283l31 -106h1c15.333 56 25.333 91.667 30 107l86 282h54zM205.999 566.001v91h62v-91h-62zM392.999 566.001v91h62v-91h-62z" />
    <glyph glyph-name="Ygrave" unicode="&#x1ef2;" horiz-adv-x="549" 
d="M328 753h-56l-142 136h96zM300 279v-279h-63v279l-246 401h76l205 -337l212 337h74z" />
    <glyph glyph-name="ygrave" unicode="&#x1ef3;" horiz-adv-x="427" 
d="M68 476l113.001 -316.999l27 -79h1c8 23.333 18 50.666 30 81.999l121 314h61l-213 -541c-16.667 -43.333 -30 -73.333 -40 -90c-19.333 -31.333 -48.333 -47 -87 -47c-23.333 0 -44 5.33301 -62 16v59c20 -13.333 40 -20 60 -20c19.333 0 33.666 7 42.999 21
c7.33301 10 16 28.667 26 56l26 70l-170 476h64zM78.001 680.001h94l94 -128h-56z" />
    <glyph glyph-name="endash" unicode="&#x2013;" horiz-adv-x="648" 
d="M578 298v-56h-508v56h508z" />
    <glyph glyph-name="emdash" unicode="&#x2014;" horiz-adv-x="771" 
d="M735 298v-56h-699v56h699z" />
    <glyph glyph-name="quoteleft" unicode="&#x2018;" horiz-adv-x="170" 
d="M124 437l-82.001 0.00195312v106c0 35.333 5 64.666 15 87.999c14.667 32 38.334 52.333 71.001 61v-43c-28.667 -10.667 -43 -40.334 -43 -89.001v-9h39v-114z" />
    <glyph glyph-name="quoteright" unicode="&#x2019;" horiz-adv-x="170" 
d="M46 680l82.001 -0.000976562v-106c0 -36 -5 -65.333 -15 -88c-14.667 -32 -38.334 -52.333 -71.001 -61v43c28.667 10.667 43 40.334 43 89.001v9h-39v114z" />
    <glyph glyph-name="quotesinglbase" unicode="&#x201a;" horiz-adv-x="309" 
d="M47 114l82.001 -0.000976562v-106c0 -36 -5 -65.333 -15 -88c-14.667 -32 -38.334 -52.333 -71.001 -61v43c28.667 10.667 43 40.334 43 89.001v9h-39v114zM179.001 113.999l82.001 -0.000976562v-106c0 -36 -5 -65.333 -15 -88c-14.667 -32 -38.334 -52.333 -71.001 -61
v43c28.667 10.667 43 40.334 43 89.001v9h-39v114z" />
    <glyph glyph-name="quotedblleft" unicode="&#x201c;" horiz-adv-x="303" 
d="M260 437l-82.001 0.00195312v106c0 35.333 5 64.666 15 87.999c14.667 32 38.334 52.333 71.001 61v-43c-28.667 -10.667 -43 -40.334 -43 -89.001v-9h39v-114zM127.999 437.002l-82.001 0.00195312v106c0 35.333 5 64.666 15 87.999c14.667 32 38.334 52.333 71.001 61
v-43c-28.667 -10.667 -43 -40.334 -43 -89.001v-9h39v-114z" />
    <glyph glyph-name="quotedblright" unicode="&#x201d;" horiz-adv-x="303" 
d="M45 680l82.001 -0.000976562v-106c0 -36 -5 -65.333 -15 -88c-14.667 -32 -38.334 -52.333 -71.001 -61v43c28.667 10.667 43 40.334 43 89.001v9h-39v114zM177.001 679.999l82.001 -0.000976562v-106c0 -36 -5 -65.333 -15 -88c-14.667 -32 -38.334 -52.333 -71.001 -61
v43c28.667 10.667 43 40.334 43 89.001v9h-39v114z" />
    <glyph glyph-name="quotedblbase" unicode="&#x201e;" horiz-adv-x="176" 
d="M46 114l82.001 -0.000976562v-106c0 -36 -5 -65.333 -15 -88c-14.667 -32 -38.334 -52.333 -71.001 -61v43c28.667 10.667 43 40.334 43 89.001v9h-39v114z" />
    <glyph glyph-name="dagger" unicode="&#x2020;" horiz-adv-x="466" 
d="M425 452h-162v-452h-61v452h-161v57h161v171h61v-171h162v-57z" />
    <glyph glyph-name="daggerdbl" unicode="&#x2021;" horiz-adv-x="466" 
d="M263 229h162v-57h-162v-172h-61v172h-161v57h161v222h-161v57h161v172h61v-172h162v-57h-162v-222z" />
    <glyph glyph-name="bullet" unicode="&#x2022;" horiz-adv-x="324" 
d="M45 343c0 32.667 11.333 60.334 34 83.001s50.334 34 83.001 34s60.334 -11.333 83.001 -34s34 -50.334 34 -83.001s-11.333 -60.334 -34 -83.001s-50.334 -34 -83.001 -34s-60.334 11.333 -83.001 34s-34 50.334 -34 83.001z" />
    <glyph glyph-name="ellipsis" unicode="&#x2026;" horiz-adv-x="988" 
d="M120 114h78v-114h-78v114zM455 114h78v-114h-78v114zM790 114h78v-114h-78v114z" />
    <glyph glyph-name="perthousand" unicode="&#x2030;" horiz-adv-x="1270" 
d="M336 470c0 -58 -12.6709 -107.331 -38.0039 -147.998s-62.666 -61 -111.999 -61c-35.333 0 -64.666 10.5 -87.999 31.5s-39.333 46.5 -48 76.5s-13 63.667 -13 101c0 28 2.5 54.167 7.5 78.5s12.833 47.666 23.5 69.999s26.334 39.833 47.001 52.5s45 19 73 19
c28.667 0 53.334 -6.66699 74.001 -20s36 -31.333 46 -54s17.167 -45.834 21.5 -69.501s6.5 -49.167 6.5 -76.5zM281.996 469.002c0 53.333 -7.83301 95.833 -23.5 127.5s-39.5 47.5 -71.5 47.5c-31.333 0 -55 -15.667 -71 -47s-24 -71.333 -24 -120
c0 -48 7.83301 -88 23.5 -120s39.5 -48 71.5 -48c33.333 0 57.5 14.833 72.5 44.5s22.5 68.167 22.5 115.5zM641.996 680.002l-354 -680h-58l356 680h56zM842.996 197.002c0 -58 -12.6709 -107.331 -38.0039 -147.998s-62.666 -61 -111.999 -61
c-35.333 0 -64.666 10.5 -87.999 31.5s-39.333 46.5 -48 76.5s-13 63.667 -13 101c0 28 2.5 54.167 7.5 78.5s12.833 47.666 23.5 69.999s26.334 39.833 47.001 52.5s45 19 73 19c28.667 0 53.334 -6.66699 74.001 -20s36 -31.333 46 -54s17.167 -45.834 21.5 -69.501
s6.5 -49.167 6.5 -76.5zM788.992 196.004c0 53.333 -7.83301 95.833 -23.5 127.5s-39.5 47.5 -71.5 47.5c-31.333 0 -55 -15.667 -71 -47s-24 -71.333 -24 -120c0 -48 7.83301 -88 23.5 -120s39.5 -48 71.5 -48c33.333 0 57.5 14.833 72.5 44.5s22.5 68.167 22.5 115.5z
M1221.99 197.004c0 -58 -12.6709 -107.331 -38.0039 -147.998s-62.666 -61 -111.999 -61c-35.333 0 -64.666 10.5 -87.999 31.5s-39.333 46.5 -48 76.5s-13 63.667 -13 101c0 28 2.5 54.167 7.5 78.5s12.833 47.666 23.5 69.999s26.334 39.833 47.001 52.5s45 19 73 19
c28.667 0 53.334 -6.66699 74.001 -20s36 -31.333 46 -54s17.167 -45.834 21.5 -69.501s6.5 -49.167 6.5 -76.5zM1167.99 196.006c0 53.333 -7.83301 95.833 -23.5 127.5s-39.5 47.5 -71.5 47.5c-31.333 0 -55 -15.667 -71 -47s-24 -71.333 -24 -120
c0 -48 7.83301 -88 23.5 -120s39.5 -48 71.5 -48c33.333 0 57.5 14.833 72.5 44.5s22.5 68.167 22.5 115.5z" />
    <glyph glyph-name="guilsinglleft" unicode="&#x2039;" horiz-adv-x="218" 
d="M44 252v73l134 137v-76l-100 -96l100 -98v-80z" />
    <glyph glyph-name="guilsinglright" unicode="&#x203a;" horiz-adv-x="219" 
d="M174 325v-73l-134 -140v80l100 98l-100 96v76z" />
    <glyph glyph-name="fraction" unicode="&#x2044;" horiz-adv-x="460" 
d="M447 679h63l-496 -679h-64z" />
    <glyph glyph-name="Euro" unicode="&#x20ac;" horiz-adv-x="590" 
d="M500 177l53.998 -24.999c-37.333 -109.333 -108.666 -164 -213.999 -164c-69.333 0 -123.833 23.167 -163.5 69.5s-65.167 106.166 -76.5 179.499h-74l18 56h52c-0.666992 8.66699 -1 23.667 -1 45c0 19.333 0.333008 33.333 1 42h-70l18 56h56
c11.333 77.333 37.5 139 78.5 185s94.833 69 161.5 69c51.333 0 95.333 -14.167 132 -42.5s63.334 -66.833 80.001 -115.5l-54 -36c-30 94 -82.667 141 -158 141c-47.333 0 -85.5 -18.167 -114.5 -54.5s-48.167 -85.166 -57.5 -146.499h262l-18 -56h-249
c-1.33301 -8 -2 -21.333 -2 -40c0 -22.667 0.666992 -38.334 2 -47.001h223l-18 -56h-200c18.667 -130 76 -195 172 -195c78.667 0 132 45 160 135z" />
    <glyph glyph-name="trademark" unicode="&#x2122;" horiz-adv-x="851" 
d="M717 584l-111 -341.999h-43l-115 330c-6 16 -11.667 36 -17 60c0.666992 -10.667 1 -33.334 1 -68.001v-322h-50v438h77l110 -318l17 -53l5.5 21.5c3 11.667 6.16699 22.167 9.5 31.5l103 318h79v-438h-50v322c0 38 0.333008 63.333 1 76zM18 633.001v47h326v-47h-138
v-390h-50v390h-138z" />
    <glyph glyph-name="uni2126" unicode="&#x2126;" horiz-adv-x="771" 
d="M385 690c100.667 0 178.834 -29.499 234.501 -88.499s83.5 -135.5 83.5 -229.5c0 -68.667 -15 -130.167 -45 -184.5s-72.667 -98.166 -128 -131.499h179v-56h-248v61c116 67.333 174 170.666 174 309.999c0 78 -22.333 141.333 -67 190s-106 73 -184 73
c-76.667 0 -137.334 -24.333 -182.001 -73s-67 -112 -67 -190c0 -138.667 58 -242 174 -310v-61h-247v56h179c-115.333 72.667 -173 178 -173 316c0 93.333 27.833 169.666 83.5 228.999s133.5 89 233.5 89z" />
    <glyph glyph-name="arrowleft" unicode="&#x2190;" horiz-adv-x="812" 
d="M277 476h75l-216 -213h626v-50h-625l215 -213h-75l-237 238z" />
    <glyph glyph-name="arrowup" unicode="&#x2191;" horiz-adv-x="576" 
d="M50 415v70l238 237l238 -237v-70l-209 208v-623h-58v625z" />
    <glyph glyph-name="arrowright" unicode="&#x2192;" horiz-adv-x="812" 
d="M460 476h75l237 -238l-237 -238h-75l215 213h-625v50h626z" />
    <glyph glyph-name="arrowdown" unicode="&#x2193;" horiz-adv-x="576" 
d="M50 227v70l209 -210v625h58v-623l209 208v-70l-238 -237z" />
    <glyph glyph-name="uni2196" unicode="&#x2196;" horiz-adv-x="633" 
d="M613 29l-39 -39l-444 444l1 -298l-54 49l1 336h336l49 -49l-295 2z" />
    <glyph glyph-name="uni2197" unicode="&#x2197;" horiz-adv-x="633" 
d="M170 472l49 49h336l1 -336l-54 -49l1 298l-444 -444l-39 39l445 445z" />
    <glyph glyph-name="uni2198" unicode="&#x2198;" horiz-adv-x="633" 
d="M219 0l-49 49l295 -2l-445 445l39 39l444 -444l-1 298l54 -49l-1 -336h-336z" />
    <glyph glyph-name="uni2199" unicode="&#x2199;" horiz-adv-x="633" 
d="M574 531l39 -39l-445 -445l295 2l-49 -49h-336l-1 336l54 49l-1 -298z" />
    <glyph glyph-name="uni21A4" unicode="&#x21a4;" horiz-adv-x="839" 
d="M277 476h75l-216 -213h567v213h59v-476h-59v213h-566l215 -213h-75l-237 238z" />
    <glyph glyph-name="uni21A5" unicode="&#x21a5;" horiz-adv-x="596" 
d="M60 415v70l238 237l238 -237v-70l-209 208v-573h209v-50h-476v50h209v575z" />
    <glyph glyph-name="uni21A6" unicode="&#x21a6;" horiz-adv-x="839" 
d="M487 476h75l237 -238l-237 -238h-75l215 213h-566v-213h-59v476h59v-213h567z" />
    <glyph glyph-name="uni21A7" unicode="&#x21a7;" horiz-adv-x="596" 
d="M60 227v70l209 -210v575h-209v50h476v-50h-209v-573l209 208v-70l-238 -237z" />
    <glyph glyph-name="uni21B0" unicode="&#x21b0;" horiz-adv-x="839" 
d="M762 263v-263h-59v213h-568l217 -213h-75l-237 238l237 238h75l-215 -213h625z" />
    <glyph glyph-name="uni21B1" unicode="&#x21b1;" horiz-adv-x="839" 
d="M77 0v263h625l-215 213h75l237 -238l-237 -238h-75l217 213h-568v-213h-59z" />
    <glyph glyph-name="uni21B2" unicode="&#x21b2;" horiz-adv-x="839" 
d="M762 476v-263h-625l215 -213h-75l-237 238l237 238h75l-217 -213h568v213h59z" />
    <glyph glyph-name="uni21B3" unicode="&#x21b3;" horiz-adv-x="839" 
d="M77 213v263h59v-213h568l-217 213h75l237 -238l-237 -238h-75l215 213h-625z" />
    <glyph glyph-name="uni21B4" unicode="&#x21b4;" horiz-adv-x="596" 
d="M60 227v70l209 -210v575h-209v50h267v-623l209 208v-70l-238 -237z" />
    <glyph glyph-name="carriagereturn" unicode="&#x21b5;" horiz-adv-x="839" 
d="M762 476v-263h-625l215 -213h-75l-237 238l237 238h75l-217 -213h568v213h59z" />
    <glyph glyph-name="partialdiff" unicode="&#x2202;" horiz-adv-x="559" 
d="M192 621l-22.998 55c26 9.33301 53.667 14 83 14c81.333 0 142.333 -30.833 183 -92.5s61 -149.167 61 -262.5c0 -117.333 -20.667 -204.5 -62 -261.5s-99.333 -85.5 -174 -85.5c-38.667 0 -72.5 6.66699 -101.5 20s-51.833 31.5 -68.5 54.5s-29 48.167 -37 75.5
s-12 56.333 -12 87c0 69.333 20.167 123.666 60.5 162.999s90.5 59 150.5 59c39.333 0 74.666 -8.66699 105.999 -26s55.666 -39.666 72.999 -66.999c-5.33301 185.333 -64.333 278 -177 278c-23.333 0 -44 -3.66699 -62 -11zM260.002 42
c53.333 0 94.001 20.999 122.001 62.999s43.667 101.333 47 178c-10.667 28.667 -31.667 54 -63 76s-66.333 33 -105 33c-44.667 0 -81.834 -14.667 -111.501 -44s-44.5 -71.666 -44.5 -126.999c0 -54 14.667 -97.333 44 -130s66.333 -49 111 -49z" />
    <glyph glyph-name="uni2206" unicode="&#x2206;" 
d="M90 0l265 679h59l265 -679h-589zM384 610l-215 -560h432z" />
    <glyph glyph-name="product" unicode="&#x220f;" horiz-adv-x="785" 
d="M0 680h785v-56h-107v-814h-63v814h-445v-814h-63v814h-107v56z" />
    <glyph glyph-name="summation" unicode="&#x2211;" horiz-adv-x="632" 
d="M60 -142l247 382l-249 388v52h530v-56h-451l240 -381l-242 -377h453v-56h-528v48z" />
    <glyph glyph-name="minus" unicode="&#x2212;" 
d="M723 319v-57h-673v57h673z" />
    <glyph glyph-name="uni2219" unicode="&#x2219;" horiz-adv-x="168" 
d="M45 377h78v-114h-78v114z" />
    <glyph glyph-name="radical" unicode="&#x221a;" 
d="M546 680l56 -0.000976562l-182 -683h-64l-147 439h-93v40h149l96 -301c16 -47.333 25.333 -75.666 28 -84.999h1c4.66699 19.333 12 47.333 22 84z" />
    <glyph glyph-name="infinity" unicode="&#x221e;" horiz-adv-x="945" 
d="M885 349c0 -45.333 -14.1621 -83.668 -42.4951 -115.001s-68.833 -47 -121.5 -47c-30.667 0 -63.334 8 -98.001 24s-61 30.833 -79 44.5l-77 61.5l-35.5 -27.5l-41.5 -31.5c-7.33301 -5.33301 -20.333 -14.166 -39 -26.499s-33.834 -20.833 -45.501 -25.5
s-25.834 -9.33398 -42.501 -14.001s-32.667 -7 -48 -7c-52.667 0 -91.667 15.167 -117 45.5s-38 67.833 -38 112.5c0 48 14 86.667 42 116s67.333 44 118 44c26 0 53.667 -6.33301 83 -19s54.333 -26 75 -40s52 -37 94 -69c8.66699 6 23.667 17 45 33
s38.166 28.167 50.499 36.5s28 17.833 47 28.5s37.667 18.334 56 23.001s37.166 7 56.499 7c51.333 0 90.5 -14.667 117.5 -44s40.5 -66 40.5 -110zM827.005 344.998c0 34.667 -9.66699 61.333 -29 80s-45.333 28 -78 28c-11.333 0 -23.5 -2 -36.5 -6s-24.333 -8 -34 -12
s-22.5 -10.833 -38.5 -20.5s-27 -16.667 -33 -21l-35.5 -25.5l-30.5 -22l29.5 -21.5l35.5 -25.5c6.66699 -4.66699 18.167 -12 34.5 -22s29.5 -17.167 39.5 -21.5s22 -8.5 36 -12.5s27 -6 39 -6c32 0 56.833 10 74.5 30s26.5 46 26.5 78zM221.005 236.997
c14 0 28.332 2.16602 42.999 6.49902s30.667 11.5 48 21.5s30.5 17.833 39.5 23.5s23.5 15.834 43.5 30.501l34 25c-1.33301 0.666992 -13.333 9 -36 25s-38.167 26.667 -46.5 32s-21.666 13.333 -39.999 24s-34.333 18 -48 22s-26.834 6 -39.501 6
c-32 0 -57.167 -10 -75.5 -30s-27.5 -45.667 -27.5 -77c0 -34 9.33301 -60.667 28 -80s44.334 -29 77.001 -29z" />
    <glyph glyph-name="uni2224" unicode="&#x2224;" horiz-adv-x="168" 
d="M45 377h78v-114h-78v114z" />
    <glyph glyph-name="logicaland" unicode="&#x2227;" horiz-adv-x="168" 
d="M45 377h78v-114h-78v114z" />
    <glyph glyph-name="integral" unicode="&#x222b;" horiz-adv-x="469" 
d="M144 -57l106.002 630.999c6.66699 42 19.667 72.167 39 90.5s46.333 27.5 81 27.5c27.333 0 59 -5.33301 95 -16l-14 -52c-35.333 7.33301 -59.333 11 -72 11c-20 0 -35.667 -6 -47 -18c-10.667 -11.333 -18.334 -32.666 -23.001 -63.999l-108 -633
c-7.33301 -42 -21 -73 -41 -93c-19.333 -19.333 -47.333 -29 -84 -29c-30 0 -61 4 -93 12l19 52c27.333 -6 49.666 -9 66.999 -9c21.333 0 37 4.66699 47 14c12 10.667 21.333 36 28 76z" />
    <glyph glyph-name="approxequal" unicode="&#x2248;" 
d="M587 437l29 -48.001c-41.333 -51.333 -83.333 -77 -126 -77c-24.667 0 -57.334 10 -98.001 30l-41 20c-28 12.667 -52 19 -72 19c-18 0 -32.333 -4.16699 -43 -12.5s-26.667 -25.166 -48 -50.499l-31 46c34.667 54 75.334 81 122.001 81c24 0 56.667 -9.33301 98 -28
l47 -22c30.667 -14 52.667 -21 66 -21c30.667 0 63 21 97 63zM587 249.999l29 -48.001c-41.333 -51.333 -83.333 -77 -126 -77c-24.667 0 -57.334 10 -98.001 30l-41 20c-28 12.667 -52 19 -72 19c-18 0 -32.333 -4.16699 -43 -12.5s-26.667 -25.166 -48 -50.499l-31 46
c34.667 54 75.334 81 122.001 81c24 0 56.667 -9.33301 98 -28l47 -22c30.667 -14 52.667 -21 66 -21c30.667 0 63 21 97 63z" />
    <glyph glyph-name="notequal" unicode="&#x2260;" 
d="M723 406v-57h-297l-62 -118h359v-56h-388l-92 -175h-63l92 175h-222v56h252l62 118h-314v57h344l100 189h62l-100 -189h267z" />
    <glyph glyph-name="lessequal" unicode="&#x2264;" 
d="M708 56v-56h-643v56h643zM708 154v-63l-643 262v66l643 266v-63l-579 -235z" />
    <glyph glyph-name="greaterequal" unicode="&#x2265;" 
d="M65 0v56h643v-56h-643zM65 91v63l579 233l-579 235v63l643 -266v-66z" />
    <glyph glyph-name="dotmath" unicode="&#x22c5;" horiz-adv-x="168" 
d="M45 377h78v-114h-78v114z" />
    <glyph glyph-name="lozenge" unicode="&#x25ca;" 
d="M378 65l157 272l-157 276l-156 -276zM353 681h51l201 -344l-201 -340h-51l-201 340z" />
    <glyph glyph-name="uni2B0F" unicode="&#x2b0f;" horiz-adv-x="596" 
d="M60 415v70l238 237l238 -237v-70l-209 208v-623h-267v50h209v575z" />
    <glyph glyph-name="uni2B10" unicode="&#x2b10;" horiz-adv-x="596" 
d="M536 297v-70l-238 -237l-238 237v70l209 -208v623h267v-50h-209v-575z" />
    <glyph glyph-name="uni2B11" unicode="&#x2b11;" horiz-adv-x="596" 
d="M536 0h-267v623l-209 -208v70l238 237l238 -237v-70l-209 210v-575h209v-50z" />
    <glyph glyph-name="apple" unicode="&#xf8ff;" horiz-adv-x="500" 
d="M450 54h-400v395h400v-395zM388 394h-276v-285h276v285z" />
    <glyph glyph-name=".null" horiz-adv-x="0" 
 />
    <glyph glyph-name="nonmarkingreturn" horiz-adv-x="333" 
 />
    <glyph glyph-name="arrowleft.salt" horiz-adv-x="940" 
d="M890 368v-56h-748l317 -312h-81l-340 340l340 340h81l-317 -312h748z" />
    <glyph glyph-name="arrowup.salt" horiz-adv-x="840" 
d="M80 347v79l340 340l340 -340v-79l-309 313v-746h-62v746z" />
    <glyph glyph-name="arrowright.salt" horiz-adv-x="940" 
d="M50 312v56h748l-317 312h81l340 -340l-340 -340h-81l317 312h-748z" />
    <glyph glyph-name="arrowdown.salt" horiz-adv-x="840" 
d="M80 244v79l309 -313v746h62v-746l309 313v-79l-340 -340z" />
    <glyph glyph-name="uni2196.salt" horiz-adv-x="747" 
d="M715 70l-40 -40l-538 535l3 -441l-58 55v481h482l55 -53l-446 3z" />
    <glyph glyph-name="uni2197.salt" horiz-adv-x="747" 
d="M128 597l55 53h482v-481l-58 -55l2 441l-537 -535l-40 40l541 540z" />
    <glyph glyph-name="uni2198.salt" horiz-adv-x="747" 
d="M183 30l-55 53l445 -3l-541 540l40 40l537 -535l-2 441l58 -55v-481h-482z" />
    <glyph glyph-name="uni2199.salt" horiz-adv-x="747" 
d="M675 660l40 -40l-542 -540l446 3l-55 -53h-482v481l58 55l-3 -441z" />
    <glyph glyph-name="uni21A4.salt" horiz-adv-x="972" 
d="M890 0h-62v312h-686l317 -312h-81l-340 340l340 340h81l-317 -312h686v312h62v-680z" />
    <glyph glyph-name="uni21A5.salt" horiz-adv-x="840" 
d="M80 347v79l340 340l340 -340v-79l-309 313v-691h309v-55h-680v55h309v691z" />
    <glyph glyph-name="uni21A6.salt" horiz-adv-x="972" 
d="M144 0h-62v680h62v-312h686l-317 312h81l340 -340l-340 -340h-81l317 312h-686v-312z" />
    <glyph glyph-name="uni21A7.salt" horiz-adv-x="840" 
d="M80 244v79l309 -313v691h-309v55h680v-55h-309v-691l309 313v-79l-340 -340z" />
    <glyph glyph-name="uni21B0.salt" horiz-adv-x="972" 
d="M459 0h-81l-340 340l340 340h81l-316 -312h747v-368h-62v312h-685z" />
    <glyph glyph-name="uni21B1.salt" horiz-adv-x="972" 
d="M594 0h-81l316 312h-685v-312h-62v368h747l-316 312h81l340 -340z" />
    <glyph glyph-name="uni21B2.salt" horiz-adv-x="972" 
d="M378 680h81l-317 -312h686v312h62v-368h-748l317 -312h-81l-340 340z" />
    <glyph glyph-name="uni21B3.salt" horiz-adv-x="972" 
d="M513 680h81l340 -340l-340 -340h-81l316 312h-747v368h62v-312h685z" />
    <glyph glyph-name="uni21B4.salt" horiz-adv-x="840" 
d="M80 244v79l309 -313v691h-309v55h371v-746l309 313v-79l-340 -340z" />
    <glyph glyph-name="carriagereturn.salt" horiz-adv-x="972" 
d="M378 680h81l-317 -312h686v312h62v-368h-748l317 -312h-81l-340 340z" />
    <glyph glyph-name="uni2B0F.salt" horiz-adv-x="840" 
d="M80 347v79l340 340l340 -340v-79l-309 313v-746h-371v55h309v691z" />
    <glyph glyph-name="uni2B11.salt" horiz-adv-x="840" 
d="M760 426v-79l-309 313v-691h309v-55h-371v746l-309 -313v79l340 340z" />
    <glyph glyph-name="uni2B10.salt" horiz-adv-x="840" 
d="M760 323v-79l-340 -340l-340 340v79l309 -313v746h371v-55h-309v-691z" />
    <glyph glyph-name="caron.alt" horiz-adv-x="450" 
d="M227 552h-48l49 128h82z" />
    <glyph glyph-name="commaaccent" horiz-adv-x="170" 
d="M46 -65l82.001 -0.000976562v-64c0 -35.333 -5 -64.666 -15 -87.999c-14.667 -32 -38.334 -52.333 -71.001 -61v43c16.667 6 28 15 34 27s9 28.333 9 49h-39v94z" />
    <glyph glyph-name="commaturn" horiz-adv-x="170" 
d="M124 586h-82.001v64c0 36 5 65.333 15 88c14.667 32 38.334 52.333 71.001 61v-43c-16.667 -6 -28 -15 -34 -27s-9 -28.333 -9 -49h39v-94z" />
    <glyph glyph-name="zero.tlfslash" horiz-adv-x="590" 
d="M295 -12c-59.333 0 -108.667 16.999 -148 50.999s-66.833 76.333 -82.5 127s-23.5 108.334 -23.5 173.001c0 104.667 21.667 189.667 65 255s106.333 98 189 98s145.667 -32.833 189 -98.5s65 -150.5 65 -254.5c0 -38 -2.83301 -73.667 -8.5 -107
s-15 -65.166 -28 -95.499s-29 -56.333 -48 -78s-43 -38.834 -72 -51.501s-61.5 -19 -97.5 -19zM439.999 539.999l-258 -453c29.333 -29.333 67 -44 113 -44c34.667 0 64.5 8.16699 89.5 24.5s44.167 38.833 57.5 67.5s23 59.834 29 93.501s9 71.167 9 112.5
c0 81.333 -13.333 147.666 -40 198.999zM145.999 138.999l257 453.999c-30 30 -66 45 -108 45c-60 0 -106 -27.667 -138 -83s-48 -126.666 -48 -213.999c0 -84.667 12.333 -152 37 -202z" />
    <glyph glyph-name="zero.plfslash" horiz-adv-x="618" 
d="M309 -12c-59.333 0 -108.667 16.999 -148 50.999s-66.833 76.333 -82.5 127s-23.5 108.334 -23.5 173.001c0 104.667 21.667 189.667 65 255s106.333 98 189 98s145.667 -32.833 189 -98.5s65 -150.5 65 -254.5c0 -38 -2.83301 -73.667 -8.5 -107
s-15 -65.166 -28 -95.499s-29 -56.333 -48 -78s-43 -38.834 -72 -51.501s-61.5 -19 -97.5 -19zM453.999 539.999l-258 -453c29.333 -29.333 67 -44 113 -44c34.667 0 64.5 8.16699 89.5 24.5s44.167 38.833 57.5 67.5s23 59.834 29 93.501s9 71.167 9 112.5
c0 81.333 -13.333 147.666 -40 198.999zM159.999 138.999l257 453.999c-30 30 -66 45 -108 45c-60 0 -106 -27.667 -138 -83s-48 -126.666 -48 -213.999c0 -84.667 12.333 -152 37 -202z" />
    <glyph glyph-name="zero.plf" horiz-adv-x="618" 
d="M309 638c-60 0 -106 -27.668 -138 -83.001s-48 -126.666 -48 -213.999c0 -40.667 3 -78 9 -112s15.833 -65.333 29.5 -94s33 -51.167 58 -67.5s54.833 -24.5 89.5 -24.5s64.5 8.16699 89.5 24.5s44.167 38.833 57.5 67.5s23 59.834 29 93.501s9 71.167 9 112.5
c0 87.333 -15.833 158.666 -47.5 213.999s-77.5 83 -137.5 83zM309 -12.001c-59.333 0 -108.667 16.999 -148 50.999s-66.833 76.333 -82.5 127s-23.5 108.334 -23.5 173.001c0 104.667 21.667 189.667 65 255s106.333 98 189 98s145.667 -32.833 189 -98.5
s65 -150.5 65 -254.5c0 -38 -2.83301 -73.667 -8.5 -107s-15 -65.166 -28 -95.499s-29 -56.333 -48 -78s-43 -38.834 -72 -51.501s-61.5 -19 -97.5 -19z" />
    <glyph glyph-name="one.plf" horiz-adv-x="358" 
d="M253 0h-61.002v523c-27.333 -27.333 -75.666 -41 -144.999 -41c-14 0 -24.667 0.333008 -32 1v53h16c50.667 0 89.334 9.66699 116.001 29c32.667 24 50 62.667 52 116h54v-681z" />
    <glyph glyph-name="two.plf" horiz-adv-x="502" 
d="M125 369l-72.001 11.001c-15.333 32.667 -23 68.667 -23 108c0 58 19.833 106.5 59.5 145.5s92.167 58.5 157.5 58.5c71.333 0 126.166 -20.833 164.499 -62.5s57.5 -94.5 57.5 -158.5c0 -34 -5.16699 -66 -15.5 -96s-26.166 -58.167 -47.499 -84.5
s-41.166 -48.333 -59.499 -66s-42.5 -38.5 -72.5 -62.5c-63.333 -50.667 -113 -86.334 -149 -107.001h347v-55h-434v55c59.333 39.333 137.666 99.666 234.999 180.999c43.333 39.333 76 76 98 110s33 75 33 123c0 52 -15.167 93.333 -45.5 124s-68.166 46 -113.499 46
c-48 0 -85.333 -14.667 -112 -44s-40 -65.666 -40 -108.999c0 -48 10.667 -87 32 -117z" />
    <glyph glyph-name="three.plf" horiz-adv-x="539" 
d="M107 504l-58.001 21.002c0 14.667 3.83301 30.834 11.5 48.501s19.167 35.667 34.5 54s37.5 33.666 66.5 45.999s62.167 18.5 99.5 18.5c66.667 0 118.334 -16.833 155.001 -50.5s55 -75.5 55 -125.5c0 -43.333 -11.833 -78 -35.5 -104s-54.834 -42 -93.501 -48
c40.667 -8 75.334 -26.5 104.001 -55.5s43 -68.5 43 -118.5c0 -59.333 -21 -107.833 -63 -145.5s-97.667 -56.5 -167 -56.5c-66 0 -119.333 17 -160 51s-62 80.667 -64 140l60 19c2.66699 -54.667 19.167 -94.334 49.5 -119.001s68.833 -37 115.5 -37
c45.333 0 83.833 13.667 115.5 41s47.5 63.333 47.5 108c0 58.667 -24.333 98.667 -73 120c-26.667 13.333 -76.667 20 -150 20h-51v53h43c70 0 120.667 7.66699 152 23c42.667 19.333 64 55 64 107c0 35.333 -13 65 -39 89s-62 36 -108 36
c-47.333 0 -84.333 -12.833 -111 -38.5s-41 -57.834 -43 -96.501z" />
    <glyph glyph-name="four.plf" horiz-adv-x="507" 
d="M384 183v-183h-61v183h-313v43l318 458h56v-446h124v-55h-124zM82 238h241v226c0 64.667 1.33301 110 4 136h-1c-11.333 -24 -39 -68 -83 -132z" />
    <glyph glyph-name="five.plf" horiz-adv-x="545" 
d="M140 625l-14.999 -235c12.667 19.333 32.5 36 59.5 50s58.5 21 94.5 21c64 0 116.5 -20.833 157.5 -62.5s61.5 -97.5 61.5 -167.5s-20.333 -128 -61 -174s-97.334 -69 -170.001 -69c-58.667 0 -107.667 14.5 -147 43.5s-64.333 70.167 -75 123.5l56 32
c6 -38.667 23 -72.5 51 -101.5s66.333 -43.5 115 -43.5c50 0 89.833 17 119.5 51s44.5 80 44.5 138c0 50.667 -14 92.5 -42 125.5s-67.667 49.5 -119 49.5c-44 0 -79 -12 -105 -36s-42.333 -56.333 -49 -97l-54 12l22 395h368v-55h-312z" />
    <glyph glyph-name="six.plf" horiz-adv-x="538" 
d="M492 535l-58.0029 -22c-2.66699 10.667 -5.16699 19.667 -7.5 27s-7.16602 18 -14.499 32s-15.666 25.167 -24.999 33.5s-22.333 16 -39 23s-35.334 10.5 -56.001 10.5c-59.333 0 -104.166 -24.833 -134.499 -74.5s-47.166 -118.5 -50.499 -206.5
c16.667 26 41.834 47.667 75.501 65s71.167 26 112.5 26c60.667 0 111.667 -19.667 153 -59s62 -93.666 62 -162.999c0 -65.333 -20.333 -121.5 -61 -168.5s-95.334 -70.5 -164.001 -70.5c-74.667 0 -134 29 -178 87s-66 145.333 -66 262c0 112.667 21.833 200 65.5 262
s106.5 93 188.5 93c32.667 0 61.667 -5.16699 87 -15.5s45.333 -24 60 -41s26 -33.833 34 -50.5s13.333 -33.334 16 -50.001zM107.997 286c3.33301 -76 20.333 -135.668 51 -179.001s72.667 -65 126 -65c45.333 0 83.333 16.333 114 49s46 76 46 130
c0 55.333 -15.5 98 -46.5 128s-69.167 45 -114.5 45c-40 0 -76.667 -11.167 -110 -33.5s-55.333 -47.166 -66 -74.499z" />
    <glyph glyph-name="seven.plf" horiz-adv-x="456" 
d="M471 680v-51.001c-62.667 -96.667 -111.667 -188.667 -147 -276c-42.667 -104.667 -71.667 -222.334 -87 -353.001h-69c12 120.667 44 241.334 96 362.001c37.333 86.667 83.333 174.334 138 263.001h-330v-155h-57v210h456z" />
    <glyph glyph-name="eight.plf" horiz-adv-x="548" 
d="M274 692c68 0 121.167 -16.334 159.5 -49.001s57.5 -74.667 57.5 -126c0 -37.333 -11 -69.666 -33 -96.999s-49.333 -46 -82 -56c89.333 -32.667 134 -91.334 134 -176.001c0 -56 -20 -103.333 -60 -142s-98.667 -58 -176 -58c-78 0 -136.833 19.333 -176.5 58
s-59.5 86 -59.5 142c0 48 13.333 86.333 40 115s58 49.334 94 62.001c-33.333 9.33301 -60.833 27.5 -82.5 54.5s-32.5 59.5 -32.5 97.5c0 51.333 19.167 93.333 57.5 126s91.5 49 159.5 49zM274 41.999c54 0 95.667 13.833 125 41.5s44 62.5 44 104.5
c0 44 -15.167 79.167 -45.5 105.5s-71.5 39.5 -123.5 39.5s-93.333 -13.167 -124 -39.5s-46 -61.5 -46 -105.5c0 -42 14.833 -76.833 44.5 -104.5s71.5 -41.5 125.5 -41.5zM274 386.999c48 0 85.502 12.167 112.502 36.5s40.5 54.5 40.5 90.5c0 38 -13.833 68.5 -41.5 91.5
s-64.834 34.5 -111.501 34.5s-83.834 -11.5 -111.501 -34.5s-41.5 -53.5 -41.5 -91.5c0 -36 13.5 -66.167 40.5 -90.5s64.5 -36.5 112.5 -36.5z" />
    <glyph glyph-name="nine.plf" horiz-adv-x="544" 
d="M52 144l58.002 22c3.33301 -14 7 -25.833 11 -35.5s11 -22.5 21 -38.5s24.5 -28.5 43.5 -37.5s41.167 -13.5 66.5 -13.5c59.333 0 104.166 24.833 134.499 74.5s47.166 118.5 50.499 206.5c-16.667 -26 -41.834 -47.667 -75.501 -65s-71.167 -26 -112.5 -26
c-60.667 0 -111.667 19.667 -153 59s-62 93.666 -62 162.999c0 65.333 20.333 121.5 61 168.5s95.334 70.5 164.001 70.5c74.667 0 134 -29 178 -87s66 -145.333 66 -262c0 -112.667 -21.833 -200.167 -65.5 -262.5s-106.5 -93.5 -188.5 -93.5
c-32.667 0 -61.667 5.16699 -87 15.5s-45.333 24 -60 41s-26 33.833 -34 50.5s-13.333 33.334 -16 50.001zM436.002 396c-3.33301 75.333 -20.333 134.667 -51 178s-72.667 65 -126 65c-45.333 0 -83.333 -16.333 -114 -49s-46 -76 -46 -130c0 -55.333 15.5 -98 46.5 -128
s69.167 -45 114.5 -45c40 0 76.667 11.167 110 33.5s55.333 47.5 66 75.5z" />
    <glyph glyph-name="at.case" horiz-adv-x="863" 
d="M530 286v79c-4.66699 -1.33301 -18 -4 -40 -8l-69 -13c-64 -12.667 -96 -39.667 -96 -81c0 -25.333 7.83301 -45 23.5 -59s37.167 -21 64.5 -21c34 0 62 8.66699 84 26s33 43 33 77zM615 183c30.667 0 57.668 19.668 81.001 59.001s35 90.333 35 153
c0 81.333 -25.5 150.666 -76.5 207.999s-118.833 86 -203.5 86c-95.333 0 -173.333 -31.833 -234 -95.5s-91 -146.834 -91 -249.501c0 -102 31.167 -184.5 93.5 -247.5s141.5 -94.5 237.5 -94.5c112 0 204.333 46 277 138l28 -40c-75.333 -96.667 -177 -145 -305 -145
c-116 0 -209.5 35.833 -280.5 107.5s-106.5 165.5 -106.5 281.5c0 116.667 35.667 211 107 283s162.666 108 273.999 108c68.667 0 128.834 -16 180.501 -48s89.834 -72.833 114.501 -122.5s37 -103.5 37 -161.5c0 -84 -17.5 -149.5 -52.5 -196.5s-76.5 -70.5 -124.5 -70.5
c-44 0 -68.667 19.333 -74 58c-9.33301 -16.667 -25.5 -30.834 -48.5 -42.501s-48.833 -17.5 -77.5 -17.5c-42.667 0 -76.834 11.333 -102.501 34s-38.5 54.334 -38.5 95.001c0 37.333 12.167 65.5 36.5 84.5s59.833 32.833 106.5 41.5l104 20
c7.33301 1.33301 12.166 3 14.499 5s3.5 6.66699 3.5 14v13c0 28.667 -7.5 49.834 -22.5 63.501s-40.5 20.5 -76.5 20.5c-66 0 -99.667 -33.333 -101 -100l-54 13c-0.666992 42 13.833 75.167 43.5 99.5s68.167 36.5 115.5 36.5c48 0 84.833 -9.5 110.5 -28.5
s38.5 -54.167 38.5 -105.5v-201c0 -18.667 1.83301 -32.667 5.5 -42s12.167 -14 25.5 -14z" />
    <glyph glyph-name="bar.case" horiz-adv-x="219" 
d="M139 760v-838h-59v838h59z" />
    <glyph glyph-name="plus.case" 
d="M416 309v-269h-57v269h-265v56h265v268h57v-268h264v-56h-264z" />
    <glyph glyph-name="minus.case" 
d="M723 369v-57h-673v57h673z" />
    <glyph glyph-name="plusminus.case" 
d="M414 373v-216h-57v216h-265v56h265v214h57v-214h264v-56h-264zM678 107v-57h-586v57h586z" />
    <glyph glyph-name="multiply.case" 
d="M652 552l-228 -228l228 -228l-40 -40l-228 228l-228 -228l-40 40l228 228l-228 228l40 40l228 -228l228 228z" />
    <glyph glyph-name="divide.case" 
d="M723 367v-57h-673v57h673zM347 576h78v-100h-78v100zM347 201h78v-101h-78v101z" />
    <glyph glyph-name="equal.case" 
d="M723 271v-56h-673v56h673zM723 446v-57h-673v57h673z" />
    <glyph glyph-name="notequal.case" 
d="M723 446v-57h-297l-62 -118h359v-56h-388l-92 -175h-63l92 175h-222v56h252l62 118h-314v57h344l100 189h62l-100 -189h267z" />
    <glyph glyph-name="approxequal.case" horiz-adv-x="572" 
d="M487 477l29 -48.001c-41.333 -51.333 -83.333 -77 -126 -77c-24.667 0 -57.334 10 -98.001 30l-41 20c-28 12.667 -52 19 -72 19c-18 0 -32.333 -4.16699 -43 -12.5s-26.667 -25.166 -48 -50.499l-31 46c34.667 54 75.334 81 122.001 81c24 0 56.667 -9.33301 98 -28
l47 -22c30.667 -14 52.667 -21 66 -21c30.667 0 63 21 97 63zM487 289.999l29 -48.001c-41.333 -51.333 -83.333 -77 -126 -77c-24.667 0 -57.334 10 -98.001 30l-41 20c-28 12.667 -52 19 -72 19c-18 0 -32.333 -4.16699 -43 -12.5s-26.667 -25.166 -48 -50.499l-31 46
c34.667 54 75.334 81 122.001 81c24 0 56.667 -9.33301 98 -28l47 -22c30.667 -14 52.667 -21 66 -21c30.667 0 63 21 97 63z" />
    <glyph glyph-name="logicalnot.case" horiz-adv-x="568" 
d="M470 454v-233h-59v180h-337v53h396z" />
    <glyph glyph-name="parenleft.case" horiz-adv-x="227" 
d="M221 -81l-49 -9.00195c-83.333 132 -125 271.333 -125 418c0 147.333 41.333 288 124 422l50 -7c-74.667 -127.333 -112 -264.666 -112 -411.999s37.333 -284.666 112 -411.999z" />
    <glyph glyph-name="parenright.case" horiz-adv-x="227" 
d="M54 -90l-49 9.00195c74.667 127.333 112 264.666 112 411.999s-37.333 284.666 -112 411.999l50 7c82.667 -134 124 -274.667 124 -422c0 -146.667 -41.667 -286 -125 -418z" />
    <glyph glyph-name="hyphen.case" horiz-adv-x="357" 
d="M317 348v-59h-277v59h277z" />
    <glyph glyph-name="bracketleft.case" horiz-adv-x="258" 
d="M238 -40v-48h-168v838h168v-48h-109v-742h109z" />
    <glyph glyph-name="bracketright.case" horiz-adv-x="258" 
d="M20 -88v48h109v742h-109v48h168v-838h-168z" />
    <glyph glyph-name="braceleft.case" horiz-adv-x="224" 
d="M10 316v39c30 7.33301 48.833 20 56.5 38s11.5 45.333 11.5 82v162c0 44.667 9 74.667 27 90s47.667 23 89 23h20v-43c-32.667 0 -53.5 -6.5 -62.5 -19.5s-13.5 -40.5 -13.5 -82.5v-133c0 -44 -5.5 -76 -16.5 -96s-31.833 -33.333 -62.5 -40v-1
c30.667 -6.66699 51.5 -20 62.5 -40s16.5 -52 16.5 -96v-142c0 -42 4.5 -69.5 13.5 -82.5s29.833 -19.5 62.5 -19.5v-43h-20c-41.333 0 -71 7.66699 -89 23s-27 45.333 -27 90v171c0 18.667 -0.5 33 -1.5 43s-3.5 21 -7.5 33s-10.833 21.333 -20.5 28s-22.5 12 -38.5 16z
" />
    <glyph glyph-name="braceright.case" horiz-adv-x="224" 
d="M214 355v-39c-30 -7.33301 -48.833 -20 -56.5 -38s-11.5 -45.333 -11.5 -82v-171c0 -44.667 -9 -74.667 -27 -90s-47.667 -23 -89 -23h-20v43c32.667 0 53.5 6.5 62.5 19.5s13.5 40.5 13.5 82.5v142c0 44 5.5 76 16.5 96s31.833 33.333 62.5 40v1
c-30.667 6.66699 -51.5 20 -62.5 40s-16.5 52 -16.5 96v133c0 42 -4.5 69.5 -13.5 82.5s-29.833 19.5 -62.5 19.5v43h20c41.333 0 71 -7.66699 89 -23s27 -45.333 27 -90v-162c0 -18.667 0.5 -33 1.5 -43s3.5 -21 7.5 -33s10.833 -21.333 20.5 -28s22.5 -12 38.5 -16z" />
    <glyph glyph-name="guillemotleft.case" horiz-adv-x="377" 
d="M203 282v73l134 137v-74l-102 -98l102 -100v-78zM44 282v73l134 137v-74l-102 -98l102 -100v-78z" />
    <glyph glyph-name="uni00AD.case" horiz-adv-x="357" 
d="M317 348v-59h-277v59h277z" />
    <glyph glyph-name="guillemotright.case" horiz-adv-x="377" 
d="M173 355v-73l-133 -140v78l101 100l-101 98v74zM332 355v-73l-133 -140v78l101 100l-101 98v74z" />
    <glyph glyph-name="endash.case" horiz-adv-x="648" 
d="M578 348v-56h-508v56h508z" />
    <glyph glyph-name="emdash.case" horiz-adv-x="771" 
d="M735 348v-56h-699v56h699z" />
    <glyph glyph-name="guilsinglleft.case" horiz-adv-x="218" 
d="M44 282v73l134 137v-76l-100 -96l100 -98v-80z" />
    <glyph glyph-name="guilsinglright.case" horiz-adv-x="219" 
d="M174 355v-73l-134 -140v80l100 98l-100 96v76z" />
    <glyph glyph-name="brokenbar.case" horiz-adv-x="219" 
d="M139 680v-323h-59v323h59zM139 165v-323h-59v323h59z" />
    <glyph glyph-name="one.salt" horiz-adv-x="590" 
d="M364 681l-0.00195312 -626h177v-55h-415v55h177v468c-27.333 -27.333 -75.666 -41 -144.999 -41c-14 0 -24.667 0.333008 -32 1v53h16c50.667 0 89.334 9.66699 116.001 29c32.667 24 50 62.667 52 116h54z" />
    <glyph glyph-name="one.plfsalt" horiz-adv-x="425" 
d="M278 681l-0.00195312 -626h177v-55h-415v55h177v468c-27.333 -27.333 -75.666 -41 -144.999 -41c-14 0 -24.667 0.333008 -32 1v53h16c50.667 0 89.334 9.66699 116.001 29c32.667 24 50 62.667 52 116h54z" />
    <glyph glyph-name="G.salt" horiz-adv-x="662" 
d="M335 -12c-90.667 0 -161.161 31.4971 -211.494 94.4971s-75.5 148.833 -75.5 257.5c0 108 25.5 193.667 76.5 257s121.167 95 210.5 95c65.333 0 118.666 -15.667 159.999 -47s72 -70.333 92 -117l-56 -35c-16.667 42.667 -41.334 77.334 -74.001 104.001
s-73.334 40 -122.001 40c-68 0 -121.833 -27.167 -161.5 -81.5s-59.5 -126.166 -59.5 -215.499s19.833 -161 59.5 -215s93.5 -81 161.5 -81c65.333 0 116.666 22.667 153.999 68s58.666 104 63.999 176h-268v57h335v-9c0 -37.333 -3 -70.666 -9 -99.999
c-14.667 -76.667 -45.834 -137.167 -93.501 -181.5s-108.5 -66.5 -182.5 -66.5z" />
    <glyph glyph-name="Gcircumflex.salt" horiz-adv-x="662" 
d="M416 753l-79 81l-79 -81h-61l119 136h42l119 -136h-61zM335 -12c-90.667 0 -161.161 31.4971 -211.494 94.4971s-75.5 148.833 -75.5 257.5c0 108 25.5 193.667 76.5 257s121.167 95 210.5 95c65.333 0 118.666 -15.667 159.999 -47s72 -70.333 92 -117l-56 -35
c-16.667 42.667 -41.334 77.334 -74.001 104.001s-73.334 40 -122.001 40c-68 0 -121.833 -27.167 -161.5 -81.5s-59.5 -126.166 -59.5 -215.499s19.833 -161 59.5 -215s93.5 -81 161.5 -81c65.333 0 116.666 22.667 153.999 68s58.666 104 63.999 176h-268v57h335v-9
c0 -37.333 -3 -70.666 -9 -99.999c-14.667 -76.667 -45.834 -137.167 -93.501 -181.5s-108.5 -66.5 -182.5 -66.5z" />
    <glyph glyph-name="Gcommaaccent.salt" horiz-adv-x="662" 
d="M335 -12c-90.667 0 -161.161 31.4971 -211.494 94.4971s-75.5 148.833 -75.5 257.5c0 108 25.5 193.667 76.5 257s121.167 95 210.5 95c65.333 0 118.666 -15.667 159.999 -47s72 -70.333 92 -117l-56 -35c-16.667 42.667 -41.334 77.334 -74.001 104.001
s-73.334 40 -122.001 40c-68 0 -121.833 -27.167 -161.5 -81.5s-59.5 -126.166 -59.5 -215.499s19.833 -161 59.5 -215s93.5 -81 161.5 -81c65.333 0 116.666 22.667 153.999 68s58.666 104 63.999 176h-268v57h335v-9c0 -37.333 -3 -70.666 -9 -99.999
c-14.667 -76.667 -45.834 -137.167 -93.501 -181.5s-108.5 -66.5 -182.5 -66.5zM299.006 -65.0029l82.001 -0.000976562v-64c0 -35.333 -5 -64.666 -15 -87.999c-14.667 -32 -38.334 -52.333 -71.001 -61v43c16.667 6 28 15 34 27s9 28.333 9 49h-39v94z" />
    <glyph glyph-name="Gdotaccent.salt" horiz-adv-x="662" 
d="M335 -12c-90.667 0 -161.161 31.4971 -211.494 94.4971s-75.5 148.833 -75.5 257.5c0 108 25.5 193.667 76.5 257s121.167 95 210.5 95c65.333 0 118.666 -15.667 159.999 -47s72 -70.333 92 -117l-56 -35c-16.667 42.667 -41.334 77.334 -74.001 104.001
s-73.334 40 -122.001 40c-68 0 -121.833 -27.167 -161.5 -81.5s-59.5 -126.166 -59.5 -215.499s19.833 -161 59.5 -215s93.5 -81 161.5 -81c65.333 0 116.666 22.667 153.999 68s58.666 104 63.999 176h-268v57h335v-9c0 -37.333 -3 -70.666 -9 -99.999
c-14.667 -76.667 -45.834 -137.167 -93.501 -181.5s-108.5 -66.5 -182.5 -66.5zM307.006 767.997v91h68v-91h-68z" />
    <glyph glyph-name="Gbreve.salt" horiz-adv-x="662" 
d="M335 -12c-90.667 0 -161.161 31.4971 -211.494 94.4971s-75.5 148.833 -75.5 257.5c0 108 25.5 193.667 76.5 257s121.167 95 210.5 95c65.333 0 118.666 -15.667 159.999 -47s72 -70.333 92 -117l-56 -35c-16.667 42.667 -41.334 77.334 -74.001 104.001
s-73.334 40 -122.001 40c-68 0 -121.833 -27.167 -161.5 -81.5s-59.5 -126.166 -59.5 -215.499s19.833 -161 59.5 -215s93.5 -81 161.5 -81c65.333 0 116.666 22.667 153.999 68s58.666 104 63.999 176h-268v57h335v-9c0 -37.333 -3 -70.666 -9 -99.999
c-14.667 -76.667 -45.834 -137.167 -93.501 -181.5s-108.5 -66.5 -182.5 -66.5zM337.006 782.997c46.667 0 75.334 22.333 86.001 67h48c-4.66699 -36 -18.834 -63.667 -42.501 -83s-54.167 -29 -91.5 -29s-67.833 9.66699 -91.5 29s-37.834 47 -42.501 83h48
c10.667 -44.667 39.334 -67 86.001 -67z" />
    <glyph glyph-name="I.salt" horiz-adv-x="251" 
d="M226 0h-201v54h69v572h-69v54h201v-54h-69v-572h69v-54z" />
    <glyph glyph-name="Iacute.salt" horiz-adv-x="251" 
d="M142 753h-56l102 136h96zM226 0h-201v54h69v572h-69v54h201v-54h-69v-572h69v-54z" />
    <glyph glyph-name="Icircumflex.salt" horiz-adv-x="251" 
d="M205 753l-79 81l-79 -81h-61l119 136h42l119 -136h-61zM226 0h-201v54h69v572h-69v54h201v-54h-69v-572h69v-54z" />
    <glyph glyph-name="Idieresis.salt" horiz-adv-x="251" 
d="M1 768v91h62v-91h-62zM188 768v91h62v-91h-62zM226 0h-201v54h69v572h-69v54h201v-54h-69v-572h69v-54z" />
    <glyph glyph-name="Igrave.salt" horiz-adv-x="251" 
d="M171 753h-56l-142 136h96zM226 0h-201v54h69v572h-69v54h201v-54h-69v-572h69v-54z" />
    <glyph glyph-name="Itilde.salt" horiz-adv-x="251" 
d="M226 0h-201v54h69v572h-69v54h201v-54h-69v-572h69v-54zM242 868l40.999 -10c-6.66699 -14 -12 -24.667 -16 -32s-10 -16.333 -18 -27s-17 -18.5 -27 -23.5s-21 -7.5 -33 -7.5c-18 0 -43.667 8.66699 -77 26c-29.333 14.667 -47.666 22 -54.999 22
c-22 0 -37.667 -15.667 -47 -47l-42 9c24 60 56 90 96 90c15.333 0 37.666 -7.33301 66.999 -22c30.667 -15.333 51.334 -23 62.001 -23c22.667 0 39 15 49 45z" />
    <glyph glyph-name="Ibreve.salt" horiz-adv-x="251" 
d="M226 0h-201v54h69v572h-69v54h201v-54h-69v-572h69v-54zM126 783c46.667 0 75.334 22.333 86.001 67h48c-4.66699 -36 -18.834 -63.667 -42.501 -83s-54.167 -29 -91.5 -29s-67.833 9.66699 -91.5 29s-37.834 47 -42.501 83h48c10.667 -44.667 39.334 -67 86.001 -67z
" />
    <glyph glyph-name="Iogonek.salt" horiz-adv-x="251" 
d="M226 0h-47.001c-74 -44.667 -111 -86.667 -111 -126c0 -34 18 -51 54 -51c8 0 15.333 1 22 3l18 -41c-15.333 -4 -30.666 -6 -45.999 -6c-30 0 -53.833 8.16699 -71.5 24.5s-26.5 38.5 -26.5 66.5c0 46 34.667 89.333 104 130h-97v54h69v572h-69v54h201v-54h-69v-572h69
v-54z" />
    <glyph glyph-name="Idotaccent.salt" horiz-adv-x="251" 
d="M226 0h-201v54h69v572h-69v54h201v-54h-69v-572h69v-54zM92 768v91h68v-91h-68z" />
    <glyph glyph-name="IJ.salt" horiz-adv-x="676" 
d="M226 0h-201v54h69v572h-69v54h201v-54h-69v-572h69v-54zM539 624l-221 -0.000976562v56h283v-494c0 -68.667 -18.667 -119 -56 -151c-37.333 -31.333 -93 -47 -167 -47c-23.333 0 -48.333 2.66699 -75 8v56c20 -6.66699 47.667 -10 83 -10c66 0 109.333 17.667 130 53
c15.333 26.667 23 76.334 23 149.001v380z" />
    <glyph glyph-name="Imacron.salt" horiz-adv-x="251" 
d="M226 0h-201v54h69v572h-69v54h201v-54h-69v-572h69v-54zM-10 778v53h271v-53h-271z" />
    <glyph glyph-name="J.salt" horiz-adv-x="418" 
d="M281 624l-221 -0.000976562v56h283v-494c0 -68.667 -18.667 -119 -56 -151c-37.333 -31.333 -93 -47 -167 -47c-23.333 0 -48.333 2.66699 -75 8v56c20 -6.66699 47.667 -10 83 -10c66 0 109.333 17.667 130 53c15.333 26.667 23 76.334 23 149.001v380z" />
    <glyph glyph-name="Jcircumflex.salt" horiz-adv-x="418" 
d="M281 624l-221 -0.000976562v56h283v-494c0 -68.667 -18.667 -119 -56 -151c-37.333 -31.333 -93 -47 -167 -47c-23.333 0 -48.333 2.66699 -75 8v56c20 -6.66699 47.667 -10 83 -10c66 0 109.333 17.667 130 53c15.333 26.667 23 76.334 23 149.001v380zM388 752.999
l-79 81l-79 -81h-61l119 136h42l119 -136h-61z" />
    <glyph glyph-name="g.salt" horiz-adv-x="481" 
d="M475 526l0.00292969 -54c-6 2 -13.667 3 -23 3c-15.333 0 -28.833 -4.5 -40.5 -13.5s-17.834 -22.5 -18.501 -40.5v-5c17.333 -27.333 26 -57.333 26 -90c-0.666992 -52 -17.834 -92.333 -51.501 -121s-76.834 -43 -129.501 -43c-30.667 0 -60 5 -88 15
c-17.333 -8.66699 -26 -22.334 -26 -41.001c0 -15.333 5.33301 -26.833 16 -34.5s29 -11.5 55 -11.5h75c28 0 52.5 -1.66699 73.5 -5s41.667 -9.33301 62 -18s36 -22.5 47 -41.5s16.5 -42.5 16.5 -70.5c0 -48.667 -20.167 -86.334 -60.5 -113.001s-91.5 -40 -153.5 -40
c-64 0 -115.5 11.667 -154.5 35s-58.5 58.333 -58.5 105c0 30 9.33301 54 28 72s40.334 30 65.001 36v1c-44 7.33301 -66 31.333 -66 72c0 32.667 18.333 56.334 55 71.001c-22.667 16.667 -39.834 34.334 -51.501 53.001s-17.5 45.667 -17.5 81c0 46 17.333 84 52 114
s78.667 45 132 45c49.333 0 90 -12.333 122 -37c3.33301 25.333 13.666 44.5 30.999 57.5s38.333 19.5 63 19.5c8.66699 0 15.334 -0.333008 20.001 -1zM101.003 -51c0 -32 13.667 -56.4971 41 -73.4971s65 -25.5 113 -25.5s85.667 8.66699 113 26s41 42.666 41 75.999
c0 19.333 -4 35.166 -12 47.499s-20.333 21.166 -37 26.499s-32.667 8.83301 -48 10.5s-35.333 2.5 -60 2.5h-65c-57.333 -10.667 -86 -40.667 -86 -90zM360.003 325.003c0 36.667 -11.168 65.1689 -33.501 85.502s-51.5 30.5 -87.5 30.5c-36.667 0 -66.667 -10.333 -90 -31
s-35 -49 -35 -85c0 -36.667 11.167 -65.334 33.5 -86.001s52.5 -31 90.5 -31c37.333 0 66.833 10.167 88.5 30.5s32.834 49.166 33.501 86.499z" />
    <glyph glyph-name="gbreve.salt" horiz-adv-x="481" 
d="M475 526l0.00292969 -54c-6 2 -13.667 3 -23 3c-15.333 0 -28.833 -4.5 -40.5 -13.5s-17.834 -22.5 -18.501 -40.5v-5c17.333 -27.333 26 -57.333 26 -90c-0.666992 -52 -17.834 -92.333 -51.501 -121s-76.834 -43 -129.501 -43c-30.667 0 -60 5 -88 15
c-17.333 -8.66699 -26 -22.334 -26 -41.001c0 -15.333 5.33301 -26.833 16 -34.5s29 -11.5 55 -11.5h75c28 0 52.5 -1.66699 73.5 -5s41.667 -9.33301 62 -18s36 -22.5 47 -41.5s16.5 -42.5 16.5 -70.5c0 -48.667 -20.167 -86.334 -60.5 -113.001s-91.5 -40 -153.5 -40
c-64 0 -115.5 11.667 -154.5 35s-58.5 58.333 -58.5 105c0 30 9.33301 54 28 72s40.334 30 65.001 36v1c-44 7.33301 -66 31.333 -66 72c0 32.667 18.333 56.334 55 71.001c-22.667 16.667 -39.834 34.334 -51.501 53.001s-17.5 45.667 -17.5 81c0 46 17.333 84 52 114
s78.667 45 132 45c49.333 0 90 -12.333 122 -37c3.33301 25.333 13.666 44.5 30.999 57.5s38.333 19.5 63 19.5c8.66699 0 15.334 -0.333008 20.001 -1zM101.003 -51c0 -32 13.667 -56.4971 41 -73.4971s65 -25.5 113 -25.5s85.667 8.66699 113 26s41 42.666 41 75.999
c0 19.333 -4 35.166 -12 47.499s-20.333 21.166 -37 26.499s-32.667 8.83301 -48 10.5s-35.333 2.5 -60 2.5h-65c-57.333 -10.667 -86 -40.667 -86 -90zM360.003 325.003c0 36.667 -11.168 65.1689 -33.501 85.502s-51.5 30.5 -87.5 30.5c-36.667 0 -66.667 -10.333 -90 -31
s-35 -49 -35 -85c0 -36.667 11.167 -65.334 33.5 -86.001s52.5 -31 90.5 -31c37.333 0 66.833 10.167 88.5 30.5s32.834 49.166 33.501 86.499zM247.002 582.005c46.667 0 75.334 22.333 86.001 67h48c-4.66699 -36 -18.834 -63.667 -42.501 -83s-54.167 -29 -91.5 -29
s-67.833 9.66699 -91.5 29s-37.834 47 -42.501 83h48c10.667 -44.667 39.334 -67 86.001 -67z" />
    </font>
</defs>
</svg>
