<?xml version="1.0" standalone="no"?>
<!DOCTYPE svg PUBLIC "-//W3C//DTD SVG 1.1//EN" "http://www.w3.org/Graphics/SVG/1.1/DTD/svg11.dtd" >
<svg>
<metadata>
Created by FontForge 20090914 at Sat Jul 16 16:23:38 2022
 By www-data
&#194;&#169; 2010 Klim Type Foundry. All rights reserved.
</metadata>
<defs>
<font id="TiemposHeadline-Semibold" horiz-adv-x="500" >
  <font-face 
    font-family="Tiempos Headline Semibold"
    font-weight="600"
    font-stretch="normal"
    units-per-em="1000"
    panose-1="2 2 7 3 6 3 3 6 4 3"
    ascent="783"
    descent="-217"
    x-height="533.998"
    cap-height="702.001"
    bbox="-104 -240 1288 1043"
    underline-thickness="30"
    underline-position="-100"
    unicode-range="U+0020-U+FB04"
  />
<missing-glyph horiz-adv-x="960" 
d="M90 0v780h780v-780h-780zM480 345l-279 -279h558zM201 714l279 -279l279 279h-558zM435 390l-275 275v-550zM525 390l275 -275v550z" />
    <glyph glyph-name="ff" unicode="ff" horiz-adv-x="689" 
d="M81 539l0.000976562 14c0 70.667 21.667 124.167 65 160.5s98.666 54.5 165.999 54.5c60 0 110.333 -15.333 151 -46c40 40.667 95.333 61 166 61c94.667 0 142 -30.333 142 -91c0 -27.333 -11.667 -47 -35 -59h-83c2.66699 10.667 4 25 4 43c0 45.333 -13 68 -39 68
c-32.667 0 -49 -26.667 -49 -80v-130h120v-50h-120v-395c0 -20 5.66699 -33 17 -39s33.333 -10.667 66 -14v-36h-301v36c22.667 1.33301 38 4.5 46 9.5s12 15.5 12 31.5v407h-167v-407c0 -16 3.83301 -26.5 11.5 -31.5s23.167 -8.16699 46.5 -9.5v-36h-278v36
c22.667 1.33301 38.167 4.5 46.5 9.5s12.5 15.5 12.5 31.5v407h-72v33zM409.001 570c0 32 4.66699 61 14 87c-20.667 48.667 -54 73 -100 73c-54 0 -81 -39.333 -81 -118v-78h167v36z" />
    <glyph glyph-name="fi" unicode="fi" horiz-adv-x="644" 
d="M569 544v-467c0 -16 4.16699 -26.5 12.5 -31.5s24.166 -8.16699 47.499 -9.5v-36h-278v36c22.667 1.33301 38 4.5 46 9.5s12 15.5 12 31.5v407h-167v-407c0 -16 3.83301 -26.5 11.5 -31.5s23.167 -8.16699 46.5 -9.5v-36h-278v36c22.667 1.33301 38.167 4.5 46.5 9.5
s12.5 15.5 12.5 31.5v407h-72v33l72 22v19c0 73.333 23.333 129.166 70 167.499s106.334 57.5 179.001 57.5c54 0 95.667 -8.16699 125 -24.5s44 -39.166 44 -68.499c0 -28 -12 -47.667 -36 -59h-94c2.66699 10.667 4 24.667 4 42c0 47.333 -19 71 -57 71
c-49.333 0 -74 -41.667 -74 -125v-85h255l38 10h34z" />
    <glyph glyph-name="fl" unicode="fl" horiz-adv-x="644" 
d="M569 783l0.000976562 -706c0 -16 4.16699 -26.5 12.5 -31.5s24.166 -8.16699 47.499 -9.5v-36h-278v36c22.667 1.33301 38 4.5 46 9.5s12 15.5 12 31.5v592c-20 50.667 -51 76 -93 76c-49.333 0 -74 -37.333 -74 -112v-99h102v-50h-102v-407
c0 -16 3.83301 -26.5 11.5 -31.5s23.167 -8.16699 46.5 -9.5v-36h-278v36c22.667 1.33301 38.167 4.5 46.5 9.5s12.5 15.5 12.5 31.5v407h-72v33l72 22v31c0 70 20.167 123 60.5 159s94.5 54 162.5 54c50 0 92.667 -10 128 -30l111 30h26z" />
    <glyph glyph-name="ffi" unicode="ffi" horiz-adv-x="971" 
d="M81 539l0.00195312 13.999c0 70.667 21.667 124.167 65 160.5s98.666 54.5 165.999 54.5c64.667 0 117 -17 157 -51c44.667 44 107.334 66 188.001 66c54 0 95.667 -8.16699 125 -24.5s44 -39.166 44 -68.499c0 -28 -12 -47.667 -36 -59h-94
c2.66699 10.667 4 24.667 4 42c0 47.333 -19 71 -57 71c-49.333 0 -74 -41.667 -74 -125v-85h255l38 10h34v-467c0 -16 4.16699 -26.5 12.5 -31.5s24.166 -8.16699 47.499 -9.5v-36h-278v36c23.333 1.33301 38.833 4.5 46.5 9.5s11.5 15.5 11.5 31.5v407h-167v-407
c0 -16 4.16699 -26.5 12.5 -31.5s24.166 -8.16699 47.499 -9.5v-36h-278v36c22.667 1.33301 38 4.5 46 9.5s12 15.5 12 31.5v407h-167v-407c0 -16 3.83301 -26.5 11.5 -31.5s23.167 -8.16699 46.5 -9.5v-36h-278v36c22.667 1.33301 38.167 4.5 46.5 9.5s12.5 15.5 12.5 31.5
v407h-72v33zM409.002 557.999c0 33.333 5.33301 64 16 92c-20 53.333 -54 80 -102 80c-54 0 -81 -39.333 -81 -118v-78h167v24z" />
    <glyph glyph-name="ffl" unicode="ffl" horiz-adv-x="971" 
d="M312 768c60 0 110.002 -15.333 150.002 -46c40 40.667 96.333 61 169 61c50 0 92.667 -10 128 -30l111 30h26v-706c0 -16 4.16699 -26.5 12.5 -31.5s24.166 -8.16699 47.499 -9.5v-36h-278v36c23.333 1.33301 38.833 4.5 46.5 9.5s11.5 15.5 11.5 31.5v592
c-20 50.667 -51 76 -93 76c-49.333 0 -74 -37.333 -74 -112v-99h102v-50h-102v-407c0 -16 3.83301 -26.5 11.5 -31.5s23.167 -8.16699 46.5 -9.5v-36h-276v36c22.667 1.33301 38 4.5 46 9.5s12 15.5 12 31.5v407h-167v-407c0 -16 3.83301 -26.5 11.5 -31.5
s23.167 -8.16699 46.5 -9.5v-36h-278v36c22.667 1.33301 38.167 4.5 46.5 9.5s12.5 15.5 12.5 31.5v407h-72v33l72 22v14c0 70.667 21.667 124.167 65 160.5s98.666 54.5 165.999 54.5zM409.002 534v36c0 32 4.66699 61 14 87c-20.667 48.667 -54 73 -100 73
c-54 0 -81 -39.333 -81 -118v-78h167z" />
    <glyph glyph-name="f_b" unicode="fb" horiz-adv-x="960" 
d="M409 60l0.000976562 609c-20 50.667 -51 76 -93 76c-49.333 0 -74 -37.333 -74 -112v-99h102v-50h-102v-407c0 -16 3.83301 -26.5 11.5 -31.5s23.167 -8.16699 46.5 -9.5v-36h-278v36c22.667 1.33301 38.167 4.5 46.5 9.5s12.5 15.5 12.5 31.5v407h-72v33l72 22v31
c0 70 20.167 123 60.5 159s94.5 54 162.5 54c50 0 92.667 -10 128 -30l111 30h26v-334c42 63.333 98 95 168 95c61.333 0 110.166 -21.333 146.499 -64s54.5 -102.667 54.5 -180c0 -96.667 -26.833 -172.5 -80.5 -227.5s-122.167 -82.5 -205.5 -82.5
c-104.667 0 -185.667 23.333 -243 70zM651.001 32c38.667 0 69 20.332 91 60.999s33 92.334 33 155.001c0 64 -11.333 113.333 -34 148s-55 52 -97 52c-27.333 0 -52.333 -8.66699 -75 -26v-280c0 -73.333 27.333 -110 82 -110z" />
    <glyph glyph-name="f_f_b" unicode="ffb" horiz-adv-x="1287" 
d="M736 60l0.00195312 609c-20 50.667 -51 76 -93 76c-49.333 0 -74 -37.333 -74 -112v-99h102v-50h-102v-407c0 -16 3.83301 -26.5 11.5 -31.5s23.167 -8.16699 46.5 -9.5v-36h-276v36c22.667 1.33301 38 4.5 46 9.5s12 15.5 12 31.5v407h-167v-407
c0 -16 3.83301 -26.5 11.5 -31.5s23.167 -8.16699 46.5 -9.5v-36h-278v36c22.667 1.33301 38.167 4.5 46.5 9.5s12.5 15.5 12.5 31.5v407h-72v33l72 22v14c0 70.667 21.667 124.167 65 160.5s98.666 54.5 165.999 54.5c60 0 110 -15.333 150 -46c40 40.667 96.333 61 169 61
c50 0 92.667 -10 128 -30l111 30h26v-334c43.333 63.333 99.333 95 168 95c61.333 0 110.166 -21.333 146.499 -64s54.5 -102.667 54.5 -180c0 -96.667 -26.833 -172.5 -80.5 -227.5s-122.167 -82.5 -205.5 -82.5c-104.667 0 -185.667 23.333 -243 70zM978.002 32
c38.667 0 69 20.332 91 60.999s33 92.334 33 155.001c0 64 -11.333 113.333 -34 148s-55 52 -97 52c-27.333 0 -52.333 -8.66699 -75 -26v-280c0 -73.333 27.333 -110 82 -110zM409.002 569.999c0 32 4.66699 61 14 87c-20.667 48.667 -54 73 -100 73
c-54 0 -81 -39.333 -81 -118v-78h167v36z" />
    <glyph glyph-name="f_h" unicode="fh" horiz-adv-x="970" 
d="M409 77l0.000976562 592c-20 50.667 -51 76 -93 76c-49.333 0 -74 -37.333 -74 -112v-99h96v-50h-96v-407c0 -16 3.83301 -26.5 11.5 -31.5s23.167 -8.16699 46.5 -9.5v-36h-278v36c22.667 1.33301 38.167 4.5 46.5 9.5s12.5 15.5 12.5 31.5v407h-72v33l72 22v31
c0 70 20.167 123 60.5 159s94.5 54 162.5 54c50 0 92.667 -10 128 -30l111 30h26v-338c55.333 66 117 99 185 99c48 0 84.667 -13.833 110 -41.5s38 -68.5 38 -122.5v-303c0 -16 4.16699 -26.5 12.5 -31.5s23.833 -8.16699 46.5 -9.5v-36h-278v36
c23.333 1.33301 38.833 4.5 46.5 9.5s11.5 15.5 11.5 31.5v292c0 26.667 -5.66699 46.5 -17 59.5s-30 19.5 -56 19.5c-31.333 0 -64.333 -10.667 -99 -32v-339c0 -16 3.83301 -26.5 11.5 -31.5s23.167 -8.16699 46.5 -9.5v-36h-278v36c23.333 1.33301 39.166 4.5 47.499 9.5
s12.5 15.5 12.5 31.5z" />
    <glyph glyph-name="f_f_h" unicode="ffh" horiz-adv-x="1298" 
d="M736 77v592c-20 50.667 -51 76 -93 76c-49.333 0 -74 -37.333 -74 -112v-99h102v-50h-102v-407c0 -16 3.83301 -26.5 11.5 -31.5s23.167 -8.16699 46.5 -9.5v-36h-276v36c22.667 1.33301 38 4.5 46 9.5s12 15.5 12 31.5v407h-167v-407c0 -16 3.83301 -26.5 11.5 -31.5
s23.167 -8.16699 46.5 -9.5v-36h-278v36c22.667 1.33301 38.167 4.5 46.5 9.5s12.5 15.5 12.5 31.5v407h-72v33l72 22v14c0 70.667 21.667 124.167 65 160.5s98.666 54.5 165.999 54.5c60 0 110 -15.333 150 -46c40 40.667 96.333 61 169 61c50 0 92.667 -10 128 -30l111 30
h26v-338c55.333 66 117.333 99 186 99c98 0 147 -54.667 147 -164v-303c0 -16 4.16699 -26.5 12.5 -31.5s23.833 -8.16699 46.5 -9.5v-36h-277v36c22.667 1.33301 37.834 4.5 45.501 9.5s11.5 15.5 11.5 31.5v292c0 26.667 -5.66699 46.5 -17 59.5s-30 19.5 -56 19.5
c-31.333 0 -64.333 -10.667 -99 -32v-339c0 -16 4 -26.5 12 -31.5s23.333 -8.16699 46 -9.5v-36h-277v36c22.667 1.33301 38.167 4.5 46.5 9.5s12.5 15.5 12.5 31.5zM409 570c0 32 4.66699 61 14 87c-20.667 48.667 -54 73 -100 73c-54 0 -81 -39.333 -81 -118v-78h167v36z
" />
    <glyph glyph-name="f_idieresis" unicode="f&#xef;" horiz-adv-x="644" 
d="M569 544l0.000976562 -466.999c0 -16 4.16699 -26.5 12.5 -31.5s24.166 -8.16699 47.499 -9.5v-36h-278v36c22.667 1.33301 38 4.5 46 9.5s12 15.5 12 31.5v407h-167v-407c0 -16 3.83301 -26.5 11.5 -31.5s23.167 -8.16699 46.5 -9.5v-36h-278v36
c22.667 1.33301 38.167 4.5 46.5 9.5s12.5 15.5 12.5 31.5v407h-72v33l72 22v19c0 73.333 22.667 129.166 68 167.499s103.333 57.5 174 57.5c50 0 88.167 -9.16699 114.5 -27.5s39.5 -43.5 39.5 -75.5c0 -30 -12.333 -51 -37 -63h-91c3.33301 13.333 5 29.333 5 48
c0 52.667 -15.667 79 -47 79c-43.333 0 -65 -41.667 -65 -125v-85h255l38 10h34zM509.001 683.001c0 20.667 7.83105 38.832 23.498 54.499s33.834 23.5 54.501 23.5c22 0 40.667 -7.66699 56 -23s23 -33.666 23 -54.999s-7.66699 -39.666 -23 -54.999s-34 -23 -56 -23
c-21.333 0 -39.666 7.66699 -54.999 23s-23 33.666 -23 54.999z" />
    <glyph glyph-name="f_f_idieresis" unicode="ff&#xef;" horiz-adv-x="971" 
d="M312 768c64 0 116.336 -16.667 157.003 -50c44.667 43.333 105 65 181 65c50 0 88.167 -9.16699 114.5 -27.5s39.5 -43.5 39.5 -75.5c0 -30 -12.333 -51 -37 -63h-91c3.33301 13.333 5 29.333 5 48c0 52.667 -15.667 79 -47 79c-43.333 0 -65 -41.667 -65 -125v-85h255
l38 10h34v-467c0 -16 4.16699 -26.5 12.5 -31.5s24.166 -8.16699 47.499 -9.5v-36h-278v36c23.333 1.33301 38.833 4.5 46.5 9.5s11.5 15.5 11.5 31.5v407h-167v-407c0 -16 4.16699 -26.5 12.5 -31.5s24.166 -8.16699 47.499 -9.5v-36h-278v36c22.667 1.33301 38 4.5 46 9.5
s12 15.5 12 31.5v407h-167v-407c0 -16 3.83301 -26.5 11.5 -31.5s23.167 -8.16699 46.5 -9.5v-36h-278v36c22.667 1.33301 38.167 4.5 46.5 9.5s12.5 15.5 12.5 31.5v407h-72v33l72 22v14c0 70.667 21.667 124.167 65 160.5s98.666 54.5 165.999 54.5zM409.003 534v24
c0 33.333 5.33301 64.333 16 93c-20 52.667 -54 79 -102 79c-54 0 -81 -39.333 -81 -118v-78h167zM836.003 683c0 20.667 7.66699 38.833 23 54.5s33.666 23.5 54.999 23.5c22 0 40.667 -7.66699 56 -23s23 -33.666 23 -54.999c0 -22 -7.5 -40.5 -22.5 -55.5
s-33.833 -22.5 -56.5 -22.5c-21.333 0 -39.666 7.66699 -54.999 23s-23 33.666 -23 54.999z" />
    <glyph glyph-name="f_j" unicode="fj" horiz-adv-x="629" 
d="M409 484l-167.002 -0.00195312v-407c0 -16 3.83301 -26.5 11.5 -31.5s23.167 -8.16699 46.5 -9.5v-36h-278v36c22.667 1.33301 38.167 4.5 46.5 9.5s12.5 15.5 12.5 31.5v407h-72v33l72 22v19c0 73.333 23.333 129.166 70 167.499s106.334 57.5 179.001 57.5
c54 0 95.667 -8.16699 125 -24.5s44 -39.166 44 -68.499c0 -28 -12 -47.667 -36 -59h-94c2.66699 10.667 4 24.667 4 42c0 47.333 -19 71 -57 71c-49.333 0 -74 -41.667 -74 -125v-85h255l38 10h34v-444c0 -51.333 -4.5 -90.666 -13.5 -117.999s-24.167 -53 -45.5 -77
c-36.667 -41.333 -89.667 -81.666 -159 -120.999l-16 18l41 67c14.667 23.333 23.834 49 27.501 77s5.5 66.333 5.5 115v423z" />
    <glyph glyph-name="f_f_j" unicode="ffj" horiz-adv-x="956" 
d="M736 484l-167.001 -0.000976562v-407c0 -16 4.16699 -26.5 12.5 -31.5s24.166 -8.16699 47.499 -9.5v-36h-278v36c22.667 1.33301 38 4.5 46 9.5s12 15.5 12 31.5v407h-167v-407c0 -16 3.83301 -26.5 11.5 -31.5s23.167 -8.16699 46.5 -9.5v-36h-278v36
c22.667 1.33301 38.167 4.5 46.5 9.5s12.5 15.5 12.5 31.5v407h-72v33l72 22v14c0 70.667 21.667 124.167 65 160.5s98.666 54.5 165.999 54.5c64.667 0 117 -17 157 -51c44.667 44 107.334 66 188.001 66c54 0 95.667 -8.16699 125 -24.5s44 -39.166 44 -68.499
c0 -28 -12 -47.667 -36 -59h-94c2.66699 10.667 4 24.667 4 42c0 47.333 -19 71 -57 71c-49.333 0 -74 -41.667 -74 -125v-85h255l38 10h34v-444c0 -50.667 -4.5 -89.834 -13.5 -117.501s-23.833 -53.5 -44.5 -77.5c-37.333 -41.333 -90.666 -81.666 -159.999 -120.999
l-16 18l41 67c14.667 23.333 23.834 49 27.501 77s5.5 66.333 5.5 115v423zM408.999 557.999c0 33.333 5.33301 64 16 92c-20 53.333 -54 80 -102 80c-54 0 -81 -39.333 -81 -118v-78h167v24z" />
    <glyph glyph-name="f_k" unicode="fk" horiz-adv-x="942" 
d="M578 284l155 141.001c20.667 18.667 31 33.667 31 45c0 9.33301 -4.16699 15.666 -12.5 18.999s-24.833 6.33301 -49.5 9v36h219v-36c-36 -6 -63.333 -18.333 -82 -37l-124 -116l227 -320v-25h-169zM409 77.001l0.00195312 592c-20 50.667 -51 76 -93 76
c-49.333 0 -74 -37.333 -74 -112v-99h102v-50h-102v-407c0 -16 3.83301 -26.5 11.5 -31.5s23.167 -8.16699 46.5 -9.5v-36h-278v36c22.667 1.33301 38.167 4.5 46.5 9.5s12.5 15.5 12.5 31.5v407h-72v33l72 22v31c0 70 20.167 123 60.5 159s94.5 54 162.5 54
c50 0 92.667 -10 128 -30l111 30h26v-706c0 -16 4.16699 -26.5 12.5 -31.5s24.166 -8.16699 47.499 -9.5v-36h-280v36c23.333 1.33301 39.166 4.5 47.499 9.5s12.5 15.5 12.5 31.5z" />
    <glyph glyph-name="f_f_k" unicode="ffk" horiz-adv-x="1269" 
d="M736 77l0.00195312 592c-20 50.667 -51 76 -93 76c-49.333 0 -74 -37.333 -74 -112v-99h102v-50h-102v-407c0 -16 3.83301 -26.5 11.5 -31.5s23.167 -8.16699 46.5 -9.5v-36h-276v36c22.667 1.33301 38 4.5 46 9.5s12 15.5 12 31.5v407h-167v-407
c0 -16 3.83301 -26.5 11.5 -31.5s23.167 -8.16699 46.5 -9.5v-36h-278v36c22.667 1.33301 38.167 4.5 46.5 9.5s12.5 15.5 12.5 31.5v407h-72v33l72 22v14c0 70.667 21.667 124.167 65 160.5s98.666 54.5 165.999 54.5c60 0 110 -15.333 150 -46c40 40.667 96.333 61 169 61
c50 0 92.667 -10 128 -30l111 30h26v-706c0 -16 4.16699 -26.5 12.5 -31.5s24.166 -8.16699 47.499 -9.5v-36h-279v36c22.667 1.33301 38.167 4.5 46.5 9.5s12.5 15.5 12.5 31.5zM905.002 284l155 141.001c20.667 18.667 31 33.667 31 45
c0 9.33301 -4.16699 15.666 -12.5 18.999s-24.833 6.33301 -49.5 9v36h219v-36c-36 -6 -63.333 -18.333 -82 -37l-124 -116l227 -320v-25h-169zM409.002 570.001c0 32 4.66699 61 14 87c-20.667 48.667 -54 73 -100 73c-54 0 -81 -39.333 -81 -118v-78h167v36z" />
    <glyph glyph-name=".notdef" horiz-adv-x="960" 
d="M90 0v780h780v-780h-780zM480 345l-279 -279h558zM201 714l279 -279l279 279h-558zM435 390l-275 275v-550zM525 390l275 -275v550z" />
    <glyph glyph-name="space" unicode=" " horiz-adv-x="183" 
 />
    <glyph glyph-name="exclam" unicode="!" horiz-adv-x="279" 
d="M51 80c0 25.333 8.66699 46.833 26 64.5s38 26.5 62 26.5c24.667 0 45.667 -8.83301 63 -26.5s26 -39.167 26 -64.5c0 -24.667 -8.66699 -45.834 -26 -63.501s-38.333 -26.5 -63 -26.5c-24 0 -44.667 8.83301 -62 26.5s-26 38.834 -26 63.501zM163 226h-48l-73 476h195z
" />
    <glyph glyph-name="quotedbl" unicode="&#x22;" horiz-adv-x="337" 
d="M93 465l-12.998 0.000976562l-40 138c-12.667 47.333 -19 78.666 -19 93.999c0 20 5.66699 36.667 17 50s27.666 20 48.999 20s37.666 -6.66699 48.999 -20s17 -30 17 -50c0 -18 -6.66699 -49.333 -20 -94zM257.002 465.001l-12.998 -0.000976562l-40 138
c-13.333 44.667 -20 76 -20 94c0 20 5.66699 36.667 17 50s27.666 20 48.999 20s37.666 -6.66699 48.999 -20s17 -30 17 -50c0 -15.333 -6.33301 -46.666 -19 -93.999z" />
    <glyph glyph-name="numbersign" unicode="#" horiz-adv-x="532" 
d="M465 231h-118l-76 -241l-47 15l71 226h-136l-76 -241l-46 15l71 226h-85v42h99l52 165h-107v43h120l74 232l46 -15l-69 -217h136l74 232l47 -15l-69 -217h83v-43h-96l-53 -165h105v-42zM225 438l-53 -165h137l52 165h-136z" />
    <glyph glyph-name="dollar" unicode="$" horiz-adv-x="560" 
d="M265 -10c-8.66699 0 -20.334 0.663086 -35.001 1.99609l-18 -105h-39l19 109c-65.333 8.66699 -117.333 28.667 -156 60l-9 173h47c19.333 -96 61.666 -157 126.999 -183l41 231c-1.33301 0.666992 -3.16602 1.33398 -5.49902 2.00098s-4.16602 1.33398 -5.49902 2.00098
c-67.333 21.333 -117.333 48.333 -150 81s-49 77.334 -49 134.001c0 64.667 22.5 116.834 67.5 156.501s103.5 59.5 175.5 59.5c10 0 24.333 -0.666992 43 -2l18 101h39l-19 -106c53.333 -10 97 -27.333 131 -52v-151h-41c-15.333 76 -48.333 126.333 -99 151l-39 -219h2
c74.667 -24.667 129.667 -53 165 -85s53 -79 53 -141c0 -70 -24.833 -123.833 -74.5 -161.5s-112.5 -56.5 -188.5 -56.5zM392 138.996c0 30.667 -8.5 54.999 -25.5 72.999s-46.5 35.333 -88.5 52l-40 -228c6 -1.33301 15 -2 27 -2c38.667 0 69.5 9.33301 92.5 28
s34.5 44.334 34.5 77.001zM164 566.995c0 -30.667 8 -54.5 24 -71.5s44 -33.167 84 -48.5l38 217c-14.667 2.66699 -26.334 4 -35.001 4c-33.333 0 -60.166 -9.16699 -80.499 -27.5s-30.5 -42.833 -30.5 -73.5z" />
    <glyph glyph-name="percent" unicode="%" horiz-adv-x="779" 
d="M33 541c0 53.333 16.5 95.166 49.5 125.499s73.167 45.5 120.5 45.5s87.5 -15.167 120.5 -45.5s49.5 -72.166 49.5 -125.499s-16.5 -95.333 -49.5 -126s-73.167 -46 -120.5 -46s-87.5 15.333 -120.5 46s-49.5 72.667 -49.5 126zM135 541c0 -93.333 22.667 -140 68 -140
s68 46.667 68 140c0 92 -22.667 138 -68 138s-68 -46 -68 -138zM145 -10l439 722h49l-438 -722h-50zM746 161c0 -53.333 -16.667 -95.166 -50 -125.499s-73.666 -45.5 -120.999 -45.5s-87.5 15.167 -120.5 45.5s-49.5 72.166 -49.5 125.499s16.5 95.333 49.5 126
s73.167 46 120.5 46s87.666 -15.333 120.999 -46s50 -72.667 50 -126zM644 161c0 93.333 -23 140 -69 140c-45.333 0 -68 -46.667 -68 -140c0 -92 22.667 -138 68 -138c46 0 69 46 69 138z" />
    <glyph glyph-name="ampersand" unicode="&#x26;" horiz-adv-x="718" 
d="M11 182c0 91.333 54 153.666 162 186.999c-43.333 50.667 -65 103.667 -65 159c0 56.667 19.333 101.5 58 134.5s90 49.5 154 49.5c60.667 0 109.5 -14.167 146.5 -42.5s55.5 -65.5 55.5 -111.5c0 -81.333 -56 -135.666 -168 -162.999l171 -200
c15.333 32.667 23 65.334 23 98.001c0 20 -5.5 33.667 -16.5 41s-29.167 11.666 -54.5 12.999v38h224v-38c-34.667 -1.33301 -59.167 -6.66602 -73.5 -15.999s-24.5 -28 -30.5 -56c-9.33301 -42.667 -24 -80 -44 -112l48 -55c20.667 -24.667 38.167 -42.334 52.5 -53.001
s31.5 -16.334 51.5 -17.001v-38h-193c-21.333 15.333 -42 32.333 -62 51c-58.667 -40.667 -124.667 -61 -198 -61c-68.667 0 -126 16.833 -172 50.5s-69 80.834 -69 141.501zM320 59c34 0 67 8.33203 99 24.999c-2.66699 2.66699 -5.16699 5.33398 -7.5 8.00098l-8 9.5
c-3 3.66699 -5.5 6.5 -7.5 8.5l-200 232c-29.333 -26 -44 -65 -44 -117c0 -49.333 15.5 -89.333 46.5 -120s71.5 -46 121.5 -46zM242 583.999c0 -11.333 1.49902 -22.5 4.49902 -33.5s5.83301 -20.167 8.5 -27.5s7.83398 -16.333 15.501 -27l16 -22
c3 -4 9.5 -11.667 19.5 -23s15.667 -18 17 -20l8 -10c48 30 72 79.333 72 148c0 29.333 -6.83301 54 -20.5 74s-34.5 30 -62.5 30c-24 0 -43 -8.16699 -57 -24.5s-21 -37.833 -21 -64.5z" />
    <glyph glyph-name="quotesingle" unicode="'" horiz-adv-x="174" 
d="M93 465l-12.998 0.000976562l-40 138c-12.667 47.333 -19 78.666 -19 93.999c0 20 5.66699 36.667 17 50s27.666 20 48.999 20s37.666 -6.66699 48.999 -20s17 -30 17 -50c0 -18 -6.66699 -49.333 -20 -94z" />
    <glyph glyph-name="parenleft" unicode="(" horiz-adv-x="362" 
d="M60 314c0 84.667 19.833 166.832 59.5 246.499s95.5 149.5 167.5 209.5h51c-103.333 -120 -155 -272 -155 -456s51.667 -336 155 -456h-51c-72 60 -127.833 129.833 -167.5 209.5s-59.5 161.834 -59.5 246.501z" />
    <glyph glyph-name="parenright" unicode=")" horiz-adv-x="362" 
d="M302 314c0 -84.667 -19.833 -166.832 -59.5 -246.499s-95.5 -149.5 -167.5 -209.5h-51c104 120.667 156 272.667 156 456s-52 335.333 -156 456h51c72 -60 127.833 -129.833 167.5 -209.5s59.5 -161.834 59.5 -246.501z" />
    <glyph glyph-name="asterisk" unicode="*" horiz-adv-x="432" 
d="M356 605l-127.002 -37l127 -38c18.667 -4.66699 31.334 -13.334 38.001 -26.001s6 -25.334 -2 -38.001c-7.33301 -12.667 -18 -19.334 -32 -20.001s-28 6 -42 20l-96 91l32 -128c5.33301 -18.667 4.16602 -34 -3.50098 -46s-19.167 -18 -34.5 -18s-26.666 6 -33.999 18
s-8.33301 27.333 -3 46l31 128l-96 -91c-14 -14 -27.833 -20.667 -41.5 -20s-24.5 7.33398 -32.5 20.001c-7.33301 12.667 -7.66602 25.334 -0.999023 38.001s19.334 21.334 38.001 26.001l126 38l-126 37c-18.667 5.33301 -31.334 14.333 -38.001 27
s-6.33398 25.334 0.999023 38.001c8 12.667 18.833 19.334 32.5 20.001s27.5 -6 41.5 -20l96 -92l-31 129c-5.33301 18.667 -4.33301 34 3 46s18.666 18 33.999 18s26.833 -6 34.5 -18s8.83398 -27.333 3.50098 -46l-32 -129l96 92c14 14 28 20.667 42 20
s24.667 -7.33398 32 -20.001c8 -12.667 8.83301 -25.334 2.5 -38.001s-19.166 -21.667 -38.499 -27z" />
    <glyph glyph-name="plus" unicode="+" horiz-adv-x="571" 
d="M254 591h63v-189h189v-64h-189v-189h-63v189h-189v64h189v189z" />
    <glyph glyph-name="comma" unicode="," horiz-adv-x="249" 
d="M142 4l-39.998 -0.000976562c-44 10.667 -66 37 -66 79c0 24.667 8.33301 44.667 25 60s37.667 23 63 23c29.333 0 52.666 -10.333 69.999 -31s26 -48 26 -82c0 -51.333 -16.333 -92.166 -49 -122.499s-79.334 -46.833 -140.001 -49.5v36
c68.667 10.667 105.667 39.667 111 87z" />
    <glyph glyph-name="hyphen" unicode="-" horiz-adv-x="320" 
d="M290 271h-260v70h260v-70z" />
    <glyph glyph-name="period" unicode="." horiz-adv-x="249" 
d="M30 85c0 27.333 9.16699 50 27.5 68s40.833 27 67.5 27c26 0 48.167 -9 66.5 -27s27.5 -40.667 27.5 -68s-9.16699 -50 -27.5 -68s-40.5 -27 -66.5 -27c-26.667 0 -49.167 9 -67.5 27s-27.5 40.667 -27.5 68z" />
    <glyph glyph-name="slash" unicode="/" horiz-adv-x="366" 
d="M352 770l-283 -911h-68l283 911h68z" />
    <glyph glyph-name="zero" unicode="0" horiz-adv-x="652" 
d="M326 29c78.667 0 118 107.333 118 322s-39.333 322 -118 322s-118 -107.333 -118 -322s39.333 -322 118 -322zM326 -10c-88.667 0 -160.5 32.667 -215.5 98s-82.5 153 -82.5 263s27.5 197.667 82.5 263s126.833 98 215.5 98s160.5 -32.667 215.5 -98s82.5 -153 82.5 -263
s-27.5 -197.667 -82.5 -263s-126.833 -98 -215.5 -98z" />
    <glyph glyph-name="one" unicode="1" horiz-adv-x="409" 
d="M395 0h-369.999v38c47.333 2.66699 76.166 7.83398 86.499 15.501s15.5 27.167 15.5 58.5v436h-102v35l44 8c46.667 8.66699 84.167 22 112.5 40s54.833 44.667 79.5 80h36v-599c0 -30.667 5.33301 -49.834 16 -57.501s38 -13.167 82 -16.5v-38z" />
    <glyph glyph-name="two" unicode="2" horiz-adv-x="543" 
d="M161 138l178 -0.000976562c38 0 65.833 5.5 83.5 16.5s38.5 39.167 62.5 84.5h30l-28 -239h-482v30l187 188c48 48 82.167 91.167 102.5 129.5s30.5 79.166 30.5 122.499c0 38.667 -10.667 69.5 -32 92.5s-51.666 34.5 -90.999 34.5c-56 0 -104 -24 -144 -72l-27 18
c60 112.667 144 169 252 169c63.333 0 113.166 -16.5 149.499 -49.5s54.5 -78.5 54.5 -136.5c0 -18.667 -3 -37.5 -9 -56.5s-12.833 -36.167 -20.5 -51.5s-19.667 -32.666 -36 -51.999s-30.333 -35.166 -42 -47.499s-29.167 -28.333 -52.5 -48l-52.5 -44
c-11.667 -9.66699 -31.167 -25 -58.5 -46z" />
    <glyph glyph-name="three" unicode="3" horiz-adv-x="531" 
d="M294 403c65.333 -3.33301 117.498 -22.8359 156.498 -58.5029s58.5 -81.167 58.5 -136.5c0 -68 -25.667 -121.333 -77 -160s-113.666 -58 -186.999 -58c-75.333 0 -134.166 13.667 -176.499 41s-63.5 61.333 -63.5 102c0 18.667 4.5 35 13.5 49s19.833 24 32.5 30h100
c-6 -19.333 -9 -39.666 -9 -60.999c0 -36 9.33301 -65.5 28 -88.5s44.667 -34.5 78 -34.5c32.667 0 58.167 12.667 76.5 38s27.5 59.333 27.5 102c0 50.667 -15 90.667 -45 120s-71.333 44 -124 44h-23l-10 27c55.333 20.667 95.333 42.167 120 64.5s37 50.833 37 85.5
c0 28.667 -8.66699 51.667 -26 69s-42 26 -74 26c-54 0 -99.667 -23.667 -137 -71l-24 19c50 106.667 130 160 240 160c54 0 97.333 -13.167 130 -39.5s49 -62.166 49 -107.499s-17 -81.166 -51 -107.499s-74 -44.5 -120 -54.5z" />
    <glyph glyph-name="four" unicode="4" horiz-adv-x="621" 
d="M78 234h237v328zM315 104v82h-308v31l350 485h124v-468h117v-48h-117v-82c0 -26.667 4.83301 -44.167 14.5 -52.5s31.834 -13.833 66.501 -16.5v-35h-328v35c35.333 2.66699 57.666 8.16699 66.999 16.5s14 25.833 14 52.5z" />
    <glyph glyph-name="five" unicode="5" horiz-adv-x="526" 
d="M454 559l-310 0.000976562l-17 -97c249.333 2 374 -79.333 374 -244c0 -70.667 -23.833 -126.334 -71.5 -167.001s-108.834 -61 -183.501 -61s-132.667 13.167 -174 39.5s-62 59.833 -62 100.5c0 17.333 4.66699 33.5 14 48.5s21 26.167 35 33.5h97
c-5.33301 -21.333 -8 -41 -8 -59c0 -38.667 8.83301 -69.167 26.5 -91.5s44.167 -33.5 79.5 -33.5c34.667 0 62.334 11 83.001 33s31 52 31 90c0 112 -102.333 168.333 -307 169l62 382h263c18 0 30.5 2.33301 37.5 7s15.5 16.667 25.5 36h34z" />
    <glyph glyph-name="six" unicode="6" horiz-adv-x="595" 
d="M479 685c-158 -34 -248.999 -129.334 -272.999 -286.001c45.333 36 99 54 161 54c59.333 0 108 -18.833 146 -56.5s57 -88.5 57 -152.5c0 -77.333 -24.5 -139 -73.5 -185s-111.5 -69 -187.5 -69c-86.667 0 -154.834 28.667 -204.501 86s-74.5 132 -74.5 224
c0 112.667 38.5 207.334 115.5 284.001s182.5 119 316.5 127zM274.001 384.999c-22.667 0 -46.667 -5.00098 -72 -15.001c-2 -22 -3 -44.667 -3 -68c0 -82 10.167 -147.833 30.5 -197.5s49.833 -74.5 88.5 -74.5c32 0 56.5 14.833 73.5 44.5s25.5 68.834 25.5 117.501
c0 56.667 -12.333 103 -37 139s-60 54 -106 54z" />
    <glyph glyph-name="seven" unicode="7" horiz-adv-x="507" 
d="M406 542l-265 -0.000976562c-22.667 0 -40.667 -6.66699 -54 -20s-26.333 -36.666 -39 -69.999h-37l45 250h449v-37l-283 -665h-112z" />
    <glyph glyph-name="eight" unicode="8" horiz-adv-x="573" 
d="M514 549c0 -37.333 -14.1699 -67.668 -42.5029 -91.001s-63.833 -38 -106.5 -44l31 -13c50.667 -23.333 88.334 -50.666 113.001 -81.999s37 -70.333 37 -117c0 -64.667 -23.333 -116.167 -70 -154.5s-110.334 -57.5 -191.001 -57.5
c-79.333 0 -142.666 15.667 -189.999 47s-71 74 -71 128c0 40 14.667 72.833 44 98.5s67 42.834 113 51.501l-17 8c-78.667 37.333 -118 98.666 -118 183.999c0 61.333 22.333 110.833 67 148.5s102.334 56.5 173.001 56.5s126.334 -14.5 167.001 -43.5
s61 -68.833 61 -119.5zM326.997 248.998l-121.001 54.999c-40 -30.667 -60 -72.667 -60 -126c0 -45.333 12.667 -81.666 38 -108.999s59.333 -41 102 -41c38.667 0 69.834 9.83301 93.501 29.5s35.5 47.5 35.5 83.5c0 26 -7.16699 47 -21.5 63s-36.5 31 -66.5 45z
M259.996 465.997l79.001 -38.999c40.667 30.667 61 71.667 61 123c0 37.333 -10 67.333 -30 90s-48.333 34 -85 34c-32.667 0 -59 -9.16699 -79 -27.5s-30 -42.5 -30 -72.5c0 -26.667 6.66699 -47.834 20 -63.501s34.666 -30.5 63.999 -44.5z" />
    <glyph glyph-name="nine" unicode="9" horiz-adv-x="595" 
d="M116 18c156.667 33.333 247.666 128.668 272.999 286.001c-44 -36 -97.667 -54 -161 -54c-59.333 0 -108 18.833 -146 56.5s-57 88.5 -57 152.5c0 77.333 24.5 139 73.5 185s111.5 69 187.5 69c86.667 0 154.834 -28.667 204.501 -86s74.5 -132 74.5 -224
c0 -112.667 -38.5 -207.334 -115.5 -284.001s-182.5 -119 -316.5 -127zM320.999 318.002c26 0 49.667 5.00098 71 15.001c2.66699 29.333 4 52 4 68c0 82 -10.167 147.833 -30.5 197.5s-49.833 74.5 -88.5 74.5c-32 0 -56.5 -14.833 -73.5 -44.5
s-25.5 -68.834 -25.5 -117.501c0 -56.667 12.333 -103 37 -139s60 -54 106 -54z" />
    <glyph glyph-name="colon" unicode=":" horiz-adv-x="249" 
d="M30 85c0 27.333 9.16699 50 27.5 68s40.833 27 67.5 27c26 0 48.167 -9 66.5 -27s27.5 -40.667 27.5 -68s-9.16699 -50 -27.5 -68s-40.5 -27 -66.5 -27c-26.667 0 -49.167 9 -67.5 27s-27.5 40.667 -27.5 68zM30 403c0 27.333 9.16699 50 27.5 68s40.833 27 67.5 27
c26 0 48.167 -9 66.5 -27s27.5 -40.667 27.5 -68s-9.16699 -50 -27.5 -68s-40.5 -27 -66.5 -27c-26.667 0 -49.167 9 -67.5 27s-27.5 40.667 -27.5 68z" />
    <glyph glyph-name="semicolon" unicode=";" horiz-adv-x="249" 
d="M142 4l-39.998 -0.000976562c-44 10.667 -66 37 -66 79c0 24.667 8.33301 44.667 25 60s37.667 23 63 23c29.333 0 52.666 -10.333 69.999 -31s26 -48 26 -82c0 -51.333 -16.333 -92.166 -49 -122.499s-79.334 -46.833 -140.001 -49.5v36
c68.667 10.667 105.667 39.667 111 87zM30.002 402.999c0 27.333 9.16699 50 27.5 68s40.833 27 67.5 27c26 0 48.167 -9 66.5 -27s27.5 -40.667 27.5 -68s-9.16699 -50 -27.5 -68s-40.5 -27 -66.5 -27c-26.667 0 -49.167 9 -67.5 27s-27.5 40.667 -27.5 68z" />
    <glyph glyph-name="less" unicode="&#x3c;" horiz-adv-x="422" 
d="M42 364v9l315 192v-76l-205 -120l205 -122v-76z" />
    <glyph glyph-name="equal" unicode="=" horiz-adv-x="581" 
d="M70 267v62h442v-62h-442zM70 410v63h442v-63h-442z" />
    <glyph glyph-name="greater" unicode="&#x3e;" horiz-adv-x="422" 
d="M380 373v-9l-315 -193v76l205 122l-205 120v76z" />
    <glyph glyph-name="question" unicode="?" horiz-adv-x="456" 
d="M309 591c0 26.667 -6.83496 47.667 -20.502 63s-33.167 23 -58.5 23c-27.333 0 -47.666 -9.66699 -60.999 -29s-20 -43.333 -20 -72c0 -20.667 1.33301 -39 4 -55h-101c-23.333 13.333 -35 33.666 -35 60.999c0 38.667 19.667 70 59 94s90 36 152 36
c67.333 0 119.833 -14.5 157.5 -43.5s56.5 -70.833 56.5 -125.5c0 -40 -11.5 -74.5 -34.5 -103.5s-57.5 -58.167 -103.5 -87.5c-29.333 -18 -49.833 -35 -61.5 -51s-17.5 -36.667 -17.5 -62v-18h-21c-19.333 9.33301 -35.166 23.333 -47.499 42s-18.5 40.334 -18.5 65.001
c0 46.667 26.333 90 79 130c21.333 16.667 37.333 29.667 48 39s20.667 22.5 30 39.5s14 35.167 14 54.5zM126.998 80c0 25.333 8.66699 46.833 26 64.5s38.333 26.5 63 26.5s45.667 -8.83301 63 -26.5s26 -39.167 26 -64.5c0 -24.667 -8.66699 -45.834 -26 -63.501
s-38.333 -26.5 -63 -26.5s-45.667 8.83301 -63 26.5s-26 38.834 -26 63.501z" />
    <glyph glyph-name="at" unicode="@" horiz-adv-x="876" 
d="M601 76c-48.667 0 -81.3359 15.832 -98.0029 47.499s-20 72.167 -10 121.5c-27.333 -54 -54.833 -95.5 -82.5 -124.5s-58.834 -43.5 -93.501 -43.5c-29.333 0 -53.333 11.333 -72 34s-28 53.667 -28 93c0 72.667 25.333 139.5 76 200.5s110 91.5 178 91.5
c41.333 0 73 -13 95 -39l72 34h34l-32 -91l-54 -201c-7.33301 -22 -8.66602 -42.167 -3.99902 -60.5s16.334 -27.5 35.001 -27.5c42 0 76.667 25.167 104 75.5s41 112.5 41 186.5c0 80 -25 146.833 -75 200.5s-118.333 80.5 -205 80.5
c-108.667 0 -196.5 -40.167 -263.5 -120.5s-100.5 -177.166 -100.5 -290.499c0 -102 30.5 -181.5 91.5 -238.5s139.5 -85.5 235.5 -85.5c54 0 101.5 5.83301 142.5 17.5s83.833 30.834 128.5 57.501l12 -18c-77.333 -68.667 -177 -103 -299 -103c-114 0 -208 32.667 -282 98
s-111 155.333 -111 270c0 80.667 18.833 155.167 56.5 223.5s90.834 123.166 159.501 164.499s145.334 62 230.001 62c110 0 197.167 -30.167 261.5 -90.5s96.5 -136.166 96.5 -227.499c0 -88.667 -24 -160.334 -72 -215.001s-103.667 -82 -167 -82zM370.998 154.999
c28 0 57.668 27.167 89.001 81.5s55.666 118.833 72.999 193.5c-8.66699 22 -25.334 33 -50.001 33c-39.333 0 -73.666 -27.333 -102.999 -82s-44 -110 -44 -166c0 -40 11.667 -60 35 -60z" />
    <glyph glyph-name="A" unicode="A" horiz-adv-x="743" 
d="M482 122l-40.998 103.001h-262l-39 -103c-6 -16.667 -9 -29.334 -9 -38.001c0 -15.333 6.66699 -26.5 20 -33.5s34.666 -11.167 63.999 -12.5v-38h-210v38c10.667 2 19 4 25 6s12.167 5.5 18.5 10.5s11.166 11.833 14.499 20.5l214 552l-32 79h181l253 -631
c4.66699 -12 11.5 -20.5 20.5 -25.5s21.833 -8.83301 38.5 -11.5v-38h-329v38c28.667 1.33301 49.5 5.33301 62.5 12s19.5 17.667 19.5 33c0 8 -3 21 -9 39zM307.002 562.001l-110 -289h225z" />
    <glyph glyph-name="B" unicode="B" horiz-adv-x="681" 
d="M330 337h-56.999v-226c0 -26.667 5.66699 -44.667 17 -54s31.666 -14 60.999 -14h9c40.667 0 72 12.667 94 38s33 62.333 33 111c0 46 -13 81.667 -39 107s-65.333 38 -118 38zM310.001 659h-37v-273h38c92 0 138 46.333 138 139c0 44 -12.167 77.333 -36.5 100
s-58.5 34 -102.5 34zM382.001 0h-355v38c34 4 55.167 9.83301 63.5 17.5s12.5 24.834 12.5 51.501v488c0 26.667 -4.16699 43.834 -12.5 51.501s-29.5 13.5 -63.5 17.5v38h341c78.667 0 139 -14.833 181 -44.5s63 -73.167 63 -130.5c0 -47.333 -18.167 -84.833 -54.5 -112.5
s-80.833 -44.167 -133.5 -49.5c68.667 -2.66699 124.167 -19.334 166.5 -50.001s63.5 -72.334 63.5 -125.001c0 -62.667 -23 -110 -69 -142s-113.667 -48 -203 -48z" />
    <glyph glyph-name="C" unicode="C" horiz-adv-x="669" 
d="M393 712c88.667 0 162.668 -19.667 222.001 -59l2 -167h-43c-24.667 120 -83.334 180 -176.001 180c-62.667 0 -110 -28.167 -142 -84.5s-48 -129.833 -48 -220.5c0 -95.333 17.5 -173 52.5 -233s83.833 -90 146.5 -90c46 0 84.667 16.5 116 49.5s56 85.833 74 158.5h46
l-16 -193c-62 -42 -141.333 -63 -238 -63c-111.333 0 -199.333 31 -264 93s-97 145.333 -97 250c0 114 34.833 205.667 104.5 275s156.5 104 260.5 104z" />
    <glyph glyph-name="D" unicode="D" horiz-adv-x="768" 
d="M314 659h-41v-545c0 -28 5.66699 -46.833 17 -56.5s30.333 -14.5 57 -14.5h14c60 0 108.333 26.833 145 80.5s55 126.5 55 218.5c0 96 -21 172.833 -63 230.5s-103.333 86.5 -184 86.5zM365 0l-338.001 -0.00195312v38c34 4 55.167 9.83301 63.5 17.5
s12.5 24.834 12.5 51.501v488c0 26.667 -4.16699 43.834 -12.5 51.501s-29.5 13.5 -63.5 17.5v38h317c130 0 228.5 -31.5 295.5 -94.5s100.5 -144.833 100.5 -245.5c0 -112.667 -34.167 -201.167 -102.5 -265.5s-159.166 -96.5 -272.499 -96.5z" />
    <glyph glyph-name="E" unicode="E" horiz-adv-x="644" 
d="M27 0l0.00292969 37.9961c34 4 55.167 9.83301 63.5 17.5s12.5 24.834 12.5 51.501v488c0 26.667 -4.16699 43.834 -12.5 51.501s-29.5 13.5 -63.5 17.5v38h561l5 -187h-34c-26 57.333 -49.333 95.666 -70 114.999s-51.667 29 -93 29h-123v-272h113
c22 0 37.667 6.66699 47 20s16.333 37.333 21 72h39v-233h-39c-4.66699 34 -11.667 57.667 -21 71s-25 20 -47 20h-113v-226c0 -26 6.66699 -43.833 20 -53.5s35.333 -14.5 66 -14.5h49c21.333 0 39.166 2.33301 53.499 7s28.666 14.834 42.999 30.501
s26.666 31.834 36.999 48.501s25.833 43.334 46.5 80.001h39l-31 -209h-569z" />
    <glyph glyph-name="F" unicode="F" horiz-adv-x="601" 
d="M273 329l0.000976562 -217.003c0 -26.667 8.16699 -44.834 24.5 -54.501s47.833 -15.834 94.5 -18.501v-39h-365v38c34 4 55.167 9.83301 63.5 17.5s12.5 24.834 12.5 51.501v488c0 26.667 -4.16699 43.834 -12.5 51.501s-29.5 13.5 -63.5 17.5v38h549l5 -193h-32
c-26 58.667 -49.833 98.334 -71.5 119.001s-52.834 31 -93.501 31h-111v-280h101c22 0 37.5 6.83301 46.5 20.5s15.5 37.834 19.5 72.501h40v-236h-40c-4 34.667 -10.5 58.834 -19.5 72.501s-24.5 20.5 -46.5 20.5h-101z" />
    <glyph glyph-name="G" unicode="G" horiz-adv-x="731" 
d="M485 56l0.000976562 168.001c0 26.667 -4.16699 43.834 -12.5 51.501s-29.5 13.5 -63.5 17.5v38h312v-38c-34 -4 -55.167 -9.83301 -63.5 -17.5s-12.5 -24.834 -12.5 -51.501v-166c-70.667 -45.333 -158.334 -68 -263.001 -68c-111.333 0 -198.166 32.167 -260.499 96.5
s-93.5 146.833 -93.5 247.5c0 114 35.167 205.5 105.5 274.5s158.5 103.5 264.5 103.5c90 0 164.667 -19.333 224 -58l3 -168h-44c-24.667 120.667 -84 181 -178 181c-64.667 0 -113.334 -28.333 -146.001 -85s-49 -130.334 -49 -221.001c0 -59.333 6.83301 -113 20.5 -161
s35.667 -87.333 66 -118s66.833 -46 109.5 -46c33.333 0 60.333 6.66699 81 20z" />
    <glyph glyph-name="H" unicode="H" horiz-adv-x="825" 
d="M273 595v-210h279v210c0 26.667 -4.16699 43.834 -12.5 51.501s-29.833 13.5 -64.5 17.5v38h323v-38c-34 -4 -55.167 -9.83301 -63.5 -17.5s-12.5 -24.834 -12.5 -51.501v-488c0 -26.667 4.16699 -43.834 12.5 -51.501s29.5 -13.5 63.5 -17.5v-38h-323v38
c34.667 4 56.167 9.83301 64.5 17.5s12.5 24.834 12.5 51.501v223h-279v-223c0 -26.667 4.16699 -43.834 12.5 -51.501s29.833 -13.5 64.5 -17.5v-38h-323v38c34 4 55.167 9.83301 63.5 17.5s12.5 24.834 12.5 51.501v488c0 26.667 -4.16699 43.834 -12.5 51.501
s-29.5 13.5 -63.5 17.5v38h323v-38c-34.667 -4 -56.167 -9.83301 -64.5 -17.5s-12.5 -24.834 -12.5 -51.501z" />
    <glyph glyph-name="I" unicode="I" horiz-adv-x="377" 
d="M273 595v-488c0 -26.667 4.16699 -43.834 12.5 -51.501s29.833 -13.5 64.5 -17.5v-38h-323v38c34 4 55.167 9.83301 63.5 17.5s12.5 24.834 12.5 51.501v488c0 26.667 -4.16699 43.834 -12.5 51.501s-29.5 13.5 -63.5 17.5v38h323v-38
c-34.667 -4 -56.167 -9.83301 -64.5 -17.5s-12.5 -24.834 -12.5 -51.501z" />
    <glyph glyph-name="J" unicode="J" horiz-adv-x="556" 
d="M293 168l0.000976562 426.998c0 26.667 -4.16699 43.834 -12.5 51.501s-29.5 13.5 -63.5 17.5v38h323v-38c-34.667 -4 -56.167 -9.83301 -64.5 -17.5s-12.5 -24.834 -12.5 -51.501v-376c0 -152.667 -83.333 -229 -250 -229c-70 0 -123.833 12.333 -161.5 37
s-56.5 60.334 -56.5 107.001c0 36.667 14.667 64.334 44 83.001h111c-4 -22 -6 -45.333 -6 -70c0 -78.667 24.667 -118 74 -118c27.333 0 46.666 11.333 57.999 34s17 57.667 17 105z" />
    <glyph glyph-name="K" unicode="K" horiz-adv-x="741" 
d="M428 419l211.998 -310.998c18.667 -26 34.5 -43.667 47.5 -53s30.833 -15 53.5 -17v-38h-211c-28 24 -57.667 60 -89 108l-157 235l239 249c17.333 18.667 26 33.667 26 45c0 8 -5.16699 14.167 -15.5 18.5s-29.166 7.16602 -56.499 8.49902v38h231v-38
c-21.333 -1.33301 -37.666 -4.83301 -48.999 -10.5s-24 -15.834 -38 -30.501zM272.998 595.002v-488c0 -26.667 4.16699 -43.834 12.5 -51.501s29.833 -13.5 64.5 -17.5v-38h-323v38c34 4 55.167 9.83301 63.5 17.5s12.5 24.834 12.5 51.501v488
c0 26.667 -4.16699 43.834 -12.5 51.501s-29.5 13.5 -63.5 17.5v38h323v-38c-34.667 -4 -56.167 -9.83301 -64.5 -17.5s-12.5 -24.834 -12.5 -51.501z" />
    <glyph glyph-name="L" unicode="L" horiz-adv-x="628" 
d="M273 595v-484.001c0 -26 6.33301 -43.833 19 -53.5s34 -14.5 64 -14.5h36c34 0 63 12.333 87 37s57.333 73.667 100 147h38l-36 -227h-554v38c34 4 55.167 9.83301 63.5 17.5s12.5 24.834 12.5 51.501v488c0 26.667 -4.16699 43.834 -12.5 51.501s-29.5 13.5 -63.5 17.5
v38h323v-38c-34.667 -4 -56.167 -9.83301 -64.5 -17.5s-12.5 -24.834 -12.5 -51.501z" />
    <glyph glyph-name="M" unicode="M" horiz-adv-x="958" 
d="M694 127l-50 398.001l-185 -525h-63l-194 525l-50 -398c-1.33301 -10.667 -2 -19 -2 -25c0 -23.333 6.33301 -39.166 19 -47.499s38 -13.833 76 -16.5v-38h-238v38c29.333 1.33301 49.833 6.16602 61.5 14.499s18.834 23.833 21.501 46.5l63 492
c0 26.667 -6 45.167 -18 55.5s-34.333 16.166 -67 17.499v38h251c1.33301 -16 6.66602 -36.667 15.999 -62l150 -411l141 411c10.667 31.333 16.334 52 17.001 62h246v-38c-32.667 -1.33301 -54.834 -7.16602 -66.501 -17.499s-17.5 -28.833 -17.5 -55.5l62 -492
c3.33301 -23.333 10.833 -39 22.5 -47s32.167 -12.667 61.5 -14v-38h-351v38c36.667 2.66699 61.667 8.16699 75 16.5s20 24.166 20 47.499c0 1.33301 -0.166992 5 -0.5 11s-0.5 10.667 -0.5 14z" />
    <glyph glyph-name="N" unicode="N" horiz-adv-x="750" 
d="M596 271l0.000976562 324c0 26 -6.16699 43.167 -18.5 51.5s-39.5 14.166 -81.5 17.499v38h237v-38c-34.667 -4 -56.167 -9.83301 -64.5 -17.5s-12.5 -24.834 -12.5 -51.501v-597h-60l-432 542v-433c0 -26 6.16699 -43.167 18.5 -51.5s39.5 -14.166 81.5 -17.499v-38
h-236v38c34 4 55.167 9.83301 63.5 17.5s12.5 24.834 12.5 51.501v494c-15.333 23.333 -27.833 39.333 -37.5 48s-22.834 13.667 -39.501 15v38h227z" />
    <glyph glyph-name="O" unicode="O" horiz-adv-x="734" 
d="M372 35c50.667 0 88.833 29.668 114.5 89.001s38.5 132 38.5 218c0 60.667 -5.33301 114.5 -16 161.5s-28.5 86 -53.5 117s-56.167 46.5 -93.5 46.5c-34.667 0 -64 -15.167 -88 -45.5s-40.833 -67.833 -50.5 -112.5s-14.5 -94.334 -14.5 -149.001
c0 -60.667 5.33301 -114.5 16 -161.5s28.5 -86 53.5 -117s56.167 -46.5 93.5 -46.5zM358.999 -9.99902c-103.333 0 -184.333 33.5 -243 100.5s-88 149.167 -88 246.5c0 113.333 32.333 204.166 97 272.499s147.667 102.5 249 102.5c104 0 185.333 -33.333 244 -100
s88 -149 88 -247c0 -113.333 -32.5 -204.166 -97.5 -272.499s-148.167 -102.5 -249.5 -102.5z" />
    <glyph glyph-name="P" unicode="P" horiz-adv-x="646" 
d="M273 275v-163c0 -26.667 8.16699 -44.834 24.5 -54.501s47.833 -15.834 94.5 -18.501v-39h-365v38c34 4 55.167 9.83301 63.5 17.5s12.5 24.834 12.5 51.501v488c0 26.667 -4.16699 43.834 -12.5 51.501s-29.5 13.5 -63.5 17.5v38h325
c91.333 0 160.833 -19.5 208.5 -58.5s71.5 -89.5 71.5 -151.5c0 -68.667 -24 -122 -72 -160s-119 -57 -213 -57h-74zM273 659v-336.999h34c51.333 0 90 14.833 116 44.5s39 71.167 39 124.5c0 51.333 -13.667 92.166 -41 122.499s-65.333 45.5 -114 45.5h-34z" />
    <glyph glyph-name="Q" unicode="Q" horiz-adv-x="734" 
d="M363 -78l-49.999 71.001c-90 10 -160 47.333 -210 112s-75 142 -75 232c0 113.333 32.333 204.166 97 272.499s147.667 102.5 249 102.5c104 0 185.333 -33.333 244 -100s88 -149 88 -247c0 -96 -23.833 -176.333 -71.5 -241s-110.834 -106 -189.501 -124l76 -61
c26 -21.333 48.5 -37 67.5 -47s41.833 -15.667 68.5 -17v-15c-36.667 -29.333 -76 -44 -118 -44c-65.333 0 -124 35.333 -176 106zM372.001 35.001c50.667 0 88.833 29.668 114.5 89.001s38.5 132 38.5 218c0 60.667 -5.33301 114.5 -16 161.5s-28.5 86 -53.5 117
s-56.167 46.5 -93.5 46.5c-34.667 0 -64 -15.167 -88 -45.5s-40.833 -67.833 -50.5 -112.5s-14.5 -94.334 -14.5 -149.001c0 -60.667 5.33301 -114.5 16 -161.5s28.5 -86 53.5 -117s56.167 -46.5 93.5 -46.5z" />
    <glyph glyph-name="R" unicode="R" horiz-adv-x="737" 
d="M311 657l-38.001 0.00195312v-315h40c48.667 0 85.834 14.167 111.501 42.5s38.5 68.166 38.5 119.499c0 47.333 -13.167 84.666 -39.5 111.999s-63.833 41 -112.5 41zM272.999 297.002l-0.000976562 -190.001c0 -26.667 4.16699 -43.834 12.5 -51.501
s29.833 -13.5 64.5 -17.5v-38h-323v38c34 4 55.167 9.83301 63.5 17.5s12.5 24.834 12.5 51.501v488c0 26.667 -4.16699 43.834 -12.5 51.501s-29.5 13.5 -63.5 17.5v38h342c82 0 146.667 -17.833 194 -53.5s71 -83.5 71 -143.5c0 -48.667 -15.167 -88.334 -45.5 -119.001
s-67.166 -52 -110.499 -64l145 -202c22 -31.333 40.5 -52.666 55.5 -63.999s34.5 -17.333 58.5 -18v-38h-208c-24.667 18 -52.667 52 -84 102l-126 195h-46z" />
    <glyph glyph-name="S" unicode="S" horiz-adv-x="563" 
d="M268 -10c-47.333 0 -91.334 6.16699 -132.001 18.5s-73 28.166 -97 47.499l-9 173h47c12.667 -60 35.334 -107.5 68.001 -142.5s73.667 -52.5 123 -52.5c38 0 68.333 9.33301 91 28s34 44.334 34 77.001c0 33.333 -11.5 59.666 -34.5 78.999s-64.5 39 -124.5 59
c-66.667 21.333 -116.5 48.833 -149.5 82.5s-49.5 79.167 -49.5 136.5c0 64.667 22.333 116.834 67 156.501s103 59.5 175 59.5c87.333 0 158.333 -19.667 213 -59v-151h-42c-22.667 110.667 -79.667 166 -171 166c-33.333 0 -59.833 -9 -79.5 -27s-29.5 -42 -29.5 -72
c0 -32.667 10.5 -58 31.5 -76s58.833 -36.333 113.5 -55c74.667 -24.667 129.667 -53.667 165 -87s53 -81 53 -143c0 -70 -24.833 -123.833 -74.5 -161.5s-112.5 -56.5 -188.5 -56.5z" />
    <glyph glyph-name="T" unicode="T" horiz-adv-x="691" 
d="M30 702h631.002l15 -241h-36c-36.667 82.667 -65 137.167 -85 163.5s-47 39.5 -81 39.5h-43v-561c0 -25.333 5.16699 -41.333 15.5 -48s33.833 -12.334 70.5 -17.001v-38h-343v38c20 2.66699 34.167 4.66699 42.5 6s16.666 4.33301 24.999 9s13.666 10.834 15.999 18.501
s3.5 18.167 3.5 31.5v561h-44c-34 0 -61 -13.167 -81 -39.5s-48.333 -80.833 -85 -163.5h-36z" />
    <glyph glyph-name="U" unicode="U" horiz-adv-x="743" 
d="M259 595l-0.000976562 -337.001c0 -61.333 13 -108.666 39 -141.999s65.667 -50 119 -50c54.667 0 97.834 15.833 129.501 47.5s47.5 81.5 47.5 149.5v332c0 26.667 -5.5 44 -16.5 52s-37.167 13.667 -78.5 17v38h231v-38c-34.667 -4 -56.167 -9.83301 -64.5 -17.5
s-12.5 -24.834 -12.5 -51.501v-351c0 -82.667 -25.167 -145.667 -75.5 -189s-115.5 -65 -195.5 -65c-94 0 -166.333 21.333 -217 64s-76 106.334 -76 191.001v350c0 26.667 -4.16699 43.834 -12.5 51.501s-29.5 13.5 -63.5 17.5v38h323v-38
c-34.667 -4 -56.167 -9.83301 -64.5 -17.5s-12.5 -24.834 -12.5 -51.501z" />
    <glyph glyph-name="V" unicode="V" horiz-adv-x="720" 
d="M435 215l142.001 365c6.66699 16.667 10 30 10 40c0 15.333 -5.16699 26.166 -15.5 32.499s-30.833 10.166 -61.5 11.499v38h205v-38c-16.667 -2.66699 -29.334 -6.33398 -38.001 -11.001s-15.667 -13.334 -21 -26.001l-256 -632h-47l-290 632
c-5.33301 12.667 -12.166 21.334 -20.499 26.001s-20.833 8.33398 -37.5 11.001v38h331v-38c-30.667 -1.33301 -51.334 -5.16602 -62.001 -11.499s-16 -17.166 -16 -32.499c0 -10 3.33301 -23.333 10 -40z" />
    <glyph glyph-name="W" unicode="W" horiz-adv-x="985" 
d="M641 -5l-136.003 399.004l-146 -399h-59l-237 632c-7.33301 19.333 -26.666 31.666 -57.999 36.999v38h310v-38c-23.333 -1.33301 -39.666 -5.16602 -48.999 -11.499s-14 -15.833 -14 -28.5c0 -8.66699 4 -25.667 12 -51l128 -351l89 243l-55 162
c-6 19.333 -23.333 31.666 -52 36.999v38h306v-38c-27.333 -0.666992 -46.666 -4.33398 -57.999 -11.001s-17 -17.334 -17 -32.001c0 -11.333 4 -30 12 -56l110 -338l116 340c7.33301 23.333 11 40.333 11 51c0 14.667 -5.5 25.667 -16.5 33s-30.167 11.666 -57.5 12.999v38
h200v-38c-32 -6 -51.333 -18.333 -58 -37l-222 -632h-59z" />
    <glyph glyph-name="X" unicode="X" horiz-adv-x="729" 
d="M437 115l-120.999 179l-142 -185c-10.667 -15.333 -16 -27.666 -16 -36.999c0 -20.667 27 -32 81 -34v-38h-234v38c34.667 3.33301 60 16.333 76 39l205 262l-193 286c-14.667 22.667 -37.667 35.667 -69 39v38h332v-38c-22.667 0 -39 -2 -49 -6s-15 -11.333 -15 -22
s7.66699 -27.334 23 -50.001l92 -139l111 146c11.333 16.667 17 29.667 17 39c0 20 -23 30.667 -69 32v38h220v-38c-34.667 -3.33301 -60.334 -16.333 -77.001 -39l-172 -223l213 -319c18.667 -27.333 43.334 -42.333 74.001 -45v-38h-341v38
c27.333 0.666992 46.666 3 57.999 7s17 12 17 24c0 10 -7 25.333 -21 46z" />
    <glyph glyph-name="Y" unicode="Y" horiz-adv-x="686" 
d="M431 268l0.00390625 -165.001c0 -25.333 5.16699 -41.333 15.5 -48s33.833 -12.334 70.5 -17.001v-38h-338v38c20 2.66699 34.167 4.66699 42.5 6s16.666 4.33301 24.999 9s13.666 10.834 15.999 18.501s3.5 18.167 3.5 31.5v161l-203 363
c-7.33301 12.667 -14.833 21.334 -22.5 26.001s-19.5 8.33398 -35.5 11.001v38h322v-38c-28.667 -0.666992 -48 -3.66699 -58 -9s-15 -14.333 -15 -27c0 -14 7.33301 -34 22 -60l133 -232l122 231c14.667 29.333 22 49.666 22 60.999c0 12 -5.83301 20.667 -17.5 26
s-30.834 8.66602 -57.501 9.99902v38h203v-38c-28.667 -5.33301 -48.334 -17.666 -59.001 -36.999z" />
    <glyph glyph-name="Z" unicode="Z" horiz-adv-x="619" 
d="M217 43h150.001c40.667 0 73 11.5 97 34.5s57 71.5 99 145.5h38l-35 -223h-549v30l366 629h-144c-42 0 -71.833 -10.167 -89.5 -30.5s-41.834 -65.5 -72.501 -135.5h-37l8 209h534v-30z" />
    <glyph glyph-name="bracketleft" unicode="[" horiz-adv-x="330" 
d="M188 674v-719c0 -24.667 6.66699 -40.167 20 -46.5s42 -10.833 86 -13.5v-36h-209v911h209v-36c-44 -2.66699 -72.667 -7.16699 -86 -13.5s-20 -21.833 -20 -46.5z" />
    <glyph glyph-name="backslash" unicode="\" horiz-adv-x="366" 
d="M297 -141l-283 911h68l283 -911h-68z" />
    <glyph glyph-name="bracketright" unicode="]" horiz-adv-x="330" 
d="M143 -45v719c0 24.667 -6.83301 40.167 -20.5 46.5s-42.5 10.833 -86.5 13.5v36h209v-911h-209v36c44 2.66699 72.833 7.16699 86.5 13.5s20.5 21.833 20.5 46.5z" />
    <glyph glyph-name="asciicircum" unicode="^" horiz-adv-x="467" 
d="M268 770l165 -290h-65l-134 241l-135 -241h-65l165 290h69z" />
    <glyph glyph-name="underscore" unicode="_" horiz-adv-x="408" 
d="M388 -132h-368v66h368v-66z" />
    <glyph glyph-name="grave" unicode="`" 
d="M136 764h159l52 -165h-43l-168 157v8z" />
    <glyph glyph-name="a" unicode="a" horiz-adv-x="538" 
d="M248 79c17.333 0 37.667 8 61 24v186l-71 -28c-22 -8.66699 -38.167 -19.667 -48.5 -33s-15.5 -33.333 -15.5 -60c0 -59.333 24.667 -89 74 -89zM468.001 375l0.000976562 -264.998c0 -33.333 10 -50 30 -50c12.667 0 25 2.66699 37 8l6 -24
c-32 -36 -72.667 -54 -122 -54c-57.333 0 -93 28.667 -107 86c-41.333 -56 -92.333 -84 -153 -84c-42 0 -75.667 11.667 -101 35s-38 55.666 -38 96.999c0 40 11.5 70.833 34.5 92.5s56.167 40.5 99.5 56.5l155 55v93c0 58.667 -20.667 88 -62 88
c-40.667 0 -61 -27.333 -61 -82c0 -20.667 3 -42.334 9 -65.001l-96 -13c-31.333 10 -47 32 -47 66c0 42 19.167 74 57.5 96s87.833 33 148.5 33c69.333 0 121.666 -13.167 156.999 -39.5s53 -69.5 53 -129.5z" />
    <glyph glyph-name="b" unicode="b" horiz-adv-x="609" 
d="M58 681l-57.999 30v25l192 47h26v-334c42 63.333 98 95 168 95c61.333 0 110.166 -21.333 146.499 -64s54.5 -102.667 54.5 -180c0 -96.667 -26.833 -172.5 -80.5 -227.5s-122.167 -82.5 -205.5 -82.5c-104.667 0 -185.667 23.333 -243 70v621zM300.001 32
c38.667 0 69 20.332 91 60.999s33 92.334 33 155.001c0 64 -11.333 113.333 -34 148s-55 52 -97 52c-27.333 0 -52.333 -8.66699 -75 -26v-280c0 -73.333 27.333 -110 82 -110z" />
    <glyph glyph-name="c" unicode="c" horiz-adv-x="487" 
d="M161 313c0 -65.333 14.167 -116.999 42.5 -154.999s67.5 -57 117.5 -57c58.667 0 104 23.333 136 70l20 -11c-31.333 -113.333 -103.333 -170 -216 -170c-70 0 -127.333 23.667 -172 71s-67 110.333 -67 189c0 85.333 24.333 155.666 73 210.999s113 83 193 83
c52 0 94 -10.333 126 -31s48 -50.667 48 -90c0 -34 -13.667 -57.333 -41 -70h-85c2.66699 25.333 4 43 4 53c0 64.667 -23 97 -69 97c-34 0 -60.833 -18 -80.5 -54s-29.5 -81.333 -29.5 -136z" />
    <glyph glyph-name="d" unicode="d" horiz-adv-x="621" 
d="M303 492c-38.667 0 -68.5 -17.833 -89.5 -53.5s-31.5 -83.5 -31.5 -143.5c0 -63.333 11.5 -114.333 34.5 -153s55.167 -58 96.5 -58c27.333 0 51.333 7.66699 72 23v271c0 76 -27.333 114 -82 114zM385 681l-58 30.0029v25l193 47h26v-673
c0 -18.667 2.16699 -31.334 6.5 -38.001s14.833 -10.334 31.5 -11.001l24 -1v-35l-197 -35h-29l3 94c-43.333 -62.667 -97.333 -94 -162 -94c-60 0 -108.5 22.667 -145.5 68s-55.5 106.666 -55.5 183.999c0 93.333 24.333 166.5 73 219.5s110.667 79.5 186 79.5
c44 0 78.667 -10.667 104 -32v172z" />
    <glyph glyph-name="e" unicode="e" horiz-adv-x="510" 
d="M279 544c67.333 0 119.333 -19.667 156 -59s55 -91 55 -155v-23h-323c-1.33301 -64 13 -114.833 43 -152.5s69 -56.5 117 -56.5c62.667 0 112.667 25.667 150 77l17 -10c-13.333 -54 -39 -96.667 -77 -128s-86.333 -47 -145 -47c-74 0 -134.167 24 -180.5 72
s-69.5 112 -69.5 192c0 86 24.833 155.833 74.5 209.5s110.5 80.5 182.5 80.5zM268 505c-29.333 0 -52.333 -14.167 -69 -42.5s-26.667 -66.5 -30 -114.5h180c0 104.667 -27 157 -81 157z" />
    <glyph glyph-name="f" unicode="f" horiz-adv-x="362" 
d="M242 484v-394.999c0 -20 5.5 -33 16.5 -39s32.833 -10.667 65.5 -14v-36h-302v36c22.667 1.33301 38.167 4.5 46.5 9.5s12.5 15.5 12.5 31.5v407h-72v33l72 22v31c0 69.333 20.333 122.166 61 158.499s94 54.5 160 54.5c94.667 0 142 -30.333 142 -91
c0 -27.333 -11.667 -47 -35 -59h-83c2.66699 16 4 30.333 4 43c0 45.333 -13 68 -39 68c-32.667 0 -49 -26.667 -49 -80v-130h120v-50h-120z" />
    <glyph glyph-name="g" unicode="g" horiz-adv-x="541" 
d="M252 189c-38 0 -72.9971 5.33398 -104.997 16.001c-21.333 -20 -32 -38.333 -32 -55c0 -21.333 11 -32 33 -32h211c61.333 0 107.333 -12.333 138 -37s46 -60 46 -106c0 -62 -27.5 -110.5 -82.5 -145.5s-126.833 -52.5 -215.5 -52.5
c-76.667 0 -136.834 10.833 -180.501 32.5s-65.5 52.167 -65.5 91.5c0 44 31 73.333 93 88c-20 8 -35.667 20.5 -47 37.5s-17 36.167 -17 57.5c0 50 32 93.667 96 131c-63.333 28.667 -95 76.334 -95 143.001c0 57.333 21.333 102.666 64 135.999s97.667 50 165 50
c31.333 0 61.666 -4.66699 90.999 -14l174 4v-62h-43l-66 3c42 -28 63 -66.333 63 -115c0 -52.667 -20.833 -94.334 -62.5 -125.001s-95.834 -46 -162.501 -46zM362.003 -28.999l-252 0.000976562c-9.33301 -10 -14 -26 -14 -48c0 -32 13.833 -57.167 41.5 -75.5
s65.167 -27.5 112.5 -27.5c52 0 95 8.16699 129 24.5s51 41.166 51 74.499c0 34.667 -22.667 52 -68 52zM258.003 225.002c46 0 69 45 69 135c0 42 -6.5 76.833 -19.5 104.5s-31.833 41.5 -56.5 41.5c-46.667 0 -70 -44 -70 -132c0 -42.667 6.66699 -78.167 20 -106.5
s32.333 -42.5 57 -42.5z" />
    <glyph glyph-name="h" unicode="h" horiz-adv-x="639" 
d="M77 77l-0.00195312 604l-57 30v25l192 47h26v-338c54 66 115.667 99 185 99c98 0 147 -54.667 147 -164v-303c0 -16 4.16699 -26.5 12.5 -31.5s23.833 -8.16699 46.5 -9.5v-36h-277v36c22.667 1.33301 37.834 4.5 45.501 9.5s11.5 15.5 11.5 31.5v292
c0 26.667 -5.5 46.5 -16.5 59.5s-29.5 19.5 -55.5 19.5c-31.333 0 -64.333 -10.667 -99 -32v-339c0 -16 3.83301 -26.5 11.5 -31.5s22.834 -8.16699 45.501 -9.5v-36h-277v36c22.667 1.33301 38.167 4.5 46.5 9.5s12.5 15.5 12.5 31.5z" />
    <glyph glyph-name="i" unicode="i" horiz-adv-x="316" 
d="M242 544v-467c0 -16 4.16699 -26.5 12.5 -31.5s23.833 -8.16699 46.5 -9.5v-36h-279v36c22.667 1.33301 38.167 4.5 46.5 9.5s12.5 15.5 12.5 31.5v353l-58 35v23l192 56h27zM161 597c-26 0 -47.332 8.16699 -63.999 24.5s-25 36.5 -25 60.5s8.33301 44.333 25 61
s38 25 64 25s47.5 -8.33301 64.5 -25s25.5 -37 25.5 -61c0 -23.333 -8.33301 -43.333 -25 -60s-38.334 -25 -65.001 -25z" />
    <glyph glyph-name="j" unicode="j" horiz-adv-x="287" 
d="M67 430l-58.002 35v23l192 56h27v-444c0 -50.667 -4.5 -89.834 -13.5 -117.501s-24.167 -53.5 -45.5 -77.5c-37.333 -41.333 -90.666 -81.666 -159.999 -120.999l-16 18l41 67c14.667 23.333 23.834 49 27.501 77s5.5 66.333 5.5 115v369zM144.998 597
c-26 0 -47.332 8.16699 -63.999 24.5s-25 36.5 -25 60.5s8.33301 44.333 25 61s38 25 64 25s47.5 -8.33301 64.5 -25s25.5 -37 25.5 -61c0 -23.333 -8.33301 -43.333 -25 -60s-38.334 -25 -65.001 -25z" />
    <glyph glyph-name="k" unicode="k" horiz-adv-x="611" 
d="M247 284l155 141.001c20.667 18.667 31 33.667 31 45c0 9.33301 -4.16699 15.666 -12.5 18.999s-24.833 6.33301 -49.5 9v36h219v-36c-36 -6 -63.333 -18.333 -82 -37l-124 -116l227 -320v-25h-169zM78 77.001l0.00195312 604l-58 30v25l192 47h26v-706
c0 -16 4.16699 -26.5 12.5 -31.5s24.166 -8.16699 47.499 -9.5v-36h-280v36c23.333 1.33301 39.166 4.5 47.499 9.5s12.5 15.5 12.5 31.5z" />
    <glyph glyph-name="l" unicode="l" horiz-adv-x="313" 
d="M238 783l0.00195312 -706c0 -16 4.16699 -26.5 12.5 -31.5s24.166 -8.16699 47.499 -9.5v-36h-280v36c23.333 1.33301 39.166 4.5 47.499 9.5s12.5 15.5 12.5 31.5v604l-58 30v25l192 47h26z" />
    <glyph glyph-name="m" unicode="m" horiz-adv-x="948" 
d="M718 77l-0.000976562 293.998c0 26.667 -5 46.334 -15 59.001s-27 19 -51 19c-27.333 0 -58 -11 -92 -33v-339c0 -16 3.5 -26.5 10.5 -31.5s21.833 -8.16699 44.5 -9.5v-36h-270v36c22 1.33301 36.5 4.5 43.5 9.5s10.5 15.5 10.5 31.5v294c0 26.667 -5 46.334 -15 59.001
s-26.667 19 -50 19c-27.333 0 -58 -11 -92 -33v-339c0 -16 3.5 -26.5 10.5 -31.5s21.833 -8.16699 44.5 -9.5v-36h-275v36c22.667 1.33301 38.167 4.5 46.5 9.5s12.5 15.5 12.5 31.5v353l-58 35v23l193 56h30l-4 -100c48 66.667 107.667 100 179 100
c76.667 0 121.334 -34 134.001 -102c50 68 111.333 102 184 102c93.333 0 140 -53.333 140 -160v-307c0 -16 4.16699 -26.5 12.5 -31.5s23.833 -8.16699 46.5 -9.5v-36h-275v36c22.667 1.33301 37.5 4.5 44.5 9.5s10.5 15.5 10.5 31.5z" />
    <glyph glyph-name="n" unicode="n" horiz-adv-x="643" 
d="M413 77l-0.00195312 292c0 26.667 -5.5 46.5 -16.5 59.5s-29.5 19.5 -55.5 19.5c-32.667 0 -65.667 -10.667 -99 -32v-339c0 -16 3.83301 -26.5 11.5 -31.5s22.834 -8.16699 45.501 -9.5v-36h-277v36c22.667 1.33301 38.167 4.5 46.5 9.5s12.5 15.5 12.5 31.5v353l-58 35
v23l193 56h30l-4 -99c54 66 115.667 99 185 99c98 0 147 -54.333 147 -163v-304c0 -16 4.16699 -26.5 12.5 -31.5s23.833 -8.16699 46.5 -9.5v-36h-277v36c22.667 1.33301 37.834 4.5 45.501 9.5s11.5 15.5 11.5 31.5z" />
    <glyph glyph-name="o" unicode="o" horiz-adv-x="580" 
d="M294 29c62.667 0 94 70 94 210c0 177.333 -34 266 -102 266c-62.667 0 -94 -70 -94 -210c0 -177.333 34 -266 102 -266zM289 -10c-80 0 -144.5 24.333 -193.5 73s-73.5 113 -73.5 193c0 84 25.333 153 76 207s115 81 193 81c80 0 144.667 -24.333 194 -73
s74 -113 74 -193c0 -84 -25.5 -153 -76.5 -207s-115.5 -81 -193.5 -81z" />
    <glyph glyph-name="p" unicode="p" horiz-adv-x="624" 
d="M315 32c38.667 0 69 20.332 91 60.999s33 92.334 33 155.001c0 64 -11.333 113.333 -34 148s-55 52 -97 52c-27.333 0 -52.333 -8.66699 -75 -26v-279c0 -74 27.333 -111 82 -111zM73 -135.001l0.00195312 565l-58 35v23l193 56h29l-4 -95c42 63.333 98 95 168 95
c61.333 0 110.166 -21.333 146.499 -64s54.5 -102.667 54.5 -180c0 -96.667 -25.833 -172.5 -77.5 -227.5s-117.5 -82.5 -197.5 -82.5c-42.667 0 -74 8 -94 24v-145c0 -17.333 5 -28.5 15 -33.5s31.667 -8.83301 65 -11.5v-36h-300v36c23.333 1.33301 39.166 4.5 47.499 9.5
s12.5 15.5 12.5 31.5z" />
    <glyph glyph-name="q" unicode="q" horiz-adv-x="605" 
d="M303 501c-38 0 -67.667 -18.167 -89 -54.5s-32 -84.833 -32 -145.5c0 -63.333 11.667 -115.333 35 -156s55.333 -61 96 -61c27.333 0 51.333 7.66699 72 23v280c0 36 -7.33301 64 -22 84s-34.667 30 -60 30zM385 -131v215.001c-42 -62.667 -96 -94 -162 -94
c-60 0 -108.5 22.667 -145.5 68s-55.5 106.666 -55.5 183.999c0 93.333 24.833 167 74.5 221s113.167 81 190.5 81c68 0 123 -20.333 165 -61l67 59h32l-5 -116v-561c0 -16 4.16699 -26.5 12.5 -31.5s23.833 -8.16699 46.5 -9.5v-36h-300v36c33.333 2.66699 55 6.5 65 11.5
s15 16.167 15 33.5z" />
    <glyph glyph-name="r" unicode="r" horiz-adv-x="433" 
d="M242 359v-270c0 -20 5.5 -33 16.5 -39s32.833 -10.667 65.5 -14v-36h-302v36c22.667 1.33301 38.167 4.5 46.5 9.5s12.5 15.5 12.5 31.5v353l-58 35v23l193 56h30l-4 -151c22 57.333 42.833 96.833 62.5 118.5s44.5 32.5 74.5 32.5c21.333 0 37 -5.66699 47 -17v-122h-21
c-38 0 -69.167 -2.83301 -93.5 -8.5s-47.5 -18.167 -69.5 -37.5z" />
    <glyph glyph-name="s" unicode="s" horiz-adv-x="466" 
d="M224 -10c-78 0 -139.666 16.665 -184.999 49.998l-6 136h41c11.333 -44 29.833 -79.667 55.5 -107s57.167 -41 94.5 -41c26 0 47.5 6.5 64.5 19.5s25.5 31.5 25.5 55.5c0 24.667 -8.33301 43.334 -25 56.001s-45.667 26.334 -87 41.001
c-57.333 19.333 -99.5 42.166 -126.5 68.499s-40.5 62.5 -40.5 108.5c0 52.667 17.833 93.667 53.5 123s83.167 44 142.5 44c65.333 0 120.666 -14.667 165.999 -44v-121h-38c-7.33301 36.667 -22 67 -44 91s-49.667 36 -83 36c-23.333 0 -42 -6.16699 -56 -18.5
s-21 -28.5 -21 -48.5c0 -21.333 7.66699 -38.333 23 -51s42 -25.667 80 -39c62 -21.333 107 -45.166 135 -71.499s42 -63.833 42 -112.5c0 -54.667 -19 -97.5 -57 -128.5s-89.333 -46.5 -154 -46.5z" />
    <glyph glyph-name="t" unicode="t" horiz-adv-x="375" 
d="M224 667v-133.002h124v-50h-124v-331c0 -52 21.333 -78 64 -78c24.667 0 49 9 73 27l14 -20c-38 -61.333 -92.667 -92 -164 -92c-46 0 -82.167 12.833 -108.5 38.5s-39.5 65.834 -39.5 120.501v335h-60v28c74 30.667 136.333 82.334 187 155.001h34z" />
    <glyph glyph-name="u" unicode="u" horiz-adv-x="623" 
d="M548 422v-311.999c0 -18.667 2.16699 -31.334 6.5 -38.001s14.833 -10.334 31.5 -11.001l24 -1v-35l-196 -35h-29l3 96c-54 -64 -112.667 -96 -176 -96c-46 0 -82.167 13.667 -108.5 41s-39.5 68.666 -39.5 123.999v253c0 16.667 -2.83301 29.334 -8.5 38.001
s-17.167 15 -34.5 19l-15 3v34l197 41h27l-5 -123v-247c0 -59.333 24.333 -89 73 -89c24 0 54 9.66699 90 29v295c0 16.667 -2.83301 29.334 -8.5 38.001s-17.167 15 -34.5 19l-15 3v34l196 41h28z" />
    <glyph glyph-name="v" unicode="v" horiz-adv-x="582" 
d="M577 534v-35.999c-17.333 -4.66699 -29 -9.5 -35 -14.5s-11.333 -13.167 -16 -24.5l-202 -465h-45l-223 465c-5.33301 11.333 -11 19.5 -17 24.5s-17.333 9.83301 -34 14.5v36h295v-36c-26.667 -3.33301 -44.5 -7.16602 -53.5 -11.499s-13.5 -11.833 -13.5 -22.5
c0 -6.66699 2.33301 -16 7 -28l113 -256l106 256c4.66699 13.333 7 22.666 7 27.999c0 10.667 -4.33301 18.167 -13 22.5s-26.667 8.16602 -54 11.499v36h178z" />
    <glyph glyph-name="w" unicode="w" horiz-adv-x="865" 
d="M647 190l97.001 245.997c4 10.667 6 20.334 6 29.001c0 10.667 -4.5 18.167 -13.5 22.5s-24.5 7.83301 -46.5 10.5v36h170v-36c-17.333 -4.66699 -29 -9.5 -35 -14.5s-11.333 -13.167 -16 -24.5l-193 -465h-51l-119 317l-136 -317h-50l-204 465
c-5.33301 11.333 -11 19.5 -17 24.5s-17.333 9.83301 -34 14.5v36h279v-36c-34.667 -4.66699 -52 -15 -52 -31c0 -9.33301 2.33301 -19.666 7 -30.999l102 -254l80 191l-33 86c-3.33301 11.333 -8.33301 19.666 -15 24.999s-17.334 10 -32.001 14v36h274v-36
c-24 -2.66699 -40.5 -6.16699 -49.5 -10.5s-13.5 -12.166 -13.5 -23.499c0 -5.33301 1.66699 -14.666 5 -27.999z" />
    <glyph glyph-name="x" unicode="x" horiz-adv-x="593" 
d="M340 98l-93.001 128.002l-94 -126c-9.33301 -12 -14 -22.667 -14 -32c0 -19.333 20.667 -30 62 -32v-36h-196v36c32 8.66699 55 22 69 40l144 190l-139 193c-6.66699 10 -13.5 17.667 -20.5 23s-17.833 10.666 -32.5 15.999v36h277v-36c-32.667 -2 -49 -10.667 -49 -26
c0 -9.33301 5 -21.333 15 -36l73 -101l74 99c11.333 15.333 17 27.666 17 36.999c0 14.667 -16.667 23.667 -50 27v36h178v-36c-29.333 -6.66699 -51.666 -20 -66.999 -40l-124 -162l160 -221c12.667 -18.667 32 -31.667 58 -39v-36h-287v36c37.333 2 56 10.333 56 25
c0 8 -5.66699 20.333 -17 37z" />
    <glyph glyph-name="y" unicode="y" horiz-adv-x="580" 
d="M352 160l106.001 275.001c5.33301 14 8 23.667 8 29c0 10.667 -4.66699 18.167 -14 22.5s-27 8.16602 -53 11.499v36h176v-36c-17.333 -4.66699 -29 -9.5 -35 -14.5s-11.333 -13.167 -16 -24.5l-224 -550c-18 -44.667 -37.333 -77.334 -58 -98.001s-47 -31 -79 -31
c-40 0 -67 14.333 -81 43v61c27.333 -6 51.666 -9 72.999 -9c28 0 50.167 4.66699 66.5 14s29.5 26 39.5 50l16 39l-221 481c-5.33301 11.333 -11 19.5 -17 24.5s-17.333 9.83301 -34 14.5v36h295v-36c-26.667 -3.33301 -44.5 -7.16602 -53.5 -11.499
s-13.5 -11.833 -13.5 -22.5c0 -6.66699 2 -16 6 -28z" />
    <glyph glyph-name="z" unicode="z" horiz-adv-x="522" 
d="M22 0v28.001l288 463h-106c-26 0 -48.5 -11.167 -67.5 -33.5s-39.5 -60.5 -61.5 -114.5h-35l15 223h33l17 -33h388v-29l-282 -462h116c30.667 0 56 11.167 76 33.5s42 62.166 66 119.499h34l-21 -195h-460z" />
    <glyph glyph-name="braceleft" unicode="{" horiz-adv-x="361" 
d="M50 306v16.0049c55.333 11.333 83 44.666 83 99.999v220c0 40.667 16.167 72.167 48.5 94.5s81.166 33.5 146.499 33.5v-27c-58.667 -6.66699 -88 -39.334 -88 -98.001v-213c0 -34.667 -9.33301 -60.667 -28 -78s-47 -30.666 -85 -39.999
c38 -8.66699 66.333 -21.834 85 -39.501s28 -43.834 28 -78.501v-212c0 -58.667 29.333 -91.334 88 -98.001v-27c-65.333 0 -114.166 11.167 -146.499 33.5s-48.5 53.833 -48.5 94.5v219c0 55.333 -27.667 88.666 -83 99.999z" />
    <glyph glyph-name="bar" unicode="|" horiz-adv-x="208" 
d="M136 770v-911h-64v911h64z" />
    <glyph glyph-name="braceright" unicode="}" horiz-adv-x="367" 
d="M317 322v-16.0049c-55.333 -11.333 -83 -44.666 -83 -99.999v-219c0 -40.667 -16.333 -72.167 -49 -94.5s-81.334 -33.5 -146.001 -33.5v27c58 6.66699 87 39.334 87 98.001v212c0 34.667 9.5 60.834 28.5 78.501s47.167 30.834 84.5 39.501
c-38 9.33301 -66.333 22.666 -85 39.999s-28 43.333 -28 78v213c0 58.667 -29 91.334 -87 98.001v27c64.667 0 113.334 -11.167 146.001 -33.5s49 -53.833 49 -94.5v-220c0 -55.333 27.667 -88.666 83 -99.999z" />
    <glyph glyph-name="asciitilde" unicode="~" horiz-adv-x="482" 
d="M422 388l30 -13c-15.333 -51.333 -33.833 -89.333 -55.5 -114s-48.834 -37 -81.501 -37c-20.667 0 -49.5 12.167 -86.5 36.5s-64.5 36.5 -82.5 36.5s-33.667 -5.66699 -47 -17s-26.333 -28 -39 -50l-30 13c15.333 51.333 33.833 89.333 55.5 114s48.834 37 81.501 37
c20.667 0 49.5 -12.167 86.5 -36.5s64.5 -36.5 82.5 -36.5s33.667 5.66699 47 17s26.333 28 39 50z" />
    <glyph glyph-name="uni00A0" unicode="&#xa0;" horiz-adv-x="183" 
 />
    <glyph glyph-name="exclamdown" unicode="&#xa1;" horiz-adv-x="279" 
d="M51 516c0 24.667 8.66699 45.834 26 63.501s38 26.5 62 26.5c24.667 0 45.667 -8.83301 63 -26.5s26 -38.834 26 -63.501c0 -25.333 -8.66699 -46.833 -26 -64.5s-38.333 -26.5 -63 -26.5c-24 0 -44.667 8.83301 -62 26.5s-26 39.167 -26 64.5zM115 370h48l74 -476h-195z
" />
    <glyph glyph-name="cent" unicode="&#xa2;" horiz-adv-x="529" 
d="M185 -113l20.999 112.001c-54 14 -97.167 43.667 -129.5 89s-48.5 101.666 -48.5 168.999c0 87.333 25.667 159.5 77 216.5s119 85.5 203 85.5h2l20 105h38l-20 -107c44 -5.33301 79.333 -18.5 106 -39.5s40 -48.833 40 -83.5c0 -33.333 -14.667 -57 -44 -71h-72
c2.66699 26.667 4 45.334 4 56.001c0 47.333 -14.333 77.666 -43 90.999l-74 -398c20.667 -10 44.667 -15 72 -15c62.667 0 112.334 26.333 149.001 79l19 -11c-15.333 -58.667 -42.833 -102.5 -82.5 -131.5s-88.167 -43.5 -145.5 -43.5c-7.33301 0 -19 0.666992 -35 2
l-19 -105h-38zM164.999 318.001c0 -84.667 22 -146 66 -184l71 384h-6c-39.333 0 -71 -18.667 -95 -56s-36 -85.333 -36 -144z" />
    <glyph glyph-name="sterling" unicode="&#xa3;" horiz-adv-x="675" 
d="M100 349l-0.000976562 40h101l5 56c14 178 98.667 267 254 267c50.667 0 92.667 -9.83301 126 -29.5s50 -48.167 50 -85.5c0 -18 -4.66699 -33.667 -14 -47s-21 -22.666 -35 -27.999h-88c7.33301 22 11 46 11 72c0 56.667 -16 85 -48 85
c-40.667 0 -67.334 -46 -80.001 -138l-19 -152h158v-40h-163l-5 -40c-6 -68.667 -18.667 -121.667 -38 -159c56 -26 120.667 -39 194 -39c64 0 96 24.667 96 74c0 11.333 -2 22.333 -6 33l24 7c20.667 -26 31 -56.333 31 -91c0 -46 -13.667 -81.5 -41 -106.5
s-65.666 -37.5 -114.999 -37.5c-80 0 -154 29.667 -222 89c-35.333 -59.333 -87.333 -89 -156 -89c-33.333 0 -60 9.16699 -80 27.5s-30 42.5 -30 72.5c0 31.333 10.333 56.166 31 74.499s46.334 27.5 77.001 27.5c25.333 0 47 -3.66699 65 -11l14 168h-97zM107.999 37
c41.333 0 65 31.668 71 95.001c-25.333 13.333 -47 20 -65 20s-32.333 -5.33301 -43 -16s-16 -25.667 -16 -45c0 -16.667 4.83301 -29.834 14.5 -39.501s22.5 -14.5 38.5 -14.5z" />
    <glyph glyph-name="currency" unicode="&#xa4;" horiz-adv-x="582" 
d="M66 543l29.001 29l72 -75c35.333 30 76.666 45 123.999 45c46.667 0 87.667 -15 123 -45l73 75l29 -29l-74 -74c27.333 -36 41 -77.333 41 -124c0 -48 -13.667 -89.333 -41 -124l74 -74l-29 -29l-73 74c-34.667 -29.333 -75.667 -44 -123 -44
c-48 0 -89.333 14.667 -124 44l-72 -74l-29 29l74 74c-27.333 34.667 -41 76 -41 124c0 46.667 13.667 88 41 124zM150.001 345c0 -43.333 13.5 -79.166 40.5 -107.499s60.5 -42.5 100.5 -42.5s73.5 14.167 100.5 42.5s40.5 64.166 40.5 107.499
c0 44 -13.5 80.167 -40.5 108.5s-60.5 42.5 -100.5 42.5s-73.5 -14.167 -100.5 -42.5s-40.5 -64.5 -40.5 -108.5z" />
    <glyph glyph-name="yen" unicode="&#xa5;" horiz-adv-x="672" 
d="M423 276l0.00292969 -23.001h163v-41h-163v-109c0 -25.333 5.33301 -41.333 16 -48s34 -12.334 70 -17.001v-38h-336v38c20 2.66699 34.167 4.66699 42.5 6s16.666 4.33301 24.999 9s13.666 10.834 15.999 18.501s3.5 18.167 3.5 31.5v109h-167v41h167v22l-33 58h-134v42
h111l-141 252c-7.33301 12.667 -14.833 21.334 -22.5 26.001s-19.5 8.33398 -35.5 11.001v38h320v-38c-28 -0.666992 -47.167 -3.83398 -57.5 -9.50098s-15.5 -15.167 -15.5 -28.5c0 -10.667 7.33301 -30 22 -58l124 -228l118 227c12 25.333 18 45.333 18 60
c0 12.667 -5.5 21.667 -16.5 27s-29.833 8.66602 -56.5 9.99902v38h206v-38c-28.667 -5.33301 -48.334 -17.666 -59.001 -36.999l-133 -252h111v-42h-133z" />
    <glyph glyph-name="brokenbar" unicode="&#xa6;" horiz-adv-x="208" 
d="M136 770v-376h-64v376h64zM136 235v-376h-64v376h64z" />
    <glyph glyph-name="section" unicode="&#xa7;" horiz-adv-x="526" 
d="M154 630c-40.667 -40.667 -61.001 -92.998 -61.001 -156.998c0 -48.667 9.83301 -95.167 29.5 -139.5s48.167 -92.166 85.5 -143.499l48 -65c28.667 -38.667 48.5 -66.834 59.5 -84.501s23.167 -42.5 36.5 -74.5s20 -61 20 -87c41.333 42.667 62 95 62 157
c0 48.667 -10 95.167 -30 139.5s-48.667 92.5 -86 144.5c-5.33301 8 -18.166 25.167 -38.499 51.5s-35.666 47.333 -45.999 63s-22.833 35.667 -37.5 60s-25.334 47.666 -32.001 69.999s-10 44.166 -10 65.499zM231.999 -202.998c-48 0 -86.3359 10.0039 -115.003 30.0039
s-43 45.667 -43 77c0 27.333 14 46.333 42 57h81v-37c0 -63.333 23.333 -95 70 -95c22 0 38.167 6.33301 48.5 19s15.5 29 15.5 49c0 18.667 -5.5 40.167 -16.5 64.5s-22.167 44.666 -33.5 60.999s-29.666 40.833 -54.999 73.5s-42.666 55.667 -51.999 69
c-40 55.333 -70.5 107.166 -91.5 155.499s-31.5 99.166 -31.5 152.499c0 70.667 23.5 128.167 70.5 172.5s104.5 66.5 172.5 66.5c48.667 0 87.334 -9.83301 116.001 -29.5s43 -45.5 43 -77.5c0 -27.333 -14.333 -46.333 -43 -57h-80v37c0 64 -23.667 96 -71 96
c-21.333 0 -37.333 -6.33301 -48 -19s-16 -29 -16 -49c0 -18.667 5.5 -40.167 16.5 -64.5s22.5 -45 34.5 -62s30.167 -41.333 54.5 -73s41.5 -54.834 51.5 -69.501c40 -56 70.667 -108 92 -156s32 -98.667 32 -152c0 -70.667 -23.5 -128.167 -70.5 -172.5
s-104.833 -66.5 -173.5 -66.5z" />
    <glyph glyph-name="dieresis" unicode="&#xa8;" 
d="M75 683c0 21.333 7.66699 39.666 23 54.999s34 23 56 23c21.333 0 39.833 -7.66699 55.5 -23s23.5 -33.666 23.5 -54.999s-7.83301 -39.666 -23.5 -54.999s-34.167 -23 -55.5 -23c-22 0 -40.667 7.66699 -56 23s-23 33.666 -23 54.999zM274 683
c0 20.667 7.66699 38.832 23 54.499s33.666 23.5 54.999 23.5c22 0 40.667 -7.66699 56 -23s23 -33.666 23 -54.999s-7.66699 -39.666 -23 -54.999s-34 -23 -56 -23c-21.333 0 -39.666 7.66699 -54.999 23s-23 33.666 -23 54.999z" />
    <glyph glyph-name="copyright" unicode="&#xa9;" horiz-adv-x="784" 
d="M68 351c0 -92 30.667 -169.833 92 -233.5s138.666 -95.5 231.999 -95.5s170.666 31.833 231.999 95.5s92 141.5 92 233.5s-30.667 169.833 -92 233.5s-138.666 95.5 -231.999 95.5s-170.666 -31.833 -231.999 -95.5s-92 -141.5 -92 -233.5zM34 351
c0 100.667 33.833 186 101.5 256s153.167 105 256.5 105s188.833 -35 256.5 -105s101.5 -155.333 101.5 -256s-33.833 -186 -101.5 -256s-153.167 -105 -256.5 -105s-188.833 35 -256.5 105s-101.5 155.333 -101.5 256zM416 175c27.333 0 49.332 9.66699 65.999 29
s31.334 48.333 44.001 87h33l-9 -112c-42.667 -25.333 -89.667 -38 -141 -38c-65.333 0 -116.833 18.833 -154.5 56.5s-56.5 86.5 -56.5 146.5c0 66 20.333 119.167 61 159.5s91 60.5 151 60.5c57.333 0 102.333 -14 135 -42v-102h-31c-14 73.333 -46.333 110 -97 110
c-35.333 0 -62 -16.667 -80 -50s-27 -74.333 -27 -123c0 -56 9.16699 -100.333 27.5 -133s44.5 -49 78.5 -49z" />
    <glyph glyph-name="ordfeminine" unicode="&#xaa;" horiz-adv-x="398" 
d="M176 411c13.333 0 28.333 6 45 18v112l-44 -18c-27.333 -12 -41 -32.667 -41 -62c0 -33.333 13.333 -50 40 -50zM325 588l0.00195312 -151c0 -25.333 7.66699 -38 23 -38c9.33301 0 19 2 29 6l5 -17c-23.333 -25.333 -51.333 -38 -84 -38
c-19.333 0 -35.833 5.5 -49.5 16.5s-22.167 25.833 -25.5 44.5c-26 -39.333 -61 -59 -105 -59c-26 0 -47.167 7.83301 -63.5 23.5s-24.5 36.5 -24.5 62.5s7.66699 46 23 60s37.333 26 66 36l102 34v46c0 48 -13.667 72 -41 72c-26 0 -39 -16.333 -39 -49
c0 -16 2.33301 -31 7 -45l-71 -10c-18.667 6 -28 20.667 -28 44c0 27.333 12.667 48.5 38 63.5s58.666 22.5 99.999 22.5c47.333 0 82.166 -9.5 104.499 -28.5s33.5 -50.833 33.5 -95.5z" />
    <glyph glyph-name="guillemotleft" unicode="&#xab;" horiz-adv-x="463" 
d="M26 272v6l188 198h41l-98 -201l98 -201h-41zM208 272v6l188 198h42l-99 -201l99 -201h-42z" />
    <glyph glyph-name="registered" unicode="&#xae;" horiz-adv-x="515" 
d="M247 586h-14v-99h14c14.667 0 26.334 4.5 35.001 13.5s13 21.167 13 36.5s-4.33301 27.333 -13 36s-20.334 13 -35.001 13zM148 607h112.001c32 0 56.167 -6.5 72.5 -19.5s24.5 -29.5 24.5 -49.5c0 -16.667 -5.33301 -30.667 -16 -42s-23.667 -19 -39 -23l44 -59
c11.333 -17.333 24 -26 38 -26v-18h-67c-10.667 6.66699 -21.667 18.667 -33 36l-40 61h-11v-55c0 -10 1.66699 -16.5 5 -19.5s10.333 -4.5 21 -4.5v-18h-111v18c11.333 0 18.666 1.5 21.999 4.5s5 9.5 5 19.5v153c0 10 -1.5 16.333 -4.5 19s-10.5 4.66699 -22.5 6v17z
M61.001 484c0 -54.667 18.667 -101.334 56 -140.001s84 -58 140 -58c56.667 0 103.667 19.333 141 58s56 85.334 56 140.001s-18.667 101.5 -56 140.5s-84.333 58.5 -141 58.5c-56 0 -102.667 -19.5 -140 -58.5s-56 -85.833 -56 -140.5zM30.001 484
c0 64 21.499 118 64.499 162s97.167 66 162.5 66c66 0 120.5 -22 163.5 -66s64.5 -98 64.5 -162c0 -63.333 -21.667 -117 -65 -161s-97.666 -66 -162.999 -66s-119.5 22 -162.5 66s-64.5 97.667 -64.5 161z" />
    <glyph glyph-name="macron" unicode="&#xaf;" 
d="M114 624v77h277v-77h-277z" />
    <glyph glyph-name="degree" unicode="&#xb0;" horiz-adv-x="283" 
d="M69 592c0 -22.667 6.5 -41.167 19.5 -55.5s30.833 -21.5 53.5 -21.5c22 0 39.5 7.16699 52.5 21.5s19.5 32.833 19.5 55.5s-6.5 41.167 -19.5 55.5s-30.5 21.5 -52.5 21.5c-22.667 0 -40.5 -7.16699 -53.5 -21.5s-19.5 -32.833 -19.5 -55.5zM20 592
c0 34 11.833 62.5 35.5 85.5s52.5 34.5 86.5 34.5s62.667 -11.5 86 -34.5s35 -51.5 35 -85.5s-11.667 -62.5 -35 -85.5s-52 -34.5 -86 -34.5s-62.833 11.5 -86.5 34.5s-35.5 51.5 -35.5 85.5z" />
    <glyph glyph-name="plusminus" unicode="&#xb1;" horiz-adv-x="571" 
d="M254 606h62v-144h190v-62h-190v-143h-62v143h-188v62h188v144zM66 139v63h440v-63h-440z" />
    <glyph glyph-name="twosuperior" unicode="&#xb2;" horiz-adv-x="387" 
d="M143 391h107.002c17.333 0 30.166 2.83301 38.499 8.5s18.833 18.167 31.5 37.5h19l-12 -133h-297v22l112 105c27.333 26.667 46.666 50 57.999 70s17 41.333 17 64c0 22 -5.83301 39 -17.5 51s-28.5 18 -50.5 18c-35.333 0 -66 -15 -92 -45l-18 16
c15.333 30 36.5 54.833 63.5 74.5s58.833 29.5 95.5 29.5c38 0 67.667 -10 89 -30s32 -48 32 -84c0 -20.667 -4 -39.667 -12 -57s-22.167 -35.333 -42.5 -54s-37.5 -33.167 -51.5 -43.5z" />
    <glyph glyph-name="threesuperior" unicode="&#xb3;" horiz-adv-x="380" 
d="M212 528c38.667 -1.33301 69.668 -11.6699 93.001 -31.0029s35 -45.333 35 -78c0 -36.667 -15.667 -65.5 -47 -86.5s-70 -31.5 -116 -31.5c-45.333 0 -79.833 8 -103.5 24s-35.5 36 -35.5 60c0 20 9 35 27 45h62c-3.33301 -9.33301 -5 -18.666 -5 -27.999
c0 -23.333 5.16699 -41.5 15.5 -54.5s25.166 -19.5 44.499 -19.5c40 0 60 26 60 78c0 56 -30.667 84 -92 84h-14l-6 21c30 10.667 51.667 22 65 34s20 26.667 20 44c0 15.333 -5 27.833 -15 37.5s-24.333 14.5 -43 14.5c-31.333 0 -58 -15.333 -80 -46l-23 16
c32.667 67.333 84 101 154 101c34 0 60.5 -8 79.5 -24s28.5 -37.667 28.5 -65c0 -25.333 -10 -46.166 -30 -62.499s-44.667 -27.166 -74 -32.499z" />
    <glyph glyph-name="acute" unicode="&#xb4;" 
d="M188 764h159v-8l-169 -157h-42z" />
    <glyph glyph-name="mu" unicode="&#xb5;" horiz-adv-x="623" 
d="M214 1l12 -174v-14l-162 -10v605c0 16.667 -2.83301 29.334 -8.5 38.001s-17.167 15 -34.5 19l-15 3v34l197 41h27l-5 -123v-247c0 -59.333 24.333 -89 73 -89c24 0 54 9.66699 90 29v295c0 16.667 -2.83301 29.334 -8.5 38.001s-17.167 15 -34.5 19l-15 3v34l196 41h28
l-6 -121v-312c0 -18.667 2.16699 -31.334 6.5 -38.001s14.833 -10.334 31.5 -11.001l24 -1v-35l-196 -35h-29l3 96c-34.667 -64 -83 -96 -145 -96c-12 0 -21.667 3.66699 -29 11z" />
    <glyph glyph-name="paragraph" unicode="&#xb6;" horiz-adv-x="614" 
d="M317 -197l0.000976562 403.001c-85.333 0 -152 23.833 -200 71.5s-72 107.167 -72 178.5s23.833 130.166 71.5 176.499s114.5 69.5 200.5 69.5h272v-38c-38.667 0 -65.334 -4.83301 -80.001 -14.5s-22 -29.167 -22 -58.5v-788h-45v860h-80v-860h-45zM317.001 243.001
l-0.000976562 422.002c-28 -2 -51.833 -13.833 -71.5 -35.5s-33.667 -47.334 -42 -77.001s-12.5 -61.834 -12.5 -96.501c0 -54.667 10.833 -103.167 32.5 -145.5s52.834 -64.833 93.501 -67.5z" />
    <glyph glyph-name="periodcentered" unicode="&#xb7;" horiz-adv-x="248" 
d="M30 304c0 26.667 9.16699 49 27.5 67s40.5 27 66.5 27s48.167 -9 66.5 -27s27.5 -40.333 27.5 -67c0 -27.333 -9 -49.833 -27 -67.5s-40.333 -26.5 -67 -26.5s-49 8.83301 -67 26.5s-27 40.167 -27 67.5z" />
    <glyph glyph-name="cedilla" unicode="&#xb8;" 
d="M154 -228l-8.00098 32c34.667 0 61.334 4.66699 80.001 14s28 21.333 28 36c0 13.333 -6.5 22.5 -19.5 27.5s-33.167 8.16699 -60.5 9.5l47 117h34l-20 -50c32 0 57.333 -7 76 -21s28 -33.667 28 -59c0 -34.667 -17.5 -61 -52.5 -79s-79.167 -27 -132.5 -27z" />
    <glyph glyph-name="onesuperior" unicode="&#xb9;" horiz-adv-x="337" 
d="M193 712h28.998v-333c0 -16.667 4.33301 -27.167 13 -31.5s28.334 -7.5 59.001 -9.5v-31h-254v31c32.667 2 53 5.16699 61 9.5s12 14.833 12 31.5v225h-73v27l25 5c31.333 6 56.333 14.667 75 26s36.334 28 53.001 50z" />
    <glyph glyph-name="ordmasculine" unicode="&#xba;" horiz-adv-x="408" 
d="M208 380c40.667 0 61 46 61 138c0 48.667 -5.83301 88.167 -17.5 118.5s-28.834 45.5 -51.501 45.5c-40.667 0 -61 -46 -61 -138c0 -48.667 5.83301 -88.167 17.5 -118.5s28.834 -45.5 51.501 -45.5zM200 350c-52 0 -93.833 16 -125.5 48s-47.5 74 -47.5 126
c0 56.667 16.833 102.167 50.5 136.5s77.167 51.5 130.5 51.5c52 0 93.833 -16 125.5 -48s47.5 -74 47.5 -126c0 -56.667 -16.833 -102.167 -50.5 -136.5s-77.167 -51.5 -130.5 -51.5z" />
    <glyph glyph-name="guillemotright" unicode="&#xbb;" horiz-adv-x="463" 
d="M438 278v-6l-189 -198h-41l99 201l-99 201h41zM255 278v-6l-188 -198h-41l99 201l-99 201h41z" />
    <glyph glyph-name="onequarter" unicode="&#xbc;" horiz-adv-x="787" 
d="M425 141h137v171zM193 712l28.999 0.000976562v-333c0 -16.667 4.33301 -27.167 13 -31.5s28.334 -7.5 59.001 -9.5v-31h-254v31c32.667 2 53 5.16699 61 9.5s12 14.833 12 31.5v225h-73v27l25 5c31.333 6.66699 56.5 15.667 75.5 27s36.5 27.666 52.5 48.999z
M148.999 -9.99902l438 722h51l-439 -722h-50zM725.999 0.000976562h-220v31c24 1.33301 39.333 4.33301 46 9s10 15.334 10 32.001v33h-189v28l210 266h87v-258h78v-36h-78v-33c0 -16.667 3.33301 -27.334 10 -32.001s22 -7.66699 46 -9v-31z" />
    <glyph glyph-name="onehalf" unicode="&#xbd;" horiz-adv-x="802" 
d="M193 712h28.998v-333c0 -16.667 4.33301 -27.167 13 -31.5s28.334 -7.5 59.001 -9.5v-31h-254v31c32.667 2 53 5.16699 61 9.5s12 14.833 12 31.5v225h-73v27l25 5c31.333 6 56.333 14.667 75 26s36.334 28 53.001 50zM148.998 -10l438 722h51l-439 -722h-50zM557.998 87
l107 -0.000976562c18 0 31 2.66699 39 8s18 18 30 38h20l-12 -133h-297v22l111 105c27.333 26.667 46.833 50 58.5 70s17.5 41.333 17.5 64c0 22 -5.83301 39 -17.5 51s-28.5 18 -50.5 18c-35.333 0 -66 -15 -92 -45l-18 16c15.333 30 36.5 54.833 63.5 74.5
s58.833 29.5 95.5 29.5c38 0 67.667 -10.167 89 -30.5s32 -48.166 32 -83.499c0 -20.667 -4 -39.667 -12 -57s-22.167 -35.333 -42.5 -54s-37.5 -33.167 -51.5 -43.5z" />
    <glyph glyph-name="threequarters" unicode="&#xbe;" horiz-adv-x="805" 
d="M213 530c38.667 -1.33301 69.501 -11.8359 92.501 -31.5029s34.5 -45.5 34.5 -77.5c0 -37.333 -15.667 -66.666 -47 -87.999s-70 -32 -116 -32c-45.333 0 -79.833 8 -103.5 24s-35.5 36 -35.5 60c0 20 9 35 27 45h62c-3.33301 -9.33301 -5 -18.666 -5 -27.999
c0 -23.333 5.16699 -41.5 15.5 -54.5s25.166 -19.5 44.499 -19.5c40 0 60 26 60 78c0 56 -30.667 84 -92 84h-14l-6 21c30 10.667 51.667 22 65 34s20 26.667 20 44c0 15.333 -5 27.833 -15 37.5s-24.333 14.5 -43 14.5c-31.333 0 -58 -15.333 -80 -46l-23 16
c32.667 67.333 84 101 154 101c34 0 60.5 -8 79.5 -24s28.5 -37.667 28.5 -65c0 -25.333 -9.83301 -45.666 -29.5 -60.999s-44.167 -26 -73.5 -32zM444.001 140.997h137v171zM168.001 -10.0029l438 722h50l-438 -722h-50zM745.001 -0.00292969h-221v31
c24 1.33301 39.5 4.33301 46.5 9s10.5 15.334 10.5 32.001v33h-189v28l210 266h86v-258h79v-36h-79v-33c0 -16.667 3.5 -27.334 10.5 -32.001s22.5 -7.66699 46.5 -9v-31z" />
    <glyph glyph-name="questiondown" unicode="&#xbf;" horiz-adv-x="456" 
d="M153 5c0 -26.667 6.83496 -47.667 20.502 -63s33.167 -23 58.5 -23c27.333 0 47.666 9.66699 60.999 29s20 43.333 20 72c0 20.667 -1.33301 39 -4 55h101c23.333 -13.333 35 -33.666 35 -60.999c0 -38.667 -19.667 -70 -59 -94s-90 -36 -152 -36
c-67.333 0 -119.833 14.5 -157.5 43.5s-56.5 70.833 -56.5 125.5c0 40 11.5 74.5 34.5 103.5s57.5 58.167 103.5 87.5c29.333 18 49.833 35 61.5 51s17.5 36.667 17.5 62v18h21c19.333 -9.33301 35.166 -23.333 47.499 -42s18.5 -40.334 18.5 -65.001
c0 -46.667 -26.333 -90 -79 -130c-21.333 -16.667 -37.333 -29.667 -48 -39s-20.667 -22.5 -30 -39.5s-14 -35.167 -14 -54.5zM335.002 516c0 -25.333 -8.66699 -46.833 -26 -64.5s-38.333 -26.5 -63 -26.5s-45.667 8.83301 -63 26.5s-26 39.167 -26 64.5
c0 24.667 8.66699 45.834 26 63.501s38.333 26.5 63 26.5s45.667 -8.83301 63 -26.5s26 -38.834 26 -63.501z" />
    <glyph glyph-name="Agrave" unicode="&#xc0;" horiz-adv-x="743" 
d="M482 122l-40.998 103.001h-262l-39 -103c-6 -16.667 -9 -29.334 -9 -38.001c0 -15.333 6.66699 -26.5 20 -33.5s34.666 -11.167 63.999 -12.5v-38h-210v38c10.667 2 19 4 25 6s12.167 5.5 18.5 10.5s11.166 11.833 14.499 20.5l214 552l-32 79h181l253 -631
c4.66699 -12 11.5 -20.5 20.5 -25.5s21.833 -8.83301 38.5 -11.5v-38h-329v38c28.667 1.33301 49.5 5.33301 62.5 12s19.5 17.667 19.5 33c0 8 -3 21 -9 39zM307.002 562.001l-110 -289h225zM178.002 894.001h161l50 -149h-46l-165 141v8z" />
    <glyph glyph-name="Aacute" unicode="&#xc1;" horiz-adv-x="743" 
d="M482 122l-40.998 103.001h-262l-39 -103c-6 -16.667 -9 -29.334 -9 -38.001c0 -15.333 6.66699 -26.5 20 -33.5s34.666 -11.167 63.999 -12.5v-38h-210v38c10.667 2 19 4 25 6s12.167 5.5 18.5 10.5s11.166 11.833 14.499 20.5l214 552l-32 79h181l253 -631
c4.66699 -12 11.5 -20.5 20.5 -25.5s21.833 -8.83301 38.5 -11.5v-38h-329v38c28.667 1.33301 49.5 5.33301 62.5 12s19.5 17.667 19.5 33c0 8 -3 21 -9 39zM307.002 562.001l-110 -289h225zM350.002 894.001h161v-8l-165 -141h-46z" />
    <glyph glyph-name="Acircumflex" unicode="&#xc2;" horiz-adv-x="743" 
d="M482 122l-40.998 103.001h-262l-39 -103c-6 -16.667 -9 -29.334 -9 -38.001c0 -15.333 6.66699 -26.5 20 -33.5s34.666 -11.167 63.999 -12.5v-38h-210v38c10.667 2 19 4 25 6s12.167 5.5 18.5 10.5s11.166 11.833 14.499 20.5l214 552l-32 79h181l253 -631
c4.66699 -12 11.5 -20.5 20.5 -25.5s21.833 -8.83301 38.5 -11.5v-38h-329v38c28.667 1.33301 49.5 5.33301 62.5 12s19.5 17.667 19.5 33c0 8 -3 21 -9 39zM307.002 562.001l-110 -289h225zM404.002 900.001l122 -155h-48l-129 76l-129 -76h-48l122 155h110z" />
    <glyph glyph-name="Atilde" unicode="&#xc3;" horiz-adv-x="743" 
d="M482 122l-40.998 103.001h-262l-39 -103c-6 -16.667 -9 -29.334 -9 -38.001c0 -15.333 6.66699 -26.5 20 -33.5s34.666 -11.167 63.999 -12.5v-38h-210v38c10.667 2 19 4 25 6s12.167 5.5 18.5 10.5s11.166 11.833 14.499 20.5l214 552l-32 79h181l253 -631
c4.66699 -12 11.5 -20.5 20.5 -25.5s21.833 -8.83301 38.5 -11.5v-38h-329v38c28.667 1.33301 49.5 5.33301 62.5 12s19.5 17.667 19.5 33c0 8 -3 21 -9 39zM307.002 562.001l-110 -289h225zM417.002 745.001c-22 0 -47.501 10 -76.501 30s-50.167 30 -63.5 30
c-22.667 0 -45.334 -18.667 -68.001 -56l-31 17c18.667 46 36.334 79.167 53.001 99.5s37.334 30.5 62.001 30.5c22 0 47.5 -10 76.5 -30s50.167 -30 63.5 -30c24 0 46.667 18.667 68 56l31 -17c-18 -46 -35.5 -79.167 -52.5 -99.5s-37.833 -30.5 -62.5 -30.5z" />
    <glyph glyph-name="Adieresis" unicode="&#xc4;" horiz-adv-x="743" 
d="M482 122l-40.998 103.001h-262l-39 -103c-6 -16.667 -9 -29.334 -9 -38.001c0 -15.333 6.66699 -26.5 20 -33.5s34.666 -11.167 63.999 -12.5v-38h-210v38c10.667 2 19 4 25 6s12.167 5.5 18.5 10.5s11.166 11.833 14.499 20.5l214 552l-32 79h181l253 -631
c4.66699 -12 11.5 -20.5 20.5 -25.5s21.833 -8.83301 38.5 -11.5v-38h-329v38c28.667 1.33301 49.5 5.33301 62.5 12s19.5 17.667 19.5 33c0 8 -3 21 -9 39zM307.002 562.001l-110 -289h225zM169.002 823.001c0 21.333 7.66699 39.5 23 54.5s34 22.5 56 22.5
c21.333 0 39.833 -7.66699 55.5 -23s23.5 -33.333 23.5 -54c0 -21.333 -7.83301 -39.666 -23.5 -54.999s-34.167 -23 -55.5 -23c-22 0 -40.667 7.66699 -56 23s-23 33.666 -23 54.999zM372.002 823.001c0 20.667 7.66699 38.667 23 54s33.666 23 54.999 23
c22 0 40.667 -7.5 56 -22.5s23 -33.167 23 -54.5s-7.66699 -39.666 -23 -54.999s-34 -23 -56 -23c-21.333 0 -39.666 7.66699 -54.999 23s-23 33.666 -23 54.999z" />
    <glyph glyph-name="Aring" unicode="&#xc5;" horiz-adv-x="743" 
d="M482 122l-40.998 103.001h-262l-39 -103c-6 -16.667 -9 -29.334 -9 -38.001c0 -15.333 6.66699 -26.5 20 -33.5s34.666 -11.167 63.999 -12.5v-38h-210v38c10.667 2 19 4 25 6s12.167 5.5 18.5 10.5s11.166 11.833 14.499 20.5l214 552l-32 79h181l253 -631
c4.66699 -12 11.5 -20.5 20.5 -25.5s21.833 -8.83301 38.5 -11.5v-38h-329v38c28.667 1.33301 49.5 5.33301 62.5 12s19.5 17.667 19.5 33c0 8 -3 21 -9 39zM307.002 562.001l-110 -289h225zM245.002 825.001c0 28 9.5 51.333 28.5 70s42.833 28 71.5 28
s52.334 -9.33301 71.001 -28s28 -42 28 -70c0 -27.333 -9.33301 -50.166 -28 -68.499s-42.334 -27.5 -71.001 -27.5s-52.5 9.16699 -71.5 27.5s-28.5 41.166 -28.5 68.499zM294.002 825.001c0 -15.333 4.50098 -27.833 13.501 -37.5s21.5 -14.5 37.5 -14.5
c15.333 0 27.666 5 36.999 15s14 22.333 14 37c0 16 -4.5 29 -13.5 39s-21.5 15 -37.5 15s-28.5 -5 -37.5 -15s-13.5 -23 -13.5 -39z" />
    <glyph glyph-name="AE" unicode="&#xc6;" horiz-adv-x="1030" 
d="M63 75l352.002 553.999c-12.667 20 -45 31.667 -97 35v38h655l5 -187h-33c-26.667 58 -50.334 96.5 -71.001 115.5s-51.667 28.5 -93 28.5h-122v-272h112c22 0 37.667 6.66699 47 20s16.333 37.333 21 72h40v-233h-40c-4.66699 34 -11.667 57.667 -21 71s-25 20 -47 20
h-112v-226c0 -26 6.5 -43.833 19.5 -53.5s34.833 -14.5 65.5 -14.5h49c40 0 70.667 10.667 92 32s50.666 66 87.999 134h40l-32 -209h-569v38c34.667 4 56.167 9.83301 64.5 17.5s12.5 24.834 12.5 51.501v141h-252l-80 -126c-10 -16 -15 -29.667 -15 -41
c0 -26.667 30 -41 90 -43v-38h-227v38c26 4.66699 45.333 17 58 37zM489.002 644.999l-222 -349h222v349z" />
    <glyph glyph-name="Ccedilla" unicode="&#xc7;" horiz-adv-x="669" 
d="M291 -228l-8 32c34.667 0 61.334 4.66699 80.001 14s28 21.333 28 36c0 13.333 -6.5 22.5 -19.5 27.5s-33.167 8.16699 -60.5 9.5l40 101c-100.667 6.66699 -179.667 40.5 -237 101.5s-86 140.833 -86 239.5c0 114 34.833 205.667 104.5 275s156.5 104 260.5 104
c88.667 0 162.667 -19.667 222 -59l2 -167h-43c-24.667 120 -83.334 180 -176.001 180c-62.667 0 -110 -28.167 -142 -84.5s-48 -129.833 -48 -220.5c0 -95.333 17.5 -173 52.5 -233s83.833 -90 146.5 -90c46 0 84.667 16.5 116 49.5s56 85.833 74 158.5h46l-16 -193
c-62 -42 -141.333 -63 -238 -63h-4l-13 -32c32 0 57.333 -7 76 -21s28 -33.667 28 -59c0 -34.667 -17.5 -61 -52.5 -79s-79.167 -27 -132.5 -27z" />
    <glyph glyph-name="Egrave" unicode="&#xc8;" horiz-adv-x="644" 
d="M178 894h161l50 -149h-46l-165 141v8zM27 0l0.00292969 37.9961c34 4 55.167 9.83301 63.5 17.5s12.5 24.834 12.5 51.501v488c0 26.667 -4.16699 43.834 -12.5 51.501s-29.5 13.5 -63.5 17.5v38h561l5 -187h-34c-26 57.333 -49.333 95.666 -70 114.999
s-51.667 29 -93 29h-123v-272h113c22 0 37.667 6.66699 47 20s16.333 37.333 21 72h39v-233h-39c-4.66699 34 -11.667 57.667 -21 71s-25 20 -47 20h-113v-226c0 -26 6.66699 -43.833 20 -53.5s35.333 -14.5 66 -14.5h49c21.333 0 39.166 2.33301 53.499 7
s28.666 14.834 42.999 30.501s26.666 31.834 36.999 48.501s25.833 43.334 46.5 80.001h39l-31 -209h-569z" />
    <glyph glyph-name="Eacute" unicode="&#xc9;" horiz-adv-x="644" 
d="M342 894h161v-8l-165 -141h-46zM27 0l0.00292969 37.9961c34 4 55.167 9.83301 63.5 17.5s12.5 24.834 12.5 51.501v488c0 26.667 -4.16699 43.834 -12.5 51.501s-29.5 13.5 -63.5 17.5v38h561l5 -187h-34c-26 57.333 -49.333 95.666 -70 114.999s-51.667 29 -93 29h-123
v-272h113c22 0 37.667 6.66699 47 20s16.333 37.333 21 72h39v-233h-39c-4.66699 34 -11.667 57.667 -21 71s-25 20 -47 20h-113v-226c0 -26 6.66699 -43.833 20 -53.5s35.333 -14.5 66 -14.5h49c21.333 0 39.166 2.33301 53.499 7s28.666 14.834 42.999 30.501
s26.666 31.834 36.999 48.501s25.833 43.334 46.5 80.001h39l-31 -209h-569z" />
    <glyph glyph-name="Ecircumflex" unicode="&#xca;" horiz-adv-x="644" 
d="M27 0l0.00292969 37.9961c34 4 55.167 9.83301 63.5 17.5s12.5 24.834 12.5 51.501v488c0 26.667 -4.16699 43.834 -12.5 51.501s-29.5 13.5 -63.5 17.5v38h561l5 -187h-34c-26 57.333 -49.333 95.666 -70 114.999s-51.667 29 -93 29h-123v-272h113
c22 0 37.667 6.66699 47 20s16.333 37.333 21 72h39v-233h-39c-4.66699 34 -11.667 57.667 -21 71s-25 20 -47 20h-113v-226c0 -26 6.66699 -43.833 20 -53.5s35.333 -14.5 66 -14.5h49c21.333 0 39.166 2.33301 53.499 7s28.666 14.834 42.999 30.501
s26.666 31.834 36.999 48.501s25.833 43.334 46.5 80.001h39l-31 -209h-569zM395.003 899.996l122 -155h-48l-129 76l-129 -76h-48l122 155h110z" />
    <glyph glyph-name="Edieresis" unicode="&#xcb;" horiz-adv-x="644" 
d="M160 823c0 21.333 7.66699 39.5 23 54.5s34 22.5 56 22.5c21.333 0 39.833 -7.66699 55.5 -23s23.5 -33.333 23.5 -54c0 -21.333 -7.83301 -39.666 -23.5 -54.999s-34.167 -23 -55.5 -23c-22 0 -40.667 7.66699 -56 23s-23 33.666 -23 54.999zM363 823
c0 20.667 7.66699 38.667 23 54s33.666 23 54.999 23c22 0 40.667 -7.5 56 -22.5s23 -33.167 23 -54.5s-7.66699 -39.666 -23 -54.999s-34 -23 -56 -23c-21.333 0 -39.666 7.66699 -54.999 23s-23 33.666 -23 54.999zM27 0l0.00292969 37.9961
c34 4 55.167 9.83301 63.5 17.5s12.5 24.834 12.5 51.501v488c0 26.667 -4.16699 43.834 -12.5 51.501s-29.5 13.5 -63.5 17.5v38h561l5 -187h-34c-26 57.333 -49.333 95.666 -70 114.999s-51.667 29 -93 29h-123v-272h113c22 0 37.667 6.66699 47 20s16.333 37.333 21 72
h39v-233h-39c-4.66699 34 -11.667 57.667 -21 71s-25 20 -47 20h-113v-226c0 -26 6.66699 -43.833 20 -53.5s35.333 -14.5 66 -14.5h49c21.333 0 39.166 2.33301 53.499 7s28.666 14.834 42.999 30.501s26.666 31.834 36.999 48.501s25.833 43.334 46.5 80.001h39l-31 -209
h-569z" />
    <glyph glyph-name="Igrave" unicode="&#xcc;" horiz-adv-x="377" 
d="M273 595v-488c0 -26.667 4.16699 -43.834 12.5 -51.501s29.833 -13.5 64.5 -17.5v-38h-323v38c34 4 55.167 9.83301 63.5 17.5s12.5 24.834 12.5 51.501v488c0 26.667 -4.16699 43.834 -12.5 51.501s-29.5 13.5 -63.5 17.5v38h323v-38
c-34.667 -4 -56.167 -9.83301 -64.5 -17.5s-12.5 -24.834 -12.5 -51.501zM25 894h161l50 -149h-46l-165 141v8z" />
    <glyph glyph-name="Iacute" unicode="&#xcd;" horiz-adv-x="377" 
d="M273 595v-488c0 -26.667 4.16699 -43.834 12.5 -51.501s29.833 -13.5 64.5 -17.5v-38h-323v38c34 4 55.167 9.83301 63.5 17.5s12.5 24.834 12.5 51.501v488c0 26.667 -4.16699 43.834 -12.5 51.501s-29.5 13.5 -63.5 17.5v38h323v-38
c-34.667 -4 -56.167 -9.83301 -64.5 -17.5s-12.5 -24.834 -12.5 -51.501zM190 894h161v-8l-165 -141h-46z" />
    <glyph glyph-name="Icircumflex" unicode="&#xce;" horiz-adv-x="377" 
d="M273 595v-488c0 -26.667 4.16699 -43.834 12.5 -51.501s29.833 -13.5 64.5 -17.5v-38h-323v38c34 4 55.167 9.83301 63.5 17.5s12.5 24.834 12.5 51.501v488c0 26.667 -4.16699 43.834 -12.5 51.501s-29.5 13.5 -63.5 17.5v38h323v-38
c-34.667 -4 -56.167 -9.83301 -64.5 -17.5s-12.5 -24.834 -12.5 -51.501zM241 900l118 -155h-47l-124 76l-124 -76h-47l118 155h106z" />
    <glyph glyph-name="Idieresis" unicode="&#xcf;" horiz-adv-x="377" 
d="M273 595v-488c0 -26.667 4.16699 -43.834 12.5 -51.501s29.833 -13.5 64.5 -17.5v-38h-323v38c34 4 55.167 9.83301 63.5 17.5s12.5 24.834 12.5 51.501v488c0 26.667 -4.16699 43.834 -12.5 51.501s-29.5 13.5 -63.5 17.5v38h323v-38
c-34.667 -4 -56.167 -9.83301 -64.5 -17.5s-12.5 -24.834 -12.5 -51.501zM8 823c0 21.333 7.66699 39.5 23 54.5s34 22.5 56 22.5c21.333 0 39.833 -7.66699 55.5 -23s23.5 -33.333 23.5 -54c0 -21.333 -7.83301 -39.666 -23.5 -54.999s-34.167 -23 -55.5 -23
c-22 0 -40.667 7.66699 -56 23s-23 33.666 -23 54.999zM211 823c0 20.667 7.66699 38.667 23 54s33.666 23 54.999 23c22 0 40.667 -7.5 56 -22.5s23 -33.167 23 -54.5s-7.66699 -39.666 -23 -54.999s-34 -23 -56 -23c-21.333 0 -39.666 7.66699 -54.999 23
s-23 33.666 -23 54.999z" />
    <glyph glyph-name="Eth" unicode="&#xd0;" horiz-adv-x="778" 
d="M37 330l-0.000976562 54.998h76v210c0 26.667 -4.16699 43.834 -12.5 51.501s-29.5 13.5 -63.5 17.5v38h317c130 0 228.5 -31.5 295.5 -94.5s100.5 -144.833 100.5 -245.5c0 -112.667 -34.167 -201.167 -102.5 -265.5s-159.166 -96.5 -272.499 -96.5h-338v38
c34 4 55.167 9.83301 63.5 17.5s12.5 24.834 12.5 51.501v223h-76zM323.999 658.998h-41v-274h133v-55h-133v-216c0 -28 5.66699 -46.833 17 -56.5s30.333 -14.5 57 -14.5h14c60 0 108.333 26.833 145 80.5s55 126.5 55 218.5c0 96 -21 172.833 -63 230.5
s-103.333 86.5 -184 86.5z" />
    <glyph glyph-name="Ntilde" unicode="&#xd1;" horiz-adv-x="750" 
d="M458 745c-22 0 -47.501 10 -76.501 30s-50.167 30 -63.5 30c-22.667 0 -45.334 -18.667 -68.001 -56l-31 17c18.667 46 36.334 79.167 53.001 99.5s37.334 30.5 62.001 30.5c22 0 47.5 -10 76.5 -30s50.167 -30 63.5 -30c24 0 46.667 18.667 68 56l31 -17
c-18 -46 -35.5 -79.167 -52.5 -99.5s-37.833 -30.5 -62.5 -30.5zM595.999 271l0.000976562 324c0 26 -6.16699 43.167 -18.5 51.5s-39.5 14.166 -81.5 17.499v38h237v-38c-34.667 -4 -56.167 -9.83301 -64.5 -17.5s-12.5 -24.834 -12.5 -51.501v-597h-60l-432 542v-433
c0 -26 6.16699 -43.167 18.5 -51.5s39.5 -14.166 81.5 -17.499v-38h-236v38c34 4 55.167 9.83301 63.5 17.5s12.5 24.834 12.5 51.501v494c-15.333 23.333 -27.833 39.333 -37.5 48s-22.834 13.667 -39.501 15v38h227z" />
    <glyph glyph-name="Ograve" unicode="&#xd2;" horiz-adv-x="734" 
d="M207 894h161l50 -149h-46l-165 141v8zM372 35c50.667 0 88.833 29.668 114.5 89.001s38.5 132 38.5 218c0 60.667 -5.33301 114.5 -16 161.5s-28.5 86 -53.5 117s-56.167 46.5 -93.5 46.5c-34.667 0 -64 -15.167 -88 -45.5s-40.833 -67.833 -50.5 -112.5
s-14.5 -94.334 -14.5 -149.001c0 -60.667 5.33301 -114.5 16 -161.5s28.5 -86 53.5 -117s56.167 -46.5 93.5 -46.5zM358.999 -9.99902c-103.333 0 -184.333 33.5 -243 100.5s-88 149.167 -88 246.5c0 113.333 32.333 204.166 97 272.499s147.667 102.5 249 102.5
c104 0 185.333 -33.333 244 -100s88 -149 88 -247c0 -113.333 -32.5 -204.166 -97.5 -272.499s-148.167 -102.5 -249.5 -102.5z" />
    <glyph glyph-name="Oacute" unicode="&#xd3;" horiz-adv-x="734" 
d="M371 894h161v-8l-165 -141h-46zM372 35c50.667 0 88.833 29.668 114.5 89.001s38.5 132 38.5 218c0 60.667 -5.33301 114.5 -16 161.5s-28.5 86 -53.5 117s-56.167 46.5 -93.5 46.5c-34.667 0 -64 -15.167 -88 -45.5s-40.833 -67.833 -50.5 -112.5
s-14.5 -94.334 -14.5 -149.001c0 -60.667 5.33301 -114.5 16 -161.5s28.5 -86 53.5 -117s56.167 -46.5 93.5 -46.5zM358.999 -9.99902c-103.333 0 -184.333 33.5 -243 100.5s-88 149.167 -88 246.5c0 113.333 32.333 204.166 97 272.499s147.667 102.5 249 102.5
c104 0 185.333 -33.333 244 -100s88 -149 88 -247c0 -113.333 -32.5 -204.166 -97.5 -272.499s-148.167 -102.5 -249.5 -102.5z" />
    <glyph glyph-name="Ocircumflex" unicode="&#xd4;" horiz-adv-x="734" 
d="M372 35c50.667 0 88.833 29.668 114.5 89.001s38.5 132 38.5 218c0 60.667 -5.33301 114.5 -16 161.5s-28.5 86 -53.5 117s-56.167 46.5 -93.5 46.5c-34.667 0 -64 -15.167 -88 -45.5s-40.833 -67.833 -50.5 -112.5s-14.5 -94.334 -14.5 -149.001
c0 -60.667 5.33301 -114.5 16 -161.5s28.5 -86 53.5 -117s56.167 -46.5 93.5 -46.5zM358.999 -9.99902c-103.333 0 -184.333 33.5 -243 100.5s-88 149.167 -88 246.5c0 113.333 32.333 204.166 97 272.499s147.667 102.5 249 102.5c104 0 185.333 -33.333 244 -100
s88 -149 88 -247c0 -113.333 -32.5 -204.166 -97.5 -272.499s-148.167 -102.5 -249.5 -102.5zM423.999 900.001l122 -155h-48l-129 76l-129 -76h-48l122 155h110z" />
    <glyph glyph-name="Otilde" unicode="&#xd5;" horiz-adv-x="734" 
d="M445 745c-22 0 -47.501 10 -76.501 30s-50.167 30 -63.5 30c-22.667 0 -45.334 -18.667 -68.001 -56l-31 17c18.667 46 36.334 79.167 53.001 99.5s37.334 30.5 62.001 30.5c22 0 47.5 -10 76.5 -30s50.167 -30 63.5 -30c24 0 46.667 18.667 68 56l31 -17
c-18 -46 -35.5 -79.167 -52.5 -99.5s-37.833 -30.5 -62.5 -30.5zM371.999 35c50.667 0 88.833 29.668 114.5 89.001s38.5 132 38.5 218c0 60.667 -5.33301 114.5 -16 161.5s-28.5 86 -53.5 117s-56.167 46.5 -93.5 46.5c-34.667 0 -64 -15.167 -88 -45.5
s-40.833 -67.833 -50.5 -112.5s-14.5 -94.334 -14.5 -149.001c0 -60.667 5.33301 -114.5 16 -161.5s28.5 -86 53.5 -117s56.167 -46.5 93.5 -46.5zM358.998 -9.99902c-103.333 0 -184.333 33.5 -243 100.5s-88 149.167 -88 246.5c0 113.333 32.333 204.166 97 272.499
s147.667 102.5 249 102.5c104 0 185.333 -33.333 244 -100s88 -149 88 -247c0 -113.333 -32.5 -204.166 -97.5 -272.499s-148.167 -102.5 -249.5 -102.5z" />
    <glyph glyph-name="Odieresis" unicode="&#xd6;" horiz-adv-x="734" 
d="M189 823c0 21.333 7.66699 39.5 23 54.5s34 22.5 56 22.5c21.333 0 39.833 -7.66699 55.5 -23s23.5 -33.333 23.5 -54c0 -21.333 -7.83301 -39.666 -23.5 -54.999s-34.167 -23 -55.5 -23c-22 0 -40.667 7.66699 -56 23s-23 33.666 -23 54.999zM392 823
c0 20.667 7.66699 38.667 23 54s33.666 23 54.999 23c22 0 40.667 -7.5 56 -22.5s23 -33.167 23 -54.5s-7.66699 -39.666 -23 -54.999s-34 -23 -56 -23c-21.333 0 -39.666 7.66699 -54.999 23s-23 33.666 -23 54.999zM372 35c50.667 0 88.833 29.668 114.5 89.001
s38.5 132 38.5 218c0 60.667 -5.33301 114.5 -16 161.5s-28.5 86 -53.5 117s-56.167 46.5 -93.5 46.5c-34.667 0 -64 -15.167 -88 -45.5s-40.833 -67.833 -50.5 -112.5s-14.5 -94.334 -14.5 -149.001c0 -60.667 5.33301 -114.5 16 -161.5s28.5 -86 53.5 -117
s56.167 -46.5 93.5 -46.5zM358.999 -9.99902c-103.333 0 -184.333 33.5 -243 100.5s-88 149.167 -88 246.5c0 113.333 32.333 204.166 97 272.499s147.667 102.5 249 102.5c104 0 185.333 -33.333 244 -100s88 -149 88 -247c0 -113.333 -32.5 -204.166 -97.5 -272.499
s-148.167 -102.5 -249.5 -102.5z" />
    <glyph glyph-name="multiply" unicode="&#xd7;" horiz-adv-x="495" 
d="M204 365l-139 139l44 44l138 -140l139 140l44 -44l-139 -139l139 -138l-44 -43l-139 139l-138 -139l-44 43z" />
    <glyph glyph-name="Oslash" unicode="&#xd8;" horiz-adv-x="734" 
d="M359 -10c-70 0 -130.667 16.334 -182 49.001l-69 -96l-36 26l69 96c-36.667 31.333 -64.667 70.666 -84 117.999s-29 98.666 -29 153.999c0 113.333 32.333 204.166 97 272.499s147.667 102.5 249 102.5c74 0 138.667 -19 194 -57l65 89l36 -26l-66 -91
c68.667 -65.333 103 -152.666 103 -261.999c0 -113.333 -32.5 -204.166 -97.5 -272.499s-148.167 -102.5 -249.5 -102.5zM209 360.001c0 -66.667 6.33301 -124.999 19 -174.999l266 367c-28.667 76.667 -72.667 115 -132 115c-34.667 0 -64 -15.167 -88 -45.5
s-40.833 -67.833 -50.5 -112.5s-14.5 -94.334 -14.5 -149.001zM372 35.002c50.667 0 88.833 29.667 114.5 89s38.5 132 38.5 218c0 57.333 -5 109.333 -15 156l-264 -364c28 -66 70 -99 126 -99z" />
    <glyph glyph-name="Ugrave" unicode="&#xd9;" horiz-adv-x="743" 
d="M244 894h161l50 -149h-46l-165 141v8zM259 595l-0.000976562 -337.001c0 -61.333 13 -108.666 39 -141.999s65.667 -50 119 -50c54.667 0 97.834 15.833 129.501 47.5s47.5 81.5 47.5 149.5v332c0 26.667 -5.5 44 -16.5 52s-37.167 13.667 -78.5 17v38h231v-38
c-34.667 -4 -56.167 -9.83301 -64.5 -17.5s-12.5 -24.834 -12.5 -51.501v-351c0 -82.667 -25.167 -145.667 -75.5 -189s-115.5 -65 -195.5 -65c-94 0 -166.333 21.333 -217 64s-76 106.334 -76 191.001v350c0 26.667 -4.16699 43.834 -12.5 51.501s-29.5 13.5 -63.5 17.5v38
h323v-38c-34.667 -4 -56.167 -9.83301 -64.5 -17.5s-12.5 -24.834 -12.5 -51.501z" />
    <glyph glyph-name="Uacute" unicode="&#xda;" horiz-adv-x="743" 
d="M408 894h161v-8l-165 -141h-46zM259 595l-0.000976562 -337.001c0 -61.333 13 -108.666 39 -141.999s65.667 -50 119 -50c54.667 0 97.834 15.833 129.501 47.5s47.5 81.5 47.5 149.5v332c0 26.667 -5.5 44 -16.5 52s-37.167 13.667 -78.5 17v38h231v-38
c-34.667 -4 -56.167 -9.83301 -64.5 -17.5s-12.5 -24.834 -12.5 -51.501v-351c0 -82.667 -25.167 -145.667 -75.5 -189s-115.5 -65 -195.5 -65c-94 0 -166.333 21.333 -217 64s-76 106.334 -76 191.001v350c0 26.667 -4.16699 43.834 -12.5 51.501s-29.5 13.5 -63.5 17.5v38
h323v-38c-34.667 -4 -56.167 -9.83301 -64.5 -17.5s-12.5 -24.834 -12.5 -51.501z" />
    <glyph glyph-name="Ucircumflex" unicode="&#xdb;" horiz-adv-x="743" 
d="M259 595l-0.000976562 -337.001c0 -61.333 13 -108.666 39 -141.999s65.667 -50 119 -50c54.667 0 97.834 15.833 129.501 47.5s47.5 81.5 47.5 149.5v332c0 26.667 -5.5 44 -16.5 52s-37.167 13.667 -78.5 17v38h231v-38c-34.667 -4 -56.167 -9.83301 -64.5 -17.5
s-12.5 -24.834 -12.5 -51.501v-351c0 -82.667 -25.167 -145.667 -75.5 -189s-115.5 -65 -195.5 -65c-94 0 -166.333 21.333 -217 64s-76 106.334 -76 191.001v350c0 26.667 -4.16699 43.834 -12.5 51.501s-29.5 13.5 -63.5 17.5v38h323v-38
c-34.667 -4 -56.167 -9.83301 -64.5 -17.5s-12.5 -24.834 -12.5 -51.501zM460.999 899.999l122 -155h-48l-129 76l-129 -76h-48l122 155h110z" />
    <glyph glyph-name="Udieresis" unicode="&#xdc;" horiz-adv-x="743" 
d="M226 823c0 21.333 7.66699 39.5 23 54.5s34 22.5 56 22.5c21.333 0 39.833 -7.66699 55.5 -23s23.5 -33.333 23.5 -54c0 -21.333 -7.83301 -39.666 -23.5 -54.999s-34.167 -23 -55.5 -23c-22 0 -40.667 7.66699 -56 23s-23 33.666 -23 54.999zM429 823
c0 20.667 7.66699 38.667 23 54s33.666 23 54.999 23c22 0 40.667 -7.5 56 -22.5s23 -33.167 23 -54.5s-7.66699 -39.666 -23 -54.999s-34 -23 -56 -23c-21.333 0 -39.666 7.66699 -54.999 23s-23 33.666 -23 54.999zM259 595l-0.000976562 -337.001
c0 -61.333 13 -108.666 39 -141.999s65.667 -50 119 -50c54.667 0 97.834 15.833 129.501 47.5s47.5 81.5 47.5 149.5v332c0 26.667 -5.5 44 -16.5 52s-37.167 13.667 -78.5 17v38h231v-38c-34.667 -4 -56.167 -9.83301 -64.5 -17.5s-12.5 -24.834 -12.5 -51.501v-351
c0 -82.667 -25.167 -145.667 -75.5 -189s-115.5 -65 -195.5 -65c-94 0 -166.333 21.333 -217 64s-76 106.334 -76 191.001v350c0 26.667 -4.16699 43.834 -12.5 51.501s-29.5 13.5 -63.5 17.5v38h323v-38c-34.667 -4 -56.167 -9.83301 -64.5 -17.5
s-12.5 -24.834 -12.5 -51.501z" />
    <glyph glyph-name="Yacute" unicode="&#xdd;" horiz-adv-x="686" 
d="M431 268l0.00390625 -165.001c0 -25.333 5.16699 -41.333 15.5 -48s33.833 -12.334 70.5 -17.001v-38h-338v38c20 2.66699 34.167 4.66699 42.5 6s16.666 4.33301 24.999 9s13.666 10.834 15.999 18.501s3.5 18.167 3.5 31.5v161l-203 363
c-7.33301 12.667 -14.833 21.334 -22.5 26.001s-19.5 8.33398 -35.5 11.001v38h322v-38c-28.667 -0.666992 -48 -3.66699 -58 -9s-15 -14.333 -15 -27c0 -14 7.33301 -34 22 -60l133 -232l122 231c14.667 29.333 22 49.666 22 60.999c0 12 -5.83301 20.667 -17.5 26
s-30.834 8.66602 -57.501 9.99902v38h203v-38c-28.667 -5.33301 -48.334 -17.666 -59.001 -36.999zM381.004 893.999h161v-8l-165 -141h-46z" />
    <glyph glyph-name="Thorn" unicode="&#xde;" horiz-adv-x="646" 
d="M273 595v-23.999h79c91.333 0 160.833 -19.5 208.5 -58.5s71.5 -89.5 71.5 -151.5c0 -68.667 -24 -122 -72 -160s-119 -57 -213 -57h-74v-32c0 -26.667 8.16699 -44.834 24.5 -54.501s47.833 -15.834 94.5 -18.501v-39h-365v38c34 4 55.167 9.83301 63.5 17.5
s12.5 24.834 12.5 51.501v488c0 26.667 -4.16699 43.834 -12.5 51.501s-29.5 13.5 -63.5 17.5v38h323v-38c-34.667 -4 -56.167 -9.83301 -64.5 -17.5s-12.5 -24.834 -12.5 -51.501zM273 528.001v-335.998h34c51.333 0 90 14.667 116 44s39 70.666 39 123.999
c0 51.333 -13.667 92.166 -41 122.499s-65.333 45.5 -114 45.5h-34z" />
    <glyph glyph-name="germandbls" unicode="&#xdf;" horiz-adv-x="693" 
d="M350 783c64.667 0 116.335 -13.3369 155.002 -40.0039s58 -62 58 -106c0 -25.333 -7.33301 -48.166 -22 -68.499s-30.667 -35.833 -48 -46.5s-33.333 -22.5 -48 -35.5s-22 -25.833 -22 -38.5c0 -3.33301 0.5 -6.33301 1.5 -9s2.66699 -5.66699 5 -9
s4.66602 -6.16602 6.99902 -8.49902s5.83301 -5.16602 10.5 -8.49902l12.5 -9c3.66699 -2.66699 8.83398 -6 15.501 -10l17 -10l19.5 -11c8.33301 -4.66699 15.166 -8.66699 20.499 -12c47.333 -28 82.5 -55.833 105.5 -83.5s34.5 -64.5 34.5 -110.5
c0 -53.333 -19 -96.166 -57 -128.499s-86.667 -48.5 -146 -48.5c-67.333 0 -121.333 17.667 -162 53l-6 130h42c10 -42.667 26.167 -77.334 48.5 -104.001s49.5 -40 81.5 -40c25.333 0 45.166 6.83301 59.499 20.5s21.5 32.167 21.5 55.5c0 26 -8 47.333 -24 64
s-44.667 37 -86 61s-70.833 46.667 -88.5 68s-26.5 47 -26.5 77c0 18.667 4.33301 36.334 13 53.001s19.167 32 31.5 46l37 43.5c12.333 15 22.833 32.833 31.5 53.5s13 43 13 67c0 33.333 -8.5 59.833 -25.5 79.5s-42.167 29.5 -75.5 29.5
c-74.667 0 -112 -54.333 -112 -163v-584h-220v36c22.667 1.33301 38.167 4.5 46.5 9.5s12.5 15.5 12.5 31.5v407h-72v33l73 22l1 17c5.33301 72.667 32 128.667 80 168s110.333 59 187 59z" />
    <glyph glyph-name="agrave" unicode="&#xe0;" horiz-adv-x="538" 
d="M248 79c17.333 0 37.667 8 61 24v186l-71 -28c-22 -8.66699 -38.167 -19.667 -48.5 -33s-15.5 -33.333 -15.5 -60c0 -59.333 24.667 -89 74 -89zM468.001 375l0.000976562 -264.998c0 -33.333 10 -50 30 -50c12.667 0 25 2.66699 37 8l6 -24
c-32 -36 -72.667 -54 -122 -54c-57.333 0 -93 28.667 -107 86c-41.333 -56 -92.333 -84 -153 -84c-42 0 -75.667 11.667 -101 35s-38 55.666 -38 96.999c0 40 11.5 70.833 34.5 92.5s56.167 40.5 99.5 56.5l155 55v93c0 58.667 -20.667 88 -62 88
c-40.667 0 -61 -27.333 -61 -82c0 -20.667 3 -42.334 9 -65.001l-96 -13c-31.333 10 -47 32 -47 66c0 42 19.167 74 57.5 96s87.833 33 148.5 33c69.333 0 121.666 -13.167 156.999 -39.5s53 -69.5 53 -129.5zM105.002 764.002h159l52 -165h-43l-168 157v8z" />
    <glyph glyph-name="aacute" unicode="&#xe1;" horiz-adv-x="538" 
d="M248 79c17.333 0 37.667 8 61 24v186l-71 -28c-22 -8.66699 -38.167 -19.667 -48.5 -33s-15.5 -33.333 -15.5 -60c0 -59.333 24.667 -89 74 -89zM468.001 375l0.000976562 -264.998c0 -33.333 10 -50 30 -50c12.667 0 25 2.66699 37 8l6 -24
c-32 -36 -72.667 -54 -122 -54c-57.333 0 -93 28.667 -107 86c-41.333 -56 -92.333 -84 -153 -84c-42 0 -75.667 11.667 -101 35s-38 55.666 -38 96.999c0 40 11.5 70.833 34.5 92.5s56.167 40.5 99.5 56.5l155 55v93c0 58.667 -20.667 88 -62 88
c-40.667 0 -61 -27.333 -61 -82c0 -20.667 3 -42.334 9 -65.001l-96 -13c-31.333 10 -47 32 -47 66c0 42 19.167 74 57.5 96s87.833 33 148.5 33c69.333 0 121.666 -13.167 156.999 -39.5s53 -69.5 53 -129.5zM267.002 764.002h159v-8l-169 -157h-42z" />
    <glyph glyph-name="acircumflex" unicode="&#xe2;" horiz-adv-x="538" 
d="M248 79c17.333 0 37.667 8 61 24v186l-71 -28c-22 -8.66699 -38.167 -19.667 -48.5 -33s-15.5 -33.333 -15.5 -60c0 -59.333 24.667 -89 74 -89zM468.001 375l0.000976562 -264.998c0 -33.333 10 -50 30 -50c12.667 0 25 2.66699 37 8l6 -24
c-32 -36 -72.667 -54 -122 -54c-57.333 0 -93 28.667 -107 86c-41.333 -56 -92.333 -84 -153 -84c-42 0 -75.667 11.667 -101 35s-38 55.666 -38 96.999c0 40 11.5 70.833 34.5 92.5s56.167 40.5 99.5 56.5l155 55v93c0 58.667 -20.667 88 -62 88
c-40.667 0 -61 -27.333 -61 -82c0 -20.667 3 -42.334 9 -65.001l-96 -13c-31.333 10 -47 32 -47 66c0 42 19.167 74 57.5 96s87.833 33 148.5 33c69.333 0 121.666 -13.167 156.999 -39.5s53 -69.5 53 -129.5zM320.002 766.002l115 -171h-50l-120 91l-120 -91h-50l115 171
h110z" />
    <glyph glyph-name="atilde" unicode="&#xe3;" horiz-adv-x="538" 
d="M248 79c17.333 0 37.667 8 61 24v186l-71 -28c-22 -8.66699 -38.167 -19.667 -48.5 -33s-15.5 -33.333 -15.5 -60c0 -59.333 24.667 -89 74 -89zM468.001 375l0.000976562 -264.998c0 -33.333 10 -50 30 -50c12.667 0 25 2.66699 37 8l6 -24
c-32 -36 -72.667 -54 -122 -54c-57.333 0 -93 28.667 -107 86c-41.333 -56 -92.333 -84 -153 -84c-42 0 -75.667 11.667 -101 35s-38 55.666 -38 96.999c0 40 11.5 70.833 34.5 92.5s56.167 40.5 99.5 56.5l155 55v93c0 58.667 -20.667 88 -62 88
c-40.667 0 -61 -27.333 -61 -82c0 -20.667 3 -42.334 9 -65.001l-96 -13c-31.333 10 -47 32 -47 66c0 42 19.167 74 57.5 96s87.833 33 148.5 33c69.333 0 121.666 -13.167 156.999 -39.5s53 -69.5 53 -129.5zM328.002 602.002c-22 0 -46.833 9.83301 -74.5 29.5
s-48.167 29.5 -61.5 29.5c-22.667 0 -44.667 -18.667 -66 -56l-31 18c18.667 46.667 36 80 52 100s36.333 30 61 30c22 0 46.833 -10 74.5 -30s48.167 -30 61.5 -30c22.667 0 44.667 18.667 66 56l31 -17c-18 -46.667 -35.167 -80 -51.5 -100s-36.833 -30 -61.5 -30z" />
    <glyph glyph-name="adieresis" unicode="&#xe4;" horiz-adv-x="538" 
d="M248 79c17.333 0 37.667 8 61 24v186l-71 -28c-22 -8.66699 -38.167 -19.667 -48.5 -33s-15.5 -33.333 -15.5 -60c0 -59.333 24.667 -89 74 -89zM468.001 375l0.000976562 -264.998c0 -33.333 10 -50 30 -50c12.667 0 25 2.66699 37 8l6 -24
c-32 -36 -72.667 -54 -122 -54c-57.333 0 -93 28.667 -107 86c-41.333 -56 -92.333 -84 -153 -84c-42 0 -75.667 11.667 -101 35s-38 55.666 -38 96.999c0 40 11.5 70.833 34.5 92.5s56.167 40.5 99.5 56.5l155 55v93c0 58.667 -20.667 88 -62 88
c-40.667 0 -61 -27.333 -61 -82c0 -20.667 3 -42.334 9 -65.001l-96 -13c-31.333 10 -47 32 -47 66c0 42 19.167 74 57.5 96s87.833 33 148.5 33c69.333 0 121.666 -13.167 156.999 -39.5s53 -69.5 53 -129.5zM87.002 683.002c0 21.333 7.66699 39.666 23 54.999
s34 23 56 23c21.333 0 39.833 -7.66699 55.5 -23s23.5 -33.666 23.5 -54.999s-7.83301 -39.666 -23.5 -54.999s-34.167 -23 -55.5 -23c-22 0 -40.667 7.66699 -56 23s-23 33.666 -23 54.999zM286.002 683.002c0 20.667 7.66699 38.832 23 54.499s33.666 23.5 54.999 23.5
c22 0 40.667 -7.66699 56 -23s23 -33.666 23 -54.999s-7.66699 -39.666 -23 -54.999s-34 -23 -56 -23c-21.333 0 -39.666 7.66699 -54.999 23s-23 33.666 -23 54.999z" />
    <glyph glyph-name="aring" unicode="&#xe5;" horiz-adv-x="538" 
d="M248 79c17.333 0 37.667 8 61 24v186l-71 -28c-22 -8.66699 -38.167 -19.667 -48.5 -33s-15.5 -33.333 -15.5 -60c0 -59.333 24.667 -89 74 -89zM468.001 375l0.000976562 -264.998c0 -33.333 10 -50 30 -50c12.667 0 25 2.66699 37 8l6 -24
c-32 -36 -72.667 -54 -122 -54c-57.333 0 -93 28.667 -107 86c-41.333 -56 -92.333 -84 -153 -84c-42 0 -75.667 11.667 -101 35s-38 55.666 -38 96.999c0 40 11.5 70.833 34.5 92.5s56.167 40.5 99.5 56.5l155 55v93c0 58.667 -20.667 88 -62 88
c-40.667 0 -61 -27.333 -61 -82c0 -20.667 3 -42.334 9 -65.001l-96 -13c-31.333 10 -47 32 -47 66c0 42 19.167 74 57.5 96s87.833 33 148.5 33c69.333 0 121.666 -13.167 156.999 -39.5s53 -69.5 53 -129.5zM214.002 672.002c0 -15.333 4.5 -28 13.5 -38
s21.5 -15 37.5 -15c15.333 0 27.666 5 36.999 15s14 22.667 14 38s-4.66699 28 -14 38s-21.666 15 -36.999 15c-16 0 -28.5 -5 -37.5 -15s-13.5 -22.667 -13.5 -38zM165.002 672.002c0 27.333 9.5 50.333 28.5 69s42.833 28 71.5 28s52.334 -9.33301 71.001 -28
s28 -41.667 28 -69s-9.33301 -50.333 -28 -69s-42.334 -28 -71.001 -28s-52.5 9.33301 -71.5 28s-28.5 41.667 -28.5 69z" />
    <glyph glyph-name="ae" unicode="&#xe6;" horiz-adv-x="778" 
d="M549 544c66.667 0 118.167 -19.8311 154.5 -59.498s54.5 -91.5 54.5 -155.5v-24h-316c-1.33301 -62.667 12.334 -112.834 41.001 -150.501s67.667 -56.5 117 -56.5c59.333 0 107.666 25.667 144.999 77l17 -10c-13.333 -54 -39 -96.667 -77 -128s-86.333 -47 -145 -47
c-84.667 0 -149.334 30.667 -194.001 92c-26 -29.333 -52.667 -51.666 -80 -66.999s-62 -23 -104 -23c-43.333 0 -77.833 11.667 -103.5 35s-38.5 55.666 -38.5 96.999c0 40 11.5 70.833 34.5 92.5s56.167 40.5 99.5 56.5l149 51c4 18.667 7.66699 32.667 11 42
c1.33301 44.667 -4.16699 79.667 -16.5 105s-30.833 38 -55.5 38c-18.667 0 -32.667 -7.5 -42 -22.5s-14 -34.833 -14 -59.5c0 -20.667 3 -42.334 9 -65.001l-96 -13c-31.333 10 -47 32 -47 66c0 42 18.833 74 56.5 96s85.834 33 144.501 33c68 0 115.667 -18 143 -54
c43.333 36 94.333 54 153 54zM535 505.002c-54 0 -84.333 -53 -91 -159h173c0 106 -27.333 159 -82 159zM256 79.002c22 0 47.333 8.66602 76 25.999c-23.333 41.333 -35 91 -35 149c0 3.33301 0.166992 8.33301 0.5 15s0.5 11.334 0.5 14.001l-53 -20
c-25.333 -10 -43.5 -21.667 -54.5 -35s-16.5 -33.333 -16.5 -60c0 -59.333 27.333 -89 82 -89z" />
    <glyph glyph-name="ccedilla" unicode="&#xe7;" horiz-adv-x="487" 
d="M152 -228l-8.00098 32.001c34.667 0 61.334 4.66699 80.001 14s28 21.333 28 36c0 13.333 -6.5 22.5 -19.5 27.5s-33.167 8.16699 -60.5 9.5l41 103c-57.333 10 -103.5 37.833 -138.5 83.5s-52.5 103.167 -52.5 172.5c0 85.333 24.333 155.666 73 210.999s113 83 193 83
c52 0 94 -10.333 126 -31s48 -50.667 48 -90c0 -34 -13.667 -57.333 -41 -70h-85c2.66699 25.333 4 43 4 53c0 64.667 -23 97 -69 97c-34 0 -60.833 -18 -80.5 -54s-29.5 -81.333 -29.5 -136c0 -65.333 14.167 -117 42.5 -155s67.5 -57 117.5 -57
c58.667 0 104 23.333 136 70l20 -11c-31.333 -113.333 -103.333 -170 -216 -170h-15l-13 -32c32 0 57.333 -7 76 -21s28 -33.667 28 -59c0 -34.667 -17.5 -61 -52.5 -79s-79.167 -27 -132.5 -27z" />
    <glyph glyph-name="egrave" unicode="&#xe8;" horiz-adv-x="510" 
d="M279 544c67.333 0 119.333 -19.667 156 -59s55 -91 55 -155v-23h-323c-1.33301 -64 13 -114.833 43 -152.5s69 -56.5 117 -56.5c62.667 0 112.667 25.667 150 77l17 -10c-13.333 -54 -39 -96.667 -77 -128s-86.333 -47 -145 -47c-74 0 -134.167 24 -180.5 72
s-69.5 112 -69.5 192c0 86 24.833 155.833 74.5 209.5s110.5 80.5 182.5 80.5zM268 505c-29.333 0 -52.333 -14.167 -69 -42.5s-26.667 -66.5 -30 -114.5h180c0 104.667 -27 157 -81 157zM123 764h159l52 -165h-43l-168 157v8z" />
    <glyph glyph-name="eacute" unicode="&#xe9;" horiz-adv-x="510" 
d="M286 764h159v-8l-169 -157h-42zM279 544c67.333 0 119.333 -19.667 156 -59s55 -91 55 -155v-23h-323c-1.33301 -64 13 -114.833 43 -152.5s69 -56.5 117 -56.5c62.667 0 112.667 25.667 150 77l17 -10c-13.333 -54 -39 -96.667 -77 -128s-86.333 -47 -145 -47
c-74 0 -134.167 24 -180.5 72s-69.5 112 -69.5 192c0 86 24.833 155.833 74.5 209.5s110.5 80.5 182.5 80.5zM268 505c-29.333 0 -52.333 -14.167 -69 -42.5s-26.667 -66.5 -30 -114.5h180c0 104.667 -27 157 -81 157z" />
    <glyph glyph-name="ecircumflex" unicode="&#xea;" horiz-adv-x="510" 
d="M336 766l115 -171h-50l-120 91l-120 -91h-50l115 171h110zM279 544c67.333 0 119.333 -19.667 156 -59s55 -91 55 -155v-23h-323c-1.33301 -64 13 -114.833 43 -152.5s69 -56.5 117 -56.5c62.667 0 112.667 25.667 150 77l17 -10c-13.333 -54 -39 -96.667 -77 -128
s-86.333 -47 -145 -47c-74 0 -134.167 24 -180.5 72s-69.5 112 -69.5 192c0 86 24.833 155.833 74.5 209.5s110.5 80.5 182.5 80.5zM268 505c-29.333 0 -52.333 -14.167 -69 -42.5s-26.667 -66.5 -30 -114.5h180c0 104.667 -27 157 -81 157z" />
    <glyph glyph-name="edieresis" unicode="&#xeb;" horiz-adv-x="510" 
d="M103 683c0 21.333 7.66699 39.666 23 54.999s34 23 56 23c21.333 0 39.833 -7.66699 55.5 -23s23.5 -33.666 23.5 -54.999s-7.83301 -39.666 -23.5 -54.999s-34.167 -23 -55.5 -23c-22 0 -40.667 7.66699 -56 23s-23 33.666 -23 54.999zM302 683
c0 20.667 7.66699 38.832 23 54.499s33.666 23.5 54.999 23.5c22 0 40.667 -7.66699 56 -23s23 -33.666 23 -54.999s-7.66699 -39.666 -23 -54.999s-34 -23 -56 -23c-21.333 0 -39.666 7.66699 -54.999 23s-23 33.666 -23 54.999zM279 543.998
c67.333 0 119.333 -19.667 156 -59s55 -91 55 -155v-23h-323c-1.33301 -64 13 -114.833 43 -152.5s69 -56.5 117 -56.5c62.667 0 112.667 25.667 150 77l17 -10c-13.333 -54 -39 -96.667 -77 -128s-86.333 -47 -145 -47c-74 0 -134.167 24 -180.5 72s-69.5 112 -69.5 192
c0 86 24.833 155.833 74.5 209.5s110.5 80.5 182.5 80.5zM268 504.998c-29.333 0 -52.333 -14.167 -69 -42.5s-26.667 -66.5 -30 -114.5h180c0 104.667 -27 157 -81 157z" />
    <glyph glyph-name="igrave" unicode="&#xec;" horiz-adv-x="316" 
d="M242 544v-467c0 -16 4.16699 -26.5 12.5 -31.5s23.833 -8.16699 46.5 -9.5v-36h-279v36c22.667 1.33301 38.167 4.5 46.5 9.5s12.5 15.5 12.5 31.5v353l-58 35v23l192 56h27zM4 764h159l52 -165h-43l-168 157v8z" />
    <glyph glyph-name="iacute" unicode="&#xed;" horiz-adv-x="316" 
d="M166 764h159v-8l-169 -157h-42zM242 544v-467c0 -16 4.16699 -26.5 12.5 -31.5s23.833 -8.16699 46.5 -9.5v-36h-279v36c22.667 1.33301 38.167 4.5 46.5 9.5s12.5 15.5 12.5 31.5v353l-58 35v23l192 56h27z" />
    <glyph glyph-name="icircumflex" unicode="&#xee;" horiz-adv-x="316" 
d="M209 766l104 -170h-45l-109 91l-109 -91h-45l104 170h100zM242 544v-467c0 -16 4.16699 -26.5 12.5 -31.5s23.833 -8.16699 46.5 -9.5v-36h-279v36c22.667 1.33301 38.167 4.5 46.5 9.5s12.5 15.5 12.5 31.5v353l-58 35v23l192 56h27z" />
    <glyph glyph-name="idieresis" unicode="&#xef;" horiz-adv-x="316" 
d="M-17 683c0 21.333 7.66699 39.666 23 54.999s33.666 23 54.999 23c22 0 40.667 -7.66699 56 -23s23 -33.666 23 -54.999s-7.66699 -39.666 -23 -54.999s-34 -23 -56 -23c-21.333 0 -39.666 7.66699 -54.999 23s-23 33.666 -23 54.999zM178 683
c0 21.333 7.66699 39.666 23 54.999s33.333 23 54 23c22 0 40.833 -7.66699 56.5 -23s23.5 -33.666 23.5 -54.999s-7.66699 -39.666 -23 -54.999s-34.333 -23 -57 -23c-21.333 0 -39.5 7.66699 -54.5 23s-22.5 33.666 -22.5 54.999zM242 544v-467
c0 -16 4.16699 -26.5 12.5 -31.5s23.833 -8.16699 46.5 -9.5v-36h-279v36c22.667 1.33301 38.167 4.5 46.5 9.5s12.5 15.5 12.5 31.5v353l-58 35v23l192 56h27z" />
    <glyph glyph-name="eth" unicode="&#xf0;" horiz-adv-x="579" 
d="M119 587l-11.999 39.002l151 50c-42 36.667 -91.333 63 -148 79l18 31c83.333 -14.667 155.666 -41.667 216.999 -81l123 41l12 -39l-93 -31c56 -44.667 98.333 -98 127 -160s43 -127.333 43 -196c0 -100.667 -23.667 -180.834 -71 -240.501s-113.333 -89.5 -198 -89.5
c-79.333 0 -143.5 25.333 -192.5 76s-73.5 115.667 -73.5 195c0 83.333 25 151.166 75 203.499s109.333 78.5 178 78.5c42 0 74.333 -14 97 -42c-18.667 55.333 -45.667 103 -81 143zM294.001 29.002c62.667 0 94 70 94 210c0 177.333 -33.667 266 -101 266
c-62.667 0 -94 -70 -94 -210c0 -177.333 33.667 -266 101 -266z" />
    <glyph glyph-name="ntilde" unicode="&#xf1;" horiz-adv-x="643" 
d="M413 77l-0.00195312 292c0 26.667 -5.5 46.5 -16.5 59.5s-29.5 19.5 -55.5 19.5c-32.667 0 -65.667 -10.667 -99 -32v-339c0 -16 3.83301 -26.5 11.5 -31.5s22.834 -8.16699 45.501 -9.5v-36h-277v36c22.667 1.33301 38.167 4.5 46.5 9.5s12.5 15.5 12.5 31.5v353l-58 35
v23l193 56h30l-4 -99c54 66 115.667 99 185 99c98 0 147 -54.333 147 -163v-304c0 -16 4.16699 -26.5 12.5 -31.5s23.833 -8.16699 46.5 -9.5v-36h-277v36c22.667 1.33301 37.834 4.5 45.501 9.5s11.5 15.5 11.5 31.5zM400.998 602c-22 0 -46.833 9.83301 -74.5 29.5
s-48.167 29.5 -61.5 29.5c-22.667 0 -44.667 -18.667 -66 -56l-31 18c18.667 46.667 36 80 52 100s36.333 30 61 30c22 0 46.833 -10 74.5 -30s48.167 -30 61.5 -30c22.667 0 44.667 18.667 66 56l31 -17c-18 -46.667 -35.167 -80 -51.5 -100s-36.833 -30 -61.5 -30z" />
    <glyph glyph-name="ograve" unicode="&#xf2;" horiz-adv-x="580" 
d="M294 29c62.667 0 94 70 94 210c0 177.333 -34 266 -102 266c-62.667 0 -94 -70 -94 -210c0 -177.333 34 -266 102 -266zM289 -10c-80 0 -144.5 24.333 -193.5 73s-73.5 113 -73.5 193c0 84 25.333 153 76 207s115 81 193 81c80 0 144.667 -24.333 194 -73
s74 -113 74 -193c0 -84 -25.5 -153 -76.5 -207s-115.5 -81 -193.5 -81zM132 764h159l52 -165h-43l-168 157v8z" />
    <glyph glyph-name="oacute" unicode="&#xf3;" horiz-adv-x="580" 
d="M295 764h159v-8l-169 -157h-42zM294 29c62.667 0 94 70 94 210c0 177.333 -34 266 -102 266c-62.667 0 -94 -70 -94 -210c0 -177.333 34 -266 102 -266zM289 -10c-80 0 -144.5 24.333 -193.5 73s-73.5 113 -73.5 193c0 84 25.333 153 76 207s115 81 193 81
c80 0 144.667 -24.333 194 -73s74 -113 74 -193c0 -84 -25.5 -153 -76.5 -207s-115.5 -81 -193.5 -81z" />
    <glyph glyph-name="ocircumflex" unicode="&#xf4;" horiz-adv-x="580" 
d="M348 766l115 -171h-50l-120 91l-120 -91h-50l115 171h110zM294 29c62.667 0 94 70 94 210c0 177.333 -34 266 -102 266c-62.667 0 -94 -70 -94 -210c0 -177.333 34 -266 102 -266zM289 -10c-80 0 -144.5 24.333 -193.5 73s-73.5 113 -73.5 193c0 84 25.333 153 76 207
s115 81 193 81c80 0 144.667 -24.333 194 -73s74 -113 74 -193c0 -84 -25.5 -153 -76.5 -207s-115.5 -81 -193.5 -81z" />
    <glyph glyph-name="otilde" unicode="&#xf5;" horiz-adv-x="580" 
d="M294 29c62.667 0 94 70 94 210c0 177.333 -34 266 -102 266c-62.667 0 -94 -70 -94 -210c0 -177.333 34 -266 102 -266zM289 -10c-80 0 -144.5 24.333 -193.5 73s-73.5 113 -73.5 193c0 84 25.333 153 76 207s115 81 193 81c80 0 144.667 -24.333 194 -73
s74 -113 74 -193c0 -84 -25.5 -153 -76.5 -207s-115.5 -81 -193.5 -81zM358 602c-22 0 -46.833 9.83301 -74.5 29.5s-48.167 29.5 -61.5 29.5c-22.667 0 -44.667 -18.667 -66 -56l-31 18c18.667 46.667 36 80 52 100s36.333 30 61 30c22 0 46.833 -10 74.5 -30
s48.167 -30 61.5 -30c22.667 0 44.667 18.667 66 56l31 -17c-18 -46.667 -35.167 -80 -51.5 -100s-36.833 -30 -61.5 -30z" />
    <glyph glyph-name="odieresis" unicode="&#xf6;" horiz-adv-x="580" 
d="M114 683c0 21.333 7.66699 39.666 23 54.999s34 23 56 23c21.333 0 39.833 -7.66699 55.5 -23s23.5 -33.666 23.5 -54.999s-7.83301 -39.666 -23.5 -54.999s-34.167 -23 -55.5 -23c-22 0 -40.667 7.66699 -56 23s-23 33.666 -23 54.999zM313 683
c0 20.667 7.83105 38.832 23.498 54.499s33.834 23.5 54.501 23.5c22 0 40.667 -7.66699 56 -23s23 -33.666 23 -54.999s-7.66699 -39.666 -23 -54.999s-34 -23 -56 -23c-21.333 0 -39.666 7.66699 -54.999 23s-23 33.666 -23 54.999zM293.998 28.998c62.667 0 94 70 94 210
c0 177.333 -34 266 -102 266c-62.667 0 -94 -70 -94 -210c0 -177.333 34 -266 102 -266zM288.998 -10.002c-80 0 -144.5 24.333 -193.5 73s-73.5 113 -73.5 193c0 84 25.333 153 76 207s115 81 193 81c80 0 144.667 -24.333 194 -73s74 -113 74 -193
c0 -84 -25.5 -153 -76.5 -207s-115.5 -81 -193.5 -81z" />
    <glyph glyph-name="divide" unicode="&#xf7;" horiz-adv-x="571" 
d="M65 338v64h441v-64h-441zM228 200c0 16.667 5.5 30.5 16.5 41.5s24.5 16.5 40.5 16.5s29.667 -5.66699 41 -17s17 -25 17 -41c0 -15.333 -5.83301 -28.666 -17.5 -39.999s-25.167 -17 -40.5 -17c-16 0 -29.5 5.66699 -40.5 17s-16.5 24.666 -16.5 39.999zM228 539
c0 16 5.5 29.5 16.5 40.5s24.5 16.5 40.5 16.5s29.667 -5.5 41 -16.5s17 -24.5 17 -40.5c0 -15.333 -5.83301 -28.833 -17.5 -40.5s-25.167 -17.5 -40.5 -17.5c-16 0 -29.5 5.66699 -40.5 17s-16.5 25 -16.5 41z" />
    <glyph glyph-name="oslash" unicode="&#xf8;" horiz-adv-x="580" 
d="M289 -10c-54 0 -101.667 11.332 -143 33.999l-55 -79l-33 22l55 80c-60.667 48.667 -91 118.334 -91 209.001c0 84 25.333 153 76 207s115 81 193 81c53.333 0 101.333 -12 144 -36l54 78l33 -22l-54 -78c60.667 -48.667 91 -118 91 -208c0 -84 -25.5 -153 -76.5 -207
s-115.5 -81 -193.5 -81zM192 294.999c0 -48.667 2.33301 -90.333 7 -125l170 244c-17.333 60.667 -45 91 -83 91c-62.667 0 -94 -70 -94 -210zM294 29c62.667 0 94 69.999 94 209.999c0 42.667 -2.66699 83.334 -8 122.001l-169 -244c17.333 -58.667 45 -88 83 -88z" />
    <glyph glyph-name="ugrave" unicode="&#xf9;" horiz-adv-x="623" 
d="M548 422v-311.999c0 -18.667 2.16699 -31.334 6.5 -38.001s14.833 -10.334 31.5 -11.001l24 -1v-35l-196 -35h-29l3 96c-54 -64 -112.667 -96 -176 -96c-46 0 -82.167 13.667 -108.5 41s-39.5 68.666 -39.5 123.999v253c0 16.667 -2.83301 29.334 -8.5 38.001
s-17.167 15 -34.5 19l-15 3v34l197 41h27l-5 -123v-247c0 -59.333 24.333 -89 73 -89c24 0 54 9.66699 90 29v295c0 16.667 -2.83301 29.334 -8.5 38.001s-17.167 15 -34.5 19l-15 3v34l196 41h28zM150 764.001h159l52 -165h-43l-168 157v8z" />
    <glyph glyph-name="uacute" unicode="&#xfa;" horiz-adv-x="623" 
d="M313 764h159v-8l-169 -157h-42zM548 422v-311.999c0 -18.667 2.16699 -31.334 6.5 -38.001s14.833 -10.334 31.5 -11.001l24 -1v-35l-196 -35h-29l3 96c-54 -64 -112.667 -96 -176 -96c-46 0 -82.167 13.667 -108.5 41s-39.5 68.666 -39.5 123.999v253
c0 16.667 -2.83301 29.334 -8.5 38.001s-17.167 15 -34.5 19l-15 3v34l197 41h27l-5 -123v-247c0 -59.333 24.333 -89 73 -89c24 0 54 9.66699 90 29v295c0 16.667 -2.83301 29.334 -8.5 38.001s-17.167 15 -34.5 19l-15 3v34l196 41h28z" />
    <glyph glyph-name="ucircumflex" unicode="&#xfb;" horiz-adv-x="623" 
d="M366 766l115 -171h-50l-120 91l-120 -91h-50l115 171h110zM548 422v-311.999c0 -18.667 2.16699 -31.334 6.5 -38.001s14.833 -10.334 31.5 -11.001l24 -1v-35l-196 -35h-29l3 96c-54 -64 -112.667 -96 -176 -96c-46 0 -82.167 13.667 -108.5 41
s-39.5 68.666 -39.5 123.999v253c0 16.667 -2.83301 29.334 -8.5 38.001s-17.167 15 -34.5 19l-15 3v34l197 41h27l-5 -123v-247c0 -59.333 24.333 -89 73 -89c24 0 54 9.66699 90 29v295c0 16.667 -2.83301 29.334 -8.5 38.001s-17.167 15 -34.5 19l-15 3v34l196 41h28z
" />
    <glyph glyph-name="udieresis" unicode="&#xfc;" horiz-adv-x="623" 
d="M133 683c0 21.333 7.66699 39.666 23 54.999s34 23 56 23c21.333 0 39.833 -7.66699 55.5 -23s23.5 -33.666 23.5 -54.999s-7.83301 -39.666 -23.5 -54.999s-34.167 -23 -55.5 -23c-22 0 -40.667 7.66699 -56 23s-23 33.666 -23 54.999zM332 683
c0 20.667 7.66699 38.832 23 54.499s33.666 23.5 54.999 23.5c22 0 40.667 -7.66699 56 -23s23 -33.666 23 -54.999s-7.66699 -39.666 -23 -54.999s-34 -23 -56 -23c-21.333 0 -39.666 7.66699 -54.999 23s-23 33.666 -23 54.999zM548 421.998v-311.999
c0 -18.667 2.16699 -31.334 6.5 -38.001s14.833 -10.334 31.5 -11.001l24 -1v-35l-196 -35h-29l3 96c-54 -64 -112.667 -96 -176 -96c-46 0 -82.167 13.667 -108.5 41s-39.5 68.666 -39.5 123.999v253c0 16.667 -2.83301 29.334 -8.5 38.001s-17.167 15 -34.5 19l-15 3v34
l197 41h27l-5 -123v-247c0 -59.333 24.333 -89 73 -89c24 0 54 9.66699 90 29v295c0 16.667 -2.83301 29.334 -8.5 38.001s-17.167 15 -34.5 19l-15 3v34l196 41h28z" />
    <glyph glyph-name="yacute" unicode="&#xfd;" horiz-adv-x="580" 
d="M352 160l106.001 275.001c5.33301 14 8 23.667 8 29c0 10.667 -4.66699 18.167 -14 22.5s-27 8.16602 -53 11.499v36h176v-36c-17.333 -4.66699 -29 -9.5 -35 -14.5s-11.333 -13.167 -16 -24.5l-224 -550c-18 -44.667 -37.333 -77.334 -58 -98.001s-47 -31 -79 -31
c-40 0 -67 14.333 -81 43v61c27.333 -6 51.666 -9 72.999 -9c28 0 50.167 4.66699 66.5 14s29.5 26 39.5 50l16 39l-221 481c-5.33301 11.333 -11 19.5 -17 24.5s-17.333 9.83301 -34 14.5v36h295v-36c-26.667 -3.33301 -44.5 -7.16602 -53.5 -11.499
s-13.5 -11.833 -13.5 -22.5c0 -6.66699 2 -16 6 -28zM329.001 764.001h159v-8l-169 -157h-42z" />
    <glyph glyph-name="thorn" unicode="&#xfe;" horiz-adv-x="616" 
d="M431 248c0 64 -11.167 113.332 -33.5 147.999s-54.833 52 -97.5 52c-28 0 -52.667 -8.66699 -74 -26v-279c0 -74 27 -111 81 -111c38.667 0 69 20.333 91 61s33 92.334 33 155.001zM65 -135.001v816l-58 30v25l193 47h26v-334c42 63.333 98 95 168 95
c61.333 0 110 -21.333 146 -64s54 -102.667 54 -180c0 -96.667 -25.833 -172.5 -77.5 -227.5s-117.167 -82.5 -196.5 -82.5c-42.667 0 -74 8 -94 24v-145c0 -17.333 5 -28.5 15 -33.5s31.667 -8.83301 65 -11.5v-36h-300v36c22.667 1.33301 38.167 4.5 46.5 9.5
s12.5 15.5 12.5 31.5z" />
    <glyph glyph-name="ydieresis" unicode="&#xff;" horiz-adv-x="580" 
d="M352 160l106.001 275.001c5.33301 14 8 23.667 8 29c0 10.667 -4.66699 18.167 -14 22.5s-27 8.16602 -53 11.499v36h176v-36c-17.333 -4.66699 -29 -9.5 -35 -14.5s-11.333 -13.167 -16 -24.5l-224 -550c-18 -44.667 -37.333 -77.334 -58 -98.001s-47 -31 -79 -31
c-40 0 -67 14.333 -81 43v61c27.333 -6 51.666 -9 72.999 -9c28 0 50.167 4.66699 66.5 14s29.5 26 39.5 50l16 39l-221 481c-5.33301 11.333 -11 19.5 -17 24.5s-17.333 9.83301 -34 14.5v36h295v-36c-26.667 -3.33301 -44.5 -7.16602 -53.5 -11.499
s-13.5 -11.833 -13.5 -22.5c0 -6.66699 2 -16 6 -28zM149.001 683.001c0 21.333 7.66699 39.666 23 54.999s34 23 56 23c21.333 0 39.833 -7.66699 55.5 -23s23.5 -33.666 23.5 -54.999s-7.83301 -39.666 -23.5 -54.999s-34.167 -23 -55.5 -23c-22 0 -40.667 7.66699 -56 23
s-23 33.666 -23 54.999zM348.001 683.001c0 20.667 7.66699 38.832 23 54.499s33.666 23.5 54.999 23.5c22 0 40.667 -7.66699 56 -23s23 -33.666 23 -54.999s-7.66699 -39.666 -23 -54.999s-34 -23 -56 -23c-21.333 0 -39.666 7.66699 -54.999 23s-23 33.666 -23 54.999z
" />
    <glyph glyph-name="Amacron" unicode="&#x100;" horiz-adv-x="743" 
d="M482 122l-40.998 103.001h-262l-39 -103c-6 -16.667 -9 -29.334 -9 -38.001c0 -15.333 6.66699 -26.5 20 -33.5s34.666 -11.167 63.999 -12.5v-38h-210v38c10.667 2 19 4 25 6s12.167 5.5 18.5 10.5s11.166 11.833 14.499 20.5l214 552l-32 79h181l253 -631
c4.66699 -12 11.5 -20.5 20.5 -25.5s21.833 -8.83301 38.5 -11.5v-38h-329v38c28.667 1.33301 49.5 5.33301 62.5 12s19.5 17.667 19.5 33c0 8 -3 21 -9 39zM307.002 562.001l-110 -289h225zM204.002 757.001v77h289v-77h-289z" />
    <glyph glyph-name="amacron" unicode="&#x101;" horiz-adv-x="538" 
d="M248 79c17.333 0 37.667 8 61 24v186l-71 -28c-22 -8.66699 -38.167 -19.667 -48.5 -33s-15.5 -33.333 -15.5 -60c0 -59.333 24.667 -89 74 -89zM468.001 375l0.000976562 -264.998c0 -33.333 10 -50 30 -50c12.667 0 25 2.66699 37 8l6 -24
c-32 -36 -72.667 -54 -122 -54c-57.333 0 -93 28.667 -107 86c-41.333 -56 -92.333 -84 -153 -84c-42 0 -75.667 11.667 -101 35s-38 55.666 -38 96.999c0 40 11.5 70.833 34.5 92.5s56.167 40.5 99.5 56.5l155 55v93c0 58.667 -20.667 88 -62 88
c-40.667 0 -61 -27.333 -61 -82c0 -20.667 3 -42.334 9 -65.001l-96 -13c-31.333 10 -47 32 -47 66c0 42 19.167 74 57.5 96s87.833 33 148.5 33c69.333 0 121.666 -13.167 156.999 -39.5s53 -69.5 53 -129.5zM127.002 624.002v77h277v-77h-277z" />
    <glyph glyph-name="Abreve" unicode="&#x102;" horiz-adv-x="743" 
d="M482 122l-40.998 103.001h-262l-39 -103c-6 -16.667 -9 -29.334 -9 -38.001c0 -15.333 6.66699 -26.5 20 -33.5s34.666 -11.167 63.999 -12.5v-38h-210v38c10.667 2 19 4 25 6s12.167 5.5 18.5 10.5s11.166 11.833 14.499 20.5l214 552l-32 79h181l253 -631
c4.66699 -12 11.5 -20.5 20.5 -25.5s21.833 -8.83301 38.5 -11.5v-38h-329v38c28.667 1.33301 49.5 5.33301 62.5 12s19.5 17.667 19.5 33c0 8 -3 21 -9 39zM307.002 562.001l-110 -289h225zM348.002 742.001c-46 0 -81.832 13.5 -107.499 40.5s-38.5 65.5 -38.5 115.5h41
c8.66699 -48 43.667 -72 105 -72c62 0 97.333 24 106 72h41c0 -50 -12.833 -88.5 -38.5 -115.5s-61.834 -40.5 -108.501 -40.5z" />
    <glyph glyph-name="abreve" unicode="&#x103;" horiz-adv-x="538" 
d="M248 79c17.333 0 37.667 8 61 24v186l-71 -28c-22 -8.66699 -38.167 -19.667 -48.5 -33s-15.5 -33.333 -15.5 -60c0 -59.333 24.667 -89 74 -89zM468.001 375l0.000976562 -264.998c0 -33.333 10 -50 30 -50c12.667 0 25 2.66699 37 8l6 -24
c-32 -36 -72.667 -54 -122 -54c-57.333 0 -93 28.667 -107 86c-41.333 -56 -92.333 -84 -153 -84c-42 0 -75.667 11.667 -101 35s-38 55.666 -38 96.999c0 40 11.5 70.833 34.5 92.5s56.167 40.5 99.5 56.5l155 55v93c0 58.667 -20.667 88 -62 88
c-40.667 0 -61 -27.333 -61 -82c0 -20.667 3 -42.334 9 -65.001l-96 -13c-31.333 10 -47 32 -47 66c0 42 19.167 74 57.5 96s87.833 33 148.5 33c69.333 0 121.666 -13.167 156.999 -39.5s53 -69.5 53 -129.5zM265.002 597.002c-45.333 0 -80 14.333 -104 43
s-36 69.667 -36 123h42c5.33301 -53.333 38 -80 98 -80c59.333 0 92 26.667 98 80h42c0 -53.333 -12.167 -94.333 -36.5 -123s-58.833 -43 -103.5 -43z" />
    <glyph glyph-name="Aogonek" unicode="&#x104;" horiz-adv-x="743" 
d="M307 562l-111 -289h226zM417 23c20 6.66699 34.1689 11.835 42.502 15.502s15.833 9 22.5 16s10 15.5 10 25.5c0 10.667 -3 23.667 -9 39l-42 106h-262l-39 -103c-6 -16.667 -9 -29.334 -9 -38.001c0 -15.333 6.66699 -26.5 20 -33.5s34.666 -11.167 63.999 -12.5v-38
h-210v38c10.667 2 19 4 25 6s12.167 5.5 18.5 10.5s11.166 11.833 14.499 20.5l214 552l-32 79h181l253 -631c4.66699 -12 11.5 -20.5 20.5 -25.5s21.833 -8.83301 38.5 -11.5v-38h-293c-26.667 -6 -47.167 -17.667 -61.5 -35s-21.5 -37.666 -21.5 -60.999
c0 -16.667 4.33301 -29.834 13 -39.501s20.667 -14.5 36 -14.5c20.667 0 43 9 67 27l14 -17c-39.333 -49.333 -82.333 -74 -129 -74c-27.333 0 -50 8.16699 -68 24.5s-27 39.166 -27 68.499c0 64 49.667 112 149 144z" />
    <glyph glyph-name="aogonek" unicode="&#x105;" horiz-adv-x="538" 
d="M468 375l-0.000976562 -264.999c0 -33.333 10 -50 30 -50c12.667 0 25 2.66699 37 8l6 -24c-10.667 -10 -30.167 -22.333 -58.5 -37s-50.666 -30 -66.999 -46s-24.5 -36 -24.5 -60c0 -15.333 4 -27.666 12 -36.999s19.333 -14 34 -14c23.333 0 46.333 9 69 27l14 -17
c-38 -49.333 -82 -74 -132 -74c-26.667 0 -48.667 7.5 -66 22.5s-26 35.167 -26 60.5c0 47.333 33.667 88 101 122c-20.667 4.66699 -38.667 14.5 -54 29.5s-25.666 33.5 -30.999 55.5c-41.333 -56 -92.333 -84 -153 -84c-42 0 -75.667 11.667 -101 35
s-38 55.666 -38 96.999c0 40 11.5 70.833 34.5 92.5s56.167 40.5 99.5 56.5l155 55v93c0 58.667 -20.667 88 -62 88c-40.667 0 -61 -27.333 -61 -82c0 -20.667 3 -42.334 9 -65.001l-96 -13c-31.333 10 -47 32 -47 66c0 42 19.167 74 57.5 96s87.833 33 148.5 33
c69.333 0 121.666 -13.167 156.999 -39.5s53 -69.5 53 -129.5zM247.999 79.001c17.333 0 37.667 8 61 24v186l-71 -28c-22 -8.66699 -38.167 -19.667 -48.5 -33s-15.5 -33.333 -15.5 -60c0 -59.333 24.667 -89 74 -89z" />
    <glyph glyph-name="Cacute" unicode="&#x106;" horiz-adv-x="669" 
d="M393 712c88.667 0 162.668 -19.667 222.001 -59l2 -167h-43c-24.667 120 -83.334 180 -176.001 180c-62.667 0 -110 -28.167 -142 -84.5s-48 -129.833 -48 -220.5c0 -95.333 17.5 -173 52.5 -233s83.833 -90 146.5 -90c46 0 84.667 16.5 116 49.5s56 85.833 74 158.5h46
l-16 -193c-62 -42 -141.333 -63 -238 -63c-111.333 0 -199.333 31 -264 93s-97 145.333 -97 250c0 114 34.833 205.667 104.5 275s156.5 104 260.5 104zM401.001 894h161v-8l-165 -141h-46z" />
    <glyph glyph-name="cacute" unicode="&#x107;" horiz-adv-x="487" 
d="M288 764h159v-8l-169 -157h-42zM161 313c0 -65.333 14.167 -116.999 42.5 -154.999s67.5 -57 117.5 -57c58.667 0 104 23.333 136 70l20 -11c-31.333 -113.333 -103.333 -170 -216 -170c-70 0 -127.333 23.667 -172 71s-67 110.333 -67 189
c0 85.333 24.333 155.666 73 210.999s113 83 193 83c52 0 94 -10.333 126 -31s48 -50.667 48 -90c0 -34 -13.667 -57.333 -41 -70h-85c2.66699 25.333 4 43 4 53c0 64.667 -23 97 -69 97c-34 0 -60.833 -18 -80.5 -54s-29.5 -81.333 -29.5 -136z" />
    <glyph glyph-name="Ccircumflex" unicode="&#x108;" horiz-adv-x="669" 
d="M393 712c88.667 0 162.668 -19.667 222.001 -59l2 -167h-43c-24.667 120 -83.334 180 -176.001 180c-62.667 0 -110 -28.167 -142 -84.5s-48 -129.833 -48 -220.5c0 -95.333 17.5 -173 52.5 -233s83.833 -90 146.5 -90c46 0 84.667 16.5 116 49.5s56 85.833 74 158.5h46
l-16 -193c-62 -42 -141.333 -63 -238 -63c-111.333 0 -199.333 31 -264 93s-97 145.333 -97 250c0 114 34.833 205.667 104.5 275s156.5 104 260.5 104zM454.001 900l122 -155h-48l-129 76l-129 -76h-48l122 155h110z" />
    <glyph glyph-name="ccircumflex" unicode="&#x109;" horiz-adv-x="487" 
d="M334 766l115 -171h-50l-120 91l-120 -91h-50l115 171h110zM161 313c0 -65.333 14.167 -116.999 42.5 -154.999s67.5 -57 117.5 -57c58.667 0 104 23.333 136 70l20 -11c-31.333 -113.333 -103.333 -170 -216 -170c-70 0 -127.333 23.667 -172 71s-67 110.333 -67 189
c0 85.333 24.333 155.666 73 210.999s113 83 193 83c52 0 94 -10.333 126 -31s48 -50.667 48 -90c0 -34 -13.667 -57.333 -41 -70h-85c2.66699 25.333 4 43 4 53c0 64.667 -23 97 -69 97c-34 0 -60.833 -18 -80.5 -54s-29.5 -81.333 -29.5 -136z" />
    <glyph glyph-name="Cdotaccent" unicode="&#x10a;" horiz-adv-x="669" 
d="M399 745c-26 0 -47.333 8.16699 -64 24.5s-25 36.5 -25 60.5s8.33301 44.167 25 60.5s38 24.5 64 24.5c26.667 0 48.334 -8.16699 65.001 -24.5s25 -36.5 25 -60.5s-8.33301 -44.167 -25 -60.5s-38.334 -24.5 -65.001 -24.5zM393 712
c88.667 0 162.668 -19.667 222.001 -59l2 -167h-43c-24.667 120 -83.334 180 -176.001 180c-62.667 0 -110 -28.167 -142 -84.5s-48 -129.833 -48 -220.5c0 -95.333 17.5 -173 52.5 -233s83.833 -90 146.5 -90c46 0 84.667 16.5 116 49.5s56 85.833 74 158.5h46l-16 -193
c-62 -42 -141.333 -63 -238 -63c-111.333 0 -199.333 31 -264 93s-97 145.333 -97 250c0 114 34.833 205.667 104.5 275s156.5 104 260.5 104z" />
    <glyph glyph-name="cdotaccent" unicode="&#x10b;" horiz-adv-x="487" 
d="M161 313c0 -65.333 14.167 -116.999 42.5 -154.999s67.5 -57 117.5 -57c58.667 0 104 23.333 136 70l20 -11c-31.333 -113.333 -103.333 -170 -216 -170c-70 0 -127.333 23.667 -172 71s-67 110.333 -67 189c0 85.333 24.333 155.666 73 210.999s113 83 193 83
c52 0 94 -10.333 126 -31s48 -50.667 48 -90c0 -34 -13.667 -57.333 -41 -70h-85c2.66699 25.333 4 43 4 53c0 64.667 -23 97 -69 97c-34 0 -60.833 -18 -80.5 -54s-29.5 -81.333 -29.5 -136zM282 599.001c-26 0 -47.333 8.33301 -64 25s-25 37 -25 61
c0 23.333 8.16699 43.333 24.5 60s37.833 25 64.5 25s48.334 -8.16699 65.001 -24.5s25 -36.5 25 -60.5s-8.33301 -44.333 -25 -61s-38.334 -25 -65.001 -25z" />
    <glyph glyph-name="Ccaron" unicode="&#x10c;" horiz-adv-x="669" 
d="M393 712c88.667 0 162.668 -19.667 222.001 -59l2 -167h-43c-24.667 120 -83.334 180 -176.001 180c-62.667 0 -110 -28.167 -142 -84.5s-48 -129.833 -48 -220.5c0 -95.333 17.5 -173 52.5 -233s83.833 -90 146.5 -90c46 0 84.667 16.5 116 49.5s56 85.833 74 158.5h46
l-16 -193c-62 -42 -141.333 -63 -238 -63c-111.333 0 -199.333 31 -264 93s-97 145.333 -97 250c0 114 34.833 205.667 104.5 275s156.5 104 260.5 104zM576.001 900l-122 -154h-110l-122 154h48l129 -76l129 76h48z" />
    <glyph glyph-name="ccaron" unicode="&#x10d;" horiz-adv-x="487" 
d="M453 769l-115 -171h-110l-115 171h50l120 -91l120 91h50zM161 313c0 -65.333 14.167 -116.999 42.5 -154.999s67.5 -57 117.5 -57c58.667 0 104 23.333 136 70l20 -11c-31.333 -113.333 -103.333 -170 -216 -170c-70 0 -127.333 23.667 -172 71s-67 110.333 -67 189
c0 85.333 24.333 155.666 73 210.999s113 83 193 83c52 0 94 -10.333 126 -31s48 -50.667 48 -90c0 -34 -13.667 -57.333 -41 -70h-85c2.66699 25.333 4 43 4 53c0 64.667 -23 97 -69 97c-34 0 -60.833 -18 -80.5 -54s-29.5 -81.333 -29.5 -136z" />
    <glyph glyph-name="Dcaron" unicode="&#x10e;" horiz-adv-x="768" 
d="M531 900l-122 -154h-110l-122 154h48l129 -76l129 76h48zM314 659h-41v-545c0 -28 5.66699 -46.833 17 -56.5s30.333 -14.5 57 -14.5h14c60 0 108.333 26.833 145 80.5s55 126.5 55 218.5c0 96 -21 172.833 -63 230.5s-103.333 86.5 -184 86.5zM365 0
l-338.001 -0.00195312v38c34 4 55.167 9.83301 63.5 17.5s12.5 24.834 12.5 51.501v488c0 26.667 -4.16699 43.834 -12.5 51.501s-29.5 13.5 -63.5 17.5v38h317c130 0 228.5 -31.5 295.5 -94.5s100.5 -144.833 100.5 -245.5c0 -112.667 -34.167 -201.167 -102.5 -265.5
s-159.166 -96.5 -272.499 -96.5z" />
    <glyph glyph-name="dcaron" unicode="&#x10f;" horiz-adv-x="621" 
d="M732 774l-113 -196h-33l14 205h132v-9zM303 492c-38.667 0 -68.5 -17.833 -89.5 -53.5s-31.5 -83.5 -31.5 -143.5c0 -63.333 11.5 -114.333 34.5 -153s55.167 -58 96.5 -58c27.333 0 51.333 7.66699 72 23v271c0 76 -27.333 114 -82 114zM385 681l-58 30.0029v25l193 47
h26v-673c0 -18.667 2.16699 -31.334 6.5 -38.001s14.833 -10.334 31.5 -11.001l24 -1v-35l-197 -35h-29l3 94c-43.333 -62.667 -97.333 -94 -162 -94c-60 0 -108.5 22.667 -145.5 68s-55.5 106.666 -55.5 183.999c0 93.333 24.333 166.5 73 219.5s110.667 79.5 186 79.5
c44 0 78.667 -10.667 104 -32v172z" />
    <glyph glyph-name="Dcroat" unicode="&#x110;" horiz-adv-x="778" 
d="M37 330l-0.000976562 54.998h76v210c0 26.667 -4.16699 43.834 -12.5 51.501s-29.5 13.5 -63.5 17.5v38h317c130 0 228.5 -31.5 295.5 -94.5s100.5 -144.833 100.5 -245.5c0 -112.667 -34.167 -201.167 -102.5 -265.5s-159.166 -96.5 -272.499 -96.5h-338v38
c34 4 55.167 9.83301 63.5 17.5s12.5 24.834 12.5 51.501v223h-76zM323.999 658.998h-41v-274h133v-55h-133v-216c0 -28 5.66699 -46.833 17 -56.5s30.333 -14.5 57 -14.5h14c60 0 108.333 26.833 145 80.5s55 126.5 55 218.5c0 96 -21 172.833 -63 230.5
s-103.333 86.5 -184 86.5z" />
    <glyph glyph-name="dcroat" unicode="&#x111;" horiz-adv-x="621" 
d="M385 681l-58 30.0029v25l193 47h26v-146h62v-46h-62v-481c0 -18.667 2.16699 -31.334 6.5 -38.001s14.833 -10.334 31.5 -11.001l24 -1v-35l-197 -35h-29l3 94c-43.333 -62.667 -97.333 -94 -162 -94c-60 0 -108.5 22.667 -145.5 68s-55.5 106.666 -55.5 183.999
c0 93.333 24.333 166.5 73 219.5s110.667 79.5 186 79.5c44 0 78.667 -10.667 104 -32v82h-121v46h121v44zM303 492.003c-38.667 0 -68.5 -17.833 -89.5 -53.5s-31.5 -83.5 -31.5 -143.5c0 -63.333 11.5 -114.333 34.5 -153s55.167 -58 96.5 -58
c27.333 0 51.333 7.66699 72 23v271c0 76 -27.333 114 -82 114z" />
    <glyph glyph-name="Emacron" unicode="&#x112;" horiz-adv-x="644" 
d="M196 757v77h289v-77h-289zM27 0l0.00292969 37.9961c34 4 55.167 9.83301 63.5 17.5s12.5 24.834 12.5 51.501v488c0 26.667 -4.16699 43.834 -12.5 51.501s-29.5 13.5 -63.5 17.5v38h561l5 -187h-34c-26 57.333 -49.333 95.666 -70 114.999s-51.667 29 -93 29h-123v-272
h113c22 0 37.667 6.66699 47 20s16.333 37.333 21 72h39v-233h-39c-4.66699 34 -11.667 57.667 -21 71s-25 20 -47 20h-113v-226c0 -26 6.66699 -43.833 20 -53.5s35.333 -14.5 66 -14.5h49c21.333 0 39.166 2.33301 53.499 7s28.666 14.834 42.999 30.501
s26.666 31.834 36.999 48.501s25.833 43.334 46.5 80.001h39l-31 -209h-569z" />
    <glyph glyph-name="emacron" unicode="&#x113;" horiz-adv-x="510" 
d="M279 544c67.333 0 119.333 -19.667 156 -59s55 -91 55 -155v-23h-323c-1.33301 -64 13 -114.833 43 -152.5s69 -56.5 117 -56.5c62.667 0 112.667 25.667 150 77l17 -10c-13.333 -54 -39 -96.667 -77 -128s-86.333 -47 -145 -47c-74 0 -134.167 24 -180.5 72
s-69.5 112 -69.5 192c0 86 24.833 155.833 74.5 209.5s110.5 80.5 182.5 80.5zM268 505c-29.333 0 -52.333 -14.167 -69 -42.5s-26.667 -66.5 -30 -114.5h180c0 104.667 -27 157 -81 157zM141 624v77h277v-77h-277z" />
    <glyph glyph-name="Ebreve" unicode="&#x114;" horiz-adv-x="644" 
d="M340 742c-46 0 -81.832 13.5 -107.499 40.5s-38.5 65.5 -38.5 115.5h41c8.66699 -48 43.667 -72 105 -72c62 0 97.333 24 106 72h41c0 -50 -12.833 -88.5 -38.5 -115.5s-61.834 -40.5 -108.501 -40.5zM27.001 0l0.00292969 37.9961c34 4 55.167 9.83301 63.5 17.5
s12.5 24.834 12.5 51.501v488c0 26.667 -4.16699 43.834 -12.5 51.501s-29.5 13.5 -63.5 17.5v38h561l5 -187h-34c-26 57.333 -49.333 95.666 -70 114.999s-51.667 29 -93 29h-123v-272h113c22 0 37.667 6.66699 47 20s16.333 37.333 21 72h39v-233h-39
c-4.66699 34 -11.667 57.667 -21 71s-25 20 -47 20h-113v-226c0 -26 6.66699 -43.833 20 -53.5s35.333 -14.5 66 -14.5h49c21.333 0 39.166 2.33301 53.499 7s28.666 14.834 42.999 30.501s26.666 31.834 36.999 48.501s25.833 43.334 46.5 80.001h39l-31 -209h-569z" />
    <glyph glyph-name="ebreve" unicode="&#x115;" horiz-adv-x="510" 
d="M279 544c67.333 0 119.333 -19.667 156 -59s55 -91 55 -155v-23h-323c-1.33301 -64 13 -114.833 43 -152.5s69 -56.5 117 -56.5c62.667 0 112.667 25.667 150 77l17 -10c-13.333 -54 -39 -96.667 -77 -128s-86.333 -47 -145 -47c-74 0 -134.167 24 -180.5 72
s-69.5 112 -69.5 192c0 86 24.833 155.833 74.5 209.5s110.5 80.5 182.5 80.5zM268 505c-29.333 0 -52.333 -14.167 -69 -42.5s-26.667 -66.5 -30 -114.5h180c0 104.667 -27 157 -81 157zM283 597c-45.333 0 -80 14.333 -104 43s-36 69.667 -36 123h42
c5.33301 -53.333 38 -80 98 -80c59.333 0 92 26.667 98 80h42c0 -53.333 -12.167 -94.333 -36.5 -123s-58.833 -43 -103.5 -43z" />
    <glyph glyph-name="Edotaccent" unicode="&#x116;" horiz-adv-x="644" 
d="M340 745c-26.667 0 -48.167 8.16699 -64.5 24.5s-24.5 36.5 -24.5 60.5s8.16699 44.167 24.5 60.5s37.833 24.5 64.5 24.5s48.334 -8.16699 65.001 -24.5s25 -36.5 25 -60.5s-8.33301 -44.167 -25 -60.5s-38.334 -24.5 -65.001 -24.5zM27 0l0.00292969 37.9961
c34 4 55.167 9.83301 63.5 17.5s12.5 24.834 12.5 51.501v488c0 26.667 -4.16699 43.834 -12.5 51.501s-29.5 13.5 -63.5 17.5v38h561l5 -187h-34c-26 57.333 -49.333 95.666 -70 114.999s-51.667 29 -93 29h-123v-272h113c22 0 37.667 6.66699 47 20s16.333 37.333 21 72
h39v-233h-39c-4.66699 34 -11.667 57.667 -21 71s-25 20 -47 20h-113v-226c0 -26 6.66699 -43.833 20 -53.5s35.333 -14.5 66 -14.5h49c21.333 0 39.166 2.33301 53.499 7s28.666 14.834 42.999 30.501s26.666 31.834 36.999 48.501s25.833 43.334 46.5 80.001h39l-31 -209
h-569z" />
    <glyph glyph-name="edotaccent" unicode="&#x117;" horiz-adv-x="510" 
d="M279 544c67.333 0 119.333 -19.667 156 -59s55 -91 55 -155v-23h-323c-1.33301 -64 13 -114.833 43 -152.5s69 -56.5 117 -56.5c62.667 0 112.667 25.667 150 77l17 -10c-13.333 -54 -39 -96.667 -77 -128s-86.333 -47 -145 -47c-74 0 -134.167 24 -180.5 72
s-69.5 112 -69.5 192c0 86 24.833 155.833 74.5 209.5s110.5 80.5 182.5 80.5zM268 505c-29.333 0 -52.333 -14.167 -69 -42.5s-26.667 -66.5 -30 -114.5h180c0 104.667 -27 157 -81 157zM280 599c-26 0 -47.333 8.33301 -64 25s-25 37 -25 61
c0 23.333 8.16699 43.333 24.5 60s37.833 25 64.5 25s48.334 -8.16699 65.001 -24.5s25 -36.5 25 -60.5s-8.33301 -44.333 -25 -61s-38.334 -25 -65.001 -25z" />
    <glyph glyph-name="Eogonek" unicode="&#x118;" horiz-adv-x="644" 
d="M27 0l0.00195312 37.9951c34 4 55.167 9.83301 63.5 17.5s12.5 24.834 12.5 51.501v488c0 26.667 -4.16699 43.834 -12.5 51.501s-29.5 13.5 -63.5 17.5v38h561l5 -187h-34c-26 57.333 -49.333 95.666 -70 114.999s-51.667 29 -93 29h-123v-272h113
c22 0 37.667 6.66699 47 20s16.333 37.333 21 72h39v-233h-39c-4.66699 34 -11.667 57.667 -21 71s-25 20 -47 20h-113v-226c0 -26 6.66699 -43.833 20 -53.5s35.333 -14.5 66 -14.5h49c21.333 0 39.166 2.33301 53.499 7s28.666 14.834 42.999 30.501
s26.666 31.834 36.999 48.501s25.833 43.334 46.5 80.001h39l-31 -209h-104c-46 -27.333 -69 -60.333 -69 -99c0 -15.333 4 -27.666 12 -36.999s19.333 -14 34 -14c23.333 0 46.333 9 69 27l15 -17c-39.333 -49.333 -83.666 -74 -132.999 -74c-26 0 -47.667 7.66699 -65 23
s-26 35.333 -26 60c0 51.333 37 95 111 131h-413z" />
    <glyph glyph-name="eogonek" unicode="&#x119;" horiz-adv-x="510" 
d="M281 544c66.667 0 118.167 -19.667 154.5 -59s54.5 -91 54.5 -155v-23h-323c-1.33301 -64 13 -114.833 43 -152.5s69 -56.5 117 -56.5c62.667 0 112.667 25.667 150 77l17 -10c-18.667 -74 -61 -126.667 -127 -158c-56.667 -26 -85 -59.667 -85 -101
c0 -17.333 4.16699 -31 12.5 -41s20.166 -15 35.499 -15c23.333 0 46.333 9 69 27l15 -17c-39.333 -49.333 -83.666 -74 -132.999 -74c-26.667 0 -48.667 7.5 -66 22.5s-26 35.167 -26 60.5c0 46.667 31.667 87 95 121h-12c-74 0 -134.167 24 -180.5 72s-69.5 112 -69.5 192
c0 86 24.833 155.833 74.5 209.5s111.167 80.5 184.5 80.5zM268 505c-29.333 0 -52.333 -14.167 -69 -42.5s-26.667 -66.5 -30 -114.5h180c0 104.667 -27 157 -81 157z" />
    <glyph glyph-name="Ecaron" unicode="&#x11a;" horiz-adv-x="644" 
d="M517 900l-122 -154h-110l-122 154h48l129 -76l129 76h48zM27 0l0.00292969 37.9961c34 4 55.167 9.83301 63.5 17.5s12.5 24.834 12.5 51.501v488c0 26.667 -4.16699 43.834 -12.5 51.501s-29.5 13.5 -63.5 17.5v38h561l5 -187h-34
c-26 57.333 -49.333 95.666 -70 114.999s-51.667 29 -93 29h-123v-272h113c22 0 37.667 6.66699 47 20s16.333 37.333 21 72h39v-233h-39c-4.66699 34 -11.667 57.667 -21 71s-25 20 -47 20h-113v-226c0 -26 6.66699 -43.833 20 -53.5s35.333 -14.5 66 -14.5h49
c21.333 0 39.166 2.33301 53.499 7s28.666 14.834 42.999 30.501s26.666 31.834 36.999 48.501s25.833 43.334 46.5 80.001h39l-31 -209h-569z" />
    <glyph glyph-name="ecaron" unicode="&#x11b;" horiz-adv-x="510" 
d="M449 769l-115 -171h-110l-115 171h50l120 -91l120 91h50zM279 544c67.333 0 119.333 -19.667 156 -59s55 -91 55 -155v-23h-323c-1.33301 -64 13 -114.833 43 -152.5s69 -56.5 117 -56.5c62.667 0 112.667 25.667 150 77l17 -10c-13.333 -54 -39 -96.667 -77 -128
s-86.333 -47 -145 -47c-74 0 -134.167 24 -180.5 72s-69.5 112 -69.5 192c0 86 24.833 155.833 74.5 209.5s110.5 80.5 182.5 80.5zM268 505c-29.333 0 -52.333 -14.167 -69 -42.5s-26.667 -66.5 -30 -114.5h180c0 104.667 -27 157 -81 157z" />
    <glyph glyph-name="Gcircumflex" unicode="&#x11c;" horiz-adv-x="731" 
d="M485 56l0.000976562 168.001c0 26.667 -4.16699 43.834 -12.5 51.501s-29.5 13.5 -63.5 17.5v38h312v-38c-34 -4 -55.167 -9.83301 -63.5 -17.5s-12.5 -24.834 -12.5 -51.501v-166c-70.667 -45.333 -158.334 -68 -263.001 -68c-111.333 0 -198.166 32.167 -260.499 96.5
s-93.5 146.833 -93.5 247.5c0 114 35.167 205.5 105.5 274.5s158.5 103.5 264.5 103.5c90 0 164.667 -19.333 224 -58l3 -168h-44c-24.667 120.667 -84 181 -178 181c-64.667 0 -113.334 -28.333 -146.001 -85s-49 -130.334 -49 -221.001c0 -59.333 6.83301 -113 20.5 -161
s35.667 -87.333 66 -118s66.833 -46 109.5 -46c33.333 0 60.333 6.66699 81 20zM460.001 900.001l122 -155h-48l-129 76l-129 -76h-48l122 155h110z" />
    <glyph glyph-name="gcircumflex" unicode="&#x11d;" horiz-adv-x="541" 
d="M252 189c-38 0 -72.9971 5.33398 -104.997 16.001c-21.333 -20 -32 -38.333 -32 -55c0 -21.333 11 -32 33 -32h211c61.333 0 107.333 -12.333 138 -37s46 -60 46 -106c0 -62 -27.5 -110.5 -82.5 -145.5s-126.833 -52.5 -215.5 -52.5
c-76.667 0 -136.834 10.833 -180.501 32.5s-65.5 52.167 -65.5 91.5c0 44 31 73.333 93 88c-20 8 -35.667 20.5 -47 37.5s-17 36.167 -17 57.5c0 50 32 93.667 96 131c-63.333 28.667 -95 76.334 -95 143.001c0 57.333 21.333 102.666 64 135.999s97.667 50 165 50
c31.333 0 61.666 -4.66699 90.999 -14l174 4v-62h-43l-66 3c42 -28 63 -66.333 63 -115c0 -52.667 -20.833 -94.334 -62.5 -125.001s-95.834 -46 -162.501 -46zM362.003 -28.999l-252 0.000976562c-9.33301 -10 -14 -26 -14 -48c0 -32 13.833 -57.167 41.5 -75.5
s65.167 -27.5 112.5 -27.5c52 0 95 8.16699 129 24.5s51 41.166 51 74.499c0 34.667 -22.667 52 -68 52zM258.003 225.002c46 0 69 45 69 135c0 42 -6.5 76.833 -19.5 104.5s-31.833 41.5 -56.5 41.5c-46.667 0 -70 -44 -70 -132c0 -42.667 6.66699 -78.167 20 -106.5
s32.333 -42.5 57 -42.5zM325.003 766.002l115 -171h-50l-120 91l-120 -91h-50l115 171h110z" />
    <glyph glyph-name="Gbreve" unicode="&#x11e;" horiz-adv-x="731" 
d="M405 742c-46 0 -81.832 13.5 -107.499 40.5s-38.5 65.5 -38.5 115.5h41c8.66699 -48 43.667 -72 105 -72c62 0 97.333 24 106 72h41c0 -50 -12.833 -88.5 -38.5 -115.5s-61.834 -40.5 -108.501 -40.5zM485.001 56l0.000976562 168.001
c0 26.667 -4.16699 43.834 -12.5 51.501s-29.5 13.5 -63.5 17.5v38h312v-38c-34 -4 -55.167 -9.83301 -63.5 -17.5s-12.5 -24.834 -12.5 -51.501v-166c-70.667 -45.333 -158.334 -68 -263.001 -68c-111.333 0 -198.166 32.167 -260.499 96.5s-93.5 146.833 -93.5 247.5
c0 114 35.167 205.5 105.5 274.5s158.5 103.5 264.5 103.5c90 0 164.667 -19.333 224 -58l3 -168h-44c-24.667 120.667 -84 181 -178 181c-64.667 0 -113.334 -28.333 -146.001 -85s-49 -130.334 -49 -221.001c0 -59.333 6.83301 -113 20.5 -161s35.667 -87.333 66 -118
s66.833 -46 109.5 -46c33.333 0 60.333 6.66699 81 20z" />
    <glyph glyph-name="gbreve" unicode="&#x11f;" horiz-adv-x="541" 
d="M252 189c-38 0 -72.9971 5.33398 -104.997 16.001c-21.333 -20 -32 -38.333 -32 -55c0 -21.333 11 -32 33 -32h211c61.333 0 107.333 -12.333 138 -37s46 -60 46 -106c0 -62 -27.5 -110.5 -82.5 -145.5s-126.833 -52.5 -215.5 -52.5
c-76.667 0 -136.834 10.833 -180.501 32.5s-65.5 52.167 -65.5 91.5c0 44 31 73.333 93 88c-20 8 -35.667 20.5 -47 37.5s-17 36.167 -17 57.5c0 50 32 93.667 96 131c-63.333 28.667 -95 76.334 -95 143.001c0 57.333 21.333 102.666 64 135.999s97.667 50 165 50
c31.333 0 61.666 -4.66699 90.999 -14l174 4v-62h-43l-66 3c42 -28 63 -66.333 63 -115c0 -52.667 -20.833 -94.334 -62.5 -125.001s-95.834 -46 -162.501 -46zM362.003 -28.999l-252 0.000976562c-9.33301 -10 -14 -26 -14 -48c0 -32 13.833 -57.167 41.5 -75.5
s65.167 -27.5 112.5 -27.5c52 0 95 8.16699 129 24.5s51 41.166 51 74.499c0 34.667 -22.667 52 -68 52zM258.003 225.002c46 0 69 45 69 135c0 42 -6.5 76.833 -19.5 104.5s-31.833 41.5 -56.5 41.5c-46.667 0 -70 -44 -70 -132c0 -42.667 6.66699 -78.167 20 -106.5
s32.333 -42.5 57 -42.5zM270.003 597.002c-45.333 0 -80 14.333 -104 43s-36 69.667 -36 123h42c5.33301 -53.333 38 -80 98 -80c59.333 0 92 26.667 98 80h42c0 -53.333 -12.167 -94.333 -36.5 -123s-58.833 -43 -103.5 -43z" />
    <glyph glyph-name="Gdotaccent" unicode="&#x120;" horiz-adv-x="731" 
d="M405 745c-26 0 -47.333 8.16699 -64 24.5s-25 36.5 -25 60.5s8.33301 44.167 25 60.5s38 24.5 64 24.5c26.667 0 48.334 -8.16699 65.001 -24.5s25 -36.5 25 -60.5s-8.33301 -44.167 -25 -60.5s-38.334 -24.5 -65.001 -24.5zM485 56l0.000976562 168.001
c0 26.667 -4.16699 43.834 -12.5 51.501s-29.5 13.5 -63.5 17.5v38h312v-38c-34 -4 -55.167 -9.83301 -63.5 -17.5s-12.5 -24.834 -12.5 -51.501v-166c-70.667 -45.333 -158.334 -68 -263.001 -68c-111.333 0 -198.166 32.167 -260.499 96.5s-93.5 146.833 -93.5 247.5
c0 114 35.167 205.5 105.5 274.5s158.5 103.5 264.5 103.5c90 0 164.667 -19.333 224 -58l3 -168h-44c-24.667 120.667 -84 181 -178 181c-64.667 0 -113.334 -28.333 -146.001 -85s-49 -130.334 -49 -221.001c0 -59.333 6.83301 -113 20.5 -161s35.667 -87.333 66 -118
s66.833 -46 109.5 -46c33.333 0 60.333 6.66699 81 20z" />
    <glyph glyph-name="gdotaccent" unicode="&#x121;" horiz-adv-x="541" 
d="M252 189c-38 0 -72.9971 5.33398 -104.997 16.001c-21.333 -20 -32 -38.333 -32 -55c0 -21.333 11 -32 33 -32h211c61.333 0 107.333 -12.333 138 -37s46 -60 46 -106c0 -62 -27.5 -110.5 -82.5 -145.5s-126.833 -52.5 -215.5 -52.5
c-76.667 0 -136.834 10.833 -180.501 32.5s-65.5 52.167 -65.5 91.5c0 44 31 73.333 93 88c-20 8 -35.667 20.5 -47 37.5s-17 36.167 -17 57.5c0 50 32 93.667 96 131c-63.333 28.667 -95 76.334 -95 143.001c0 57.333 21.333 102.666 64 135.999s97.667 50 165 50
c31.333 0 61.666 -4.66699 90.999 -14l174 4v-62h-43l-66 3c42 -28 63 -66.333 63 -115c0 -52.667 -20.833 -94.334 -62.5 -125.001s-95.834 -46 -162.501 -46zM362.003 -28.999l-252 0.000976562c-9.33301 -10 -14 -26 -14 -48c0 -32 13.833 -57.167 41.5 -75.5
s65.167 -27.5 112.5 -27.5c52 0 95 8.16699 129 24.5s51 41.166 51 74.499c0 34.667 -22.667 52 -68 52zM258.003 225.002c46 0 69 45 69 135c0 42 -6.5 76.833 -19.5 104.5s-31.833 41.5 -56.5 41.5c-46.667 0 -70 -44 -70 -132c0 -42.667 6.66699 -78.167 20 -106.5
s32.333 -42.5 57 -42.5zM270.003 599.002c-26 0 -47.333 8.33301 -64 25s-25 37 -25 61c0 23.333 8.16699 43.333 24.5 60s37.833 25 64.5 25s48.334 -8.16699 65.001 -24.5s25 -36.5 25 -60.5s-8.33301 -44.333 -25 -61s-38.334 -25 -65.001 -25z" />
    <glyph glyph-name="Gcommaaccent" unicode="&#x122;" horiz-adv-x="731" 
d="M422 -154l-52.002 0.000976562c-30.667 7.33301 -46 26 -46 56c0 18 6.83301 32.5 20.5 43.5s31.834 16.5 54.501 16.5c26.667 0 48 -8.33301 64 -25s24 -37.667 24 -63c0 -34.667 -12.833 -62.334 -38.5 -83.001s-64.5 -31 -116.5 -31v33c28 0 49.833 5.16699 65.5 15.5
s23.834 22.833 24.501 37.5zM484.998 56.001l0.000976562 168.001c0 26.667 -4.16699 43.834 -12.5 51.501s-29.5 13.5 -63.5 17.5v38h312v-38c-34 -4 -55.167 -9.83301 -63.5 -17.5s-12.5 -24.834 -12.5 -51.501v-166c-70.667 -45.333 -158.334 -68 -263.001 -68
c-111.333 0 -198.166 32.167 -260.499 96.5s-93.5 146.833 -93.5 247.5c0 114 35.167 205.5 105.5 274.5s158.5 103.5 264.5 103.5c90 0 164.667 -19.333 224 -58l3 -168h-44c-24.667 120.667 -84 181 -178 181c-64.667 0 -113.334 -28.333 -146.001 -85
s-49 -130.334 -49 -221.001c0 -59.333 6.83301 -113 20.5 -161s35.667 -87.333 66 -118s66.833 -46 109.5 -46c33.333 0 60.333 6.66699 81 20z" />
    <glyph glyph-name="gcommaaccent" unicode="&#x123;" horiz-adv-x="541" 
d="M252 189c-38 0 -72.9971 5.33398 -104.997 16.001c-21.333 -20 -32 -38.333 -32 -55c0 -21.333 11 -32 33 -32h211c61.333 0 107.333 -12.333 138 -37s46 -60 46 -106c0 -62 -27.5 -110.5 -82.5 -145.5s-126.833 -52.5 -215.5 -52.5
c-76.667 0 -136.834 10.833 -180.501 32.5s-65.5 52.167 -65.5 91.5c0 44 31 73.333 93 88c-20 8 -35.667 20.5 -47 37.5s-17 36.167 -17 57.5c0 50 32 93.667 96 131c-63.333 28.667 -95 76.334 -95 143.001c0 57.333 21.333 102.666 64 135.999s97.667 50 165 50
c31.333 0 61.666 -4.66699 90.999 -14l174 4v-62h-43l-66 3c42 -28 63 -66.333 63 -115c0 -52.667 -20.833 -94.334 -62.5 -125.001s-95.834 -46 -162.501 -46zM362.003 -28.999l-252 0.000976562c-9.33301 -10 -14 -26 -14 -48c0 -32 13.833 -57.167 41.5 -75.5
s65.167 -27.5 112.5 -27.5c52 0 95 8.16699 129 24.5s51 41.166 51 74.499c0 34.667 -22.667 52 -68 52zM258.003 225.002c46 0 69 45 69 135c0 42 -6.5 76.833 -19.5 104.5s-31.833 41.5 -56.5 41.5c-46.667 0 -70 -44 -70 -132c0 -42.667 6.66699 -78.167 20 -106.5
s32.333 -42.5 57 -42.5zM254.003 712.002l52.001 -0.000976562c30.667 -7.33301 46 -26 46 -56c0 -18 -6.83301 -32.5 -20.5 -43.5s-31.834 -16.5 -54.501 -16.5c-26.667 0 -48 8.33301 -64 25s-24 37.667 -24 63c0 34.667 12.833 62.334 38.5 83.001s64.5 31 116.5 31v-33
c-28.667 0 -50.667 -5 -66 -15s-23.333 -22.667 -24 -38z" />
    <glyph glyph-name="Hcircumflex" unicode="&#x124;" horiz-adv-x="825" 
d="M273 595v-210h279v210c0 26.667 -4.16699 43.834 -12.5 51.501s-29.833 13.5 -64.5 17.5v38h323v-38c-34 -4 -55.167 -9.83301 -63.5 -17.5s-12.5 -24.834 -12.5 -51.501v-488c0 -26.667 4.16699 -43.834 12.5 -51.501s29.5 -13.5 63.5 -17.5v-38h-323v38
c34.667 4 56.167 9.83301 64.5 17.5s12.5 24.834 12.5 51.501v223h-279v-223c0 -26.667 4.16699 -43.834 12.5 -51.501s29.833 -13.5 64.5 -17.5v-38h-323v38c34 4 55.167 9.83301 63.5 17.5s12.5 24.834 12.5 51.501v488c0 26.667 -4.16699 43.834 -12.5 51.501
s-29.5 13.5 -63.5 17.5v38h323v-38c-34.667 -4 -56.167 -9.83301 -64.5 -17.5s-12.5 -24.834 -12.5 -51.501zM467 900l122 -155h-48l-129 76l-129 -76h-48l122 155h110z" />
    <glyph glyph-name="hcircumflex" unicode="&#x125;" horiz-adv-x="639" 
d="M77 77l-0.00195312 604l-57 30v25l192 47h26v-338c54 66 115.667 99 185 99c98 0 147 -54.667 147 -164v-303c0 -16 4.16699 -26.5 12.5 -31.5s23.833 -8.16699 46.5 -9.5v-36h-277v36c22.667 1.33301 37.834 4.5 45.501 9.5s11.5 15.5 11.5 31.5v292
c0 26.667 -5.5 46.5 -16.5 59.5s-29.5 19.5 -55.5 19.5c-31.333 0 -64.333 -10.667 -99 -32v-339c0 -16 3.83301 -26.5 11.5 -31.5s22.834 -8.16699 45.501 -9.5v-36h-277v36c22.667 1.33301 38.167 4.5 46.5 9.5s12.5 15.5 12.5 31.5zM374.998 958l122 -155h-48l-129 76
l-129 -76h-48l122 155h110z" />
    <glyph glyph-name="Hbar" unicode="&#x126;" horiz-adv-x="845" 
d="M283 595v-48h279v48c0 26.667 -4.16699 43.834 -12.5 51.501s-29.833 13.5 -64.5 17.5v38h323v-38c-34 -4 -55.167 -9.83301 -63.5 -17.5s-12.5 -24.834 -12.5 -51.501v-48h76v-55h-76v-385c0 -26.667 4.16699 -43.834 12.5 -51.501s29.5 -13.5 63.5 -17.5v-38h-323v38
c34.667 4 56.167 9.83301 64.5 17.5s12.5 24.834 12.5 51.501v223h-279v-223c0 -26.667 4.16699 -43.834 12.5 -51.501s29.833 -13.5 64.5 -17.5v-38h-323v38c34 4 55.167 9.83301 63.5 17.5s12.5 24.834 12.5 51.501v385h-76v55h76v48
c0 26.667 -4.16699 43.834 -12.5 51.501s-29.5 13.5 -63.5 17.5v38h323v-38c-34.667 -4 -56.167 -9.83301 -64.5 -17.5s-12.5 -24.834 -12.5 -51.501zM283 385h279v107h-279v-107z" />
    <glyph glyph-name="hbar" unicode="&#x127;" horiz-adv-x="639" 
d="M77 77l-0.00195312 514h-57v46h57v44l-57 30v25l192 47h26v-146h125v-46h-125v-146c54 66 115.667 99 185 99c98 0 147 -54.667 147 -164v-303c0 -16 4.16699 -26.5 12.5 -31.5s23.833 -8.16699 46.5 -9.5v-36h-277v36c22.667 1.33301 37.834 4.5 45.501 9.5
s11.5 15.5 11.5 31.5v292c0 26.667 -5.5 46.5 -16.5 59.5s-29.5 19.5 -55.5 19.5c-31.333 0 -64.333 -10.667 -99 -32v-339c0 -16 3.83301 -26.5 11.5 -31.5s22.834 -8.16699 45.501 -9.5v-36h-277v36c22.667 1.33301 38.167 4.5 46.5 9.5s12.5 15.5 12.5 31.5z" />
    <glyph glyph-name="Itilde" unicode="&#x128;" horiz-adv-x="377" 
d="M273 595v-488c0 -26.667 4.16699 -43.834 12.5 -51.501s29.833 -13.5 64.5 -17.5v-38h-323v38c34 4 55.167 9.83301 63.5 17.5s12.5 24.834 12.5 51.501v488c0 26.667 -4.16699 43.834 -12.5 51.501s-29.5 13.5 -63.5 17.5v38h323v-38
c-34.667 -4 -56.167 -9.83301 -64.5 -17.5s-12.5 -24.834 -12.5 -51.501zM256 745c-21.333 0 -46.001 10 -74.001 30s-48.333 30 -61 30s-24 -4.5 -34 -13.5s-20.667 -23.167 -32 -42.5l-30 17c18 46 35 79.167 51 99.5s36 30.5 60 30.5c21.333 0 46 -10 74 -30
s48.333 -30 61 -30c24 0 46 18.667 66 56l30 -17c-17.333 -46 -34.166 -79.167 -50.499 -99.5s-36.5 -30.5 -60.5 -30.5z" />
    <glyph glyph-name="itilde" unicode="&#x129;" horiz-adv-x="316" 
d="M215 602c-18.667 0 -40.832 9.83398 -66.499 29.501s-44.5 29.5 -56.5 29.5c-13.333 0 -24.333 -4.33301 -33 -13s-18.334 -22.667 -29.001 -42l-32 17c17.333 46.667 33.5 80 48.5 100s34.5 30 58.5 30c20 0 42.667 -9.66699 68 -29s43.666 -29 54.999 -29
c13.333 0 24.333 4.16699 33 12.5s18.334 22.166 29.001 41.499l31 -17c-16.667 -46.667 -32.5 -80 -47.5 -100s-34.5 -30 -58.5 -30zM242.002 544.001v-467c0 -16 4.16699 -26.5 12.5 -31.5s23.833 -8.16699 46.5 -9.5v-36h-279v36c22.667 1.33301 38.167 4.5 46.5 9.5
s12.5 15.5 12.5 31.5v353l-58 35v23l192 56h27z" />
    <glyph glyph-name="Imacron" unicode="&#x12a;" horiz-adv-x="377" 
d="M273 595v-488c0 -26.667 4.16699 -43.834 12.5 -51.501s29.833 -13.5 64.5 -17.5v-38h-323v38c34 4 55.167 9.83301 63.5 17.5s12.5 24.834 12.5 51.501v488c0 26.667 -4.16699 43.834 -12.5 51.501s-29.5 13.5 -63.5 17.5v38h323v-38
c-34.667 -4 -56.167 -9.83301 -64.5 -17.5s-12.5 -24.834 -12.5 -51.501zM44 757v77h289v-77h-289z" />
    <glyph glyph-name="imacron" unicode="&#x12b;" horiz-adv-x="316" 
d="M242 544v-467c0 -16 4.16699 -26.5 12.5 -31.5s23.833 -8.16699 46.5 -9.5v-36h-279v36c22.667 1.33301 38.167 4.5 46.5 9.5s12.5 15.5 12.5 31.5v353l-58 35v23l192 56h27zM33 624v76h258v-76h-258z" />
    <glyph glyph-name="Ibreve" unicode="&#x12c;" horiz-adv-x="377" 
d="M273 595v-488c0 -26.667 4.16699 -43.834 12.5 -51.501s29.833 -13.5 64.5 -17.5v-38h-323v38c34 4 55.167 9.83301 63.5 17.5s12.5 24.834 12.5 51.501v488c0 26.667 -4.16699 43.834 -12.5 51.501s-29.5 13.5 -63.5 17.5v38h323v-38
c-34.667 -4 -56.167 -9.83301 -64.5 -17.5s-12.5 -24.834 -12.5 -51.501zM188 742c-44.667 0 -79.333 13.5 -104 40.5s-37 65.5 -37 115.5h40c8 -48 41.667 -72 101 -72c60 0 94.333 24 103 72h39c0 -50 -12.5 -88.5 -37.5 -115.5s-59.833 -40.5 -104.5 -40.5z" />
    <glyph glyph-name="ibreve" unicode="&#x12d;" horiz-adv-x="316" 
d="M242 544v-467c0 -16 4.16699 -26.5 12.5 -31.5s23.833 -8.16699 46.5 -9.5v-36h-279v36c22.667 1.33301 38.167 4.5 46.5 9.5s12.5 15.5 12.5 31.5v353l-58 35v23l192 56h27zM163 597c-44 0 -77.5 14.333 -100.5 43s-34.5 69.667 -34.5 123h41
c4.66699 -53.333 36 -80 94 -80c57.333 0 89 26.667 95 80h41c0 -53.333 -11.833 -94.333 -35.5 -123s-57.167 -43 -100.5 -43z" />
    <glyph glyph-name="Iogonek" unicode="&#x12e;" horiz-adv-x="377" 
d="M273 595l-0.000976562 -488.001c0 -26.667 4.16699 -43.834 12.5 -51.501s29.833 -13.5 64.5 -17.5v-38h-110c-46 -27.333 -69 -60.333 -69 -99c0 -15.333 4 -27.666 12 -36.999s19.333 -14 34 -14c23.333 0 46.333 9 69 27l15 -17
c-39.333 -49.333 -83.666 -74 -132.999 -74c-26 0 -47.667 7.66699 -65 23s-26 35.333 -26 60c0 51.333 37 95 111 131h-161v38c34 4 55.167 9.83301 63.5 17.5s12.5 24.834 12.5 51.501v488c0 26.667 -4.16699 43.834 -12.5 51.501s-29.5 13.5 -63.5 17.5v38h323v-38
c-34.667 -4 -56.167 -9.83301 -64.5 -17.5s-12.5 -24.834 -12.5 -51.501z" />
    <glyph glyph-name="iogonek" unicode="&#x12f;" horiz-adv-x="316" 
d="M242 544l-0.000976562 -467.001c0 -16 4.16699 -26.5 12.5 -31.5s23.833 -8.16699 46.5 -9.5v-36h-91c-46 -27.333 -69 -60.333 -69 -99c0 -15.333 4 -27.666 12 -36.999s19.333 -14 34 -14c23.333 0 46.333 9 69 27l15 -17c-39.333 -49.333 -83.666 -74 -132.999 -74
c-26 0 -47.667 7.66699 -65 23s-26 35.333 -26 60c0 51.333 37 95 111 131h-136v36c22.667 1.33301 38.167 4.5 46.5 9.5s12.5 15.5 12.5 31.5v353l-58 35v23l192 56h27zM160.999 596.999c-26 0 -47.332 8.16699 -63.999 24.5s-25 36.5 -25 60.5s8.33301 44.333 25 61
s38 25 64 25s47.5 -8.33301 64.5 -25s25.5 -37 25.5 -61c0 -23.333 -8.33301 -43.333 -25 -60s-38.334 -25 -65.001 -25z" />
    <glyph glyph-name="Idotaccent" unicode="&#x130;" horiz-adv-x="377" 
d="M273 595v-488c0 -26.667 4.16699 -43.834 12.5 -51.501s29.833 -13.5 64.5 -17.5v-38h-323v38c34 4 55.167 9.83301 63.5 17.5s12.5 24.834 12.5 51.501v488c0 26.667 -4.16699 43.834 -12.5 51.501s-29.5 13.5 -63.5 17.5v38h323v-38
c-34.667 -4 -56.167 -9.83301 -64.5 -17.5s-12.5 -24.834 -12.5 -51.501zM188 745c-26.667 0 -48.167 8.16699 -64.5 24.5s-24.5 36.5 -24.5 60.5s8.16699 44.167 24.5 60.5s37.833 24.5 64.5 24.5s48.334 -8.16699 65.001 -24.5s25 -36.5 25 -60.5
s-8.33301 -44.167 -25 -60.5s-38.334 -24.5 -65.001 -24.5z" />
    <glyph glyph-name="dotlessi" unicode="&#x131;" horiz-adv-x="316" 
d="M242 544v-467c0 -16 4.16699 -26.5 12.5 -31.5s23.833 -8.16699 46.5 -9.5v-36h-279v36c22.667 1.33301 38.167 4.5 46.5 9.5s12.5 15.5 12.5 31.5v353l-58 35v23l192 56h27z" />
    <glyph glyph-name="IJ" unicode="&#x132;" horiz-adv-x="921" 
d="M273 595v-488c0 -26.667 4.16699 -43.834 12.5 -51.501s29.833 -13.5 64.5 -17.5v-38h-323v38c34 4 55.167 9.83301 63.5 17.5s12.5 24.834 12.5 51.501v488c0 26.667 -4.16699 43.834 -12.5 51.501s-29.5 13.5 -63.5 17.5v38h323v-38
c-34.667 -4 -56.167 -9.83301 -64.5 -17.5s-12.5 -24.834 -12.5 -51.501zM658 168l0.000976562 426.998c0 26.667 -4.16699 43.834 -12.5 51.501s-29.5 13.5 -63.5 17.5v38h323v-38c-34.667 -4 -56.167 -9.83301 -64.5 -17.5s-12.5 -24.834 -12.5 -51.501v-376
c0 -152.667 -83.333 -229 -250 -229c-70 0 -123.833 12.333 -161.5 37s-56.5 60.334 -56.5 107.001c0 36.667 14.667 64.334 44 83.001h111c-4 -22 -6 -45.333 -6 -70c0 -78.667 24.667 -118 74 -118c27.333 0 46.666 11.333 57.999 34s17 57.667 17 105z" />
    <glyph glyph-name="ij" unicode="&#x133;" horiz-adv-x="603" 
d="M242 544v-467c0 -16 4.16699 -26.5 12.5 -31.5s23.833 -8.16699 46.5 -9.5v-36h-279v36c22.667 1.33301 38.167 4.5 46.5 9.5s12.5 15.5 12.5 31.5v353l-58 35v23l192 56h27zM161 597c-26 0 -47.332 8.16699 -63.999 24.5s-25 36.5 -25 60.5s8.33301 44.333 25 61
s38 25 64 25s47.5 -8.33301 64.5 -25s25.5 -37 25.5 -61c0 -23.333 -8.33301 -43.333 -25 -60s-38.334 -25 -65.001 -25zM383.001 430l-58.002 35v23l192 56h27v-444c0 -50.667 -4.5 -89.834 -13.5 -117.501s-24.167 -53.5 -45.5 -77.5
c-37.333 -41.333 -90.666 -81.666 -159.999 -120.999l-16 18l41 67c14.667 23.333 23.834 49 27.501 77s5.5 66.333 5.5 115v369zM460.999 597c-26 0 -47.332 8.16699 -63.999 24.5s-25 36.5 -25 60.5s8.33301 44.333 25 61s38 25 64 25s47.5 -8.33301 64.5 -25
s25.5 -37 25.5 -61c0 -23.333 -8.33301 -43.333 -25 -60s-38.334 -25 -65.001 -25z" />
    <glyph glyph-name="Jcircumflex" unicode="&#x134;" horiz-adv-x="556" 
d="M293 168l0.000976562 426.998c0 26.667 -4.16699 43.834 -12.5 51.501s-29.5 13.5 -63.5 17.5v38h323v-38c-34.667 -4 -56.167 -9.83301 -64.5 -17.5s-12.5 -24.834 -12.5 -51.501v-376c0 -152.667 -83.333 -229 -250 -229c-70 0 -123.833 12.333 -161.5 37
s-56.5 60.334 -56.5 107.001c0 36.667 14.667 64.334 44 83.001h111c-4 -22 -6 -45.333 -6 -70c0 -78.667 24.667 -118 74 -118c27.333 0 46.666 11.333 57.999 34s17 57.667 17 105zM433.001 899.998l122 -155h-48l-129 76l-129 -76h-48l122 155h110z" />
    <glyph glyph-name="jcircumflex" unicode="&#x135;" horiz-adv-x="287" 
d="M67 430l-58.002 35v23l192 56h27v-444c0 -50.667 -4.5 -89.834 -13.5 -117.501s-24.167 -53.5 -45.5 -77.5c-37.333 -41.333 -90.666 -81.666 -159.999 -120.999l-16 18l41 67c14.667 23.333 23.834 49 27.501 77s5.5 66.333 5.5 115v369zM190.998 766l104 -170h-45
l-109 91l-109 -91h-45l104 170h100z" />
    <glyph glyph-name="Kcommaaccent" unicode="&#x136;" horiz-adv-x="741" 
d="M400 -154l-52.002 0.000976562c-30.667 7.33301 -46 26 -46 56c0 18 6.83301 32.5 20.5 43.5s31.834 16.5 54.501 16.5c26.667 0 48 -8.33301 64 -25s24 -37.667 24 -63c0 -34.667 -12.833 -62.334 -38.5 -83.001s-64.5 -31 -116.5 -31v33c28 0 49.833 5.16699 65.5 15.5
s23.834 22.833 24.501 37.5zM427.998 419.001l211.998 -310.998c18.667 -26 34.5 -43.667 47.5 -53s30.833 -15 53.5 -17v-38h-211c-28 24 -57.667 60 -89 108l-157 235l239 249c17.333 18.667 26 33.667 26 45c0 8 -5.16699 14.167 -15.5 18.5
s-29.166 7.16602 -56.499 8.49902v38h231v-38c-21.333 -1.33301 -37.666 -4.83301 -48.999 -10.5s-24 -15.834 -38 -30.501zM272.996 595.003v-488c0 -26.667 4.16699 -43.834 12.5 -51.501s29.833 -13.5 64.5 -17.5v-38h-323v38c34 4 55.167 9.83301 63.5 17.5
s12.5 24.834 12.5 51.501v488c0 26.667 -4.16699 43.834 -12.5 51.501s-29.5 13.5 -63.5 17.5v38h323v-38c-34.667 -4 -56.167 -9.83301 -64.5 -17.5s-12.5 -24.834 -12.5 -51.501z" />
    <glyph glyph-name="kcommaaccent" unicode="&#x137;" horiz-adv-x="611" 
d="M337 -154l-52.002 0.000976562c-30.667 7.33301 -46 26 -46 56c0 18 6.83301 32.5 20.5 43.5s31.834 16.5 54.501 16.5c26.667 0 48 -8.33301 64 -25s24 -37.667 24 -63c0 -34.667 -12.833 -62.334 -38.5 -83.001s-64.5 -31 -116.5 -31v33c28 0 49.833 5.16699 65.5 15.5
s23.834 22.833 24.501 37.5zM246.998 284.001l155 141.001c20.667 18.667 31 33.667 31 45c0 9.33301 -4.16699 15.666 -12.5 18.999s-24.833 6.33301 -49.5 9v36h219v-36c-36 -6 -63.333 -18.333 -82 -37l-124 -116l227 -320v-25h-169zM77.998 77.002l0.00195312 604
l-58 30v25l192 47h26v-706c0 -16 4.16699 -26.5 12.5 -31.5s24.166 -8.16699 47.499 -9.5v-36h-280v36c23.333 1.33301 39.166 4.5 47.499 9.5s12.5 15.5 12.5 31.5z" />
    <glyph glyph-name="kgreenlandic" unicode="&#x138;" horiz-adv-x="614" 
d="M250 284l155 141.001c20.667 18 31 33 31 45c0 9.33301 -4.16699 15.666 -12.5 18.999s-24.833 6.33301 -49.5 9v36h219v-36c-36 -6 -63.333 -18.333 -82 -37l-124 -116l227 -320v-25h-169zM81 77.001v353l-58 35v23l193 56h26v-467c0 -16 4.16699 -26.5 12.5 -31.5
s23.833 -8.16699 46.5 -9.5v-36h-279v36c22.667 1.33301 38.167 4.5 46.5 9.5s12.5 15.5 12.5 31.5z" />
    <glyph glyph-name="Lacute" unicode="&#x139;" horiz-adv-x="628" 
d="M221 894h161v-8l-165 -141h-46zM273 595v-484.001c0 -26 6.33301 -43.833 19 -53.5s34 -14.5 64 -14.5h36c34 0 63 12.333 87 37s57.333 73.667 100 147h38l-36 -227h-554v38c34 4 55.167 9.83301 63.5 17.5s12.5 24.834 12.5 51.501v488
c0 26.667 -4.16699 43.834 -12.5 51.501s-29.5 13.5 -63.5 17.5v38h323v-38c-34.667 -4 -56.167 -9.83301 -64.5 -17.5s-12.5 -24.834 -12.5 -51.501z" />
    <glyph glyph-name="lacute" unicode="&#x13a;" horiz-adv-x="313" 
d="M160 949h161v-8l-165 -141h-46zM238 783l0.00195312 -706c0 -16 4.16699 -26.5 12.5 -31.5s24.166 -8.16699 47.499 -9.5v-36h-280v36c23.333 1.33301 39.166 4.5 47.499 9.5s12.5 15.5 12.5 31.5v604l-58 30v25l192 47h26z" />
    <glyph glyph-name="Lcommaaccent" unicode="&#x13b;" horiz-adv-x="628" 
d="M338 -154l-52.002 0.000976562c-30.667 7.33301 -46 26 -46 56c0 18 6.83301 32.5 20.5 43.5s31.834 16.5 54.501 16.5c26.667 0 48 -8.33301 64 -25s24 -37.667 24 -63c0 -34.667 -12.833 -62.334 -38.5 -83.001s-64.5 -31 -116.5 -31v33c28 0 49.833 5.16699 65.5 15.5
s23.834 22.833 24.501 37.5zM272.998 595.001v-484.001c0 -26 6.33301 -43.833 19 -53.5s34 -14.5 64 -14.5h36c34 0 63 12.333 87 37s57.333 73.667 100 147h38l-36 -227h-554v38c34 4 55.167 9.83301 63.5 17.5s12.5 24.834 12.5 51.501v488
c0 26.667 -4.16699 43.834 -12.5 51.501s-29.5 13.5 -63.5 17.5v38h323v-38c-34.667 -4 -56.167 -9.83301 -64.5 -17.5s-12.5 -24.834 -12.5 -51.501z" />
    <glyph glyph-name="lcommaaccent" unicode="&#x13c;" horiz-adv-x="313" 
d="M175 -154l-52.002 0.000976562c-30.667 7.33301 -46 26 -46 56c0 18 6.83301 32.5 20.5 43.5s31.834 16.5 54.501 16.5c26.667 0 48 -8.33301 64 -25s24 -37.667 24 -63c0 -34.667 -12.833 -62.334 -38.5 -83.001s-64.5 -31 -116.5 -31v33c28 0 49.833 5.16699 65.5 15.5
s23.834 22.833 24.501 37.5zM237.998 783.001l0.00195312 -706c0 -16 4.16699 -26.5 12.5 -31.5s24.166 -8.16699 47.499 -9.5v-36h-280v36c23.333 1.33301 39.166 4.5 47.499 9.5s12.5 15.5 12.5 31.5v604l-58 30v25l192 47h26z" />
    <glyph glyph-name="Lcaron" unicode="&#x13d;" horiz-adv-x="628" 
d="M560 693l-113 -196h-33l14 205h132v-9zM273 595v-484.001c0 -26 6.33301 -43.833 19 -53.5s34 -14.5 64 -14.5h36c34 0 63 12.333 87 37s57.333 73.667 100 147h38l-36 -227h-554v38c34 4 55.167 9.83301 63.5 17.5s12.5 24.834 12.5 51.501v488
c0 26.667 -4.16699 43.834 -12.5 51.501s-29.5 13.5 -63.5 17.5v38h323v-38c-34.667 -4 -56.167 -9.83301 -64.5 -17.5s-12.5 -24.834 -12.5 -51.501z" />
    <glyph glyph-name="lcaron" unicode="&#x13e;" horiz-adv-x="313" 
d="M425 774l-113 -196h-33l14 205h132v-9zM238 783l0.00195312 -706c0 -16 4.16699 -26.5 12.5 -31.5s24.166 -8.16699 47.499 -9.5v-36h-280v36c23.333 1.33301 39.166 4.5 47.499 9.5s12.5 15.5 12.5 31.5v604l-58 30v25l192 47h26z" />
    <glyph glyph-name="Ldot" unicode="&#x13f;" horiz-adv-x="628" 
d="M273 595v-484.001c0 -26 6.33301 -43.833 19 -53.5s34 -14.5 64 -14.5h36c34 0 63 12.333 87 37s57.333 73.667 100 147h38l-36 -227h-554v38c34 4 55.167 9.83301 63.5 17.5s12.5 24.834 12.5 51.501v488c0 26.667 -4.16699 43.834 -12.5 51.501s-29.5 13.5 -63.5 17.5
v38h323v-38c-34.667 -4 -56.167 -9.83301 -64.5 -17.5s-12.5 -24.834 -12.5 -51.501zM428 400.999c0 26 8.66699 47.667 26 65s39 26 65 26c25.333 0 46.833 -8.66699 64.5 -26s26.5 -39 26.5 -65s-8.83301 -47.833 -26.5 -65.5s-39.167 -26.5 -64.5 -26.5
c-26 0 -47.667 8.83301 -65 26.5s-26 39.5 -26 65.5z" />
    <glyph glyph-name="ldot" unicode="&#x140;" horiz-adv-x="418" 
d="M238 783l0.00195312 -706c0 -16 4.16699 -26.5 12.5 -31.5s24.166 -8.16699 47.499 -9.5v-36h-280v36c23.333 1.33301 39.166 4.5 47.499 9.5s12.5 15.5 12.5 31.5v604l-58 30v25l192 47h26zM275.002 383c0 25.333 8.66699 46.5 26 63.5s38.333 25.5 63 25.5
s45.667 -8.5 63 -25.5s26 -38.167 26 -63.5s-8.66699 -46.5 -26 -63.5s-38.333 -25.5 -63 -25.5s-45.667 8.5 -63 25.5s-26 38.167 -26 63.5z" />
    <glyph glyph-name="Lslash" unicode="&#x141;" horiz-adv-x="628" 
d="M273 595v-207.001l144 55v-55l-144 -54v-223c0 -26 6.33301 -43.833 19 -53.5s34 -14.5 64 -14.5h36c34 0 63 12.333 87 37s57.333 73.667 100 147h38l-36 -227h-554v38c34 4 55.167 9.83301 63.5 17.5s12.5 24.834 12.5 51.501v174l-72 -27v54l72 27v260
c0 26.667 -4.16699 43.834 -12.5 51.501s-29.5 13.5 -63.5 17.5v38h323v-38c-34.667 -4 -56.167 -9.83301 -64.5 -17.5s-12.5 -24.834 -12.5 -51.501z" />
    <glyph glyph-name="lslash" unicode="&#x142;" horiz-adv-x="332" 
d="M244 783l0.00195312 -293l81 43v-53l-81 -44v-359c0 -16 4.16699 -26.5 12.5 -31.5s24.166 -8.16699 47.499 -9.5v-36h-280v36c23.333 1.33301 39.166 4.5 47.499 9.5s12.5 15.5 12.5 31.5v294l-75 -38v53l75 39v256l-58 30v25l192 47h26z" />
    <glyph glyph-name="Nacute" unicode="&#x143;" horiz-adv-x="750" 
d="M388 894h161v-8l-165 -141h-46zM596 271l0.000976562 324c0 26 -6.16699 43.167 -18.5 51.5s-39.5 14.166 -81.5 17.499v38h237v-38c-34.667 -4 -56.167 -9.83301 -64.5 -17.5s-12.5 -24.834 -12.5 -51.501v-597h-60l-432 542v-433c0 -26 6.16699 -43.167 18.5 -51.5
s39.5 -14.166 81.5 -17.499v-38h-236v38c34 4 55.167 9.83301 63.5 17.5s12.5 24.834 12.5 51.501v494c-15.333 23.333 -27.833 39.333 -37.5 48s-22.834 13.667 -39.501 15v38h227z" />
    <glyph glyph-name="nacute" unicode="&#x144;" horiz-adv-x="643" 
d="M339 764h159v-8l-169 -157h-42zM413 77l-0.00195312 292c0 26.667 -5.5 46.5 -16.5 59.5s-29.5 19.5 -55.5 19.5c-32.667 0 -65.667 -10.667 -99 -32v-339c0 -16 3.83301 -26.5 11.5 -31.5s22.834 -8.16699 45.501 -9.5v-36h-277v36c22.667 1.33301 38.167 4.5 46.5 9.5
s12.5 15.5 12.5 31.5v353l-58 35v23l193 56h30l-4 -99c54 66 115.667 99 185 99c98 0 147 -54.333 147 -163v-304c0 -16 4.16699 -26.5 12.5 -31.5s23.833 -8.16699 46.5 -9.5v-36h-277v36c22.667 1.33301 37.834 4.5 45.501 9.5s11.5 15.5 11.5 31.5z" />
    <glyph glyph-name="Ncommaaccent" unicode="&#x145;" horiz-adv-x="750" 
d="M407 -154l-52.002 0.000976562c-30.667 7.33301 -46 26 -46 56c0 18 6.83301 32.5 20.5 43.5s31.834 16.5 54.501 16.5c26.667 0 48 -8.33301 64 -25s24 -37.667 24 -63c0 -34.667 -12.833 -62.334 -38.5 -83.001s-64.5 -31 -116.5 -31v33c28 0 49.833 5.16699 65.5 15.5
s23.834 22.833 24.501 37.5zM595.998 271.001l0.000976562 324c0 26 -6.16699 43.167 -18.5 51.5s-39.5 14.166 -81.5 17.499v38h237v-38c-34.667 -4 -56.167 -9.83301 -64.5 -17.5s-12.5 -24.834 -12.5 -51.501v-597h-60l-432 542v-433c0 -26 6.16699 -43.167 18.5 -51.5
s39.5 -14.166 81.5 -17.499v-38h-236v38c34 4 55.167 9.83301 63.5 17.5s12.5 24.834 12.5 51.501v494c-15.333 23.333 -27.833 39.333 -37.5 48s-22.834 13.667 -39.501 15v38h227z" />
    <glyph glyph-name="ncommaaccent" unicode="&#x146;" horiz-adv-x="643" 
d="M353 -154l-52.002 0.000976562c-30.667 7.33301 -46 26 -46 56c0 18 6.83301 32.5 20.5 43.5s31.834 16.5 54.501 16.5c26.667 0 48 -8.33301 64 -25s24 -37.667 24 -63c0 -34.667 -12.833 -62.334 -38.5 -83.001s-64.5 -31 -116.5 -31v33c28 0 49.833 5.16699 65.5 15.5
s23.834 22.833 24.501 37.5zM412.998 77.001l-0.00195312 292c0 26.667 -5.5 46.5 -16.5 59.5s-29.5 19.5 -55.5 19.5c-32.667 0 -65.667 -10.667 -99 -32v-339c0 -16 3.83301 -26.5 11.5 -31.5s22.834 -8.16699 45.501 -9.5v-36h-277v36
c22.667 1.33301 38.167 4.5 46.5 9.5s12.5 15.5 12.5 31.5v353l-58 35v23l193 56h30l-4 -99c54 66 115.667 99 185 99c98 0 147 -54.333 147 -163v-304c0 -16 4.16699 -26.5 12.5 -31.5s23.833 -8.16699 46.5 -9.5v-36h-277v36c22.667 1.33301 37.834 4.5 45.501 9.5
s11.5 15.5 11.5 31.5z" />
    <glyph glyph-name="Ncaron" unicode="&#x147;" horiz-adv-x="750" 
d="M567 900l-122 -154h-110l-122 154h48l129 -76l129 76h48zM596 271l0.000976562 324c0 26 -6.16699 43.167 -18.5 51.5s-39.5 14.166 -81.5 17.499v38h237v-38c-34.667 -4 -56.167 -9.83301 -64.5 -17.5s-12.5 -24.834 -12.5 -51.501v-597h-60l-432 542v-433
c0 -26 6.16699 -43.167 18.5 -51.5s39.5 -14.166 81.5 -17.499v-38h-236v38c34 4 55.167 9.83301 63.5 17.5s12.5 24.834 12.5 51.501v494c-15.333 23.333 -27.833 39.333 -37.5 48s-22.834 13.667 -39.501 15v38h227z" />
    <glyph glyph-name="ncaron" unicode="&#x148;" horiz-adv-x="643" 
d="M506 769l-115 -171h-110l-115 171h50l120 -91l120 91h50zM413 77l-0.00195312 292c0 26.667 -5.5 46.5 -16.5 59.5s-29.5 19.5 -55.5 19.5c-32.667 0 -65.667 -10.667 -99 -32v-339c0 -16 3.83301 -26.5 11.5 -31.5s22.834 -8.16699 45.501 -9.5v-36h-277v36
c22.667 1.33301 38.167 4.5 46.5 9.5s12.5 15.5 12.5 31.5v353l-58 35v23l193 56h30l-4 -99c54 66 115.667 99 185 99c98 0 147 -54.333 147 -163v-304c0 -16 4.16699 -26.5 12.5 -31.5s23.833 -8.16699 46.5 -9.5v-36h-277v36c22.667 1.33301 37.834 4.5 45.501 9.5
s11.5 15.5 11.5 31.5z" />
    <glyph glyph-name="Eng" unicode="&#x14a;" horiz-adv-x="750" 
d="M534 77l-369.999 463v-433c0 -26 6.16699 -43.167 18.5 -51.5s39.5 -14.166 81.5 -17.499v-38h-236v38c34 4 55.167 9.83301 63.5 17.5s12.5 24.834 12.5 51.501v494c-15.333 23.333 -27.833 39.333 -37.5 48s-22.834 13.667 -39.501 15v38h228l341 -431v324
c0 26 -6.16699 43.167 -18.5 51.5s-39.5 14.166 -81.5 17.499v38h237v-38c-34.667 -4 -56.167 -9.83301 -64.5 -17.5s-12.5 -24.834 -12.5 -51.501v-495c0 -50.667 -3.83301 -89.5 -11.5 -116.5s-21.5 -52.5 -41.5 -76.5c-21.333 -26 -42.5 -47 -63.5 -63
s-49.167 -33 -84.5 -51l-16 18l37 51c38.667 53.333 58 125 58 215z" />
    <glyph glyph-name="eng" unicode="&#x14b;" horiz-adv-x="633" 
d="M413 61l-0.00195312 308.001c0 26.667 -5.5 46.5 -16.5 59.5s-29.5 19.5 -55.5 19.5c-32.667 0 -65.667 -10.667 -99 -32v-339c0 -16 3.83301 -26.5 11.5 -31.5s22.834 -8.16699 45.501 -9.5v-36h-277v36c22.667 1.33301 38.167 4.5 46.5 9.5s12.5 15.5 12.5 31.5v353
l-58 35v23l193 56h30l-4 -99c54 66 115.667 99 185 99c98 0 147 -54.333 147 -163v-281c0 -50.667 -4.5 -89.834 -13.5 -117.501s-24.167 -53.5 -45.5 -77.5c-38.667 -42.667 -92 -83 -160 -121l-16 18l41 67c14.667 23.333 23.834 49 27.501 77s5.5 66.333 5.5 115z" />
    <glyph glyph-name="Omacron" unicode="&#x14c;" horiz-adv-x="734" 
d="M225 757v77h289v-77h-289zM372 35c50.667 0 88.833 29.668 114.5 89.001s38.5 132 38.5 218c0 60.667 -5.33301 114.5 -16 161.5s-28.5 86 -53.5 117s-56.167 46.5 -93.5 46.5c-34.667 0 -64 -15.167 -88 -45.5s-40.833 -67.833 -50.5 -112.5
s-14.5 -94.334 -14.5 -149.001c0 -60.667 5.33301 -114.5 16 -161.5s28.5 -86 53.5 -117s56.167 -46.5 93.5 -46.5zM358.999 -9.99902c-103.333 0 -184.333 33.5 -243 100.5s-88 149.167 -88 246.5c0 113.333 32.333 204.166 97 272.499s147.667 102.5 249 102.5
c104 0 185.333 -33.333 244 -100s88 -149 88 -247c0 -113.333 -32.5 -204.166 -97.5 -272.499s-148.167 -102.5 -249.5 -102.5z" />
    <glyph glyph-name="omacron" unicode="&#x14d;" horiz-adv-x="580" 
d="M155 624v77h277v-77h-277zM294 29c62.667 0 94 70 94 210c0 177.333 -34 266 -102 266c-62.667 0 -94 -70 -94 -210c0 -177.333 34 -266 102 -266zM289 -10c-80 0 -144.5 24.333 -193.5 73s-73.5 113 -73.5 193c0 84 25.333 153 76 207s115 81 193 81
c80 0 144.667 -24.333 194 -73s74 -113 74 -193c0 -84 -25.5 -153 -76.5 -207s-115.5 -81 -193.5 -81z" />
    <glyph glyph-name="Obreve" unicode="&#x14e;" horiz-adv-x="734" 
d="M369 742c-46 0 -81.832 13.5 -107.499 40.5s-38.5 65.5 -38.5 115.5h41c8.66699 -48 43.667 -72 105 -72c62 0 97.333 24 106 72h41c0 -50 -12.833 -88.5 -38.5 -115.5s-61.834 -40.5 -108.501 -40.5zM372.001 35c50.667 0 88.833 29.668 114.5 89.001s38.5 132 38.5 218
c0 60.667 -5.33301 114.5 -16 161.5s-28.5 86 -53.5 117s-56.167 46.5 -93.5 46.5c-34.667 0 -64 -15.167 -88 -45.5s-40.833 -67.833 -50.5 -112.5s-14.5 -94.334 -14.5 -149.001c0 -60.667 5.33301 -114.5 16 -161.5s28.5 -86 53.5 -117s56.167 -46.5 93.5 -46.5z
M359 -9.99902c-103.333 0 -184.333 33.5 -243 100.5s-88 149.167 -88 246.5c0 113.333 32.333 204.166 97 272.499s147.667 102.5 249 102.5c104 0 185.333 -33.333 244 -100s88 -149 88 -247c0 -113.333 -32.5 -204.166 -97.5 -272.499s-148.167 -102.5 -249.5 -102.5z" />
    <glyph glyph-name="obreve" unicode="&#x14f;" horiz-adv-x="580" 
d="M294 29c62.667 0 94 70 94 210c0 177.333 -34 266 -102 266c-62.667 0 -94 -70 -94 -210c0 -177.333 34 -266 102 -266zM289 -10c-80 0 -144.5 24.333 -193.5 73s-73.5 113 -73.5 193c0 84 25.333 153 76 207s115 81 193 81c80 0 144.667 -24.333 194 -73
s74 -113 74 -193c0 -84 -25.5 -153 -76.5 -207s-115.5 -81 -193.5 -81zM293 597c-45.333 0 -80 14.333 -104 43s-36 69.667 -36 123h42c5.33301 -53.333 38 -80 98 -80c59.333 0 92 26.667 98 80h42c0 -53.333 -12.167 -94.333 -36.5 -123s-58.833 -43 -103.5 -43z" />
    <glyph glyph-name="Ohungarumlaut" unicode="&#x150;" horiz-adv-x="734" 
d="M372 35c50.667 0 88.833 29.668 114.5 89.001s38.5 132 38.5 218c0 60.667 -5.33301 114.5 -16 161.5s-28.5 86 -53.5 117s-56.167 46.5 -93.5 46.5c-34.667 0 -64 -15.167 -88 -45.5s-40.833 -67.833 -50.5 -112.5s-14.5 -94.334 -14.5 -149.001
c0 -60.667 5.33301 -114.5 16 -161.5s28.5 -86 53.5 -117s56.167 -46.5 93.5 -46.5zM358.999 -9.99902c-103.333 0 -184.333 33.5 -243 100.5s-88 149.167 -88 246.5c0 113.333 32.333 204.166 97 272.499s147.667 102.5 249 102.5c104 0 185.333 -33.333 244 -100
s88 -149 88 -247c0 -113.333 -32.5 -204.166 -97.5 -272.499s-148.167 -102.5 -249.5 -102.5zM311.999 894.001h136v-8l-144 -141h-45zM481.999 894.001h137v-8l-145 -141h-45z" />
    <glyph glyph-name="ohungarumlaut" unicode="&#x151;" horiz-adv-x="580" 
d="M225 764h136v-8l-145 -157h-44zM395 764h137v-8l-146 -157h-44zM294 29c62.667 0 94 70 94 210c0 177.333 -34 266 -102 266c-62.667 0 -94 -70 -94 -210c0 -177.333 34 -266 102 -266zM289 -10c-80 0 -144.5 24.333 -193.5 73s-73.5 113 -73.5 193
c0 84 25.333 153 76 207s115 81 193 81c80 0 144.667 -24.333 194 -73s74 -113 74 -193c0 -84 -25.5 -153 -76.5 -207s-115.5 -81 -193.5 -81z" />
    <glyph glyph-name="OE" unicode="&#x152;" horiz-adv-x="1034" 
d="M493 659h-49.001c-72.667 0 -130.5 -26.667 -173.5 -80s-64.5 -126.333 -64.5 -219c0 -95.333 22.333 -172 67 -230s108.334 -87 191.001 -87h29v616zM984.999 0l-550 0.000976562c-132.667 0 -233.667 31.667 -303 95s-104 145 -104 245
c0 112.667 36.833 201.167 110.5 265.5s171.5 96.5 293.5 96.5h550v-187h-33c-26 57.333 -49.333 95.666 -70 114.999s-52 29 -94 29h-122v-272h113c22 0 37.5 6.66699 46.5 20s16.167 37.333 21.5 72h39v-233h-39c-5.33301 34.667 -12.5 58.5 -21.5 71.5
s-24.5 19.5 -46.5 19.5h-113v-226c0 -26 6.66699 -43.833 20 -53.5s35 -14.5 65 -14.5h50c40 0 70.333 10.5 91 31.5s50 65.833 88 134.5h40z" />
    <glyph glyph-name="oe" unicode="&#x153;" horiz-adv-x="878" 
d="M292 544c74.667 0 136.331 -26.667 184.998 -80c48.667 53.333 106 80 172 80c66.667 0 118.167 -19.667 154.5 -59s54.5 -91 54.5 -155v-23h-323c-1.33301 -64 13 -114.833 43 -152.5s69 -56.5 117 -56.5c62.667 0 112.667 25.667 150 77l17 -10
c-13.333 -54 -39 -96.667 -77 -128s-86.333 -47 -145 -47c-69.333 0 -127.666 26 -174.999 78c-50 -52 -108.667 -78 -176 -78c-80 0 -144.5 24.333 -193.5 73s-73.5 113 -73.5 193c0 84 25.333 153 76 207s115.334 81 194.001 81zM293.997 29c62.667 0 94 70 94 210
c0 177.333 -33.667 266 -101 266c-62.667 0 -94 -70 -94 -210c0 -177.333 33.667 -266 101 -266zM634.997 505c-28.667 0 -51.333 -14.167 -68 -42.5s-26.667 -66.5 -30 -114.5h180c0 104.667 -27.333 157 -82 157z" />
    <glyph glyph-name="Racute" unicode="&#x154;" horiz-adv-x="737" 
d="M311 657l-38.001 0.00195312v-315h40c48.667 0 85.834 14.167 111.501 42.5s38.5 68.166 38.5 119.499c0 47.333 -13.167 84.666 -39.5 111.999s-63.833 41 -112.5 41zM272.999 297.002l-0.000976562 -190.001c0 -26.667 4.16699 -43.834 12.5 -51.501
s29.833 -13.5 64.5 -17.5v-38h-323v38c34 4 55.167 9.83301 63.5 17.5s12.5 24.834 12.5 51.501v488c0 26.667 -4.16699 43.834 -12.5 51.501s-29.5 13.5 -63.5 17.5v38h342c82 0 146.667 -17.833 194 -53.5s71 -83.5 71 -143.5c0 -48.667 -15.167 -88.334 -45.5 -119.001
s-67.166 -52 -110.499 -64l145 -202c22 -31.333 40.5 -52.666 55.5 -63.999s34.5 -17.333 58.5 -18v-38h-208c-24.667 18 -52.667 52 -84 102l-126 195h-46zM349.998 894.001h161v-8l-165 -141h-46z" />
    <glyph glyph-name="racute" unicode="&#x155;" horiz-adv-x="433" 
d="M255 764h159v-8l-169 -157h-42zM242 359v-270c0 -20 5.5 -33 16.5 -39s32.833 -10.667 65.5 -14v-36h-302v36c22.667 1.33301 38.167 4.5 46.5 9.5s12.5 15.5 12.5 31.5v353l-58 35v23l193 56h30l-4 -151c22 57.333 42.833 96.833 62.5 118.5s44.5 32.5 74.5 32.5
c21.333 0 37 -5.66699 47 -17v-122h-21c-38 0 -69.167 -2.83301 -93.5 -8.5s-47.5 -18.167 -69.5 -37.5z" />
    <glyph glyph-name="Rcommaaccent" unicode="&#x156;" horiz-adv-x="737" 
d="M396 -154l-52.002 0.000976562c-30.667 7.33301 -46 26 -46 56c0 18 6.83301 32.5 20.5 43.5s31.834 16.5 54.501 16.5c26.667 0 48 -8.33301 64 -25s24 -37.667 24 -63c0 -34.667 -12.833 -62.334 -38.5 -83.001s-64.5 -31 -116.5 -31v33c28 0 49.833 5.16699 65.5 15.5
s23.834 22.833 24.501 37.5zM310.998 657.001l-38.001 0.00195312v-315h40c48.667 0 85.834 14.167 111.501 42.5s38.5 68.166 38.5 119.499c0 47.333 -13.167 84.666 -39.5 111.999s-63.833 41 -112.5 41zM272.997 297.003l-0.000976562 -190.001
c0 -26.667 4.16699 -43.834 12.5 -51.501s29.833 -13.5 64.5 -17.5v-38h-323v38c34 4 55.167 9.83301 63.5 17.5s12.5 24.834 12.5 51.501v488c0 26.667 -4.16699 43.834 -12.5 51.501s-29.5 13.5 -63.5 17.5v38h342c82 0 146.667 -17.833 194 -53.5s71 -83.5 71 -143.5
c0 -48.667 -15.167 -88.334 -45.5 -119.001s-67.166 -52 -110.499 -64l145 -202c22 -31.333 40.5 -52.666 55.5 -63.999s34.5 -17.333 58.5 -18v-38h-208c-24.667 18 -52.667 52 -84 102l-126 195h-46z" />
    <glyph glyph-name="rcommaaccent" unicode="&#x157;" horiz-adv-x="433" 
d="M187 -154l-52.002 0.000976562c-30.667 7.33301 -46 26 -46 56c0 18 6.83301 32.5 20.5 43.5s31.834 16.5 54.501 16.5c26.667 0 48 -8.33301 64 -25s24 -37.667 24 -63c0 -34.667 -12.833 -62.334 -38.5 -83.001s-64.5 -31 -116.5 -31v33c28 0 49.833 5.16699 65.5 15.5
s23.834 22.833 24.501 37.5zM241.998 359.001v-270c0 -20 5.5 -33 16.5 -39s32.833 -10.667 65.5 -14v-36h-302v36c22.667 1.33301 38.167 4.5 46.5 9.5s12.5 15.5 12.5 31.5v353l-58 35v23l193 56h30l-4 -151c22 57.333 42.833 96.833 62.5 118.5s44.5 32.5 74.5 32.5
c21.333 0 37 -5.66699 47 -17v-122h-21c-38 0 -69.167 -2.83301 -93.5 -8.5s-47.5 -18.167 -69.5 -37.5z" />
    <glyph glyph-name="Rcaron" unicode="&#x158;" horiz-adv-x="737" 
d="M526 900l-122 -154h-110l-122 154h48l129 -76l129 76h48zM311 657l-38.001 0.00195312v-315h40c48.667 0 85.834 14.167 111.501 42.5s38.5 68.166 38.5 119.499c0 47.333 -13.167 84.666 -39.5 111.999s-63.833 41 -112.5 41zM272.999 297.002l-0.000976562 -190.001
c0 -26.667 4.16699 -43.834 12.5 -51.501s29.833 -13.5 64.5 -17.5v-38h-323v38c34 4 55.167 9.83301 63.5 17.5s12.5 24.834 12.5 51.501v488c0 26.667 -4.16699 43.834 -12.5 51.501s-29.5 13.5 -63.5 17.5v38h342c82 0 146.667 -17.833 194 -53.5s71 -83.5 71 -143.5
c0 -48.667 -15.167 -88.334 -45.5 -119.001s-67.166 -52 -110.499 -64l145 -202c22 -31.333 40.5 -52.666 55.5 -63.999s34.5 -17.333 58.5 -18v-38h-208c-24.667 18 -52.667 52 -84 102l-126 195h-46z" />
    <glyph glyph-name="rcaron" unicode="&#x159;" horiz-adv-x="433" 
d="M423 769l-115 -171h-110l-115 171h50l120 -91l120 91h50zM242 359v-270c0 -20 5.5 -33 16.5 -39s32.833 -10.667 65.5 -14v-36h-302v36c22.667 1.33301 38.167 4.5 46.5 9.5s12.5 15.5 12.5 31.5v353l-58 35v23l193 56h30l-4 -151c22 57.333 42.833 96.833 62.5 118.5
s44.5 32.5 74.5 32.5c21.333 0 37 -5.66699 47 -17v-122h-21c-38 0 -69.167 -2.83301 -93.5 -8.5s-47.5 -18.167 -69.5 -37.5z" />
    <glyph glyph-name="Sacute" unicode="&#x15a;" horiz-adv-x="563" 
d="M268 -10c-47.333 0 -91.334 6.16699 -132.001 18.5s-73 28.166 -97 47.499l-9 173h47c12.667 -60 35.334 -107.5 68.001 -142.5s73.667 -52.5 123 -52.5c38 0 68.333 9.33301 91 28s34 44.334 34 77.001c0 33.333 -11.5 59.666 -34.5 78.999s-64.5 39 -124.5 59
c-66.667 21.333 -116.5 48.833 -149.5 82.5s-49.5 79.167 -49.5 136.5c0 64.667 22.333 116.834 67 156.501s103 59.5 175 59.5c87.333 0 158.333 -19.667 213 -59v-151h-42c-22.667 110.667 -79.667 166 -171 166c-33.333 0 -59.833 -9 -79.5 -27s-29.5 -42 -29.5 -72
c0 -32.667 10.5 -58 31.5 -76s58.833 -36.333 113.5 -55c74.667 -24.667 129.667 -53.667 165 -87s53 -81 53 -143c0 -70 -24.833 -123.833 -74.5 -161.5s-112.5 -56.5 -188.5 -56.5zM296.999 894h161v-8l-165 -141h-46z" />
    <glyph glyph-name="sacute" unicode="&#x15b;" horiz-adv-x="466" 
d="M244 764h159v-8l-169 -157h-42zM224 -10c-78 0 -139.666 16.665 -184.999 49.998l-6 136h41c11.333 -44 29.833 -79.667 55.5 -107s57.167 -41 94.5 -41c26 0 47.5 6.5 64.5 19.5s25.5 31.5 25.5 55.5c0 24.667 -8.33301 43.334 -25 56.001s-45.667 26.334 -87 41.001
c-57.333 19.333 -99.5 42.166 -126.5 68.499s-40.5 62.5 -40.5 108.5c0 52.667 17.833 93.667 53.5 123s83.167 44 142.5 44c65.333 0 120.666 -14.667 165.999 -44v-121h-38c-7.33301 36.667 -22 67 -44 91s-49.667 36 -83 36c-23.333 0 -42 -6.16699 -56 -18.5
s-21 -28.5 -21 -48.5c0 -21.333 7.66699 -38.333 23 -51s42 -25.667 80 -39c62 -21.333 107 -45.166 135 -71.499s42 -63.833 42 -112.5c0 -54.667 -19 -97.5 -57 -128.5s-89.333 -46.5 -154 -46.5z" />
    <glyph glyph-name="Scircumflex" unicode="&#x15c;" horiz-adv-x="563" 
d="M268 -10c-47.333 0 -91.334 6.16699 -132.001 18.5s-73 28.166 -97 47.499l-9 173h47c12.667 -60 35.334 -107.5 68.001 -142.5s73.667 -52.5 123 -52.5c38 0 68.333 9.33301 91 28s34 44.334 34 77.001c0 33.333 -11.5 59.666 -34.5 78.999s-64.5 39 -124.5 59
c-66.667 21.333 -116.5 48.833 -149.5 82.5s-49.5 79.167 -49.5 136.5c0 64.667 22.333 116.834 67 156.501s103 59.5 175 59.5c87.333 0 158.333 -19.667 213 -59v-151h-42c-22.667 110.667 -79.667 166 -171 166c-33.333 0 -59.833 -9 -79.5 -27s-29.5 -42 -29.5 -72
c0 -32.667 10.5 -58 31.5 -76s58.833 -36.333 113.5 -55c74.667 -24.667 129.667 -53.667 165 -87s53 -81 53 -143c0 -70 -24.833 -123.833 -74.5 -161.5s-112.5 -56.5 -188.5 -56.5zM344.999 900l122 -155h-48l-129 76l-129 -76h-48l122 155h110z" />
    <glyph glyph-name="scircumflex" unicode="&#x15d;" horiz-adv-x="466" 
d="M296 766l115 -171h-50l-120 91l-120 -91h-50l115 171h110zM224 -10c-78 0 -139.666 16.665 -184.999 49.998l-6 136h41c11.333 -44 29.833 -79.667 55.5 -107s57.167 -41 94.5 -41c26 0 47.5 6.5 64.5 19.5s25.5 31.5 25.5 55.5c0 24.667 -8.33301 43.334 -25 56.001
s-45.667 26.334 -87 41.001c-57.333 19.333 -99.5 42.166 -126.5 68.499s-40.5 62.5 -40.5 108.5c0 52.667 17.833 93.667 53.5 123s83.167 44 142.5 44c65.333 0 120.666 -14.667 165.999 -44v-121h-38c-7.33301 36.667 -22 67 -44 91s-49.667 36 -83 36
c-23.333 0 -42 -6.16699 -56 -18.5s-21 -28.5 -21 -48.5c0 -21.333 7.66699 -38.333 23 -51s42 -25.667 80 -39c62 -21.333 107 -45.166 135 -71.499s42 -63.833 42 -112.5c0 -54.667 -19 -97.5 -57 -128.5s-89.333 -46.5 -154 -46.5z" />
    <glyph glyph-name="Scedilla" unicode="&#x15e;" horiz-adv-x="563" 
d="M173 -228l-8.00195 31.999c34.667 0 61.334 4.66699 80.001 14s28 21.333 28 36c0 13.333 -6.5 22.5 -19.5 27.5s-33.167 8.16699 -60.5 9.5l40 101c-85.333 6 -150 27.333 -194 64l-9 173h47c12.667 -60 35.334 -107.5 68.001 -142.5s73.667 -52.5 123 -52.5
c38 0 68.333 9.33301 91 28s34 44.334 34 77.001c0 33.333 -11.5 59.666 -34.5 78.999s-64.5 39 -124.5 59c-66.667 21.333 -116.5 48.833 -149.5 82.5s-49.5 79.167 -49.5 136.5c0 64.667 22.333 116.834 67 156.501s103 59.5 175 59.5c87.333 0 158.333 -19.667 213 -59
v-151h-42c-22.667 110.667 -79.667 166 -171 166c-33.333 0 -59.833 -9 -79.5 -27s-29.5 -42 -29.5 -72c0 -32.667 10.5 -58 31.5 -76s58.833 -36.333 113.5 -55c74.667 -24.667 129.667 -53.667 165 -87s53 -81 53 -143c0 -70 -24.833 -123.833 -74.5 -161.5
s-112.5 -56.5 -188.5 -56.5h-1l-13 -32c32 0 57.333 -7 76 -21s28 -33.667 28 -59c0 -34.667 -17.5 -61 -52.5 -79s-79.167 -27 -132.5 -27z" />
    <glyph glyph-name="scedilla" unicode="&#x15f;" horiz-adv-x="466" 
d="M124 -228l-8.00098 31.998c34.667 0 61.334 4.66699 80.001 14s28 21.333 28 36c0 13.333 -6.5 22.5 -19.5 27.5s-33.167 8.16699 -60.5 9.5l40 101c-61.333 6 -109.666 22 -144.999 48l-6 136h41c11.333 -44 29.833 -79.667 55.5 -107s57.167 -41 94.5 -41
c26 0 47.5 6.5 64.5 19.5s25.5 31.5 25.5 55.5c0 24.667 -8.33301 43.334 -25 56.001s-45.667 26.334 -87 41.001c-57.333 19.333 -99.5 42.166 -126.5 68.499s-40.5 62.5 -40.5 108.5c0 52.667 17.833 93.667 53.5 123s83.167 44 142.5 44
c65.333 0 120.666 -14.667 165.999 -44v-121h-38c-7.33301 36.667 -22 67 -44 91s-49.667 36 -83 36c-23.333 0 -42 -6.16699 -56 -18.5s-21 -28.5 -21 -48.5c0 -21.333 7.66699 -38.333 23 -51s42 -25.667 80 -39c62 -21.333 107 -45.166 135 -71.499s42 -63.833 42 -112.5
c0 -54.667 -19 -97.5 -57 -128.5s-89.333 -46.5 -154 -46.5h-6l-13 -32c32 0 57.333 -7 76 -21s28 -33.667 28 -59c0 -34.667 -17.5 -61 -52.5 -79s-79.167 -27 -132.5 -27z" />
    <glyph glyph-name="Scaron" unicode="&#x160;" horiz-adv-x="563" 
d="M268 -10c-47.333 0 -91.334 6.16699 -132.001 18.5s-73 28.166 -97 47.499l-9 173h47c12.667 -60 35.334 -107.5 68.001 -142.5s73.667 -52.5 123 -52.5c38 0 68.333 9.33301 91 28s34 44.334 34 77.001c0 33.333 -11.5 59.666 -34.5 78.999s-64.5 39 -124.5 59
c-66.667 21.333 -116.5 48.833 -149.5 82.5s-49.5 79.167 -49.5 136.5c0 64.667 22.333 116.834 67 156.501s103 59.5 175 59.5c87.333 0 158.333 -19.667 213 -59v-151h-42c-22.667 110.667 -79.667 166 -171 166c-33.333 0 -59.833 -9 -79.5 -27s-29.5 -42 -29.5 -72
c0 -32.667 10.5 -58 31.5 -76s58.833 -36.333 113.5 -55c74.667 -24.667 129.667 -53.667 165 -87s53 -81 53 -143c0 -70 -24.833 -123.833 -74.5 -161.5s-112.5 -56.5 -188.5 -56.5zM466.999 900l-122 -154h-110l-122 154h48l129 -76l129 76h48z" />
    <glyph glyph-name="scaron" unicode="&#x161;" horiz-adv-x="466" 
d="M411 769l-115 -171h-110l-115 171h50l120 -91l120 91h50zM224 -10c-78 0 -139.666 16.665 -184.999 49.998l-6 136h41c11.333 -44 29.833 -79.667 55.5 -107s57.167 -41 94.5 -41c26 0 47.5 6.5 64.5 19.5s25.5 31.5 25.5 55.5c0 24.667 -8.33301 43.334 -25 56.001
s-45.667 26.334 -87 41.001c-57.333 19.333 -99.5 42.166 -126.5 68.499s-40.5 62.5 -40.5 108.5c0 52.667 17.833 93.667 53.5 123s83.167 44 142.5 44c65.333 0 120.666 -14.667 165.999 -44v-121h-38c-7.33301 36.667 -22 67 -44 91s-49.667 36 -83 36
c-23.333 0 -42 -6.16699 -56 -18.5s-21 -28.5 -21 -48.5c0 -21.333 7.66699 -38.333 23 -51s42 -25.667 80 -39c62 -21.333 107 -45.166 135 -71.499s42 -63.833 42 -112.5c0 -54.667 -19 -97.5 -57 -128.5s-89.333 -46.5 -154 -46.5z" />
    <glyph glyph-name="Tcedilla" unicode="&#x162;" horiz-adv-x="691" 
d="M362 -154l-52.002 0.000976562c-30.667 7.33301 -46 26 -46 56c0 18 6.83301 32.5 20.5 43.5s31.834 16.5 54.501 16.5c26.667 0 48 -8.33301 64 -25s24 -37.667 24 -63c0 -34.667 -12.833 -62.334 -38.5 -83.001s-64.5 -31 -116.5 -31v33c28 0 49.833 5.16699 65.5 15.5
s23.834 22.833 24.501 37.5zM29.998 702.001h631.002l15 -241h-36c-36.667 82.667 -65 137.167 -85 163.5s-47 39.5 -81 39.5h-43v-561c0 -25.333 5.16699 -41.333 15.5 -48s33.833 -12.334 70.5 -17.001v-38h-343v38c20 2.66699 34.167 4.66699 42.5 6
s16.666 4.33301 24.999 9s13.666 10.834 15.999 18.501s3.5 18.167 3.5 31.5v561h-44c-34 0 -61 -13.167 -81 -39.5s-48.333 -80.833 -85 -163.5h-36z" />
    <glyph glyph-name="tcedilla" unicode="&#x163;" horiz-adv-x="375" 
d="M209 -154l-52.002 0.000976562c-30.667 7.33301 -46 26 -46 56c0 18 6.83301 32.5 20.5 43.5s31.834 16.5 54.501 16.5c26.667 0 48 -8.33301 64 -25s24 -37.667 24 -63c0 -34.667 -12.833 -62.334 -38.5 -83.001s-64.5 -31 -116.5 -31v33c28 0 49.833 5.16699 65.5 15.5
s23.834 22.833 24.501 37.5zM223.998 667.001v-133.002h124v-50h-124v-331c0 -52 21.333 -78 64 -78c24.667 0 49 9 73 27l14 -20c-38 -61.333 -92.667 -92 -164 -92c-46 0 -82.167 12.833 -108.5 38.5s-39.5 65.834 -39.5 120.501v335h-60v28
c74 30.667 136.333 82.334 187 155.001h34z" />
    <glyph glyph-name="Tcaron" unicode="&#x164;" horiz-adv-x="691" 
d="M522 900l-122 -154h-110l-122 154h48l129 -76l129 76h48zM30 702h631.002l15 -241h-36c-36.667 82.667 -65 137.167 -85 163.5s-47 39.5 -81 39.5h-43v-561c0 -25.333 5.16699 -41.333 15.5 -48s33.833 -12.334 70.5 -17.001v-38h-343v38
c20 2.66699 34.167 4.66699 42.5 6s16.666 4.33301 24.999 9s13.666 10.834 15.999 18.501s3.5 18.167 3.5 31.5v561h-44c-34 0 -61 -13.167 -81 -39.5s-48.333 -80.833 -85 -163.5h-36z" />
    <glyph glyph-name="tcaron" unicode="&#x165;" horiz-adv-x="375" 
d="M411 774l-113 -196h-33l14 205h132v-9zM224 667v-133.002h124v-50h-124v-331c0 -52 21.333 -78 64 -78c24.667 0 49 9 73 27l14 -20c-38 -61.333 -92.667 -92 -164 -92c-46 0 -82.167 12.833 -108.5 38.5s-39.5 65.834 -39.5 120.501v335h-60v28
c74 30.667 136.333 82.334 187 155.001h34z" />
    <glyph glyph-name="Tbar" unicode="&#x166;" horiz-adv-x="691" 
d="M30 702h631.002l15 -241h-36c-36.667 82.667 -65 137.167 -85 163.5s-47 39.5 -81 39.5h-43v-279h109v-55h-109v-227c0 -25.333 5.16699 -41.333 15.5 -48s33.833 -12.334 70.5 -17.001v-38h-343v38c20 2.66699 34.167 4.66699 42.5 6s16.666 4.33301 24.999 9
s13.666 10.834 15.999 18.501s3.5 18.167 3.5 31.5v227h-109v55h109v279h-44c-34 0 -61 -13.167 -81 -39.5s-48.333 -80.833 -85 -163.5h-36z" />
    <glyph glyph-name="tbar" unicode="&#x167;" horiz-adv-x="387" 
d="M230 667v-133.002h124v-50h-124v-106h124v-49h-124v-176c0 -52 21.333 -78 64 -78c24.667 0 49 9 73 27l14 -20c-38 -61.333 -92.667 -92 -164 -92c-46 0 -82.167 12.833 -108.5 38.5s-39.5 65.834 -39.5 120.501v180h-60v49h60v106h-60v28
c74 30.667 136.333 82.334 187 155.001h34z" />
    <glyph glyph-name="Utilde" unicode="&#x168;" horiz-adv-x="743" 
d="M474 745c-22 0 -47.501 10 -76.501 30s-50.167 30 -63.5 30c-22.667 0 -45.334 -18.667 -68.001 -56l-31 17c18.667 46 36.334 79.167 53.001 99.5s37.334 30.5 62.001 30.5c22 0 47.5 -10 76.5 -30s50.167 -30 63.5 -30c24 0 46.667 18.667 68 56l31 -17
c-18 -46 -35.5 -79.167 -52.5 -99.5s-37.833 -30.5 -62.5 -30.5zM258.999 595l-0.000976562 -337.001c0 -61.333 13 -108.666 39 -141.999s65.667 -50 119 -50c54.667 0 97.834 15.833 129.501 47.5s47.5 81.5 47.5 149.5v332c0 26.667 -5.5 44 -16.5 52
s-37.167 13.667 -78.5 17v38h231v-38c-34.667 -4 -56.167 -9.83301 -64.5 -17.5s-12.5 -24.834 -12.5 -51.501v-351c0 -82.667 -25.167 -145.667 -75.5 -189s-115.5 -65 -195.5 -65c-94 0 -166.333 21.333 -217 64s-76 106.334 -76 191.001v350
c0 26.667 -4.16699 43.834 -12.5 51.501s-29.5 13.5 -63.5 17.5v38h323v-38c-34.667 -4 -56.167 -9.83301 -64.5 -17.5s-12.5 -24.834 -12.5 -51.501z" />
    <glyph glyph-name="utilde" unicode="&#x169;" horiz-adv-x="623" 
d="M548 422v-311.999c0 -18.667 2.16699 -31.334 6.5 -38.001s14.833 -10.334 31.5 -11.001l24 -1v-35l-196 -35h-29l3 96c-54 -64 -112.667 -96 -176 -96c-46 0 -82.167 13.667 -108.5 41s-39.5 68.666 -39.5 123.999v253c0 16.667 -2.83301 29.334 -8.5 38.001
s-17.167 15 -34.5 19l-15 3v34l197 41h27l-5 -123v-247c0 -59.333 24.333 -89 73 -89c24 0 54 9.66699 90 29v295c0 16.667 -2.83301 29.334 -8.5 38.001s-17.167 15 -34.5 19l-15 3v34l196 41h28zM374 602.001c-22 0 -46.833 9.83301 -74.5 29.5s-48.167 29.5 -61.5 29.5
c-22.667 0 -44.667 -18.667 -66 -56l-31 18c18.667 46.667 36 80 52 100s36.333 30 61 30c22 0 46.833 -10 74.5 -30s48.167 -30 61.5 -30c22.667 0 44.667 18.667 66 56l31 -17c-18 -46.667 -35.167 -80 -51.5 -100s-36.833 -30 -61.5 -30z" />
    <glyph glyph-name="Umacron" unicode="&#x16a;" horiz-adv-x="743" 
d="M262 757v77h289v-77h-289zM259 595l-0.000976562 -337.001c0 -61.333 13 -108.666 39 -141.999s65.667 -50 119 -50c54.667 0 97.834 15.833 129.501 47.5s47.5 81.5 47.5 149.5v332c0 26.667 -5.5 44 -16.5 52s-37.167 13.667 -78.5 17v38h231v-38
c-34.667 -4 -56.167 -9.83301 -64.5 -17.5s-12.5 -24.834 -12.5 -51.501v-351c0 -82.667 -25.167 -145.667 -75.5 -189s-115.5 -65 -195.5 -65c-94 0 -166.333 21.333 -217 64s-76 106.334 -76 191.001v350c0 26.667 -4.16699 43.834 -12.5 51.501s-29.5 13.5 -63.5 17.5v38
h323v-38c-34.667 -4 -56.167 -9.83301 -64.5 -17.5s-12.5 -24.834 -12.5 -51.501z" />
    <glyph glyph-name="umacron" unicode="&#x16b;" horiz-adv-x="623" 
d="M548 422v-311.999c0 -18.667 2.16699 -31.334 6.5 -38.001s14.833 -10.334 31.5 -11.001l24 -1v-35l-196 -35h-29l3 96c-54 -64 -112.667 -96 -176 -96c-46 0 -82.167 13.667 -108.5 41s-39.5 68.666 -39.5 123.999v253c0 16.667 -2.83301 29.334 -8.5 38.001
s-17.167 15 -34.5 19l-15 3v34l197 41h27l-5 -123v-247c0 -59.333 24.333 -89 73 -89c24 0 54 9.66699 90 29v295c0 16.667 -2.83301 29.334 -8.5 38.001s-17.167 15 -34.5 19l-15 3v34l196 41h28zM173 624.001v77h277v-77h-277z" />
    <glyph glyph-name="Ubreve" unicode="&#x16c;" horiz-adv-x="743" 
d="M406 742c-46 0 -81.832 13.5 -107.499 40.5s-38.5 65.5 -38.5 115.5h41c8.66699 -48 43.667 -72 105 -72c62 0 97.333 24 106 72h41c0 -50 -12.833 -88.5 -38.5 -115.5s-61.834 -40.5 -108.501 -40.5zM259.001 595l-0.000976562 -337.001
c0 -61.333 13 -108.666 39 -141.999s65.667 -50 119 -50c54.667 0 97.834 15.833 129.501 47.5s47.5 81.5 47.5 149.5v332c0 26.667 -5.5 44 -16.5 52s-37.167 13.667 -78.5 17v38h231v-38c-34.667 -4 -56.167 -9.83301 -64.5 -17.5s-12.5 -24.834 -12.5 -51.501v-351
c0 -82.667 -25.167 -145.667 -75.5 -189s-115.5 -65 -195.5 -65c-94 0 -166.333 21.333 -217 64s-76 106.334 -76 191.001v350c0 26.667 -4.16699 43.834 -12.5 51.501s-29.5 13.5 -63.5 17.5v38h323v-38c-34.667 -4 -56.167 -9.83301 -64.5 -17.5
s-12.5 -24.834 -12.5 -51.501z" />
    <glyph glyph-name="ubreve" unicode="&#x16d;" horiz-adv-x="623" 
d="M548 422v-311.999c0 -18.667 2.16699 -31.334 6.5 -38.001s14.833 -10.334 31.5 -11.001l24 -1v-35l-196 -35h-29l3 96c-54 -64 -112.667 -96 -176 -96c-46 0 -82.167 13.667 -108.5 41s-39.5 68.666 -39.5 123.999v253c0 16.667 -2.83301 29.334 -8.5 38.001
s-17.167 15 -34.5 19l-15 3v34l197 41h27l-5 -123v-247c0 -59.333 24.333 -89 73 -89c24 0 54 9.66699 90 29v295c0 16.667 -2.83301 29.334 -8.5 38.001s-17.167 15 -34.5 19l-15 3v34l196 41h28zM311 597.001c-45.333 0 -80 14.333 -104 43s-36 69.667 -36 123h42
c5.33301 -53.333 38 -80 98 -80c59.333 0 92 26.667 98 80h42c0 -53.333 -12.167 -94.333 -36.5 -123s-58.833 -43 -103.5 -43z" />
    <glyph glyph-name="Uring" unicode="&#x16e;" horiz-adv-x="743" 
d="M259 595l-0.000976562 -337.001c0 -61.333 13 -108.666 39 -141.999s65.667 -50 119 -50c54.667 0 97.834 15.833 129.501 47.5s47.5 81.5 47.5 149.5v332c0 26.667 -5.5 44 -16.5 52s-37.167 13.667 -78.5 17v38h231v-38c-34.667 -4 -56.167 -9.83301 -64.5 -17.5
s-12.5 -24.834 -12.5 -51.501v-351c0 -82.667 -25.167 -145.667 -75.5 -189s-115.5 -65 -195.5 -65c-94 0 -166.333 21.333 -217 64s-76 106.334 -76 191.001v350c0 26.667 -4.16699 43.834 -12.5 51.501s-29.5 13.5 -63.5 17.5v38h323v-38
c-34.667 -4 -56.167 -9.83301 -64.5 -17.5s-12.5 -24.834 -12.5 -51.501zM355.999 824.999c0 -15.333 4.50098 -27.833 13.501 -37.5s21.5 -14.5 37.5 -14.5c15.333 0 27.666 5 36.999 15s14 22.333 14 37c0 16 -4.5 29 -13.5 39s-21.5 15 -37.5 15s-28.5 -5 -37.5 -15
s-13.5 -23 -13.5 -39zM307 824.999c0 28 9.5 51.333 28.5 70s42.833 28 71.5 28s52.334 -9.33301 71.001 -28s28 -42 28 -70c0 -27.333 -9.33301 -50.166 -28 -68.499s-42.334 -27.5 -71.001 -27.5s-52.5 9.16699 -71.5 27.5s-28.5 41.166 -28.5 68.499z" />
    <glyph glyph-name="uring" unicode="&#x16f;" horiz-adv-x="623" 
d="M260 672c0 -15.333 4.5 -28 13.5 -38s21.5 -15 37.5 -15c15.333 0 27.666 5 36.999 15s14 22.667 14 38s-4.66699 28 -14 38s-21.666 15 -36.999 15c-16 0 -28.5 -5 -37.5 -15s-13.5 -22.667 -13.5 -38zM211 672c0 27.333 9.5 50.333 28.5 69s42.833 28 71.5 28
s52.334 -9.33301 71.001 -28s28 -41.667 28 -69s-9.33301 -50.333 -28 -69s-42.334 -28 -71.001 -28s-52.5 9.33301 -71.5 28s-28.5 41.667 -28.5 69zM548 422v-311.999c0 -18.667 2.16699 -31.334 6.5 -38.001s14.833 -10.334 31.5 -11.001l24 -1v-35l-196 -35h-29l3 96
c-54 -64 -112.667 -96 -176 -96c-46 0 -82.167 13.667 -108.5 41s-39.5 68.666 -39.5 123.999v253c0 16.667 -2.83301 29.334 -8.5 38.001s-17.167 15 -34.5 19l-15 3v34l197 41h27l-5 -123v-247c0 -59.333 24.333 -89 73 -89c24 0 54 9.66699 90 29v295
c0 16.667 -2.83301 29.334 -8.5 38.001s-17.167 15 -34.5 19l-15 3v34l196 41h28z" />
    <glyph glyph-name="Uhungarumlaut" unicode="&#x170;" horiz-adv-x="743" 
d="M259 595l-0.000976562 -337.001c0 -61.333 13 -108.666 39 -141.999s65.667 -50 119 -50c54.667 0 97.834 15.833 129.501 47.5s47.5 81.5 47.5 149.5v332c0 26.667 -5.5 44 -16.5 52s-37.167 13.667 -78.5 17v38h231v-38c-34.667 -4 -56.167 -9.83301 -64.5 -17.5
s-12.5 -24.834 -12.5 -51.501v-351c0 -82.667 -25.167 -145.667 -75.5 -189s-115.5 -65 -195.5 -65c-94 0 -166.333 21.333 -217 64s-76 106.334 -76 191.001v350c0 26.667 -4.16699 43.834 -12.5 51.501s-29.5 13.5 -63.5 17.5v38h323v-38
c-34.667 -4 -56.167 -9.83301 -64.5 -17.5s-12.5 -24.834 -12.5 -51.501zM348.999 893.999h136v-8l-144 -141h-45zM518.999 893.999h137v-8l-145 -141h-45z" />
    <glyph glyph-name="uhungarumlaut" unicode="&#x171;" horiz-adv-x="623" 
d="M548 422v-311.999c0 -18.667 2.16699 -31.334 6.5 -38.001s14.833 -10.334 31.5 -11.001l24 -1v-35l-196 -35h-29l3 96c-54 -64 -112.667 -96 -176 -96c-46 0 -82.167 13.667 -108.5 41s-39.5 68.666 -39.5 123.999v253c0 16.667 -2.83301 29.334 -8.5 38.001
s-17.167 15 -34.5 19l-15 3v34l197 41h27l-5 -123v-247c0 -59.333 24.333 -89 73 -89c24 0 54 9.66699 90 29v295c0 16.667 -2.83301 29.334 -8.5 38.001s-17.167 15 -34.5 19l-15 3v34l196 41h28zM243 764.001h136v-8l-145 -157h-44zM413 764.001h137v-8l-146 -157h-44z
" />
    <glyph glyph-name="Uogonek" unicode="&#x172;" horiz-adv-x="743" 
d="M259 595l-0.000976562 -337.002c0 -61.333 13 -108.666 39 -141.999s65.667 -50 119 -50c54.667 0 97.834 15.833 129.501 47.5s47.5 81.5 47.5 149.5v332c0 26.667 -5.5 44 -16.5 52s-37.167 13.667 -78.5 17v38h231v-38c-34.667 -4 -56.167 -9.83301 -64.5 -17.5
s-12.5 -24.834 -12.5 -51.501v-351c0 -78 -22.667 -138.5 -68 -181.5s-104.666 -66.833 -177.999 -71.5c24 12.667 55 26 93 40l8 -15c-66.667 -30.667 -100 -69 -100 -115c0 -15.333 4 -27.666 12 -36.999s19.333 -14 34 -14c23.333 0 46.333 9 69 27l15 -17
c-39.333 -49.333 -83.666 -74 -132.999 -74c-26 0 -47.667 7.66699 -65 23s-26 35.333 -26 60c0 47.333 31 88 93 122c-2.66699 0 -6.83398 -0.166992 -12.501 -0.5s-9.83398 -0.5 -12.501 -0.5c-94 0 -166.333 21.333 -217 64s-76 106.334 -76 191.001v350
c0 26.667 -4.16699 43.834 -12.5 51.501s-29.5 13.5 -63.5 17.5v38h323v-38c-34.667 -4 -56.167 -9.83301 -64.5 -17.5s-12.5 -24.834 -12.5 -51.501z" />
    <glyph glyph-name="uogonek" unicode="&#x173;" horiz-adv-x="623" 
d="M548 422v-311.998c0 -18.667 2.16699 -31.334 6.5 -38.001s14.833 -10.334 31.5 -11.001l24 -1v-35c-88.667 -14.667 -148.834 -30.834 -180.501 -48.501s-47.5 -43.167 -47.5 -76.5c0 -14.667 4 -26.667 12 -36s19.333 -14 34 -14c22.667 0 46 9 70 27l14 -17
c-39.333 -49.333 -83 -74 -131 -74c-27.333 0 -49.666 7.66699 -66.999 23s-26 36.333 -26 63c0 46.667 32.333 85.667 97 117l3 97c-54 -64 -112.667 -96 -176 -96c-46 0 -82.167 13.667 -108.5 41s-39.5 68.666 -39.5 123.999v253c0 16.667 -2.83301 29.334 -8.5 38.001
s-17.167 15 -34.5 19l-15 3v34l197 41h27l-5 -123v-247c0 -59.333 24.333 -89 73 -89c24 0 54 9.66699 90 29v295c0 16.667 -2.83301 29.334 -8.5 38.001s-17.167 15 -34.5 19l-15 3v34l196 41h28z" />
    <glyph glyph-name="Wcircumflex" unicode="&#x174;" horiz-adv-x="985" 
d="M641 -5l-136.003 399.004l-146 -399h-59l-237 632c-7.33301 19.333 -26.666 31.666 -57.999 36.999v38h310v-38c-23.333 -1.33301 -39.666 -5.16602 -48.999 -11.499s-14 -15.833 -14 -28.5c0 -8.66699 4 -25.667 12 -51l128 -351l89 243l-55 162
c-6 19.333 -23.333 31.666 -52 36.999v38h306v-38c-27.333 -0.666992 -46.666 -4.33398 -57.999 -11.001s-17 -17.334 -17 -32.001c0 -11.333 4 -30 12 -56l110 -338l116 340c7.33301 23.333 11 40.333 11 51c0 14.667 -5.5 25.667 -16.5 33s-30.167 11.666 -57.5 12.999v38
h200v-38c-32 -6 -51.333 -18.333 -58 -37l-222 -632h-59zM578.997 900.004l122 -155h-48l-129 76l-129 -76h-48l122 155h110z" />
    <glyph glyph-name="wcircumflex" unicode="&#x175;" horiz-adv-x="865" 
d="M509 766l115 -171h-50l-120 91l-120 -91h-50l115 171h110zM647 190l97.001 245.997c4 10.667 6 20.334 6 29.001c0 10.667 -4.5 18.167 -13.5 22.5s-24.5 7.83301 -46.5 10.5v36h170v-36c-17.333 -4.66699 -29 -9.5 -35 -14.5s-11.333 -13.167 -16 -24.5l-193 -465h-51
l-119 317l-136 -317h-50l-204 465c-5.33301 11.333 -11 19.5 -17 24.5s-17.333 9.83301 -34 14.5v36h279v-36c-34.667 -4.66699 -52 -15 -52 -31c0 -9.33301 2.33301 -19.666 7 -30.999l102 -254l80 191l-33 86c-3.33301 11.333 -8.33301 19.666 -15 24.999
s-17.334 10 -32.001 14v36h274v-36c-24 -2.66699 -40.5 -6.16699 -49.5 -10.5s-13.5 -12.166 -13.5 -23.499c0 -5.33301 1.66699 -14.666 5 -27.999z" />
    <glyph glyph-name="Ycircumflex" unicode="&#x176;" horiz-adv-x="686" 
d="M431 268l0.00390625 -165.001c0 -25.333 5.16699 -41.333 15.5 -48s33.833 -12.334 70.5 -17.001v-38h-338v38c20 2.66699 34.167 4.66699 42.5 6s16.666 4.33301 24.999 9s13.666 10.834 15.999 18.501s3.5 18.167 3.5 31.5v161l-203 363
c-7.33301 12.667 -14.833 21.334 -22.5 26.001s-19.5 8.33398 -35.5 11.001v38h322v-38c-28.667 -0.666992 -48 -3.66699 -58 -9s-15 -14.333 -15 -27c0 -14 7.33301 -34 22 -60l133 -232l122 231c14.667 29.333 22 49.666 22 60.999c0 12 -5.83301 20.667 -17.5 26
s-30.834 8.66602 -57.501 9.99902v38h203v-38c-28.667 -5.33301 -48.334 -17.666 -59.001 -36.999zM434.004 899.999l122 -155h-48l-129 76l-129 -76h-48l122 155h110z" />
    <glyph glyph-name="ycircumflex" unicode="&#x177;" horiz-adv-x="580" 
d="M352 160l106.001 275.001c5.33301 14 8 23.667 8 29c0 10.667 -4.66699 18.167 -14 22.5s-27 8.16602 -53 11.499v36h176v-36c-17.333 -4.66699 -29 -9.5 -35 -14.5s-11.333 -13.167 -16 -24.5l-224 -550c-18 -44.667 -37.333 -77.334 -58 -98.001s-47 -31 -79 -31
c-40 0 -67 14.333 -81 43v61c27.333 -6 51.666 -9 72.999 -9c28 0 50.167 4.66699 66.5 14s29.5 26 39.5 50l16 39l-221 481c-5.33301 11.333 -11 19.5 -17 24.5s-17.333 9.83301 -34 14.5v36h295v-36c-26.667 -3.33301 -44.5 -7.16602 -53.5 -11.499
s-13.5 -11.833 -13.5 -22.5c0 -6.66699 2 -16 6 -28zM382.001 766.001l115 -171h-50l-120 91l-120 -91h-50l115 171h110z" />
    <glyph glyph-name="Ydieresis" unicode="&#x178;" horiz-adv-x="686" 
d="M431 268l0.00390625 -165.001c0 -25.333 5.16699 -41.333 15.5 -48s33.833 -12.334 70.5 -17.001v-38h-338v38c20 2.66699 34.167 4.66699 42.5 6s16.666 4.33301 24.999 9s13.666 10.834 15.999 18.501s3.5 18.167 3.5 31.5v161l-203 363
c-7.33301 12.667 -14.833 21.334 -22.5 26.001s-19.5 8.33398 -35.5 11.001v38h322v-38c-28.667 -0.666992 -48 -3.66699 -58 -9s-15 -14.333 -15 -27c0 -14 7.33301 -34 22 -60l133 -232l122 231c14.667 29.333 22 49.666 22 60.999c0 12 -5.83301 20.667 -17.5 26
s-30.834 8.66602 -57.501 9.99902v38h203v-38c-28.667 -5.33301 -48.334 -17.666 -59.001 -36.999zM199.004 822.999c0 21.333 7.66699 39.5 23 54.5s34 22.5 56 22.5c21.333 0 39.833 -7.66699 55.5 -23s23.5 -33.333 23.5 -54c0 -21.333 -7.83301 -39.666 -23.5 -54.999
s-34.167 -23 -55.5 -23c-22 0 -40.667 7.66699 -56 23s-23 33.666 -23 54.999zM402.004 822.999c0 20.667 7.66699 38.667 23 54s33.666 23 54.999 23c22 0 40.667 -7.5 56 -22.5s23 -33.167 23 -54.5s-7.66699 -39.666 -23 -54.999s-34 -23 -56 -23
c-21.333 0 -39.666 7.66699 -54.999 23s-23 33.666 -23 54.999z" />
    </font>
</defs>
</svg>
